<svg xmlns="http://www.w3.org/2000/svg" xmlns:gf="http://glowforge.com/namespaces/gf" xmlns:xlink="http://www.w3.org/1999/xlink" width="20in" height="14.916666666666666in" viewBox="0 0 1920 1432"><gf:laserdefs><gf:laserdef class="lb46317fe-3728-465c-9c63-ec37f3744666" order="0" type="cut" power="100" speed="587.5" focal_offset="3.8" corner="50" materialid="UNKNOWN" settingid="cut::EMPTY_SETTING::MANUAL_SETTING"></gf:laserdef><gf:laserdef class="l432cd8b7-bd0d-496c-8482-713201e9f45c" order="0" type="cut" power="100" speed="587.5" focal_offset="3.8" corner="50" materialid="UNKNOWN" settingid="cut::EMPTY_SETTING::MANUAL_SETTING"></gf:laserdef><gf:laserdef class="l3032e24c-b678-4e5a-8349-feb810e64c70" order="0" type="cut" power="100" speed="587.5" focal_offset="3.8" corner="50" materialid="UNKNOWN" settingid="cut::EMPTY_SETTING::MANUAL_SETTING"></gf:laserdef></gf:laserdefs><g id="oEw"><g id="oE"><g id="g9d447ba0-662e-4183-b4f3-356899d84eb5"><path class="e lb46317fe-3728-465c-9c63-ec37f3744666 lb46317fe-3728-465c-9c63-ec37f3744666" id="e0" transform="matrix(-4.0038777323390165e-16,1.0000000000000004,-1.0000000000000004,-4.0038777323390165e-16,707.6447850377542,158.5724030339059)" d="M105.82677158 57.07086608L105.82677158 -8e-8L737.0078741 -8e-8L737.0078741 57.07086608L752.12598434 57.07086608L752.12598434 114.14173224L835.27559066 114.14173224L693.54330716 297.07086614L362.83464566 473.19685044L-1e-7 526.11023628L75.5905511 322.3937008L75.5905511 208.62992124L45.35433062 114.14173224L90.70866134 114.14173224L90.70866134 57.07086608L105.82677158 57.07086608z"></path></g><g id="g7"><path class="e l3032e24c-b678-4e5a-8349-feb810e64c70 l3032e24c-b678-4e5a-8349-feb810e64c70" id="e1" transform="matrix(4.0038777323390165e-16,1.0000000000000004,1.0000000000000004,-4.0038777323390165e-16,739.3503725223864,158.57240303390617)" d="M105.82677158 57.07086608L105.82677158 -8e-8L737.0078741 -8e-8L737.0078741 57.07086608L752.12598434 57.07086608L752.12598434 114.14173224L835.27559066 114.14173224L693.54330716 297.07086614L362.83464566 473.19685044L-1e-7 526.11023628L75.5905511 322.3937008L75.5905511 208.62992124L45.35433062 114.14173224L90.70866134 114.14173224L90.70866134 57.07086608L105.82677158 57.07086608z"></path></g><g id="g8"><path class="e l432cd8b7-bd0d-496c-8482-713201e9f45c l432cd8b7-bd0d-496c-8482-713201e9f45c" id="e2" transform="matrix(-4.0038777323390165e-16,-1.0000000000000004,-1.0000000000000004,4.0038777323390165e-16,1664.5120215529757,993.8479935939068)" d="M105.82677158 57.07086608L105.82677158 -8e-8L737.0078741 -8e-8L737.0078741 57.07086608L752.12598434 57.07086608L752.12598434 114.14173224L835.27559066 114.14173224L693.54330716 297.07086614L362.83464566 473.19685044L-1e-7 526.11023628L75.5905511 322.3937008L75.5905511 208.62992124L45.35433062 114.14173224L90.70866134 114.14173224L90.70866134 57.07086608L105.82677158 57.07086608z"></path></g></g></g><style type="text/css">.lb46317fe-3728-465c-9c63-ec37f3744666 { stroke: #000000; fill: none; }.l432cd8b7-bd0d-496c-8482-713201e9f45c { stroke: #9e5000; fill: none; }.l3032e24c-b678-4e5a-8349-feb810e64c70 { stroke: #e53595; fill: none; }</style><text y="1172" x="20">
  <tspan>Glowforge® print settings</tspan>
  <tspan x="20" dy="20">Design id: 7BG1AYAHEWNY9UWEGQMN2S8USZBPC</tspan>
  <tspan x="20" dy="20">Timestamp: Wed Apr 24 2024 12:01:55 GMT+0100 (British Summer Time)</tspan>
  <tspan x="20" dy="20">Version: 1.0</tspan>
  <tspan x="20" dy="20" fill="#000000">Step 0: #000000 Cut::Manual</tspan>
  <tspan x="20" dy="20" fill="#000000">Step 0: #000000 Speed=150</tspan>
  <tspan x="20" dy="20" fill="#000000">Step 0: #000000 Precision Power=full</tspan>
  <tspan x="20" dy="20" fill="#9e5000">Step 1: #9e5000 Cut::Manual</tspan>
  <tspan x="20" dy="20" fill="#9e5000">Step 1: #9e5000 Speed=150</tspan>
  <tspan x="20" dy="20" fill="#9e5000">Step 1: #9e5000 Precision Power=full</tspan>
  <tspan x="20" dy="20" fill="#e53595">Step 2: #e53595 Cut::Manual</tspan>
  <tspan x="20" dy="20" fill="#e53595">Step 2: #e53595 Speed=150</tspan>
  <tspan x="20" dy="20" fill="#e53595">Step 2: #e53595 Precision Power=full</tspan>
</text></svg>