<svg xmlns="http://www.w3.org/2000/svg" xmlns:gf="http://glowforge.com/namespaces/gf" xmlns:xlink="http://www.w3.org/1999/xlink" width="20in" height="20.541666666666668in" viewBox="0 0 1920 1972"><gf:laserdefs><gf:laserdef class="l20a7335f-8f57-49be-8d0d-c146b8b4abe6" order="0" type="cut" power="100" speed="636.25" passes="1" corner="50" materialid="UNKNOWN" settingid="cut::HEAT:5724451848585216::MANUAL_SETTING"></gf:laserdef><gf:laserdef class="lc9018532-f888-4b24-9876-a40183abb976" order="1" type="cut" power="100" speed="636.25" passes="1" corner="50" materialid="UNKNOWN" settingid="cut::HEAT:5724451848585216::MANUAL_SETTING"></gf:laserdef><gf:laserdef class="lf98534a0-8e8c-4c8d-8623-49979bc6e67f" order="1" type="cut" power="100" speed="636.25" passes="1" corner="50" materialid="UNKNOWN" settingid="cut::HEAT:5724451848585216::MANUAL_SETTING"></gf:laserdef><gf:laserdef class="lef5773d1-be43-4a5e-8711-c4539a04c8e2" order="2" type="cut" power="30" speed="2050" passes="1" corner="15" materialid="UNKNOWN" settingid="score::HEAT:5206117688016896::MANUAL_SETTING"></gf:laserdef><gf:laserdef class="ld98d8fc4-e1ca-4dd0-92f5-01418b93f3c6" order="2" type="cut" power="30" speed="2050" passes="1" corner="15" materialid="UNKNOWN" settingid="score::HEAT:5206117688016896::MANUAL_SETTING"></gf:laserdef><gf:laserdef class="l2ae7799a-a7ed-454e-864a-93bc532aa700" order="3" type="cut" power="100" speed="636.25" passes="1" corner="50" materialid="UNKNOWN" settingid="cut::HEAT:5724451848585216::MANUAL_SETTING"></gf:laserdef><gf:laserdef class="l61920a11-4290-4ea2-adb5-3e98a5c01278" order="3" type="cut" power="100" speed="636.25" passes="1" corner="50" materialid="UNKNOWN" settingid="cut::HEAT:5724451848585216::MANUAL_SETTING"></gf:laserdef><gf:laserdef class="lf56e3a6c-fec7-42b8-9d36-09d8d9e9389d" order="8" type="cut" power="100" speed="636.25" passes="1" corner="50" materialid="UNKNOWN" settingid="cut::HEAT:5724451848585216::MANUAL_SETTING"></gf:laserdef><gf:laserdef class="la77eede5-f3b2-4280-af06-1150ca2572fc" order="9" type="cut" power="100" speed="636.25" passes="1" corner="50" materialid="UNKNOWN" settingid="cut::HEAT:5724451848585216::MANUAL_SETTING"></gf:laserdef></gf:laserdefs><g id="oEw"><g id="oE"><g id="g45568061-2a2e-46cb-a83b-ec1592bfbbd5"><path class="e lc9018532-f888-4b24-9876-a40183abb976 lc9018532-f888-4b24-9876-a40183abb976" id="e0" transform="matrix(1,0,0,1,477.64584278320785,608.386744639457)" d="M256.67940666 77.9063886L285.14736383 28.59843772A186.14173233 186.14173233 0 0 1 285.14736383 343.68502677L256.67940666 294.3770721L244.40502807 301.4636863L272.87298903 350.77164095A186.14173233 186.14173233 0 0 1 -2e-8 193.22834642L56.9359181 193.22834642L56.9359181 179.05511807L-2e-8 179.05511807A186.14173233 186.14173233 0 0 1 272.87298903 21.51182354L244.40502807 70.81977442L256.67940666 77.9063886z"></path><path class="e lef5773d1-be43-4a5e-8711-c4539a04c8e2 lef5773d1-be43-4a5e-8711-c4539a04c8e2" id="e1" transform="matrix(1,0,0,1,477.64584278320785,608.386744639457)" d="M244.45534114 271.02646297L230.29484224 279.20203085L224.79418586 253.32348092L244.45534114 271.02646297z"></path><path class="e lef5773d1-be43-4a5e-8711-c4539a04c8e2 lef5773d1-be43-4a5e-8711-c4539a04c8e2" id="e2" transform="matrix(1,0,0,1,477.64584278320785,608.386744639457)" d="M83.27016945 194.31730012L83.27016945 177.96616437L108.4319811 186.14173224L83.27016945 194.31730012z"></path><path class="e lef5773d1-be43-4a5e-8711-c4539a04c8e2 lef5773d1-be43-4a5e-8711-c4539a04c8e2" id="e3" transform="matrix(1,0,0,1,477.64584278320785,608.386744639457)" d="M244.45534114 101.25699773L224.79418586 118.9599798L230.29484224 93.08142986L244.45534114 101.25699773z"></path><path class="e l2ae7799a-a7ed-454e-864a-93bc532aa700 l2ae7799a-a7ed-454e-864a-93bc532aa700" id="e4" transform="matrix(1,0,0,1,477.64584278320785,608.386744639457)" d="M108.4319811 186.14173224A77.57480317 77.57480317 0 1 0 263.58158745 186.14173224A77.57480317 77.57480317 0 1 0 108.4319811 186.14173224z"></path><path class="e l2ae7799a-a7ed-454e-864a-93bc532aa700 l2ae7799a-a7ed-454e-864a-93bc532aa700" id="e5" transform="matrix(1,0,0,1,477.64584278320785,608.386744639457)" d="M87.92928 136.06299207A11.33858268 11.33858268 0 1 0 110.60644536 136.06299207A11.33858268 11.33858268 0 1 0 87.92928 136.06299207z"></path></g><g id="g2"><path class="e lf56e3a6c-fec7-42b8-9d36-09d8d9e9389d lf56e3a6c-fec7-42b8-9d36-09d8d9e9389d" id="e6" transform="matrix(1,0,0,1,255.56828163620247,238.67009132919713)" d="M-8e-8 186.14173228A186.14173233 186.14173233 0 1 0 372.28346458 186.14173228A186.14173233 186.14173233 0 1 0 -8e-8 186.14173228z"></path><path class="e la77eede5-f3b2-4280-af06-1150ca2572fc la77eede5-f3b2-4280-af06-1150ca2572fc" id="e7" transform="matrix(1,0,0,1,255.56828163620247,238.67009132919713)" d="M108.56692908 186.14173228A77.57480317 77.57480317 0 1 0 263.71653542 186.14173228A77.57480317 77.57480317 0 1 0 108.56692908 186.14173228z"></path><path class="e l20a7335f-8f57-49be-8d0d-c146b8b4abe6 l20a7335f-8f57-49be-8d0d-c146b8b4abe6" id="e8" transform="matrix(0.06889763779527587,0,0,0.06889763779527587,422.8657013343756,268.39597451735006)" d="M1056 576A96 96 0 0 1 864 576A96 96 0 0 1 1056 576z"></path></g><g id="g3"><path class="e lf98534a0-8e8c-4c8d-8623-49979bc6e67f lf98534a0-8e8c-4c8d-8623-49979bc6e67f" id="e9" transform="matrix(1,0,0,1,59.2941193698573,608.386744639457)" d="M256.67940666 77.9063886L285.14736383 28.59843772A186.14173233 186.14173233 0 0 1 285.14736383 343.68502677L256.67940666 294.3770721L244.40502807 301.4636863L272.87298903 350.77164095A186.14173233 186.14173233 0 0 1 -2e-8 193.22834642L56.9359181 193.22834642L56.9359181 179.05511807L-2e-8 179.05511807A186.14173233 186.14173233 0 0 1 272.87298903 21.51182354L244.40502807 70.81977442L256.67940666 77.9063886z"></path><path class="e ld98d8fc4-e1ca-4dd0-92f5-01418b93f3c6 ld98d8fc4-e1ca-4dd0-92f5-01418b93f3c6" id="e10" transform="matrix(1,0,0,1,59.2941193698573,608.386744639457)" d="M244.45534114 271.02646297L230.29484224 279.20203085L224.79418586 253.32348092L244.45534114 271.02646297z"></path><path class="e ld98d8fc4-e1ca-4dd0-92f5-01418b93f3c6 ld98d8fc4-e1ca-4dd0-92f5-01418b93f3c6" id="e11" transform="matrix(1,0,0,1,59.2941193698573,608.386744639457)" d="M83.27016945 194.31730012L83.27016945 177.96616437L108.4319811 186.14173224L83.27016945 194.31730012z"></path><path class="e ld98d8fc4-e1ca-4dd0-92f5-01418b93f3c6 ld98d8fc4-e1ca-4dd0-92f5-01418b93f3c6" id="e12" transform="matrix(1,0,0,1,59.2941193698573,608.386744639457)" d="M244.45534114 101.25699773L224.79418586 118.9599798L230.29484224 93.08142986L244.45534114 101.25699773z"></path><path class="e l61920a11-4290-4ea2-adb5-3e98a5c01278 l61920a11-4290-4ea2-adb5-3e98a5c01278" id="e13" transform="matrix(1,0,0,1,59.2941193698573,608.386744639457)" d="M108.4319811 186.14173224A77.57480317 77.57480317 0 1 0 263.58158745 186.14173224A77.57480317 77.57480317 0 1 0 108.4319811 186.14173224z"></path></g></g></g><style type="text/css">.l20a7335f-8f57-49be-8d0d-c146b8b4abe6 { stroke: #000000; fill: none; }.lc9018532-f888-4b24-9876-a40183abb976 { stroke: #00c800; fill: none; }.lf98534a0-8e8c-4c8d-8623-49979bc6e67f { stroke: #181493; fill: none; }.lef5773d1-be43-4a5e-8711-c4539a04c8e2 { stroke: #297200; fill: none; }.ld98d8fc4-e1ca-4dd0-92f5-01418b93f3c6 { stroke: #548ab2; fill: none; }.l2ae7799a-a7ed-454e-864a-93bc532aa700 { stroke: #6e001f; fill: none; }.l61920a11-4290-4ea2-adb5-3e98a5c01278 { stroke: #9e5000; fill: none; }.lf56e3a6c-fec7-42b8-9d36-09d8d9e9389d { stroke: #ceacb6; fill: none; }.la77eede5-f3b2-4280-af06-1150ca2572fc { stroke: #e53595; fill: none; }</style><text y="1172" x="20">
  <tspan>Glowforge® print settings</tspan>
  <tspan x="20" dy="20">Design id: 7BG1AYABGXPMFUUBA4NSPS4WBYVNG</tspan>
  <tspan x="20" dy="20">Timestamp: Wed Apr 24 2024 15:25:30 GMT+0100 (British Summer Time)</tspan>
  <tspan x="20" dy="20">Version: 1.0</tspan>
  <tspan x="20" dy="20" fill="#000000">Step 0: #000000 Cut::ply_med_pg::Manual</tspan>
  <tspan x="20" dy="20" fill="#000000">Step 0: #000000 Speed=155</tspan>
  <tspan x="20" dy="20" fill="#000000">Step 0: #000000 Precision Power=full</tspan>
  <tspan x="20" dy="20" fill="#000000">Step 0: #000000 # of Passes=1</tspan>
  <tspan x="20" dy="20" fill="#00c800">Step 1: #00c800 Cut::ply_med_pg::Manual</tspan>
  <tspan x="20" dy="20" fill="#00c800">Step 1: #00c800 Speed=155</tspan>
  <tspan x="20" dy="20" fill="#00c800">Step 1: #00c800 Precision Power=full</tspan>
  <tspan x="20" dy="20" fill="#00c800">Step 1: #00c800 # of Passes=1</tspan>
  <tspan x="20" dy="20" fill="#181493">Step 2: #181493 Cut::ply_med_pg::Manual</tspan>
  <tspan x="20" dy="20" fill="#181493">Step 2: #181493 Speed=155</tspan>
  <tspan x="20" dy="20" fill="#181493">Step 2: #181493 Precision Power=full</tspan>
  <tspan x="20" dy="20" fill="#181493">Step 2: #181493 # of Passes=1</tspan>
  <tspan x="20" dy="20" fill="#297200">Step 3: #297200 Score::4mm ply score::Manual</tspan>
  <tspan x="20" dy="20" fill="#297200">Step 3: #297200 Speed=300</tspan>
  <tspan x="20" dy="20" fill="#297200">Step 3: #297200 Precision Power=30</tspan>
  <tspan x="20" dy="20" fill="#297200">Step 3: #297200 # of Passes=1</tspan>
  <tspan x="20" dy="20" fill="#548ab2">Step 4: #548ab2 Score::4mm ply score::Manual</tspan>
  <tspan x="20" dy="20" fill="#548ab2">Step 4: #548ab2 Speed=300</tspan>
  <tspan x="20" dy="20" fill="#548ab2">Step 4: #548ab2 Precision Power=30</tspan>
  <tspan x="20" dy="20" fill="#548ab2">Step 4: #548ab2 # of Passes=1</tspan>
  <tspan x="20" dy="20" fill="#6e001f">Step 5: #6e001f Cut::ply_med_pg::Manual</tspan>
  <tspan x="20" dy="20" fill="#6e001f">Step 5: #6e001f Speed=155</tspan>
  <tspan x="20" dy="20" fill="#6e001f">Step 5: #6e001f Precision Power=full</tspan>
  <tspan x="20" dy="20" fill="#6e001f">Step 5: #6e001f # of Passes=1</tspan>
  <tspan x="20" dy="20" fill="#9e5000">Step 6: #9e5000 Cut::ply_med_pg::Manual</tspan>
  <tspan x="20" dy="20" fill="#9e5000">Step 6: #9e5000 Speed=155</tspan>
  <tspan x="20" dy="20" fill="#9e5000">Step 6: #9e5000 Precision Power=full</tspan>
  <tspan x="20" dy="20" fill="#9e5000">Step 6: #9e5000 # of Passes=1</tspan>
  <tspan x="20" dy="20" fill="#ceacb6">Step 7: #ceacb6 Cut::ply_med_pg::Manual</tspan>
  <tspan x="20" dy="20" fill="#ceacb6">Step 7: #ceacb6 Speed=155</tspan>
  <tspan x="20" dy="20" fill="#ceacb6">Step 7: #ceacb6 Precision Power=full</tspan>
  <tspan x="20" dy="20" fill="#ceacb6">Step 7: #ceacb6 # of Passes=1</tspan>
  <tspan x="20" dy="20" fill="#e53595">Step 8: #e53595 Cut::ply_med_pg::Manual</tspan>
  <tspan x="20" dy="20" fill="#e53595">Step 8: #e53595 Speed=155</tspan>
  <tspan x="20" dy="20" fill="#e53595">Step 8: #e53595 Precision Power=full</tspan>
  <tspan x="20" dy="20" fill="#e53595">Step 8: #e53595 # of Passes=1</tspan>
</text></svg>