<?xml version="1.0" encoding="utf-8"?>
<!-- Generator: Fusion 360, Shaper Origin Export Add-In, Version 1.7.0  -->
<svg xmlns="http://www.w3.org/2000/svg" xmlns:xlink="http://www.w3.org/1999/xlink" xmlns:shaper="http://www.shapertools.com/namespaces/shaper" shaper:fusionaddin="version:1.7.0" width="9.8464295cm" height="9.85cm" version="1.1" x="0cm" y="0cm" viewBox="0 0 9.8464295 9.85" enable-background="new 0 0 9.8464295 9.85" xml:space="preserve"><path d="M4.0905048,6.7099621 L4.8437195,8.0145683 A4.925,4.925 57.8181613 0,0 4.8437195,-0.3220977 L4.0905048,0.9825086 3.7657452,0.7950086 4.51896,-0.5095977 A4.925,4.925 297.8181613 0,0 -2.7008045,3.6587353 L-1.194375,3.6587353 -1.194375,4.0337353 -2.7008045,4.0337353 A4.925,4.925 177.8181613 0,0 4.51896,8.2020683 L3.7657452,6.8974621 4.0905048,6.7099621z" transform="matrix(1,0,0,-1,2.7008045,8.7712353)" fill="rgb(0,0,0)" shaper:cutDepth="0.39cm" stroke-linecap="round" stroke-linejoin="round" /><path d="M3.7670764,1.6003268 L3.3924132,1.3840149 3.246875,2.0687182 3.7670764,1.6003268z" transform="matrix(1,0,0,-1,2.7008045,8.7712353)" fill="rgb(101,101,101)" fill-rule="nonzero" shaper:cutDepth="0.005cm" stroke-linecap="round" stroke-linejoin="round" /><path d="M-0.4976146,3.6299234 L-0.4976146,4.0625472 0.168125,3.8462353 -0.4976146,3.6299234z" transform="matrix(1,0,0,-1,2.7008045,8.7712353)" fill="rgb(101,101,101)" fill-rule="nonzero" shaper:cutDepth="0.005cm" stroke-linecap="round" stroke-linejoin="round" /><path d="M3.7670764,6.0921439 L3.246875,5.6237525 3.3924132,6.3084558 3.7670764,6.0921439z" transform="matrix(1,0,0,-1,2.7008045,8.7712353)" fill="rgb(101,101,101)" fill-rule="nonzero" shaper:cutDepth="0.005cm" stroke-linecap="round" stroke-linejoin="round" /><path d="M0.168125,3.8462353 a2.0525,2.0525 0 1,1 4.105,0 a2.0525,2.0525 0 1,1 -4.105,0z" transform="matrix(1,0,0,-1,2.7008045,8.7712353)" fill="rgb(255,255,255)" stroke="rgb(0,0,0)" stroke-width="0.0010cm" stroke-linecap="round" stroke-linejoin="round" shaper:cutDepth="0.39cm" /><path d="M-0.3743423,5.1712353 a0.3,0.3 0 1,1 0.6,0 a0.3,0.3 0 1,1 -0.6,0z" transform="matrix(1,0,0,-1,2.7008045,8.7712353)" fill="rgb(255,255,255)" stroke="rgb(0,0,0)" stroke-width="0.0010cm" stroke-linecap="round" stroke-linejoin="round" shaper:cutDepth="0.39cm" /></svg>