<?xml version="1.0" encoding="utf-8"?>
<!-- Generator: Fusion 360, Shaper Origin Export Add-In, Version 1.7.0  -->
<svg xmlns="http://www.w3.org/2000/svg" xmlns:xlink="http://www.w3.org/1999/xlink" xmlns:shaper="http://www.shapertools.com/namespaces/shaper" shaper:fusionaddin="version:1.7.0" width="9.85cm" height="9.85cm" version="1.1" x="0cm" y="0cm" viewBox="0 0 9.85 9.85" enable-background="new 0 0 9.85 9.85" xml:space="preserve"><path d="M-7.61375,0 a4.925,4.925 0 1,1 9.85,0 a4.925,4.925 0 1,1 -9.85,0z" transform="matrix(1,0,0,-1,7.61375,4.925)" fill="rgb(0,0,0)" shaper:cutDepth="0.4cm" stroke-linecap="round" stroke-linejoin="round" /><path d="M-4.74125,0 a2.0525,2.0525 0 1,1 4.105,0 a2.0525,2.0525 0 1,1 -4.105,0z" transform="matrix(1,0,0,-1,7.61375,4.925)" fill="rgb(255,255,255)" stroke="rgb(0,0,0)" stroke-width="0.0010cm" stroke-linecap="round" stroke-linejoin="round" shaper:cutDepth="0.4cm" /><path d="M0.63625,0 a0.175,0.175 0 1,1 0.35,0 a0.175,0.175 0 1,1 -0.35,0z" transform="matrix(1,0,0,-1,7.61375,4.925)" fill="rgb(255,255,255)" stroke="rgb(0,0,0)" stroke-width="0.0010cm" stroke-linecap="round" stroke-linejoin="round" shaper:cutDepth="0.4cm" /></svg>