<?xml version="1.0" encoding="utf-8"?>
<!-- Generator: Fusion 360, Shaper Origin Export Add-In, Version 1.6.3  -->
<svg xmlns="http://www.w3.org/2000/svg" xmlns:xlink="http://www.w3.org/1999/xlink" xmlns:shaper="http://www.shapertools.com/namespaces/shaper" shaper:fusionaddin="version:1.6.3" width="12cm" height="11.6364407cm" version="1.1" x="0cm" y="0cm" viewBox="0 0 12 11.6364407" enable-background="new 0 0 12 11.6364407" xml:space="preserve"><path d="M-3.5950405,-4.014667 A6,6 233.1892785 0,1 3.5950405,-4.014667 A1.5,1.5 306.8107215 0,1 4.1442421,-2.4220661 A1,1 195.1362134 0,0 4.8530279,-1.194413 A1.5,1.5 284.8637866 0,1 5.95766,0.0775099 A6,6 353.1892785 0,1 2.3626195,6.3043028 A1.5,1.5 66.8107215 0,1 0.7087858,5.9836249 A1,1 315.1362134 0,0 -0.7087858,5.9836249 A1.5,1.5 44.8637866 0,1 -2.3626195,6.3043028 A6,6 113.1892785 0,1 -5.95766,0.0775099 A1.5,1.5 186.8107215 0,1 -4.8530279,-1.194413 A1,1 75.1362134 0,0 -4.1442421,-2.4220661 A1.5,1.5 164.8637866 0,1 -3.5950405,-4.014667z" transform="matrix(1,0,0,-1,6,6.4254893)" fill="rgb(0,0,0)" shaper:cutDepth="0.009" stroke-linecap="round" stroke-linejoin="round" /><path d="M-1.7,3.2890486 a0.2,0.2 0 1,1 0.4,0 a0.2,0.2 0 1,1 -0.4,0z" transform="matrix(1,0,0,-1,6,6.4254893)" fill="rgb(255,255,255)" stroke="rgb(0,0,0)" stroke-width="0.0010cm" stroke-linecap="round" stroke-linejoin="round" shaper:cutDepth="0.009" /><path d="M-2.325,0.7890486 a0.325,0.325 0 1,1 0.65,0 a0.325,0.325 0 1,1 -0.65,0z" transform="matrix(1,0,0,-1,6,6.4254893)" fill="rgb(255,255,255)" stroke="rgb(0,0,0)" stroke-width="0.0010cm" stroke-linecap="round" stroke-linejoin="round" shaper:cutDepth="0.009" /><path d="M3.8418738,3.2265486 a0.38,0.38 0 1,1 0.76,0 a0.38,0.38 0 1,1 -0.76,0z" transform="matrix(1,0,0,-1,6,6.4254893)" fill="rgb(255,255,255)" stroke="rgb(0,0,0)" stroke-width="0.0010cm" stroke-linecap="round" stroke-linejoin="round" shaper:cutDepth="0.009" /><path d="M1.675,0.7890486 a0.325,0.325 0 1,1 0.65,0 a0.325,0.325 0 1,1 -0.65,0z" transform="matrix(1,0,0,-1,6,6.4254893)" fill="rgb(255,255,255)" stroke="rgb(0,0,0)" stroke-width="0.0010cm" stroke-linecap="round" stroke-linejoin="round" shaper:cutDepth="0.009" /><path d="M-0.38,-4.0859514 a0.38,0.38 0 1,1 0.76,0 a0.38,0.38 0 1,1 -0.76,0z" transform="matrix(1,0,0,-1,6,6.4254893)" fill="rgb(255,255,255)" stroke="rgb(0,0,0)" stroke-width="0.0010cm" stroke-linecap="round" stroke-linejoin="round" shaper:cutDepth="0.009" /><path d="M1.3,3.2890486 a0.2,0.2 0 1,1 0.4,0 a0.2,0.2 0 1,1 -0.4,0z" transform="matrix(1,0,0,-1,6,6.4254893)" fill="rgb(255,255,255)" stroke="rgb(0,0,0)" stroke-width="0.0010cm" stroke-linecap="round" stroke-linejoin="round" shaper:cutDepth="0.009" /><path d="M-4.6018738,3.2265486 a0.38,0.38 0 1,1 0.76,0 a0.38,0.38 0 1,1 -0.76,0z" transform="matrix(1,0,0,-1,6,6.4254893)" fill="rgb(255,255,255)" stroke="rgb(0,0,0)" stroke-width="0.0010cm" stroke-linecap="round" stroke-linejoin="round" shaper:cutDepth="0.009" /><path d="M1.3,-1.7109514 a0.2,0.2 0 1,1 0.4,0 a0.2,0.2 0 1,1 -0.4,0z" transform="matrix(1,0,0,-1,6,6.4254893)" fill="rgb(255,255,255)" stroke="rgb(0,0,0)" stroke-width="0.0010cm" stroke-linecap="round" stroke-linejoin="round" shaper:cutDepth="0.009" /><path d="M-1.7,-1.7109514 a0.2,0.2 0 1,1 0.4,0 a0.2,0.2 0 1,1 -0.4,0z" transform="matrix(1,0,0,-1,6,6.4254893)" fill="rgb(255,255,255)" stroke="rgb(0,0,0)" stroke-width="0.0010cm" stroke-linecap="round" stroke-linejoin="round" shaper:cutDepth="0.009" /></svg>