<?xml version="1.0" encoding="utf-8"?>
<!-- Generator: Fusion 360, Shaper Origin Export Add-In, Version 1.6.3  -->
<svg xmlns="http://www.w3.org/2000/svg" xmlns:xlink="http://www.w3.org/1999/xlink" xmlns:shaper="http://www.shapertools.com/namespaces/shaper" shaper:fusionaddin="version:1.6.3" width="13.4cm" height="13.4cm" version="1.1" x="0cm" y="0cm" viewBox="0 0 13.4 13.4" enable-background="new 0 0 13.4 13.4" xml:space="preserve"><path d="M-11.675,0 a6.7,6.7 0 1,1 13.4,0 a6.7,6.7 0 1,1 -13.4,0z" transform="matrix(1,0,0,-1,11.675,6.7)" fill="rgb(0,0,0)" shaper:cutDepth="0.009" stroke-linecap="round" stroke-linejoin="round" /><path d="M-9.5768738,2.4375 a0.38,0.38 0 1,1 0.76,0 a0.38,0.38 0 1,1 -0.76,0z" transform="matrix(1,0,0,-1,11.675,6.7)" fill="rgb(255,255,255)" stroke="rgb(0,0,0)" stroke-width="0.0010cm" stroke-linecap="round" stroke-linejoin="round" shaper:cutDepth="0.009" /><path d="M-10.4545499,-2.95 a0.37,0.37 0 1,1 0.74,0 a0.37,0.37 0 1,1 -0.74,0z" transform="matrix(1,0,0,-1,11.675,6.7)" fill="rgb(255,255,255)" stroke="rgb(0,0,0)" stroke-width="0.0010cm" stroke-linecap="round" stroke-linejoin="round" shaper:cutDepth="0.009" /><path d="M-5.355,-4.875 a0.38,0.38 0 1,1 0.76,0 a0.38,0.38 0 1,1 -0.76,0z" transform="matrix(1,0,0,-1,11.675,6.7)" fill="rgb(255,255,255)" stroke="rgb(0,0,0)" stroke-width="0.0010cm" stroke-linecap="round" stroke-linejoin="round" shaper:cutDepth="0.009" /><path d="M-0.2354501,-2.95 a0.37,0.37 0 1,1 0.74,0 a0.37,0.37 0 1,1 -0.74,0z" transform="matrix(1,0,0,-1,11.675,6.7)" fill="rgb(255,255,255)" stroke="rgb(0,0,0)" stroke-width="0.0010cm" stroke-linecap="round" stroke-linejoin="round" shaper:cutDepth="0.009" /><path d="M-5.345,5.9 a0.37,0.37 0 1,1 0.74,0 a0.37,0.37 0 1,1 -0.74,0z" transform="matrix(1,0,0,-1,11.675,6.7)" fill="rgb(255,255,255)" stroke="rgb(0,0,0)" stroke-width="0.0010cm" stroke-linecap="round" stroke-linejoin="round" shaper:cutDepth="0.009" /><path d="M-1.1331262,2.4375 a0.38,0.38 0 1,1 0.76,0 a0.38,0.38 0 1,1 -0.76,0z" transform="matrix(1,0,0,-1,11.675,6.7)" fill="rgb(255,255,255)" stroke="rgb(0,0,0)" stroke-width="0.0010cm" stroke-linecap="round" stroke-linejoin="round" shaper:cutDepth="0.009" /><path d="M-8.225,0 a3.25,3.25 0 1,1 6.5,0 a3.25,3.25 0 1,1 -6.5,0z" transform="matrix(1,0,0,-1,11.675,6.7)" fill="rgb(255,255,255)" stroke="rgb(0,0,0)" stroke-width="0.0010cm" stroke-linecap="round" stroke-linejoin="round" shaper:cutDepth="0.009" /></svg>