<?xml version="1.0" encoding="utf-8"?>
<!-- Generator: Fusion 360, Shaper Origin Export Add-In, Version 1.6.3  -->
<svg xmlns="http://www.w3.org/2000/svg" xmlns:xlink="http://www.w3.org/1999/xlink" xmlns:shaper="http://www.shapertools.com/namespaces/shaper" shaper:fusionaddin="version:1.6.3" width="11.5956403cm" height="11.0332627cm" version="1.1" x="0cm" y="0cm" viewBox="0 0 11.5956403 11.0332627" enable-background="new 0 0 11.5956403 11.0332627" xml:space="preserve"><path d="M3.8693742,-1.6323116 A1.25,1.25 172.8118301 0,0 4.3540066,-0.7929037 A3.65,3.65 307.1881699 0,1 5.4837961,3.5960222 A6,6 23.9406875 0,1 4.8504485,4.6930125 A3.65,3.65 36.0593125 0,1 0.4846324,5.909049 A1.25,1.25 292.8118301 0,0 -0.4846324,5.909049 A3.65,3.65 67.1881699 0,1 -4.8504485,4.6930125 A6,6 143.9406875 0,1 -5.4837961,3.5960222 A3.65,3.65 156.0593125 0,1 -4.3540066,-0.7929037 A1.25,1.25 52.8118301 0,0 -3.8693742,-1.6323116 A3.65,3.65 187.1881699 0,1 -0.6333476,-4.8052011 A6,6 263.9406875 0,1 0.6333476,-4.8052011 A3.65,3.65 276.0593125 0,1 3.8693742,-1.6323116z" transform="matrix(1,0,0,-1,5.7978202,6.1945406)" fill="rgb(0,0,0)" shaper:cutDepth="0.009" stroke-linecap="round" stroke-linejoin="round" /><path d="M-3.0010307,0.4101274 a0.2,0.2 0 1,1 0.4,0 a0.2,0.2 0 1,1 -0.4,0z" transform="matrix(1,0,0,-1,5.7978202,6.1945406)" fill="rgb(255,255,255)" stroke="rgb(0,0,0)" stroke-width="0.0010cm" stroke-linecap="round" stroke-linejoin="round" shaper:cutDepth="0.009" /><path d="M-0.38,-3.7137221 a0.38,0.38 0 1,1 0.76,0 a0.38,0.38 0 1,1 -0.76,0z" transform="matrix(1,0,0,-1,5.7978202,6.1945406)" fill="rgb(255,255,255)" stroke="rgb(0,0,0)" stroke-width="0.0010cm" stroke-linecap="round" stroke-linejoin="round" shaper:cutDepth="0.009" /><path d="M-0.325,3.1612779 a0.325,0.325 0 1,1 0.65,0 a0.325,0.325 0 1,1 -0.65,0z" transform="matrix(1,0,0,-1,5.7978202,6.1945406)" fill="rgb(255,255,255)" stroke="rgb(0,0,0)" stroke-width="0.0010cm" stroke-linecap="round" stroke-linejoin="round" shaper:cutDepth="0.009" /><path d="M-2.2510307,-0.8889107 a0.2,0.2 0 1,1 0.4,0 a0.2,0.2 0 1,1 -0.4,0z" transform="matrix(1,0,0,-1,5.7978202,6.1945406)" fill="rgb(255,255,255)" stroke="rgb(0,0,0)" stroke-width="0.0010cm" stroke-linecap="round" stroke-linejoin="round" shaper:cutDepth="0.009" /><path d="M-0.325,-0.8387221 a0.325,0.325 0 1,1 0.65,0 a0.325,0.325 0 1,1 -0.65,0z" transform="matrix(1,0,0,-1,5.7978202,6.1945406)" fill="rgb(255,255,255)" stroke="rgb(0,0,0)" stroke-width="0.0010cm" stroke-linecap="round" stroke-linejoin="round" shaper:cutDepth="0.009" /><path d="M3.8418738,3.5987779 a0.38,0.38 0 1,1 0.76,0 a0.38,0.38 0 1,1 -0.76,0z" transform="matrix(1,0,0,-1,5.7978202,6.1945406)" fill="rgb(255,255,255)" stroke="rgb(0,0,0)" stroke-width="0.0010cm" stroke-linecap="round" stroke-linejoin="round" shaper:cutDepth="0.009" /><path d="M-4.6018738,3.5987779 a0.38,0.38 0 1,1 0.76,0 a0.38,0.38 0 1,1 -0.76,0z" transform="matrix(1,0,0,-1,5.7978202,6.1945406)" fill="rgb(255,255,255)" stroke="rgb(0,0,0)" stroke-width="0.0010cm" stroke-linecap="round" stroke-linejoin="round" shaper:cutDepth="0.009" /><path d="M1.8510307,-0.8889107 a0.2,0.2 0 1,1 0.4,0 a0.2,0.2 0 1,1 -0.4,0z" transform="matrix(1,0,0,-1,5.7978202,6.1945406)" fill="rgb(255,255,255)" stroke="rgb(0,0,0)" stroke-width="0.0010cm" stroke-linecap="round" stroke-linejoin="round" shaper:cutDepth="0.009" /><path d="M-0.325,1.1612779 a0.325,0.325 0 1,1 0.65,0 a0.325,0.325 0 1,1 -0.65,0z" transform="matrix(1,0,0,-1,5.7978202,6.1945406)" fill="rgb(255,255,255)" stroke="rgb(0,0,0)" stroke-width="0.0010cm" stroke-linecap="round" stroke-linejoin="round" shaper:cutDepth="0.009" /><path d="M-0.95,3.9626168 a0.2,0.2 0 1,1 0.4,0 a0.2,0.2 0 1,1 -0.4,0z" transform="matrix(1,0,0,-1,5.7978202,6.1945406)" fill="rgb(255,255,255)" stroke="rgb(0,0,0)" stroke-width="0.0010cm" stroke-linecap="round" stroke-linejoin="round" shaper:cutDepth="0.009" /><path d="M2.6010307,0.4101274 a0.2,0.2 0 1,1 0.4,0 a0.2,0.2 0 1,1 -0.4,0z" transform="matrix(1,0,0,-1,5.7978202,6.1945406)" fill="rgb(255,255,255)" stroke="rgb(0,0,0)" stroke-width="0.0010cm" stroke-linecap="round" stroke-linejoin="round" shaper:cutDepth="0.009" /><path d="M0.55,3.9626168 a0.2,0.2 0 1,1 0.4,0 a0.2,0.2 0 1,1 -0.4,0z" transform="matrix(1,0,0,-1,5.7978202,6.1945406)" fill="rgb(255,255,255)" stroke="rgb(0,0,0)" stroke-width="0.0010cm" stroke-linecap="round" stroke-linejoin="round" shaper:cutDepth="0.009" /></svg>