<?xml version="1.0" encoding="utf-8"?>
<!-- Generator: Fusion 360, Shaper Origin Export Add-In, Version 1.6.3  -->
<svg xmlns="http://www.w3.org/2000/svg" xmlns:xlink="http://www.w3.org/1999/xlink" xmlns:shaper="http://www.shapertools.com/namespaces/shaper" shaper:fusionaddin="version:1.6.3" width="13.3cm" height="13.3cm" version="1.1" x="0cm" y="0cm" viewBox="0 0 13.3 13.3" enable-background="new 0 0 13.3 13.3" xml:space="preserve"><path d="M-9.1461692,5.0236955 a6.65,6.65 0 1,1 13.3,0 a6.65,6.65 0 1,1 -13.3,0z" transform="matrix(1,0,0,-1,9.1461692,11.6736955)" fill="rgb(0,0,0)" shaper:cutDepth="0.009" stroke-linecap="round" stroke-linejoin="round" /><path d="M0.1525633,-0.4359562 L0.6063941,-0.5218105 0.9076615,-0.1717087 0.7550982,0.2642474 0.3012674,0.3501018 0,-0 0.1525633,-0.4359562z" transform="matrix(1,0,0,-1,9.1461692,11.6736955)" fill="rgb(255,255,255)" stroke="rgb(0,0,0)" stroke-width="0.0010cm" stroke-linecap="round" stroke-linejoin="round" shaper:cutDepth="0.009" /><path d="M-5.3136692,0.8018217 a0.38,0.38 0 1,1 0.76,0 a0.38,0.38 0 1,1 -0.76,0z" transform="matrix(1,0,0,-1,9.1461692,11.6736955)" fill="rgb(255,255,255)" stroke="rgb(0,0,0)" stroke-width="0.0010cm" stroke-linecap="round" stroke-linejoin="round" shaper:cutDepth="0.009" /><path d="M-8.85,5.1095499 L-8.6974367,4.6735937 -8.2436059,4.5877394 -7.9423385,4.9378411 -8.0949018,5.3737973 -8.5487326,5.4596517 -8.85,5.1095499z" transform="matrix(1,0,0,-1,9.1461692,11.6736955)" fill="rgb(255,255,255)" stroke="rgb(0,0,0)" stroke-width="0.0010cm" stroke-linecap="round" stroke-linejoin="round" shaper:cutDepth="0.009" /><path d="M1.9988308,5.0236955 a0.38,0.38 0 1,1 0.76,0 a0.38,0.38 0 1,1 -0.76,0z" transform="matrix(1,0,0,-1,9.1461692,11.6736955)" fill="rgb(255,255,255)" stroke="rgb(0,0,0)" stroke-width="0.0010cm" stroke-linecap="round" stroke-linejoin="round" shaper:cutDepth="0.009" /><path d="M-5.3136692,9.2455694 a0.38,0.38 0 1,1 0.76,0 a0.38,0.38 0 1,1 -0.76,0z" transform="matrix(1,0,0,-1,9.1461692,11.6736955)" fill="rgb(255,255,255)" stroke="rgb(0,0,0)" stroke-width="0.0010cm" stroke-linecap="round" stroke-linejoin="round" shaper:cutDepth="0.009" /><path d="M0.9076615,10.047391 L0.7550982,10.4833472 0.3012674,10.5692015 -0,10.2190998 0.1525633,9.7831436 0.6063941,9.6972892 0.9076615,10.047391z" transform="matrix(1,0,0,-1,9.1461692,11.6736955)" fill="rgb(255,255,255)" stroke="rgb(0,0,0)" stroke-width="0.0010cm" stroke-linecap="round" stroke-linejoin="round" shaper:cutDepth="0.009" /><path d="M-5.7461692,5.0236955 a3.25,3.25 0 1,1 6.5,0 a3.25,3.25 0 1,1 -6.5,0z" transform="matrix(1,0,0,-1,9.1461692,11.6736955)" fill="rgb(255,255,255)" stroke="rgb(0,0,0)" stroke-width="0.0010cm" stroke-linecap="round" stroke-linejoin="round" shaper:cutDepth="0.009" /></svg>