<?xml version="1.0" encoding="UTF-8" standalone="no"?>
<!-- Created with Inkscape (http://www.inkscape.org/) -->

<svg
   width="782.46057mm"
   height="164.2261mm"
   viewBox="0 0 782.46057 164.2261"
   version="1.1"
   id="svg251"
   xml:space="preserve"
   inkscape:version="1.2 (dc2aeda, 2022-05-15)"
   sodipodi:docname="logo.svg"
   xmlns:inkscape="http://www.inkscape.org/namespaces/inkscape"
   xmlns:sodipodi="http://sodipodi.sourceforge.net/DTD/sodipodi-0.dtd"
   xmlns="http://www.w3.org/2000/svg"
   xmlns:svg="http://www.w3.org/2000/svg"><sodipodi:namedview
     id="namedview253"
     pagecolor="#ffffff"
     bordercolor="#666666"
     borderopacity="1.0"
     inkscape:showpageshadow="2"
     inkscape:pageopacity="0.0"
     inkscape:pagecheckerboard="0"
     inkscape:deskcolor="#d1d1d1"
     inkscape:document-units="mm"
     showgrid="false"
     inkscape:zoom="0.48373316"
     inkscape:cx="1342.6824"
     inkscape:cy="362.80333"
     inkscape:window-width="2370"
     inkscape:window-height="1313"
     inkscape:window-x="0"
     inkscape:window-y="25"
     inkscape:window-maximized="0"
     inkscape:current-layer="layer1" /><defs
     id="defs248" /><g
     inkscape:label="Layer 1"
     inkscape:groupmode="layer"
     id="layer1"
     transform="translate(229.13528,-29.175477)"><path
       style="display:inline;fill:#000000;stroke-width:0.352778"
       d="m 335.51613,193.10433 c -0.1028,-0.16633 -0.97042,-0.39521 -1.92804,-0.50863 -1.55956,-0.18471 -6.27066,-1.47211 -10.62669,-2.90395 -0.87312,-0.28701 -1.86746,-0.52104 -2.20965,-0.52008 -0.34216,0.001 -0.89779,-0.14665 -1.23473,-0.32802 -0.3369,-0.18137 -2.83506,-1.40488 -5.55145,-2.71891 -4.9851,-2.4115 -12.62909,-7.12852 -15.8696,-9.79295 -3.02352,-2.48602 -3.3945,-2.81727 -4.89412,-4.36989 -1.44431,-1.49535 -3.2421,-3.26453 -4.39509,-4.32515 -0.50161,-0.46145 -2.86282,-3.13473 -3.90119,-4.4168 -0.99808,-1.23236 -3.6534,-5.21824 -3.70589,-5.56286 -0.0342,-0.22553 -0.45481,-0.85608 -0.93437,-1.4012 -1.02644,-1.16673 -2.62167,-3.79229 -3.36314,-5.53525 -0.28889,-0.6791 -0.71003,-1.55222 -0.93588,-1.94028 -1.75161,-3.00936 -3.2216,-6.25666 -3.83272,-8.46666 -0.16097,-0.58209 -0.71092,-2.56646 -1.22209,-4.40973 -0.51118,-1.84326 -1.08416,-4.06576 -1.27332,-4.93889 -0.18912,-0.87312 -0.49251,-2.07502 -0.67419,-2.67088 -0.18168,-0.59586 -0.33035,-1.42155 -0.33035,-1.83487 0,-0.41332 -0.23759,-1.66361 -0.52796,-2.77843 -0.54092,-2.07671 -0.69378,-5.76084 -0.56138,-13.52969 0.11028,-6.47034 1.28316,-14.072525 2.69099,-17.441985 0.28328,-0.67792 0.51509,-1.67425 0.5152,-2.21405 10e-5,-0.53981 0.3176,-1.81662 0.70555,-2.83734 0.38795,-1.02073 0.70538,-2.11402 0.70538,-2.42954 0,-0.50184 2.15996,-5.38163 3.25611,-7.35626 0.2154,-0.38806 0.86353,-1.65806 1.44021,-2.82222 1.66448,-3.35989 6.29289,-10.37956 8.95527,-13.58195 3.05315,-3.672429 9.43899,-10.029319 12.04905,-11.994439 0.64428,-0.48507 1.38448,-1.08038 1.6449,-1.32292 0.26045,-0.24253 0.55037,-0.44097 0.64431,-0.44097 0.18637,0 3.7186,-2.25188 4.28932,-2.73457 1.11037,-0.93908 4.89726,-3.29626 6.83652,-4.25544 1.23772,-0.6122 2.42834,-1.248961 2.64583,-1.415041 1.227,-0.93697 12.78199,-4.90236 13.16609,-4.51828 0.10735,0.10735 0.61161,-0.0111 1.1206,-0.26322 0.50899,-0.25212 2.19541,-0.72507 3.74763,-1.051 1.55222,-0.32593 3.45722,-0.76541 4.23333,-0.97663 2.12965,-0.57958 21.82026,-0.841 23.10991,-0.30681 0.56434,0.23375 1.94546,0.55038 3.06917,0.70361 3.1236,0.42596 15.25972,3.75109 15.85182,4.34318 0.13398,0.134 0.4723,0.24364 0.75177,0.24364 0.61838,0 4.54579,1.85019 6.959,3.278341 4.99149,2.95401 6.05331,3.62195 6.68112,4.20281 0.37613,0.34801 0.88071,0.63274 1.1213,0.63274 0.2406,0 0.64724,0.20367 0.90364,0.45259 0.2564,0.24892 1.02179,0.83193 1.70088,1.29559 2.7884,1.90378 6.24004,4.92454 9.85231,8.62235 4.44645,4.551779 5.95648,6.320439 8.13936,9.533559 0.87313,1.2852 1.905,2.73891 2.29306,3.23046 0.88441,1.12029 2.16732,3.22706 2.66414,4.37494 0.20824,0.48112 0.50034,0.95737 0.64915,1.05833 0.57968,0.39332 3.9274,7.73981 4.7456,10.41413 2.59796,8.49127 3.2083,10.75033 3.76467,13.93472 0.22034,1.26118 0.55922,3.030485 0.75307,3.931785 0.40693,1.8924 0.52366,16.47064 0.15494,19.35154 -0.45367,3.54434 -1.29956,7.90685 -2.01789,10.40695 -0.39028,1.35819 -0.87273,3.10444 -1.07216,3.88055 -0.77964,3.0339 -2.55901,7.90031 -3.93425,10.75972 -1.60104,3.3289 -4.8327,8.93063 -5.25759,9.11343 -0.15032,0.0647 -0.27329,0.34249 -0.27329,0.61736 0,0.27487 -0.12111,0.49977 -0.26914,0.49977 -0.14802,0 -0.42584,0.29963 -0.61736,0.66586 -2.27767,4.35511 -10.16568,13.11213 -16.37263,18.17638 -5.27237,4.30174 -11.68594,8.19747 -18.9006,11.48061 -3.66123,1.66611 -3.68028,1.6731 -6.35,2.33129 -1.35819,0.33485 -2.82106,0.82402 -3.25077,1.08706 -0.42976,0.26303 -1.25381,0.47824 -1.83127,0.47824 -0.57747,0 -1.13503,0.1377 -1.23903,0.30599 -0.10403,0.16829 -0.86745,0.40043 -1.69651,0.51587 -3.40716,0.47438 -4.3459,0.67058 -4.66478,0.97493 -0.42749,0.40802 -25.8402,0.42503 -26.09208,0.0175 z m 20.60639,-47.08345 c 4.51146,-1.20148 8.23655,-2.72445 9.17222,-3.74997 0.097,-0.10633 0.38269,-0.23564 0.63486,-0.28735 0.25216,-0.0517 1.47041,-0.9525 2.70725,-2.00174 1.23684,-1.04924 2.57835,-2.08407 2.98111,-2.29963 0.40281,-0.21556 0.73233,-0.54389 0.73233,-0.72961 0,-0.3176 0.21887,-0.60609 2.13378,-2.8125 2.00777,-2.31342 5.22178,-8.63806 5.77018,-11.35477 0.0906,-0.44883 0.35454,-1.60981 0.58652,-2.57995 0.451,-1.88609 0.65331,-11.88185 0.28205,-13.93471 -0.53467,-2.9562 -1.88634,-7.051945 -3.02704,-9.172225 -3.62741,-6.74264 -7.3544,-10.81831 -13.08901,-14.31349 -3.45462,-2.10556 -6.04584,-3.06059 -9.68023,-3.56778 -0.7288,-0.10171 -1.41287,-0.32691 -1.52012,-0.50044 -0.27248,-0.44088 -10.63942,-0.40548 -10.91307,0.0373 -0.11991,0.19403 -0.56586,0.35611 -0.99095,0.36018 -2.67244,0.0256 -10.5652,3.35963 -12.67697,5.35497 -0.47223,0.44618 -1.4503,1.28749 -2.17353,1.86958 -2.93028,2.35839 -4.52709,4.2627 -7.09951,8.46666 -1.67736,2.74121 -2.49033,4.6864 -3.31742,7.937505 -0.41959,1.64924 -0.91401,3.57266 -1.09876,4.27426 -0.42817,1.62605 -0.43787,9.52772 -0.0138,11.20703 0.17716,0.7016 0.51192,2.14877 0.74387,3.21592 1.00806,4.63838 4.07476,10.63658 7.12431,13.93473 0.53823,0.58208 0.97931,1.25677 0.98023,1.4993 0,0.24254 0.12068,0.44521 0.2662,0.45039 0.14552,0.005 1.53459,1.04087 3.08681,2.30155 3.24531,2.63577 8.85825,5.52865 11.99444,6.18186 1.16417,0.24248 2.3548,0.57318 2.64584,0.73489 0.96259,0.53482 11.25664,0.14432 13.75833,-0.52192 z m 88.53131,1.96573 c -0.012,-33.28454 -0.11691,-43.87323 -0.44097,-44.5696 -0.23379,-0.50235 -0.86551,-1.53422 -1.40377,-2.29305 -2.13156,-3.004805 -3.78217,-5.633495 -3.78295,-6.024615 0,-0.22636 -0.11991,-0.46449 -0.26543,-0.52916 -0.32988,-0.14661 -2.20486,-2.63873 -2.20486,-2.93056 0,-0.11782 -0.29898,-0.64435 -0.66438,-1.17007 -1.72145,-2.47659 -4.84435,-7.39718 -5.19646,-8.1878 -0.216,-0.48507 -0.73194,-1.18436 -1.14652,-1.55398 -0.41455,-0.36962 -0.75375,-0.8052 -0.75375,-0.96796 0,-0.34765 -5.10438,-8.28845 -6.67805,-10.38897 -0.5957,-0.7951 -1.08306,-1.56362 -1.08306,-1.70781 0,-0.14421 -0.60244,-1.16054 -1.33876,-2.25854 -0.73635,-1.09799 -2.1651,-3.22456 -3.175,-4.7257 -1.00993,-1.501139 -1.83624,-2.817259 -1.83624,-2.924699 0,-0.20862 -1.44963,-2.34102 -1.79215,-2.63623 -0.11257,-0.097 -0.42912,-0.69232 -0.70347,-1.32291 -0.27436,-0.63059 -0.60279,-1.14653 -0.72986,-1.14653 -0.12711,0 -0.58195,-0.67469 -1.01082,-1.49931 -0.42887,-0.82462 -0.88392,-1.57868 -1.0112,-1.67569 -0.38135,-0.29064 -4.63028,-6.72347 -4.63028,-7.0102 0,-0.1458 -0.3163,-0.60459 -0.70287,-1.01954 -0.66696,-0.7159 -1.3952,-1.832461 -2.66422,-4.084741 -1.157,-2.05359 -2.31729,-1.95725 23.92716,-1.98683 l 24.12418,-0.0272 2.08774,3.02927 c 1.14825,1.666111 2.24649,3.294591 2.44051,3.618861 0.82593,1.3803 2.44038,3.7899 2.64827,3.9526 0.124,0.097 0.32918,0.41451 0.456,0.70556 0.31496,0.72277 2.74461,4.48536 5.71518,8.8506 1.35819,1.99586 2.54882,3.80337 2.64583,4.01669 0.46151,1.014759 3.05569,4.426209 3.49702,4.598709 0.62046,0.24253 2.14351,-1.18855 3.42857,-3.22158 0.53693,-0.84943 1.10332,-1.544419 1.25864,-1.544419 0.15533,0 0.28244,-0.2249 0.28244,-0.49977 0,-0.27487 0.1312,-0.55269 0.29153,-0.61736 0.25549,-0.10305 1.61996,-2.00384 5.94121,-8.2764 0.6146,-0.89213 1.40835,-1.97065 1.76388,-2.39671 1.19948,-1.43741 2.23393,-2.99557 2.23393,-3.36492 0,-0.20189 0.1282,-0.36707 0.28487,-0.36707 0.26868,0 2.53736,-3.00576 2.53736,-3.3617 0,-0.0913 0.27781,-0.46691 0.61736,-0.834591 1.33851,-1.44943 2.20486,-2.58113 2.20486,-2.88017 0,-0.17256 0.46838,-0.55595 1.0408,-0.85198 0.90188,-0.46637 4.12503,-0.53822 24.14446,-0.53822 15.93494,0 23.17556,0.11636 23.33541,0.37501 0.12749,0.20625 -0.0219,0.65531 -0.33193,0.99791 -0.31006,0.3426 -0.56374,0.72474 -0.56374,0.84921 0,0.12446 -0.77375,1.38196 -1.71944,2.794441 -3.7429,5.5904 -12.22541,18.45323 -12.39167,18.79068 -0.29492,0.59858 -2.21933,3.466709 -3.08067,4.591359 -0.993,1.2966 -1.23126,1.63662 -1.68183,2.40033 -2.22201,3.76617 -7.50824,11.53439 -7.84906,11.53439 -0.24268,0 -0.44122,0.24944 -0.44122,0.55431 0,0.30487 -2.11741,3.75768 -4.70531,7.67292 -2.58795,3.91523 -4.89628,7.47743 -5.12968,7.916 -0.23336,0.43856 -1.17189,1.8406 -2.08562,3.11564 -0.91373,1.27504 -1.82555,2.58309 -2.02625,2.90678 -0.20069,0.323685 -1.03413,1.605325 -1.85208,2.848075 l -1.48717,2.25955 v 42.77895 c 0,23.52842 -0.0963,43.03006 -0.21414,43.33697 -0.19233,0.50126 -2.65038,0.55802 -24.16528,0.55802 h -23.95114 l -0.0159,-43.65625 z m -289.88964,42.1818 c -0.55521,-0.55518 -0.6356,-153.515305 -0.0815,-154.972765 l 0.34911,-0.91816 34.13492,0.1168 c 31.49269,0.10775 34.28514,0.16511 36.07524,0.74099 1.06715,0.34332 2.97215,0.86253 4.23333,1.15382 3.50658,0.80988 4.517,1.15727 7.76111,2.66829 5.55886,2.589171 7.77554,3.882271 9.70139,5.659291 0.38806,0.35806 1.62821,1.352 2.7559,2.20875 3.69701,2.80875 4.70941,3.85216 6.33656,6.53068 1.86545,3.07084 2.05412,3.44819 3.79113,7.582599 1.09862,2.61494 2.24638,9.39181 2.31859,13.69007 0.049,2.91755 -0.83964,8.53168 -1.63022,10.29881 -0.1736,0.38806 -0.56691,1.57869 -0.87404,2.64584 -0.30716,1.06715 -0.94492,2.57528 -1.41725,3.35139 -0.47233,0.77611 -1.37809,2.34634 -2.01277,3.48941 -2.04749,3.68742 -4.18793,6.885555 -5.56751,8.318575 -2.27683,2.36499 -3.57124,4.22122 -3.28707,4.7137 0.29583,0.51272 3.49063,3.05748 3.8385,3.05748 0.10379,0 1.09463,0.88714 2.20179,1.97142 1.10719,1.08428 2.85838,2.79084 3.89156,3.79236 1.03315,1.00151 2.43689,2.68037 3.11937,3.73079 0.68248,1.05042 1.42466,2.11648 1.64927,2.36901 1.66744,1.87466 3.75839,5.94344 5.40191,10.5116 1.96321,5.45664 2.75072,10.92283 2.21467,15.37204 -0.22207,1.84326 -0.39416,3.74826 -0.38241,4.23333 0.0279,1.14888 -1.33502,6.7803 -1.74593,7.2143 -0.17452,0.18433 -0.31733,0.68547 -0.31733,1.11365 0,1.02242 -1.85674,5.13667 -2.98672,6.61818 -0.48976,0.64208 -0.808,1.24988 -0.70721,1.35066 0.10075,0.10077 -0.0587,0.38403 -0.35447,0.62946 -0.29574,0.24544 -0.53771,0.65876 -0.53771,0.91849 0,0.91962 -5.6231,7.17636 -8.69477,9.67453 -1.28806,1.04759 -5.06166,3.52517 -5.36914,3.52517 -0.17247,0 -0.52493,0.25467 -0.78327,0.56592 -0.4505,0.54285 -1.66917,1.13977 -2.7952,1.36912 -0.29295,0.0597 -1.24545,0.42556 -2.11667,0.8131 -3.16152,1.40632 -5.14501,2.14127 -6.78748,2.51501 -0.92163,0.20971 -2.35038,0.5376 -3.175,0.72864 -3.37527,0.78195 -7.00006,0.99028 -16.35693,0.94012 l -9.83682,-0.0527 -0.0911,-19.86144 c -0.0619,-13.47926 0.0289,-20.08587 0.28261,-20.55986 0.35243,-0.65848 0.73582,-0.69626 6.70437,-0.66069 6.003,0.0358 6.40757,-0.005 7.81801,-0.78319 3.97136,-2.19183 4.79531,-7.45989 1.65643,-10.59029 -0.32931,-0.32842 -1.20812,-0.92373 -1.9529,-1.32291 -1.22418,-0.65612 -1.96868,-0.72579 -7.75646,-0.72579 -6.34118,0 -6.40429,-0.008 -6.61497,-0.79375 -0.32935,-1.22891 -0.24987,-42.008305 0.0829,-42.533055 0.21883,-0.3451 1.23641,-0.44165 3.96335,-0.37605 2.9676,0.0714 3.90493,-0.0334 4.90365,-0.54836 2.54592,-1.31271 3.10028,-2.21611 3.40981,-5.55694 0.32586,-3.51663 -0.85517,-5.39524 -4.11318,-6.54277 -1.27674,-0.4497 -10.07378,-0.62109 -11.55136,-0.22506 l -0.78948,0.2116 -0.006,55.230595 c -0.004,30.37683 -0.098,55.32225 -0.20994,55.43428 -0.11193,0.11202 -10.79165,0.24662 -23.73263,0.29909 -18.1549,0.0736 -23.6274,-0.003 -23.95961,-0.33514 z m -217.28254,-1.53164 c -0.420913,-0.30786 -0.432622,-7.83555 -0.0805,-51.75785 0.455471,-56.814135 0.557043,-53.639845 -1.789755,-55.932365 -1.429007,-1.39597 -3.514929,-2.54535 -4.619322,-2.54535 -0.421781,0 -1.377043,-0.18281 -2.122801,-0.40625 -1.251299,-0.3749 -1.467605,-0.32885 -2.803268,0.59677 -1.797074,1.24537 -3.044973,3.62093 -3.670981,6.98827 -0.672218,3.6159 -1.106177,22.303875 -0.533936,22.993385 0.344177,0.4147 1.485622,0.51949 5.658796,0.51949 2.875206,0 5.300483,0.11906 5.389495,0.26459 0.08902,0.14552 0.278702,9.5538 0.421521,20.9073 0.231217,18.38102 0.200035,20.69222 -0.284604,21.09443 -0.348671,0.28937 -2.473593,0.55913 -5.912697,0.75061 -3.87459,0.21573 -5.452854,0.43216 -5.671855,0.77779 -0.166889,0.26338 -0.305866,8.05361 -0.308836,17.31161 -0.0052,16.27805 -0.02787,16.84476 -0.687765,17.19792 -0.450356,0.24102 -8.503462,0.36519 -23.685422,0.36519 -21.49395,0 -23.03379,-0.0405 -23.47169,-0.61737 -0.75066,-0.98886 -0.7037,-100.690195 0.0506,-107.332625 0.5047,-4.44467 0.94487,-7.31471 1.37969,-8.99584 0.10037,-0.38805 0.41462,-1.74639 0.69834,-3.01852 0.28372,-1.27213 0.92162,-3.12081 1.41754,-4.10818 0.49593,-0.98736 0.90124,-1.9309 0.9007,-2.09675 -0.001,-0.32769 1.41487,-3.221289 1.8672,-3.815779 0.15328,-0.20148 1.06423,-1.63632 2.02432,-3.18854 1.91467,-3.09556 2.22213,-3.47837 7.43744,-9.26042 1.96886,-2.18281 3.73643,-3.96875 3.92792,-3.96875 0.19151,0 1.08383,-0.53371 1.98295,-1.18603 0.89912,-0.652321 1.79352,-1.247771 1.98754,-1.323241 0.19403,-0.0755 1.18014,-0.66287 2.19136,-1.30536 1.01122,-0.64249 1.907368,-1.11859 1.991438,-1.05801 0.08407,0.0606 0.477019,-0.18322 0.873221,-0.54178 0.396201,-0.35856 0.860809,-0.56512 1.032471,-0.45903 0.171658,0.10609 0.776975,-0.051 1.345145,-0.34905 6.224143,-3.26526 21.054851,-6.35946 28.373318,-5.91966 8.965212,0.53875 17.004168,2.47637 23.158179,5.58178 0.998315,0.50376 1.990503,0.91594 2.204861,0.91594 0.214355,0 0.389739,0.1221 0.389739,0.27134 0,0.14924 0.992187,0.8091 2.204861,1.46636 1.212673,0.65725 2.998611,1.84945 3.96875,2.649341 0.970139,0.79989 2.597327,2.07765 3.615973,2.83947 1.018646,0.76183 1.852084,1.48962 1.852084,1.61731 0,0.1277 0.367495,0.61102 0.816652,1.07404 0.44916,0.46302 1.282598,1.47672 1.852083,2.25265 0.56949,0.77594 1.152102,1.56969 1.294698,1.76389 0.142593,0.1942 0.633279,0.82935 1.090408,1.41143 0.457126,0.58208 1.28844,1.85208 1.847357,2.82222 0.558919,0.97014 1.355319,2.26867 1.76978,2.88563 0.414461,0.61696 1.194124,2.20446 1.73259,3.527779 0.538463,1.32332 1.229731,2.96166 1.536147,3.64076 0.306415,0.67909 0.576855,1.31409 0.600974,1.41111 0.02413,0.097 0.130725,0.41451 0.236894,0.70555 0.558091,1.52988 2.739446,8.51631 3.111651,9.96598 0.236629,0.92163 0.548513,1.67569 0.693071,1.67569 0.605282,0 0.703805,-3.21445 0.703805,-22.962239 0,-20.181751 0.01898,-20.767541 0.684333,-21.123621 0.466972,-0.24992 19.0394344,-0.3379 58.472918,-0.277 l 57.788579,0.0893 0.0908,22.803471 0.0907,22.803479 -0.83211,0.20885 c -0.45766,0.11486 -7.980809,0.21781 -16.718109,0.22877 l -15.885988,0.0199 -0.217787,1.08893 c -0.119782,0.59891 -0.217787,25.180575 -0.217787,54.625905 0,50.70314 -0.03267,53.54382 -0.617361,53.66632 -0.339549,0.0711 -11.452049,0.0864 -24.694446,0.0339 l -24.077084,-0.0954 V 134.3798 c 0,-41.861285 -0.09773,-54.524155 -0.423333,-54.849755 -0.317451,-0.31745 -4.64099,-0.42333 -17.2861116,-0.42333 H -13.235825 l -0.0032,0.79375 c -0.0018,0.43656 -3.42e-4,25.120045 0.0032,54.852155 l 0.0066,54.05842 -24.398275,0.093 c -16.192345,0.0617 -24.563931,-0.0282 -24.890819,-0.26728 z m -166.20598,-0.9801 c -0.50357,-0.60675 -0.56585,-85.12406 -0.0669,-90.734635 0.18982,-2.13431 0.3646,-4.75368 0.38842,-5.82083 0.0581,-2.60483 1.23778,-10.95182 1.91949,-13.58195 0.30175,-1.16417 0.64014,-2.67229 0.75199,-3.35139 0.11185,-0.67909 0.58222,-2.2858 1.04525,-3.57046 0.46303,-1.28465 0.84188,-2.58496 0.84188,-2.88956 0,-0.83844 4.49157,-9.573189 5.4114,-10.523549 0.44274,-0.45744 1.93833,-2.33983 3.32352,-4.18309 1.38519,-1.84327 3.32025,-4.11191 4.30014,-5.04143 0.97988,-0.92952 1.78161,-1.84233 1.78161,-2.02847 0,-0.18614 0.14647,-0.33844 0.32549,-0.33844 0.17902,0 1.15077,-0.75406 2.15943,-1.67569 1.74074,-1.59055 5.92884,-4.667561 6.35924,-4.672161 0.11061,-0.001 1.49776,-0.85522 3.08255,-1.89786 1.58479,-1.04264 3.39929,-2.09313 4.03222,-2.33442 0.63294,-0.24128 1.65103,-0.65821 2.26244,-0.92651 0.61141,-0.26829 1.28825,-0.4878 1.50409,-0.4878 0.21585,0 0.6681,-0.15106 1.00502,-0.33569 1.66226,-0.91091 3.8184,-1.64065 5.90424,-1.99828 0.58208,-0.0998 3.07847,-0.57619 5.54754,-1.05864 3.82742,-0.74786 5.23156,-0.85729 9.525,-0.74228 5.74527,0.15389 13.28228,1.29921 15.74071,2.39195 0.90327,0.40149 2.51543,1.02859 3.58259,1.39355 4.33395,1.48219 11.56423,5.70897 16.18312,9.460571 2.6211,2.12893 8.89496,8.58908 9.97193,10.26801 1.15348,1.79822 1.18518,1.73604 -1.98978,3.90199 -0.97014,0.66183 -1.97366,1.40931 -2.23006,1.66107 -0.25639,0.25176 -0.59039,0.45775 -0.74223,0.45775 -0.15184,0 -0.7043,0.39687 -1.2277,0.881939 -0.5234,0.48507 -1.18158,0.88195 -1.46263,0.88195 -0.28104,0 -0.51099,0.12829 -0.51099,0.2851 0,0.15681 -0.64552,0.75212 -1.4345,1.32292 -0.78897,0.5708 -1.62241,1.19997 -1.85208,1.39817 -0.22967,0.1982 -1.47756,1.11077 -2.77309,2.02793 -1.29553,0.91716 -2.57223,1.86624 -2.83712,2.10908 -0.26489,0.24284 -0.79241,0.64225 -1.17227,0.88758 -2.84373,1.83661 -2.9941,1.94165 -5.77046,4.03062 -1.73307,1.30399 -2.54277,1.90113 -5.54642,4.09038 -1.14058,0.83133 -2.70878,1.98595 -3.48489,2.56582 -0.77611,0.57986 -2.44299,1.753 -3.70417,2.60697 -2.05096,1.38875 -2.33961,1.4925 -2.73403,0.98274 -0.24253,-0.31347 -0.44097,-0.88284 -0.44097,-1.26527 0,-1.90136 -4.14004,-6.49614 -6.57827,-7.30083 -1.15555,-0.38137 -1.82196,-0.35263 -5.19991,0.22421 -1.80233,0.30778 -4.17018,2.75638 -5.23092,5.40931 -0.73571,1.84003 -0.79503,2.61115 -0.91026,11.83137 -0.0678,5.42468 -0.0252,10.385615 0.0946,11.024315 l 0.21785,1.16125 h 6.85646 c 6.81822,0 6.85754,0.004 7.04883,0.79375 0.1058,0.43657 0.14851,10.31874 0.0949,21.96041 l -0.0975,21.16667 -6.96736,0.0957 c -3.83205,0.0526 -7.00371,0.13198 -7.04814,0.17639 -0.0444,0.0444 -0.16349,8.97073 -0.26458,19.83629 l -0.1838,19.75555 -24.20828,0.0906 c -19.64223,0.0735 -24.28078,0.003 -24.59272,-0.37264 z M 531.56833,79.326785 c -1.56224,-1.3133 -7.80454,-5.5117 -8.19496,-5.5117 -0.19307,0 -0.77484,0.55563 -1.29282,1.23473 -0.51799,0.67909 -1.13461,1.23472 -1.3703,1.23472 -0.23569,0 -1.05029,-0.54093 -1.81021,-1.20207 l -1.38168,-1.20208 0.87457,-1.62015 c 0.48101,-0.89108 0.96756,-1.62015 1.08119,-1.62015 0.11363,0 0.47689,-0.51593 0.80719,-1.14652 0.33031,-0.63059 1.06874,-1.86091 1.64091,-2.73403 0.57217,-0.87313 1.36642,-2.18281 1.76498,-2.91042 0.92446,-1.68763 1.8904,-1.70989 3.51155,-0.0809 l 1.21377,1.21958 -0.6084,1.27578 c -0.7777,1.63089 -0.54183,2.31359 1.1968,3.46418 3.26559,2.16106 7.39105,5.59208 7.39105,6.14691 0,0.88181 -2.55083,4.24835 -3.23614,4.27097 -0.32466,0.0107 -1.03904,-0.35775 -1.5875,-0.81882 z m 7.58508,-10.39091 c -0.87941,-0.51789 -2.05889,-1.30054 -2.62114,-1.73923 -0.56223,-0.43869 -1.89537,-1.41981 -2.96253,-2.18025 -1.06715,-0.76045 -2.36227,-1.71121 -2.87803,-2.1128 -0.51572,-0.4016 -1.11104,-0.73017 -1.32291,-0.73017 -0.21185,0 -0.38517,-0.16268 -0.38517,-0.36151 0,-0.19883 -0.39687,-0.5124 -0.88194,-0.69682 -0.48507,-0.18443 -0.88195,-0.59238 -0.88195,-0.90657 0,-0.609799 2.50667,-4.506309 4.13343,-6.425269 l 0.98185,-1.15822 2.3893,0.95614 c 1.77091,0.70866 2.49212,0.85334 2.78648,0.55897 0.46849,-0.46849 0,-1.28827 -1.95527,-3.41274 -0.70414,-0.76552 -1.28023,-1.57121 -1.28023,-1.79042 0,-0.21922 0.67469,-1.29004 1.49931,-2.37962 0.82461,-1.08958 1.96631,-2.62546 2.5371,-3.41305 0.5708,-0.7876 1.21966,-1.432 1.44188,-1.432 0.3701,0 4.3429,2.66136 4.75227,3.18352 0.097,0.12375 1.13259,0.85546 2.30124,1.62603 4.58572,3.0236 6.5182,4.56277 6.5182,5.19154 0,0.18924 -0.49279,1.11204 -1.09509,2.05066 -1.27678,1.98963 -2.14023,2.1775 -3.70075,0.80515 -1.66603,-1.46519 -2.14108,-1.63627 -2.77713,-1.00018 -0.52007,0.52005 -0.43544,0.70649 1.03381,2.27724 0.88015,0.94095 1.60027,1.99979 1.60027,2.35298 0,0.59584 -0.59334,1.637269 -1.66126,2.915839 -0.2431,0.29104 -0.64347,0.79798 -0.88967,1.12653 -0.41635,0.55557 -0.58343,0.53805 -2.38796,-0.25042 -1.96814,-0.85995 -4.23333,-1.15064 -4.23333,-0.54326 0,0.18308 0.64908,0.85776 1.4424,1.49931 0.79333,0.64154 1.8263,1.48395 2.29546,1.872 l 0.85305,0.70556 -1.52644,2.17634 -1.52639,2.17635 z"
       id="path846" /></g></svg>
