<?xml version="1.0" encoding="UTF-8" standalone="no"?>
<!DOCTYPE svg PUBLIC "-//W3C//DTD SVG 1.1//EN" "http://www.w3.org/Graphics/SVG/1.1/DTD/svg11.dtd">
<svg width="100%" height="100%" viewBox="0 0 416 453" version="1.1" xmlns="http://www.w3.org/2000/svg" xmlns:xlink="http://www.w3.org/1999/xlink" xml:space="preserve" xmlns:serif="http://www.serif.com/" style="fill-rule:evenodd;clip-rule:evenodd;stroke-linejoin:round;stroke-miterlimit:2;">
    <g transform="matrix(1,0,0,1,-174.123,-145.5)">
        <g transform="matrix(0.75,0,0,0.75,0,0)">
            <g id="oE">
                <g id="g0">
                    <path id="e0" d="M444.5,234.723C440.619,235.676 417.363,244.869 406.5,249.745C322.917,287.256 262.311,359.081 239.996,447.07C229.239,489.485 229.577,539.103 240.925,583.51C259.15,654.823 302.273,714.275 365.462,755.202C410.443,784.335 471.165,800.448 522.887,796.975C592.599,792.295 655.643,762.919 705.61,711.836C717.356,699.827 723.24,692.777 732.791,679.265C761.957,638.008 778.348,595.253 784.562,544.226C787.069,523.639 786.155,487.9 782.6,467.5C773.862,417.36 750.924,369.04 717.088,329.5C697.883,307.057 678.863,290.321 653.361,273.428C630.351,258.186 588.418,238.088 572.25,234.552L569,233.841L569,249.51L575.25,251.877C597.27,260.217 621.011,279.406 638.141,302.71C642.099,308.095 645.479,312.681 645.653,312.901C645.827,313.122 650.133,310.545 655.223,307.174L664.477,301.045L669.239,305.735C671.857,308.314 674,310.683 674,310.999C674,311.315 669.837,314.145 664.75,317.288C650.32,326.204 651.236,324.525 655.825,333.654C660.319,342.595 665.151,355.787 667.046,364.292C667.973,368.451 668.722,369.937 669.703,369.561C672.614,368.443 714.574,355 715.15,355C716.621,355 724.149,366.251 723.267,367.133C722.444,367.956 709.409,372.14 679,381.34L670.5,383.912L670.401,403.206C670.325,418.238 669.863,424.654 668.312,432.25L666.321,442L757.51,442L759.755,447.789C760.99,450.974 762,454.119 762,454.78C762,455.696 750.074,456.043 711.844,456.241L661.688,456.5L657.558,466.5C653.963,475.204 646.79,488.341 640.014,498.634L637.951,501.768L659.725,514.028C697.034,535.034 720.748,548.315 741.75,559.965C752.888,566.142 761.98,571.715 761.956,572.349C761.884,574.232 759.478,582.855 758.849,583.484C758.161,584.173 718.639,564.22 701.5,554.531C694.9,550.8 685.225,545.396 680,542.523C660.101,531.581 644.26,522.563 636.692,517.869C632.374,515.191 628.315,513 627.671,513C626.788,513 626.566,525.9 626.767,565.466L627.035,617.932L631.267,619.022C633.595,619.622 636.93,620.561 638.678,621.11C643.978,622.774 653.271,629.371 657.351,634.367L661.201,639.082L663.946,633.291C675.686,608.517 704.483,591.683 732.429,593.257C739.597,593.661 753.206,596.746 755.797,598.553C755.96,598.667 753.525,604.889 750.386,612.38L744.679,626L738.59,626.012C718.632,626.051 699.587,640.712 694.73,659.776C693.991,662.679 693.136,664.802 692.83,664.496C692.523,664.19 689.78,663.534 686.732,663.038C668.813,660.121 653,674.156 653,692.975L653,698L695.111,698L690.805,703L686.5,707.999L626.792,708L567.084,708L566.792,715.672L566.5,723.343L509.506,723.094C478.159,722.957 452.407,722.741 452.28,722.614C452.153,722.487 451.749,719.147 451.381,715.191L450.713,708L331.186,708L322.814,698L365.269,698L364.784,691.25C364.233,683.572 361.768,677.962 356.27,671.877C349.239,664.095 338.797,660.952 327.75,663.295C324.234,664.041 324,663.94 324,661.68C324,657.575 317.08,645.175 311.896,639.991C303.034,631.13 294.297,627.141 281.536,626.13L273.573,625.5L268.091,612.68C261.843,598.067 261.536,599.248 272.5,595.74C281.603,592.827 299.331,592.656 308.5,595.391C326.948,600.896 345.18,615.604 353.949,632.055L357.064,637.899L363.288,631.7C369.904,625.11 377.096,621.053 385.75,619.029L391,617.801L391.048,581.15C391.074,560.993 391.338,537.188 391.633,528.25C392.031,516.197 391.867,512 390.999,512C390.355,512 369.954,523.084 345.664,536.63C266.46,580.802 259.16,584.676 258.586,582.833C258.358,582.1 257.447,579.252 256.562,576.504C254.651,570.566 253.928,571.369 268,563.794C273.225,560.981 289.875,551.62 305,542.992C320.125,534.364 342.85,521.564 355.5,514.549C368.15,507.533 378.846,501.471 379.269,501.078C379.692,500.684 377.513,496.59 374.427,491.98C368.713,483.444 360.658,468.126 357.609,460L355.92,455.5L305.96,455.809C278.482,455.979 256.007,455.754 256.015,455.309C256.023,454.864 256.872,451.8 257.902,448.5L259.774,442.5L305.951,442.24C349.29,441.996 352.097,441.873 351.612,440.24C348.651,430.27 347.541,420.123 347.521,402.857L347.5,384.214L322.215,376.442C308.308,372.167 296.275,368.181 295.473,367.585C294.245,366.67 294.592,365.677 297.689,361.25C299.709,358.363 302.13,356 303.069,356C305.262,356 318.837,359.933 336.081,365.565C343.551,368.004 349.905,370 350.202,370C350.499,370 351.045,367.716 351.416,364.924C352.328,358.047 357.36,343.194 361.993,333.705L365.799,325.91L355.15,318.81C349.292,314.905 344.289,311.526 344.03,311.302C343.228,310.605 352.414,302.092 354,302.063C354.825,302.048 359.268,304.747 363.874,308.06C368.48,311.374 372.31,313.954 372.386,313.793C372.463,313.632 375.203,309.45 378.476,304.5C385.844,293.358 405.386,273.497 416.586,265.766C424.967,259.981 439.693,252.189 446.291,250.048L450.083,248.818L449.846,241.409C449.597,233.603 449.509,233.493 444.5,234.723M303.657,400.963C304.407,397.213 305.428,397.205 306.973,400.935C307.722,402.743 309.367,404.281 311.257,404.94C314.501,406.071 314.424,406.616 310.768,408.411C309.52,409.023 307.856,410.981 307.07,412.762C305.27,416.837 304.525,416.834 303.371,412.75C302.678,410.296 301.659,409.265 299.213,408.539C295.277,407.372 295.529,405.879 299.85,404.759C302.332,404.116 303.2,403.251 303.657,400.963M712.034,400.62L713.173,397.5L714.768,400.75C715.645,402.538 716.87,404 717.49,404C718.11,404 719.491,404.641 720.559,405.425C722.432,406.8 722.402,406.888 719.702,407.919C717.944,408.59 716.342,410.331 715.393,412.602C713.717,416.613 713.535,416.579 711.162,411.829C709.967,409.435 708.711,408.41 706.691,408.178C703.101,407.766 703.702,405.804 707.776,404.635C709.96,404.009 711.236,402.806 712.034,400.62M315.099,486.25C316.122,483.572 316.186,483.553 317.529,485.5C318.287,486.6 319.632,488.239 320.516,489.143C321.996,490.654 321.92,490.989 319.562,493.347C318.153,494.756 317,496.395 317,496.988C317,497.581 315.363,496.429 313.361,494.428C310.499,491.566 310.019,490.602 311.111,489.91C311.875,489.426 312.849,489.024 313.275,489.015C313.701,489.007 314.522,487.762 315.099,486.25M701,485.417C701,483.357 702.764,483.681 703.458,485.868C703.784,486.896 704.892,488.497 705.92,489.428C707.74,491.075 707.73,491.179 705.543,493.367C704.307,494.602 703.004,496.263 702.648,497.057C702.087,498.305 701.913,498.307 701.356,497.069C701.002,496.282 699.544,494.555 698.116,493.232L695.52,490.825L698.26,488.829C699.767,487.731 701,486.196 701,485.417M449.5,739.602C458.064,738.545 579.873,739.928 604.5,741.361C619.35,742.226 633.502,742.948 635.95,742.967C638.586,742.986 640.013,743.361 639.45,743.887C633.669,749.281 508.87,754.059 451.5,751.083C423.975,749.655 395.856,747.378 387.245,745.881C380.786,744.758 377.889,743 382.495,743C387.01,743 446.351,739.991 449.5,739.602M482,768.589C484.475,768.385 499.1,768.369 514.5,768.553C537.379,768.827 551.675,769.69 572.5,772.054C575.2,772.361 559.33,775.152 541,777.594C515.94,780.933 501.679,781.047 478.538,778.094C463.489,776.174 447.031,773.342 446.203,772.531C445.516,771.857 454.842,770.83 482,768.589" style="fill-rule:nonzero;"/>
                    <path id="e1" d="M504.13,330.254C501.726,335.889 497.157,347.025 493.976,355C482.178,384.582 470.739,413.649 468.985,418.5C467.991,421.25 465.113,428.881 462.589,435.458C460.065,442.035 458,448.032 458,448.784C458,449.855 459.74,450.081 466.002,449.826L474.005,449.5L474.148,466C474.227,475.075 474.564,530.2 474.896,588.5L475.5,694.5L497.5,694.5L497.712,678C498.291,632.858 500.897,567.831 503.04,545C504.401,530.513 508.06,505.675 508.981,504.68C509.889,503.699 512.472,520.135 514.453,539.5C517.345,567.755 519.979,627.536 520.006,665.5C520.015,677.6 520.301,689.188 520.642,691.25L521.262,695L543,695L543.056,678.25C543.087,669.038 543.177,613.913 543.257,555.75L543.402,450L552.201,450C557.04,450 561,449.695 561,449.323C561,448.41 540.398,395.454 532.28,375.5C528.699,366.7 522.839,352.3 519.256,343.5C515.674,334.7 512.057,325.813 511.22,323.75C510.382,321.688 509.427,320.002 509.098,320.004C508.769,320.006 506.533,324.618 504.13,330.254M506.073,464.635C507.212,463.186 508.736,462 509.459,462C511.958,462 514,468.477 514,476.401L514,484L504,484L504,475.635C504,468.686 504.351,466.824 506.073,464.635" style="fill-rule:nonzero;"/>
                    <path id="e2" d="M586.284,433.273C584.545,438.348 579.495,452.556 575.061,464.846C567.717,485.203 567,487.851 567,494.596C567,501.739 567.084,502 569.393,502C570.709,502 572.059,502.712 572.393,503.582C572.727,504.452 573,547.877 573,600.082L573,695L587.712,695L588.302,641.75C588.842,593.078 589.881,566.904 591.86,552.074L592.604,546.5L593.373,554.78C595.308,575.601 603.709,635.41 607.73,657C609.494,666.466 609.501,666.209 609.756,584.25C610.009,502.832 610.032,502 612.006,502C613.821,502 614,501.326 614,494.505C614,487.563 613.417,485.478 606.104,466.255C601.76,454.84 596.539,441 594.499,435.5C592.46,430 590.488,425.173 590.118,424.773C589.748,424.372 588.022,428.197 586.284,433.273" style="fill-rule:nonzero;"/>
                    <path id="e3" d="M427.62,425C426.564,427.908 412.758,464.644 408.406,476.125C404.698,485.908 404,488.878 404,494.875C404,501.838 404.058,502 406.54,502C408.995,502 409.07,502.19 408.815,507.75C408.092,523.484 409.304,665.081 410.126,661C412.771,647.875 426,551.409 426,545.246C426,544.377 426.204,543.871 426.453,544.12C427.946,545.613 429.335,582.28 429.877,634.5L430.5,694.5L445.99,695.084L446.245,598.292C446.447,521.742 446.761,501.474 447.75,501.375C448.438,501.306 449.482,501.194 450.071,501.125C450.774,501.043 451.01,497.995 450.757,492.25C450.423,484.666 449.672,481.634 445.121,469.5C442.232,461.8 438.117,450.55 435.975,444.5C429.77,426.971 428.219,423.35 427.62,425" style="fill-rule:nonzero;"/>
                    <path id="e4" d="M505.108,198.979C497.223,211.794 496.024,217.139 496.011,239.52L496,258.54L490.698,265.82L485.395,273.099L485.205,285.3C485.1,292.01 485.274,300.89 485.592,305.034L486.17,312.567L490.784,308.034C495.294,303.601 495.391,303.375 495.116,297.903C494.874,293.1 495.196,291.893 497.385,289.403L499.937,286.5L499.968,291.173C499.993,294.783 500.626,296.591 502.75,299.118L505.5,302.389L506,270.657C506.416,244.233 506.745,238.774 507.966,238.02C511.71,235.708 512,238.085 512,271.122C512,288.655 512.337,302.975 512.75,302.945C514.73,302.799 518.496,296.236 518.989,292.072L519.53,287.5L521.515,290.455C522.941,292.579 523.437,294.81 523.281,298.385C523.078,303.013 523.369,303.688 527.473,308.074L531.883,312.789L532.214,293.145L532.544,273.5L529.286,268.5C527.494,265.75 525.354,262.582 524.531,261.46C523.375,259.883 522.888,254.769 522.389,238.96C521.78,219.635 521.584,218.078 518.856,210.898C515.971,203.303 510.54,194 508.992,194C508.541,194 506.793,196.24 505.108,198.979" style="fill-rule:nonzero;"/>
                    <path id="e5" d="M548,607.368L548,695.07L558.228,694.785L568.457,694.5L569.197,547.5L558.977,534C553.356,526.575 548.586,520.313 548.378,520.083C548.17,519.854 548,559.132 548,607.368" style="fill-rule:nonzero;"/>
                    <path id="e6" d="M468.214,523.25C467.123,525.038 462.581,531 458.121,536.5L450.012,546.5L450.015,615.5C450.016,653.45 450.301,686.862 450.648,689.75L451.279,695L471,695L471,607.5C471,559.375 470.819,520 470.599,520C470.378,520 469.305,521.462 468.214,523.25" style="fill-rule:nonzero;"/>
                </g>
            </g>
        </g>
    </g>
</svg>
