<?xml version="1.0" encoding="utf-8"?>
<!-- Generator: Fusion 360, Shaper Origin Export Add-In, Version 1.9.0  -->
<svg xmlns="http://www.w3.org/2000/svg" xmlns:xlink="http://www.w3.org/1999/xlink" xmlns:shaper="http://www.shapertools.com/namespaces/shaper" shaper:fusionaddin="version:1.9.0" width="7.29cm" height="7.29cm" version="1.1" x="0cm" y="0cm" viewBox="0 0 7.29 7.29" enable-background="new 0 0 7.29 7.29" xml:space="preserve"><path d="M-3.1253848,-0.3 a3.645,3.645 0 1,1 7.29,0 a3.645,3.645 0 1,1 -7.29,0z" transform="matrix(1,0,0,-1,3.1253848,3.345)" fill="rgb(0,0,0)" shaper:cutDepth="0.38cm" stroke-linecap="round" stroke-linejoin="round" /><path d="M-1.8580127,-1.9150635 a0.175,0.175 0 1,1 0.35,0 a0.175,0.175 0 1,1 -0.35,0z" transform="matrix(1,0,0,-1,3.1253848,3.345)" fill="rgb(255,255,255)" stroke="rgb(0,0,0)" stroke-width="0.0010cm" stroke-linecap="round" stroke-linejoin="round" shaper:cutDepth="0.38cm" /><path d="M0.6419873,2.4150635 a0.175,0.175 0 1,1 0.35,0 a0.175,0.175 0 1,1 -0.35,0z" transform="matrix(1,0,0,-1,3.1253848,3.345)" fill="rgb(255,255,255)" stroke="rgb(0,0,0)" stroke-width="0.0010cm" stroke-linecap="round" stroke-linejoin="round" shaper:cutDepth="0.38cm" /><path d="M0.0472432,-3.0150635 a0.175,0.175 0 1,1 0.35,0 a0.175,0.175 0 1,1 -0.35,0z" transform="matrix(1,0,0,-1,3.1253848,3.345)" fill="rgb(255,255,255)" stroke="rgb(0,0,0)" stroke-width="0.0010cm" stroke-linecap="round" stroke-linejoin="round" shaper:cutDepth="0.38cm" /><path d="M2.5472432,1.3150635 a0.175,0.175 0 1,1 0.35,0 a0.175,0.175 0 1,1 -0.35,0z" transform="matrix(1,0,0,-1,3.1253848,3.345)" fill="rgb(255,255,255)" stroke="rgb(0,0,0)" stroke-width="0.0010cm" stroke-linecap="round" stroke-linejoin="round" shaper:cutDepth="0.38cm" /><path d="M0.2886751,0.1 L0.7505553,0.1 0.9814955,-0.3 0.7505553,-0.7 0.2886751,-0.7 0.057735,-0.3 0.2886751,0.1z" transform="matrix(1,0,0,-1,3.1253848,3.345)" fill="rgb(255,255,255)" stroke="rgb(0,0,0)" stroke-width="0.0010cm" stroke-linecap="round" stroke-linejoin="round" shaper:cutDepth="0.38cm" /></svg>