<?xml version="1.0" encoding="utf-8"?>
<!-- Generator: Fusion 360, Shaper Origin Export Add-In, Version 1.6.3  -->
<svg xmlns="http://www.w3.org/2000/svg" xmlns:xlink="http://www.w3.org/1999/xlink" xmlns:shaper="http://www.shapertools.com/namespaces/shaper" shaper:fusionaddin="version:1.6.3" width="5.9284452cm" height="2.686498cm" version="1.1" x="0cm" y="0cm" viewBox="0 0 5.9284452 2.686498" enable-background="new 0 0 5.9284452 2.686498" xml:space="preserve"><path d="M0,0 L5.9284452,0 1.711488,2.686498 0,0z" transform="matrix(1,0,0,-1,-0,2.686498)" fill="rgb(0,0,0)" shaper:cutDepth="0.006" stroke-linecap="round" stroke-linejoin="round" /><path d="M4.5588125,0.6746147 L4.5588125,0.6746147 4.5527694,0.6655304 4.5461181,0.6569844 4.5384626,0.6493493 4.5301698,0.6422347 4.5301698,0.6422347 4.5136499,0.6312119 4.4970804,0.6217245 4.4792261,0.6138789 4.4608213,0.60711 4.4608213,0.60711 4.446677,0.6033102 4.4336042,0.5999253 4.4076692,0.59409 4.3801443,0.5893782 4.3524531,0.5854746 4.3524531,0.5854746 4.3135279,0.5801864 4.2749265,0.5734846 4.2568622,0.5694296 4.239725,0.5649517 4.2222128,0.5598893 4.2129091,0.5570883 4.2030233,0.5540806 4.2030233,0.5540806 4.1844373,0.5454698 4.1755693,0.5406144 4.1672114,0.5350993 4.1597073,0.5289376 4.1529265,0.5221885 4.1463707,0.5147329 4.1395417,0.5064518 4.1395417,0.5064518 4.1321153,0.4907066 4.1292312,0.4827061 4.1273423,0.4745522 4.1266711,0.4662178 4.126999,0.4577344 4.1293282,0.4404647 4.1293282,0.4404647 4.1328031,0.4313355 4.1364218,0.4227967 4.1405551,0.4148307 4.1455743,0.4074199 4.1516452,0.4006462 4.1585081,0.3944728 4.1735536,0.3831264 4.1735536,0.3831264 4.1911579,0.374166 4.2001256,0.3705492 4.2092921,0.3679683 4.2185585,0.3666912 4.2279283,0.3665248 4.2376129,0.3671249 4.2478236,0.3681474 4.2478236,0.3681474 4.2578059,0.3719739 4.2669958,0.3759048 4.2755056,0.3803855 4.2834479,0.3858612 4.2907562,0.3925049 4.2974209,0.3999958 4.3096777,0.4163895 4.359781,0.3774938 4.359781,0.3774938 4.3394264,0.3544504 4.3285427,0.3440211 4.3168114,0.334903 4.3042973,0.327575 4.2910737,0.3217767 4.2768998,0.3168553 4.2615349,0.312158 4.2615349,0.312158 4.2453427,0.3116378 4.2301942,0.3116892 4.2156331,0.3128277 4.2012034,0.3155684 4.1868824,0.3201699 4.1728996,0.3262195 4.1454975,0.3407325 4.1454975,0.3407325 4.1201816,0.3593589 4.1085729,0.3694934 4.0982234,0.3806134 4.0896136,0.392713 4.0824832,0.405687 4.0761596,0.419692 4.0699699,0.434885 4.0699699,0.434885 4.066313,0.4627153 4.0658381,0.4763387 4.0669692,0.4897285 4.0700522,0.5028393 4.0747272,0.5157005 4.0867306,0.5410069 4.0867306,0.5410069 4.095665,0.5534226 4.1053392,0.5648947 4.1164492,0.5751228 4.1283792,0.5845687 4.1283792,0.5845687 4.1367069,0.5896131 4.1445626,0.594196 4.1604782,0.6022679 4.1777283,0.6089656 4.1954179,0.6147025 4.1954179,0.6147025 4.2119169,0.618804 4.2269742,0.6224292 4.2416499,0.6257267 4.2570042,0.6288452 4.2895017,0.6344581 4.3221493,0.6393536 4.3221493,0.6393536 4.371181,0.6466306 4.3825009,0.6486308 4.3931295,0.6506696 4.4039225,0.6528655 4.4157357,0.6553371 4.4157357,0.6553371 4.4358991,0.6614617 4.455239,0.6696858 4.2471825,0.7994852 4.2784138,0.8495461 4.5588125,0.6746147z" transform="matrix(1,0,0,-1,-0,2.686498)" fill="rgb(133,133,133)" fill-rule="nonzero" shaper:cutDepth="0.002" stroke-linecap="round" stroke-linejoin="round" /><path d="M4.0970105,0.8803087 L4.1340186,0.9396294 4.1933393,0.9026212 4.1563311,0.8433005 4.0970105,0.8803087z" transform="matrix(1,0,0,-1,-0,2.686498)" fill="rgb(133,133,133)" fill-rule="nonzero" shaper:cutDepth="0.002" stroke-linecap="round" stroke-linejoin="round" /><path d="M3.9404937,0.9831802 L3.9404937,0.9831802 3.9337141,0.9993105 3.9297593,1.0068079 3.9250678,1.0137729 3.9194838,1.0201006 3.9131894,1.0258842 3.8994168,1.0365443 3.8994168,1.0365443 3.8798858,1.0455661 3.8700413,1.0489891 3.8600024,1.0511556 3.8497232,1.0517983 3.8392679,1.051193 3.8180638,1.0479022 3.8180638,1.0479022 3.8063551,1.0429839 3.7955135,1.0379604 3.7854449,1.0323288 3.7760547,1.0255864 3.7674299,1.0175332 3.759561,1.0085244 3.7450834,0.9889138 3.7450834,0.9889138 3.7344952,0.9685488 3.730173,0.9581673 3.7270171,0.9475469 3.725344,0.9368435 3.7249449,0.9260429 3.7254252,0.9148304 3.7263903,0.9028912 3.7263903,0.9028912 3.7300391,0.8923327 3.7339021,0.8824022 3.7384009,0.8731161 3.7439569,0.8644912 3.7507723,0.8566314 3.7585525,0.8494757 3.7757208,0.836338 3.7757208,0.836338 3.7881347,0.8297543 3.8009544,0.8244569 3.8143288,0.8213594 3.8283728,0.81957 3.8283728,0.81957 3.8413618,0.8198086 3.8541226,0.8212196 3.8663874,0.8245763 3.8786172,0.8292276 3.923549,0.7923523 3.7465213,0.6000922 3.5355712,0.7316969 3.5666219,0.7814684 3.7359029,0.6758597 3.8298909,0.7756094 3.8298909,0.7756094 3.8044088,0.7762896 3.7918809,0.7774951 3.7796088,0.7797391 3.7677689,0.7832293 3.7562771,0.7877726 3.7331271,0.7989937 3.7331271,0.7989937 3.7087555,0.8182668 3.697746,0.8287468 3.6881481,0.840239 3.6802994,0.8529391 3.6738897,0.8666397 3.6684176,0.8810728 3.6633817,0.8959707 3.6633817,0.8959707 3.6615891,0.9126477 3.6604664,0.9286755 3.6605854,0.9442713 3.6625177,0.9596521 3.6666036,0.9748037 3.6724175,0.9896352 3.6869255,1.0187647 3.6869255,1.0187647 3.7061586,1.0441714 3.7165648,1.0559071 3.7279186,1.0664817 3.7403536,1.0755664 3.7537022,1.0834165 3.7678278,1.0905204 3.7825938,1.0973664 3.7825938,1.0973664 3.8016939,1.1016172 3.820251,1.1049368 3.8384358,1.1065581 3.847442,1.106492 3.8564192,1.1057137 3.8653434,1.1041651 3.8741837,1.1019188 3.8916606,1.0957318 3.9089457,1.0879501 3.9261349,1.079371 3.9261349,1.079371 3.9506528,1.0611684 3.9619369,1.0512876 3.972051,1.0404716 3.9805815,1.0286822 3.9877767,1.0160388 3.9942312,1.0024762 4.0005395,0.9879291 4.0005395,0.9879291 4.0031711,0.9731553 4.0051972,0.9588638 4.0061396,0.9448447 4.0055199,0.9308887 4.0030413,0.9169864 3.9990597,0.9032364 3.9885919,0.8759904 3.9310127,0.9054802 3.9310127,0.9054802 3.937924,0.9245272 3.9406402,0.9341305 3.9424691,0.9438292 3.9431723,0.953393 3.9428946,0.9628686 3.9419104,0.9726623 3.9404937,0.9831802z" transform="matrix(1,0,0,-1,-0,2.686498)" fill="rgb(133,133,133)" fill-rule="nonzero" shaper:cutDepth="0.002" stroke-linecap="round" stroke-linejoin="round" /><path d="M3.3800948,0.8001518 L3.3800948,0.8001518 3.3705323,0.8078579 3.3662609,0.81202 3.3625537,0.8165895 3.3595297,0.8216555 3.3570705,0.8271183 3.3530934,0.8387048 3.3530934,0.8387048 3.3517355,0.8510162 3.3516315,0.8570491 3.3522123,0.8629722 3.3536267,0.8687634 3.3557215,0.8744399 3.3610449,0.8856014 3.3610449,0.8856014 3.3687584,0.8953741 3.3729523,0.8997925 3.3775507,0.9036494 3.3826307,0.9068094 3.38811,0.9093958 3.3998501,0.9136514 3.3998501,0.9136514 3.4118892,0.915068 3.4178187,0.9152219 3.4236401,0.9147106 3.4293134,0.9133879 3.4348669,0.9113952 3.4458786,0.9062415 3.4458786,0.9062415 3.4554833,0.898586 3.4598192,0.894425 3.4635953,0.889864 3.4666871,0.8848145 3.4692188,0.8793652 3.4733499,0.8677974 3.4733499,0.8677974 3.4745573,0.8550105 3.4745612,0.8488258 3.4738629,0.842743 3.4723196,0.8367771 3.4700918,0.8309344 3.4644956,0.819454 3.4644956,0.819454 3.4568713,0.8099836 3.4527595,0.8057522 3.4482455,0.8020698 3.4432418,0.7990512 3.4378485,0.7965824 3.4264127,0.7925614 3.4264127,0.7925614 3.4142937,0.7912159 3.4083253,0.7910921 3.4024663,0.791627 3.3967624,0.7929651 3.3911838,0.794968 3.3800948,0.8001518z M3.4320496,0.8847193 L3.4320496,0.8847193 3.4255256,0.8877425 3.4188959,0.8896459 3.4119594,0.8897666 3.4048594,0.8888186 3.4048594,0.8888186 3.3978942,0.8863402 3.3915692,0.8829641 3.3863165,0.878094 3.3816989,0.8723141 3.3816989,0.8723141 3.3785274,0.8656863 3.3764113,0.8588725 3.3760582,0.851758 3.3767688,0.8444362 3.3767688,0.8444362 3.3790931,0.8375769 3.382319,0.8313484 3.3870428,0.8261826 3.3926946,0.8216369 3.3926946,0.8216369 3.3992946,0.8185844 3.4059803,0.816655 3.4129937,0.8164803 3.4201742,0.8173571 3.4201742,0.8173571 3.4269517,0.8197816 3.4330965,0.8230789 3.4382026,0.8278345 3.4426841,0.8334634 3.4426841,0.8334634 3.4459799,0.8402185 3.4482107,0.8471682 3.4486468,0.8543926 3.4479754,0.8619199 3.4479754,0.8619199 3.4456059,0.8687546 3.4423654,0.874977 3.4376931,0.8801335 3.4320496,0.8847193z" transform="matrix(1,0,0,-1,-0,2.686498)" fill="rgb(133,133,133)" fill-rule="nonzero" shaper:cutDepth="0.002" stroke-linecap="round" stroke-linejoin="round" /><path d="M4.7646886,0.4697966 L4.7646886,0.4697966 4.7579475,0.4856365 4.7540383,0.4929573 4.7494016,0.4997617 4.7438869,0.5059531 4.7376814,0.5116116 4.7241188,0.5220404 4.7241188,0.5220404 4.7055995,0.5309069 4.6961814,0.5343948 4.6865731,0.5367485 4.6767582,0.5377096 4.666769,0.5375227 4.6463074,0.5352089 4.6463074,0.5352089 4.6266341,0.5280094 4.6175031,0.523656 4.6090344,0.5183358 4.6013584,0.511845 4.594359,0.5044199 4.5814878,0.4880128 4.5814878,0.4880128 4.572885,0.470517 4.569465,0.4616135 4.5671027,0.4525231 4.5660523,0.4432818 4.5661005,0.4339034 4.5680991,0.4143588 4.5680991,0.4143588 4.575056,0.3958182 4.5792105,0.3873274 4.5842901,0.3794444 4.5904799,0.3722751 4.5975348,0.3657409 4.6130864,0.3537312 4.6130864,0.3537312 4.6229633,0.3484619 4.6325331,0.3439924 4.6534468,0.3365915 4.6191361,0.2944818 4.6191361,0.2944818 4.6111054,0.3002958 4.6111054,0.3002958 4.594432,0.3089009 4.5859243,0.3125945 4.5772113,0.3155575 4.5682863,0.3176144 4.5591798,0.3189217 4.5403744,0.3203029 4.5403744,0.3203029 4.5306455,0.3186468 4.5214597,0.3166203 4.5128803,0.3137752 4.5049719,0.3096644 4.4979113,0.3041592 4.4916649,0.2977391 4.4803548,0.2833782 4.4803548,0.2833782 4.473488,0.2692105 4.4707812,0.2620046 4.4689464,0.2546522 4.4681879,0.2471647 4.4683248,0.2395585 4.470136,0.2238263 4.470136,0.2238263 4.4762647,0.2084513 4.4798497,0.2014827 4.4841981,0.1950032 4.4894563,0.1890892 4.4954069,0.1836978 4.5084625,0.173786 4.5084625,0.173786 4.5232844,0.1664208 4.5308338,0.1634493 4.5385493,0.1613313 4.5464015,0.1602739 4.5543774,0.1601046 4.5710169,0.161292 4.5710169,0.161292 4.5805158,0.1646055 4.5891917,0.1679602 4.5972966,0.1717659 4.6050823,0.1764326 4.6125334,0.1820996 4.6195384,0.1884608 4.6328046,0.2023396 4.6791142,0.1605848 4.6791142,0.1605848 4.6587829,0.1413613 4.6480862,0.1326938 4.6367522,0.1251594 4.6248304,0.1191325 4.6123805,0.1143838 4.5992187,0.1103932 4.5851611,0.1066406 4.5851611,0.1066406 4.5711794,0.1060748 4.5577863,0.1059867 4.5447839,0.1068182 4.5319744,0.1090108 4.5193699,0.1128175 4.5070537,0.1179098 4.4829019,0.1302373 4.4829019,0.1302373 4.4669762,0.1417174 4.4593985,0.1478386 4.4522831,0.1544174 4.4457693,0.161521 4.4397505,0.169066 4.4283388,0.1851811 4.4283388,0.1851811 4.4201216,0.2013228 4.4165823,0.2095524 4.4137263,0.2179723 4.4117284,0.226555 4.4104473,0.2352837 4.4090498,0.253494 4.4090498,0.253494 4.4105876,0.2704963 4.4118786,0.2788467 4.4137963,0.2870163 4.4164722,0.2949333 4.4197772,0.3026455 4.4275436,0.3179333 4.4275436,0.3179333 4.4369542,0.3305 4.4420139,0.3363837 4.4474989,0.3417879 4.4534935,0.3465958 4.4599088,0.3509145 4.4735327,0.3587872 4.4735327,0.3587872 4.4898441,0.3643182 4.4977649,0.3663951 4.5058676,0.3678119 4.5142017,0.3684578 4.5226234,0.3684638 4.5396129,0.3674093 4.5396129,0.3674093 4.5261427,0.3833974 4.5201579,0.391757 4.5150736,0.4005553 4.5111433,0.4097947 4.5081809,0.4194192 4.5037263,0.440047 4.5037263,0.440047 4.5038943,0.4513069 4.5043927,0.4619541 4.5055607,0.4722301 4.5077373,0.4823765 4.5110975,0.4923959 4.5153831,0.5021758 4.5254962,0.5213361 4.5254962,0.5213361 4.5352328,0.5339027 4.5452848,0.54593 4.556018,0.5569441 4.5677981,0.5664713 4.5808559,0.574188 4.5949489,0.5804172 4.6097319,0.5856548 4.6248599,0.5903966 4.6248599,0.5903966 4.6420268,0.5919338 4.6585533,0.5928142 4.6746415,0.5924615 4.6904935,0.5902993 4.7060901,0.5859841 4.7213496,0.5799412 4.7513068,0.5649759 4.7513068,0.5649759 4.7753287,0.5468117 4.7863421,0.5369506 4.7961583,0.5261548 4.8044046,0.5143367 4.8113379,0.5016386 4.8175001,0.4880971 4.8234336,0.4737491 4.8234336,0.4737491 4.8260108,0.4590097 4.828012,0.4446452 4.8289549,0.4305116 4.828357,0.4164651 4.8259131,0.4025067 4.8219721,0.3887002 4.8115949,0.3613405 4.7551757,0.3868906 4.7551757,0.3868906 4.7619288,0.4074258 4.7646023,0.4177611 4.7664321,0.4281769 4.7671766,0.4383212 4.7669623,0.4482685 4.7660471,0.4585748 4.7646886,0.4697966z" transform="matrix(1,0,0,-1,-0,2.686498)" fill="rgb(133,133,133)" fill-rule="nonzero" shaper:cutDepth="0.002" stroke-linecap="round" stroke-linejoin="round" /></svg>