<?xml version="1.0" encoding="UTF-8" standalone="no"?>
<!-- Created with Inkscape (http://www.inkscape.org/) -->

<svg
   width="86.744591mm"
   height="24.837646mm"
   viewBox="0 0 86.744591 24.837646"
   version="1.1"
   id="svg5"
   inkscape:version="1.2.1 (9c6d41e, 2022-07-14)"
   sodipodi:docname="phoenix.svg"
   xmlns:inkscape="http://www.inkscape.org/namespaces/inkscape"
   xmlns:sodipodi="http://sodipodi.sourceforge.net/DTD/sodipodi-0.dtd"
   xmlns="http://www.w3.org/2000/svg"
   xmlns:svg="http://www.w3.org/2000/svg">
  <sodipodi:namedview
     id="namedview7"
     pagecolor="#ffffff"
     bordercolor="#666666"
     borderopacity="1.0"
     inkscape:showpageshadow="2"
     inkscape:pageopacity="0.0"
     inkscape:pagecheckerboard="0"
     inkscape:deskcolor="#d1d1d1"
     inkscape:document-units="mm"
     showgrid="false"
     inkscape:zoom="1.0289025"
     inkscape:cx="353.28905"
     inkscape:cy="406.74407"
     inkscape:window-width="1720"
     inkscape:window-height="1313"
     inkscape:window-x="0"
     inkscape:window-y="25"
     inkscape:window-maximized="0"
     inkscape:current-layer="layer1" />
  <defs
     id="defs2" />
  <g
     inkscape:label="Layer 1"
     inkscape:groupmode="layer"
     id="layer1"
     transform="translate(-2.5152062,-100.07279)">
    <g
       id="g540"
       transform="translate(-0.36366647,-5.0913306)">
      <g
         aria-label="armament section"
         id="text484"
         style="font-size:9.15698px;font-family:'Vtg Stencil Marsh';-inkscape-font-specification:'Vtg Stencil Marsh, Normal';stroke-width:0.143078">
        <path
           d="m 7.0551879,111.42756 c 0.2197676,0 0.3204943,-0.10073 0.2563955,-0.31134 l -1.7398261,-5.61323 c -0.064099,-0.21061 -0.1831396,-0.30218 -0.4029071,-0.30218 H 5.0589664 c -0.2197675,0 -0.3479652,0.0916 -0.4120641,0.30218 l -0.3113373,1.00727 c -0.064099,0.21061 0.018314,0.3205 0.1922966,0.41206 l 0.1007268,0.0458 c 0.4029071,0.20145 0.5402618,0.50363 0.6776165,0.94317 l 0.9889537,3.20494 c 0.064099,0.21061 0.1831396,0.31134 0.4029071,0.31134 z m -2.4357565,-1.108 c 0.3204943,0 0.2472384,-0.34796 0.2106105,-0.467 L 4.3172511,108.2043 c -0.054942,-0.16482 -0.1373547,-0.23808 -0.2563955,-0.23808 -0.1007267,0 -0.2014535,0.0733 -0.2563954,0.23808 l -0.906541,2.91192 c -0.064099,0.21061 0.036628,0.31134 0.2563955,0.31134 h 0.3479652 c 0.2197675,0 0.3479652,-0.10073 0.4029071,-0.31134 l 0.1739826,-0.62267 c 0.027471,-0.10989 0.09157,-0.16483 0.2106105,-0.17399 z"
           id="path1441" />
        <path
           d="m 12.558518,111.42756 c 0.155669,0 0.238082,-0.0641 0.238082,-0.16483 0,-0.0458 -0.0092,-0.0916 -0.03663,-0.14651 l -1.11715,-2.18852 c -0.02747,-0.0641 -0.03663,-0.10072 -0.03663,-0.16482 v -0.0275 c 0,-0.0549 0.02747,-0.10073 0.08241,-0.1282 0.494477,-0.1923 1.053053,-0.5952 1.053053,-1.47427 v -0.24724 c 0,-0.87907 -0.567733,-1.68489 -1.831396,-1.68489 h -0.256395 c -0.219768,0 -0.311338,0.0916 -0.311338,0.31134 v 0.27471 c 0,0.21977 0.09157,0.31134 0.311338,0.31134 h 0.256395 c 0.457849,0 0.824128,0.27471 0.824128,0.7875 v 0.24724 c 0,0.51279 -0.366279,0.7875 -0.824128,0.7875 h -0.256395 c -0.219768,0 -0.311338,0.0916 -0.311338,0.31133 v 0.20146 c 0,0.11904 0.04578,0.21976 0.08241,0.29302 l 1.27282,2.40829 c 0.100727,0.19229 0.201454,0.29302 0.421221,0.29302 z m -3.4063959,0 c 0.2197675,0 0.3113373,-0.0916 0.3113373,-0.31134 v -5.60407 c 0,-0.21977 -0.09157,-0.31134 -0.3113373,-0.31134 H 8.8041568 c -0.2197675,0 -0.3113373,0.0916 -0.3113373,0.31134 v 5.60407 c 0,0.21977 0.09157,0.31134 0.3113373,0.31134 z"
           id="path1438" />
        <path
           d="m 16.23961,108.13105 c 0.0641,-0.10989 0.05494,-0.21977 -0.0092,-0.33881 l -1.291134,-2.38997 c -0.07326,-0.13736 -0.18314,-0.20146 -0.338808,-0.20146 H 14.29833 c -0.219767,0 -0.311337,0.0916 -0.311337,0.31134 v 0.77834 c 0,0.1282 0.05494,0.1923 0.18314,0.20146 l 0.146511,0.0183 c 0.07326,0.009 0.128198,0.0458 0.164826,0.10988 l 1.034739,1.88634 c 0.0641,0.10989 0.137354,0.1923 0.256395,0.1923 0.109884,0 0.173983,-0.0824 0.247239,-0.20145 z m 1.648256,3.29651 c 0.219768,0 0.311338,-0.0916 0.311338,-0.31134 v -5.60407 c 0,-0.21977 -0.09157,-0.31134 -0.311338,-0.31134 h -0.30218 c -0.155669,0 -0.265552,0.0641 -0.338808,0.20146 l -0.503634,0.86991 c -0.08241,0.13735 -0.08241,0.26555 -0.0092,0.40291 l 0.439535,0.86075 c 0.03663,0.0549 0.05494,0.13736 0.05494,0.20146 v 3.37892 c 0,0.21977 0.09157,0.31134 0.311337,0.31134 z m -3.24157,0 c 0.219767,0 0.311337,-0.0916 0.311337,-0.31134 v -1.66657 c 0,-0.11904 -0.02747,-0.20145 -0.09157,-0.30218 l -0.467006,-0.67762 c -0.0641,-0.10072 -0.146512,-0.13735 -0.219767,-0.13735 -0.100727,0 -0.192297,0.0916 -0.192297,0.2564 v 2.52732 c 0,0.21977 0.09157,0.31134 0.311337,0.31134 z"
           id="path1435" />
        <path
           d="m 23.537709,111.42756 c 0.219768,0 0.320494,-0.10073 0.256395,-0.31134 l -1.739826,-5.61323 c -0.0641,-0.21061 -0.183139,-0.30218 -0.402907,-0.30218 h -0.109884 c -0.219767,0 -0.347965,0.0916 -0.412064,0.30218 l -0.311337,1.00727 c -0.0641,0.21061 0.01831,0.3205 0.192297,0.41206 l 0.100726,0.0458 c 0.402908,0.20145 0.540262,0.50363 0.677617,0.94317 l 0.988954,3.20494 c 0.0641,0.21061 0.183139,0.31134 0.402907,0.31134 z m -2.435757,-1.108 c 0.320495,0 0.247239,-0.34796 0.210611,-0.467 l -0.512791,-1.64826 c -0.05494,-0.16482 -0.137355,-0.23808 -0.256395,-0.23808 -0.100727,0 -0.201454,0.0733 -0.256396,0.23808 l -0.906541,2.91192 c -0.0641,0.21061 0.03663,0.31134 0.256396,0.31134 h 0.347965 c 0.219767,0 0.347965,-0.10073 0.402907,-0.31134 l 0.173983,-0.62267 c 0.02747,-0.10989 0.09157,-0.16483 0.21061,-0.17399 z"
           id="path1432" />
        <path
           d="m 27.227957,108.13105 c 0.0641,-0.10989 0.05494,-0.21977 -0.0092,-0.33881 l -1.291134,-2.38997 c -0.07326,-0.13736 -0.18314,-0.20146 -0.338808,-0.20146 h -0.302181 c -0.219767,0 -0.311337,0.0916 -0.311337,0.31134 v 0.77834 c 0,0.1282 0.05494,0.1923 0.18314,0.20146 l 0.146511,0.0183 c 0.07326,0.009 0.128198,0.0458 0.164826,0.10988 l 1.034739,1.88634 c 0.0641,0.10989 0.137354,0.1923 0.256395,0.1923 0.109884,0 0.173983,-0.0824 0.247239,-0.20145 z m 1.648256,3.29651 c 0.219768,0 0.311338,-0.0916 0.311338,-0.31134 v -5.60407 c 0,-0.21977 -0.09157,-0.31134 -0.311338,-0.31134 h -0.30218 c -0.155669,0 -0.265552,0.0641 -0.338808,0.20146 l -0.503634,0.86991 c -0.08241,0.13735 -0.08241,0.26555 -0.0092,0.40291 l 0.439535,0.86075 c 0.03663,0.0549 0.05494,0.13736 0.05494,0.20146 v 3.37892 c 0,0.21977 0.09157,0.31134 0.311337,0.31134 z m -3.24157,0 c 0.219767,0 0.311337,-0.0916 0.311337,-0.31134 v -1.66657 c 0,-0.11904 -0.02747,-0.20145 -0.09157,-0.30218 l -0.467006,-0.67762 c -0.0641,-0.10072 -0.146511,-0.13735 -0.219767,-0.13735 -0.100727,0 -0.192297,0.0916 -0.192297,0.2564 v 2.52732 c 0,0.21977 0.09157,0.31134 0.311337,0.31134 z"
           id="path1429" />
        <path
           d="m 31.128816,111.42756 c 0.219767,0 0.311337,-0.0916 0.311337,-0.31134 v -2.07863 c 0,-0.1923 0.08241,-0.27471 0.274709,-0.27471 h 0.567733 c 0.219768,0 0.311337,-0.0916 0.311337,-0.31134 v -0.27471 c 0,-0.21977 -0.09157,-0.31134 -0.311337,-0.31134 h -0.567733 c -0.192296,0 -0.274709,-0.0824 -0.274709,-0.27471 v -2.07863 c 0,-0.21977 -0.09157,-0.31134 -0.311337,-0.31134 H 30.78085 c -0.219767,0 -0.311337,0.0916 -0.311337,0.31134 v 5.60407 c 0,0.21977 0.09157,0.31134 0.311337,0.31134 z m 2.72878,0 c 0.219767,0 0.311337,-0.0916 0.311337,-0.31134 v -0.27471 c 0,-0.21977 -0.09157,-0.31134 -0.311337,-0.31134 H 32.63056 c -0.219767,0 -0.311337,0.0916 -0.311337,0.31134 v 0.27471 c 0,0.21977 0.09157,0.31134 0.311337,0.31134 z m 0,-5.32936 c 0.219767,0 0.311337,-0.0916 0.311337,-0.31134 v -0.27471 c 0,-0.21977 -0.09157,-0.31134 -0.311337,-0.31134 H 32.63056 c -0.219767,0 -0.311337,0.0916 -0.311337,0.31134 v 0.27471 c 0,0.21977 0.09157,0.31134 0.311337,0.31134 z"
           id="path1426" />
        <path
           d="m 36.622991,111.42756 c 0.219767,0 0.311337,-0.0916 0.311337,-0.31134 v -1.88634 c 0,-0.11904 -0.02747,-0.20145 -0.09157,-0.30218 l -0.467006,-0.67761 c -0.0641,-0.10073 -0.146511,-0.13736 -0.219767,-0.13736 -0.100727,0 -0.192297,0.0916 -0.192297,0.2564 v 2.74709 c 0,0.21977 0.09157,0.31134 0.311337,0.31134 z m 3.278198,0 c 0.192297,0 0.27471,-0.11904 0.27471,-0.31134 v -0.75087 c 0,-0.1282 -0.04579,-0.20145 -0.164826,-0.2564 l -0.09157,-0.0458 c -0.100726,-0.0458 -0.173982,-0.10073 -0.238081,-0.20145 l -2.91192,-4.43198 c -0.109883,-0.16483 -0.201453,-0.22893 -0.39375,-0.22893 h -0.137354 c -0.192297,0 -0.27471,0.11904 -0.27471,0.31134 v 0.75087 c 0,0.1282 0.04579,0.20146 0.164826,0.2564 l 0.109884,0.0549 c 0.100726,0.0458 0.173982,0.10073 0.238081,0.20145 l 2.902762,4.42282 c 0.109884,0.16483 0.201454,0.22893 0.393751,0.22893 z m -0.137354,-3.05843 c 0.0641,0.10072 0.146511,0.13735 0.219767,0.13735 0.100727,0 0.192297,-0.0916 0.192297,-0.25639 v -2.73794 c 0,-0.21977 -0.09157,-0.31134 -0.311338,-0.31134 h -0.347965 c -0.219767,0 -0.311337,0.0916 -0.311337,0.31134 v 1.87718 c 0,0.11904 0.02747,0.20145 0.09157,0.30218 z"
           id="path1423" />
        <path
           d="m 45.358733,106.0982 c 0.219767,0 0.311337,-0.0916 0.311337,-0.31134 v -0.27471 c 0,-0.21977 -0.09157,-0.31134 -0.311337,-0.31134 h -3.589536 c -0.219768,0 -0.311338,0.0916 -0.311338,0.31134 v 0.27471 c 0,0.21977 0.09157,0.31134 0.311338,0.31134 z m -1.620786,5.32936 c 0.219768,0 0.311337,-0.0916 0.311337,-0.31134 v -3.97413 c 0,-0.21977 -0.09157,-0.31133 -0.311337,-0.31133 h -0.347965 c -0.219768,0 -0.311337,0.0916 -0.311337,0.31133 v 3.97413 c 0,0.21977 0.09157,0.31134 0.311337,0.31134 z"
           id="path1420" />
        <path
           d="m 53.874698,111.46419 c 0.164826,0 0.238081,-0.1282 0.238081,-0.30218 v -0.22893 c 0,-0.14651 -0.03663,-0.26555 -0.164825,-0.33881 l -0.18314,-0.10988 c -0.183139,-0.10988 -0.311337,-0.29302 -0.338808,-0.50363 -0.02747,-0.1923 -0.100727,-0.27471 -0.293023,-0.27471 h -0.412064 c -0.192297,0 -0.27471,0.0824 -0.27471,0.27471 0,0.63183 0.604361,1.48343 1.309448,1.48343 z m 1.45596,0 c 0.576889,0 1.36439,-0.68678 1.36439,-1.7673 0,-0.86076 -0.494477,-1.31861 -1.27282,-1.65741 l -1.391861,-0.60436 c -0.457849,-0.20146 -0.613518,-0.43038 -0.613518,-0.79666 0,-0.30218 0.146512,-0.43038 0.375436,-0.54026 l 0.155669,-0.0733 c 0.128198,-0.0458 0.164825,-0.18314 0.164825,-0.32965 v -0.22892 c 0,-0.17399 -0.0641,-0.29303 -0.228924,-0.30219 h -0.09157 c -0.402907,0 -1.346076,0.39376 -1.346076,1.55669 0,0.84244 0.467006,1.29114 1.043896,1.53837 l 1.492588,0.65015 c 0.503633,0.21977 0.741715,0.46701 0.741715,0.87907 0,0.35712 -0.18314,0.56773 -0.402907,0.71424 l -0.164826,0.10989 c -0.119041,0.0733 -0.164826,0.17398 -0.164826,0.32049 v 0.22893 c 0,0.17398 0.07326,0.30218 0.238082,0.30218 z m 1.053052,-4.50524 c 0.192297,0 0.27471,-0.0824 0.27471,-0.27471 0,-0.58604 -0.531105,-1.52006 -1.336919,-1.52006 h -0.09157 c -0.164826,0 -0.238082,0.1282 -0.238082,0.30219 v 0.22892 c 0,0.14651 0.02747,0.28387 0.155669,0.34796 l 0.173983,0.10073 c 0.137354,0.0733 0.30218,0.28387 0.347965,0.54026 0.03663,0.1923 0.100727,0.27471 0.293023,0.27471 z"
           id="path1417" />
        <path
           d="m 58.599683,111.42756 c 0.219767,0 0.311337,-0.0916 0.311337,-0.31134 v -2.07863 c 0,-0.1923 0.08241,-0.27471 0.27471,-0.27471 h 0.567732 c 0.219768,0 0.311338,-0.0916 0.311338,-0.31134 v -0.27471 c 0,-0.21977 -0.09157,-0.31134 -0.311338,-0.31134 H 59.18573 c -0.192297,0 -0.27471,-0.0824 -0.27471,-0.27471 v -2.07863 c 0,-0.21977 -0.09157,-0.31134 -0.311337,-0.31134 h -0.347965 c -0.219768,0 -0.311338,0.0916 -0.311338,0.31134 v 5.60407 c 0,0.21977 0.09157,0.31134 0.311338,0.31134 z m 2.72878,0 c 0.219767,0 0.311337,-0.0916 0.311337,-0.31134 v -0.27471 c 0,-0.21977 -0.09157,-0.31134 -0.311337,-0.31134 h -1.227036 c -0.219767,0 -0.311337,0.0916 -0.311337,0.31134 v 0.27471 c 0,0.21977 0.09157,0.31134 0.311337,0.31134 z m 0,-5.32936 c 0.219767,0 0.311337,-0.0916 0.311337,-0.31134 v -0.27471 c 0,-0.21977 -0.09157,-0.31134 -0.311337,-0.31134 h -1.227036 c -0.219767,0 -0.311337,0.0916 -0.311337,0.31134 v 0.27471 c 0,0.21977 0.09157,0.31134 0.311337,0.31134 z"
           id="path1414" />
        <path
           d="m 67.335429,107.31608 c 0.219767,0 0.311337,-0.0916 0.311337,-0.31134 0,-0.53111 -0.119041,-1.42849 -1.135466,-1.79477 -0.07326,-0.0275 -0.155668,-0.0458 -0.256395,-0.0458 h -0.03663 c -0.164826,0 -0.238081,0.1282 -0.238081,0.30219 v 0.23808 c 0,0.14651 0.03663,0.27471 0.155668,0.34796 l 0.137355,0.0916 c 0.192297,0.1282 0.402907,0.35712 0.402907,0.86076 0,0.21977 0.09157,0.31134 0.311337,0.31134 z m -1.080524,4.14811 c 0.100727,0 0.18314,-0.0183 0.256395,-0.0458 1.135466,-0.43038 1.135466,-1.47427 1.135466,-1.79477 0,-0.21976 -0.09157,-0.31133 -0.311337,-0.31133 h -0.347966 c -0.219767,0 -0.311337,0.0916 -0.311337,0.31133 0,0.50364 -0.21061,0.73256 -0.402907,0.86076 l -0.137355,0.0916 c -0.11904,0.0733 -0.155668,0.20145 -0.155668,0.34797 v 0.23808 c 0,0.17398 0.07325,0.30218 0.238081,0.30218 z m -1.391861,0 c 0.164826,0 0.238082,-0.1282 0.238082,-0.30218 v -0.23808 c 0,-0.14652 -0.03663,-0.27471 -0.155669,-0.34797 l -0.137355,-0.0916 c -0.192296,-0.1282 -0.402907,-0.35712 -0.402907,-0.88823 v -2.56395 c 0,-0.53111 0.210611,-0.76003 0.402907,-0.88823 l 0.137355,-0.0916 c 0.119041,-0.0733 0.155669,-0.20145 0.155669,-0.34796 v -0.23808 c 0,-0.17399 -0.07326,-0.30219 -0.238082,-0.30219 h -0.03663 c -0.100727,0 -0.183139,0.0183 -0.256395,0.0458 -1.080524,0.43953 -1.135466,1.26366 -1.135466,1.99622 v 2.21599 c 0,0.73256 0.05494,1.55669 1.135466,1.99622 0.07326,0.0275 0.155668,0.0458 0.256395,0.0458 z"
           id="path1411" />
        <path
           d="m 72.829604,106.0982 c 0.219767,0 0.311337,-0.0916 0.311337,-0.31134 v -0.27471 c 0,-0.21977 -0.09157,-0.31134 -0.311337,-0.31134 h -3.589536 c -0.219768,0 -0.311338,0.0916 -0.311338,0.31134 v 0.27471 c 0,0.21977 0.09157,0.31134 0.311338,0.31134 z m -1.620786,5.32936 c 0.219768,0 0.311337,-0.0916 0.311337,-0.31134 v -3.97413 c 0,-0.21977 -0.09157,-0.31133 -0.311337,-0.31133 h -0.347965 c -0.219768,0 -0.311337,0.0916 -0.311337,0.31133 v 3.97413 c 0,0.21977 0.09157,0.31134 0.311337,0.31134 z"
           id="path1408" />
        <path
           d="m 76.702989,111.42756 c 0.219768,0 0.311338,-0.0916 0.311338,-0.31134 v -5.60407 c 0,-0.21977 -0.09157,-0.31134 -0.311338,-0.31134 h -0.347965 c -0.219767,0 -0.311337,0.0916 -0.311337,0.31134 v 5.60407 c 0,0.21977 0.09157,0.31134 0.311337,0.31134 z"
           id="path1405" />
        <path
           d="m 81.345561,111.46419 c 0.164826,0 0.238082,-0.1282 0.238082,-0.30218 v -0.23808 c 0,-0.14652 -0.03663,-0.27471 -0.155669,-0.34797 l -0.137355,-0.0916 c -0.192296,-0.1282 -0.402907,-0.35712 -0.402907,-0.88823 v -2.56395 c 0,-0.53111 0.210611,-0.76003 0.402907,-0.88823 l 0.137355,-0.0916 c 0.119041,-0.0733 0.155669,-0.20145 0.155669,-0.34796 v -0.23808 c 0,-0.17399 -0.07326,-0.30219 -0.238082,-0.30219 h -0.03663 c -0.100726,0 -0.183139,0.0183 -0.256395,0.0458 -1.080524,0.43953 -1.135465,1.26366 -1.135465,1.99622 v 2.21599 c 0,0.73256 0.05494,1.55669 1.135465,1.99622 0.07326,0.0275 0.155669,0.0458 0.256395,0.0458 z m 1.391861,0 c 0.100727,0 0.18314,-0.0183 0.256396,-0.0458 1.080523,-0.43953 1.135465,-1.26366 1.135465,-1.99622 v -2.21599 c 0,-0.73256 -0.05494,-1.55669 -1.135465,-1.99622 -0.07326,-0.0275 -0.155669,-0.0458 -0.256396,-0.0458 h -0.03663 c -0.164825,0 -0.238081,0.1282 -0.238081,0.30219 v 0.23808 c 0,0.14651 0.03663,0.27471 0.155668,0.34796 l 0.137355,0.0916 c 0.192297,0.1282 0.402907,0.35712 0.402907,0.88823 v 2.56395 c 0,0.53111 -0.21061,0.76003 -0.402907,0.88823 l -0.137355,0.0916 c -0.11904,0.0733 -0.155668,0.20145 -0.155668,0.34797 v 0.23808 c 0,0.17398 0.07326,0.30218 0.238081,0.30218 z"
           id="path1402" />
        <path
           d="m 86.070554,111.42756 c 0.219767,0 0.311337,-0.0916 0.311337,-0.31134 v -1.88634 c 0,-0.11904 -0.02747,-0.20145 -0.09157,-0.30218 l -0.467006,-0.67761 c -0.0641,-0.10073 -0.146511,-0.13736 -0.219767,-0.13736 -0.100727,0 -0.192297,0.0916 -0.192297,0.2564 v 2.74709 c 0,0.21977 0.09157,0.31134 0.311338,0.31134 z m 3.278198,0 c 0.192297,0 0.27471,-0.11904 0.27471,-0.31134 v -0.75087 c 0,-0.1282 -0.04579,-0.20145 -0.164826,-0.2564 l -0.09157,-0.0458 c -0.100726,-0.0458 -0.173982,-0.10073 -0.238081,-0.20145 l -2.91192,-4.43198 c -0.109883,-0.16483 -0.201453,-0.22893 -0.39375,-0.22893 h -0.137354 c -0.192297,0 -0.27471,0.11904 -0.27471,0.31134 v 0.75087 c 0,0.1282 0.04579,0.20146 0.164826,0.2564 l 0.109884,0.0549 c 0.100726,0.0458 0.173982,0.10073 0.238081,0.20145 l 2.902763,4.42282 c 0.109883,0.16483 0.201453,0.22893 0.39375,0.22893 z m -0.137354,-3.05843 c 0.0641,0.10072 0.146511,0.13735 0.219767,0.13735 0.100727,0 0.192297,-0.0916 0.192297,-0.25639 v -2.73794 c 0,-0.21977 -0.09157,-0.31134 -0.311337,-0.31134 h -0.347966 c -0.219767,0 -0.311337,0.0916 -0.311337,0.31134 v 1.87718 c 0,0.11904 0.02747,0.20145 0.09157,0.30218 z"
           id="path1399" />
      </g>
      <g
         aria-label="499202-101-1"
         id="text488"
         style="font-size:9.13043px;font-family:'Helvetica Neue';-inkscape-font-specification:'Helvetica Neue, Normal';stroke-width:0.142663">
        <path
           d="m 6.3484364,120.67819 c 0.2191303,0 0.3104346,-0.0913 0.3104346,-0.31043 v -1.20522 c 0,-0.12783 0.036522,-0.21913 0.1460869,-0.28304 l 0.1643477,-0.0913 c 0.1095652,-0.0639 0.1460869,-0.16434 0.1460869,-0.29217 v -0.18261 c 0,-0.12783 -0.036522,-0.22826 -0.1460869,-0.29217 l -0.1643477,-0.0913 C 6.6953927,117.86602 6.658871,117.77472 6.658871,117.64689 v -2.86696 c 0,-0.21913 -0.091304,-0.31043 -0.3104346,-0.31043 H 6.1110452 c -0.1917391,0 -0.3286955,0.0457 -0.4382607,0.20087 l -0.6299997,0.76696 c -0.1460868,0.16434 -0.1369564,0.36521 0.027391,0.49304 l 0.4108694,0.31956 c 0.1552173,0.1187 0.2099999,0.26479 0.2099999,0.45652 v 3.66131 c 0,0.21913 0.091304,0.31043 0.3104346,0.31043 z m -1.8443469,-1.76217 c 0.2191303,0 0.3104346,-0.0913 0.3104346,-0.31044 v -0.31043 c 0,-0.10043 -0.036522,-0.21 -0.1643478,-0.23739 l -0.1004347,-0.0183 c -0.1460869,-0.0274 -0.1643477,-0.0913 -0.1643477,-0.19174 0,-0.0639 0.036522,-0.13696 0.1095651,-0.22826 l 0.2556521,-0.31957 c 0.1186956,-0.15521 0.1186956,-0.26478 -0.027391,-0.39261 L 4.403655,116.6425 c -0.1460869,-0.12782 -0.2739129,-0.12782 -0.3926085,0.0183 l -1.0134777,1.22348 c -0.082174,0.10044 -0.1186956,0.22826 -0.1186956,0.35609 v 0.36521 c 0,0.21913 0.091304,0.31044 0.3104346,0.31044 z"
           style="-inkscape-font-specification:'Vtg Stencil Marsh, Semi-Expanded'"
           id="path1396" />
        <path
           d="m 9.9640729,117.85689 c 0.1643481,0 0.2373911,-0.12783 0.2373911,-0.3013 v -0.26479 c 0,-0.14608 -0.03652,-0.26478 -0.155217,-0.34695 l -0.091304,-0.0639 c -0.1917391,-0.12782 -0.401739,-0.37434 -0.401739,-0.73956 0,-0.35609 0.2099999,-0.60261 0.401739,-0.73044 l 0.091304,-0.0639 c 0.118695,-0.0822 0.155217,-0.20087 0.155217,-0.34696 v -0.26478 c 0,-0.17348 -0.07304,-0.3013 -0.2373911,-0.3013 h -0.036522 c -0.082174,0 -0.1369565,0.0183 -0.2099999,0.0456 -0.9039126,0.3287 -1.1321734,1.11391 -1.1321734,1.66174 0,0.55695 0.2282608,1.34217 1.1321734,1.67087 0.073043,0.0274 0.1552173,0.0457 0.2099999,0.0457 z m 0,2.85782 c 0.1643481,0 0.2373911,-0.12782 0.2373911,-0.3013 v -0.26478 c 0,-0.14609 -0.03652,-0.26479 -0.155217,-0.34696 l -0.091304,-0.0639 c -0.1917391,-0.12783 -0.3652172,-0.35609 -0.3926085,-0.67565 -0.018261,-0.21913 -0.091304,-0.31044 -0.3104347,-0.31044 H 8.8958126 c -0.2191304,0 -0.3104347,0.0913 -0.3104347,0.31044 0,0.25565 0.054783,1.17782 1.1321734,1.60695 0.073043,0.0274 0.1095651,0.0456 0.2099999,0.0456 z m 1.3878251,0 c 0.100435,0 0.136957,-0.0183 0.21,-0.0456 1.077391,-0.43826 1.132174,-1.26 1.132174,-1.99043 v -2.20957 c 0,-0.73043 -0.05478,-1.55217 -1.132174,-1.99043 -0.07304,-0.0274 -0.109565,-0.0456 -0.21,-0.0456 h -0.03652 c -0.164348,0 -0.237392,0.12782 -0.237392,0.3013 v 0.26478 c 0,0.14609 0.03652,0.27392 0.155218,0.34696 l 0.0913,0.0639 c 0.191739,0.12783 0.401739,0.35609 0.401739,0.88566 v 2.55652 c 0,0.52956 -0.21,0.75782 -0.401739,0.88565 l -0.0913,0.0639 c -0.118696,0.073 -0.155218,0.23739 -0.155218,0.38348 v 0.22826 c 0,0.17348 0.07304,0.3013 0.237392,0.3013 z"
           style="-inkscape-font-specification:'Vtg Stencil Marsh, Semi-Expanded'"
           id="path1393" />
        <path
           d="m 15.442317,117.85689 c 0.164348,0 0.237391,-0.12783 0.237391,-0.3013 v -0.26479 c 0,-0.14608 -0.03652,-0.26478 -0.155217,-0.34695 l -0.0913,-0.0639 c -0.191739,-0.12782 -0.401739,-0.37434 -0.401739,-0.73956 0,-0.35609 0.21,-0.60261 0.401739,-0.73044 l 0.0913,-0.0639 c 0.118696,-0.0822 0.155217,-0.20087 0.155217,-0.34696 v -0.26478 c 0,-0.17348 -0.07304,-0.3013 -0.237391,-0.3013 h -0.03652 c -0.08217,0 -0.136956,0.0183 -0.209999,0.0456 -0.903913,0.3287 -1.132174,1.11391 -1.132174,1.66174 0,0.55695 0.228261,1.34217 1.132174,1.67087 0.07304,0.0274 0.155217,0.0457 0.209999,0.0457 z m 0,2.85782 c 0.164348,0 0.237391,-0.12782 0.237391,-0.3013 v -0.26478 c 0,-0.14609 -0.03652,-0.26479 -0.155217,-0.34696 l -0.0913,-0.0639 c -0.191739,-0.12783 -0.365217,-0.35609 -0.392609,-0.67565 -0.01826,-0.21913 -0.0913,-0.31044 -0.310434,-0.31044 h -0.356087 c -0.21913,0 -0.310435,0.0913 -0.310435,0.31044 0,0.25565 0.05478,1.17782 1.132174,1.60695 0.07304,0.0274 0.109565,0.0456 0.209999,0.0456 z m 1.387826,0 c 0.100434,0 0.136956,-0.0183 0.209999,-0.0456 1.077391,-0.43826 1.132174,-1.26 1.132174,-1.99043 v -2.20957 c 0,-0.73043 -0.05478,-1.55217 -1.132174,-1.99043 -0.07304,-0.0274 -0.109565,-0.0456 -0.209999,-0.0456 h -0.03652 c -0.164348,0 -0.237391,0.12782 -0.237391,0.3013 v 0.26478 c 0,0.14609 0.03652,0.27392 0.155217,0.34696 l 0.0913,0.0639 c 0.191739,0.12783 0.401739,0.35609 0.401739,0.88566 v 2.55652 c 0,0.52956 -0.21,0.75782 -0.401739,0.88565 l -0.0913,0.0639 c -0.118696,0.073 -0.155217,0.23739 -0.155217,0.38348 v 0.22826 c 0,0.17348 0.07304,0.3013 0.237391,0.3013 z"
           style="-inkscape-font-specification:'Vtg Stencil Marsh, Semi-Expanded'"
           id="path1390" />
        <path
           d="m 23.276212,120.67819 c 0.21913,0 0.310435,-0.0913 0.310435,-0.31043 v -0.27392 c 0,-0.21913 -0.0913,-0.31043 -0.310435,-0.31043 h -1.753043 c -0.127826,0 -0.21913,-0.0365 -0.319565,-0.12783 l -0.502173,-0.46565 c -0.164348,-0.14608 -0.328696,-0.14608 -0.483913,0.009 l -0.566087,0.5387 c -0.118695,0.11869 -0.173478,0.23739 -0.173478,0.39261 v 0.23739 c 0,0.21913 0.0913,0.31043 0.310435,0.31043 z m -0.42,-2.74826 c 0.328696,-0.33782 0.821739,-0.80348 0.821739,-1.70739 0,-1.08652 -0.712174,-1.54304 -1.214347,-1.74391 -0.06391,-0.0274 -0.136957,-0.0456 -0.191739,-0.0456 -0.164348,0 -0.237391,0.12782 -0.237391,0.3013 v 0.29218 c 0,0.1826 0.06391,0.26478 0.191739,0.34695 0.21913,0.13696 0.483912,0.35609 0.483912,0.83087 0,0.30131 -0.109565,0.61174 -0.474782,0.97696 l -0.867391,0.87652 c -0.155217,0.15522 -0.155217,0.29217 0.0091,0.43826 l 0.246521,0.23739 c 0.164348,0.15522 0.292174,0.15522 0.447391,0 z m -2.684346,-1.3513 c 0.21913,0 0.310434,-0.0913 0.310434,-0.31044 0,-0.50217 0.21,-0.73956 0.401739,-0.85826 l 0.118696,-0.073 c 0.118695,-0.0639 0.155217,-0.22826 0.155217,-0.37435 v -0.22826 c 0,-0.17348 -0.07304,-0.3013 -0.237391,-0.3013 h -0.03652 c -0.100434,0 -0.182608,0.0274 -0.237391,0.0456 -1.123043,0.41087 -1.132173,1.47913 -1.132173,1.78956 0,0.21913 0.0913,0.31044 0.310434,0.31044 z"
           style="-inkscape-font-specification:'Vtg Stencil Marsh, Semi-Expanded'"
           id="path1387" />
        <path
           d="m 26.353154,120.71471 c 0.164347,0 0.237391,-0.12782 0.237391,-0.3013 v -0.26478 c 0,-0.14609 -0.03652,-0.27392 -0.155217,-0.34696 l -0.0913,-0.0639 c -0.191739,-0.12783 -0.401739,-0.35609 -0.401739,-0.88565 v -2.55652 c 0,-0.52957 0.21,-0.75783 0.401739,-0.88566 l 0.0913,-0.0639 c 0.118695,-0.073 0.155217,-0.23739 0.155217,-0.38348 v -0.22826 c 0,-0.17348 -0.07304,-0.3013 -0.237391,-0.3013 h -0.03652 c -0.100435,0 -0.136957,0.0183 -0.21,0.0456 -1.077391,0.43826 -1.132173,1.26 -1.132173,1.99043 v 2.20957 c 0,0.73043 0.05478,1.55217 1.132173,1.99043 0.07304,0.0274 0.109565,0.0456 0.21,0.0456 z m 1.479129,0 c 0.100435,0 0.136957,-0.0183 0.21,-0.0456 1.077391,-0.43826 1.132174,-1.26 1.132174,-1.99043 v -2.20957 c 0,-0.73043 -0.05478,-1.55217 -1.132174,-1.99043 -0.07304,-0.0274 -0.109565,-0.0456 -0.21,-0.0456 h -0.03652 c -0.164348,0 -0.237392,0.12782 -0.237392,0.3013 v 0.26478 c 0,0.14609 0.03652,0.27392 0.155218,0.34696 l 0.0913,0.0639 c 0.191739,0.12783 0.401739,0.35609 0.401739,0.88566 v 2.55652 c 0,0.52956 -0.21,0.75782 -0.401739,0.88565 l -0.0913,0.0639 c -0.118696,0.073 -0.155218,0.20087 -0.155218,0.34696 v 0.26478 c 0,0.17348 0.07304,0.3013 0.237392,0.3013 z"
           style="-inkscape-font-specification:'Vtg Stencil Marsh, Semi-Expanded'"
           id="path1384" />
        <path
           d="m 34.232702,120.67819 c 0.21913,0 0.310434,-0.0913 0.310434,-0.31043 v -0.27392 c 0,-0.21913 -0.0913,-0.31043 -0.310434,-0.31043 h -1.753043 c -0.127826,0 -0.21913,-0.0365 -0.319565,-0.12783 l -0.502174,-0.46565 c -0.164347,-0.14608 -0.328695,-0.14608 -0.483913,0.009 l -0.566086,0.5387 c -0.118696,0.11869 -0.173478,0.23739 -0.173478,0.39261 v 0.23739 c 0,0.21913 0.0913,0.31043 0.310434,0.31043 z m -0.42,-2.74826 c 0.328695,-0.33782 0.821739,-0.80348 0.821739,-1.70739 0,-1.08652 -0.712174,-1.54304 -1.214348,-1.74391 -0.06391,-0.0274 -0.136956,-0.0456 -0.191739,-0.0456 -0.164347,0 -0.237391,0.12782 -0.237391,0.3013 v 0.29218 c 0,0.1826 0.06391,0.26478 0.191739,0.34695 0.21913,0.13696 0.483913,0.35609 0.483913,0.83087 0,0.30131 -0.109565,0.61174 -0.474782,0.97696 l -0.867391,0.87652 c -0.155218,0.15522 -0.155218,0.29217 0.0091,0.43826 l 0.246522,0.23739 c 0.164347,0.15522 0.292173,0.15522 0.447391,0 z m -2.684347,-1.3513 c 0.219131,0 0.310435,-0.0913 0.310435,-0.31044 0,-0.50217 0.21,-0.73956 0.401739,-0.85826 l 0.118695,-0.073 c 0.118696,-0.0639 0.155218,-0.22826 0.155218,-0.37435 v -0.22826 c 0,-0.17348 -0.07304,-0.3013 -0.237391,-0.3013 h -0.03652 c -0.100435,0 -0.182609,0.0274 -0.237391,0.0456 -1.123043,0.41087 -1.132174,1.47913 -1.132174,1.78956 0,0.21913 0.09131,0.31044 0.310435,0.31044 z"
           style="-inkscape-font-specification:'Vtg Stencil Marsh, Semi-Expanded'"
           id="path1381" />
        <path
           d="m 39.729205,118.02124 c 0.219131,0 0.310435,-0.0913 0.310435,-0.31044 v -0.27391 c 0,-0.21913 -0.0913,-0.31044 -0.310435,-0.31044 h -3.39652 c -0.21913,0 -0.310434,0.0913 -0.310434,0.31044 v 0.27391 c 0,0.21913 0.0913,0.31044 0.310434,0.31044 z"
           style="-inkscape-font-specification:'Vtg Stencil Marsh, Semi-Expanded'"
           id="path1378" />
        <path
           d="m 43.819625,120.67819 c 0.21913,0 0.310434,-0.0913 0.310434,-0.31043 v -5.58783 c 0,-0.21913 -0.0913,-0.31043 -0.310434,-0.31043 h -0.346957 c -0.21913,0 -0.337826,0.0822 -0.43826,0.28304 l -0.529565,1.09565 c -0.03652,0.073 -0.05478,0.15522 -0.05478,0.21913 0,0.10957 0.06391,0.22827 0.191739,0.28305 l 0.246522,0.10956 c 0.200869,0.0822 0.273913,0.21 0.273913,0.42913 v 3.4787 c 0,0.21913 0.0913,0.31043 0.310434,0.31043 z"
           style="-inkscape-font-specification:'Vtg Stencil Marsh, Semi-Expanded'"
           id="path1375" />
        <path
           d="m 48.266131,120.71471 c 0.164348,0 0.237391,-0.12782 0.237391,-0.3013 v -0.26478 c 0,-0.14609 -0.03652,-0.27392 -0.155217,-0.34696 l -0.09131,-0.0639 c -0.191739,-0.12783 -0.401738,-0.35609 -0.401738,-0.88565 v -2.55652 c 0,-0.52957 0.209999,-0.75783 0.401738,-0.88566 l 0.09131,-0.0639 c 0.118695,-0.073 0.155217,-0.23739 0.155217,-0.38348 v -0.22826 c 0,-0.17348 -0.07304,-0.3013 -0.237391,-0.3013 h -0.03652 c -0.100435,0 -0.136956,0.0183 -0.21,0.0456 -1.077391,0.43826 -1.132173,1.26 -1.132173,1.99043 v 2.20957 c 0,0.73043 0.05478,1.55217 1.132173,1.99043 0.07304,0.0274 0.109565,0.0456 0.21,0.0456 z m 1.47913,0 c 0.100434,0 0.136956,-0.0183 0.209999,-0.0456 1.077391,-0.43826 1.132174,-1.26 1.132174,-1.99043 v -2.20957 c 0,-0.73043 -0.05478,-1.55217 -1.132174,-1.99043 -0.07304,-0.0274 -0.109565,-0.0456 -0.209999,-0.0456 h -0.03652 c -0.164348,0 -0.237391,0.12782 -0.237391,0.3013 v 0.26478 c 0,0.14609 0.03652,0.27392 0.155217,0.34696 l 0.0913,0.0639 c 0.191739,0.12783 0.401739,0.35609 0.401739,0.88566 v 2.55652 c 0,0.52956 -0.21,0.75782 -0.401739,0.88565 l -0.0913,0.0639 c -0.118696,0.073 -0.155217,0.20087 -0.155217,0.34696 v 0.26478 c 0,0.17348 0.07304,0.3013 0.237391,0.3013 z"
           style="-inkscape-font-specification:'Vtg Stencil Marsh, Semi-Expanded'"
           id="path1372" />
        <path
           d="m 54.776114,120.67819 c 0.219131,0 0.310435,-0.0913 0.310435,-0.31043 v -5.58783 c 0,-0.21913 -0.0913,-0.31043 -0.310435,-0.31043 h -0.346956 c -0.21913,0 -0.337826,0.0822 -0.438261,0.28304 l -0.529565,1.09565 c -0.03652,0.073 -0.05478,0.15522 -0.05478,0.21913 0,0.10957 0.06391,0.22827 0.191739,0.28305 l 0.246521,0.10956 c 0.20087,0.0822 0.273913,0.21 0.273913,0.42913 v 3.4787 c 0,0.21913 0.0913,0.31043 0.310435,0.31043 z"
           style="-inkscape-font-specification:'Vtg Stencil Marsh, Semi-Expanded'"
           id="path1369" />
        <path
           d="m 61.642184,118.02124 c 0.219131,0 0.310435,-0.0913 0.310435,-0.31044 v -0.27391 c 0,-0.21913 -0.0913,-0.31044 -0.310435,-0.31044 h -3.39652 c -0.21913,0 -0.310434,0.0913 -0.310434,0.31044 v 0.27391 c 0,0.21913 0.0913,0.31044 0.310434,0.31044 z"
           style="-inkscape-font-specification:'Vtg Stencil Marsh, Semi-Expanded'"
           id="path1366" />
        <path
           d="m 65.732604,120.67819 c 0.21913,0 0.310434,-0.0913 0.310434,-0.31043 v -5.58783 c 0,-0.21913 -0.0913,-0.31043 -0.310434,-0.31043 h -0.346957 c -0.21913,0 -0.337825,0.0822 -0.43826,0.28304 l -0.529565,1.09565 c -0.03652,0.073 -0.05478,0.15522 -0.05478,0.21913 0,0.10957 0.06391,0.22827 0.191739,0.28305 l 0.246522,0.10956 c 0.200869,0.0822 0.273913,0.21 0.273913,0.42913 v 3.4787 c 0,0.21913 0.0913,0.31043 0.310434,0.31043 z"
           style="-inkscape-font-specification:'Vtg Stencil Marsh, Semi-Expanded'"
           id="path1363" />
      </g>
      <g
         aria-label="serial no.008"
         id="text492"
         style="font-size:9.07781px;font-family:'Helvetica Neue';-inkscape-font-specification:'Helvetica Neue, Normal';stroke-width:0.141841">
        <path
           d="m 4.2950112,129.94731 c 0.1634006,0 0.2360231,-0.12709 0.2360231,-0.29957 v -0.22695 c 0,-0.14524 -0.036311,-0.26325 -0.1634006,-0.33588 l -0.1815562,-0.10893 c -0.1815562,-0.10893 -0.3086456,-0.29049 -0.335879,-0.49928 -0.027233,-0.19063 -0.099856,-0.27233 -0.2904899,-0.27233 H 3.1512071 c -0.190634,0 -0.2723343,0.0817 -0.2723343,0.27233 0,0.62637 0.5991355,1.47061 1.2981269,1.47061 z m 1.4433718,0 c 0.5719021,0 1.3525938,-0.68084 1.3525938,-1.75202 0,-0.85331 -0.4902018,-1.30721 -1.2618157,-1.64308 L 4.449334,125.95307 c -0.4538905,-0.19971 -0.6082133,-0.42666 -0.6082133,-0.78977 0,-0.29957 0.145245,-0.42666 0.3721902,-0.53559 l 0.1543228,-0.0726 c 0.1270893,-0.0454 0.1634006,-0.18156 0.1634006,-0.3268 v -0.22695 c 0,-0.17248 -0.063545,-0.29049 -0.2269453,-0.29957 H 4.213311 c -0.3994236,0 -1.3344381,0.39035 -1.3344381,1.54323 0,0.83516 0.4629683,1.27997 1.0348704,1.52507 l 1.4796831,0.64453 c 0.4992795,0.21787 0.7353026,0.46297 0.7353026,0.87147 0,0.35403 -0.1815562,0.56282 -0.3994237,0.70807 l -0.1634006,0.10893 c -0.1180115,0.0726 -0.1634005,0.17248 -0.1634005,0.31772 v 0.22695 c 0,0.17248 0.072622,0.29957 0.236023,0.29957 z m 1.0439482,-4.46629 c 0.190634,0 0.2723343,-0.0817 0.2723343,-0.27233 0,-0.58098 -0.526513,-1.50692 -1.3253603,-1.50692 h -0.090778 c -0.1634006,0 -0.236023,0.12709 -0.236023,0.29957 v 0.22695 c 0,0.14524 0.027233,0.28141 0.1543227,0.34495 l 0.1724784,0.0999 c 0.1361672,0.0726 0.2995678,0.28141 0.3449568,0.53559 0.036311,0.19063 0.099856,0.27233 0.29049,0.27233 z"
           style="-inkscape-font-specification:'Vtg Stencil Marsh, Semi-Expanded'"
           id="path1360" />
        <path
           d="m 8.9791476,129.911 c 0.2178674,0 0.3086455,-0.0908 0.3086455,-0.30865 v -2.06066 c 0,-0.19064 0.0817,-0.27234 0.2723343,-0.27234 h 0.5628246 c 0.217867,0 0.308645,-0.0908 0.308645,-0.30864 v -0.27234 c 0,-0.21786 -0.09078,-0.30864 -0.308645,-0.30864 H 9.5601274 c -0.190634,0 -0.2723343,-0.0817 -0.2723343,-0.27234 v -2.06066 c 0,-0.21787 -0.090778,-0.30865 -0.3086455,-0.30865 H 8.6341908 c -0.2178675,0 -0.3086456,0.0908 -0.3086456,0.30865 v 5.55562 c 0,0.21787 0.090778,0.30865 0.3086456,0.30865 z m 2.7051874,0 c 0.217867,0 0.308646,-0.0908 0.308646,-0.30865 v -0.27233 c 0,-0.21787 -0.09078,-0.30865 -0.308646,-0.30865 h -1.216427 c -0.217867,0 -0.308645,0.0908 -0.308645,0.30865 v 0.27233 c 0,0.21787 0.09078,0.30865 0.308645,0.30865 z m 0,-5.28329 c 0.217867,0 0.308646,-0.0908 0.308646,-0.30865 v -0.27233 c 0,-0.21787 -0.09078,-0.30865 -0.308646,-0.30865 h -1.216427 c -0.217867,0 -0.308645,0.0908 -0.308645,0.30865 v 0.27233 c 0,0.21787 0.09078,0.30865 0.308645,0.30865 z"
           style="-inkscape-font-specification:'Vtg Stencil Marsh, Semi-Expanded'"
           id="path1357" />
        <path
           d="m 17.802765,129.911 c 0.154323,0 0.236024,-0.0635 0.236024,-0.16341 0,-0.0454 -0.0091,-0.0908 -0.03631,-0.14524 l -1.107493,-2.1696 c -0.02723,-0.0635 -0.03631,-0.0999 -0.03631,-0.1634 v -0.0272 c 0,-0.0545 0.02723,-0.0999 0.0817,-0.12709 0.490202,-0.19063 1.043949,-0.59006 1.043949,-1.46153 v -0.2451 c 0,-0.87147 -0.562825,-1.67032 -1.815562,-1.67032 h -0.254179 c -0.217868,0 -0.308646,0.0908 -0.308646,0.30865 v 0.27233 c 0,0.21787 0.09078,0.30865 0.308646,0.30865 h 0.254179 c 0.45389,0 0.817003,0.27233 0.817003,0.78069 v 0.2451 c 0,0.50836 -0.363113,0.78069 -0.817003,0.78069 h -0.254179 c -0.217868,0 -0.308646,0.0908 -0.308646,0.30865 v 0.19971 c 0,0.11801 0.04539,0.21787 0.0817,0.29049 l 1.261815,2.38747 c 0.09986,0.19063 0.199712,0.29049 0.41758,0.29049 z m -3.376945,0 c 0.217867,0 0.308646,-0.0908 0.308646,-0.30865 v -5.55562 c 0,-0.21787 -0.09078,-0.30865 -0.308646,-0.30865 h -0.344957 c -0.217867,0 -0.308645,0.0908 -0.308645,0.30865 v 5.55562 c 0,0.21787 0.09078,0.30865 0.308645,0.30865 z"
           style="-inkscape-font-specification:'Vtg Stencil Marsh, Semi-Expanded'"
           id="path1354" />
        <path
           d="m 21.479265,129.911 c 0.217867,0 0.308645,-0.0908 0.308645,-0.30865 v -5.55562 c 0,-0.21787 -0.09078,-0.30865 -0.308645,-0.30865 h -0.344957 c -0.217867,0 -0.308645,0.0908 -0.308645,0.30865 v 5.55562 c 0,0.21787 0.09078,0.30865 0.308645,0.30865 z"
           style="-inkscape-font-specification:'Vtg Stencil Marsh, Semi-Expanded'"
           id="path1351" />
        <path
           d="m 28.687033,129.911 c 0.217867,0 0.317723,-0.0999 0.254178,-0.30865 l -1.724784,-5.5647 c -0.06354,-0.20879 -0.181556,-0.29957 -0.399423,-0.29957 H 26.70807 c -0.217868,0 -0.344957,0.0908 -0.408502,0.29957 l -0.308645,0.99856 c -0.06354,0.20879 0.01816,0.31772 0.190634,0.4085 l 0.09986,0.0454 c 0.399423,0.19971 0.535591,0.49928 0.671758,0.93502 l 0.980403,3.17723 c 0.06355,0.20879 0.181556,0.30865 0.399424,0.30865 z m -2.414698,-1.09842 c 0.317723,0 0.245101,-0.34496 0.20879,-0.46297 l -0.508358,-1.634 c -0.05447,-0.1634 -0.136167,-0.23603 -0.254178,-0.23603 -0.09986,0 -0.199712,0.0726 -0.254179,0.23603 l -0.898703,2.88674 c -0.06355,0.20879 0.03631,0.30865 0.254178,0.30865 h 0.344957 c 0.217868,0 0.344957,-0.0999 0.399424,-0.30865 l 0.172478,-0.61729 c 0.02723,-0.10893 0.09078,-0.1634 0.20879,-0.17248 z"
           style="-inkscape-font-specification:'Vtg Stencil Marsh, Semi-Expanded'"
           id="path1348" />
        <path
           d="m 30.765837,129.911 c 0.217868,0 0.308646,-0.0908 0.308646,-0.30865 v -5.55562 c 0,-0.21787 -0.09078,-0.30865 -0.308646,-0.30865 h -0.344956 c -0.217868,0 -0.308646,0.0908 -0.308646,0.30865 v 5.55562 c 0,0.21787 0.09078,0.30865 0.308646,0.30865 z m 3.213545,0 c 0.217868,0 0.308646,-0.0908 0.308646,-0.30865 v -0.27233 c 0,-0.21787 -0.09078,-0.30865 -0.308646,-0.30865 h -1.724784 c -0.217867,0 -0.308645,0.0908 -0.308645,0.30865 v 0.27233 c 0,0.21787 0.09078,0.30865 0.308645,0.30865 z"
           style="-inkscape-font-specification:'Vtg Stencil Marsh, Semi-Expanded'"
           id="path1345" />
        <path
           d="m 41.659184,129.911 c 0.217868,0 0.308646,-0.0908 0.308646,-0.30865 v -1.87003 c 0,-0.11801 -0.02723,-0.19971 -0.09078,-0.29957 L 41.414083,126.761 c -0.06354,-0.0999 -0.145245,-0.13617 -0.217867,-0.13617 -0.09986,0 -0.190634,0.0908 -0.190634,0.25418 v 2.72334 c 0,0.21787 0.09078,0.30865 0.308645,0.30865 z m 3.249856,0 c 0.190634,0 0.272335,-0.11802 0.272335,-0.30865 v -0.74438 c 0,-0.12709 -0.04539,-0.19971 -0.163401,-0.25418 l -0.09078,-0.0454 c -0.09986,-0.0454 -0.172479,-0.0999 -0.236023,-0.19971 l -2.886744,-4.39366 c -0.108934,-0.1634 -0.199712,-0.22695 -0.390346,-0.22695 h -0.136167 c -0.190634,0 -0.272334,0.11802 -0.272334,0.30865 v 0.74438 c 0,0.12709 0.04539,0.19971 0.1634,0.25418 l 0.108934,0.0545 c 0.09986,0.0454 0.172478,0.0999 0.236023,0.19971 l 2.877666,4.38458 c 0.108934,0.1634 0.199712,0.22695 0.390346,0.22695 z m -0.136167,-3.03199 c 0.06355,0.0999 0.145245,0.13616 0.217868,0.13616 0.09985,0 0.190634,-0.0908 0.190634,-0.25417 v -2.71427 c 0,-0.21787 -0.09078,-0.30865 -0.308646,-0.30865 h -0.344957 c -0.217867,0 -0.308645,0.0908 -0.308645,0.30865 v 1.86095 c 0,0.11801 0.02723,0.19971 0.09078,0.29957 z"
           style="-inkscape-font-specification:'Vtg Stencil Marsh, Semi-Expanded'"
           id="path1342" />
        <path
           d="m 47.868391,129.94731 c 0.1634,0 0.236023,-0.12709 0.236023,-0.29957 v -0.23602 c 0,-0.14525 -0.03631,-0.27234 -0.154323,-0.34496 l -0.136167,-0.0908 C 47.62329,128.84889 47.4145,128.62195 47.4145,128.09543 v -2.54178 c 0,-0.52652 0.20879,-0.75346 0.399424,-0.88055 l 0.136167,-0.0908 c 0.118012,-0.0726 0.154323,-0.19971 0.154323,-0.34496 v -0.23602 c 0,-0.17248 -0.07262,-0.29957 -0.236023,-0.29957 h -0.03631 c -0.09985,0 -0.181556,0.0182 -0.254178,0.0454 -1.071182,0.43574 -1.125649,1.25274 -1.125649,1.97896 v 2.19684 c 0,0.72622 0.05447,1.54322 1.125649,1.97896 0.07262,0.0272 0.154323,0.0454 0.254178,0.0454 z m 1.379827,0 c 0.09986,0 0.181556,-0.0182 0.254179,-0.0454 1.071181,-0.43574 1.125648,-1.25274 1.125648,-1.97896 v -2.19684 c 0,-0.72622 -0.05447,-1.54322 -1.125648,-1.97896 -0.07262,-0.0272 -0.154323,-0.0454 -0.254179,-0.0454 h -0.03631 c -0.163401,0 -0.236023,0.12709 -0.236023,0.29957 v 0.23602 c 0,0.14525 0.03631,0.27234 0.154322,0.34496 l 0.136168,0.0908 c 0.190634,0.12709 0.399423,0.35403 0.399423,0.88055 v 2.54178 c 0,0.52652 -0.208789,0.75346 -0.399423,0.88055 l -0.136168,0.0908 c -0.118011,0.0726 -0.154322,0.19971 -0.154322,0.34496 v 0.23602 c 0,0.17248 0.07262,0.29957 0.236023,0.29957 z"
           style="-inkscape-font-specification:'Vtg Stencil Marsh, Semi-Expanded'"
           id="path1339" />
        <path
           d="m 53.986819,130.00177 c 0.417579,0 0.708069,-0.29956 0.708069,-0.72622 0,-0.42666 -0.29049,-0.72623 -0.708069,-0.72623 -0.417579,0 -0.708069,0.29957 -0.708069,0.72623 0,0.42666 0.29049,0.72622 0.708069,0.72622 z"
           style="-inkscape-font-specification:'Vtg Stencil Marsh, Semi-Expanded'"
           id="path1336" />
        <path
           d="m 58.716347,129.94731 c 0.1634,0 0.236023,-0.12709 0.236023,-0.29957 v -0.26326 c 0,-0.14524 -0.03631,-0.27233 -0.154323,-0.34495 l -0.09078,-0.0636 c -0.190634,-0.12709 -0.399424,-0.35403 -0.399424,-0.88055 v -2.54178 c 0,-0.52652 0.20879,-0.75346 0.399424,-0.88055 l 0.09078,-0.0636 c 0.118011,-0.0726 0.154323,-0.23602 0.154323,-0.38126 v -0.22695 c 0,-0.17248 -0.07262,-0.29957 -0.236023,-0.29957 h -0.03631 c -0.09986,0 -0.136167,0.0182 -0.208789,0.0454 -1.071182,0.43574 -1.125649,1.25274 -1.125649,1.97896 v 2.19684 c 0,0.72622 0.05447,1.54322 1.125649,1.97896 0.07262,0.0272 0.108933,0.0454 0.208789,0.0454 z m 1.470605,0 c 0.09986,0 0.136167,-0.0182 0.208789,-0.0454 1.071182,-0.43574 1.125649,-1.25274 1.125649,-1.97896 v -2.19684 c 0,-0.72622 -0.05447,-1.54322 -1.125649,-1.97896 -0.07262,-0.0272 -0.108933,-0.0454 -0.208789,-0.0454 h -0.03631 c -0.163401,0 -0.236023,0.12709 -0.236023,0.29957 v 0.26326 c 0,0.14524 0.03631,0.27233 0.154322,0.34495 l 0.09078,0.0636 c 0.190634,0.12709 0.399424,0.35403 0.399424,0.88055 v 2.54178 c 0,0.52652 -0.20879,0.75346 -0.399424,0.88055 l -0.09078,0.0636 c -0.118011,0.0726 -0.154322,0.19971 -0.154322,0.34495 v 0.26326 c 0,0.17248 0.07262,0.29957 0.236023,0.29957 z"
           style="-inkscape-font-specification:'Vtg Stencil Marsh, Semi-Expanded'"
           id="path1333" />
        <path
           d="m 64.163021,129.94731 c 0.1634,0 0.236023,-0.12709 0.236023,-0.29957 v -0.26326 c 0,-0.14524 -0.03631,-0.27233 -0.154323,-0.34495 l -0.09078,-0.0636 c -0.190634,-0.12709 -0.399424,-0.35403 -0.399424,-0.88055 v -2.54178 c 0,-0.52652 0.20879,-0.75346 0.399424,-0.88055 l 0.09078,-0.0636 c 0.118012,-0.0726 0.154323,-0.23602 0.154323,-0.38126 v -0.22695 c 0,-0.17248 -0.07262,-0.29957 -0.236023,-0.29957 h -0.03631 c -0.09986,0 -0.136167,0.0182 -0.20879,0.0454 -1.071182,0.43574 -1.125648,1.25274 -1.125648,1.97896 v 2.19684 c 0,0.72622 0.05447,1.54322 1.125648,1.97896 0.07262,0.0272 0.108934,0.0454 0.20879,0.0454 z m 1.470605,0 c 0.09986,0 0.136167,-0.0182 0.20879,-0.0454 1.071181,-0.43574 1.125648,-1.25274 1.125648,-1.97896 v -2.19684 c 0,-0.72622 -0.05447,-1.54322 -1.125648,-1.97896 -0.07262,-0.0272 -0.108934,-0.0454 -0.20879,-0.0454 h -0.03631 c -0.163401,0 -0.236023,0.12709 -0.236023,0.29957 v 0.26326 c 0,0.14524 0.03631,0.27233 0.154323,0.34495 l 0.09078,0.0636 c 0.190634,0.12709 0.399423,0.35403 0.399423,0.88055 v 2.54178 c 0,0.52652 -0.208789,0.75346 -0.399423,0.88055 l -0.09078,0.0636 c -0.118012,0.0726 -0.154323,0.19971 -0.154323,0.34495 v 0.26326 c 0,0.17248 0.07262,0.29957 0.236023,0.29957 z"
           style="-inkscape-font-specification:'Vtg Stencil Marsh, Semi-Expanded'"
           id="path1330" />
        <path
           d="m 69.65508,129.94731 c 0.163401,0 0.236024,-0.12709 0.236024,-0.29957 v -0.26326 c 0,-0.14524 -0.03631,-0.27233 -0.154323,-0.34495 l -0.09078,-0.0636 c -0.20879,-0.14524 -0.453891,-0.31772 -0.453891,-0.78977 0,-0.59913 0.426657,-0.80792 0.490202,-0.84423 0.172478,-0.0999 0.20879,-0.19972 0.20879,-0.41758 v -0.19972 c 0,-0.21786 -0.03631,-0.31772 -0.20879,-0.41758 -0.06355,-0.0363 -0.490202,-0.2451 -0.490202,-0.84423 0,-0.46297 0.236023,-0.6536 0.453891,-0.78977 l 0.09078,-0.0636 c 0.118011,-0.0726 0.154323,-0.23602 0.154323,-0.38126 v -0.22695 c 0,-0.17248 -0.07262,-0.29957 -0.236024,-0.29957 h -0.03631 c -0.07262,0 -0.145245,0.0182 -0.208789,0.0454 -0.49928,0.19971 -1.180116,0.6536 -1.180116,1.73386 0,0.36312 0.0817,0.79885 0.462969,1.17104 0.06354,0.0545 0.0817,0.0908 0.0817,0.15432 v 0.0272 c 0,0.0635 -0.01816,0.0908 -0.0817,0.15432 -0.381268,0.38127 -0.462969,0.817 -0.462969,1.18012 0,1.08026 0.680836,1.53415 1.180116,1.73386 0.06354,0.0272 0.136167,0.0454 0.208789,0.0454 z m 1.379828,0 c 0.07262,0 0.145245,-0.0182 0.208789,-0.0454 0.49928,-0.19971 1.180116,-0.6536 1.180116,-1.73386 0,-0.36312 -0.0817,-0.79885 -0.462969,-1.18012 -0.06354,-0.0635 -0.0817,-0.0908 -0.0817,-0.15432 v -0.0272 c 0,-0.0635 0.01816,-0.0999 0.0817,-0.15432 0.381268,-0.37219 0.462969,-0.80792 0.462969,-1.17104 0,-1.08026 -0.680836,-1.53415 -1.180116,-1.73386 -0.06354,-0.0272 -0.136167,-0.0454 -0.208789,-0.0454 h -0.03631 c -0.1634,0 -0.236023,0.12709 -0.236023,0.29957 v 0.22695 c 0,0.14524 0.03631,0.30864 0.154323,0.38126 l 0.09078,0.0636 c 0.217868,0.13617 0.453891,0.3268 0.453891,0.78977 0,0.59913 -0.426657,0.80792 -0.490202,0.84423 -0.172478,0.0999 -0.20879,0.19972 -0.20879,0.41758 v 0.19972 c 0,0.21786 0.03631,0.31772 0.20879,0.41758 0.06355,0.0363 0.490202,0.2451 0.490202,0.84423 0,0.47205 -0.245101,0.64453 -0.453891,0.78977 l -0.09078,0.0636 c -0.118011,0.0726 -0.154323,0.19971 -0.154323,0.34495 v 0.26326 c 0,0.17248 0.07262,0.29957 0.236023,0.29957 z"
           style="-inkscape-font-specification:'Vtg Stencil Marsh, Semi-Expanded'"
           id="path1327" />
      </g>
    </g>
  </g>
</svg>
