<?xml version="1.0" encoding="UTF-8" standalone="no"?>
<!-- Created with Inkscape (http://www.inkscape.org/) -->

<svg
   width="116.25649mm"
   height="54.259621mm"
   viewBox="0 0 116.25649 54.259621"
   version="1.1"
   id="svg5"
   inkscape:version="1.2.1 (9c6d41e, 2022-07-14)"
   sodipodi:docname="phoenix.svg"
   xmlns:inkscape="http://www.inkscape.org/namespaces/inkscape"
   xmlns:sodipodi="http://sodipodi.sourceforge.net/DTD/sodipodi-0.dtd"
   xmlns="http://www.w3.org/2000/svg"
   xmlns:svg="http://www.w3.org/2000/svg">
  <sodipodi:namedview
     id="namedview7"
     pagecolor="#ffffff"
     bordercolor="#666666"
     borderopacity="1.0"
     inkscape:showpageshadow="2"
     inkscape:pageopacity="0.0"
     inkscape:pagecheckerboard="0"
     inkscape:deskcolor="#d1d1d1"
     inkscape:document-units="mm"
     showgrid="false"
     inkscape:zoom="0.32921153"
     inkscape:cx="1219.5806"
     inkscape:cy="1280.3318"
     inkscape:window-width="1720"
     inkscape:window-height="1313"
     inkscape:window-x="0"
     inkscape:window-y="25"
     inkscape:window-maximized="0"
     inkscape:current-layer="layer2" />
  <defs
     id="defs2" />
  <g
     inkscape:groupmode="layer"
     id="layer2"
     inkscape:label="Layer 2"
     transform="translate(-142.09127,192.066)">
    <g
       aria-label="serno 30091"
       id="text880"
       style="font-stretch:semi-expanded;font-size:18.4593px;line-height:1.25;font-family:'Vtg Stencil Marsh';-inkscape-font-specification:'Vtg Stencil Marsh, Semi-Expanded';stroke-width:0.288427">
      <path
         d="m 144.97104,-137.8064 c 0.33227,0 0.47994,-0.25843 0.47994,-0.60915 v -0.46149 c 0,-0.29534 -0.0738,-0.53532 -0.33226,-0.68299 l -0.36919,-0.22151 c -0.36919,-0.22151 -0.62762,-0.5907 -0.68299,-1.01526 -0.0554,-0.38765 -0.20306,-0.55378 -0.5907,-0.55378 h -0.83067 c -0.38765,0 -0.55378,0.16613 -0.55378,0.55378 0,1.27369 1.21831,2.9904 2.63968,2.9904 z m 2.93503,0 c 1.16294,0 2.75044,-1.38444 2.75044,-3.56264 0,-1.73518 -0.99681,-2.65814 -2.56585,-3.34113 l -2.80581,-1.21832 c -0.92297,-0.4061 -1.23677,-0.86759 -1.23677,-1.60596 0,-0.60915 0.29535,-0.86758 0.75683,-1.0891 l 0.31381,-0.14767 c 0.25843,-0.0923 0.33226,-0.36919 0.33226,-0.66453 v -0.46149 c 0,-0.35072 -0.12921,-0.5907 -0.46148,-0.60915 h -0.18459 c -0.81221,0 -2.71352,0.79375 -2.71352,3.13808 0,1.69825 0.94143,2.60276 2.10436,3.10116 l 3.00887,1.31061 c 1.01526,0.44302 1.4952,0.94142 1.4952,1.77209 0,0.71991 -0.36919,1.14448 -0.81221,1.43983 l -0.33227,0.22151 c -0.23997,0.14767 -0.33226,0.35073 -0.33226,0.64607 v 0.46149 c 0,0.35072 0.14767,0.60915 0.47994,0.60915 z m 2.12282,-9.08197 c 0.38764,0 0.55378,-0.16614 0.55378,-0.55378 0,-1.1814 -1.07064,-3.06424 -2.69506,-3.06424 h -0.18459 c -0.33227,0 -0.47994,0.25843 -0.47994,0.60915 v 0.46149 c 0,0.29534 0.0554,0.57223 0.3138,0.70145 l 0.35073,0.20305 c 0.27689,0.14768 0.60916,0.57224 0.70145,1.0891 0.0738,0.38764 0.20306,0.55378 0.5907,0.55378 z"
         id="path508" />
      <path
         d="m 154.49601,-137.88023 c 0.44302,0 0.62762,-0.1846 0.62762,-0.62762 v -4.19026 c 0,-0.38765 0.16613,-0.55378 0.55378,-0.55378 h 1.14447 c 0.44303,0 0.62762,-0.18459 0.62762,-0.62762 v -0.55377 c 0,-0.44303 -0.18459,-0.62762 -0.62762,-0.62762 h -1.14447 c -0.38765,0 -0.55378,-0.16613 -0.55378,-0.55378 v -4.19026 c 0,-0.44302 -0.1846,-0.62762 -0.62762,-0.62762 h -0.70145 c -0.44302,0 -0.62762,0.1846 -0.62762,0.62762 v 11.29709 c 0,0.44302 0.1846,0.62762 0.62762,0.62762 z m 5.50087,0 c 0.44303,0 0.62762,-0.1846 0.62762,-0.62762 v -0.55378 c 0,-0.44302 -0.18459,-0.62762 -0.62762,-0.62762 h -2.47354 c -0.44303,0 -0.62762,0.1846 -0.62762,0.62762 v 0.55378 c 0,0.44302 0.18459,0.62762 0.62762,0.62762 z m 0,-10.74332 c 0.44303,0 0.62762,-0.18459 0.62762,-0.62761 v -0.55378 c 0,-0.44302 -0.18459,-0.62762 -0.62762,-0.62762 h -2.47354 c -0.44303,0 -0.62762,0.1846 -0.62762,0.62762 v 0.55378 c 0,0.44302 0.18459,0.62761 0.62762,0.62761 z"
         id="path510" />
      <path
         d="m 172.43842,-137.88023 c 0.31381,0 0.47994,-0.12922 0.47994,-0.33227 0,-0.0923 -0.0185,-0.18459 -0.0738,-0.29535 l -2.25204,-4.41177 c -0.0554,-0.12922 -0.0738,-0.20305 -0.0738,-0.33227 v -0.0554 c 0,-0.11075 0.0554,-0.20305 0.16614,-0.25843 0.9968,-0.38764 2.12282,-1.19985 2.12282,-2.97195 v -0.4984 c 0,-1.77209 -1.14448,-3.39651 -3.69186,-3.39651 h -0.51686 c -0.44303,0 -0.62762,0.1846 -0.62762,0.62762 v 0.55378 c 0,0.44302 0.18459,0.62761 0.62762,0.62761 h 0.51686 c 0.92296,0 1.66133,0.55378 1.66133,1.5875 v 0.4984 c 0,1.03373 -0.73837,1.5875 -1.66133,1.5875 h -0.51686 c -0.44303,0 -0.62762,0.1846 -0.62762,0.62762 v 0.40611 c 0,0.23997 0.0923,0.44302 0.16614,0.59069 l 2.56584,4.8548 c 0.20305,0.38764 0.4061,0.5907 0.84913,0.5907 z m -6.86686,0 c 0.44303,0 0.62762,-0.1846 0.62762,-0.62762 v -11.29709 c 0,-0.44302 -0.18459,-0.62762 -0.62762,-0.62762 h -0.70145 c -0.44302,0 -0.62762,0.1846 -0.62762,0.62762 v 11.29709 c 0,0.44302 0.1846,0.62762 0.62762,0.62762 z"
         id="path512" />
      <path
         d="m 176.64711,-137.88023 c 0.44303,0 0.62762,-0.1846 0.62762,-0.62762 v -3.80262 c 0,-0.23997 -0.0554,-0.4061 -0.18459,-0.60915 l -0.94143,-1.36599 c -0.12921,-0.20305 -0.29535,-0.27689 -0.44302,-0.27689 -0.20305,0 -0.38764,0.18459 -0.38764,0.51686 v 5.53779 c 0,0.44302 0.18459,0.62762 0.62761,0.62762 z m 6.60843,0 c 0.38765,0 0.55378,-0.23997 0.55378,-0.62762 v -1.51366 c 0,-0.25843 -0.0923,-0.40611 -0.33226,-0.51686 l -0.1846,-0.0923 c -0.20305,-0.0923 -0.35072,-0.20305 -0.47994,-0.4061 l -5.87006,-8.9343 c -0.22151,-0.33227 -0.4061,-0.46149 -0.79375,-0.46149 h -0.27689 c -0.38764,0 -0.55377,0.23997 -0.55377,0.62762 v 1.51366 c 0,0.25843 0.0923,0.40611 0.33226,0.51686 l 0.22151,0.11076 c 0.20306,0.0923 0.35073,0.20305 0.47995,0.4061 l 5.85159,8.91584 c 0.22152,0.33227 0.40611,0.46149 0.79375,0.46149 z m -0.27689,-6.16541 c 0.12922,0.20305 0.29535,0.27689 0.44303,0.27689 0.20305,0 0.38764,-0.18459 0.38764,-0.51686 v -5.51933 c 0,-0.44302 -0.18459,-0.62762 -0.62761,-0.62762 h -0.70146 c -0.44302,0 -0.62761,0.1846 -0.62761,0.62762 v 3.78416 c 0,0.23997 0.0554,0.4061 0.18459,0.60915 z"
         id="path514" />
      <path
         d="m 189.27325,-137.8064 c 0.33226,0 0.47994,-0.25843 0.47994,-0.60915 v -0.47995 c 0,-0.29534 -0.0738,-0.55377 -0.31381,-0.70145 l -0.27689,-0.18459 c -0.38765,-0.25843 -0.81221,-0.71991 -0.81221,-1.79055 v -5.16861 c 0,-1.07064 0.42456,-1.53212 0.81221,-1.79055 l 0.27689,-0.18459 c 0.23997,-0.14768 0.31381,-0.40611 0.31381,-0.70146 v -0.47994 c 0,-0.35072 -0.14768,-0.60915 -0.47994,-0.60915 h -0.0738 c -0.20305,0 -0.36919,0.0369 -0.51686,0.0923 -2.1782,0.88605 -2.28895,2.54739 -2.28895,4.02413 v 4.46715 c 0,1.47674 0.11075,3.13808 2.28895,4.02413 0.14767,0.0554 0.31381,0.0923 0.51686,0.0923 z m 2.80581,0 c 0.20305,0 0.36919,-0.0369 0.51686,-0.0923 2.1782,-0.88605 2.28895,-2.54739 2.28895,-4.02413 v -4.46715 c 0,-1.47674 -0.11075,-3.13808 -2.28895,-4.02413 -0.14767,-0.0554 -0.31381,-0.0923 -0.51686,-0.0923 h -0.0738 c -0.33227,0 -0.47994,0.25843 -0.47994,0.60915 v 0.47994 c 0,0.29535 0.0738,0.55378 0.31381,0.70146 l 0.27689,0.18459 c 0.38764,0.25843 0.81221,0.71991 0.81221,1.79055 v 5.16861 c 0,1.07064 -0.42457,1.53212 -0.81221,1.79055 l -0.27689,0.18459 c -0.23997,0.14768 -0.31381,0.40611 -0.31381,0.70145 v 0.47995 c 0,0.35072 0.14767,0.60915 0.47994,0.60915 z"
         id="path516" />
      <path
         d="m 211.44281,-137.8064 c 0.33227,0 0.47994,-0.25843 0.47994,-0.60915 v -0.53532 c 0,-0.29535 -0.0554,-0.57224 -0.31381,-0.70146 l -0.25843,-0.12921 c -0.4061,-0.20305 -0.81221,-0.71991 -0.81221,-1.73518 0,-0.44302 -0.18459,-0.62761 -0.62761,-0.62761 h -0.70146 c -0.44302,0 -0.62761,0.18459 -0.62761,0.62761 0,0.62762 0.0185,2.78736 2.28895,3.61803 0.14768,0.0554 0.38765,0.0923 0.4984,0.0923 z m 2.25203,-0.60915 c 0,0.35072 0.14768,0.60915 0.47995,0.60915 0.11075,0 0.29534,-0.0369 0.42456,-0.0923 1.01526,-0.40611 2.39971,-1.32907 2.39971,-3.52573 0,-0.73837 -0.16614,-1.62442 -0.94143,-2.39971 -0.12921,-0.12921 -0.16613,-0.18459 -0.16613,-0.31381 v -0.0554 c 0,-0.12922 0.0369,-0.20306 0.16613,-0.31381 0.77529,-0.75683 0.94143,-1.64288 0.94143,-2.38125 0,-2.19666 -1.38445,-3.11962 -2.39971,-3.52573 -0.12922,-0.0554 -0.33227,-0.0923 -0.44302,-0.0923 -0.33227,0 -0.47995,0.25843 -0.47995,0.60915 v 0.5907 c 0,0.36919 0.12922,0.53532 0.38765,0.70145 0.44302,0.27689 0.97834,0.71992 0.97834,1.6798 0,1.23677 -0.88604,1.86439 -1.73517,1.86439 h -0.16614 c -0.44302,0 -0.55377,0.18459 -0.55377,0.62762 v 0.55377 c 0,0.44303 0.11075,0.62762 0.55377,0.62762 h 0.16614 c 0.84913,0 1.73517,0.62762 1.73517,1.86439 0,0.95988 -0.51686,1.40291 -0.95988,1.6798 -0.25843,0.16613 -0.38765,0.33226 -0.38765,0.70145 z m -3.78415,-7.75291 c 0.44302,0 0.62761,-0.18459 0.62761,-0.62762 0,-1.01526 0.42457,-1.4952 0.81221,-1.73517 l 0.23997,-0.14767 c 0.23997,-0.12922 0.31381,-0.46149 0.31381,-0.75683 v -0.46149 c 0,-0.35072 -0.14767,-0.60915 -0.47994,-0.60915 h -0.0738 c -0.20305,0 -0.36918,0.0554 -0.47994,0.0923 -2.27049,0.83067 -2.28895,2.99041 -2.28895,3.61802 0,0.44303 0.18459,0.62762 0.62761,0.62762 z"
         id="path518" />
      <path
         d="m 222.4076,-137.8064 c 0.33227,0 0.47994,-0.25843 0.47994,-0.60915 v -0.53532 c 0,-0.29535 -0.0738,-0.55378 -0.31381,-0.70146 l -0.18459,-0.12921 c -0.38764,-0.25843 -0.81221,-0.71991 -0.81221,-1.79055 v -5.16861 c 0,-1.07064 0.42457,-1.53212 0.81221,-1.79055 l 0.18459,-0.12921 c 0.23997,-0.14768 0.31381,-0.47995 0.31381,-0.77529 v -0.46149 c 0,-0.35072 -0.14767,-0.60915 -0.47994,-0.60915 h -0.0738 c -0.20305,0 -0.27689,0.0369 -0.42456,0.0923 -2.1782,0.88605 -2.28895,2.54739 -2.28895,4.02413 v 4.46715 c 0,1.47674 0.11075,3.13808 2.28895,4.02413 0.14767,0.0554 0.22151,0.0923 0.42456,0.0923 z m 2.99041,0 c 0.20305,0 0.27689,-0.0369 0.42456,-0.0923 2.1782,-0.88605 2.28895,-2.54739 2.28895,-4.02413 v -4.46715 c 0,-1.47674 -0.11075,-3.13808 -2.28895,-4.02413 -0.14767,-0.0554 -0.22151,-0.0923 -0.42456,-0.0923 h -0.0738 c -0.33227,0 -0.47994,0.25843 -0.47994,0.60915 v 0.53532 c 0,0.29535 0.0738,0.55378 0.31381,0.70146 l 0.18459,0.12921 c 0.38764,0.25843 0.81221,0.71991 0.81221,1.79055 v 5.16861 c 0,1.07064 -0.42457,1.53212 -0.81221,1.79055 l -0.18459,0.12921 c -0.23998,0.14768 -0.31381,0.40611 -0.31381,0.70146 v 0.53532 c 0,0.35072 0.14767,0.60915 0.47994,0.60915 z"
         id="path520" />
      <path
         d="m 233.48315,-137.8064 c 0.33227,0 0.47995,-0.25843 0.47995,-0.60915 v -0.53532 c 0,-0.29535 -0.0738,-0.55378 -0.31381,-0.70146 l -0.1846,-0.12921 c -0.38764,-0.25843 -0.8122,-0.71991 -0.8122,-1.79055 v -5.16861 c 0,-1.07064 0.42456,-1.53212 0.8122,-1.79055 l 0.1846,-0.12921 c 0.23997,-0.14768 0.31381,-0.47995 0.31381,-0.77529 v -0.46149 c 0,-0.35072 -0.14768,-0.60915 -0.47995,-0.60915 h -0.0738 c -0.20306,0 -0.27689,0.0369 -0.42457,0.0923 -2.17819,0.88605 -2.28895,2.54739 -2.28895,4.02413 v 4.46715 c 0,1.47674 0.11076,3.13808 2.28895,4.02413 0.14768,0.0554 0.22151,0.0923 0.42457,0.0923 z m 2.99041,0 c 0.20305,0 0.27689,-0.0369 0.42456,-0.0923 2.1782,-0.88605 2.28896,-2.54739 2.28896,-4.02413 v -4.46715 c 0,-1.47674 -0.11076,-3.13808 -2.28896,-4.02413 -0.14767,-0.0554 -0.22151,-0.0923 -0.42456,-0.0923 h -0.0738 c -0.33226,0 -0.47994,0.25843 -0.47994,0.60915 v 0.53532 c 0,0.29535 0.0738,0.55378 0.31381,0.70146 l 0.18459,0.12921 c 0.38765,0.25843 0.81221,0.71991 0.81221,1.79055 v 5.16861 c 0,1.07064 -0.42456,1.53212 -0.81221,1.79055 l -0.18459,0.12921 c -0.23997,0.14768 -0.31381,0.40611 -0.31381,0.70146 v 0.53532 c 0,0.35072 0.14768,0.60915 0.47994,0.60915 z"
         id="path522" />
      <path
         d="m 244.651,-143.58416 c 0.33227,0 0.47995,-0.25843 0.47995,-0.60915 v -0.53532 c 0,-0.29535 -0.0738,-0.53532 -0.31381,-0.70146 l -0.1846,-0.12921 c -0.38764,-0.25843 -0.8122,-0.75683 -0.8122,-1.49521 0,-0.71991 0.42456,-1.21831 0.8122,-1.47674 l 0.1846,-0.12921 c 0.23997,-0.16614 0.31381,-0.40611 0.31381,-0.70146 v -0.53532 c 0,-0.35072 -0.14768,-0.60915 -0.47995,-0.60915 h -0.0738 c -0.16614,0 -0.27689,0.0369 -0.42457,0.0923 -1.82747,0.66454 -2.28895,2.25204 -2.28895,3.35959 0,1.12602 0.46148,2.71352 2.28895,3.37806 0.14768,0.0554 0.31381,0.0923 0.42457,0.0923 z m 0,5.77776 c 0.33227,0 0.47995,-0.25843 0.47995,-0.60915 v -0.53532 c 0,-0.29535 -0.0738,-0.53532 -0.31381,-0.70146 l -0.1846,-0.12921 c -0.38764,-0.25843 -0.73837,-0.71991 -0.79375,-1.36599 -0.0369,-0.44302 -0.18459,-0.62762 -0.62761,-0.62762 h -0.71991 c -0.44303,0 -0.62762,0.1846 -0.62762,0.62762 0,0.51686 0.11076,2.38125 2.28895,3.24884 0.14768,0.0554 0.22151,0.0923 0.42457,0.0923 z m 2.80582,0 c 0.20305,0 0.27689,-0.0369 0.42456,-0.0923 2.1782,-0.88605 2.28895,-2.54739 2.28895,-4.02413 v -4.46715 c 0,-1.47674 -0.11075,-3.13808 -2.28895,-4.02413 -0.14767,-0.0554 -0.22151,-0.0923 -0.42456,-0.0923 h -0.0738 c -0.33227,0 -0.47994,0.25843 -0.47994,0.60915 v 0.53532 c 0,0.29535 0.0738,0.55378 0.31381,0.70146 l 0.18459,0.12921 c 0.38764,0.25843 0.81221,0.71991 0.81221,1.79055 v 5.16861 c 0,1.07064 -0.42457,1.53212 -0.81221,1.79055 l -0.18459,0.12921 c -0.23997,0.14768 -0.31381,0.47995 -0.31381,0.77529 v 0.46149 c 0,0.35072 0.14767,0.60915 0.47994,0.60915 z"
         id="path524" />
      <path
         d="m 257.72015,-137.88023 c 0.44303,0 0.62762,-0.1846 0.62762,-0.62762 v -11.29709 c 0,-0.44302 -0.18459,-0.62762 -0.62762,-0.62762 h -0.70145 c -0.44302,0 -0.68299,0.16614 -0.88605,0.57224 l -1.07063,2.21512 c -0.0738,0.14767 -0.11076,0.31381 -0.11076,0.44302 0,0.22151 0.12921,0.46148 0.38764,0.57224 l 0.49841,0.22151 c 0.4061,0.16613 0.55377,0.42456 0.55377,0.86759 v 7.03299 c 0,0.44302 0.1846,0.62762 0.62762,0.62762 z"
         id="path526" />
    </g>
    <g
       aria-label="wgu-19/A
armament section
82577-499707-100"
       id="text892"
       style="font-stretch:semi-expanded;font-size:9.07143px;line-height:1.25;font-family:'Vtg Stencil Marsh';-inkscape-font-specification:'Vtg Stencil Marsh, Semi-Expanded';letter-spacing:1.32292px;stroke-width:0.141741">
      <path
         d="m 143.10984,-185.80672 c 0.21771,0 0.34471,-0.0816 0.42635,-0.28121 l 0.29029,-0.70757 c 0.0635,-0.14515 0.0635,-0.27215 0.009,-0.41729 l -0.47171,-1.17928 c -0.0272,-0.0726 -0.0363,-0.10886 -0.0454,-0.18143 l -0.254,-3.09336 c -0.0181,-0.21772 -0.11793,-0.30843 -0.33564,-0.30843 h -0.35379 c -0.21771,0 -0.29936,0.0907 -0.28121,0.30843 l 0.45357,5.55171 c 0.0181,0.21772 0.11793,0.30843 0.33564,0.30843 z m 2.82121,0 c 0.21772,0 0.3175,-0.0907 0.33565,-0.30843 l 0.0544,-0.70757 c 0.009,-0.127 -0.0363,-0.20864 -0.14514,-0.254 l -0.18143,-0.0726 c -0.0544,-0.0181 -0.0998,-0.0635 -0.11793,-0.11793 l -0.93435,-2.35857 c -0.0635,-0.17236 -0.14515,-0.21771 -0.26307,-0.21771 -0.0998,0 -0.17236,0.0726 -0.24493,0.21771 l -0.20865,0.40822 c -0.0635,0.11792 -0.0635,0.21771 -0.0181,0.33564 l 1.08857,2.78493 c 0.0816,0.20864 0.20865,0.29028 0.42636,0.29028 z m 0.0454,-3.75557 c 0.0816,0.18143 0.18143,0.29029 0.3175,0.29029 0.15421,0 0.24493,-0.11793 0.26307,-0.33565 l 0.16329,-2.05921 c 0.0181,-0.21772 -0.0635,-0.30843 -0.28122,-0.30843 h -0.35378 c -0.21772,0 -0.3175,0.0907 -0.33565,0.30843 l -0.0907,1.12486 c -0.009,0.13607 0,0.26307 0.0544,0.381 z"
         id="path529" />
      <path
         d="m 151.88039,-185.77043 c 0.0998,0 0.18143,-0.0181 0.254,-0.0454 1.12486,-0.40821 1.12486,-1.60564 1.12486,-1.97757 v -0.84364 c 0,-0.21772 -0.0907,-0.30843 -0.30843,-0.30843 h -1.06136 c -0.21771,0 -0.30843,0.0907 -0.30843,0.30843 v 0.29028 c 0,0.21772 0.0907,0.29029 0.30843,0.29029 h 0.13607 c 0.17236,0 0.27214,0.0635 0.27214,0.22678 v 0.32658 c 0,0.32657 -0.14514,0.58964 -0.39914,0.762 l -0.13607,0.0907 c -0.11793,0.0726 -0.15421,0.19957 -0.15421,0.34471 v 0.23586 c 0,0.17236 0.0726,0.29936 0.23585,0.29936 z m -1.37886,0 c 0.16329,0 0.23586,-0.127 0.23586,-0.29936 v -0.23586 c 0,-0.14514 -0.0363,-0.27214 -0.15422,-0.34471 l -0.13607,-0.0907 c -0.1905,-0.127 -0.39914,-0.35379 -0.39914,-0.87993 v -2.54 c 0,-0.52615 0.20864,-0.75293 0.39914,-0.87993 l 0.13607,-0.0907 c 0.11793,-0.0726 0.15422,-0.19957 0.15422,-0.34471 v -0.23586 c 0,-0.17236 -0.0726,-0.29936 -0.23586,-0.29936 h -0.0363 c -0.0998,0 -0.18142,0.0182 -0.254,0.0454 -1.07042,0.43543 -1.12485,1.25186 -1.12485,1.97757 v 2.19529 c 0,0.72571 0.0544,1.54214 1.12485,1.97757 0.0726,0.0272 0.15422,0.0454 0.254,0.0454 z m 2.44929,-4.10936 c 0.21771,0 0.30843,-0.0907 0.30843,-0.30843 0,-0.52614 -0.11793,-1.41514 -1.12486,-1.778 -0.0726,-0.0272 -0.15422,-0.0454 -0.254,-0.0454 h -0.0363 c -0.16328,0 -0.23585,0.127 -0.23585,0.29936 v 0.23586 c 0,0.14514 0.0363,0.27214 0.15421,0.34471 l 0.13607,0.0907 c 0.1905,0.127 0.39914,0.35378 0.39914,0.85271 0,0.21772 0.0907,0.30843 0.30843,0.30843 z"
         id="path531" />
      <path
         d="m 157.26729,-185.77043 c 0.16329,0 0.23586,-0.127 0.23586,-0.29936 v -0.23586 c 0,-0.14514 -0.0363,-0.27214 -0.15421,-0.34471 l -0.13607,-0.0907 c -0.1905,-0.127 -0.39915,-0.35379 -0.39915,-0.87993 v -4.04586 c 0,-0.21772 -0.0907,-0.30843 -0.30843,-0.30843 h -0.34471 c -0.21771,0 -0.30843,0.0907 -0.30843,0.30843 v 3.8735 c 0,0.72571 0.0544,1.54214 1.12486,1.97757 0.0726,0.0272 0.15421,0.0454 0.254,0.0454 z m 1.37886,0 c 0.0998,0 0.18143,-0.0181 0.254,-0.0454 1.07043,-0.43543 1.12486,-1.25186 1.12486,-1.97757 v -3.8735 c 0,-0.21772 -0.0907,-0.30843 -0.30843,-0.30843 h -0.34471 c -0.21772,0 -0.30843,0.0907 -0.30843,0.30843 v 4.04586 c 0,0.52614 -0.20864,0.75293 -0.39914,0.87993 l -0.13608,0.0907 c -0.11792,0.0726 -0.15421,0.19957 -0.15421,0.34471 v 0.23586 c 0,0.17236 0.0726,0.29936 0.23586,0.29936 z"
         id="path533" />
      <path
         d="m 166.39163,-188.4465 c 0.21772,0 0.30843,-0.0907 0.30843,-0.30843 v -0.27214 c 0,-0.21772 -0.0907,-0.30843 -0.30843,-0.30843 h -3.37457 c -0.21772,0 -0.30843,0.0907 -0.30843,0.30843 v 0.27214 c 0,0.21771 0.0907,0.30843 0.30843,0.30843 z"
         id="path535" />
      <path
         d="m 171.77854,-185.80672 c 0.21771,0 0.30843,-0.0907 0.30843,-0.30843 v -5.55171 c 0,-0.21772 -0.0907,-0.30843 -0.30843,-0.30843 h -0.34472 c -0.21771,0 -0.33564,0.0816 -0.43543,0.28121 l -0.52614,1.08858 c -0.0363,0.0726 -0.0544,0.15421 -0.0544,0.21771 0,0.10886 0.0635,0.22679 0.1905,0.28122 l 0.24493,0.10885 c 0.19957,0.0816 0.27214,0.20865 0.27214,0.42636 v 3.45621 c 0,0.21772 0.0907,0.30843 0.30843,0.30843 z"
         id="path537" />
      <path
         d="m 177.56459,-188.60979 c 0.16329,0 0.23586,-0.127 0.23586,-0.29936 v -0.26307 c 0,-0.14514 -0.0363,-0.26307 -0.15422,-0.34471 l -0.0907,-0.0635 c -0.1905,-0.127 -0.39914,-0.37193 -0.39914,-0.73479 0,-0.35378 0.20864,-0.59871 0.39914,-0.72571 l 0.0907,-0.0635 c 0.11793,-0.0816 0.15422,-0.19957 0.15422,-0.34472 v -0.26307 c 0,-0.17236 -0.0726,-0.29936 -0.23586,-0.29936 h -0.0363 c -0.0816,0 -0.13607,0.0182 -0.20864,0.0454 -0.89807,0.32657 -1.12486,1.10672 -1.12486,1.651 0,0.55336 0.22679,1.3335 1.12486,1.66007 0.0726,0.0272 0.15422,0.0454 0.20864,0.0454 z m 0,2.83936 c 0.16329,0 0.23586,-0.127 0.23586,-0.29936 v -0.26307 c 0,-0.14514 -0.0363,-0.26307 -0.15422,-0.34471 l -0.0907,-0.0635 c -0.1905,-0.127 -0.36286,-0.35379 -0.39007,-0.67129 -0.0181,-0.21771 -0.0907,-0.30843 -0.30843,-0.30843 h -0.35379 c -0.21771,0 -0.30843,0.0907 -0.30843,0.30843 0,0.254 0.0544,1.17021 1.12486,1.59657 0.0726,0.0272 0.10886,0.0454 0.20864,0.0454 z m 1.37886,0 c 0.0998,0 0.13607,-0.0181 0.20864,-0.0454 1.07043,-0.43543 1.12486,-1.25186 1.12486,-1.97757 v -2.19529 c 0,-0.72571 -0.0544,-1.54214 -1.12486,-1.97757 -0.0726,-0.0272 -0.10886,-0.0454 -0.20864,-0.0454 h -0.0363 c -0.16328,0 -0.23586,0.127 -0.23586,0.29936 v 0.26307 c 0,0.14515 0.0363,0.27215 0.15422,0.34472 l 0.0907,0.0635 c 0.1905,0.127 0.39915,0.35378 0.39915,0.87993 v 2.54 c 0,0.52614 -0.20865,0.75293 -0.39915,0.87993 l -0.0907,0.0635 c -0.11793,0.0726 -0.15422,0.23585 -0.15422,0.381 v 0.22678 c 0,0.17236 0.0726,0.29936 0.23586,0.29936 z"
         id="path539" />
      <path
         d="m 183.34157,-185.716 c 0.127,0 0.20864,-0.0454 0.28121,-0.15422 l 3.3655,-5.207 c 0.0726,-0.10886 0.0998,-0.20864 0.0998,-0.33564 v -0.34472 c 0,-0.21771 -0.0907,-0.30842 -0.30843,-0.30842 h -0.11793 c -0.127,0 -0.20864,0.0454 -0.28121,0.15421 l -3.36551,5.207 c -0.0726,0.10886 -0.0998,0.20864 -0.0998,0.33564 v 0.34472 c 0,0.21771 0.0907,0.30843 0.30843,0.30843 z"
         id="path541" />
      <path
         d="m 193.69962,-185.80672 c 0.21771,0 0.3175,-0.0998 0.254,-0.30843 l -1.72357,-5.56078 c -0.0635,-0.20865 -0.18143,-0.29936 -0.39915,-0.29936 h -0.10885 c -0.21772,0 -0.34472,0.0907 -0.40822,0.29936 l -0.30843,0.99786 c -0.0635,0.20864 0.0181,0.3175 0.1905,0.40821 l 0.0998,0.0454 c 0.39914,0.19957 0.53521,0.49893 0.67129,0.93435 l 0.97971,3.175 c 0.0635,0.20865 0.18143,0.30843 0.39914,0.30843 z m -2.413,-1.09764 c 0.3175,0 0.24493,-0.34471 0.20864,-0.46264 l -0.508,-1.63286 c -0.0544,-0.16329 -0.13607,-0.23586 -0.254,-0.23586 -0.0998,0 -0.19957,0.0726 -0.254,0.23586 l -0.89807,2.88471 c -0.0635,0.20865 0.0363,0.30843 0.254,0.30843 h 0.34471 c 0.21772,0 0.34472,-0.0998 0.39915,-0.30843 l 0.17235,-0.61685 c 0.0272,-0.10886 0.0907,-0.16329 0.20865,-0.17236 z"
         id="path543" />
      <path
         d="m 146.33927,-174.46743 c 0.21771,0 0.3175,-0.0998 0.254,-0.30843 l -1.72357,-5.56078 c -0.0635,-0.20865 -0.18143,-0.29936 -0.39915,-0.29936 h -0.10885 c -0.21772,0 -0.34472,0.0907 -0.40822,0.29936 l -0.30843,0.99785 c -0.0635,0.20865 0.0181,0.3175 0.1905,0.40822 l 0.0998,0.0453 c 0.39914,0.19958 0.53521,0.49893 0.67128,0.93436 l 0.97972,3.175 c 0.0635,0.20865 0.18143,0.30843 0.39914,0.30843 z m -2.413,-1.09764 c 0.3175,0 0.24493,-0.34472 0.20864,-0.46265 l -0.508,-1.63285 c -0.0544,-0.16329 -0.13607,-0.23586 -0.254,-0.23586 -0.0998,0 -0.19957,0.0726 -0.254,0.23586 l -0.89807,2.88471 c -0.0635,0.20865 0.0363,0.30843 0.254,0.30843 h 0.34471 c 0.21772,0 0.34472,-0.0998 0.39914,-0.30843 l 0.17236,-0.61686 c 0.0272,-0.10885 0.0907,-0.16328 0.20864,-0.17235 z"
         id="path545" />
      <path
         d="m 153.1141,-174.46743 c 0.15422,0 0.23586,-0.0635 0.23586,-0.16328 0,-0.0454 -0.009,-0.0907 -0.0363,-0.14515 l -1.10671,-2.16807 c -0.0272,-0.0635 -0.0363,-0.0998 -0.0363,-0.16329 v -0.0272 c 0,-0.0544 0.0272,-0.0998 0.0816,-0.127 0.48985,-0.1905 1.04321,-0.58964 1.04321,-1.4605 v -0.24493 c 0,-0.87086 -0.56243,-1.66914 -1.81428,-1.66914 h -0.254 c -0.21772,0 -0.30843,0.0907 -0.30843,0.30843 v 0.27214 c 0,0.21771 0.0907,0.30843 0.30843,0.30843 h 0.254 c 0.45357,0 0.81642,0.27214 0.81642,0.78014 v 0.24493 c 0,0.508 -0.36285,0.78014 -0.81642,0.78014 h -0.254 c -0.21772,0 -0.30843,0.0907 -0.30843,0.30843 v 0.19957 c 0,0.11793 0.0453,0.21772 0.0816,0.29029 l 1.26093,2.38579 c 0.0998,0.1905 0.19957,0.29028 0.41728,0.29028 z m -3.37457,0 c 0.21771,0 0.30843,-0.0907 0.30843,-0.30843 v -5.55171 c 0,-0.21772 -0.0907,-0.30843 -0.30843,-0.30843 h -0.34471 c -0.21772,0 -0.30843,0.0907 -0.30843,0.30843 v 5.55171 c 0,0.21772 0.0907,0.30843 0.30843,0.30843 z"
         id="path547" />
      <path
         d="m 158.08372,-177.73314 c 0.0635,-0.10886 0.0544,-0.21772 -0.009,-0.33565 l -1.27907,-2.36764 c -0.0726,-0.13607 -0.18143,-0.19957 -0.33564,-0.19957 h -0.29936 c -0.21771,0 -0.30843,0.0907 -0.30843,0.30843 v 0.77107 c 0,0.127 0.0544,0.1905 0.18143,0.19957 l 0.14514,0.0181 c 0.0726,0.009 0.127,0.0454 0.16329,0.10886 l 1.02507,1.86871 c 0.0635,0.10886 0.13607,0.1905 0.254,0.1905 0.10886,0 0.17236,-0.0816 0.24493,-0.19957 z m 1.63286,3.26571 c 0.21772,0 0.30843,-0.0907 0.30843,-0.30843 v -5.55171 c 0,-0.21772 -0.0907,-0.30843 -0.30843,-0.30843 h -0.29936 c -0.15421,0 -0.26307,0.0635 -0.33564,0.19957 l -0.49893,0.86179 c -0.0816,0.13607 -0.0816,0.26307 -0.009,0.39914 l 0.43543,0.85271 c 0.0363,0.0544 0.0544,0.13607 0.0544,0.19957 v 3.34736 c 0,0.21772 0.0907,0.30843 0.30843,0.30843 z m -3.21129,0 c 0.21772,0 0.30843,-0.0907 0.30843,-0.30843 v -1.651 c 0,-0.11793 -0.0272,-0.19957 -0.0907,-0.29936 l -0.46264,-0.67128 c -0.0635,-0.0998 -0.14515,-0.13607 -0.21772,-0.13607 -0.0998,0 -0.1905,0.0907 -0.1905,0.254 v 2.50371 c 0,0.21772 0.0907,0.30843 0.30843,0.30843 z"
         id="path549" />
      <path
         d="m 166.63656,-174.46743 c 0.21771,0 0.3175,-0.0998 0.254,-0.30843 l -1.72357,-5.56078 c -0.0635,-0.20865 -0.18143,-0.29936 -0.39915,-0.29936 h -0.10885 c -0.21772,0 -0.34472,0.0907 -0.40822,0.29936 l -0.30843,0.99785 c -0.0635,0.20865 0.0181,0.3175 0.1905,0.40822 l 0.0998,0.0453 c 0.39914,0.19958 0.53521,0.49893 0.67129,0.93436 l 0.97971,3.175 c 0.0635,0.20865 0.18143,0.30843 0.39914,0.30843 z m -2.413,-1.09764 c 0.3175,0 0.24493,-0.34472 0.20864,-0.46265 l -0.508,-1.63285 c -0.0544,-0.16329 -0.13607,-0.23586 -0.254,-0.23586 -0.0998,0 -0.19957,0.0726 -0.254,0.23586 l -0.89807,2.88471 c -0.0635,0.20865 0.0363,0.30843 0.254,0.30843 h 0.34471 c 0.21772,0 0.34472,-0.0998 0.39915,-0.30843 l 0.17235,-0.61686 c 0.0272,-0.10885 0.0907,-0.16328 0.20865,-0.17235 z"
         id="path551" />
      <path
         d="m 171.61525,-177.73314 c 0.0635,-0.10886 0.0544,-0.21772 -0.009,-0.33565 l -1.27907,-2.36764 c -0.0726,-0.13607 -0.18143,-0.19957 -0.33564,-0.19957 h -0.29936 c -0.21772,0 -0.30843,0.0907 -0.30843,0.30843 v 0.77107 c 0,0.127 0.0544,0.1905 0.18143,0.19957 l 0.14514,0.0181 c 0.0726,0.009 0.127,0.0454 0.16329,0.10886 l 1.02507,1.86871 c 0.0635,0.10886 0.13607,0.1905 0.254,0.1905 0.10886,0 0.17236,-0.0816 0.24493,-0.19957 z m 1.63286,3.26571 c 0.21771,0 0.30843,-0.0907 0.30843,-0.30843 v -5.55171 c 0,-0.21772 -0.0907,-0.30843 -0.30843,-0.30843 h -0.29936 c -0.15421,0 -0.26307,0.0635 -0.33564,0.19957 l -0.49893,0.86179 c -0.0816,0.13607 -0.0816,0.26307 -0.009,0.39914 l 0.43543,0.85271 c 0.0363,0.0544 0.0544,0.13607 0.0544,0.19957 v 3.34736 c 0,0.21772 0.0907,0.30843 0.30843,0.30843 z m -3.21129,0 c 0.21772,0 0.30843,-0.0907 0.30843,-0.30843 v -1.651 c 0,-0.11793 -0.0272,-0.19957 -0.0907,-0.29936 l -0.46265,-0.67128 c -0.0635,-0.0998 -0.14514,-0.13607 -0.21771,-0.13607 -0.0998,0 -0.1905,0.0907 -0.1905,0.254 v 2.50371 c 0,0.21772 0.0907,0.30843 0.30843,0.30843 z"
         id="path553" />
      <path
         d="m 176.80259,-174.46743 c 0.21771,0 0.30843,-0.0907 0.30843,-0.30843 v -2.05921 c 0,-0.1905 0.0816,-0.27215 0.27214,-0.27215 h 0.56243 c 0.21771,0 0.30843,-0.0907 0.30843,-0.30842 v -0.27215 c 0,-0.21771 -0.0907,-0.30843 -0.30843,-0.30843 h -0.56243 c -0.1905,0 -0.27214,-0.0816 -0.27214,-0.27214 v -2.05921 c 0,-0.21772 -0.0907,-0.30843 -0.30843,-0.30843 h -0.34472 c -0.21771,0 -0.30842,0.0907 -0.30842,0.30843 v 5.55171 c 0,0.21772 0.0907,0.30843 0.30842,0.30843 z m 2.70329,0 c 0.21771,0 0.30842,-0.0907 0.30842,-0.30843 v -0.27214 c 0,-0.21772 -0.0907,-0.30843 -0.30842,-0.30843 h -1.21558 c -0.21771,0 -0.30842,0.0907 -0.30842,0.30843 v 0.27214 c 0,0.21772 0.0907,0.30843 0.30842,0.30843 z m 0,-5.27957 c 0.21771,0 0.30842,-0.0907 0.30842,-0.30843 v -0.27214 c 0,-0.21772 -0.0907,-0.30843 -0.30842,-0.30843 h -1.21558 c -0.21771,0 -0.30842,0.0907 -0.30842,0.30843 v 0.27214 c 0,0.21771 0.0907,0.30843 0.30842,0.30843 z"
         id="path555" />
      <path
         d="m 183.56835,-174.46743 c 0.21772,0 0.30843,-0.0907 0.30843,-0.30843 v -1.86871 c 0,-0.11793 -0.0272,-0.19957 -0.0907,-0.29936 l -0.46265,-0.67129 c -0.0635,-0.0998 -0.14514,-0.13607 -0.21771,-0.13607 -0.0998,0 -0.1905,0.0907 -0.1905,0.254 v 2.72143 c 0,0.21772 0.0907,0.30843 0.30843,0.30843 z m 3.24757,0 c 0.1905,0 0.27215,-0.11793 0.27215,-0.30843 v -0.74386 c 0,-0.127 -0.0454,-0.19957 -0.16329,-0.254 l -0.0907,-0.0454 c -0.0998,-0.0454 -0.17236,-0.0998 -0.23586,-0.19957 l -2.88472,-4.39058 c -0.10885,-0.16328 -0.19957,-0.22678 -0.39007,-0.22678 h -0.13607 c -0.1905,0 -0.27214,0.11793 -0.27214,0.30843 v 0.74385 c 0,0.127 0.0454,0.19958 0.16328,0.254 l 0.10886,0.0544 c 0.0998,0.0454 0.17236,0.0998 0.23586,0.19957 l 2.87564,4.38151 c 0.10886,0.16328 0.19957,0.22678 0.39007,0.22678 z m -0.13607,-3.02986 c 0.0635,0.0998 0.14515,0.13607 0.21772,0.13607 0.0998,0 0.1905,-0.0907 0.1905,-0.254 v -2.71235 c 0,-0.21772 -0.0907,-0.30843 -0.30843,-0.30843 h -0.34472 c -0.21771,0 -0.30843,0.0907 -0.30843,0.30843 v 1.85964 c 0,0.11793 0.0272,0.19957 0.0907,0.29936 z"
         id="path557" />
      <path
         d="m 193.5454,-179.747 c 0.21772,0 0.30843,-0.0907 0.30843,-0.30843 v -0.27214 c 0,-0.21772 -0.0907,-0.30843 -0.30843,-0.30843 h -3.556 c -0.21771,0 -0.30843,0.0907 -0.30843,0.30843 v 0.27214 c 0,0.21771 0.0907,0.30843 0.30843,0.30843 z m -1.60564,5.27957 c 0.21772,0 0.30843,-0.0907 0.30843,-0.30843 v -3.937 c 0,-0.21771 -0.0907,-0.30843 -0.30843,-0.30843 h -0.34471 c -0.21772,0 -0.30843,0.0907 -0.30843,0.30843 v 3.937 c 0,0.21772 0.0907,0.30843 0.30843,0.30843 z"
         id="path559" />
      <path
         d="m 204.62765,-174.43114 c 0.16328,0 0.23585,-0.127 0.23585,-0.29936 v -0.22679 c 0,-0.14514 -0.0363,-0.26307 -0.16328,-0.33564 l -0.18143,-0.10886 c -0.18143,-0.10885 -0.30843,-0.29028 -0.33564,-0.49893 -0.0272,-0.1905 -0.0998,-0.27214 -0.29029,-0.27214 h -0.40821 c -0.1905,0 -0.27215,0.0816 -0.27215,0.27214 0,0.62593 0.59872,1.46958 1.29722,1.46958 z m 1.44235,0 c 0.5715,0 1.35165,-0.68036 1.35165,-1.75079 0,-0.85271 -0.48986,-1.30629 -1.26093,-1.64193 l -1.37886,-0.59871 c -0.45357,-0.19957 -0.60779,-0.42636 -0.60779,-0.78922 0,-0.29935 0.14515,-0.42635 0.37193,-0.53521 l 0.15422,-0.0726 c 0.127,-0.0454 0.16328,-0.18143 0.16328,-0.32657 v -0.22679 c 0,-0.17236 -0.0635,-0.29029 -0.22678,-0.29936 h -0.0907 c -0.39914,0 -1.3335,0.39007 -1.3335,1.54215 0,0.83457 0.46265,1.27907 1.03415,1.524 l 1.47864,0.64407 c 0.49893,0.21771 0.73479,0.46264 0.73479,0.87085 0,0.35379 -0.18143,0.56243 -0.39915,0.70758 l -0.16328,0.10885 c -0.11793,0.0726 -0.16329,0.17236 -0.16329,0.3175 v 0.22679 c 0,0.17236 0.0726,0.29936 0.23586,0.29936 z m 1.04322,-4.46315 c 0.1905,0 0.27214,-0.0816 0.27214,-0.27214 0,-0.58057 -0.52614,-1.50586 -1.32443,-1.50586 h -0.0907 c -0.16329,0 -0.23586,0.127 -0.23586,0.29936 v 0.22679 c 0,0.14514 0.0272,0.28121 0.15422,0.34471 l 0.17235,0.0998 c 0.13607,0.0726 0.29936,0.28121 0.34472,0.53521 0.0363,0.1905 0.0998,0.27214 0.29028,0.27214 z"
         id="path561" />
      <path
         d="m 210.63141,-174.46743 c 0.21772,0 0.30843,-0.0907 0.30843,-0.30843 v -2.05921 c 0,-0.1905 0.0816,-0.27215 0.27214,-0.27215 h 0.56243 c 0.21772,0 0.30843,-0.0907 0.30843,-0.30842 v -0.27215 c 0,-0.21771 -0.0907,-0.30843 -0.30843,-0.30843 h -0.56243 c -0.1905,0 -0.27214,-0.0816 -0.27214,-0.27214 v -2.05921 c 0,-0.21772 -0.0907,-0.30843 -0.30843,-0.30843 h -0.34471 c -0.21772,0 -0.30843,0.0907 -0.30843,0.30843 v 5.55171 c 0,0.21772 0.0907,0.30843 0.30843,0.30843 z m 2.70329,0 c 0.21771,0 0.30843,-0.0907 0.30843,-0.30843 v -0.27214 c 0,-0.21772 -0.0907,-0.30843 -0.30843,-0.30843 h -1.21557 c -0.21772,0 -0.30843,0.0907 -0.30843,0.30843 v 0.27214 c 0,0.21772 0.0907,0.30843 0.30843,0.30843 z m 0,-5.27957 c 0.21771,0 0.30843,-0.0907 0.30843,-0.30843 v -0.27214 c 0,-0.21772 -0.0907,-0.30843 -0.30843,-0.30843 h -1.21557 c -0.21772,0 -0.30843,0.0907 -0.30843,0.30843 v 0.27214 c 0,0.21771 0.0907,0.30843 0.30843,0.30843 z"
         id="path563" />
      <path
         d="m 220.60846,-178.5405 c 0.21772,0 0.30843,-0.0907 0.30843,-0.30843 0,-0.52614 -0.11793,-1.41514 -1.12486,-1.778 -0.0726,-0.0272 -0.15421,-0.0454 -0.254,-0.0454 h -0.0363 c -0.16329,0 -0.23586,0.127 -0.23586,0.29936 v 0.23586 c 0,0.14514 0.0363,0.27214 0.15421,0.34471 l 0.13608,0.0907 c 0.1905,0.127 0.39914,0.35378 0.39914,0.85271 0,0.21771 0.0907,0.30843 0.30843,0.30843 z m -1.07043,4.10936 c 0.0998,0 0.18143,-0.0181 0.254,-0.0454 1.12486,-0.42636 1.12486,-1.4605 1.12486,-1.778 0,-0.21772 -0.0907,-0.30843 -0.30843,-0.30843 h -0.34471 c -0.21772,0 -0.30843,0.0907 -0.30843,0.30843 0,0.49893 -0.20864,0.72571 -0.39914,0.85271 l -0.13608,0.0907 c -0.11792,0.0726 -0.15421,0.19957 -0.15421,0.34471 v 0.23586 c 0,0.17236 0.0726,0.29936 0.23586,0.29936 z m -1.37886,0 c 0.16329,0 0.23586,-0.127 0.23586,-0.29936 v -0.23586 c 0,-0.14514 -0.0363,-0.27214 -0.15421,-0.34471 l -0.13607,-0.0907 c -0.1905,-0.127 -0.39915,-0.35378 -0.39915,-0.87993 v -2.54 c 0,-0.52614 0.20865,-0.75292 0.39915,-0.87992 l 0.13607,-0.0907 c 0.11793,-0.0726 0.15421,-0.19957 0.15421,-0.34471 v -0.23586 c 0,-0.17236 -0.0726,-0.29936 -0.23586,-0.29936 h -0.0363 c -0.0998,0 -0.18143,0.0181 -0.254,0.0454 -1.07043,0.43543 -1.12486,1.25186 -1.12486,1.97757 v 2.19529 c 0,0.72571 0.0544,1.54214 1.12486,1.97757 0.0726,0.0272 0.15421,0.0454 0.254,0.0454 z"
         id="path565" />
      <path
         d="m 227.37422,-179.747 c 0.21772,0 0.30843,-0.0907 0.30843,-0.30843 v -0.27214 c 0,-0.21772 -0.0907,-0.30843 -0.30843,-0.30843 h -3.556 c -0.21771,0 -0.30843,0.0907 -0.30843,0.30843 v 0.27214 c 0,0.21771 0.0907,0.30843 0.30843,0.30843 z m -1.60564,5.27957 c 0.21771,0 0.30843,-0.0907 0.30843,-0.30843 v -3.937 c 0,-0.21771 -0.0907,-0.30843 -0.30843,-0.30843 h -0.34471 c -0.21772,0 -0.30843,0.0907 -0.30843,0.30843 v 3.937 c 0,0.21772 0.0907,0.30843 0.30843,0.30843 z"
         id="path567" />
      <path
         d="m 232.53434,-174.46743 c 0.21772,0 0.30843,-0.0907 0.30843,-0.30843 v -5.55171 c 0,-0.21772 -0.0907,-0.30843 -0.30843,-0.30843 h -0.34471 c -0.21772,0 -0.30843,0.0907 -0.30843,0.30843 v 5.55171 c 0,0.21772 0.0907,0.30843 0.30843,0.30843 z"
         id="path569" />
      <path
         d="m 238.45647,-174.43114 c 0.16329,0 0.23586,-0.127 0.23586,-0.29936 v -0.23586 c 0,-0.14514 -0.0363,-0.27214 -0.15422,-0.34471 l -0.13607,-0.0907 c -0.1905,-0.127 -0.39914,-0.35378 -0.39914,-0.87993 v -2.54 c 0,-0.52614 0.20864,-0.75292 0.39914,-0.87992 l 0.13607,-0.0907 c 0.11793,-0.0726 0.15422,-0.19957 0.15422,-0.34471 v -0.23586 c 0,-0.17236 -0.0726,-0.29936 -0.23586,-0.29936 h -0.0363 c -0.0998,0 -0.18142,0.0181 -0.254,0.0454 -1.07043,0.43543 -1.12485,1.25186 -1.12485,1.97757 v 2.19529 c 0,0.72571 0.0544,1.54214 1.12485,1.97757 0.0726,0.0272 0.15422,0.0454 0.254,0.0454 z m 1.37886,0 c 0.0998,0 0.18143,-0.0181 0.254,-0.0454 1.07043,-0.43543 1.12485,-1.25186 1.12485,-1.97757 v -2.19529 c 0,-0.72571 -0.0544,-1.54214 -1.12485,-1.97757 -0.0726,-0.0272 -0.15422,-0.0454 -0.254,-0.0454 h -0.0363 c -0.16328,0 -0.23586,0.127 -0.23586,0.29936 v 0.23586 c 0,0.14514 0.0363,0.27214 0.15422,0.34471 l 0.13607,0.0907 c 0.1905,0.127 0.39914,0.35378 0.39914,0.87992 v 2.54 c 0,0.52615 -0.20864,0.75293 -0.39914,0.87993 l -0.13607,0.0907 c -0.11793,0.0726 -0.15422,0.19957 -0.15422,0.34471 v 0.23586 c 0,0.17236 0.0726,0.29936 0.23586,0.29936 z"
         id="path571" />
      <path
         d="m 244.46023,-174.46743 c 0.21772,0 0.30843,-0.0907 0.30843,-0.30843 v -1.86871 c 0,-0.11793 -0.0272,-0.19957 -0.0907,-0.29936 l -0.46265,-0.67129 c -0.0635,-0.0998 -0.14514,-0.13607 -0.21771,-0.13607 -0.0998,0 -0.1905,0.0907 -0.1905,0.254 v 2.72143 c 0,0.21772 0.0907,0.30843 0.30843,0.30843 z m 3.24757,0 c 0.1905,0 0.27215,-0.11793 0.27215,-0.30843 v -0.74386 c 0,-0.127 -0.0454,-0.19957 -0.16329,-0.254 l -0.0907,-0.0454 c -0.0998,-0.0454 -0.17236,-0.0998 -0.23586,-0.19957 l -2.88472,-4.39058 c -0.10885,-0.16328 -0.19957,-0.22678 -0.39007,-0.22678 h -0.13607 c -0.1905,0 -0.27214,0.11793 -0.27214,0.30843 v 0.74385 c 0,0.127 0.0454,0.19958 0.16328,0.254 l 0.10886,0.0544 c 0.0998,0.0454 0.17236,0.0998 0.23586,0.19957 l 2.87564,4.38151 c 0.10886,0.16328 0.19957,0.22678 0.39007,0.22678 z m -0.13607,-3.02986 c 0.0635,0.0998 0.14515,0.13607 0.21772,0.13607 0.0998,0 0.1905,-0.0907 0.1905,-0.254 v -2.71235 c 0,-0.21772 -0.0907,-0.30843 -0.30843,-0.30843 h -0.34472 c -0.21771,0 -0.30842,0.0907 -0.30842,0.30843 v 1.85964 c 0,0.11793 0.0272,0.19957 0.0907,0.29936 z"
         id="path573" />
      <path
         d="m 143.73577,-163.09186 c 0.16328,0 0.23585,-0.127 0.23585,-0.29935 v -0.26307 c 0,-0.14515 -0.0363,-0.27215 -0.15421,-0.34472 l -0.0907,-0.0635 c -0.20864,-0.14514 -0.45357,-0.3175 -0.45357,-0.78921 0,-0.59872 0.42636,-0.80736 0.48986,-0.84365 0.17236,-0.0998 0.20864,-0.19957 0.20864,-0.41728 v -0.19957 c 0,-0.21772 -0.0363,-0.3175 -0.20864,-0.41729 -0.0635,-0.0363 -0.48986,-0.24493 -0.48986,-0.84364 0,-0.46265 0.23586,-0.65315 0.45357,-0.78922 l 0.0907,-0.0635 c 0.11793,-0.0726 0.15421,-0.23585 0.15421,-0.381 v -0.22678 c 0,-0.17236 -0.0726,-0.29936 -0.23585,-0.29936 h -0.0363 c -0.0726,0 -0.14514,0.0181 -0.20864,0.0454 -0.49893,0.19957 -1.17929,0.65314 -1.17929,1.73264 0,0.36286 0.0816,0.79829 0.46264,1.17022 0.0635,0.0544 0.0816,0.0907 0.0816,0.15421 v 0.0272 c 0,0.0635 -0.0181,0.0907 -0.0816,0.15422 -0.381,0.381 -0.46264,0.81643 -0.46264,1.17928 0,1.0795 0.68036,1.53308 1.17929,1.73265 0.0635,0.0272 0.13607,0.0454 0.20864,0.0454 z m 1.37885,0 c 0.0726,0 0.14515,-0.0181 0.20865,-0.0454 0.49893,-0.19957 1.17928,-0.65315 1.17928,-1.73265 0,-0.36285 -0.0816,-0.79828 -0.46264,-1.17928 -0.0635,-0.0635 -0.0816,-0.0907 -0.0816,-0.15422 v -0.0272 c 0,-0.0635 0.0181,-0.0998 0.0816,-0.15421 0.381,-0.37193 0.46264,-0.80736 0.46264,-1.17022 0,-1.0795 -0.68035,-1.53307 -1.17928,-1.73264 -0.0635,-0.0272 -0.13607,-0.0454 -0.20865,-0.0454 h -0.0363 c -0.16329,0 -0.23586,0.127 -0.23586,0.29936 v 0.22678 c 0,0.14515 0.0363,0.30843 0.15422,0.381 l 0.0907,0.0635 c 0.21771,0.13607 0.45357,0.32657 0.45357,0.78922 0,0.59871 -0.42636,0.80736 -0.48986,0.84364 -0.17235,0.0998 -0.20864,0.19957 -0.20864,0.41729 v 0.19957 c 0,0.21771 0.0363,0.3175 0.20864,0.41728 0.0635,0.0363 0.48986,0.24493 0.48986,0.84365 0,0.47171 -0.24493,0.64407 -0.45357,0.78921 l -0.0907,0.0635 c -0.11793,0.0726 -0.15422,0.19957 -0.15422,0.34472 v 0.26307 c 0,0.17235 0.0726,0.29935 0.23586,0.29935 z"
         id="path575" />
      <path
         d="m 152.84196,-163.12814 c 0.21771,0 0.30843,-0.0907 0.30843,-0.30843 v -0.27214 c 0,-0.21772 -0.0907,-0.30843 -0.30843,-0.30843 h -1.74171 c -0.127,0 -0.21772,-0.0363 -0.31751,-0.127 l -0.49892,-0.46264 c -0.16329,-0.14515 -0.32658,-0.14515 -0.48079,0.009 l -0.56243,0.53521 c -0.11793,0.11793 -0.17236,0.23586 -0.17236,0.39007 v 0.23586 c 0,0.21771 0.0907,0.30843 0.30843,0.30843 z m -0.41729,-2.7305 c 0.32658,-0.33564 0.81643,-0.79829 0.81643,-1.69636 0,-1.0795 -0.70757,-1.53307 -1.2065,-1.73264 -0.0635,-0.0272 -0.13607,-0.0454 -0.1905,-0.0454 -0.16328,0 -0.23585,0.127 -0.23585,0.29936 v 0.29028 c 0,0.18143 0.0635,0.26307 0.1905,0.34472 0.21771,0.13607 0.48078,0.35378 0.48078,0.8255 0,0.29935 -0.10886,0.60778 -0.47171,0.97064 l -0.86179,0.87086 c -0.15421,0.15421 -0.15421,0.29028 0.009,0.43543 l 0.24493,0.23585 c 0.16329,0.15422 0.29029,0.15422 0.4445,0 z m -2.667,-1.34257 c 0.21772,0 0.30843,-0.0907 0.30843,-0.30843 0,-0.49893 0.20864,-0.73479 0.39914,-0.85272 l 0.11793,-0.0726 c 0.11793,-0.0635 0.15422,-0.22678 0.15422,-0.37193 v -0.22678 c 0,-0.17236 -0.0726,-0.29936 -0.23586,-0.29936 h -0.0363 c -0.0998,0 -0.18142,0.0272 -0.23585,0.0454 -1.11579,0.40821 -1.12486,1.46957 -1.12486,1.778 0,0.21771 0.0907,0.30843 0.30843,0.30843 z"
         id="path577" />
      <path
         d="m 158.54637,-163.97178 c -0.14515,-0.11793 -0.27215,-0.13608 -0.45357,-0.0907 -0.0544,0.009 -0.12701,0.0181 -0.20865,0.0181 -0.48078,0 -0.97971,-0.29028 -1.05228,-0.83457 -0.0272,-0.21771 -0.127,-0.30843 -0.34472,-0.30843 h -0.32657 c -0.21771,0 -0.33564,0.0907 -0.30843,0.30843 0.0998,0.83457 0.67129,1.78707 2.06829,1.78707 0.32657,0 0.635,-0.0635 0.92528,-0.254 0.14515,-0.0998 0.14515,-0.26307 0,-0.37192 z m 0.90714,-0.49893 c 0.15421,0.11793 0.29936,0.0907 0.39007,-0.0726 0.0907,-0.16329 0.15422,-0.40822 0.15422,-0.68943 0,-0.79829 -0.48986,-1.8415 -1.68729,-2.00479 -0.21771,-0.0272 -0.33564,0.0272 -0.43543,0.21772 l -0.18143,0.33564 c -0.0907,0.16328 -0.0454,0.32657 0.17236,0.32657 0.72571,0 1.15207,0.52614 1.15207,1.143 0,0.0635 0,0.0998 -0.009,0.15421 -0.0272,0.15422 0.0181,0.24493 0.13607,0.34472 z m 0.29936,-4.71715 c -0.0454,-0.11793 -0.127,-0.16328 -0.21772,-0.16328 -0.0544,0 -0.65314,0.0544 -1.36071,0.0544 h -2.01386 c -0.21771,0 -0.30843,0.0907 -0.30843,0.30842 v 2.32229 c 0,0.21772 0.0907,0.30843 0.30843,0.30843 h 0.34471 c 0.21772,0 0.30843,-0.0907 0.30843,-0.30843 v -1.51493 c 0,-0.15421 0.0726,-0.22678 0.22679,-0.22678 h 0.94343 c 0.70757,0 1.31536,-0.0544 1.74171,-0.34472 0.127,-0.0907 0.14515,-0.19957 0.0907,-0.3175 z"
         id="path579" />
      <path
         d="m 164.35056,-163.12814 c 0.21771,0 0.30843,-0.0907 0.3175,-0.30843 0.0181,-0.56243 0.127,-0.89807 0.27214,-1.23371 0.17236,-0.39915 0.39915,-0.83458 0.79829,-1.61472 0.0998,-0.1905 0.0816,-0.33564 -0.0816,-0.47171 l -0.29029,-0.254 c -0.127,-0.11793 -0.30843,-0.0998 -0.39007,0.0635 -0.36286,0.71664 -0.77107,1.53307 -0.89807,1.82335 -0.21772,0.48986 -0.34472,0.97972 -0.37193,1.68729 -0.009,0.21771 0.0816,0.30843 0.29935,0.30843 z m 1.905,-4.52665 c 0.11793,0 0.17236,-0.0454 0.22679,-0.14514 l 0.20864,-0.41728 c 0.0726,-0.13608 0.0998,-0.27215 0.0998,-0.42636 v -0.34472 c 0,-0.21771 -0.0907,-0.30842 -0.30842,-0.30842 h -3.33829 c -0.21772,0 -0.32657,0.0635 -0.36286,0.28121 l -0.0544,0.29029 c -0.0453,0.21771 0.0726,0.3175 0.26307,0.3175 h 2.05015 c 0.127,0 0.22678,0.0363 0.3175,0.11792 l 0.58057,0.52615 c 0.0816,0.0816 0.17236,0.10885 0.29029,0.10885 z"
         id="path581" />
      <path
         d="m 171.11632,-163.12814 c 0.21772,0 0.30843,-0.0907 0.3175,-0.30843 0.0181,-0.56243 0.127,-0.89807 0.27215,-1.23371 0.17235,-0.39915 0.39914,-0.83458 0.79828,-1.61472 0.0998,-0.1905 0.0816,-0.33564 -0.0816,-0.47171 l -0.29029,-0.254 c -0.127,-0.11793 -0.30843,-0.0998 -0.39007,0.0635 -0.36286,0.71664 -0.77107,1.53307 -0.89807,1.82335 -0.21771,0.48986 -0.34471,0.97972 -0.37193,1.68729 -0.009,0.21771 0.0816,0.30843 0.29936,0.30843 z m 1.905,-4.52665 c 0.11793,0 0.17236,-0.0454 0.22679,-0.14514 l 0.20864,-0.41728 c 0.0726,-0.13608 0.0998,-0.27215 0.0998,-0.42636 v -0.34472 c 0,-0.21771 -0.0907,-0.30842 -0.30843,-0.30842 h -3.33829 c -0.21771,0 -0.32657,0.0635 -0.36285,0.28121 l -0.0544,0.29029 c -0.0454,0.21771 0.0726,0.3175 0.26307,0.3175 h 2.05014 c 0.127,0 0.22679,0.0363 0.3175,0.11792 l 0.58057,0.52615 c 0.0816,0.0816 0.17236,0.10885 0.29029,0.10885 z"
         id="path583" />
      <path
         d="m 179.92316,-165.76793 c 0.21772,0 0.30843,-0.0907 0.30843,-0.30843 v -0.27214 c 0,-0.21771 -0.0907,-0.30843 -0.30843,-0.30843 h -3.37457 c -0.21772,0 -0.30843,0.0907 -0.30843,0.30843 v 0.27214 c 0,0.21772 0.0907,0.30843 0.30843,0.30843 z"
         id="path585" />
      <path
         d="m 186.18092,-163.12814 c 0.21772,0 0.30843,-0.0907 0.30843,-0.30843 v -1.19743 c 0,-0.127 0.0363,-0.21771 0.14515,-0.28121 l 0.16328,-0.0907 c 0.10886,-0.0635 0.14514,-0.16328 0.14514,-0.29028 v -0.18143 c 0,-0.127 -0.0363,-0.22679 -0.14514,-0.29029 l -0.16328,-0.0907 c -0.10886,-0.0635 -0.14515,-0.15422 -0.14515,-0.28122 v -2.84843 c 0,-0.21771 -0.0907,-0.30842 -0.30843,-0.30842 h -0.23585 c -0.1905,0 -0.32658,0.0453 -0.43543,0.19957 l -0.62593,0.762 c -0.14514,0.16328 -0.13607,0.36285 0.0272,0.48985 l 0.40822,0.3175 c 0.15421,0.11793 0.20864,0.26308 0.20864,0.45358 v 3.63764 c 0,0.21771 0.0907,0.30843 0.30843,0.30843 z m -1.83243,-1.75079 c 0.21772,0 0.30843,-0.0907 0.30843,-0.30843 v -0.30842 c 0,-0.0998 -0.0363,-0.20865 -0.16328,-0.23586 l -0.0998,-0.0181 c -0.14514,-0.0272 -0.16328,-0.0907 -0.16328,-0.1905 0,-0.0635 0.0363,-0.13608 0.10885,-0.22679 l 0.254,-0.3175 c 0.11793,-0.15421 0.11793,-0.26307 -0.0272,-0.39007 l -0.3175,-0.26307 c -0.14514,-0.127 -0.27214,-0.127 -0.39007,0.0181 l -1.00693,1.21557 c -0.0816,0.0998 -0.11793,0.22679 -0.11793,0.35379 v 0.36285 c 0,0.21772 0.0907,0.30843 0.30843,0.30843 z"
         id="path587" />
      <path
         d="m 191.09612,-165.93121 c 0.16328,0 0.23586,-0.127 0.23586,-0.29936 v -0.26307 c 0,-0.14514 -0.0363,-0.26307 -0.15422,-0.34472 l -0.0907,-0.0635 c -0.1905,-0.127 -0.39915,-0.37193 -0.39915,-0.73478 0,-0.35379 0.20865,-0.59872 0.39915,-0.72572 l 0.0907,-0.0635 c 0.11793,-0.0816 0.15422,-0.19957 0.15422,-0.34471 v -0.26307 c 0,-0.17236 -0.0726,-0.29936 -0.23586,-0.29936 h -0.0363 c -0.0816,0 -0.13607,0.0181 -0.20864,0.0454 -0.89807,0.32657 -1.12486,1.10671 -1.12486,1.651 0,0.55336 0.22679,1.3335 1.12486,1.66007 0.0726,0.0272 0.15421,0.0454 0.20864,0.0454 z m 0,2.83935 c 0.16328,0 0.23586,-0.127 0.23586,-0.29935 v -0.26307 c 0,-0.14515 -0.0363,-0.26308 -0.15422,-0.34472 l -0.0907,-0.0635 c -0.1905,-0.127 -0.36286,-0.35378 -0.39007,-0.67128 -0.0181,-0.21772 -0.0907,-0.30843 -0.30843,-0.30843 h -0.35379 c -0.21771,0 -0.30843,0.0907 -0.30843,0.30843 0,0.254 0.0544,1.17021 1.12486,1.59657 0.0726,0.0272 0.10886,0.0454 0.20864,0.0454 z m 1.37886,0 c 0.0998,0 0.13607,-0.0181 0.20864,-0.0454 1.07043,-0.43543 1.12486,-1.25186 1.12486,-1.97757 v -2.19529 c 0,-0.72572 -0.0544,-1.54214 -1.12486,-1.97757 -0.0726,-0.0272 -0.10886,-0.0454 -0.20864,-0.0454 h -0.0363 c -0.16329,0 -0.23586,0.127 -0.23586,0.29936 v 0.26307 c 0,0.14514 0.0363,0.27214 0.15422,0.34471 l 0.0907,0.0635 c 0.1905,0.127 0.39914,0.35379 0.39914,0.87993 v 2.54 c 0,0.52615 -0.20864,0.75293 -0.39914,0.87993 l -0.0907,0.0635 c -0.11793,0.0726 -0.15422,0.23586 -0.15422,0.381 v 0.22679 c 0,0.17235 0.0726,0.29935 0.23586,0.29935 z"
         id="path589" />
      <path
         d="m 197.86188,-165.93121 c 0.16329,0 0.23586,-0.127 0.23586,-0.29936 v -0.26307 c 0,-0.14514 -0.0363,-0.26307 -0.15422,-0.34472 l -0.0907,-0.0635 c -0.1905,-0.127 -0.39914,-0.37193 -0.39914,-0.73478 0,-0.35379 0.20864,-0.59872 0.39914,-0.72572 l 0.0907,-0.0635 c 0.11793,-0.0816 0.15422,-0.19957 0.15422,-0.34471 v -0.26307 c 0,-0.17236 -0.0726,-0.29936 -0.23586,-0.29936 h -0.0363 c -0.0816,0 -0.13607,0.0181 -0.20864,0.0454 -0.89807,0.32657 -1.12486,1.10671 -1.12486,1.651 0,0.55336 0.22679,1.3335 1.12486,1.66007 0.0726,0.0272 0.15422,0.0454 0.20864,0.0454 z m 0,2.83935 c 0.16329,0 0.23586,-0.127 0.23586,-0.29935 v -0.26307 c 0,-0.14515 -0.0363,-0.26308 -0.15422,-0.34472 l -0.0907,-0.0635 c -0.1905,-0.127 -0.36286,-0.35378 -0.39007,-0.67128 -0.0181,-0.21772 -0.0907,-0.30843 -0.30843,-0.30843 h -0.35379 c -0.21771,0 -0.30843,0.0907 -0.30843,0.30843 0,0.254 0.0544,1.17021 1.12486,1.59657 0.0726,0.0272 0.10886,0.0454 0.20864,0.0454 z m 1.37886,0 c 0.0998,0 0.13607,-0.0181 0.20864,-0.0454 1.07043,-0.43543 1.12486,-1.25186 1.12486,-1.97757 v -2.19529 c 0,-0.72572 -0.0544,-1.54214 -1.12486,-1.97757 -0.0726,-0.0272 -0.10886,-0.0454 -0.20864,-0.0454 h -0.0363 c -0.16328,0 -0.23586,0.127 -0.23586,0.29936 v 0.26307 c 0,0.14514 0.0363,0.27214 0.15422,0.34471 l 0.0907,0.0635 c 0.1905,0.127 0.39915,0.35379 0.39915,0.87993 v 2.54 c 0,0.52615 -0.20865,0.75293 -0.39915,0.87993 l -0.0907,0.0635 c -0.11793,0.0726 -0.15422,0.23586 -0.15422,0.381 v 0.22679 c 0,0.17235 0.0726,0.29935 0.23586,0.29935 z"
         id="path591" />
      <path
         d="m 204.94515,-163.12814 c 0.21771,0 0.30843,-0.0907 0.3175,-0.30843 0.0181,-0.56243 0.127,-0.89807 0.27214,-1.23371 0.17236,-0.39915 0.39914,-0.83458 0.79829,-1.61472 0.0998,-0.1905 0.0816,-0.33564 -0.0816,-0.47171 l -0.29028,-0.254 c -0.127,-0.11793 -0.30843,-0.0998 -0.39007,0.0635 -0.36286,0.71664 -0.77108,1.53307 -0.89808,1.82335 -0.21771,0.48986 -0.34471,0.97972 -0.37193,1.68729 -0.009,0.21771 0.0816,0.30843 0.29936,0.30843 z m 1.905,-4.52665 c 0.11793,0 0.17235,-0.0454 0.22678,-0.14514 l 0.20865,-0.41728 c 0.0726,-0.13608 0.0998,-0.27215 0.0998,-0.42636 v -0.34472 c 0,-0.21771 -0.0907,-0.30842 -0.30843,-0.30842 h -3.33828 c -0.21772,0 -0.32658,0.0635 -0.36286,0.28121 l -0.0544,0.29029 c -0.0454,0.21771 0.0726,0.3175 0.26307,0.3175 h 2.05015 c 0.127,0 0.22678,0.0363 0.3175,0.11792 l 0.58057,0.52615 c 0.0816,0.0816 0.17235,0.10885 0.29028,0.10885 z"
         id="path593" />
      <path
         d="m 211.34806,-163.09186 c 0.16328,0 0.23585,-0.127 0.23585,-0.29935 v -0.26307 c 0,-0.14515 -0.0363,-0.27215 -0.15421,-0.34472 l -0.0907,-0.0635 c -0.1905,-0.127 -0.39914,-0.35378 -0.39914,-0.87993 v -2.54 c 0,-0.52614 0.20864,-0.75293 0.39914,-0.87993 l 0.0907,-0.0635 c 0.11793,-0.0726 0.15421,-0.23585 0.15421,-0.381 v -0.22678 c 0,-0.17236 -0.0726,-0.29936 -0.23585,-0.29936 h -0.0363 c -0.0998,0 -0.13607,0.0181 -0.20864,0.0454 -1.07043,0.43543 -1.12486,1.25185 -1.12486,1.97757 v 2.19529 c 0,0.72571 0.0544,1.54214 1.12486,1.97757 0.0726,0.0272 0.10885,0.0454 0.20864,0.0454 z m 1.46957,0 c 0.0998,0 0.13607,-0.0181 0.20864,-0.0454 1.07043,-0.43543 1.12486,-1.25186 1.12486,-1.97757 v -2.19529 c 0,-0.72572 -0.0544,-1.54214 -1.12486,-1.97757 -0.0726,-0.0272 -0.10886,-0.0454 -0.20864,-0.0454 h -0.0363 c -0.16328,0 -0.23586,0.127 -0.23586,0.29936 v 0.26307 c 0,0.14514 0.0363,0.27214 0.15422,0.34471 l 0.0907,0.0635 c 0.1905,0.127 0.39915,0.35379 0.39915,0.87993 v 2.54 c 0,0.52615 -0.20865,0.75293 -0.39915,0.87993 l -0.0907,0.0635 c -0.11793,0.0726 -0.15422,0.19957 -0.15422,0.34472 v 0.26307 c 0,0.17235 0.0726,0.29935 0.23586,0.29935 z"
         id="path595" />
      <path
         d="m 218.47667,-163.12814 c 0.21772,0 0.30843,-0.0907 0.31751,-0.30843 0.0181,-0.56243 0.127,-0.89807 0.27214,-1.23371 0.17236,-0.39915 0.39914,-0.83458 0.79828,-1.61472 0.0998,-0.1905 0.0816,-0.33564 -0.0816,-0.47171 l -0.29028,-0.254 c -0.127,-0.11793 -0.30843,-0.0998 -0.39008,0.0635 -0.36285,0.71664 -0.77107,1.53307 -0.89807,1.82335 -0.21771,0.48986 -0.34471,0.97972 -0.37193,1.68729 -0.009,0.21771 0.0816,0.30843 0.29936,0.30843 z m 1.90501,-4.52665 c 0.11792,0 0.17235,-0.0454 0.22678,-0.14514 l 0.20864,-0.41728 c 0.0726,-0.13608 0.0998,-0.27215 0.0998,-0.42636 v -0.34472 c 0,-0.21771 -0.0907,-0.30842 -0.30843,-0.30842 h -3.33829 c -0.21771,0 -0.32657,0.0635 -0.36285,0.28121 l -0.0544,0.29029 c -0.0454,0.21771 0.0726,0.3175 0.26307,0.3175 h 2.05014 c 0.127,0 0.22679,0.0363 0.3175,0.11792 l 0.58058,0.52615 c 0.0816,0.0816 0.17235,0.10885 0.29028,0.10885 z"
         id="path597" />
      <path
         d="m 227.28351,-165.76793 c 0.21771,0 0.30843,-0.0907 0.30843,-0.30843 v -0.27214 c 0,-0.21771 -0.0907,-0.30843 -0.30843,-0.30843 h -3.37457 c -0.21772,0 -0.30843,0.0907 -0.30843,0.30843 v 0.27214 c 0,0.21772 0.0907,0.30843 0.30843,0.30843 z"
         id="path599" />
      <path
         d="m 232.67041,-163.12814 c 0.21772,0 0.30843,-0.0907 0.30843,-0.30843 v -5.55172 c 0,-0.21771 -0.0907,-0.30842 -0.30843,-0.30842 h -0.34471 c -0.21771,0 -0.33564,0.0816 -0.43543,0.28121 l -0.52614,1.08857 c -0.0363,0.0726 -0.0544,0.15422 -0.0544,0.21772 0,0.10885 0.0635,0.22678 0.1905,0.28121 l 0.24493,0.10886 c 0.19957,0.0816 0.27214,0.20864 0.27214,0.42636 v 3.45621 c 0,0.21771 0.0907,0.30843 0.30843,0.30843 z"
         id="path601" />
      <path
         d="m 238.41111,-163.09186 c 0.16329,0 0.23586,-0.127 0.23586,-0.29935 v -0.26307 c 0,-0.14515 -0.0363,-0.27215 -0.15421,-0.34472 l -0.0907,-0.0635 c -0.1905,-0.127 -0.39914,-0.35378 -0.39914,-0.87993 v -2.54 c 0,-0.52614 0.20864,-0.75293 0.39914,-0.87993 l 0.0907,-0.0635 c 0.11792,-0.0726 0.15421,-0.23585 0.15421,-0.381 v -0.22678 c 0,-0.17236 -0.0726,-0.29936 -0.23586,-0.29936 h -0.0363 c -0.0998,0 -0.13607,0.0181 -0.20865,0.0454 -1.07043,0.43543 -1.12485,1.25185 -1.12485,1.97757 v 2.19529 c 0,0.72571 0.0544,1.54214 1.12485,1.97757 0.0726,0.0272 0.10886,0.0454 0.20865,0.0454 z m 1.46957,0 c 0.0998,0 0.13608,-0.0181 0.20865,-0.0454 1.07043,-0.43543 1.12485,-1.25186 1.12485,-1.97757 v -2.19529 c 0,-0.72572 -0.0544,-1.54214 -1.12485,-1.97757 -0.0726,-0.0272 -0.10886,-0.0454 -0.20865,-0.0454 h -0.0363 c -0.16329,0 -0.23586,0.127 -0.23586,0.29936 v 0.26307 c 0,0.14514 0.0363,0.27214 0.15422,0.34471 l 0.0907,0.0635 c 0.1905,0.127 0.39914,0.35379 0.39914,0.87993 v 2.54 c 0,0.52615 -0.20864,0.75293 -0.39914,0.87993 l -0.0907,0.0635 c -0.11793,0.0726 -0.15422,0.19957 -0.15422,0.34472 v 0.26307 c 0,0.17235 0.0726,0.29935 0.23586,0.29935 z"
         id="path603" />
      <path
         d="m 245.17687,-163.09186 c 0.16329,0 0.23586,-0.127 0.23586,-0.29935 v -0.26307 c 0,-0.14515 -0.0363,-0.27215 -0.15421,-0.34472 l -0.0907,-0.0635 c -0.1905,-0.127 -0.39914,-0.35378 -0.39914,-0.87993 v -2.54 c 0,-0.52614 0.20864,-0.75293 0.39914,-0.87993 l 0.0907,-0.0635 c 0.11793,-0.0726 0.15421,-0.23585 0.15421,-0.381 v -0.22678 c 0,-0.17236 -0.0726,-0.29936 -0.23586,-0.29936 h -0.0363 c -0.0998,0 -0.13607,0.0181 -0.20864,0.0454 -1.07043,0.43543 -1.12486,1.25185 -1.12486,1.97757 v 2.19529 c 0,0.72571 0.0544,1.54214 1.12486,1.97757 0.0726,0.0272 0.10885,0.0454 0.20864,0.0454 z m 1.46958,0 c 0.0998,0 0.13607,-0.0181 0.20864,-0.0454 1.07043,-0.43543 1.12486,-1.25186 1.12486,-1.97757 v -2.19529 c 0,-0.72572 -0.0544,-1.54214 -1.12486,-1.97757 -0.0726,-0.0272 -0.10886,-0.0454 -0.20864,-0.0454 h -0.0363 c -0.16329,0 -0.23586,0.127 -0.23586,0.29936 v 0.26307 c 0,0.14514 0.0363,0.27214 0.15422,0.34471 l 0.0907,0.0635 c 0.1905,0.127 0.39915,0.35379 0.39915,0.87993 v 2.54 c 0,0.52615 -0.20865,0.75293 -0.39915,0.87993 l -0.0907,0.0635 c -0.11793,0.0726 -0.15422,0.19957 -0.15422,0.34472 v 0.26307 c 0,0.17235 0.0726,0.29935 0.23586,0.29935 z"
         id="path605" />
    </g>
  </g>
</svg>
