<?xml version="1.0" encoding="UTF-8" standalone="no"?>
<!-- Created with Inkscape (http://www.inkscape.org/) -->

<svg
   width="81.130638mm"
   height="25.201294mm"
   viewBox="0 0 81.130638 25.201294"
   version="1.1"
   id="svg5"
   inkscape:version="1.2.1 (9c6d41e, 2022-07-14)"
   sodipodi:docname="phoenix.svg"
   xmlns:inkscape="http://www.inkscape.org/namespaces/inkscape"
   xmlns:sodipodi="http://sodipodi.sourceforge.net/DTD/sodipodi-0.dtd"
   xmlns="http://www.w3.org/2000/svg"
   xmlns:svg="http://www.w3.org/2000/svg">
  <sodipodi:namedview
     id="namedview7"
     pagecolor="#ffffff"
     bordercolor="#666666"
     borderopacity="1.0"
     inkscape:showpageshadow="2"
     inkscape:pageopacity="0.0"
     inkscape:pagecheckerboard="0"
     inkscape:deskcolor="#d1d1d1"
     inkscape:document-units="mm"
     showgrid="false"
     inkscape:zoom="1.0289025"
     inkscape:cx="353.28905"
     inkscape:cy="406.74407"
     inkscape:window-width="1720"
     inkscape:window-height="1313"
     inkscape:window-x="0"
     inkscape:window-y="25"
     inkscape:window-maximized="0"
     inkscape:current-layer="layer1" />
  <defs
     id="defs2" />
  <g
     inkscape:label="Layer 1"
     inkscape:groupmode="layer"
     id="layer1"
     transform="translate(-21.319348,-169.37696)">
    <g
       id="g556"
       transform="translate(18.54699,-43.27631)">
      <g
         aria-label="control section"
         id="text508"
         style="font-size:9.15698px;font-family:'Vtg Stencil Marsh';-inkscape-font-specification:'Vtg Stencil Marsh, Normal';stroke-width:0.143078">
        <path
           d="m 6.6732322,214.80522 c 0.2197675,0 0.3113373,-0.0916 0.3113373,-0.31134 0,-0.5311 -0.1190408,-1.42849 -1.1354655,-1.79477 -0.073256,-0.0275 -0.1556686,-0.0458 -0.2563954,-0.0458 h -0.036628 c -0.1648257,0 -0.2380815,0.1282 -0.2380815,0.30218 v 0.23808 c 0,0.14651 0.036628,0.27471 0.1556686,0.34797 l 0.1373547,0.0916 c 0.1922966,0.12819 0.4029071,0.35712 0.4029071,0.86075 0,0.21977 0.09157,0.31134 0.3113373,0.31134 z m -1.0805236,4.14811 c 0.1007268,0 0.1831396,-0.0183 0.2563954,-0.0458 1.1354655,-0.43038 1.1354655,-1.47428 1.1354655,-1.79477 0,-0.21977 -0.09157,-0.31134 -0.3113373,-0.31134 H 6.3252669 c -0.2197675,0 -0.3113373,0.0916 -0.3113373,0.31134 0,0.50363 -0.2106105,0.73256 -0.4029071,0.86075 l -0.1373547,0.0916 c -0.1190407,0.0733 -0.1556686,0.20146 -0.1556686,0.34797 v 0.23808 c 0,0.17398 0.073256,0.30218 0.2380815,0.30218 z m -1.3918609,0 c 0.1648256,0 0.2380815,-0.1282 0.2380815,-0.30218 v -0.23808 c 0,-0.14651 -0.036628,-0.27471 -0.1556687,-0.34797 l -0.1373547,-0.0916 c -0.1922966,-0.12819 -0.4029071,-0.35712 -0.4029071,-0.88822 v -2.56396 c 0,-0.5311 0.2106105,-0.76003 0.4029071,-0.88822 l 0.1373547,-0.0916 c 0.1190407,-0.0733 0.1556687,-0.20146 0.1556687,-0.34797 v -0.23808 c 0,-0.17398 -0.073256,-0.30218 -0.2380815,-0.30218 h -0.036628 c -0.1007268,0 -0.1831396,0.0183 -0.2563955,0.0458 -1.0805235,0.43954 -1.1354654,1.26367 -1.1354654,1.99622 v 2.21599 c 0,0.73256 0.054942,1.55669 1.1354654,1.99623 0.073256,0.0275 0.1556687,0.0458 0.2563955,0.0458 z"
           id="path2850" />
        <path
           d="m 9.6950212,218.95333 c 0.1648256,0 0.2380815,-0.1282 0.2380815,-0.30218 v -0.23808 c 0,-0.14651 -0.036628,-0.27471 -0.1556687,-0.34797 l -0.1373547,-0.0916 c -0.1922965,-0.12819 -0.4029071,-0.35712 -0.4029071,-0.88822 v -2.56396 c 0,-0.5311 0.2106106,-0.76003 0.4029071,-0.88822 l 0.1373547,-0.0916 c 0.1190408,-0.0733 0.1556687,-0.20146 0.1556687,-0.34797 v -0.23808 c 0,-0.17398 -0.073256,-0.30218 -0.2380815,-0.30218 h -0.036628 c -0.1007268,0 -0.1831396,0.0183 -0.2563954,0.0458 -1.0805236,0.43954 -1.1354655,1.26367 -1.1354655,1.99622 v 2.21599 c 0,0.73256 0.054942,1.55669 1.1354655,1.99623 0.073256,0.0275 0.1556686,0.0458 0.2563954,0.0458 z m 1.3918608,0 c 0.100727,0 0.18314,-0.0183 0.256396,-0.0458 1.080523,-0.43954 1.135465,-1.26367 1.135465,-1.99623 v -2.21599 c 0,-0.73255 -0.05494,-1.55668 -1.135465,-1.99622 -0.07326,-0.0275 -0.155669,-0.0458 -0.256396,-0.0458 h -0.03663 c -0.164825,0 -0.238081,0.1282 -0.238081,0.30218 v 0.23808 c 0,0.14651 0.03663,0.27471 0.155668,0.34797 l 0.137355,0.0916 c 0.192297,0.12819 0.402907,0.35712 0.402907,0.88822 v 2.56396 c 0,0.5311 -0.21061,0.76003 -0.402907,0.88822 l -0.137355,0.0916 c -0.11904,0.0733 -0.155668,0.20146 -0.155668,0.34797 v 0.23808 c 0,0.17398 0.07326,0.30218 0.238081,0.30218 z"
           id="path2847" />
        <path
           d="m 14.420008,218.9167 c 0.219768,0 0.311338,-0.0916 0.311338,-0.31134 v -1.88633 c 0,-0.11904 -0.02747,-0.20146 -0.09157,-0.30218 l -0.467006,-0.67762 c -0.0641,-0.10073 -0.146512,-0.13735 -0.219768,-0.13735 -0.100726,0 -0.192296,0.0916 -0.192296,0.25639 v 2.74709 c 0,0.21977 0.09157,0.31134 0.311337,0.31134 z m 3.278199,0 c 0.192297,0 0.27471,-0.11904 0.27471,-0.31134 v -0.75087 c 0,-0.1282 -0.04578,-0.20145 -0.164826,-0.25639 l -0.09157,-0.0458 c -0.100727,-0.0458 -0.173983,-0.10072 -0.238081,-0.20145 l -2.91192,-4.43198 c -0.109884,-0.16482 -0.201453,-0.22892 -0.39375,-0.22892 h -0.137355 c -0.192296,0 -0.274709,0.11904 -0.274709,0.31133 v 0.75088 c 0,0.12819 0.04578,0.20145 0.164826,0.25639 l 0.109883,0.0549 c 0.100727,0.0458 0.173983,0.10073 0.238082,0.20146 l 2.902762,4.42282 c 0.109884,0.16482 0.201454,0.22892 0.39375,0.22892 z m -0.137355,-3.05843 c 0.0641,0.10073 0.146512,0.13736 0.219768,0.13736 0.100727,0 0.192297,-0.0916 0.192297,-0.2564 v -2.73794 c 0,-0.21976 -0.09157,-0.31133 -0.311338,-0.31133 h -0.347965 c -0.219768,0 -0.311337,0.0916 -0.311337,0.31133 v 1.87718 c 0,0.11905 0.02747,0.20146 0.09157,0.30218 z"
           id="path2844" />
        <path
           d="m 23.155753,213.58734 c 0.219768,0 0.311338,-0.0916 0.311338,-0.31134 v -0.27471 c 0,-0.21976 -0.09157,-0.31133 -0.311338,-0.31133 h -3.589536 c -0.219767,0 -0.311337,0.0916 -0.311337,0.31133 v 0.27471 c 0,0.21977 0.09157,0.31134 0.311337,0.31134 z m -1.620785,5.32936 c 0.219767,0 0.311337,-0.0916 0.311337,-0.31134 v -3.97412 c 0,-0.21977 -0.09157,-0.31134 -0.311337,-0.31134 h -0.347965 c -0.219768,0 -0.311338,0.0916 -0.311338,0.31134 v 3.97412 c 0,0.21977 0.09157,0.31134 0.311338,0.31134 z"
           id="path2841" />
        <path
           d="m 28.814752,218.9167 c 0.155669,0 0.238081,-0.0641 0.238081,-0.16482 0,-0.0458 -0.0092,-0.0916 -0.03663,-0.14652 l -1.117151,-2.18851 c -0.02747,-0.0641 -0.03663,-0.10073 -0.03663,-0.16483 v -0.0275 c 0,-0.0549 0.02747,-0.10073 0.08241,-0.1282 0.494477,-0.19229 1.053052,-0.5952 1.053052,-1.47427 v -0.24724 c 0,-0.87907 -0.567732,-1.68488 -1.831395,-1.68488 H 26.9101 c -0.219767,0 -0.311337,0.0916 -0.311337,0.31133 v 0.27471 c 0,0.21977 0.09157,0.31134 0.311337,0.31134 h 0.256396 c 0.457849,0 0.824128,0.27471 0.824128,0.7875 v 0.24724 c 0,0.51279 -0.366279,0.7875 -0.824128,0.7875 H 26.9101 c -0.219767,0 -0.311337,0.0916 -0.311337,0.31134 v 0.20145 c 0,0.11904 0.04578,0.21977 0.08241,0.29302 l 1.27282,2.40829 c 0.100727,0.1923 0.201453,0.29302 0.421221,0.29302 z m -3.406396,0 c 0.219767,0 0.311337,-0.0916 0.311337,-0.31134 v -5.60407 c 0,-0.21976 -0.09157,-0.31133 -0.311337,-0.31133 H 25.06039 c -0.219767,0 -0.311337,0.0916 -0.311337,0.31133 v 5.60407 c 0,0.21977 0.09157,0.31134 0.311337,0.31134 z"
           id="path2838" />
        <path
           d="m 31.671715,218.95333 c 0.164825,0 0.238081,-0.1282 0.238081,-0.30218 v -0.23808 c 0,-0.14651 -0.03663,-0.27471 -0.155668,-0.34797 l -0.137355,-0.0916 c -0.192297,-0.12819 -0.402907,-0.35712 -0.402907,-0.88822 v -2.56396 c 0,-0.5311 0.21061,-0.76003 0.402907,-0.88822 l 0.137355,-0.0916 c 0.11904,-0.0733 0.155668,-0.20146 0.155668,-0.34797 v -0.23808 c 0,-0.17398 -0.07326,-0.30218 -0.238081,-0.30218 h -0.03663 c -0.100727,0 -0.18314,0.0183 -0.256396,0.0458 -1.080523,0.43954 -1.135465,1.26367 -1.135465,1.99622 v 2.21599 c 0,0.73256 0.05494,1.55669 1.135465,1.99623 0.07326,0.0275 0.155669,0.0458 0.256396,0.0458 z m 1.391861,0 c 0.100727,0 0.183139,-0.0183 0.256395,-0.0458 1.080524,-0.43954 1.135466,-1.26367 1.135466,-1.99623 v -2.21599 c 0,-0.73255 -0.05494,-1.55668 -1.135466,-1.99622 -0.07326,-0.0275 -0.155668,-0.0458 -0.256395,-0.0458 h -0.03663 c -0.164826,0 -0.238082,0.1282 -0.238082,0.30218 v 0.23808 c 0,0.14651 0.03663,0.27471 0.155669,0.34797 l 0.137355,0.0916 c 0.192296,0.12819 0.402907,0.35712 0.402907,0.88822 v 2.56396 c 0,0.5311 -0.210611,0.76003 -0.402907,0.88822 l -0.137355,0.0916 c -0.119041,0.0733 -0.155669,0.20146 -0.155669,0.34797 v 0.23808 c 0,0.17398 0.07326,0.30218 0.238082,0.30218 z"
           id="path2835" />
        <path
           d="m 36.396704,218.9167 c 0.219767,0 0.311337,-0.0916 0.311337,-0.31134 v -5.60407 c 0,-0.21976 -0.09157,-0.31133 -0.311337,-0.31133 h -0.347966 c -0.219767,0 -0.311337,0.0916 -0.311337,0.31133 v 5.60407 c 0,0.21977 0.09157,0.31134 0.311337,0.31134 z m 3.24157,0 c 0.219768,0 0.311338,-0.0916 0.311338,-0.31134 v -0.2747 c 0,-0.21977 -0.09157,-0.31134 -0.311338,-0.31134 h -1.739826 c -0.219767,0 -0.311337,0.0916 -0.311337,0.31134 v 0.2747 c 0,0.21977 0.09157,0.31134 0.311337,0.31134 z"
           id="path2832" />
        <path
           d="m 48.154236,218.95333 c 0.164826,0 0.238081,-0.1282 0.238081,-0.30218 v -0.22892 c 0,-0.14652 -0.03663,-0.26556 -0.164825,-0.33881 l -0.18314,-0.10989 c -0.183139,-0.10988 -0.311337,-0.29302 -0.338808,-0.50363 -0.02747,-0.1923 -0.100727,-0.27471 -0.293023,-0.27471 h -0.412065 c -0.192296,0 -0.274709,0.0824 -0.274709,0.27471 0,0.63183 0.604361,1.48343 1.309448,1.48343 z m 1.45596,0 c 0.576889,0 1.36439,-0.68677 1.36439,-1.7673 0,-0.86075 -0.494477,-1.3186 -1.272821,-1.65741 l -1.39186,-0.60436 c -0.457849,-0.20145 -0.613518,-0.43038 -0.613518,-0.79666 0,-0.30218 0.146512,-0.43038 0.375436,-0.54026 l 0.155669,-0.0733 c 0.128197,-0.0458 0.164825,-0.18314 0.164825,-0.32965 v -0.22892 c 0,-0.17398 -0.0641,-0.29302 -0.228924,-0.30218 h -0.09157 c -0.402907,0 -1.346076,0.39375 -1.346076,1.55668 0,0.84245 0.467006,1.29114 1.043896,1.53838 l 1.492587,0.65014 c 0.503634,0.21977 0.741716,0.46701 0.741716,0.87907 0,0.35713 -0.18314,0.56774 -0.402907,0.71425 l -0.164826,0.10988 c -0.119041,0.0733 -0.164826,0.17398 -0.164826,0.3205 v 0.22892 c 0,0.17398 0.07326,0.30218 0.238082,0.30218 z m 1.053052,-4.50523 c 0.192297,0 0.27471,-0.0824 0.27471,-0.27471 0,-0.58605 -0.531105,-1.52006 -1.336919,-1.52006 h -0.09157 c -0.164826,0 -0.238082,0.1282 -0.238082,0.30218 v 0.22892 c 0,0.14651 0.02747,0.28387 0.155669,0.34797 l 0.173983,0.10073 c 0.137354,0.0733 0.30218,0.28386 0.347965,0.54026 0.03663,0.19229 0.100727,0.27471 0.293023,0.27471 z"
           id="path2829" />
        <path
           d="m 52.879225,218.9167 c 0.219767,0 0.311337,-0.0916 0.311337,-0.31134 v -2.07863 c 0,-0.1923 0.08241,-0.27471 0.274709,-0.27471 h 0.567733 c 0.219768,0 0.311337,-0.0916 0.311337,-0.31134 v -0.27471 c 0,-0.21976 -0.09157,-0.31133 -0.311337,-0.31133 h -0.567733 c -0.192296,0 -0.274709,-0.0824 -0.274709,-0.27471 v -2.07864 c 0,-0.21976 -0.09157,-0.31133 -0.311337,-0.31133 h -0.347966 c -0.219767,0 -0.311337,0.0916 -0.311337,0.31133 v 5.60407 c 0,0.21977 0.09157,0.31134 0.311337,0.31134 z m 2.728779,0 c 0.219768,0 0.311338,-0.0916 0.311338,-0.31134 v -0.2747 c 0,-0.21977 -0.09157,-0.31134 -0.311338,-0.31134 h -1.227035 c -0.219767,0 -0.311337,0.0916 -0.311337,0.31134 v 0.2747 c 0,0.21977 0.09157,0.31134 0.311337,0.31134 z m 0,-5.32936 c 0.219768,0 0.311338,-0.0916 0.311338,-0.31134 v -0.27471 c 0,-0.21976 -0.09157,-0.31133 -0.311338,-0.31133 h -1.227035 c -0.219767,0 -0.311337,0.0916 -0.311337,0.31133 v 0.27471 c 0,0.21977 0.09157,0.31134 0.311337,0.31134 z"
           id="path2826" />
        <path
           d="m 61.614966,214.80522 c 0.219768,0 0.311338,-0.0916 0.311338,-0.31134 0,-0.5311 -0.119041,-1.42849 -1.135466,-1.79477 -0.07326,-0.0275 -0.155668,-0.0458 -0.256395,-0.0458 h -0.03663 c -0.164826,0 -0.238081,0.1282 -0.238081,0.30218 v 0.23808 c 0,0.14651 0.03663,0.27471 0.155668,0.34797 l 0.137355,0.0916 c 0.192296,0.12819 0.402907,0.35712 0.402907,0.86075 0,0.21977 0.09157,0.31134 0.311337,0.31134 z m -1.080523,4.14811 c 0.100727,0 0.183139,-0.0183 0.256395,-0.0458 1.135466,-0.43038 1.135466,-1.47428 1.135466,-1.79477 0,-0.21977 -0.09157,-0.31134 -0.311338,-0.31134 h -0.347965 c -0.219767,0 -0.311337,0.0916 -0.311337,0.31134 0,0.50363 -0.210611,0.73256 -0.402907,0.86075 l -0.137355,0.0916 c -0.119041,0.0733 -0.155668,0.20146 -0.155668,0.34797 v 0.23808 c 0,0.17398 0.07325,0.30218 0.238081,0.30218 z m -1.391861,0 c 0.164826,0 0.238081,-0.1282 0.238081,-0.30218 v -0.23808 c 0,-0.14651 -0.03663,-0.27471 -0.155668,-0.34797 l -0.137355,-0.0916 c -0.192296,-0.12819 -0.402907,-0.35712 -0.402907,-0.88822 v -2.56396 c 0,-0.5311 0.210611,-0.76003 0.402907,-0.88822 l 0.137355,-0.0916 c 0.119041,-0.0733 0.155668,-0.20146 0.155668,-0.34797 v -0.23808 c 0,-0.17398 -0.07325,-0.30218 -0.238081,-0.30218 h -0.03663 c -0.100727,0 -0.18314,0.0183 -0.256395,0.0458 -1.080524,0.43954 -1.135466,1.26367 -1.135466,1.99622 v 2.21599 c 0,0.73256 0.05494,1.55669 1.135466,1.99623 0.07326,0.0275 0.155668,0.0458 0.256395,0.0458 z"
           id="path2823" />
        <path
           d="m 67.109141,213.58734 c 0.219768,0 0.311338,-0.0916 0.311338,-0.31134 v -0.27471 c 0,-0.21976 -0.09157,-0.31133 -0.311338,-0.31133 h -3.589536 c -0.219767,0 -0.311337,0.0916 -0.311337,0.31133 v 0.27471 c 0,0.21977 0.09157,0.31134 0.311337,0.31134 z m -1.620785,5.32936 c 0.219768,0 0.311337,-0.0916 0.311337,-0.31134 v -3.97412 c 0,-0.21977 -0.09157,-0.31134 -0.311337,-0.31134 h -0.347965 c -0.219768,0 -0.311337,0.0916 -0.311337,0.31134 v 3.97412 c 0,0.21977 0.09157,0.31134 0.311337,0.31134 z"
           id="path2820" />
        <path
           d="m 70.982531,218.9167 c 0.219768,0 0.311337,-0.0916 0.311337,-0.31134 v -5.60407 c 0,-0.21976 -0.09157,-0.31133 -0.311337,-0.31133 h -0.347965 c -0.219768,0 -0.311338,0.0916 -0.311338,0.31133 v 5.60407 c 0,0.21977 0.09157,0.31134 0.311338,0.31134 z"
           id="path2817" />
        <path
           d="m 75.625103,218.95333 c 0.164826,0 0.238082,-0.1282 0.238082,-0.30218 v -0.23808 c 0,-0.14651 -0.03663,-0.27471 -0.155669,-0.34797 l -0.137355,-0.0916 c -0.192296,-0.12819 -0.402907,-0.35712 -0.402907,-0.88822 v -2.56396 c 0,-0.5311 0.210611,-0.76003 0.402907,-0.88822 l 0.137355,-0.0916 c 0.119041,-0.0733 0.155669,-0.20146 0.155669,-0.34797 v -0.23808 c 0,-0.17398 -0.07326,-0.30218 -0.238082,-0.30218 h -0.03663 c -0.100727,0 -0.183139,0.0183 -0.256395,0.0458 -1.080524,0.43954 -1.135466,1.26367 -1.135466,1.99622 v 2.21599 c 0,0.73256 0.05494,1.55669 1.135466,1.99623 0.07326,0.0275 0.155668,0.0458 0.256395,0.0458 z m 1.391861,0 c 0.100727,0 0.18314,-0.0183 0.256395,-0.0458 1.080524,-0.43954 1.135466,-1.26367 1.135466,-1.99623 v -2.21599 c 0,-0.73255 -0.05494,-1.55668 -1.135466,-1.99622 -0.07326,-0.0275 -0.155668,-0.0458 -0.256395,-0.0458 h -0.03663 c -0.164826,0 -0.238081,0.1282 -0.238081,0.30218 v 0.23808 c 0,0.14651 0.03663,0.27471 0.155668,0.34797 l 0.137355,0.0916 c 0.192296,0.12819 0.402907,0.35712 0.402907,0.88822 v 2.56396 c 0,0.5311 -0.210611,0.76003 -0.402907,0.88822 l -0.137355,0.0916 c -0.119041,0.0733 -0.155668,0.20146 -0.155668,0.34797 v 0.23808 c 0,0.17398 0.07326,0.30218 0.238081,0.30218 z"
           id="path2814" />
        <path
           d="m 80.350088,218.9167 c 0.219767,0 0.311337,-0.0916 0.311337,-0.31134 v -1.88633 c 0,-0.11904 -0.02747,-0.20146 -0.09157,-0.30218 l -0.467006,-0.67762 c -0.0641,-0.10073 -0.146511,-0.13735 -0.219767,-0.13735 -0.100727,0 -0.192297,0.0916 -0.192297,0.25639 v 2.74709 c 0,0.21977 0.09157,0.31134 0.311338,0.31134 z m 3.278199,0 c 0.192296,0 0.274709,-0.11904 0.274709,-0.31134 v -0.75087 c 0,-0.1282 -0.04578,-0.20145 -0.164826,-0.25639 l -0.09157,-0.0458 c -0.100727,-0.0458 -0.173983,-0.10072 -0.238082,-0.20145 L 80.4966,212.91888 c -0.109884,-0.16482 -0.201454,-0.22892 -0.393751,-0.22892 h -0.137354 c -0.192297,0 -0.27471,0.11904 -0.27471,0.31133 v 0.75088 c 0,0.12819 0.04578,0.20145 0.164826,0.25639 l 0.109884,0.0549 c 0.100727,0.0458 0.173982,0.10073 0.238081,0.20146 l 2.902763,4.42282 c 0.109884,0.16482 0.201453,0.22892 0.39375,0.22892 z m -0.137355,-3.05843 c 0.0641,0.10073 0.146512,0.13736 0.219767,0.13736 0.100727,0 0.192297,-0.0916 0.192297,-0.2564 v -2.73794 c 0,-0.21976 -0.09157,-0.31133 -0.311337,-0.31133 h -0.347966 c -0.219767,0 -0.311337,0.0916 -0.311337,0.31133 v 1.87718 c 0,0.11905 0.02747,0.20146 0.09157,0.30218 z"
           id="path2811" />
      </g>
      <g
         aria-label="499402-100-1"
         id="text512"
         style="font-size:9.15698px;font-family:'Helvetica Neue';-inkscape-font-specification:'Helvetica Neue, Normal';stroke-width:0.143078">
        <path
           d="m 6.2520111,228.36732 c 0.2197675,0 0.3113373,-0.0916 0.3113373,-0.31133 v -1.20872 c 0,-0.1282 0.036628,-0.21977 0.1465117,-0.28387 l 0.1648256,-0.0916 c 0.1098837,-0.0641 0.1465117,-0.16483 0.1465117,-0.29302 v -0.18314 c 0,-0.1282 -0.036628,-0.22893 -0.1465117,-0.29303 l -0.1648256,-0.0916 c -0.1098838,-0.0641 -0.1465117,-0.15566 -0.1465117,-0.28386 v -2.87529 c 0,-0.21977 -0.09157,-0.31134 -0.3113373,-0.31134 H 6.0139296 c -0.1922966,0 -0.3296513,0.0458 -0.439535,0.20145 l -0.6318316,0.76919 c -0.1465117,0.16482 -0.1373547,0.36628 0.027471,0.49448 l 0.4120641,0.32049 c 0.1556687,0.11904 0.2106106,0.26555 0.2106106,0.45785 v 3.67195 c 0,0.21977 0.09157,0.31133 0.3113373,0.31133 z m -1.8497099,-1.76729 c 0.2197675,0 0.3113373,-0.0916 0.3113373,-0.31134 v -0.31134 c 0,-0.10072 -0.036628,-0.21061 -0.1648256,-0.23808 l -0.1007268,-0.0183 c -0.1465117,-0.0275 -0.1648256,-0.0916 -0.1648256,-0.1923 0,-0.0641 0.036628,-0.13735 0.1098837,-0.22892 l 0.2563955,-0.3205 c 0.1190407,-0.15567 0.1190407,-0.26555 -0.027471,-0.39375 l -0.3204943,-0.26555 c -0.1465116,-0.1282 -0.2747094,-0.1282 -0.3937501,0.0183 l -1.0164247,1.22704 c -0.082413,0.10073 -0.1190408,0.22892 -0.1190408,0.35712 v 0.36628 c 0,0.21977 0.09157,0.31134 0.3113374,0.31134 z"
           style="-inkscape-font-specification:'Vtg Stencil Marsh, Semi-Expanded'"
           id="path2808" />
        <path
           d="m 9.8781608,225.53782 c 0.1648252,0 0.2380812,-0.1282 0.2380812,-0.30218 v -0.26555 c 0,-0.14652 -0.03663,-0.26556 -0.1556684,-0.34797 l -0.09157,-0.0641 c -0.1922966,-0.1282 -0.4029071,-0.37543 -0.4029071,-0.74171 0,-0.35713 0.2106105,-0.60436 0.4029071,-0.73256 l 0.09157,-0.0641 c 0.1190404,-0.0824 0.1556684,-0.20145 0.1556684,-0.34797 v -0.26555 c 0,-0.17398 -0.07326,-0.30218 -0.2380812,-0.30218 h -0.036628 c -0.082413,0 -0.1373547,0.0183 -0.2106106,0.0458 -0.9065409,0.32965 -1.1354654,1.11715 -1.1354654,1.66657 0,0.55857 0.2289245,1.34607 1.1354654,1.67572 0.073256,0.0275 0.1556687,0.0458 0.2106106,0.0458 z m 0,2.86613 c 0.1648252,0 0.2380812,-0.12819 0.2380812,-0.30218 v -0.26555 c 0,-0.14651 -0.03663,-0.26555 -0.1556684,-0.34797 l -0.09157,-0.0641 c -0.1922966,-0.1282 -0.3662792,-0.35713 -0.3937501,-0.67762 -0.018314,-0.21977 -0.09157,-0.31134 -0.3113373,-0.31134 h -0.357122 c -0.2197675,0 -0.3113373,0.0916 -0.3113373,0.31134 0,0.25639 0.054942,1.18125 1.1354654,1.61163 0.073256,0.0275 0.1098838,0.0458 0.2106106,0.0458 z m 1.3918612,0 c 0.100726,0 0.137354,-0.0183 0.21061,-0.0458 1.080524,-0.43954 1.135466,-1.26367 1.135466,-1.99622 v -2.21599 c 0,-0.73256 -0.05494,-1.55669 -1.135466,-1.99622 -0.07326,-0.0275 -0.109884,-0.0458 -0.21061,-0.0458 h -0.03663 c -0.164826,0 -0.238082,0.1282 -0.238082,0.30218 v 0.26555 c 0,0.14652 0.03663,0.27471 0.155669,0.34797 l 0.09157,0.0641 c 0.192296,0.1282 0.402907,0.35712 0.402907,0.88822 v 2.56396 c 0,0.5311 -0.210611,0.76003 -0.402907,0.88823 l -0.09157,0.0641 c -0.119041,0.0733 -0.155669,0.23809 -0.155669,0.3846 v 0.22892 c 0,0.17399 0.07326,0.30218 0.238082,0.30218 z"
           style="-inkscape-font-specification:'Vtg Stencil Marsh, Semi-Expanded'"
           id="path2805" />
        <path
           d="m 15.372334,225.53782 c 0.164826,0 0.238082,-0.1282 0.238082,-0.30218 v -0.26555 c 0,-0.14652 -0.03663,-0.26556 -0.155669,-0.34797 l -0.09157,-0.0641 c -0.192296,-0.1282 -0.402907,-0.37543 -0.402907,-0.74171 0,-0.35713 0.210611,-0.60436 0.402907,-0.73256 l 0.09157,-0.0641 c 0.119041,-0.0824 0.155669,-0.20145 0.155669,-0.34797 v -0.26555 c 0,-0.17398 -0.07326,-0.30218 -0.238082,-0.30218 h -0.03663 c -0.08241,0 -0.137354,0.0183 -0.21061,0.0458 -0.906541,0.32965 -1.135466,1.11715 -1.135466,1.66657 0,0.55857 0.228925,1.34607 1.135466,1.67572 0.07326,0.0275 0.155669,0.0458 0.21061,0.0458 z m 0,2.86613 c 0.164826,0 0.238082,-0.12819 0.238082,-0.30218 v -0.26555 c 0,-0.14651 -0.03663,-0.26555 -0.155669,-0.34797 l -0.09157,-0.0641 c -0.192296,-0.1282 -0.366279,-0.35713 -0.39375,-0.67762 -0.01831,-0.21977 -0.09157,-0.31134 -0.311337,-0.31134 h -0.357122 c -0.219768,0 -0.311338,0.0916 -0.311338,0.31134 0,0.25639 0.05494,1.18125 1.135466,1.61163 0.07326,0.0275 0.109884,0.0458 0.21061,0.0458 z m 1.391861,0 c 0.100727,0 0.137355,-0.0183 0.210611,-0.0458 1.080523,-0.43954 1.135465,-1.26367 1.135465,-1.99622 v -2.21599 c 0,-0.73256 -0.05494,-1.55669 -1.135465,-1.99622 -0.07326,-0.0275 -0.109884,-0.0458 -0.210611,-0.0458 h -0.03663 c -0.164825,0 -0.238081,0.1282 -0.238081,0.30218 v 0.26555 c 0,0.14652 0.03663,0.27471 0.155668,0.34797 l 0.09157,0.0641 c 0.192297,0.1282 0.402907,0.35712 0.402907,0.88822 v 2.56396 c 0,0.5311 -0.21061,0.76003 -0.402907,0.88823 l -0.09157,0.0641 c -0.11904,0.0733 -0.155668,0.23809 -0.155668,0.3846 v 0.22892 c 0,0.17399 0.07326,0.30218 0.238081,0.30218 z"
           style="-inkscape-font-specification:'Vtg Stencil Marsh, Semi-Expanded'"
           id="path2802" />
        <path
           d="m 22.734532,228.36732 c 0.219768,0 0.311337,-0.0916 0.311337,-0.31133 v -1.20872 c 0,-0.1282 0.03663,-0.21977 0.146512,-0.28387 l 0.164826,-0.0916 c 0.109884,-0.0641 0.146511,-0.16483 0.146511,-0.29302 v -0.18314 c 0,-0.1282 -0.03663,-0.22893 -0.146511,-0.29303 l -0.164826,-0.0916 c -0.109884,-0.0641 -0.146512,-0.15566 -0.146512,-0.28386 v -2.87529 c 0,-0.21977 -0.09157,-0.31134 -0.311337,-0.31134 h -0.238081 c -0.192297,0 -0.329652,0.0458 -0.439535,0.20145 l -0.631832,0.76919 c -0.146512,0.16482 -0.137355,0.36628 0.02747,0.49448 l 0.412064,0.32049 c 0.155669,0.11904 0.210611,0.26555 0.210611,0.45785 v 3.67195 c 0,0.21977 0.09157,0.31133 0.311337,0.31133 z m -1.84971,-1.76729 c 0.219768,0 0.311338,-0.0916 0.311338,-0.31134 v -0.31134 c 0,-0.10072 -0.03663,-0.21061 -0.164826,-0.23808 l -0.100727,-0.0183 c -0.146512,-0.0275 -0.164825,-0.0916 -0.164825,-0.1923 0,-0.0641 0.03663,-0.13735 0.109883,-0.22892 l 0.256396,-0.3205 c 0.11904,-0.15567 0.11904,-0.26555 -0.02747,-0.39375 l -0.320495,-0.26555 c -0.146511,-0.1282 -0.274709,-0.1282 -0.39375,0.0183 l -1.016424,1.22704 c -0.08241,0.10073 -0.119041,0.22892 -0.119041,0.35712 v 0.36628 c 0,0.21977 0.09157,0.31134 0.311337,0.31134 z"
           style="-inkscape-font-specification:'Vtg Stencil Marsh, Semi-Expanded'"
           id="path2799" />
        <path
           d="m 26.314896,228.40395 c 0.164826,0 0.238082,-0.12819 0.238082,-0.30218 v -0.26555 c 0,-0.14651 -0.03663,-0.27471 -0.155669,-0.34797 l -0.09157,-0.0641 c -0.192296,-0.1282 -0.402907,-0.35713 -0.402907,-0.88823 v -2.56396 c 0,-0.5311 0.210611,-0.76002 0.402907,-0.88822 l 0.09157,-0.0641 c 0.119041,-0.0733 0.155669,-0.23808 0.155669,-0.38459 v -0.22893 c 0,-0.17398 -0.07326,-0.30218 -0.238082,-0.30218 h -0.03663 c -0.100727,0 -0.137355,0.0183 -0.210611,0.0458 -1.080524,0.43953 -1.135465,1.26366 -1.135465,1.99622 v 2.21599 c 0,0.73255 0.05494,1.55668 1.135465,1.99622 0.07326,0.0275 0.109884,0.0458 0.210611,0.0458 z m 1.483431,0 c 0.100727,0 0.137355,-0.0183 0.210611,-0.0458 1.080523,-0.43954 1.135465,-1.26367 1.135465,-1.99622 v -2.21599 c 0,-0.73256 -0.05494,-1.55669 -1.135465,-1.99622 -0.07326,-0.0275 -0.109884,-0.0458 -0.210611,-0.0458 h -0.03663 c -0.164825,0 -0.238081,0.1282 -0.238081,0.30218 v 0.26555 c 0,0.14652 0.03663,0.27471 0.155668,0.34797 l 0.09157,0.0641 c 0.192297,0.1282 0.402907,0.35712 0.402907,0.88822 v 2.56396 c 0,0.5311 -0.21061,0.76003 -0.402907,0.88823 l -0.09157,0.0641 c -0.11904,0.0733 -0.155668,0.20146 -0.155668,0.34797 v 0.26555 c 0,0.17399 0.07326,0.30218 0.238081,0.30218 z"
           style="-inkscape-font-specification:'Vtg Stencil Marsh, Semi-Expanded'"
           id="path2796" />
        <path
           d="m 34.217355,228.36732 c 0.219768,0 0.311337,-0.0916 0.311337,-0.31133 v -0.27471 c 0,-0.21977 -0.09157,-0.31134 -0.311337,-0.31134 h -1.75814 c -0.128198,0 -0.219767,-0.0366 -0.320494,-0.1282 l -0.503634,-0.467 c -0.164826,-0.14651 -0.329651,-0.14651 -0.48532,0.009 l -0.567733,0.54027 c -0.11904,0.11904 -0.173982,0.23808 -0.173982,0.39375 v 0.23808 c 0,0.21977 0.09157,0.31133 0.311337,0.31133 z m -0.421221,-2.75625 c 0.329651,-0.3388 0.824128,-0.80581 0.824128,-1.71235 0,-1.08968 -0.714244,-1.54753 -1.217878,-1.74898 -0.0641,-0.0275 -0.137355,-0.0458 -0.192297,-0.0458 -0.164825,0 -0.238081,0.1282 -0.238081,0.30218 v 0.29302 c 0,0.18314 0.0641,0.26556 0.192296,0.34797 0.219768,0.13735 0.48532,0.35712 0.48532,0.83328 0,0.30219 -0.109883,0.61352 -0.476163,0.9798 l -0.869913,0.87907 c -0.155668,0.15567 -0.155668,0.29303 0.0092,0.43954 l 0.247239,0.23808 c 0.164825,0.15567 0.293023,0.15567 0.448692,0 z m -2.692152,-1.35523 c 0.219768,0 0.311337,-0.0916 0.311337,-0.31134 0,-0.50363 0.210611,-0.74171 0.402907,-0.86075 l 0.119041,-0.0733 c 0.119041,-0.0641 0.155669,-0.22892 0.155669,-0.37543 v -0.22893 c 0,-0.17398 -0.07326,-0.30218 -0.238082,-0.30218 h -0.03663 c -0.100726,0 -0.183139,0.0275 -0.238081,0.0458 -1.126308,0.41206 -1.135465,1.48343 -1.135465,1.79476 0,0.21977 0.09157,0.31134 0.311337,0.31134 z"
           style="-inkscape-font-specification:'Vtg Stencil Marsh, Semi-Expanded'"
           id="path2793" />
        <path
           d="m 39.729844,225.70264 c 0.219768,0 0.311337,-0.0916 0.311337,-0.31133 v -0.27471 c 0,-0.21977 -0.09157,-0.31134 -0.311337,-0.31134 h -3.406396 c -0.219768,0 -0.311338,0.0916 -0.311338,0.31134 v 0.27471 c 0,0.21976 0.09157,0.31133 0.311338,0.31133 z"
           style="-inkscape-font-specification:'Vtg Stencil Marsh, Semi-Expanded'"
           id="path2790" />
        <path
           d="m 43.832154,228.36732 c 0.219768,0 0.311338,-0.0916 0.311338,-0.31133 v -5.60407 c 0,-0.21977 -0.09157,-0.31134 -0.311338,-0.31134 h -0.347965 c -0.219767,0 -0.338808,0.0824 -0.439535,0.28387 l -0.531105,1.09883 c -0.03663,0.0733 -0.05494,0.15567 -0.05494,0.21977 0,0.10988 0.0641,0.22892 0.192297,0.28387 l 0.247238,0.10988 c 0.201454,0.0824 0.27471,0.21061 0.27471,0.43038 v 3.48881 c 0,0.21977 0.09157,0.31133 0.311337,0.31133 z"
           style="-inkscape-font-specification:'Vtg Stencil Marsh, Semi-Expanded'"
           id="path2787" />
        <path
           d="m 48.291591,228.40395 c 0.164825,0 0.238081,-0.12819 0.238081,-0.30218 v -0.26555 c 0,-0.14651 -0.03663,-0.27471 -0.155669,-0.34797 l -0.09157,-0.0641 c -0.192297,-0.1282 -0.402908,-0.35713 -0.402908,-0.88823 v -2.56396 c 0,-0.5311 0.210611,-0.76002 0.402908,-0.88822 l 0.09157,-0.0641 c 0.119041,-0.0733 0.155669,-0.23808 0.155669,-0.38459 v -0.22893 c 0,-0.17398 -0.07326,-0.30218 -0.238081,-0.30218 h -0.03663 c -0.100727,0 -0.137355,0.0183 -0.210611,0.0458 -1.080523,0.43953 -1.135465,1.26366 -1.135465,1.99622 v 2.21599 c 0,0.73255 0.05494,1.55668 1.135465,1.99622 0.07326,0.0275 0.109884,0.0458 0.210611,0.0458 z m 1.48343,0 c 0.100727,0 0.137355,-0.0183 0.210611,-0.0458 1.080523,-0.43954 1.135465,-1.26367 1.135465,-1.99622 v -2.21599 c 0,-0.73256 -0.05494,-1.55669 -1.135465,-1.99622 -0.07326,-0.0275 -0.109884,-0.0458 -0.210611,-0.0458 h -0.03663 c -0.164825,0 -0.238081,0.1282 -0.238081,0.30218 v 0.26555 c 0,0.14652 0.03663,0.27471 0.155669,0.34797 l 0.09157,0.0641 c 0.192297,0.1282 0.402907,0.35712 0.402907,0.88822 v 2.56396 c 0,0.5311 -0.21061,0.76003 -0.402907,0.88823 l -0.09157,0.0641 c -0.119041,0.0733 -0.155669,0.20146 -0.155669,0.34797 v 0.26555 c 0,0.17399 0.07326,0.30218 0.238081,0.30218 z"
           style="-inkscape-font-specification:'Vtg Stencil Marsh, Semi-Expanded'"
           id="path2784" />
        <path
           d="m 53.785766,228.40395 c 0.164825,0 0.238081,-0.12819 0.238081,-0.30218 v -0.26555 c 0,-0.14651 -0.03663,-0.27471 -0.155669,-0.34797 l -0.09157,-0.0641 c -0.192297,-0.1282 -0.402908,-0.35713 -0.402908,-0.88823 v -2.56396 c 0,-0.5311 0.210611,-0.76002 0.402908,-0.88822 l 0.09157,-0.0641 c 0.119041,-0.0733 0.155669,-0.23808 0.155669,-0.38459 v -0.22893 c 0,-0.17398 -0.07326,-0.30218 -0.238081,-0.30218 h -0.03663 c -0.100727,0 -0.137355,0.0183 -0.210611,0.0458 -1.080524,0.43953 -1.135465,1.26366 -1.135465,1.99622 v 2.21599 c 0,0.73255 0.05494,1.55668 1.135465,1.99622 0.07326,0.0275 0.109884,0.0458 0.210611,0.0458 z m 1.48343,0 c 0.100727,0 0.137355,-0.0183 0.210611,-0.0458 1.080523,-0.43954 1.135465,-1.26367 1.135465,-1.99622 v -2.21599 c 0,-0.73256 -0.05494,-1.55669 -1.135465,-1.99622 -0.07326,-0.0275 -0.109884,-0.0458 -0.210611,-0.0458 h -0.03663 c -0.164825,0 -0.238081,0.1282 -0.238081,0.30218 v 0.26555 c 0,0.14652 0.03663,0.27471 0.155668,0.34797 l 0.09157,0.0641 c 0.192297,0.1282 0.402907,0.35712 0.402907,0.88822 v 2.56396 c 0,0.5311 -0.21061,0.76003 -0.402907,0.88823 l -0.09157,0.0641 c -0.11904,0.0733 -0.155668,0.20146 -0.155668,0.34797 v 0.26555 c 0,0.17399 0.07326,0.30218 0.238081,0.30218 z"
           style="-inkscape-font-specification:'Vtg Stencil Marsh, Semi-Expanded'"
           id="path2781" />
        <path
           d="m 61.706536,225.70264 c 0.219768,0 0.311338,-0.0916 0.311338,-0.31133 v -0.27471 c 0,-0.21977 -0.09157,-0.31134 -0.311338,-0.31134 H 58.30014 c -0.219768,0 -0.311337,0.0916 -0.311337,0.31134 v 0.27471 c 0,0.21976 0.09157,0.31133 0.311337,0.31133 z"
           style="-inkscape-font-specification:'Vtg Stencil Marsh, Semi-Expanded'"
           id="path2778" />
        <path
           d="m 65.80885,228.36732 c 0.219768,0 0.311338,-0.0916 0.311338,-0.31133 v -5.60407 c 0,-0.21977 -0.09157,-0.31134 -0.311338,-0.31134 h -0.347965 c -0.219767,0 -0.338808,0.0824 -0.439535,0.28387 l -0.531105,1.09883 c -0.03663,0.0733 -0.05494,0.15567 -0.05494,0.21977 0,0.10988 0.0641,0.22892 0.192297,0.28387 l 0.247238,0.10988 c 0.201454,0.0824 0.27471,0.21061 0.27471,0.43038 v 3.48881 c 0,0.21977 0.09157,0.31133 0.311337,0.31133 z"
           style="-inkscape-font-specification:'Vtg Stencil Marsh, Semi-Expanded'"
           id="path2775" />
      </g>
      <g
         aria-label="serial no.001"
         id="text516"
         style="font-size:9.07781px;font-family:'Helvetica Neue';-inkscape-font-specification:'Helvetica Neue, Normal';stroke-width:0.141841">
        <path
           d="m 4.1884972,237.80011 c 0.1634006,0 0.2360231,-0.12709 0.2360231,-0.29957 v -0.22695 c 0,-0.14524 -0.036311,-0.26325 -0.1634006,-0.33588 l -0.1815562,-0.10893 c -0.1815562,-0.10893 -0.3086455,-0.29049 -0.335879,-0.49928 -0.027233,-0.19063 -0.099856,-0.27233 -0.2904899,-0.27233 H 3.0446931 c -0.190634,0 -0.2723343,0.0817 -0.2723343,0.27233 0,0.62637 0.5991355,1.47061 1.2981269,1.47061 z m 1.4433719,0 c 0.571902,0 1.3525937,-0.68084 1.3525937,-1.75202 0,-0.85332 -0.4902018,-1.30721 -1.2618156,-1.64309 L 4.34282,233.80587 c -0.4538905,-0.19971 -0.6082133,-0.42666 -0.6082133,-0.78977 0,-0.29957 0.145245,-0.42666 0.3721902,-0.53559 l 0.1543228,-0.0726 c 0.1270894,-0.0454 0.1634006,-0.18156 0.1634006,-0.32681 v -0.22694 c 0,-0.17248 -0.063545,-0.29049 -0.2269453,-0.29957 H 4.106797 c -0.3994236,0 -1.3344381,0.39035 -1.3344381,1.54323 0,0.83516 0.4629684,1.27997 1.0348704,1.52507 l 1.4796831,0.64453 c 0.4992795,0.21786 0.7353026,0.46296 0.7353026,0.87147 0,0.35403 -0.1815562,0.56282 -0.3994236,0.70807 l -0.1634006,0.10893 c -0.1180116,0.0726 -0.1634006,0.17248 -0.1634006,0.31772 v 0.22695 c 0,0.17248 0.072622,0.29957 0.2360231,0.29957 z m 1.0439482,-4.46629 c 0.190634,0 0.2723343,-0.0817 0.2723343,-0.27233 0,-0.58098 -0.526513,-1.50692 -1.3253603,-1.50692 h -0.090778 c -0.1634006,0 -0.2360231,0.12709 -0.2360231,0.29957 v 0.22694 c 0,0.14525 0.027233,0.28142 0.1543228,0.34496 l 0.1724784,0.0999 c 0.1361671,0.0726 0.2995677,0.28141 0.3449567,0.53559 0.036311,0.19063 0.099856,0.27233 0.29049,0.27233 z"
           style="-inkscape-font-specification:'Vtg Stencil Marsh, Semi-Expanded'"
           id="path2772" />
        <path
           d="m 8.8726336,237.76379 c 0.2178675,0 0.3086456,-0.0908 0.3086456,-0.30864 v -2.06066 c 0,-0.19064 0.0817,-0.27234 0.2723343,-0.27234 h 0.5628245 c 0.217867,0 0.308645,-0.0908 0.308645,-0.30864 v -0.27234 c 0,-0.21787 -0.09078,-0.30864 -0.308645,-0.30864 H 9.4536135 c -0.190634,0 -0.2723343,-0.0817 -0.2723343,-0.27234 v -2.06066 c 0,-0.21787 -0.090778,-0.30865 -0.3086456,-0.30865 H 8.5276768 c -0.2178674,0 -0.3086455,0.0908 -0.3086455,0.30865 v 5.55562 c 0,0.21787 0.090778,0.30864 0.3086455,0.30864 z m 2.7051874,0 c 0.217868,0 0.308646,-0.0908 0.308646,-0.30864 v -0.27234 c 0,-0.21786 -0.09078,-0.30864 -0.308646,-0.30864 h -1.216427 c -0.217867,0 -0.308645,0.0908 -0.308645,0.30864 v 0.27234 c 0,0.21787 0.09078,0.30864 0.308645,0.30864 z m 0,-5.28328 c 0.217868,0 0.308646,-0.0908 0.308646,-0.30865 v -0.27233 c 0,-0.21787 -0.09078,-0.30865 -0.308646,-0.30865 h -1.216427 c -0.217867,0 -0.308645,0.0908 -0.308645,0.30865 v 0.27233 c 0,0.21787 0.09078,0.30865 0.308645,0.30865 z"
           style="-inkscape-font-specification:'Vtg Stencil Marsh, Semi-Expanded'"
           id="path2769" />
        <path
           d="m 17.696251,237.76379 c 0.154323,0 0.236024,-0.0635 0.236024,-0.1634 0,-0.0454 -0.0091,-0.0908 -0.03631,-0.14524 l -1.107493,-2.1696 c -0.02723,-0.0635 -0.03631,-0.0999 -0.03631,-0.1634 v -0.0272 c 0,-0.0545 0.02723,-0.0999 0.0817,-0.12709 0.490202,-0.19064 1.043949,-0.59006 1.043949,-1.46153 v -0.2451 c 0,-0.87147 -0.562825,-1.67032 -1.815562,-1.67032 H 15.80807 c -0.217868,0 -0.308646,0.0908 -0.308646,0.30865 v 0.27233 c 0,0.21787 0.09078,0.30865 0.308646,0.30865 h 0.254179 c 0.45389,0 0.817003,0.27233 0.817003,0.78069 v 0.2451 c 0,0.50836 -0.363113,0.78069 -0.817003,0.78069 H 15.80807 c -0.217868,0 -0.308646,0.0908 -0.308646,0.30865 v 0.19971 c 0,0.11801 0.04539,0.21787 0.0817,0.29049 l 1.261815,2.38746 c 0.09986,0.19064 0.199712,0.29049 0.41758,0.29049 z m -3.376945,0 c 0.217867,0 0.308646,-0.0908 0.308646,-0.30864 v -5.55562 c 0,-0.21787 -0.09078,-0.30865 -0.308646,-0.30865 h -0.344957 c -0.217867,0 -0.308645,0.0908 -0.308645,0.30865 v 5.55562 c 0,0.21787 0.09078,0.30864 0.308645,0.30864 z"
           style="-inkscape-font-specification:'Vtg Stencil Marsh, Semi-Expanded'"
           id="path2766" />
        <path
           d="m 21.372751,237.76379 c 0.217867,0 0.308645,-0.0908 0.308645,-0.30864 v -5.55562 c 0,-0.21787 -0.09078,-0.30865 -0.308645,-0.30865 h -0.344957 c -0.217867,0 -0.308645,0.0908 -0.308645,0.30865 v 5.55562 c 0,0.21787 0.09078,0.30864 0.308645,0.30864 z"
           style="-inkscape-font-specification:'Vtg Stencil Marsh, Semi-Expanded'"
           id="path2763" />
        <path
           d="m 28.580519,237.76379 c 0.217867,0 0.317723,-0.0999 0.254178,-0.30864 l -1.724784,-5.5647 c -0.06354,-0.20879 -0.181556,-0.29957 -0.399423,-0.29957 h -0.108934 c -0.217868,0 -0.344957,0.0908 -0.408502,0.29957 l -0.308645,0.99856 c -0.06355,0.20879 0.01816,0.31772 0.190634,0.4085 l 0.09986,0.0454 c 0.399423,0.19971 0.535591,0.49928 0.671758,0.93501 l 0.980403,3.17724 c 0.06355,0.20879 0.181556,0.30864 0.399424,0.30864 z m -2.414698,-1.09841 c 0.317723,0 0.245101,-0.34496 0.20879,-0.46297 l -0.508358,-1.63401 c -0.05447,-0.1634 -0.136167,-0.23602 -0.254178,-0.23602 -0.09986,0 -0.199712,0.0726 -0.254179,0.23602 l -0.898703,2.88675 c -0.06354,0.20879 0.03631,0.30864 0.254178,0.30864 h 0.344957 c 0.217868,0 0.344957,-0.0999 0.399424,-0.30864 l 0.172478,-0.61729 c 0.02723,-0.10894 0.09078,-0.1634 0.20879,-0.17248 z"
           style="-inkscape-font-specification:'Vtg Stencil Marsh, Semi-Expanded'"
           id="path2760" />
        <path
           d="m 30.659323,237.76379 c 0.217868,0 0.308646,-0.0908 0.308646,-0.30864 v -5.55562 c 0,-0.21787 -0.09078,-0.30865 -0.308646,-0.30865 h -0.344956 c -0.217868,0 -0.308646,0.0908 -0.308646,0.30865 v 5.55562 c 0,0.21787 0.09078,0.30864 0.308646,0.30864 z m 3.213545,0 c 0.217868,0 0.308646,-0.0908 0.308646,-0.30864 v -0.27234 c 0,-0.21786 -0.09078,-0.30864 -0.308646,-0.30864 h -1.724784 c -0.217867,0 -0.308645,0.0908 -0.308645,0.30864 v 0.27234 c 0,0.21787 0.09078,0.30864 0.308645,0.30864 z"
           style="-inkscape-font-specification:'Vtg Stencil Marsh, Semi-Expanded'"
           id="path2757" />
        <path
           d="m 41.55267,237.76379 c 0.217868,0 0.308646,-0.0908 0.308646,-0.30864 v -1.87003 c 0,-0.11801 -0.02723,-0.19971 -0.09078,-0.29957 l -0.462969,-0.67176 c -0.06354,-0.0999 -0.145245,-0.13616 -0.217867,-0.13616 -0.09986,0 -0.190634,0.0908 -0.190634,0.25418 v 2.72334 c 0,0.21787 0.09078,0.30864 0.308645,0.30864 z m 3.249856,0 c 0.190634,0 0.272335,-0.11801 0.272335,-0.30864 v -0.74438 c 0,-0.12709 -0.04539,-0.19971 -0.163401,-0.25418 l -0.09078,-0.0454 c -0.09986,-0.0454 -0.172479,-0.0999 -0.236023,-0.19971 l -2.886744,-4.39366 c -0.108934,-0.1634 -0.199712,-0.22695 -0.390346,-0.22695 H 41.1714 c -0.190634,0 -0.272334,0.11801 -0.272334,0.30865 v 0.74438 c 0,0.12709 0.04539,0.19971 0.1634,0.25418 l 0.108934,0.0545 c 0.09986,0.0454 0.172479,0.0999 0.236023,0.19972 l 2.877666,4.38458 c 0.108934,0.1634 0.199712,0.22694 0.390346,0.22694 z m -0.136167,-3.03198 c 0.06354,0.0999 0.145245,0.13616 0.217868,0.13616 0.09985,0 0.190634,-0.0908 0.190634,-0.25418 v -2.71426 c 0,-0.21787 -0.09078,-0.30865 -0.308646,-0.30865 h -0.344957 c -0.217867,0 -0.308645,0.0908 -0.308645,0.30865 v 1.86095 c 0,0.11801 0.02723,0.19971 0.09078,0.29957 z"
           style="-inkscape-font-specification:'Vtg Stencil Marsh, Semi-Expanded'"
           id="path2754" />
        <path
           d="m 47.761877,237.80011 c 0.1634,0 0.236023,-0.12709 0.236023,-0.29957 v -0.23603 c 0,-0.14524 -0.03631,-0.27233 -0.154323,-0.34495 l -0.136167,-0.0908 c -0.190634,-0.12709 -0.399424,-0.35404 -0.399424,-0.88055 v -2.54178 c 0,-0.52652 0.20879,-0.75346 0.399424,-0.88055 l 0.136167,-0.0908 c 0.118012,-0.0726 0.154323,-0.19971 0.154323,-0.34496 v -0.23602 c 0,-0.17248 -0.07262,-0.29957 -0.236023,-0.29957 h -0.03631 c -0.09986,0 -0.181557,0.0182 -0.254179,0.0454 -1.071182,0.43574 -1.125649,1.25274 -1.125649,1.97896 v 2.19683 c 0,0.72623 0.05447,1.54323 1.125649,1.97897 0.07262,0.0272 0.154323,0.0454 0.254179,0.0454 z m 1.379827,0 c 0.09986,0 0.181556,-0.0182 0.254179,-0.0454 1.071181,-0.43574 1.125648,-1.25274 1.125648,-1.97897 v -2.19683 c 0,-0.72622 -0.05447,-1.54322 -1.125648,-1.97896 -0.07262,-0.0272 -0.154323,-0.0454 -0.254179,-0.0454 h -0.03631 c -0.163401,0 -0.236023,0.12709 -0.236023,0.29957 v 0.23602 c 0,0.14525 0.03631,0.27234 0.154322,0.34496 l 0.136168,0.0908 c 0.190634,0.12709 0.399423,0.35403 0.399423,0.88055 v 2.54178 c 0,0.52651 -0.208789,0.75346 -0.399423,0.88055 l -0.136168,0.0908 c -0.118011,0.0726 -0.154322,0.19971 -0.154322,0.34495 v 0.23603 c 0,0.17248 0.07262,0.29957 0.236023,0.29957 z"
           style="-inkscape-font-specification:'Vtg Stencil Marsh, Semi-Expanded'"
           id="path2751" />
        <path
           d="m 53.880305,237.85457 c 0.41758,0 0.708069,-0.29957 0.708069,-0.72622 0,-0.42666 -0.290489,-0.72623 -0.708069,-0.72623 -0.417579,0 -0.708069,0.29957 -0.708069,0.72623 0,0.42665 0.29049,0.72622 0.708069,0.72622 z"
           style="-inkscape-font-specification:'Vtg Stencil Marsh, Semi-Expanded'"
           id="path2748" />
        <path
           d="m 58.609833,237.80011 c 0.1634,0 0.236023,-0.12709 0.236023,-0.29957 v -0.26326 c 0,-0.14524 -0.03631,-0.27233 -0.154323,-0.34496 l -0.09078,-0.0635 c -0.190634,-0.12709 -0.399424,-0.35404 -0.399424,-0.88055 v -2.54178 c 0,-0.52652 0.20879,-0.75346 0.399424,-0.88055 l 0.09078,-0.0636 c 0.118011,-0.0726 0.154323,-0.23602 0.154323,-0.38127 v -0.22694 c 0,-0.17248 -0.07262,-0.29957 -0.236023,-0.29957 h -0.03631 c -0.09986,0 -0.136167,0.0182 -0.208789,0.0454 -1.071182,0.43574 -1.125649,1.25274 -1.125649,1.97896 v 2.19683 c 0,0.72623 0.05447,1.54323 1.125649,1.97897 0.07262,0.0272 0.108933,0.0454 0.208789,0.0454 z m 1.470605,0 c 0.09986,0 0.136167,-0.0182 0.208789,-0.0454 1.071182,-0.43574 1.125649,-1.25274 1.125649,-1.97897 v -2.19683 c 0,-0.72622 -0.05447,-1.54322 -1.125649,-1.97896 -0.07262,-0.0272 -0.108933,-0.0454 -0.208789,-0.0454 h -0.03631 c -0.163401,0 -0.236023,0.12709 -0.236023,0.29957 v 0.26326 c 0,0.14524 0.03631,0.27233 0.154322,0.34495 l 0.09078,0.0636 c 0.190634,0.12709 0.399424,0.35403 0.399424,0.88055 v 2.54178 c 0,0.52651 -0.20879,0.75346 -0.399424,0.88055 l -0.09078,0.0635 c -0.118011,0.0726 -0.154322,0.19972 -0.154322,0.34496 v 0.26326 c 0,0.17248 0.07262,0.29957 0.236023,0.29957 z"
           style="-inkscape-font-specification:'Vtg Stencil Marsh, Semi-Expanded'"
           id="path2745" />
        <path
           d="m 64.056507,237.80011 c 0.163401,0 0.236023,-0.12709 0.236023,-0.29957 v -0.26326 c 0,-0.14524 -0.03631,-0.27233 -0.154323,-0.34496 l -0.09078,-0.0635 c -0.190634,-0.12709 -0.399424,-0.35404 -0.399424,-0.88055 v -2.54178 c 0,-0.52652 0.20879,-0.75346 0.399424,-0.88055 l 0.09078,-0.0636 c 0.118012,-0.0726 0.154323,-0.23602 0.154323,-0.38127 v -0.22694 c 0,-0.17248 -0.07262,-0.29957 -0.236023,-0.29957 h -0.03631 c -0.09986,0 -0.136167,0.0182 -0.20879,0.0454 -1.071182,0.43574 -1.125648,1.25274 -1.125648,1.97896 v 2.19683 c 0,0.72623 0.05447,1.54323 1.125648,1.97897 0.07262,0.0272 0.108934,0.0454 0.20879,0.0454 z m 1.470605,0 c 0.09986,0 0.136167,-0.0182 0.20879,-0.0454 1.071181,-0.43574 1.125648,-1.25274 1.125648,-1.97897 v -2.19683 c 0,-0.72622 -0.05447,-1.54322 -1.125648,-1.97896 -0.07262,-0.0272 -0.108934,-0.0454 -0.20879,-0.0454 h -0.03631 c -0.163401,0 -0.236023,0.12709 -0.236023,0.29957 v 0.26326 c 0,0.14524 0.03631,0.27233 0.154323,0.34495 l 0.09078,0.0636 c 0.190634,0.12709 0.399423,0.35403 0.399423,0.88055 v 2.54178 c 0,0.52651 -0.208789,0.75346 -0.399423,0.88055 l -0.09078,0.0635 c -0.118012,0.0726 -0.154323,0.19972 -0.154323,0.34496 v 0.26326 c 0,0.17248 0.07262,0.29957 0.236023,0.29957 z"
           style="-inkscape-font-specification:'Vtg Stencil Marsh, Semi-Expanded'"
           id="path2742" />
        <path
           d="m 70.52897,237.76379 c 0.217867,0 0.308646,-0.0908 0.308646,-0.30864 v -5.55562 c 0,-0.21787 -0.09078,-0.30865 -0.308646,-0.30865 h -0.344957 c -0.217867,0 -0.335879,0.0817 -0.435735,0.28142 l -0.526513,1.08933 c -0.03631,0.0726 -0.05447,0.15433 -0.05447,0.21787 0,0.10893 0.06354,0.22695 0.190634,0.28141 l 0.245101,0.10894 c 0.199712,0.0817 0.272335,0.20879 0.272335,0.42665 v 3.45865 c 0,0.21787 0.09078,0.30864 0.308645,0.30864 z"
           style="-inkscape-font-specification:'Vtg Stencil Marsh, Semi-Expanded'"
           id="path2739" />
      </g>
    </g>
  </g>
</svg>
