<?xml version="1.0" encoding="UTF-8" standalone="no"?>
<!-- Created with Inkscape (http://www.inkscape.org/) -->

<svg
   width="141.36108mm"
   height="54.259613mm"
   viewBox="0 0 141.36109 54.259613"
   version="1.1"
   id="svg5"
   inkscape:version="1.2.1 (9c6d41e, 2022-07-14)"
   sodipodi:docname="phoenix.svg"
   xmlns:inkscape="http://www.inkscape.org/namespaces/inkscape"
   xmlns:sodipodi="http://sodipodi.sourceforge.net/DTD/sodipodi-0.dtd"
   xmlns="http://www.w3.org/2000/svg"
   xmlns:svg="http://www.w3.org/2000/svg">
  <sodipodi:namedview
     id="namedview7"
     pagecolor="#ffffff"
     bordercolor="#666666"
     borderopacity="1.0"
     inkscape:showpageshadow="2"
     inkscape:pageopacity="0.0"
     inkscape:pagecheckerboard="0"
     inkscape:deskcolor="#d1d1d1"
     inkscape:document-units="mm"
     showgrid="false"
     inkscape:zoom="0.32921153"
     inkscape:cx="1295.5196"
     inkscape:cy="1274.2567"
     inkscape:window-width="1720"
     inkscape:window-height="1313"
     inkscape:window-x="1720"
     inkscape:window-y="25"
     inkscape:window-maximized="0"
     inkscape:current-layer="layer1" />
  <defs
     id="defs2" />
  <g
     inkscape:groupmode="layer"
     id="layer2"
     inkscape:label="Layer 2"
     transform="translate(-142.8186,122.24204)">
    <g
       aria-label="serno   40122"
       id="text902"
       style="font-stretch:semi-expanded;font-size:18.4593px;line-height:1.25;font-family:'Vtg Stencil Marsh';-inkscape-font-specification:'Vtg Stencil Marsh, Semi-Expanded';stroke-width:0.288427">
      <path
         d="m 145.69837,-67.982437 c 0.33226,0 0.47994,-0.25843 0.47994,-0.609157 v -0.461483 c 0,-0.295348 -0.0738,-0.535319 -0.33227,-0.682994 l -0.36918,-0.221511 c -0.36919,-0.221512 -0.62762,-0.590698 -0.683,-1.015262 -0.0554,-0.387645 -0.20305,-0.553779 -0.5907,-0.553779 h -0.83066 c -0.38765,0 -0.55378,0.166134 -0.55378,0.553779 0,1.273692 1.21831,2.990407 2.63968,2.990407 z m 2.93503,0 c 1.16293,0 2.75043,-1.384448 2.75043,-3.562645 0,-1.735174 -0.9968,-2.658139 -2.56584,-3.341133 l -2.80581,-1.218314 c -0.92297,-0.406104 -1.23678,-0.867587 -1.23678,-1.605959 0,-0.609157 0.29535,-0.867587 0.75683,-1.089098 l 0.31381,-0.147675 c 0.25843,-0.0923 0.33227,-0.369186 0.33227,-0.664535 v -0.461482 c 0,-0.350727 -0.12922,-0.590698 -0.46148,-0.609157 h -0.1846 c -0.81221,0 -2.71351,0.79375 -2.71351,3.138081 0,1.698255 0.94142,2.602761 2.10436,3.101162 l 3.00886,1.31061 c 1.01526,0.443024 1.49521,0.941425 1.49521,1.772093 0,0.719913 -0.36919,1.144477 -0.81221,1.439825 l -0.33227,0.221512 c -0.23997,0.147674 -0.33227,0.350727 -0.33227,0.646075 v 0.461483 c 0,0.350727 0.14768,0.609157 0.47994,0.609157 z m 2.12282,-9.081975 c 0.38764,0 0.55377,-0.166134 0.55377,-0.553779 0,-1.181395 -1.07064,-3.064244 -2.69505,-3.064244 h -0.1846 c -0.33226,0 -0.47994,0.25843 -0.47994,0.609157 v 0.461482 c 0,0.295349 0.0554,0.572239 0.31381,0.701454 l 0.35073,0.203052 c 0.27689,0.147674 0.60915,0.572238 0.70145,1.089099 0.0738,0.387645 0.20305,0.553779 0.5907,0.553779 z"
         id="path1983" />
      <path
         d="m 155.22334,-68.056274 c 0.44302,0 0.62761,-0.184593 0.62761,-0.627617 v -4.19026 c 0,-0.387646 0.16614,-0.553779 0.55378,-0.553779 h 1.14448 c 0.44302,0 0.62761,-0.184593 0.62761,-0.627617 v -0.553779 c 0,-0.443023 -0.18459,-0.627616 -0.62761,-0.627616 h -1.14448 c -0.38764,0 -0.55378,-0.166133 -0.55378,-0.553779 v -4.190261 c 0,-0.443023 -0.18459,-0.627616 -0.62761,-0.627616 h -0.70146 c -0.44302,0 -0.62761,0.184593 -0.62761,0.627616 v 11.297091 c 0,0.443024 0.18459,0.627617 0.62761,0.627617 z m 5.50087,0 c 0.44302,0 0.62761,-0.184593 0.62761,-0.627617 v -0.553779 c 0,-0.443023 -0.18459,-0.627616 -0.62761,-0.627616 h -2.47355 c -0.44302,0 -0.62761,0.184593 -0.62761,0.627616 v 0.553779 c 0,0.443024 0.18459,0.627617 0.62761,0.627617 z m 0,-10.743312 c 0.44302,0 0.62761,-0.184593 0.62761,-0.627617 v -0.553779 c 0,-0.443023 -0.18459,-0.627616 -0.62761,-0.627616 h -2.47355 c -0.44302,0 -0.62761,0.184593 -0.62761,0.627616 v 0.553779 c 0,0.443024 0.18459,0.627617 0.62761,0.627617 z"
         id="path1985" />
      <path
         d="m 173.16575,-68.056274 c 0.31381,0 0.47994,-0.129216 0.47994,-0.332268 0,-0.0923 -0.0185,-0.184593 -0.0738,-0.295349 l -2.25203,-4.411772 c -0.0554,-0.129215 -0.0738,-0.203052 -0.0738,-0.332267 v -0.05538 c 0,-0.110756 0.0554,-0.203053 0.16613,-0.258431 0.99681,-0.387645 2.12282,-1.199854 2.12282,-2.971947 v -0.498401 c 0,-1.772092 -1.14447,-3.396511 -3.69186,-3.396511 h -0.51686 c -0.44302,0 -0.62761,0.184593 -0.62761,0.627616 v 0.553779 c 0,0.443024 0.18459,0.627617 0.62761,0.627617 h 0.51686 c 0.92297,0 1.66134,0.553778 1.66134,1.587499 v 0.498401 c 0,1.033721 -0.73837,1.5875 -1.66134,1.5875 h -0.51686 c -0.44302,0 -0.62761,0.184593 -0.62761,0.627616 v 0.406105 c 0,0.239971 0.0923,0.443023 0.16613,0.590697 l 2.56584,4.854796 c 0.20306,0.387645 0.40611,0.590698 0.84913,0.590698 z m -6.86686,0 c 0.44302,0 0.62761,-0.184593 0.62761,-0.627617 v -11.297091 c 0,-0.443023 -0.18459,-0.627616 -0.62761,-0.627616 h -0.70146 c -0.44302,0 -0.62761,0.184593 -0.62761,0.627616 v 11.297091 c 0,0.443024 0.18459,0.627617 0.62761,0.627617 z"
         id="path1987" />
      <path
         d="m 177.37444,-68.056274 c 0.44302,0 0.62762,-0.184593 0.62762,-0.627617 v -3.802615 c 0,-0.239971 -0.0554,-0.406105 -0.1846,-0.609157 l -0.94142,-1.365988 c -0.12922,-0.203052 -0.29535,-0.27689 -0.44302,-0.27689 -0.20306,0 -0.38765,0.184593 -0.38765,0.516861 v 5.537789 c 0,0.443024 0.18459,0.627617 0.62762,0.627617 z m 6.60843,0 c 0.38764,0 0.55378,-0.239971 0.55378,-0.627617 v -1.513662 c 0,-0.25843 -0.0923,-0.406105 -0.33227,-0.51686 l -0.18459,-0.0923 c -0.20305,-0.0923 -0.35073,-0.203052 -0.47994,-0.406105 l -5.87006,-8.9343 c -0.22151,-0.332268 -0.40611,-0.461483 -0.79375,-0.461483 h -0.27689 c -0.38765,0 -0.55378,0.239971 -0.55378,0.627616 v 1.513663 c 0,0.25843 0.0923,0.406104 0.33227,0.51686 l 0.22151,0.110756 c 0.20305,0.0923 0.35073,0.203052 0.47994,0.406105 l 5.8516,8.915841 c 0.22151,0.332267 0.4061,0.461483 0.79375,0.461483 z m -0.27689,-6.165406 c 0.12921,0.203052 0.29535,0.276889 0.44302,0.276889 0.20306,0 0.38765,-0.184593 0.38765,-0.51686 v -5.519331 c 0,-0.443023 -0.18459,-0.627616 -0.62762,-0.627616 h -0.70145 c -0.44302,0 -0.62762,0.184593 -0.62762,0.627616 v 3.784157 c 0,0.239971 0.0554,0.406104 0.1846,0.609157 z"
         id="path1989" />
      <path
         d="m 190.00057,-67.982437 c 0.33227,0 0.47994,-0.25843 0.47994,-0.609157 v -0.479942 c 0,-0.295349 -0.0738,-0.553779 -0.31381,-0.701453 l -0.27688,-0.184593 c -0.38765,-0.25843 -0.81221,-0.719913 -0.81221,-1.790552 v -5.168604 c 0,-1.070639 0.42456,-1.532122 0.81221,-1.790552 l 0.27688,-0.184593 c 0.23998,-0.147674 0.31381,-0.406105 0.31381,-0.701453 v -0.479942 c 0,-0.350727 -0.14767,-0.609157 -0.47994,-0.609157 h -0.0738 c -0.20305,0 -0.36918,0.03692 -0.51686,0.0923 -2.17819,0.886046 -2.28895,2.547383 -2.28895,4.024127 v 4.46715 c 0,1.476744 0.11076,3.138081 2.28895,4.024127 0.14768,0.05538 0.31381,0.0923 0.51686,0.0923 z m 2.80581,0 c 0.20306,0 0.36919,-0.03692 0.51687,-0.0923 2.17819,-0.886046 2.28895,-2.547383 2.28895,-4.024127 v -4.46715 c 0,-1.476744 -0.11076,-3.138081 -2.28895,-4.024127 -0.14768,-0.05538 -0.31381,-0.0923 -0.51687,-0.0923 h -0.0738 c -0.33227,0 -0.47994,0.25843 -0.47994,0.609157 v 0.479942 c 0,0.295348 0.0738,0.553779 0.3138,0.701453 l 0.27689,0.184593 c 0.38765,0.25843 0.81221,0.719913 0.81221,1.790552 v 5.168604 c 0,1.070639 -0.42456,1.532122 -0.81221,1.790552 l -0.27689,0.184593 c -0.23997,0.147674 -0.3138,0.406104 -0.3138,0.701453 v 0.479942 c 0,0.350727 0.14767,0.609157 0.47994,0.609157 z"
         id="path1991" />
      <path
         d="m 238.06847,-68.056274 c 0.44303,0 0.62762,-0.184593 0.62762,-0.627617 v -2.436627 c 0,-0.25843 0.0738,-0.443023 0.29535,-0.572238 l 0.33226,-0.184593 c 0.22152,-0.129215 0.29535,-0.332268 0.29535,-0.590698 v -0.369186 c 0,-0.25843 -0.0738,-0.461482 -0.29535,-0.590697 l -0.33226,-0.184593 c -0.22151,-0.129216 -0.29535,-0.313809 -0.29535,-0.572239 v -5.79622 c 0,-0.443023 -0.18459,-0.627616 -0.62762,-0.627616 h -0.47994 c -0.38764,0 -0.66453,0.0923 -0.88605,0.406105 l -1.27369,1.550581 c -0.29535,0.332267 -0.27689,0.738372 0.0554,0.996802 l 0.83067,0.646076 c 0.31381,0.23997 0.42456,0.535319 0.42456,0.922964 v 7.402179 c 0,0.443024 0.1846,0.627617 0.62762,0.627617 z m -3.72878,-3.562645 c 0.44303,0 0.62762,-0.184593 0.62762,-0.627616 v -0.627616 c 0,-0.203053 -0.0738,-0.424564 -0.33227,-0.479942 l -0.20305,-0.03692 c -0.29535,-0.05538 -0.33227,-0.184593 -0.33227,-0.387645 0,-0.129215 0.0738,-0.27689 0.22151,-0.461483 l 0.51687,-0.646075 c 0.23997,-0.313808 0.23997,-0.53532 -0.0554,-0.79375 l -0.64608,-0.53532 c -0.29535,-0.25843 -0.55378,-0.25843 -0.79375,0.03692 l -2.04898,2.473546 c -0.16613,0.203052 -0.23997,0.461483 -0.23997,0.719913 v 0.738372 c 0,0.443023 0.18459,0.627616 0.62761,0.627616 z"
         id="path1993" />
      <path
         d="m 245.28603,-67.982437 c 0.33227,0 0.47994,-0.25843 0.47994,-0.609157 v -0.53532 c 0,-0.295349 -0.0738,-0.553779 -0.3138,-0.701453 l -0.1846,-0.129215 c -0.38764,-0.25843 -0.81221,-0.719913 -0.81221,-1.790552 v -5.168604 c 0,-1.070639 0.42457,-1.532122 0.81221,-1.790552 l 0.1846,-0.129215 c 0.23997,-0.147674 0.3138,-0.479942 0.3138,-0.775291 v -0.461482 c 0,-0.350727 -0.14767,-0.609157 -0.47994,-0.609157 h -0.0738 c -0.20306,0 -0.27689,0.03692 -0.42457,0.0923 -2.1782,0.886046 -2.28895,2.547383 -2.28895,4.024127 v 4.46715 c 0,1.476744 0.11075,3.138081 2.28895,4.024127 0.14768,0.05538 0.22151,0.0923 0.42457,0.0923 z m 2.99041,0 c 0.20305,0 0.27689,-0.03692 0.42456,-0.0923 2.1782,-0.886046 2.28896,-2.547383 2.28896,-4.024127 v -4.46715 c 0,-1.476744 -0.11076,-3.138081 -2.28896,-4.024127 -0.14767,-0.05538 -0.22151,-0.0923 -0.42456,-0.0923 h -0.0738 c -0.33227,0 -0.47994,0.25843 -0.47994,0.609157 v 0.53532 c 0,0.295348 0.0738,0.553779 0.31381,0.701453 l 0.18459,0.129215 c 0.38765,0.25843 0.81221,0.719913 0.81221,1.790552 v 5.168604 c 0,1.070639 -0.42456,1.532122 -0.81221,1.790552 l -0.18459,0.129215 c -0.23997,0.147674 -0.31381,0.406104 -0.31381,0.701453 v 0.53532 c 0,0.350727 0.14767,0.609157 0.47994,0.609157 z"
         id="path1995" />
      <path
         d="m 258.44748,-68.056274 c 0.44302,0 0.62762,-0.184593 0.62762,-0.627617 v -11.297091 c 0,-0.443023 -0.1846,-0.627616 -0.62762,-0.627616 h -0.70145 c -0.44303,0 -0.683,0.166134 -0.88605,0.572238 l -1.07064,2.215116 c -0.0738,0.147675 -0.11075,0.313808 -0.11075,0.443024 0,0.221511 0.12921,0.461482 0.38764,0.572238 l 0.4984,0.221511 c 0.40611,0.166134 0.55378,0.424564 0.55378,0.867587 v 7.032993 c 0,0.443024 0.18459,0.627617 0.62762,0.627617 z"
         id="path1997" />
      <path
         d="m 272.29193,-68.056274 c 0.44302,0 0.62761,-0.184593 0.62761,-0.627617 v -0.553779 c 0,-0.443023 -0.18459,-0.627616 -0.62761,-0.627616 h -3.54419 c -0.25843,0 -0.44302,-0.07384 -0.64607,-0.25843 l -1.01526,-0.941424 c -0.33227,-0.295349 -0.66454,-0.295349 -0.97835,0.01846 l -1.14447,1.089099 c -0.23997,0.239971 -0.35073,0.479942 -0.35073,0.79375 v 0.479941 c 0,0.443024 0.18459,0.627617 0.62762,0.627617 z m -0.84913,-5.556249 c 0.66454,-0.682995 1.66134,-1.624419 1.66134,-3.451889 0,-2.196657 -1.43983,-3.119622 -2.45509,-3.525726 -0.12921,-0.05538 -0.27689,-0.0923 -0.38764,-0.0923 -0.33227,0 -0.47995,0.25843 -0.47995,0.609157 v 0.590697 c 0,0.369186 0.12922,0.53532 0.38765,0.701454 0.44302,0.276889 0.97834,0.719912 0.97834,1.679796 0,0.609157 -0.22151,1.236773 -0.95988,1.975145 l -1.75363,1.772093 c -0.31381,0.313808 -0.31381,0.590697 0.0184,0.886046 l 0.49841,0.479942 c 0.33226,0.313808 0.59069,0.313808 0.9045,0 z m -5.42703,-2.731977 c 0.44302,0 0.62761,-0.184593 0.62761,-0.627616 0,-1.015261 0.42457,-1.495203 0.81221,-1.735174 l 0.23997,-0.147674 c 0.23997,-0.129215 0.31381,-0.461483 0.31381,-0.756832 v -0.461482 c 0,-0.350727 -0.14767,-0.609157 -0.47994,-0.609157 h -0.0738 c -0.20305,0 -0.36918,0.05538 -0.47994,0.0923 -2.27049,0.830668 -2.28895,2.990406 -2.28895,3.618022 0,0.443023 0.18459,0.627616 0.62761,0.627616 z"
         id="path1999" />
      <path
         d="m 283.36748,-68.056274 c 0.44303,0 0.62762,-0.184593 0.62762,-0.627617 v -0.553779 c 0,-0.443023 -0.18459,-0.627616 -0.62762,-0.627616 h -3.54418 c -0.25843,0 -0.44303,-0.07384 -0.64608,-0.25843 l -1.01526,-0.941424 c -0.33227,-0.295349 -0.66453,-0.295349 -0.97834,0.01846 l -1.14448,1.089099 c -0.23997,0.239971 -0.35073,0.479942 -0.35073,0.79375 v 0.479941 c 0,0.443024 0.1846,0.627617 0.62762,0.627617 z m -0.84913,-5.556249 c 0.66454,-0.682995 1.66134,-1.624419 1.66134,-3.451889 0,-2.196657 -1.43982,-3.119622 -2.45509,-3.525726 -0.12921,-0.05538 -0.27688,-0.0923 -0.38764,-0.0923 -0.33227,0 -0.47994,0.25843 -0.47994,0.609157 v 0.590697 c 0,0.369186 0.12921,0.53532 0.38764,0.701454 0.44303,0.276889 0.97835,0.719912 0.97835,1.679796 0,0.609157 -0.22152,1.236773 -0.95989,1.975145 l -1.75363,1.772093 c -0.31381,0.313808 -0.31381,0.590697 0.0185,0.886046 l 0.4984,0.479942 c 0.33227,0.313808 0.5907,0.313808 0.90451,0 z m -5.42703,-2.731977 c 0.44302,0 0.62762,-0.184593 0.62762,-0.627616 0,-1.015261 0.42456,-1.495203 0.81221,-1.735174 l 0.23997,-0.147674 c 0.23997,-0.129215 0.31381,-0.461483 0.31381,-0.756832 v -0.461482 c 0,-0.350727 -0.14768,-0.609157 -0.47995,-0.609157 h -0.0738 c -0.20306,0 -0.36919,0.05538 -0.47995,0.0923 -2.27049,0.830668 -2.28895,2.990406 -2.28895,3.618022 0,0.443023 0.18459,0.627616 0.62762,0.627616 z"
         id="path2001" />
    </g>
    <g
       aria-label="WGU-19A/A
control section
06454 ht003050-04"
       id="text910"
       style="font-stretch:semi-expanded;font-size:9.07143px;line-height:1.25;font-family:'Vtg Stencil Marsh';-inkscape-font-specification:'Vtg Stencil Marsh, Semi-Expanded';letter-spacing:1.32292px;stroke-width:0.141741">
      <path
         d="m 143.83716,-115.98276 c 0.21772,0 0.34472,-0.0816 0.42636,-0.28121 l 0.29029,-0.70757 c 0.0635,-0.14515 0.0635,-0.27215 0.009,-0.41729 l -0.47172,-1.17929 c -0.0272,-0.0726 -0.0363,-0.10885 -0.0454,-0.18142 l -0.254,-3.09336 c -0.0181,-0.21772 -0.11793,-0.30843 -0.33565,-0.30843 h -0.35378 c -0.21772,0 -0.29936,0.0907 -0.28122,0.30843 l 0.45357,5.55171 c 0.0181,0.21772 0.11793,0.30843 0.33565,0.30843 z m 2.82122,0 c 0.21771,0 0.3175,-0.0907 0.33564,-0.30843 l 0.0544,-0.70757 c 0.009,-0.127 -0.0363,-0.20864 -0.14514,-0.254 l -0.18143,-0.0726 c -0.0544,-0.0181 -0.0998,-0.0635 -0.11793,-0.11793 l -0.93436,-2.35857 c -0.0635,-0.17236 -0.14514,-0.21771 -0.26307,-0.21771 -0.0998,0 -0.17236,0.0726 -0.24493,0.21771 l -0.20864,0.40821 c -0.0635,0.11793 -0.0635,0.21772 -0.0181,0.33565 l 1.08857,2.78493 c 0.0816,0.20864 0.20864,0.29028 0.42636,0.29028 z m 0.0454,-3.75557 c 0.0816,0.18143 0.18142,0.29029 0.3175,0.29029 0.15421,0 0.24492,-0.11793 0.26307,-0.33565 l 0.16328,-2.05921 c 0.0182,-0.21772 -0.0635,-0.30843 -0.28121,-0.30843 h -0.35379 c -0.21771,0 -0.3175,0.0907 -0.33564,0.30843 l -0.0907,1.12486 c -0.009,0.13607 0,0.26307 0.0544,0.381 z"
         id="path2004" />
      <path
         d="m 152.60771,-115.94647 c 0.0998,0 0.18143,-0.0181 0.254,-0.0454 1.12486,-0.40821 1.12486,-1.60564 1.12486,-1.97757 v -0.84364 c 0,-0.21772 -0.0907,-0.30843 -0.30843,-0.30843 h -1.06136 c -0.21771,0 -0.30842,0.0907 -0.30842,0.30843 v 0.29028 c 0,0.21772 0.0907,0.29029 0.30842,0.29029 h 0.13608 c 0.17235,0 0.27214,0.0635 0.27214,0.22678 v 0.32657 c 0,0.32658 -0.14514,0.58965 -0.39914,0.76201 l -0.13608,0.0907 c -0.11792,0.0726 -0.15421,0.19957 -0.15421,0.34471 v 0.23586 c 0,0.17236 0.0726,0.29936 0.23586,0.29936 z m -1.37885,0 c 0.16328,0 0.23585,-0.127 0.23585,-0.29936 v -0.23586 c 0,-0.14514 -0.0363,-0.27214 -0.15421,-0.34471 l -0.13607,-0.0907 c -0.1905,-0.127 -0.39915,-0.35379 -0.39915,-0.87993 v -2.54 c 0,-0.52615 0.20865,-0.75293 0.39915,-0.87993 l 0.13607,-0.0907 c 0.11793,-0.0726 0.15421,-0.19957 0.15421,-0.34471 v -0.23586 c 0,-0.17236 -0.0726,-0.29936 -0.23585,-0.29936 h -0.0363 c -0.0998,0 -0.18143,0.0181 -0.254,0.0454 -1.07043,0.43543 -1.12486,1.25186 -1.12486,1.97757 v 2.19529 c 0,0.72571 0.0544,1.54214 1.12486,1.97757 0.0726,0.0272 0.15421,0.0454 0.254,0.0454 z m 2.44928,-4.10936 c 0.21772,0 0.30843,-0.0907 0.30843,-0.30843 0,-0.52614 -0.11793,-1.41514 -1.12486,-1.778 -0.0726,-0.0272 -0.15421,-0.0454 -0.254,-0.0454 h -0.0363 c -0.16329,0 -0.23586,0.127 -0.23586,0.29936 v 0.23586 c 0,0.14514 0.0363,0.27214 0.15421,0.34471 l 0.13608,0.0907 c 0.1905,0.127 0.39914,0.35378 0.39914,0.85271 0,0.21772 0.0907,0.30843 0.30843,0.30843 z"
         id="path2006" />
      <path
         d="m 157.99462,-115.94647 c 0.16329,0 0.23586,-0.127 0.23586,-0.29936 v -0.23586 c 0,-0.14514 -0.0363,-0.27214 -0.15422,-0.34471 l -0.13607,-0.0907 c -0.1905,-0.127 -0.39914,-0.35379 -0.39914,-0.87993 v -4.04586 c 0,-0.21772 -0.0907,-0.30843 -0.30843,-0.30843 h -0.34471 c -0.21772,0 -0.30843,0.0907 -0.30843,0.30843 v 3.8735 c 0,0.72571 0.0544,1.54214 1.12485,1.97757 0.0726,0.0272 0.15422,0.0454 0.254,0.0454 z m 1.37886,0 c 0.0998,0 0.18143,-0.0181 0.254,-0.0454 1.07043,-0.43543 1.12486,-1.25186 1.12486,-1.97757 v -3.8735 c 0,-0.21772 -0.0907,-0.30843 -0.30843,-0.30843 h -0.34472 c -0.21771,0 -0.30843,0.0907 -0.30843,0.30843 v 4.04586 c 0,0.52614 -0.20864,0.75293 -0.39914,0.87993 l -0.13607,0.0907 c -0.11793,0.0726 -0.15422,0.19957 -0.15422,0.34471 v 0.23586 c 0,0.17236 0.0726,0.29936 0.23586,0.29936 z"
         id="path2008" />
      <path
         d="m 167.11896,-118.62254 c 0.21771,0 0.30843,-0.0907 0.30843,-0.30843 v -0.27215 c 0,-0.21771 -0.0907,-0.30842 -0.30843,-0.30842 h -3.37458 c -0.21771,0 -0.30842,0.0907 -0.30842,0.30842 v 0.27215 c 0,0.21771 0.0907,0.30843 0.30842,0.30843 z"
         id="path2010" />
      <path
         d="m 172.50586,-115.98276 c 0.21772,0 0.30843,-0.0907 0.30843,-0.30843 v -5.55171 c 0,-0.21772 -0.0907,-0.30843 -0.30843,-0.30843 h -0.34471 c -0.21772,0 -0.33564,0.0816 -0.43543,0.28121 l -0.52614,1.08858 c -0.0363,0.0726 -0.0544,0.15421 -0.0544,0.21771 0,0.10886 0.0635,0.22679 0.1905,0.28121 l 0.24493,0.10886 c 0.19957,0.0816 0.27214,0.20864 0.27214,0.42636 v 3.45621 c 0,0.21772 0.0907,0.30843 0.30843,0.30843 z"
         id="path2012" />
      <path
         d="m 178.29191,-118.78583 c 0.16329,0 0.23586,-0.127 0.23586,-0.29936 v -0.26307 c 0,-0.14514 -0.0363,-0.26307 -0.15421,-0.34471 l -0.0907,-0.0635 c -0.1905,-0.127 -0.39914,-0.37193 -0.39914,-0.73479 0,-0.35378 0.20864,-0.59871 0.39914,-0.72571 l 0.0907,-0.0635 c 0.11793,-0.0817 0.15421,-0.19957 0.15421,-0.34472 v -0.26307 c 0,-0.17236 -0.0726,-0.29936 -0.23586,-0.29936 h -0.0363 c -0.0816,0 -0.13607,0.0181 -0.20864,0.0454 -0.89808,0.32657 -1.12486,1.10672 -1.12486,1.651 0,0.55336 0.22678,1.3335 1.12486,1.66007 0.0726,0.0272 0.15421,0.0454 0.20864,0.0454 z m 0,2.83936 c 0.16329,0 0.23586,-0.127 0.23586,-0.29936 v -0.26307 c 0,-0.14514 -0.0363,-0.26307 -0.15421,-0.34471 l -0.0907,-0.0635 c -0.1905,-0.127 -0.36285,-0.35379 -0.39007,-0.67129 -0.0181,-0.21772 -0.0907,-0.30843 -0.30843,-0.30843 h -0.35378 c -0.21772,0 -0.30843,0.0907 -0.30843,0.30843 0,0.254 0.0544,1.17021 1.12486,1.59657 0.0726,0.0272 0.10885,0.0454 0.20864,0.0454 z m 1.37886,0 c 0.0998,0 0.13607,-0.0181 0.20865,-0.0454 1.07042,-0.43543 1.12485,-1.25186 1.12485,-1.97757 v -2.19529 c 0,-0.72571 -0.0544,-1.54214 -1.12485,-1.97757 -0.0726,-0.0272 -0.10886,-0.0454 -0.20865,-0.0454 h -0.0363 c -0.16329,0 -0.23586,0.127 -0.23586,0.29936 v 0.26307 c 0,0.14515 0.0363,0.27215 0.15421,0.34472 l 0.0907,0.0635 c 0.1905,0.127 0.39914,0.35378 0.39914,0.87993 v 2.54 c 0,0.52614 -0.20864,0.75293 -0.39914,0.87993 l -0.0907,0.0635 c -0.11792,0.0726 -0.15421,0.23585 -0.15421,0.381 v 0.22678 c 0,0.17236 0.0726,0.29936 0.23586,0.29936 z"
         id="path2014" />
      <path
         d="m 187.66118,-115.98276 c 0.21771,0 0.3175,-0.0998 0.254,-0.30843 l -1.72357,-5.56078 c -0.0635,-0.20865 -0.18143,-0.29936 -0.39915,-0.29936 h -0.10885 c -0.21772,0 -0.34472,0.0907 -0.40822,0.29936 l -0.30843,0.99785 c -0.0635,0.20865 0.0181,0.3175 0.1905,0.40822 l 0.0998,0.0454 c 0.39914,0.19957 0.53521,0.49892 0.67128,0.93435 l 0.97972,3.175 c 0.0635,0.20865 0.18143,0.30843 0.39914,0.30843 z m -2.413,-1.09764 c 0.3175,0 0.24493,-0.34471 0.20864,-0.46264 l -0.508,-1.63286 c -0.0544,-0.16329 -0.13607,-0.23586 -0.254,-0.23586 -0.0998,0 -0.19957,0.0726 -0.254,0.23586 l -0.89807,2.88471 c -0.0635,0.20865 0.0363,0.30843 0.254,0.30843 h 0.34471 c 0.21772,0 0.34472,-0.0998 0.39915,-0.30843 l 0.17235,-0.61685 c 0.0272,-0.10886 0.0907,-0.16329 0.20865,-0.17236 z"
         id="path2016" />
      <path
         d="m 190.83466,-115.89204 c 0.127,0 0.20864,-0.0454 0.28121,-0.15422 l 3.3655,-5.207 c 0.0726,-0.10886 0.0998,-0.20864 0.0998,-0.33564 v -0.34472 c 0,-0.21771 -0.0907,-0.30842 -0.30843,-0.30842 h -0.11793 c -0.127,0 -0.20864,0.0453 -0.28121,0.15421 l -3.3655,5.207 c -0.0726,0.10886 -0.0998,0.20864 -0.0998,0.33564 v 0.34472 c 0,0.21771 0.0907,0.30843 0.30843,0.30843 z"
         id="path2018" />
      <path
         d="m 201.19271,-115.98276 c 0.21771,0 0.3175,-0.0998 0.254,-0.30843 l -1.72358,-5.56078 c -0.0635,-0.20865 -0.18142,-0.29936 -0.39914,-0.29936 h -0.10886 c -0.21771,0 -0.34471,0.0907 -0.40821,0.29936 l -0.30843,0.99785 c -0.0635,0.20865 0.0181,0.3175 0.1905,0.40822 l 0.0998,0.0454 c 0.39914,0.19957 0.53521,0.49892 0.67128,0.93435 l 0.97972,3.175 c 0.0635,0.20865 0.18143,0.30843 0.39914,0.30843 z m -2.413,-1.09764 c 0.3175,0 0.24492,-0.34471 0.20864,-0.46264 l -0.508,-1.63286 c -0.0544,-0.16329 -0.13607,-0.23586 -0.254,-0.23586 -0.0998,0 -0.19957,0.0726 -0.254,0.23586 l -0.89807,2.88471 c -0.0635,0.20865 0.0363,0.30843 0.254,0.30843 h 0.34471 c 0.21772,0 0.34472,-0.0998 0.39914,-0.30843 l 0.17236,-0.61685 c 0.0272,-0.10886 0.0907,-0.16329 0.20864,-0.17236 z"
         id="path2020" />
      <path
         d="m 146.91238,-108.71654 c 0.21771,0 0.30843,-0.0907 0.30843,-0.30843 0,-0.52614 -0.11793,-1.41514 -1.12486,-1.778 -0.0726,-0.0272 -0.15422,-0.0454 -0.254,-0.0454 h -0.0363 c -0.16328,0 -0.23585,0.127 -0.23585,0.29936 v 0.23586 c 0,0.14514 0.0363,0.27214 0.15421,0.34471 l 0.13607,0.0907 c 0.1905,0.127 0.39915,0.35379 0.39915,0.85272 0,0.21771 0.0907,0.30843 0.30842,0.30843 z m -1.07043,4.10936 c 0.0998,0 0.18143,-0.0182 0.254,-0.0454 1.12486,-0.42636 1.12486,-1.4605 1.12486,-1.778 0,-0.21772 -0.0907,-0.30843 -0.30843,-0.30843 h -0.34472 c -0.21771,0 -0.30842,0.0907 -0.30842,0.30843 0,0.49893 -0.20865,0.72571 -0.39915,0.85271 l -0.13607,0.0907 c -0.11793,0.0726 -0.15421,0.19957 -0.15421,0.34471 v 0.23586 c 0,0.17236 0.0726,0.29936 0.23585,0.29936 z m -1.37886,0 c 0.16329,0 0.23586,-0.127 0.23586,-0.29936 v -0.23586 c 0,-0.14514 -0.0363,-0.27214 -0.15422,-0.34471 l -0.13607,-0.0907 c -0.1905,-0.127 -0.39914,-0.35378 -0.39914,-0.87993 v -2.54 c 0,-0.52614 0.20864,-0.75293 0.39914,-0.87993 l 0.13607,-0.0907 c 0.11793,-0.0726 0.15422,-0.19957 0.15422,-0.34471 v -0.23586 c 0,-0.17236 -0.0726,-0.29936 -0.23586,-0.29936 h -0.0363 c -0.0998,0 -0.18143,0.0181 -0.254,0.0454 -1.07043,0.43543 -1.12486,1.25186 -1.12486,1.97757 v 2.19529 c 0,0.72571 0.0544,1.54214 1.12486,1.97757 0.0726,0.0272 0.15421,0.0454 0.254,0.0454 z"
         id="path2022" />
      <path
         d="m 151.22886,-104.60718 c 0.16328,0 0.23585,-0.127 0.23585,-0.29936 v -0.23586 c 0,-0.14514 -0.0363,-0.27214 -0.15421,-0.34471 l -0.13607,-0.0907 c -0.1905,-0.127 -0.39915,-0.35378 -0.39915,-0.87993 v -2.54 c 0,-0.52614 0.20865,-0.75293 0.39915,-0.87993 l 0.13607,-0.0907 c 0.11793,-0.0726 0.15421,-0.19957 0.15421,-0.34471 v -0.23586 c 0,-0.17236 -0.0726,-0.29936 -0.23585,-0.29936 h -0.0363 c -0.0998,0 -0.18143,0.0181 -0.254,0.0454 -1.07043,0.43543 -1.12486,1.25186 -1.12486,1.97757 v 2.19529 c 0,0.72571 0.0544,1.54214 1.12486,1.97757 0.0726,0.0272 0.15421,0.0454 0.254,0.0454 z m 1.37885,0 c 0.0998,0 0.18143,-0.0182 0.254,-0.0454 1.07043,-0.43543 1.12486,-1.25186 1.12486,-1.97757 v -2.19529 c 0,-0.72571 -0.0544,-1.54214 -1.12486,-1.97757 -0.0726,-0.0272 -0.15421,-0.0454 -0.254,-0.0454 h -0.0363 c -0.16329,0 -0.23586,0.127 -0.23586,0.29936 v 0.23586 c 0,0.14514 0.0363,0.27214 0.15421,0.34471 l 0.13608,0.0907 c 0.1905,0.127 0.39914,0.35379 0.39914,0.87993 v 2.54 c 0,0.52615 -0.20864,0.75293 -0.39914,0.87993 l -0.13608,0.0907 c -0.11792,0.0726 -0.15421,0.19957 -0.15421,0.34471 v 0.23586 c 0,0.17236 0.0726,0.29936 0.23586,0.29936 z"
         id="path2024" />
      <path
         d="m 157.23262,-104.64347 c 0.21771,0 0.30843,-0.0907 0.30843,-0.30843 v -1.86871 c 0,-0.11793 -0.0272,-0.19957 -0.0907,-0.29936 l -0.46264,-0.67129 c -0.0635,-0.0998 -0.14514,-0.13607 -0.21771,-0.13607 -0.0998,0 -0.1905,0.0907 -0.1905,0.254 v 2.72143 c 0,0.21772 0.0907,0.30843 0.30843,0.30843 z m 3.24757,0 c 0.1905,0 0.27215,-0.11793 0.27215,-0.30843 v -0.74386 c 0,-0.127 -0.0454,-0.19957 -0.16329,-0.254 l -0.0907,-0.0453 c -0.0998,-0.0454 -0.17236,-0.0998 -0.23586,-0.19957 l -2.88472,-4.39058 c -0.10885,-0.16328 -0.19957,-0.22678 -0.39007,-0.22678 h -0.13607 c -0.1905,0 -0.27214,0.11793 -0.27214,0.30843 v 0.74385 c 0,0.127 0.0454,0.19958 0.16328,0.254 l 0.10886,0.0544 c 0.0998,0.0454 0.17236,0.0998 0.23586,0.19957 l 2.87564,4.3815 c 0.10886,0.16329 0.19957,0.22679 0.39007,0.22679 z m -0.13607,-3.02986 c 0.0635,0.0998 0.14514,0.13607 0.21772,0.13607 0.0998,0 0.1905,-0.0907 0.1905,-0.254 v -2.71235 c 0,-0.21772 -0.0907,-0.30843 -0.30843,-0.30843 h -0.34472 c -0.21771,0 -0.30843,0.0907 -0.30843,0.30843 v 1.85964 c 0,0.11793 0.0272,0.19957 0.0907,0.29936 z"
         id="path2026" />
      <path
         d="m 167.20967,-109.92304 c 0.21772,0 0.30843,-0.0907 0.30843,-0.30843 v -0.27214 c 0,-0.21772 -0.0907,-0.30843 -0.30843,-0.30843 h -3.556 c -0.21771,0 -0.30843,0.0907 -0.30843,0.30843 v 0.27214 c 0,0.21771 0.0907,0.30843 0.30843,0.30843 z m -1.60564,5.27957 c 0.21771,0 0.30843,-0.0907 0.30843,-0.30843 v -3.937 c 0,-0.21771 -0.0907,-0.30843 -0.30843,-0.30843 h -0.34472 c -0.21771,0 -0.30843,0.0907 -0.30843,0.30843 v 3.937 c 0,0.21772 0.0907,0.30843 0.30843,0.30843 z"
         id="path2028" />
      <path
         d="m 174.13872,-104.64347 c 0.15421,0 0.23586,-0.0635 0.23586,-0.16329 0,-0.0453 -0.009,-0.0907 -0.0363,-0.14514 l -1.10671,-2.16807 c -0.0272,-0.0635 -0.0363,-0.0998 -0.0363,-0.16329 v -0.0272 c 0,-0.0544 0.0272,-0.0998 0.0816,-0.127 0.48986,-0.1905 1.04322,-0.58964 1.04322,-1.4605 v -0.24493 c 0,-0.87086 -0.56243,-1.66914 -1.81429,-1.66914 h -0.254 c -0.21771,0 -0.30843,0.0907 -0.30843,0.30843 v 0.27214 c 0,0.21771 0.0907,0.30843 0.30843,0.30843 h 0.254 c 0.45357,0 0.81643,0.27214 0.81643,0.78014 v 0.24493 c 0,0.508 -0.36286,0.78014 -0.81643,0.78014 h -0.254 c -0.21771,0 -0.30843,0.0907 -0.30843,0.30843 v 0.19957 c 0,0.11793 0.0454,0.21772 0.0816,0.29029 l 1.26093,2.38578 c 0.0998,0.1905 0.19957,0.29029 0.41728,0.29029 z m -3.37457,0 c 0.21771,0 0.30843,-0.0907 0.30843,-0.30843 v -5.55171 c 0,-0.21772 -0.0907,-0.30843 -0.30843,-0.30843 h -0.34472 c -0.21771,0 -0.30842,0.0907 -0.30842,0.30843 v 5.55171 c 0,0.21772 0.0907,0.30843 0.30842,0.30843 z"
         id="path2030" />
      <path
         d="m 178.29191,-104.60718 c 0.16329,0 0.23586,-0.127 0.23586,-0.29936 v -0.23586 c 0,-0.14514 -0.0363,-0.27214 -0.15421,-0.34471 l -0.13607,-0.0907 c -0.1905,-0.127 -0.39915,-0.35378 -0.39915,-0.87993 v -2.54 c 0,-0.52614 0.20865,-0.75293 0.39915,-0.87993 l 0.13607,-0.0907 c 0.11793,-0.0726 0.15421,-0.19957 0.15421,-0.34471 v -0.23586 c 0,-0.17236 -0.0726,-0.29936 -0.23586,-0.29936 h -0.0363 c -0.0998,0 -0.18143,0.0181 -0.254,0.0454 -1.07043,0.43543 -1.12486,1.25186 -1.12486,1.97757 v 2.19529 c 0,0.72571 0.0544,1.54214 1.12486,1.97757 0.0726,0.0272 0.15421,0.0454 0.254,0.0454 z m 1.37886,0 c 0.0998,0 0.18143,-0.0182 0.254,-0.0454 1.07043,-0.43543 1.12486,-1.25186 1.12486,-1.97757 v -2.19529 c 0,-0.72571 -0.0544,-1.54214 -1.12486,-1.97757 -0.0726,-0.0272 -0.15421,-0.0454 -0.254,-0.0454 h -0.0363 c -0.16329,0 -0.23586,0.127 -0.23586,0.29936 v 0.23586 c 0,0.14514 0.0363,0.27214 0.15421,0.34471 l 0.13608,0.0907 c 0.1905,0.127 0.39914,0.35379 0.39914,0.87993 v 2.54 c 0,0.52615 -0.20864,0.75293 -0.39914,0.87993 l -0.13608,0.0907 c -0.11792,0.0726 -0.15421,0.19957 -0.15421,0.34471 v 0.23586 c 0,0.17236 0.0726,0.29936 0.23586,0.29936 z"
         id="path2032" />
      <path
         d="m 184.29568,-104.64347 c 0.21771,0 0.30843,-0.0907 0.30843,-0.30843 v -5.55171 c 0,-0.21772 -0.0907,-0.30843 -0.30843,-0.30843 h -0.34472 c -0.21771,0 -0.30843,0.0907 -0.30843,0.30843 v 5.55171 c 0,0.21772 0.0907,0.30843 0.30843,0.30843 z m 3.21128,0 c 0.21772,0 0.30843,-0.0907 0.30843,-0.30843 v -0.27214 c 0,-0.21772 -0.0907,-0.30843 -0.30843,-0.30843 h -1.72357 c -0.21771,0 -0.30843,0.0907 -0.30843,0.30843 v 0.27214 c 0,0.21772 0.0907,0.30843 0.30843,0.30843 z"
         id="path2034" />
      <path
         d="m 198.58921,-104.60718 c 0.16328,0 0.23585,-0.127 0.23585,-0.29936 v -0.22679 c 0,-0.14514 -0.0363,-0.26307 -0.16328,-0.33564 l -0.18143,-0.10886 c -0.18143,-0.10885 -0.30843,-0.29028 -0.33564,-0.49893 -0.0272,-0.1905 -0.0998,-0.27214 -0.29029,-0.27214 h -0.40821 c -0.1905,0 -0.27215,0.0816 -0.27215,0.27214 0,0.62593 0.59872,1.46958 1.29722,1.46958 z m 1.44235,0 c 0.5715,0 1.35165,-0.68036 1.35165,-1.75079 0,-0.85271 -0.48986,-1.30629 -1.26093,-1.64193 l -1.37886,-0.59871 c -0.45357,-0.19957 -0.60779,-0.42636 -0.60779,-0.78922 0,-0.29936 0.14515,-0.42636 0.37193,-0.53521 l 0.15422,-0.0726 c 0.127,-0.0454 0.16328,-0.18143 0.16328,-0.32658 v -0.22678 c 0,-0.17236 -0.0635,-0.29029 -0.22678,-0.29936 h -0.0907 c -0.39914,0 -1.3335,0.39007 -1.3335,1.54215 0,0.83457 0.46265,1.27907 1.03415,1.524 l 1.47864,0.64407 c 0.49893,0.21771 0.73478,0.46264 0.73478,0.87085 0,0.35379 -0.18142,0.56243 -0.39914,0.70758 l -0.16328,0.10885 c -0.11793,0.0726 -0.16329,0.17236 -0.16329,0.3175 v 0.22679 c 0,0.17236 0.0726,0.29936 0.23586,0.29936 z m 1.04322,-4.46315 c 0.1905,0 0.27214,-0.0816 0.27214,-0.27214 0,-0.58057 -0.52614,-1.50586 -1.32443,-1.50586 h -0.0907 c -0.16329,0 -0.23586,0.127 -0.23586,0.29936 v 0.22678 c 0,0.14515 0.0272,0.28122 0.15421,0.34472 l 0.17236,0.0998 c 0.13607,0.0726 0.29936,0.28122 0.34472,0.53522 0.0363,0.1905 0.0998,0.27214 0.29028,0.27214 z"
         id="path2036" />
      <path
         d="m 204.59297,-104.64347 c 0.21772,0 0.30843,-0.0907 0.30843,-0.30843 v -2.05921 c 0,-0.1905 0.0816,-0.27215 0.27214,-0.27215 h 0.56243 c 0.21772,0 0.30843,-0.0907 0.30843,-0.30842 v -0.27215 c 0,-0.21771 -0.0907,-0.30843 -0.30843,-0.30843 h -0.56243 c -0.1905,0 -0.27214,-0.0816 -0.27214,-0.27214 v -2.05921 c 0,-0.21772 -0.0907,-0.30843 -0.30843,-0.30843 h -0.34471 c -0.21772,0 -0.30843,0.0907 -0.30843,0.30843 v 5.55171 c 0,0.21772 0.0907,0.30843 0.30843,0.30843 z m 2.70329,0 c 0.21771,0 0.30843,-0.0907 0.30843,-0.30843 v -0.27214 c 0,-0.21772 -0.0907,-0.30843 -0.30843,-0.30843 h -1.21557 c -0.21772,0 -0.30843,0.0907 -0.30843,0.30843 v 0.27214 c 0,0.21772 0.0907,0.30843 0.30843,0.30843 z m 0,-5.27957 c 0.21771,0 0.30843,-0.0907 0.30843,-0.30843 v -0.27214 c 0,-0.21772 -0.0907,-0.30843 -0.30843,-0.30843 h -1.21557 c -0.21772,0 -0.30843,0.0907 -0.30843,0.30843 v 0.27214 c 0,0.21771 0.0907,0.30843 0.30843,0.30843 z"
         id="path2038" />
      <path
         d="m 214.57002,-108.71654 c 0.21772,0 0.30843,-0.0907 0.30843,-0.30843 0,-0.52614 -0.11793,-1.41514 -1.12485,-1.778 -0.0726,-0.0272 -0.15422,-0.0454 -0.254,-0.0454 h -0.0363 c -0.16329,0 -0.23586,0.127 -0.23586,0.29936 v 0.23586 c 0,0.14514 0.0363,0.27214 0.15422,0.34471 l 0.13607,0.0907 c 0.1905,0.127 0.39914,0.35379 0.39914,0.85272 0,0.21771 0.0907,0.30843 0.30843,0.30843 z m -1.07042,4.10936 c 0.0998,0 0.18142,-0.0182 0.254,-0.0454 1.12485,-0.42636 1.12485,-1.4605 1.12485,-1.778 0,-0.21772 -0.0907,-0.30843 -0.30843,-0.30843 h -0.34471 c -0.21771,0 -0.30843,0.0907 -0.30843,0.30843 0,0.49893 -0.20864,0.72571 -0.39914,0.85271 l -0.13607,0.0907 c -0.11793,0.0726 -0.15422,0.19957 -0.15422,0.34471 v 0.23586 c 0,0.17236 0.0726,0.29936 0.23586,0.29936 z m -1.37886,0 c 0.16328,0 0.23586,-0.127 0.23586,-0.29936 v -0.23586 c 0,-0.14514 -0.0363,-0.27214 -0.15422,-0.34471 l -0.13607,-0.0907 c -0.1905,-0.127 -0.39914,-0.35378 -0.39914,-0.87993 v -2.54 c 0,-0.52614 0.20864,-0.75293 0.39914,-0.87993 l 0.13607,-0.0907 c 0.11793,-0.0726 0.15422,-0.19957 0.15422,-0.34471 v -0.23586 c 0,-0.17236 -0.0726,-0.29936 -0.23586,-0.29936 h -0.0363 c -0.0998,0 -0.18143,0.0181 -0.254,0.0454 -1.07043,0.43543 -1.12486,1.25186 -1.12486,1.97757 v 2.19529 c 0,0.72571 0.0544,1.54214 1.12486,1.97757 0.0726,0.0272 0.15422,0.0454 0.254,0.0454 z"
         id="path2040" />
      <path
         d="m 221.33579,-109.92304 c 0.21771,0 0.30843,-0.0907 0.30843,-0.30843 v -0.27214 c 0,-0.21772 -0.0907,-0.30843 -0.30843,-0.30843 h -3.556 c -0.21772,0 -0.30843,0.0907 -0.30843,0.30843 v 0.27214 c 0,0.21771 0.0907,0.30843 0.30843,0.30843 z m -1.60565,5.27957 c 0.21772,0 0.30843,-0.0907 0.30843,-0.30843 v -3.937 c 0,-0.21771 -0.0907,-0.30843 -0.30843,-0.30843 h -0.34471 c -0.21772,0 -0.30843,0.0907 -0.30843,0.30843 v 3.937 c 0,0.21772 0.0907,0.30843 0.30843,0.30843 z"
         id="path2042" />
      <path
         d="m 226.49591,-104.64347 c 0.21771,0 0.30842,-0.0907 0.30842,-0.30843 v -5.55171 c 0,-0.21772 -0.0907,-0.30843 -0.30842,-0.30843 h -0.34472 c -0.21771,0 -0.30843,0.0907 -0.30843,0.30843 v 5.55171 c 0,0.21772 0.0907,0.30843 0.30843,0.30843 z"
         id="path2044" />
      <path
         d="m 232.41803,-104.60718 c 0.16328,0 0.23585,-0.127 0.23585,-0.29936 v -0.23586 c 0,-0.14514 -0.0363,-0.27214 -0.15421,-0.34471 l -0.13607,-0.0907 c -0.1905,-0.127 -0.39915,-0.35378 -0.39915,-0.87993 v -2.54 c 0,-0.52614 0.20865,-0.75293 0.39915,-0.87993 l 0.13607,-0.0907 c 0.11793,-0.0726 0.15421,-0.19957 0.15421,-0.34471 v -0.23586 c 0,-0.17236 -0.0726,-0.29936 -0.23585,-0.29936 h -0.0363 c -0.0998,0 -0.18143,0.0181 -0.254,0.0454 -1.07043,0.43543 -1.12486,1.25186 -1.12486,1.97757 v 2.19529 c 0,0.72571 0.0544,1.54214 1.12486,1.97757 0.0726,0.0272 0.15421,0.0454 0.254,0.0454 z m 1.37885,0 c 0.0998,0 0.18143,-0.0182 0.254,-0.0454 1.07043,-0.43543 1.12486,-1.25186 1.12486,-1.97757 v -2.19529 c 0,-0.72571 -0.0544,-1.54214 -1.12486,-1.97757 -0.0726,-0.0272 -0.15421,-0.0454 -0.254,-0.0454 h -0.0363 c -0.16329,0 -0.23586,0.127 -0.23586,0.29936 v 0.23586 c 0,0.14514 0.0363,0.27214 0.15421,0.34471 l 0.13608,0.0907 c 0.1905,0.127 0.39914,0.35379 0.39914,0.87993 v 2.54 c 0,0.52615 -0.20864,0.75293 -0.39914,0.87993 l -0.13608,0.0907 c -0.11792,0.0726 -0.15421,0.19957 -0.15421,0.34471 v 0.23586 c 0,0.17236 0.0726,0.29936 0.23586,0.29936 z"
         id="path2046" />
      <path
         d="m 238.42179,-104.64347 c 0.21772,0 0.30843,-0.0907 0.30843,-0.30843 v -1.86871 c 0,-0.11793 -0.0272,-0.19957 -0.0907,-0.29936 l -0.46264,-0.67129 c -0.0635,-0.0998 -0.14515,-0.13607 -0.21772,-0.13607 -0.0998,0 -0.1905,0.0907 -0.1905,0.254 v 2.72143 c 0,0.21772 0.0907,0.30843 0.30843,0.30843 z m 3.24758,0 c 0.1905,0 0.27214,-0.11793 0.27214,-0.30843 v -0.74386 c 0,-0.127 -0.0454,-0.19957 -0.16329,-0.254 l -0.0907,-0.0453 c -0.0998,-0.0454 -0.17236,-0.0998 -0.23586,-0.19957 l -2.88471,-4.39058 c -0.10886,-0.16328 -0.19957,-0.22678 -0.39007,-0.22678 h -0.13608 c -0.1905,0 -0.27214,0.11793 -0.27214,0.30843 v 0.74385 c 0,0.127 0.0454,0.19958 0.16329,0.254 l 0.10885,0.0544 c 0.0998,0.0454 0.17236,0.0998 0.23586,0.19957 l 2.87565,4.3815 c 0.10885,0.16329 0.19957,0.22679 0.39007,0.22679 z m -0.13607,-3.02986 c 0.0635,0.0998 0.14514,0.13607 0.21771,0.13607 0.0998,0 0.1905,-0.0907 0.1905,-0.254 v -2.71235 c 0,-0.21772 -0.0907,-0.30843 -0.30843,-0.30843 h -0.34471 c -0.21772,0 -0.30843,0.0907 -0.30843,0.30843 v 1.85964 c 0,0.11793 0.0272,0.19957 0.0907,0.29936 z"
         id="path2048" />
      <path
         d="m 144.41773,-93.267896 c 0.16329,0 0.23586,-0.127 0.23586,-0.299358 v -0.263071 c 0,-0.145143 -0.0363,-0.272143 -0.15421,-0.344714 l -0.0907,-0.0635 c -0.1905,-0.127 -0.39914,-0.353786 -0.39914,-0.879929 v -2.540001 c 0,-0.526143 0.20864,-0.752928 0.39914,-0.879928 l 0.0907,-0.0635 c 0.11793,-0.07257 0.15421,-0.235857 0.15421,-0.381 v -0.226786 c 0,-0.172357 -0.0726,-0.299357 -0.23586,-0.299357 h -0.0363 c -0.0998,0 -0.13607,0.01814 -0.20864,0.04536 -1.07043,0.435428 -1.12486,1.251857 -1.12486,1.977572 v 2.195286 c 0,0.725714 0.0544,1.542143 1.12486,1.977572 0.0726,0.02721 0.10885,0.04536 0.20864,0.04536 z m 1.46958,0 c 0.0998,0 0.13607,-0.01814 0.20864,-0.04536 1.07043,-0.435429 1.12486,-1.251858 1.12486,-1.977572 v -2.195286 c 0,-0.725715 -0.0544,-1.542144 -1.12486,-1.977572 -0.0726,-0.02721 -0.10886,-0.04536 -0.20864,-0.04536 h -0.0363 c -0.16329,0 -0.23586,0.127 -0.23586,0.299357 v 0.263071 c 0,0.145143 0.0363,0.272143 0.15422,0.344715 l 0.0907,0.0635 c 0.1905,0.127 0.39915,0.353785 0.39915,0.879928 v 2.540001 c 0,0.526143 -0.20865,0.752929 -0.39915,0.879929 l -0.0907,0.0635 c -0.11793,0.07257 -0.15422,0.199571 -0.15422,0.344714 v 0.263071 c 0,0.172358 0.0726,0.299358 0.23586,0.299358 z"
         id="path2050" />
      <path
         d="m 152.60771,-93.267896 c 0.0816,0 0.13607,-0.01814 0.20865,-0.04536 0.89807,-0.326572 1.12485,-1.106715 1.12485,-1.651001 0,-0.553357 -0.22678,-1.3335 -1.12485,-1.660072 -0.0726,-0.02721 -0.15422,-0.04536 -0.20865,-0.04536 h -0.0363 c -0.16329,0 -0.23586,0.127 -0.23586,0.299358 v 0.263071 c 0,0.145143 0.0363,0.263071 0.15421,0.344714 l 0.0907,0.0635 c 0.1905,0.127 0.39914,0.371929 0.39914,0.734786 0,0.353786 -0.20864,0.598715 -0.39914,0.725715 l -0.0907,0.0635 c -0.11792,0.08164 -0.15421,0.199571 -0.15421,0.344714 v 0.263071 c 0,0.172358 0.0726,0.299358 0.23586,0.299358 z m 1.02508,-4.290787 c 0.21771,0 0.30842,-0.09071 0.30842,-0.308428 0,-0.254 -0.0544,-1.170215 -1.12485,-1.596572 -0.0726,-0.02721 -0.10886,-0.04536 -0.20865,-0.04536 h -0.0363 c -0.16329,0 -0.23586,0.127 -0.23586,0.299357 v 0.263071 c 0,0.145143 0.0363,0.263072 0.15421,0.344715 l 0.0907,0.0635 c 0.1905,0.127 0.36286,0.353785 0.39007,0.671286 0.0181,0.217714 0.0907,0.308428 0.30843,0.308428 z m -2.40393,4.290787 c 0.16328,0 0.23585,-0.127 0.23585,-0.299358 v -0.263071 c 0,-0.145143 -0.0363,-0.272143 -0.15421,-0.344714 l -0.0907,-0.0635 c -0.1905,-0.127 -0.39914,-0.353786 -0.39914,-0.879929 v -2.540001 c 0,-0.526143 0.20864,-0.752928 0.39914,-0.879928 l 0.0907,-0.0635 c 0.11793,-0.07257 0.15421,-0.235857 0.15421,-0.381 v -0.226786 c 0,-0.172357 -0.0726,-0.299357 -0.23585,-0.299357 h -0.0363 c -0.0998,0 -0.13607,0.01814 -0.20864,0.04536 -1.07043,0.435428 -1.12486,1.251857 -1.12486,1.977572 v 2.195286 c 0,0.725714 0.0544,1.542143 1.12486,1.977572 0.0726,0.02721 0.10885,0.04536 0.20864,0.04536 z"
         id="path2052" />
      <path
         d="m 159.84519,-93.304182 c 0.21772,0 0.30843,-0.09071 0.30843,-0.308429 v -1.197428 c 0,-0.127 0.0363,-0.217715 0.14514,-0.281215 l 0.16329,-0.09071 c 0.10886,-0.0635 0.14514,-0.163286 0.14514,-0.290286 v -0.181428 c 0,-0.127 -0.0363,-0.226786 -0.14514,-0.290286 l -0.16329,-0.09072 c -0.10885,-0.0635 -0.14514,-0.154214 -0.14514,-0.281214 v -2.848429 c 0,-0.217714 -0.0907,-0.308429 -0.30843,-0.308429 h -0.23586 c -0.1905,0 -0.32657,0.04536 -0.43542,0.199572 l -0.62593,0.762 c -0.14515,0.163286 -0.13607,0.362857 0.0272,0.489857 l 0.40822,0.3175 c 0.15421,0.117929 0.20864,0.263072 0.20864,0.453572 v 3.637643 c 0,0.217715 0.0907,0.308429 0.30843,0.308429 z m -1.83243,-1.750786 c 0.21772,0 0.30843,-0.09071 0.30843,-0.308429 v -0.308428 c 0,-0.09979 -0.0363,-0.208643 -0.16328,-0.235858 l -0.0998,-0.01814 c -0.14514,-0.02721 -0.16329,-0.09072 -0.16329,-0.1905 0,-0.0635 0.0363,-0.136072 0.10886,-0.226786 l 0.254,-0.3175 c 0.11793,-0.154215 0.11793,-0.263072 -0.0272,-0.390072 l -0.3175,-0.263071 c -0.14515,-0.127 -0.27215,-0.127 -0.39007,0.01814 l -1.00693,1.215571 c -0.0817,0.09979 -0.11793,0.226786 -0.11793,0.353786 v 0.362857 c 0,0.217715 0.0907,0.308429 0.30843,0.308429 z"
         id="path2054" />
      <path
         d="m 166.03946,-94.147825 c -0.14515,-0.117929 -0.27215,-0.136072 -0.45358,-0.09071 -0.0544,0.0091 -0.127,0.01814 -0.20864,0.01814 -0.48078,0 -0.97971,-0.290285 -1.05228,-0.834571 -0.0272,-0.217714 -0.127,-0.308429 -0.34472,-0.308429 h -0.32657 c -0.21771,0 -0.33564,0.09072 -0.30843,0.308429 0.0998,0.834571 0.67129,1.787072 2.06829,1.787072 0.32657,0 0.635,-0.0635 0.92528,-0.254 0.14515,-0.09979 0.14515,-0.263072 0,-0.371929 z m 0.90714,-0.498929 c 0.15421,0.117929 0.29936,0.09072 0.39007,-0.07257 0.0907,-0.163286 0.15422,-0.408215 0.15422,-0.689429 0,-0.798286 -0.48986,-1.8415 -1.68729,-2.004786 -0.21772,-0.02721 -0.33564,0.02721 -0.43543,0.217714 l -0.18143,0.335643 c -0.0907,0.163286 -0.0454,0.326572 0.17236,0.326572 0.72571,0 1.15207,0.526143 1.15207,1.143 0,0.0635 0,0.09979 -0.009,0.154214 -0.0272,0.154215 0.0181,0.244929 0.13607,0.344715 z m 0.29936,-4.717143 c -0.0454,-0.117929 -0.127,-0.163286 -0.21772,-0.163286 -0.0544,0 -0.65314,0.05443 -1.36071,0.05443 h -2.01386 c -0.21771,0 -0.30843,0.09072 -0.30843,0.308429 v 2.322286 c 0,0.217714 0.0907,0.308429 0.30843,0.308429 h 0.34471 c 0.21772,0 0.30843,-0.09072 0.30843,-0.308429 v -1.514929 c 0,-0.154214 0.0726,-0.226785 0.22679,-0.226785 h 0.94343 c 0.70757,0 1.31535,-0.05443 1.74171,-0.344715 0.127,-0.09071 0.14515,-0.199571 0.0907,-0.3175 z"
         id="path2056" />
      <path
         d="m 173.37672,-93.304182 c 0.21771,0 0.30843,-0.09071 0.30843,-0.308429 v -1.197428 c 0,-0.127 0.0363,-0.217715 0.14514,-0.281215 l 0.16329,-0.09071 c 0.10885,-0.0635 0.14514,-0.163286 0.14514,-0.290286 v -0.181428 c 0,-0.127 -0.0363,-0.226786 -0.14514,-0.290286 l -0.16329,-0.09072 c -0.10886,-0.0635 -0.14514,-0.154214 -0.14514,-0.281214 v -2.848429 c 0,-0.217714 -0.0907,-0.308429 -0.30843,-0.308429 h -0.23586 c -0.1905,0 -0.32657,0.04536 -0.43543,0.199572 l -0.62592,0.762 c -0.14515,0.163286 -0.13608,0.362857 0.0272,0.489857 l 0.40821,0.3175 c 0.15422,0.117929 0.20865,0.263072 0.20865,0.453572 v 3.637643 c 0,0.217715 0.0907,0.308429 0.30843,0.308429 z m -1.83243,-1.750786 c 0.21772,0 0.30843,-0.09071 0.30843,-0.308429 v -0.308428 c 0,-0.09979 -0.0363,-0.208643 -0.16329,-0.235858 l -0.0998,-0.01814 c -0.14514,-0.02721 -0.16329,-0.09072 -0.16329,-0.1905 0,-0.0635 0.0363,-0.136072 0.10886,-0.226786 l 0.254,-0.3175 c 0.11793,-0.154215 0.11793,-0.263072 -0.0272,-0.390072 l -0.3175,-0.263071 c -0.14515,-0.127 -0.27215,-0.127 -0.39008,0.01814 l -1.00692,1.215571 c -0.0816,0.09979 -0.11793,0.226786 -0.11793,0.353786 v 0.362857 c 0,0.217715 0.0907,0.308429 0.30843,0.308429 z"
         id="path2058" />
      <path
         d="m 184.29568,-93.304182 c 0.21771,0 0.30843,-0.09071 0.30843,-0.308429 v -1.886857 c 0,-0.217714 0.0907,-0.335643 0.29935,-0.399143 l 0.17236,-0.04536 c 0.15421,-0.04536 0.21771,-0.136072 0.21771,-0.290286 v -0.308429 c 0,-0.154214 -0.0635,-0.244928 -0.21771,-0.290285 l -0.17236,-0.04536 c -0.20864,-0.05443 -0.29935,-0.172357 -0.29935,-0.390071 v -1.895929 c 0,-0.217714 -0.0907,-0.308429 -0.30843,-0.308429 h -0.34472 c -0.21771,0 -0.30843,0.09072 -0.30843,0.308429 v 5.551715 c 0,0.217715 0.0907,0.308429 0.30843,0.308429 z m 3.21128,0 c 0.21772,0 0.30843,-0.09071 0.30843,-0.308429 v -5.551715 c 0,-0.217714 -0.0907,-0.308429 -0.30843,-0.308429 h -0.34471 c -0.21772,0 -0.30843,0.09072 -0.30843,0.308429 v 1.895929 c 0,0.217714 -0.0907,0.335643 -0.29936,0.390071 l -0.17235,0.04536 c -0.15422,0.04536 -0.21772,0.136071 -0.21772,0.290285 v 0.308429 c 0,0.154214 0.0635,0.244929 0.21772,0.290286 l 0.17235,0.04536 c 0.20865,0.0635 0.29936,0.181429 0.29936,0.399143 v 1.886857 c 0,0.217715 0.0907,0.308429 0.30843,0.308429 z"
         id="path2060" />
      <path
         d="m 194.27273,-98.583754 c 0.21771,0 0.30843,-0.09072 0.30843,-0.308429 v -0.272143 c 0,-0.217714 -0.0907,-0.308429 -0.30843,-0.308429 h -3.556 c -0.21772,0 -0.30843,0.09072 -0.30843,0.308429 v 0.272143 c 0,0.217714 0.0907,0.308429 0.30843,0.308429 z m -1.60564,5.279572 c 0.21771,0 0.30843,-0.09071 0.30843,-0.308429 v -3.937 c 0,-0.217715 -0.0907,-0.308429 -0.30843,-0.308429 h -0.34472 c -0.21771,0 -0.30843,0.09071 -0.30843,0.308429 v 3.937 c 0,0.217715 0.0907,0.308429 0.30843,0.308429 z"
         id="path2062" />
      <path
         d="m 198.54385,-93.267896 c 0.16328,0 0.23586,-0.127 0.23586,-0.299358 v -0.263071 c 0,-0.145143 -0.0363,-0.272143 -0.15422,-0.344714 l -0.0907,-0.0635 c -0.1905,-0.127 -0.39915,-0.353786 -0.39915,-0.879929 v -2.540001 c 0,-0.526143 0.20865,-0.752928 0.39915,-0.879928 l 0.0907,-0.0635 c 0.11793,-0.07257 0.15422,-0.235857 0.15422,-0.381 v -0.226786 c 0,-0.172357 -0.0726,-0.299357 -0.23586,-0.299357 h -0.0363 c -0.0998,0 -0.13607,0.01814 -0.20864,0.04536 -1.07043,0.435428 -1.12486,1.251857 -1.12486,1.977572 v 2.195286 c 0,0.725714 0.0544,1.542143 1.12486,1.977572 0.0726,0.02721 0.10886,0.04536 0.20864,0.04536 z m 1.46957,0 c 0.0998,0 0.13607,-0.01814 0.20864,-0.04536 1.07043,-0.435429 1.12486,-1.251858 1.12486,-1.977572 v -2.195286 c 0,-0.725715 -0.0544,-1.542144 -1.12486,-1.977572 -0.0726,-0.02721 -0.10885,-0.04536 -0.20864,-0.04536 h -0.0363 c -0.16328,0 -0.23585,0.127 -0.23585,0.299357 v 0.263071 c 0,0.145143 0.0363,0.272143 0.15421,0.344715 l 0.0907,0.0635 c 0.1905,0.127 0.39914,0.353785 0.39914,0.879928 v 2.540001 c 0,0.526143 -0.20864,0.752929 -0.39914,0.879929 l -0.0907,0.0635 c -0.11793,0.07257 -0.15421,0.199571 -0.15421,0.344714 v 0.263071 c 0,0.172358 0.0726,0.299358 0.23585,0.299358 z"
         id="path2064" />
      <path
         d="m 205.30961,-93.267896 c 0.16329,0 0.23586,-0.127 0.23586,-0.299358 v -0.263071 c 0,-0.145143 -0.0363,-0.272143 -0.15421,-0.344714 l -0.0907,-0.0635 c -0.1905,-0.127 -0.39914,-0.353786 -0.39914,-0.879929 v -2.540001 c 0,-0.526143 0.20864,-0.752928 0.39914,-0.879928 l 0.0907,-0.0635 c 0.11793,-0.07257 0.15421,-0.235857 0.15421,-0.381 v -0.226786 c 0,-0.172357 -0.0726,-0.299357 -0.23586,-0.299357 h -0.0363 c -0.0998,0 -0.13607,0.01814 -0.20864,0.04536 -1.07043,0.435428 -1.12486,1.251857 -1.12486,1.977572 v 2.195286 c 0,0.725714 0.0544,1.542143 1.12486,1.977572 0.0726,0.02721 0.10885,0.04536 0.20864,0.04536 z m 1.46958,0 c 0.0998,0 0.13607,-0.01814 0.20864,-0.04536 1.07043,-0.435429 1.12486,-1.251858 1.12486,-1.977572 v -2.195286 c 0,-0.725715 -0.0544,-1.542144 -1.12486,-1.977572 -0.0726,-0.02721 -0.10886,-0.04536 -0.20864,-0.04536 h -0.0363 c -0.16329,0 -0.23586,0.127 -0.23586,0.299357 v 0.263071 c 0,0.145143 0.0363,0.272143 0.15422,0.344715 l 0.0907,0.0635 c 0.1905,0.127 0.39915,0.353785 0.39915,0.879928 v 2.540001 c 0,0.526143 -0.20865,0.752929 -0.39915,0.879929 l -0.0907,0.0635 c -0.11793,0.07257 -0.15422,0.199571 -0.15422,0.344714 v 0.263071 c 0,0.172358 0.0726,0.299358 0.23586,0.299358 z"
         id="path2066" />
      <path
         d="m 212.12981,-93.267896 c 0.16329,0 0.23586,-0.127 0.23586,-0.299358 v -0.263071 c 0,-0.145143 -0.0272,-0.281214 -0.15422,-0.344714 l -0.127,-0.0635 c -0.19957,-0.09979 -0.39914,-0.353786 -0.39914,-0.852715 0,-0.217714 -0.0907,-0.308428 -0.30843,-0.308428 h -0.34471 c -0.21772,0 -0.30843,0.09071 -0.30843,0.308428 0,0.308429 0.009,1.369786 1.12486,1.778001 0.0726,0.02721 0.1905,0.04536 0.24492,0.04536 z m 1.10671,-0.299358 c 0,0.172358 0.0726,0.299358 0.23586,0.299358 0.0544,0 0.14514,-0.01814 0.20864,-0.04536 0.49893,-0.199572 1.17929,-0.653143 1.17929,-1.732644 0,-0.362857 -0.0816,-0.798286 -0.46264,-1.179286 -0.0635,-0.0635 -0.0816,-0.09071 -0.0816,-0.154214 v -0.02721 c 0,-0.0635 0.0181,-0.09979 0.0816,-0.154214 0.381,-0.371929 0.46264,-0.807358 0.46264,-1.170215 0,-1.0795 -0.68036,-1.533072 -1.17929,-1.732643 -0.0635,-0.02721 -0.16328,-0.04536 -0.21771,-0.04536 -0.16329,0 -0.23586,0.127 -0.23586,0.299357 v 0.290286 c 0,0.181428 0.0635,0.263071 0.1905,0.344714 0.21772,0.136071 0.48079,0.353786 0.48079,0.8255 0,0.607786 -0.43543,0.916215 -0.85272,0.916215 h -0.0816 c -0.21771,0 -0.27214,0.09071 -0.27214,0.308428 v 0.272143 c 0,0.217714 0.0544,0.308429 0.27214,0.308429 h 0.0816 c 0.41729,0 0.85272,0.308428 0.85272,0.916214 0,0.471715 -0.254,0.689429 -0.47172,0.8255 -0.127,0.08164 -0.1905,0.163286 -0.1905,0.344715 z m -1.85964,-3.81 c 0.21772,0 0.30843,-0.09072 0.30843,-0.308429 0,-0.498929 0.20864,-0.734786 0.39914,-0.852714 l 0.11793,-0.07257 c 0.11793,-0.0635 0.15422,-0.226785 0.15422,-0.371928 v -0.226786 c 0,-0.172357 -0.0726,-0.299357 -0.23586,-0.299357 h -0.0363 c -0.0998,0 -0.18143,0.02721 -0.23585,0.04536 -1.11579,0.408214 -1.12486,1.469572 -1.12486,1.778 0,0.217714 0.0907,0.308429 0.30843,0.308429 z"
         id="path2068" />
      <path
         d="m 218.84114,-93.267896 c 0.16329,0 0.23586,-0.127 0.23586,-0.299358 v -0.263071 c 0,-0.145143 -0.0363,-0.272143 -0.15421,-0.344714 l -0.0907,-0.0635 c -0.1905,-0.127 -0.39914,-0.353786 -0.39914,-0.879929 v -2.540001 c 0,-0.526143 0.20864,-0.752928 0.39914,-0.879928 l 0.0907,-0.0635 c 0.11792,-0.07257 0.15421,-0.235857 0.15421,-0.381 v -0.226786 c 0,-0.172357 -0.0726,-0.299357 -0.23586,-0.299357 h -0.0363 c -0.0998,0 -0.13607,0.01814 -0.20865,0.04536 -1.07042,0.435428 -1.12485,1.251857 -1.12485,1.977572 v 2.195286 c 0,0.725714 0.0544,1.542143 1.12485,1.977572 0.0726,0.02721 0.10886,0.04536 0.20865,0.04536 z m 1.46957,0 c 0.0998,0 0.13608,-0.01814 0.20865,-0.04536 1.07043,-0.435429 1.12486,-1.251858 1.12486,-1.977572 v -2.195286 c 0,-0.725715 -0.0544,-1.542144 -1.12486,-1.977572 -0.0726,-0.02721 -0.10886,-0.04536 -0.20865,-0.04536 h -0.0363 c -0.16329,0 -0.23586,0.127 -0.23586,0.299357 v 0.263071 c 0,0.145143 0.0363,0.272143 0.15422,0.344715 l 0.0907,0.0635 c 0.1905,0.127 0.39914,0.353785 0.39914,0.879928 v 2.540001 c 0,0.526143 -0.20864,0.752929 -0.39914,0.879929 l -0.0907,0.0635 c -0.11793,0.07257 -0.15422,0.199571 -0.15422,0.344714 v 0.263071 c 0,0.172358 0.0726,0.299358 0.23586,0.299358 z"
         id="path2070" />
      <path
         d="m 226.93133,-94.147825 c -0.14514,-0.117929 -0.27214,-0.136072 -0.45357,-0.09071 -0.0544,0.0091 -0.127,0.01814 -0.20864,0.01814 -0.48079,0 -0.97971,-0.290285 -1.05229,-0.834571 -0.0272,-0.217714 -0.127,-0.308429 -0.34471,-0.308429 h -0.32657 c -0.21772,0 -0.33564,0.09072 -0.30843,0.308429 0.0998,0.834571 0.67129,1.787072 2.06829,1.787072 0.32657,0 0.635,-0.0635 0.92528,-0.254 0.14514,-0.09979 0.14514,-0.263072 0,-0.371929 z m 0.90715,-0.498929 c 0.15421,0.117929 0.29935,0.09072 0.39007,-0.07257 0.0907,-0.163286 0.15421,-0.408215 0.15421,-0.689429 0,-0.798286 -0.48985,-1.8415 -1.68728,-2.004786 -0.21772,-0.02721 -0.33565,0.02721 -0.43543,0.217714 l -0.18143,0.335643 c -0.0907,0.163286 -0.0454,0.326572 0.17236,0.326572 0.72571,0 1.15207,0.526143 1.15207,1.143 0,0.0635 0,0.09979 -0.009,0.154214 -0.0272,0.154215 0.0181,0.244929 0.13607,0.344715 z m 0.29935,-4.717143 c -0.0454,-0.117929 -0.127,-0.163286 -0.21771,-0.163286 -0.0544,0 -0.65314,0.05443 -1.36071,0.05443 h -2.01386 c -0.21772,0 -0.30843,0.09072 -0.30843,0.308429 v 2.322286 c 0,0.217714 0.0907,0.308429 0.30843,0.308429 h 0.34471 c 0.21772,0 0.30843,-0.09072 0.30843,-0.308429 v -1.514929 c 0,-0.154214 0.0726,-0.226785 0.22679,-0.226785 h 0.94343 c 0.70757,0 1.31535,-0.05443 1.74171,-0.344715 0.127,-0.09071 0.14514,-0.199571 0.0907,-0.3175 z"
         id="path2072" />
      <path
         d="m 232.37267,-93.267896 c 0.16328,0 0.23586,-0.127 0.23586,-0.299358 v -0.263071 c 0,-0.145143 -0.0363,-0.272143 -0.15422,-0.344714 l -0.0907,-0.0635 c -0.1905,-0.127 -0.39915,-0.353786 -0.39915,-0.879929 v -2.540001 c 0,-0.526143 0.20865,-0.752928 0.39915,-0.879928 l 0.0907,-0.0635 c 0.11793,-0.07257 0.15422,-0.235857 0.15422,-0.381 v -0.226786 c 0,-0.172357 -0.0726,-0.299357 -0.23586,-0.299357 h -0.0363 c -0.0998,0 -0.13607,0.01814 -0.20864,0.04536 -1.07043,0.435428 -1.12486,1.251857 -1.12486,1.977572 v 2.195286 c 0,0.725714 0.0544,1.542143 1.12486,1.977572 0.0726,0.02721 0.10886,0.04536 0.20864,0.04536 z m 1.46957,0 c 0.0998,0 0.13607,-0.01814 0.20864,-0.04536 1.07043,-0.435429 1.12486,-1.251858 1.12486,-1.977572 v -2.195286 c 0,-0.725715 -0.0544,-1.542144 -1.12486,-1.977572 -0.0726,-0.02721 -0.10885,-0.04536 -0.20864,-0.04536 h -0.0363 c -0.16328,0 -0.23585,0.127 -0.23585,0.299357 v 0.263071 c 0,0.145143 0.0363,0.272143 0.15421,0.344715 l 0.0907,0.0635 c 0.1905,0.127 0.39914,0.353785 0.39914,0.879928 v 2.540001 c 0,0.526143 -0.20864,0.752929 -0.39914,0.879929 l -0.0907,0.0635 c -0.11793,0.07257 -0.15421,0.199571 -0.15421,0.344714 v 0.263071 c 0,0.172358 0.0726,0.299358 0.23585,0.299358 z"
         id="path2074" />
      <path
         d="m 241.54237,-95.943968 c 0.21771,0 0.30843,-0.09072 0.30843,-0.308429 v -0.272143 c 0,-0.217714 -0.0907,-0.308428 -0.30843,-0.308428 h -3.37458 c -0.21771,0 -0.30842,0.09071 -0.30842,0.308428 v 0.272143 c 0,0.217714 0.0907,0.308429 0.30842,0.308429 z"
         id="path2076" />
      <path
         d="m 245.9042,-93.267896 c 0.16329,0 0.23586,-0.127 0.23586,-0.299358 v -0.263071 c 0,-0.145143 -0.0363,-0.272143 -0.15422,-0.344714 l -0.0907,-0.0635 c -0.1905,-0.127 -0.39914,-0.353786 -0.39914,-0.879929 v -2.540001 c 0,-0.526143 0.20864,-0.752928 0.39914,-0.879928 l 0.0907,-0.0635 c 0.11793,-0.07257 0.15422,-0.235857 0.15422,-0.381 v -0.226786 c 0,-0.172357 -0.0726,-0.299357 -0.23586,-0.299357 h -0.0363 c -0.0998,0 -0.13607,0.01814 -0.20864,0.04536 -1.07043,0.435428 -1.12486,1.251857 -1.12486,1.977572 v 2.195286 c 0,0.725714 0.0544,1.542143 1.12486,1.977572 0.0726,0.02721 0.10886,0.04536 0.20864,0.04536 z m 1.46957,0 c 0.0998,0 0.13607,-0.01814 0.20864,-0.04536 1.07043,-0.435429 1.12486,-1.251858 1.12486,-1.977572 v -2.195286 c 0,-0.725715 -0.0544,-1.542144 -1.12486,-1.977572 -0.0726,-0.02721 -0.10885,-0.04536 -0.20864,-0.04536 h -0.0363 c -0.16329,0 -0.23586,0.127 -0.23586,0.299357 v 0.263071 c 0,0.145143 0.0363,0.272143 0.15421,0.344715 l 0.0907,0.0635 c 0.1905,0.127 0.39914,0.353785 0.39914,0.879928 v 2.540001 c 0,0.526143 -0.20864,0.752929 -0.39914,0.879929 l -0.0907,0.0635 c -0.11793,0.07257 -0.15421,0.199571 -0.15421,0.344714 v 0.263071 c 0,0.172358 0.0726,0.299358 0.23586,0.299358 z"
         id="path2078" />
      <path
         d="m 254.56589,-93.304182 c 0.21772,0 0.30843,-0.09071 0.30843,-0.308429 v -1.197428 c 0,-0.127 0.0363,-0.217715 0.14514,-0.281215 l 0.16329,-0.09071 c 0.10886,-0.0635 0.14514,-0.163286 0.14514,-0.290286 v -0.181428 c 0,-0.127 -0.0363,-0.226786 -0.14514,-0.290286 l -0.16329,-0.09072 c -0.10885,-0.0635 -0.14514,-0.154214 -0.14514,-0.281214 v -2.848429 c 0,-0.217714 -0.0907,-0.308429 -0.30843,-0.308429 h -0.23586 c -0.1905,0 -0.32657,0.04536 -0.43542,0.199572 l -0.62593,0.762 c -0.14515,0.163286 -0.13607,0.362857 0.0272,0.489857 l 0.40822,0.3175 c 0.15421,0.117929 0.20864,0.263072 0.20864,0.453572 v 3.637643 c 0,0.217715 0.0907,0.308429 0.30843,0.308429 z m -1.83243,-1.750786 c 0.21772,0 0.30843,-0.09071 0.30843,-0.308429 v -0.308428 c 0,-0.09979 -0.0363,-0.208643 -0.16328,-0.235858 l -0.0998,-0.01814 c -0.14514,-0.02721 -0.16329,-0.09072 -0.16329,-0.1905 0,-0.0635 0.0363,-0.136072 0.10886,-0.226786 l 0.254,-0.3175 c 0.11793,-0.154215 0.11793,-0.263072 -0.0272,-0.390072 l -0.3175,-0.263071 c -0.14515,-0.127 -0.27215,-0.127 -0.39007,0.01814 l -1.00693,1.215571 c -0.0816,0.09979 -0.11793,0.226786 -0.11793,0.353786 v 0.362857 c 0,0.217715 0.0907,0.308429 0.30843,0.308429 z"
         id="path2080" />
    </g>
  </g>
</svg>
