<?xml version="1.0" encoding="UTF-8" standalone="no"?>
<!-- Created with Inkscape (http://www.inkscape.org/) -->

<svg
   width="86.624817mm"
   height="27.019588mm"
   viewBox="0 0 86.624817 27.019588"
   version="1.1"
   id="svg5"
   inkscape:version="1.2.1 (9c6d41e, 2022-07-14)"
   sodipodi:docname="phoenix.svg"
   xmlns:inkscape="http://www.inkscape.org/namespaces/inkscape"
   xmlns:sodipodi="http://sodipodi.sourceforge.net/DTD/sodipodi-0.dtd"
   xmlns="http://www.w3.org/2000/svg"
   xmlns:svg="http://www.w3.org/2000/svg">
  <sodipodi:namedview
     id="namedview7"
     pagecolor="#ffffff"
     bordercolor="#666666"
     borderopacity="1.0"
     inkscape:showpageshadow="2"
     inkscape:pageopacity="0.0"
     inkscape:pagecheckerboard="0"
     inkscape:deskcolor="#d1d1d1"
     inkscape:document-units="mm"
     showgrid="false"
     inkscape:zoom="1.0289025"
     inkscape:cx="353.28905"
     inkscape:cy="406.74407"
     inkscape:window-width="1720"
     inkscape:window-height="1313"
     inkscape:window-x="0"
     inkscape:window-y="25"
     inkscape:window-maximized="0"
     inkscape:current-layer="layer1" />
  <defs
     id="defs2" />
  <g
     inkscape:label="Layer 1"
     inkscape:groupmode="layer"
     id="layer1"
     transform="translate(-22.880532,-44.484103)">
    <g
       id="g532"
       transform="translate(20.365322,-4.3639976)">
      <g
         aria-label="guidance section"
         id="text393"
         style="font-size:9.15698px;line-height:1.25;font-family:'Vtg Stencil Marsh';-inkscape-font-specification:'Vtg Stencil Marsh, Normal';stroke-width:0.143078">
        <path
           d="m 5.3355603,55.148109 c 0.1007268,0 0.1831396,-0.01831 0.2563954,-0.04578 1.1354655,-0.412064 1.1354655,-1.620786 1.1354655,-1.996222 v -0.851599 c 0,-0.219767 -0.09157,-0.311337 -0.3113373,-0.311337 H 5.3447173 c -0.2197675,0 -0.3113373,0.09157 -0.3113373,0.311337 v 0.293023 c 0,0.219768 0.09157,0.293024 0.3113373,0.293024 H 5.482072 c 0.1739826,0 0.2747094,0.0641 0.2747094,0.228924 v 0.329652 c 0,0.329651 -0.1465117,0.595203 -0.4029071,0.769186 l -0.1373547,0.09157 c -0.1190408,0.07326 -0.1556687,0.201453 -0.1556687,0.347965 v 0.238081 c 0,0.173983 0.073256,0.302181 0.2380815,0.302181 z m -1.3918609,0 c 0.1648257,0 0.2380815,-0.128198 0.2380815,-0.302181 v -0.238081 c 0,-0.146512 -0.036628,-0.27471 -0.1556687,-0.347965 L 3.8887575,54.168312 C 3.696461,54.040114 3.4858504,53.81119 3.4858504,53.280085 v -2.563954 c 0,-0.531105 0.2106106,-0.76003 0.4029071,-0.888227 l 0.1373547,-0.09157 C 4.145153,49.663078 4.1817809,49.53488 4.1817809,49.388368 v -0.238081 c 0,-0.173983 -0.073256,-0.30218 -0.2380815,-0.30218 h -0.036628 c -0.1007268,0 -0.1831396,0.01831 -0.2563954,0.04579 -1.0805236,0.439535 -1.1354655,1.263663 -1.1354655,1.996221 v 2.215989 c 0,0.732559 0.054942,1.556687 1.1354655,1.996222 0.073256,0.02747 0.1556686,0.04578 0.2563954,0.04578 z m 2.4723845,-4.148112 c 0.2197675,0 0.3113373,-0.09157 0.3113373,-0.311337 0,-0.531105 -0.1190407,-1.428489 -1.1354655,-1.794768 -0.073256,-0.02747 -0.1556686,-0.04579 -0.2563954,-0.04579 h -0.036628 c -0.1648256,0 -0.2380815,0.128197 -0.2380815,0.30218 v 0.238081 c 0,0.146512 0.036628,0.27471 0.1556687,0.347966 l 0.1373547,0.09157 c 0.1922965,0.128197 0.4029071,0.357122 0.4029071,0.860756 0,0.219767 0.09157,0.311337 0.3113373,0.311337 z"
           id="path832" />
        <path
           d="m 9.4378729,55.148109 c 0.1648257,0 0.2380815,-0.128198 0.2380815,-0.302181 v -0.238081 c 0,-0.146512 -0.036628,-0.27471 -0.1556686,-0.347965 L 9.3829311,54.168312 C 9.1906345,54.040114 8.980024,53.81119 8.980024,53.280085 v -4.084013 c 0,-0.219768 -0.09157,-0.311337 -0.3113373,-0.311337 H 8.3207214 c -0.2197675,0 -0.3113373,0.09157 -0.3113373,0.311337 v 3.91003 c 0,0.732559 0.054942,1.556687 1.1354655,1.996222 0.073256,0.02747 0.1556687,0.04578 0.2563954,0.04578 z m 1.3918611,0 c 0.100727,0 0.183139,-0.01831 0.256395,-0.04578 1.080524,-0.439535 1.135466,-1.263663 1.135466,-1.996222 v -3.91003 c 0,-0.219768 -0.09157,-0.311337 -0.311338,-0.311337 h -0.347965 c -0.219767,0 -0.311337,0.09157 -0.311337,0.311337 v 4.084013 c 0,0.531105 -0.210611,0.760029 -0.402907,0.888227 l -0.137355,0.09157 c -0.119041,0.07326 -0.155669,0.201453 -0.155669,0.347965 v 0.238081 c 0,0.173983 0.07326,0.302181 0.238082,0.302181 z"
           id="path829" />
        <path
           d="m 15.783646,55.111481 c 0.219767,0 0.311337,-0.09157 0.311337,-0.311338 v -5.604071 c 0,-0.219768 -0.09157,-0.311337 -0.311337,-0.311337 H 15.43568 c -0.219767,0 -0.311337,0.09157 -0.311337,0.311337 v 5.604071 c 0,0.219768 0.09157,0.311338 0.311337,0.311338 z"
           id="path826" />
        <path
           d="m 19.657034,55.111481 c 0.219768,0 0.311338,-0.09157 0.311338,-0.311338 v -5.604071 c 0,-0.219768 -0.09157,-0.311337 -0.311338,-0.311337 h -0.347965 c -0.219768,0 -0.311337,0.09157 -0.311337,0.311337 v 5.604071 c 0,0.219768 0.09157,0.311338 0.311337,0.311338 z m 1.703198,0 c 0.677617,0 1.84971,-0.540262 1.84971,-2.12442 v -1.977907 c 0,-1.584158 -1.172093,-2.124419 -1.84971,-2.124419 h -0.228924 c -0.228925,0 -0.283866,0.137354 -0.283866,0.30218 v 0.247238 c 0,0.18314 0.05494,0.311338 0.283866,0.357123 l 0.293023,0.0641 c 0.595204,0.128198 0.814971,0.586047 0.814971,1.24535 v 1.794768 c 0,0.659302 -0.201453,1.117151 -0.814971,1.245349 l -0.293023,0.0641 c -0.228925,0.04579 -0.283866,0.173982 -0.283866,0.357122 V 54.8093 c 0,0.164826 0.05494,0.302181 0.283866,0.302181 z"
           id="path823" />
        <path
           d="m 28.548447,55.111481 c 0.219767,0 0.320494,-0.100727 0.256395,-0.311338 l -1.739826,-5.613228 c -0.0641,-0.210611 -0.18314,-0.30218 -0.402907,-0.30218 h -0.109884 c -0.219767,0 -0.347965,0.09157 -0.412064,0.30218 l -0.311337,1.007268 c -0.0641,0.21061 0.01831,0.320494 0.192296,0.412064 l 0.100727,0.04578 c 0.402907,0.201453 0.540262,0.503634 0.677617,0.943169 l 0.988953,3.204942 c 0.0641,0.210611 0.18314,0.311338 0.402907,0.311338 z M 26.11269,54.003486 c 0.320494,0 0.247239,-0.347965 0.210611,-0.467006 L 25.81051,51.888224 c -0.05494,-0.164826 -0.137355,-0.238082 -0.256396,-0.238082 -0.100726,0 -0.201453,0.07326 -0.256395,0.238082 l -0.906541,2.911919 c -0.0641,0.210611 0.03663,0.311338 0.256395,0.311338 h 0.347966 c 0.219767,0 0.347965,-0.100727 0.402907,-0.311338 l 0.173982,-0.622674 c 0.02747,-0.109884 0.09157,-0.164826 0.210611,-0.173983 z"
           id="path820" />
        <path
           d="m 30.64538,55.111481 c 0.219768,0 0.311338,-0.09157 0.311338,-0.311338 v -1.886337 c 0,-0.119041 -0.02747,-0.201454 -0.09157,-0.302181 l -0.467006,-0.677616 c -0.0641,-0.100727 -0.146512,-0.137355 -0.219768,-0.137355 -0.100726,0 -0.192296,0.09157 -0.192296,0.256396 v 2.747093 c 0,0.219768 0.09157,0.311338 0.311337,0.311338 z m 3.278199,0 c 0.192297,0 0.274709,-0.119041 0.274709,-0.311338 v -0.750872 c 0,-0.128198 -0.04578,-0.201453 -0.164825,-0.256395 l -0.09157,-0.04579 C 33.841166,53.701306 33.76791,53.646359 33.703811,53.545632 L 30.791892,49.113654 C 30.682008,48.948828 30.590438,48.88473 30.398142,48.88473 h -0.137355 c -0.192296,0 -0.274709,0.11904 -0.274709,0.311337 v 0.750872 c 0,0.128198 0.04579,0.201454 0.164825,0.256396 l 0.109884,0.05494 c 0.100727,0.04578 0.173983,0.100726 0.238082,0.201453 l 2.902762,4.422821 c 0.109884,0.164826 0.201454,0.228925 0.39375,0.228925 z M 33.786224,52.05305 c 0.0641,0.100726 0.146512,0.137354 0.219768,0.137354 0.100727,0 0.192296,-0.09157 0.192296,-0.256395 v -2.737937 c 0,-0.219768 -0.09157,-0.311337 -0.311337,-0.311337 h -0.347965 c -0.219768,0 -0.311337,0.09157 -0.311337,0.311337 v 1.877181 c 0,0.11904 0.02747,0.201453 0.09157,0.30218 z"
           id="path817" />
        <path
           d="m 39.381126,50.999997 c 0.219768,0 0.311337,-0.09157 0.311337,-0.311337 0,-0.531105 -0.11904,-1.428489 -1.135465,-1.794768 -0.07326,-0.02747 -0.155669,-0.04579 -0.256396,-0.04579 h -0.03663 c -0.164826,0 -0.238082,0.128197 -0.238082,0.30218 v 0.238081 c 0,0.146512 0.03663,0.27471 0.155669,0.347966 l 0.137354,0.09157 c 0.192297,0.128197 0.402907,0.357122 0.402907,0.860756 0,0.219767 0.09157,0.311337 0.311338,0.311337 z m -1.080524,4.148112 c 0.100727,0 0.18314,-0.01831 0.256396,-0.04578 1.135465,-0.430378 1.135465,-1.474274 1.135465,-1.794768 0,-0.219768 -0.09157,-0.311338 -0.311337,-0.311338 h -0.347965 c -0.219768,0 -0.311338,0.09157 -0.311338,0.311338 0,0.503634 -0.21061,0.732558 -0.402907,0.860756 l -0.137354,0.09157 c -0.119041,0.07326 -0.155669,0.201453 -0.155669,0.347965 v 0.238081 c 0,0.173983 0.07326,0.302181 0.238082,0.302181 z m -1.39186,0 c 0.164825,0 0.238081,-0.128198 0.238081,-0.302181 v -0.238081 c 0,-0.146512 -0.03663,-0.27471 -0.155669,-0.347965 L 36.8538,54.168312 C 36.661503,54.040114 36.450893,53.81119 36.450893,53.280085 v -2.563954 c 0,-0.531105 0.21061,-0.76003 0.402907,-0.888227 l 0.137354,-0.09157 c 0.119041,-0.07326 0.155669,-0.201454 0.155669,-0.347966 v -0.238081 c 0,-0.173983 -0.07326,-0.30218 -0.238081,-0.30218 h -0.03663 c -0.100727,0 -0.18314,0.01831 -0.256396,0.04579 -1.080523,0.439535 -1.135465,1.263663 -1.135465,1.996221 v 2.215989 c 0,0.732559 0.05494,1.556687 1.135465,1.996222 0.07326,0.02747 0.155669,0.04578 0.256396,0.04578 z"
           id="path814" />
        <path
           d="m 41.633726,55.111481 c 0.219768,0 0.311338,-0.09157 0.311338,-0.311338 v -2.078634 c 0,-0.192297 0.08241,-0.274709 0.274709,-0.274709 h 0.567733 c 0.219767,0 0.311337,-0.09157 0.311337,-0.311338 v -0.274709 c 0,-0.219768 -0.09157,-0.311337 -0.311337,-0.311337 h -0.567733 c -0.192296,0 -0.274709,-0.08241 -0.274709,-0.27471 v -2.078634 c 0,-0.219768 -0.09157,-0.311337 -0.311338,-0.311337 h -0.347965 c -0.219767,0 -0.311337,0.09157 -0.311337,0.311337 v 5.604071 c 0,0.219768 0.09157,0.311338 0.311337,0.311338 z m 2.72878,0 c 0.219768,0 0.311338,-0.09157 0.311338,-0.311338 v -0.274709 c 0,-0.219767 -0.09157,-0.311337 -0.311338,-0.311337 h -1.227035 c -0.219767,0 -0.311337,0.09157 -0.311337,0.311337 v 0.274709 c 0,0.219768 0.09157,0.311338 0.311337,0.311338 z m 0,-5.329362 c 0.219768,0 0.311338,-0.09157 0.311338,-0.311338 v -0.274709 c 0,-0.219768 -0.09157,-0.311337 -0.311338,-0.311337 h -1.227035 c -0.219767,0 -0.311337,0.09157 -0.311337,0.311337 v 0.274709 c 0,0.219768 0.09157,0.311338 0.311337,0.311338 z"
           id="path811" />
        <path
           d="m 53.391263,55.148109 c 0.164825,0 0.238081,-0.128198 0.238081,-0.302181 v -0.228924 c 0,-0.146512 -0.03663,-0.265553 -0.164826,-0.338808 l -0.183139,-0.109884 c -0.18314,-0.109884 -0.311337,-0.293024 -0.338808,-0.503634 -0.02747,-0.192297 -0.100727,-0.274709 -0.293024,-0.274709 h -0.412064 c -0.192296,0 -0.274709,0.08241 -0.274709,0.274709 0,0.631832 0.60436,1.483431 1.309448,1.483431 z m 1.455959,0 c 0.57689,0 1.36439,-0.686774 1.36439,-1.767297 0,-0.860757 -0.494477,-1.318605 -1.27282,-1.657414 l -1.391861,-0.60436 c -0.457849,-0.201454 -0.613517,-0.430378 -0.613517,-0.796658 0,-0.30218 0.146511,-0.430378 0.375436,-0.540261 l 0.155668,-0.07326 c 0.128198,-0.04579 0.164826,-0.18314 0.164826,-0.329651 v -0.228925 c 0,-0.173983 -0.0641,-0.293023 -0.228924,-0.30218 h -0.09157 c -0.402907,0 -1.346076,0.39375 -1.346076,1.556686 0,0.842442 0.467006,1.291134 1.043895,1.538373 l 1.492588,0.650145 c 0.503634,0.219768 0.741715,0.467006 0.741715,0.87907 0,0.357123 -0.183139,0.567733 -0.402907,0.714245 L 54.67324,54.29651 c -0.119041,0.07326 -0.164826,0.173982 -0.164826,0.320494 v 0.228924 c 0,0.173983 0.07326,0.302181 0.238082,0.302181 z m 1.053053,-4.505234 c 0.192297,0 0.274709,-0.08241 0.274709,-0.27471 0,-0.586046 -0.531104,-1.520058 -1.336919,-1.520058 h -0.09157 c -0.164826,0 -0.238082,0.128197 -0.238082,0.30218 v 0.228925 c 0,0.146511 0.02747,0.283866 0.155669,0.347965 l 0.173982,0.100727 c 0.137355,0.07326 0.302181,0.283866 0.347966,0.540261 0.03663,0.192297 0.100726,0.27471 0.293023,0.27471 z"
           id="path808" />
        <path
           d="m 58.116247,55.111481 c 0.219768,0 0.311338,-0.09157 0.311338,-0.311338 v -2.078634 c 0,-0.192297 0.08241,-0.274709 0.274709,-0.274709 h 0.567733 c 0.219767,0 0.311337,-0.09157 0.311337,-0.311338 v -0.274709 c 0,-0.219768 -0.09157,-0.311337 -0.311337,-0.311337 h -0.567733 c -0.192296,0 -0.274709,-0.08241 -0.274709,-0.27471 v -2.078634 c 0,-0.219768 -0.09157,-0.311337 -0.311338,-0.311337 h -0.347965 c -0.219767,0 -0.311337,0.09157 -0.311337,0.311337 v 5.604071 c 0,0.219768 0.09157,0.311338 0.311337,0.311338 z m 2.72878,0 c 0.219768,0 0.311338,-0.09157 0.311338,-0.311338 v -0.274709 c 0,-0.219767 -0.09157,-0.311337 -0.311338,-0.311337 h -1.227035 c -0.219767,0 -0.311337,0.09157 -0.311337,0.311337 v 0.274709 c 0,0.219768 0.09157,0.311338 0.311337,0.311338 z m 0,-5.329362 c 0.219768,0 0.311338,-0.09157 0.311338,-0.311338 v -0.274709 c 0,-0.219768 -0.09157,-0.311337 -0.311338,-0.311337 h -1.227035 c -0.219767,0 -0.311337,0.09157 -0.311337,0.311337 v 0.274709 c 0,0.219768 0.09157,0.311338 0.311337,0.311338 z"
           id="path805" />
        <path
           d="m 66.851993,50.999997 c 0.219768,0 0.311337,-0.09157 0.311337,-0.311337 0,-0.531105 -0.11904,-1.428489 -1.135465,-1.794768 -0.07326,-0.02747 -0.155669,-0.04579 -0.256395,-0.04579 h -0.03663 c -0.164826,0 -0.238082,0.128197 -0.238082,0.30218 v 0.238081 c 0,0.146512 0.03663,0.27471 0.155669,0.347966 l 0.137355,0.09157 c 0.192296,0.128197 0.402907,0.357122 0.402907,0.860756 0,0.219767 0.09157,0.311337 0.311337,0.311337 z m -1.080523,4.148112 c 0.100726,0 0.183139,-0.01831 0.256395,-0.04578 1.135465,-0.430378 1.135465,-1.474274 1.135465,-1.794768 0,-0.219768 -0.09157,-0.311338 -0.311337,-0.311338 h -0.347965 c -0.219768,0 -0.311337,0.09157 -0.311337,0.311338 0,0.503634 -0.210611,0.732558 -0.402907,0.860756 l -0.137355,0.09157 c -0.119041,0.07326 -0.155669,0.201453 -0.155669,0.347965 v 0.238081 c 0,0.173983 0.07326,0.302181 0.238082,0.302181 z m -1.391861,0 c 0.164825,0 0.238081,-0.128198 0.238081,-0.302181 v -0.238081 c 0,-0.146512 -0.03663,-0.27471 -0.155668,-0.347965 l -0.137355,-0.09157 C 64.13237,54.040114 63.92176,53.81119 63.92176,53.280085 v -2.563954 c 0,-0.531105 0.21061,-0.76003 0.402907,-0.888227 l 0.137355,-0.09157 c 0.11904,-0.07326 0.155668,-0.201454 0.155668,-0.347966 v -0.238081 c 0,-0.173983 -0.07326,-0.30218 -0.238081,-0.30218 h -0.03663 c -0.100727,0 -0.18314,0.01831 -0.256396,0.04579 -1.080523,0.439535 -1.135465,1.263663 -1.135465,1.996221 v 2.215989 c 0,0.732559 0.05494,1.556687 1.135465,1.996222 0.07326,0.02747 0.155669,0.04578 0.256396,0.04578 z"
           id="path802" />
        <path
           d="m 72.346168,49.782119 c 0.219768,0 0.311337,-0.09157 0.311337,-0.311338 v -0.274709 c 0,-0.219768 -0.09157,-0.311337 -0.311337,-0.311337 h -3.589536 c -0.219767,0 -0.311337,0.09157 -0.311337,0.311337 v 0.274709 c 0,0.219768 0.09157,0.311338 0.311337,0.311338 z m -1.620785,5.329362 c 0.219767,0 0.311337,-0.09157 0.311337,-0.311338 v -3.974129 c 0,-0.219767 -0.09157,-0.311337 -0.311337,-0.311337 h -0.347965 c -0.219768,0 -0.311338,0.09157 -0.311338,0.311337 v 3.974129 c 0,0.219768 0.09157,0.311338 0.311338,0.311338 z"
           id="path799" />
        <path
           d="m 76.219554,55.111481 c 0.219767,0 0.311337,-0.09157 0.311337,-0.311338 v -5.604071 c 0,-0.219768 -0.09157,-0.311337 -0.311337,-0.311337 h -0.347965 c -0.219768,0 -0.311338,0.09157 -0.311338,0.311337 v 5.604071 c 0,0.219768 0.09157,0.311338 0.311338,0.311338 z"
           id="path796" />
        <path
           d="m 80.862126,55.148109 c 0.164826,0 0.238081,-0.128198 0.238081,-0.302181 v -0.238081 c 0,-0.146512 -0.03663,-0.27471 -0.155668,-0.347965 l -0.137355,-0.09157 C 80.614887,54.040114 80.404277,53.81119 80.404277,53.280085 v -2.563954 c 0,-0.531105 0.21061,-0.76003 0.402907,-0.888227 l 0.137355,-0.09157 c 0.11904,-0.07326 0.155668,-0.201454 0.155668,-0.347966 v -0.238081 c 0,-0.173983 -0.07326,-0.30218 -0.238081,-0.30218 h -0.03663 c -0.100727,0 -0.18314,0.01831 -0.256395,0.04579 -1.080524,0.439535 -1.135466,1.263663 -1.135466,1.996221 v 2.215989 c 0,0.732559 0.05494,1.556687 1.135466,1.996222 0.07326,0.02747 0.155668,0.04578 0.256395,0.04578 z m 1.391861,0 c 0.100727,0 0.183139,-0.01831 0.256395,-0.04578 1.080524,-0.439535 1.135466,-1.263663 1.135466,-1.996222 v -2.215989 c 0,-0.732558 -0.05494,-1.556686 -1.135466,-1.996221 -0.07326,-0.02747 -0.155668,-0.04579 -0.256395,-0.04579 h -0.03663 c -0.164826,0 -0.238082,0.128197 -0.238082,0.30218 v 0.238081 c 0,0.146512 0.03663,0.27471 0.155669,0.347966 l 0.137355,0.09157 c 0.192296,0.128197 0.402907,0.357122 0.402907,0.888227 v 2.563954 c 0,0.531105 -0.210611,0.760029 -0.402907,0.888227 l -0.137355,0.09157 c -0.119041,0.07326 -0.155669,0.201453 -0.155669,0.347965 v 0.238081 c 0,0.173983 0.07326,0.302181 0.238082,0.302181 z"
           id="path793" />
        <path
           d="m 85.587118,55.111481 c 0.219768,0 0.311338,-0.09157 0.311338,-0.311338 v -1.886337 c 0,-0.119041 -0.02747,-0.201454 -0.09157,-0.302181 L 85.33988,51.934009 c -0.0641,-0.100727 -0.146512,-0.137355 -0.219768,-0.137355 -0.100726,0 -0.192296,0.09157 -0.192296,0.256396 v 2.747093 c 0,0.219768 0.09157,0.311338 0.311337,0.311338 z m 3.278199,0 c 0.192297,0 0.274709,-0.119041 0.274709,-0.311338 v -0.750872 c 0,-0.128198 -0.04578,-0.201453 -0.164825,-0.256395 l -0.09157,-0.04579 C 88.782904,53.701306 88.709648,53.646359 88.64555,53.545632 L 85.73363,49.113654 C 85.623746,48.948828 85.532177,48.88473 85.33988,48.88473 h -0.137355 c -0.192296,0 -0.274709,0.11904 -0.274709,0.311337 v 0.750872 c 0,0.128198 0.04578,0.201454 0.164826,0.256396 l 0.109883,0.05494 c 0.100727,0.04578 0.173983,0.100726 0.238082,0.201453 l 2.902762,4.422821 c 0.109884,0.164826 0.201454,0.228925 0.39375,0.228925 z M 88.727962,52.05305 c 0.0641,0.100726 0.146512,0.137354 0.219768,0.137354 0.100727,0 0.192296,-0.09157 0.192296,-0.256395 v -2.737937 c 0,-0.219768 -0.09157,-0.311337 -0.311337,-0.311337 h -0.347965 c -0.219768,0 -0.311337,0.09157 -0.311337,0.311337 v 1.877181 c 0,0.11904 0.02747,0.201453 0.09157,0.30218 z"
           id="path790" />
      </g>
      <g
         aria-label="499102-100-1"
         id="text466"
         style="font-size:9.15698px;line-height:1.25;font-family:'Helvetica Neue';-inkscape-font-specification:'Helvetica Neue, Normal';stroke-width:0.143078">
        <path
           d="m 5.9948628,65.471275 c 0.2197675,0 0.3113373,-0.09157 0.3113373,-0.311337 v -1.208721 c 0,-0.128198 0.036628,-0.219768 0.1465117,-0.283867 l 0.1648256,-0.09157 c 0.1098838,-0.0641 0.1465117,-0.164826 0.1465117,-0.293024 v -0.183139 c 0,-0.128198 -0.036628,-0.228925 -0.1465117,-0.293024 L 6.4527118,62.715024 C 6.342828,62.650926 6.3062001,62.559356 6.3062001,62.431158 v -2.875291 c 0,-0.219768 -0.09157,-0.311338 -0.3113373,-0.311338 H 5.7567813 c -0.1922965,0 -0.3296512,0.04579 -0.439535,0.201454 l -0.6318316,0.769186 c -0.1465116,0.164826 -0.1373547,0.366279 0.027471,0.494477 l 0.4120641,0.320494 c 0.1556686,0.119041 0.2106105,0.265553 0.2106105,0.457849 v 3.671949 c 0,0.219768 0.09157,0.311337 0.3113373,0.311337 z M 4.1451529,63.703978 c 0.2197676,0 0.3113373,-0.09157 0.3113373,-0.311337 v -0.311337 c 0,-0.100727 -0.036628,-0.210611 -0.1648256,-0.238082 l -0.1007268,-0.01831 c -0.1465116,-0.02747 -0.1648256,-0.09157 -0.1648256,-0.192296 0,-0.0641 0.036628,-0.137355 0.1098838,-0.228925 L 4.3923914,62.083193 C 4.5114321,61.927524 4.5114321,61.81764 4.3649205,61.689443 L 4.0444262,61.42389 C 3.8979145,61.295693 3.7697168,61.295693 3.650676,61.442204 L 2.6342513,62.66924 c -0.082413,0.100726 -0.1190407,0.228924 -0.1190407,0.357122 v 0.366279 c 0,0.219767 0.09157,0.311337 0.3113373,0.311337 z"
           style="font-stretch:semi-expanded;font-family:'Vtg Stencil Marsh';-inkscape-font-specification:'Vtg Stencil Marsh, Semi-Expanded'"
           id="path787" />
        <path
           d="m 9.6210125,62.641769 c 0.1648256,0 0.2380815,-0.128198 0.2380815,-0.302181 v -0.265552 c 0,-0.146512 -0.036628,-0.265552 -0.1556687,-0.347965 l -0.09157,-0.0641 C 9.419559,61.533774 9.2089484,61.286536 9.2089484,60.920256 c 0,-0.357122 0.2106106,-0.60436 0.4029071,-0.732558 l 0.09157,-0.0641 C 9.8224661,60.041186 9.859094,59.922146 9.859094,59.775634 v -0.265552 c 0,-0.173983 -0.073256,-0.302181 -0.2380815,-0.302181 h -0.036628 c -0.082413,0 -0.1373547,0.01831 -0.2106105,0.04579 -0.906541,0.329651 -1.1354655,1.117152 -1.1354655,1.66657 0,0.558576 0.2289245,1.346076 1.1354655,1.675728 0.073256,0.02747 0.1556686,0.04578 0.2106105,0.04578 z m 0,2.866134 c 0.1648256,0 0.2380815,-0.128197 0.2380815,-0.30218 v -0.265552 c 0,-0.146512 -0.036628,-0.265553 -0.1556687,-0.347966 l -0.09157,-0.0641 C 9.419559,64.399909 9.2455763,64.170984 9.2181054,63.85049 9.1997915,63.630722 9.1265356,63.539153 8.9067681,63.539153 H 8.5496459 c -0.2197675,0 -0.3113373,0.09157 -0.3113373,0.311337 0,0.256395 0.054942,1.18125 1.1354655,1.611628 0.073256,0.02747 0.1098837,0.04578 0.2106105,0.04578 z m 1.3918605,0 c 0.100727,0 0.137355,-0.01831 0.210611,-0.04578 1.080524,-0.439535 1.135465,-1.263663 1.135465,-1.996221 v -2.215989 c 0,-0.732559 -0.05494,-1.556687 -1.135465,-1.996222 -0.07326,-0.02747 -0.109884,-0.04579 -0.210611,-0.04579 h -0.03663 c -0.164825,0 -0.238081,0.128198 -0.238081,0.302181 v 0.265552 c 0,0.146512 0.03663,0.274709 0.155669,0.347965 l 0.09157,0.0641 c 0.192297,0.128198 0.402908,0.357122 0.402908,0.888227 v 2.563954 c 0,0.531105 -0.210611,0.76003 -0.402908,0.888227 l -0.09157,0.0641 c -0.119041,0.07326 -0.155669,0.238082 -0.155669,0.384593 v 0.228925 c 0,0.173983 0.07326,0.30218 0.238081,0.30218 z"
           style="font-stretch:semi-expanded;font-family:'Vtg Stencil Marsh';-inkscape-font-specification:'Vtg Stencil Marsh, Semi-Expanded'"
           id="path784" />
        <path
           d="m 15.115186,62.641769 c 0.164826,0 0.238082,-0.128198 0.238082,-0.302181 v -0.265552 c 0,-0.146512 -0.03663,-0.265552 -0.155669,-0.347965 l -0.09157,-0.0641 c -0.192297,-0.128198 -0.402907,-0.375436 -0.402907,-0.741716 0,-0.357122 0.21061,-0.60436 0.402907,-0.732558 l 0.09157,-0.0641 c 0.119041,-0.08241 0.155669,-0.201453 0.155669,-0.347965 V 59.51008 c 0,-0.173983 -0.07326,-0.302181 -0.238082,-0.302181 h -0.03663 c -0.08241,0 -0.137355,0.01831 -0.21061,0.04579 -0.906541,0.329651 -1.135466,1.117152 -1.135466,1.66657 0,0.558576 0.228925,1.346076 1.135466,1.675728 0.07325,0.02747 0.155668,0.04578 0.21061,0.04578 z m 0,2.866134 c 0.164826,0 0.238082,-0.128197 0.238082,-0.30218 v -0.265552 c 0,-0.146512 -0.03663,-0.265553 -0.155669,-0.347966 l -0.09157,-0.0641 c -0.192297,-0.128197 -0.366279,-0.357122 -0.39375,-0.677616 -0.01831,-0.219768 -0.09157,-0.311337 -0.311337,-0.311337 h -0.357123 c -0.219767,0 -0.311337,0.09157 -0.311337,0.311337 0,0.256395 0.05494,1.18125 1.135466,1.611628 0.07325,0.02747 0.109883,0.04578 0.21061,0.04578 z m 1.391861,0 c 0.100727,0 0.137355,-0.01831 0.21061,-0.04578 1.080524,-0.439535 1.135466,-1.263663 1.135466,-1.996221 v -2.215989 c 0,-0.732559 -0.05494,-1.556687 -1.135466,-1.996222 -0.07325,-0.02747 -0.109883,-0.04579 -0.21061,-0.04579 h -0.03663 c -0.164826,0 -0.238081,0.128198 -0.238081,0.302181 v 0.265552 c 0,0.146512 0.03663,0.274709 0.155668,0.347965 l 0.09157,0.0641 c 0.192297,0.128198 0.402907,0.357122 0.402907,0.888227 v 2.563954 c 0,0.531105 -0.21061,0.76003 -0.402907,0.888227 l -0.09157,0.0641 c -0.119041,0.07326 -0.155668,0.238082 -0.155668,0.384593 v 0.228925 c 0,0.173983 0.07325,0.30218 0.238081,0.30218 z"
           style="font-stretch:semi-expanded;font-family:'Vtg Stencil Marsh';-inkscape-font-specification:'Vtg Stencil Marsh, Semi-Expanded'"
           id="path781" />
        <path
           d="m 21.598314,65.471275 c 0.219767,0 0.311337,-0.09157 0.311337,-0.311337 v -5.604071 c 0,-0.219768 -0.09157,-0.311338 -0.311337,-0.311338 h -0.347965 c -0.219768,0 -0.338809,0.08241 -0.439535,0.283867 l -0.531105,1.098837 c -0.03663,0.07326 -0.05494,0.155669 -0.05494,0.219768 0,0.109883 0.0641,0.228924 0.192296,0.283866 l 0.247239,0.109884 c 0.201453,0.08241 0.274709,0.21061 0.274709,0.430378 v 3.488809 c 0,0.219768 0.09157,0.311337 0.311338,0.311337 z"
           style="font-stretch:semi-expanded;font-family:'Vtg Stencil Marsh';-inkscape-font-specification:'Vtg Stencil Marsh, Semi-Expanded'"
           id="path778" />
        <path
           d="m 26.057748,65.507903 c 0.164826,0 0.238082,-0.128197 0.238082,-0.30218 v -0.265552 c 0,-0.146512 -0.03663,-0.27471 -0.155669,-0.347966 l -0.09157,-0.0641 c -0.192296,-0.128197 -0.402907,-0.357122 -0.402907,-0.888227 v -2.563954 c 0,-0.531105 0.210611,-0.760029 0.402907,-0.888227 l 0.09157,-0.0641 c 0.119041,-0.07326 0.155669,-0.238081 0.155669,-0.384593 V 59.51008 c 0,-0.173983 -0.07326,-0.302181 -0.238082,-0.302181 h -0.03663 c -0.100727,0 -0.137354,0.01831 -0.21061,0.04579 -1.080524,0.439535 -1.135466,1.263663 -1.135466,1.996222 V 63.4659 c 0,0.732558 0.05494,1.556686 1.135466,1.996221 0.07326,0.02747 0.109883,0.04578 0.21061,0.04578 z m 1.483431,0 c 0.100727,0 0.137355,-0.01831 0.21061,-0.04578 1.080524,-0.439535 1.135466,-1.263663 1.135466,-1.996221 v -2.215989 c 0,-0.732559 -0.05494,-1.556687 -1.135466,-1.996222 -0.07325,-0.02747 -0.109883,-0.04579 -0.21061,-0.04579 h -0.03663 c -0.164826,0 -0.238082,0.128198 -0.238082,0.302181 v 0.265552 c 0,0.146512 0.03663,0.274709 0.155669,0.347965 l 0.09157,0.0641 c 0.192297,0.128198 0.402907,0.357122 0.402907,0.888227 v 2.563954 c 0,0.531105 -0.21061,0.76003 -0.402907,0.888227 l -0.09157,0.0641 c -0.119041,0.07326 -0.155669,0.201454 -0.155669,0.347966 v 0.265552 c 0,0.173983 0.07326,0.30218 0.238082,0.30218 z"
           style="font-stretch:semi-expanded;font-family:'Vtg Stencil Marsh';-inkscape-font-specification:'Vtg Stencil Marsh, Semi-Expanded'"
           id="path775" />
        <path
           d="m 33.960207,65.471275 c 0.219767,0 0.311337,-0.09157 0.311337,-0.311337 v -0.274709 c 0,-0.219768 -0.09157,-0.311338 -0.311337,-0.311338 h -1.75814 c -0.128198,0 -0.219768,-0.03663 -0.320494,-0.128197 l -0.503634,-0.467006 c -0.164826,-0.146512 -0.329652,-0.146512 -0.48532,0.0092 l -0.567733,0.540261 c -0.119041,0.119041 -0.173983,0.238082 -0.173983,0.393751 v 0.238081 c 0,0.219768 0.09157,0.311337 0.311338,0.311337 z m -0.421221,-2.756251 c 0.329651,-0.338808 0.824128,-0.805814 0.824128,-1.712355 0,-1.08968 -0.714244,-1.547529 -1.217878,-1.748983 -0.0641,-0.02747 -0.137355,-0.04579 -0.192297,-0.04579 -0.164826,0 -0.238081,0.128198 -0.238081,0.302181 V 59.8031 c 0,0.18314 0.0641,0.265552 0.192296,0.347965 0.219768,0.137355 0.48532,0.357122 0.48532,0.833285 0,0.302181 -0.109884,0.613518 -0.476163,0.979797 l -0.869913,0.87907 c -0.155669,0.155669 -0.155669,0.293024 0.0092,0.439535 l 0.247239,0.238082 c 0.164825,0.155668 0.293023,0.155668 0.448692,0 z m -2.692152,-1.355232 c 0.219767,0 0.311337,-0.09157 0.311337,-0.311338 0,-0.503634 0.210611,-0.741715 0.402907,-0.860756 l 0.119041,-0.07326 c 0.119041,-0.0641 0.155669,-0.228924 0.155669,-0.375436 v -0.228924 c 0,-0.173983 -0.07326,-0.302181 -0.238082,-0.302181 h -0.03663 c -0.100727,0 -0.183139,0.02747 -0.238081,0.04579 -1.126309,0.412064 -1.135466,1.483431 -1.135466,1.794768 0,0.219768 0.09157,0.311338 0.311338,0.311338 z"
           style="font-stretch:semi-expanded;font-family:'Vtg Stencil Marsh';-inkscape-font-specification:'Vtg Stencil Marsh, Semi-Expanded'"
           id="path772" />
        <path
           d="m 39.472696,62.806594 c 0.219767,0 0.311337,-0.09157 0.311337,-0.311337 v -0.274709 c 0,-0.219768 -0.09157,-0.311338 -0.311337,-0.311338 h -3.406397 c -0.219767,0 -0.311337,0.09157 -0.311337,0.311338 v 0.274709 c 0,0.219767 0.09157,0.311337 0.311337,0.311337 z"
           style="font-stretch:semi-expanded;font-family:'Vtg Stencil Marsh';-inkscape-font-specification:'Vtg Stencil Marsh, Semi-Expanded'"
           id="path769" />
        <path
           d="m 43.575006,65.471275 c 0.219768,0 0.311337,-0.09157 0.311337,-0.311337 v -5.604071 c 0,-0.219768 -0.09157,-0.311338 -0.311337,-0.311338 h -0.347965 c -0.219768,0 -0.338808,0.08241 -0.439535,0.283867 l -0.531105,1.098837 c -0.03663,0.07326 -0.05494,0.155669 -0.05494,0.219768 0,0.109883 0.0641,0.228924 0.192297,0.283866 l 0.247238,0.109884 c 0.201454,0.08241 0.27471,0.21061 0.27471,0.430378 v 3.488809 c 0,0.219768 0.09157,0.311337 0.311337,0.311337 z"
           style="font-stretch:semi-expanded;font-family:'Vtg Stencil Marsh';-inkscape-font-specification:'Vtg Stencil Marsh, Semi-Expanded'"
           id="path766" />
        <path
           d="m 48.034442,65.507903 c 0.164826,0 0.238082,-0.128197 0.238082,-0.30218 v -0.265552 c 0,-0.146512 -0.03663,-0.27471 -0.155669,-0.347966 l -0.09157,-0.0641 c -0.192296,-0.128197 -0.402907,-0.357122 -0.402907,-0.888227 v -2.563954 c 0,-0.531105 0.210611,-0.760029 0.402907,-0.888227 l 0.09157,-0.0641 c 0.119041,-0.07326 0.155669,-0.238081 0.155669,-0.384593 V 59.51008 c 0,-0.173983 -0.07326,-0.302181 -0.238082,-0.302181 h -0.03663 c -0.100726,0 -0.137354,0.01831 -0.21061,0.04579 -1.080524,0.439535 -1.135466,1.263663 -1.135466,1.996222 V 63.4659 c 0,0.732558 0.05494,1.556686 1.135466,1.996221 0.07326,0.02747 0.109884,0.04578 0.21061,0.04578 z m 1.483431,0 c 0.100727,0 0.137355,-0.01831 0.210611,-0.04578 1.080523,-0.439535 1.135465,-1.263663 1.135465,-1.996221 v -2.215989 c 0,-0.732559 -0.05494,-1.556687 -1.135465,-1.996222 -0.07326,-0.02747 -0.109884,-0.04579 -0.210611,-0.04579 h -0.03663 c -0.164826,0 -0.238081,0.128198 -0.238081,0.302181 v 0.265552 c 0,0.146512 0.03663,0.274709 0.155668,0.347965 l 0.09157,0.0641 c 0.192297,0.128198 0.402907,0.357122 0.402907,0.888227 v 2.563954 c 0,0.531105 -0.21061,0.76003 -0.402907,0.888227 l -0.09157,0.0641 c -0.11904,0.07326 -0.155668,0.201454 -0.155668,0.347966 v 0.265552 c 0,0.173983 0.07326,0.30218 0.238081,0.30218 z"
           style="font-stretch:semi-expanded;font-family:'Vtg Stencil Marsh';-inkscape-font-specification:'Vtg Stencil Marsh, Semi-Expanded'"
           id="path763" />
        <path
           d="m 53.528617,65.507903 c 0.164826,0 0.238082,-0.128197 0.238082,-0.30218 v -0.265552 c 0,-0.146512 -0.03663,-0.27471 -0.155669,-0.347966 l -0.09157,-0.0641 c -0.192296,-0.128197 -0.402907,-0.357122 -0.402907,-0.888227 v -2.563954 c 0,-0.531105 0.210611,-0.760029 0.402907,-0.888227 l 0.09157,-0.0641 c 0.119041,-0.07326 0.155669,-0.238081 0.155669,-0.384593 V 59.51008 c 0,-0.173983 -0.07326,-0.302181 -0.238082,-0.302181 h -0.03663 c -0.100726,0 -0.137354,0.01831 -0.21061,0.04579 -1.080524,0.439535 -1.135466,1.263663 -1.135466,1.996222 V 63.4659 c 0,0.732558 0.05494,1.556686 1.135466,1.996221 0.07326,0.02747 0.109884,0.04578 0.21061,0.04578 z m 1.483431,0 c 0.100727,0 0.137355,-0.01831 0.21061,-0.04578 1.080524,-0.439535 1.135466,-1.263663 1.135466,-1.996221 v -2.215989 c 0,-0.732559 -0.05494,-1.556687 -1.135466,-1.996222 -0.07326,-0.02747 -0.109883,-0.04579 -0.21061,-0.04579 h -0.03663 c -0.164826,0 -0.238081,0.128198 -0.238081,0.302181 v 0.265552 c 0,0.146512 0.03663,0.274709 0.155668,0.347965 l 0.09157,0.0641 c 0.192297,0.128198 0.402907,0.357122 0.402907,0.888227 v 2.563954 c 0,0.531105 -0.21061,0.76003 -0.402907,0.888227 l -0.09157,0.0641 c -0.119041,0.07326 -0.155668,0.201454 -0.155668,0.347966 v 0.265552 c 0,0.173983 0.07326,0.30218 0.238081,0.30218 z"
           style="font-stretch:semi-expanded;font-family:'Vtg Stencil Marsh';-inkscape-font-specification:'Vtg Stencil Marsh, Semi-Expanded'"
           id="path760" />
        <path
           d="m 61.449388,62.806594 c 0.219767,0 0.311337,-0.09157 0.311337,-0.311337 v -0.274709 c 0,-0.219768 -0.09157,-0.311338 -0.311337,-0.311338 h -3.406396 c -0.219768,0 -0.311338,0.09157 -0.311338,0.311338 v 0.274709 c 0,0.219767 0.09157,0.311337 0.311338,0.311337 z"
           style="font-stretch:semi-expanded;font-family:'Vtg Stencil Marsh';-inkscape-font-specification:'Vtg Stencil Marsh, Semi-Expanded'"
           id="path757" />
        <path
           d="m 65.551702,65.471275 c 0.219768,0 0.311337,-0.09157 0.311337,-0.311337 v -5.604071 c 0,-0.219768 -0.09157,-0.311338 -0.311337,-0.311338 h -0.347965 c -0.219768,0 -0.338808,0.08241 -0.439535,0.283867 l -0.531105,1.098837 c -0.03663,0.07326 -0.05494,0.155669 -0.05494,0.219768 0,0.109883 0.0641,0.228924 0.192297,0.283866 l 0.247238,0.109884 c 0.201454,0.08241 0.27471,0.21061 0.27471,0.430378 v 3.488809 c 0,0.219768 0.09157,0.311337 0.311337,0.311337 z"
           style="font-stretch:semi-expanded;font-family:'Vtg Stencil Marsh';-inkscape-font-specification:'Vtg Stencil Marsh, Semi-Expanded'"
           id="path754" />
      </g>
      <g
         aria-label="serial no.001"
         id="text474"
         style="font-size:9.07781px;line-height:1.25;font-family:'Helvetica Neue';-inkscape-font-specification:'Helvetica Neue, Normal';stroke-width:0.141841">
        <path
           d="m 3.931349,75.813228 c 0.1634006,0 0.236023,-0.12709 0.236023,-0.299568 v -0.226945 c 0,-0.145245 -0.036311,-0.263257 -0.1634006,-0.335879 L 3.8224152,74.841902 C 3.640859,74.732968 3.5137697,74.551412 3.4865363,74.342622 3.4593028,74.151988 3.3866803,74.070288 3.1960463,74.070288 H 2.7875449 c -0.190634,0 -0.2723343,0.0817 -0.2723343,0.272334 0,0.626369 0.5991354,1.470606 1.2981268,1.470606 z m 1.4433718,0 c 0.5719021,0 1.3525937,-0.680836 1.3525937,-1.752018 0,-0.853314 -0.4902017,-1.307204 -1.2618156,-1.643083 L 4.0856717,71.818991 C 3.6317812,71.619279 3.4774585,71.392334 3.4774585,71.029222 c 0,-0.299568 0.1452449,-0.426657 0.3721902,-0.535591 l 0.1543227,-0.07262 C 4.1310608,70.375619 4.167372,70.239452 4.167372,70.094207 v -0.226945 c 0,-0.172478 -0.063545,-0.29049 -0.2269452,-0.299568 h -0.090778 c -0.3994237,0 -1.3344381,0.390346 -1.3344381,1.543228 0,0.835159 0.4629683,1.279971 1.0348703,1.525072 l 1.4796831,0.644525 c 0.4992796,0.217867 0.7353026,0.462968 0.7353026,0.871469 0,0.354035 -0.1815562,0.562825 -0.3994236,0.70807 L 5.2022425,74.968991 C 5.084231,75.041611 5.0388419,75.14147 5.0388419,75.286715 v 0.226945 c 0,0.172478 0.072622,0.299568 0.2360231,0.299568 z M 6.418669,71.346945 c 0.190634,0 0.2723343,-0.0817 0.2723343,-0.272334 0,-0.58098 -0.526513,-1.506917 -1.3253603,-1.506917 H 5.274865 c -0.1634006,0 -0.2360231,0.12709 -0.2360231,0.299568 v 0.226945 c 0,0.145245 0.027233,0.281412 0.1543228,0.344957 l 0.1724784,0.09986 c 0.1361671,0.07262 0.2995677,0.281412 0.3449568,0.535591 0.036311,0.190634 0.099856,0.272334 0.2904899,0.272334 z"
           style="font-stretch:semi-expanded;font-family:'Vtg Stencil Marsh';-inkscape-font-specification:'Vtg Stencil Marsh, Semi-Expanded'"
           id="path751" />
        <path
           d="m 8.6154853,75.776917 c 0.2178675,0 0.3086456,-0.09078 0.3086456,-0.308646 v -2.060663 c 0,-0.190634 0.0817,-0.272334 0.2723343,-0.272334 h 0.5628242 c 0.2178675,0 0.3086456,-0.09078 0.3086456,-0.308646 v -0.272334 c 0,-0.217868 -0.090778,-0.308646 -0.3086456,-0.308646 H 9.1964652 c -0.190634,0 -0.2723343,-0.0817 -0.2723343,-0.272334 v -2.060663 c 0,-0.217867 -0.090778,-0.308645 -0.3086456,-0.308645 H 8.2705286 c -0.2178675,0 -0.3086456,0.09078 -0.3086456,0.308645 v 5.55562 c 0,0.217867 0.090778,0.308646 0.3086456,0.308646 z m 2.7051877,0 c 0.217867,0 0.308645,-0.09078 0.308645,-0.308646 v -0.272334 c 0,-0.217868 -0.09078,-0.308646 -0.308645,-0.308646 h -1.216427 c -0.2178672,0 -0.3086453,0.09078 -0.3086453,0.308646 v 0.272334 c 0,0.217867 0.090778,0.308646 0.3086453,0.308646 z m 0,-5.283286 c 0.217867,0 0.308645,-0.09078 0.308645,-0.308646 v -0.272334 c 0,-0.217867 -0.09078,-0.308645 -0.308645,-0.308645 h -1.216427 c -0.2178672,0 -0.3086453,0.09078 -0.3086453,0.308645 v 0.272334 c 0,0.217868 0.090778,0.308646 0.3086453,0.308646 z"
           style="font-stretch:semi-expanded;font-family:'Vtg Stencil Marsh';-inkscape-font-specification:'Vtg Stencil Marsh, Semi-Expanded'"
           id="path748" />
        <path
           d="m 17.439103,75.776917 c 0.154323,0 0.236023,-0.06354 0.236023,-0.163401 0,-0.04539 -0.0091,-0.09078 -0.03631,-0.145245 l -1.107493,-2.169597 c -0.02723,-0.06354 -0.03631,-0.09986 -0.03631,-0.1634 v -0.02723 c 0,-0.05447 0.02723,-0.09986 0.0817,-0.127089 0.490202,-0.190634 1.043948,-0.590058 1.043948,-1.461528 v -0.2451 c 0,-0.87147 -0.562824,-1.670317 -1.815562,-1.670317 h -0.254178 c -0.217868,0 -0.308646,0.09078 -0.308646,0.308645 v 0.272334 c 0,0.217868 0.09078,0.308646 0.308646,0.308646 h 0.254178 c 0.453891,0 0.817003,0.272334 0.817003,0.780692 v 0.2451 c 0,0.508358 -0.363112,0.780692 -0.817003,0.780692 h -0.254178 c -0.217868,0 -0.308646,0.09078 -0.308646,0.308646 v 0.199712 c 0,0.118011 0.04539,0.217867 0.0817,0.290489 l 1.261816,2.387465 c 0.09986,0.190634 0.199712,0.29049 0.417579,0.29049 z m -3.376945,0 c 0.217867,0 0.308645,-0.09078 0.308645,-0.308646 v -5.55562 c 0,-0.217867 -0.09078,-0.308645 -0.308645,-0.308645 h -0.344957 c -0.217867,0 -0.308646,0.09078 -0.308646,0.308645 v 5.55562 c 0,0.217867 0.09078,0.308646 0.308646,0.308646 z"
           style="font-stretch:semi-expanded;font-family:'Vtg Stencil Marsh';-inkscape-font-specification:'Vtg Stencil Marsh, Semi-Expanded'"
           id="path745" />
        <path
           d="m 21.115603,75.776917 c 0.217867,0 0.308645,-0.09078 0.308645,-0.308646 v -5.55562 c 0,-0.217867 -0.09078,-0.308645 -0.308645,-0.308645 h -0.344957 c -0.217868,0 -0.308646,0.09078 -0.308646,0.308645 v 5.55562 c 0,0.217867 0.09078,0.308646 0.308646,0.308646 z"
           style="font-stretch:semi-expanded;font-family:'Vtg Stencil Marsh';-inkscape-font-specification:'Vtg Stencil Marsh, Semi-Expanded'"
           id="path742" />
        <path
           d="m 28.32337,75.776917 c 0.217868,0 0.317724,-0.09986 0.254179,-0.308646 l -1.724784,-5.564698 c -0.06355,-0.208789 -0.181556,-0.299567 -0.399424,-0.299567 h -0.108933 c -0.217868,0 -0.344957,0.09078 -0.408502,0.299567 l -0.308645,0.998559 c -0.06355,0.20879 0.01816,0.317724 0.190634,0.408502 l 0.09986,0.04539 c 0.399423,0.199712 0.53559,0.499279 0.671758,0.935014 l 0.980403,3.177234 c 0.06355,0.20879 0.181556,0.308646 0.399424,0.308646 z m -2.414697,-1.098416 c 0.317723,0 0.245101,-0.344956 0.208789,-0.462968 l -0.508357,-1.634006 c -0.05447,-0.1634 -0.136167,-0.236023 -0.254179,-0.236023 -0.09986,0 -0.199712,0.07262 -0.254178,0.236023 l -0.898704,2.886744 c -0.06354,0.20879 0.03631,0.308646 0.254179,0.308646 h 0.344957 c 0.217867,0 0.344957,-0.09986 0.399424,-0.308646 l 0.172478,-0.617291 c 0.02723,-0.108934 0.09078,-0.163401 0.20879,-0.172479 z"
           style="font-stretch:semi-expanded;font-family:'Vtg Stencil Marsh';-inkscape-font-specification:'Vtg Stencil Marsh, Semi-Expanded'"
           id="path739" />
        <path
           d="m 30.402175,75.776917 c 0.217868,0 0.308646,-0.09078 0.308646,-0.308646 v -5.55562 c 0,-0.217867 -0.09078,-0.308645 -0.308646,-0.308645 h -0.344957 c -0.217867,0 -0.308645,0.09078 -0.308645,0.308645 v 5.55562 c 0,0.217867 0.09078,0.308646 0.308645,0.308646 z m 3.213545,0 c 0.217867,0 0.308645,-0.09078 0.308645,-0.308646 v -0.272334 c 0,-0.217868 -0.09078,-0.308646 -0.308645,-0.308646 h -1.724784 c -0.217867,0 -0.308646,0.09078 -0.308646,0.308646 v 0.272334 c 0,0.217867 0.09078,0.308646 0.308646,0.308646 z"
           style="font-stretch:semi-expanded;font-family:'Vtg Stencil Marsh';-inkscape-font-specification:'Vtg Stencil Marsh, Semi-Expanded'"
           id="path736" />
        <path
           d="m 41.295522,75.776917 c 0.217867,0 0.308645,-0.09078 0.308645,-0.308646 v -1.870029 c 0,-0.118011 -0.02723,-0.199712 -0.09078,-0.299568 l -0.462968,-0.671758 c -0.06354,-0.09986 -0.145245,-0.136167 -0.217867,-0.136167 -0.09986,0 -0.190634,0.09078 -0.190634,0.254179 v 2.723343 c 0,0.217867 0.09078,0.308646 0.308645,0.308646 z m 3.249856,0 c 0.190634,0 0.272334,-0.118012 0.272334,-0.308646 v -0.74438 c 0,-0.12709 -0.04539,-0.199712 -0.1634,-0.254179 l -0.09078,-0.04539 c -0.09986,-0.04539 -0.172479,-0.09986 -0.236023,-0.199712 l -2.886744,-4.39366 c -0.108932,-0.1634 -0.19971,-0.226944 -0.390344,-0.226944 h -0.136167 c -0.190634,0 -0.272334,0.118011 -0.272334,0.308645 v 0.744381 c 0,0.127089 0.04539,0.199711 0.1634,0.254178 l 0.108934,0.05447 c 0.09986,0.04539 0.172478,0.09986 0.236023,0.199712 l 2.877666,4.384582 c 0.108934,0.163401 0.199712,0.226946 0.390346,0.226946 z m -0.136167,-3.031989 c 0.06354,0.09986 0.145245,0.136167 0.217867,0.136167 0.09986,0 0.190634,-0.09078 0.190634,-0.254179 v -2.714265 c 0,-0.217867 -0.09078,-0.308645 -0.308645,-0.308645 H 44.16411 c -0.217868,0 -0.308646,0.09078 -0.308646,0.308645 v 1.860951 c 0,0.118012 0.02723,0.199712 0.09078,0.299568 z"
           style="font-stretch:semi-expanded;font-family:'Vtg Stencil Marsh';-inkscape-font-specification:'Vtg Stencil Marsh, Semi-Expanded'"
           id="path733" />
        <path
           d="m 47.504728,75.813228 c 0.163401,0 0.236024,-0.12709 0.236024,-0.299568 v -0.236023 c 0,-0.145245 -0.03631,-0.272334 -0.154323,-0.344957 L 47.450262,74.8419 c -0.190634,-0.127089 -0.399424,-0.354035 -0.399424,-0.880548 v -2.541786 c 0,-0.526513 0.20879,-0.753459 0.399424,-0.880548 l 0.136167,-0.09078 c 0.118011,-0.07262 0.154323,-0.199712 0.154323,-0.344957 v -0.236023 c 0,-0.172478 -0.07262,-0.299568 -0.236024,-0.299568 h -0.03631 c -0.09986,0 -0.181556,0.01816 -0.254178,0.04539 -1.071182,0.435735 -1.125649,1.252738 -1.125649,1.978963 v 2.19683 c 0,0.726225 0.05447,1.543228 1.125649,1.978963 0.07262,0.02723 0.154322,0.04539 0.254178,0.04539 z m 1.379828,0 c 0.09986,0 0.181556,-0.01816 0.254178,-0.04539 1.071182,-0.435735 1.125649,-1.252738 1.125649,-1.978963 v -2.19683 c 0,-0.726225 -0.05447,-1.543228 -1.125649,-1.978963 -0.07262,-0.02723 -0.154322,-0.04539 -0.254178,-0.04539 h -0.03631 c -0.1634,0 -0.236023,0.12709 -0.236023,0.299568 v 0.236023 c 0,0.145245 0.03631,0.272334 0.154323,0.344957 l 0.136167,0.09078 c 0.190634,0.127089 0.399424,0.354035 0.399424,0.880548 v 2.541786 c 0,0.526513 -0.20879,0.753459 -0.399424,0.880548 l -0.136167,0.09078 c -0.118011,0.07262 -0.154323,0.199712 -0.154323,0.344957 v 0.236023 c 0,0.172478 0.07262,0.299568 0.236023,0.299568 z"
           style="font-stretch:semi-expanded;font-family:'Vtg Stencil Marsh';-inkscape-font-specification:'Vtg Stencil Marsh, Semi-Expanded'"
           id="path730" />
        <path
           d="m 53.623157,75.867695 c 0.417579,0 0.708069,-0.299568 0.708069,-0.726225 0,-0.426657 -0.29049,-0.726225 -0.708069,-0.726225 -0.417579,0 -0.708069,0.299568 -0.708069,0.726225 0,0.426657 0.29049,0.726225 0.708069,0.726225 z"
           style="font-stretch:semi-expanded;font-family:'Vtg Stencil Marsh';-inkscape-font-specification:'Vtg Stencil Marsh, Semi-Expanded'"
           id="path727" />
        <path
           d="m 58.352684,75.813228 c 0.163401,0 0.236023,-0.12709 0.236023,-0.299568 v -0.263256 c 0,-0.145245 -0.03631,-0.272335 -0.154322,-0.344957 l -0.09078,-0.06354 C 58.15297,74.714818 57.944181,74.487872 57.944181,73.961359 v -2.541786 c 0,-0.526513 0.208789,-0.753459 0.399424,-0.880548 l 0.09078,-0.06354 c 0.118011,-0.07262 0.154322,-0.236023 0.154322,-0.381268 v -0.226945 c 0,-0.172478 -0.07262,-0.299568 -0.236023,-0.299568 h -0.03631 c -0.09986,0 -0.136167,0.01816 -0.20879,0.04539 -1.071181,0.435735 -1.125648,1.252738 -1.125648,1.978963 v 2.19683 c 0,0.726225 0.05447,1.543228 1.125648,1.978963 0.07262,0.02723 0.108934,0.04539 0.20879,0.04539 z m 1.470606,0 c 0.09985,0 0.136167,-0.01816 0.208789,-0.04539 1.071182,-0.435735 1.125649,-1.252738 1.125649,-1.978963 v -2.19683 c 0,-0.726225 -0.05447,-1.543228 -1.125649,-1.978963 -0.07262,-0.02723 -0.108934,-0.04539 -0.208789,-0.04539 h -0.03631 c -0.1634,0 -0.236023,0.12709 -0.236023,0.299568 v 0.263257 c 0,0.145244 0.03631,0.272334 0.154323,0.344956 l 0.09078,0.06354 c 0.190634,0.127089 0.399424,0.354035 0.399424,0.880548 v 2.541786 c 0,0.526513 -0.20879,0.753459 -0.399424,0.880548 l -0.09078,0.06354 c -0.118011,0.07262 -0.154323,0.199712 -0.154323,0.344957 v 0.263256 c 0,0.172478 0.07262,0.299568 0.236023,0.299568 z"
           style="font-stretch:semi-expanded;font-family:'Vtg Stencil Marsh';-inkscape-font-specification:'Vtg Stencil Marsh, Semi-Expanded'"
           id="path724" />
        <path
           d="m 63.799359,75.813228 c 0.1634,0 0.236023,-0.12709 0.236023,-0.299568 v -0.263256 c 0,-0.145245 -0.03631,-0.272335 -0.154323,-0.344957 l -0.09078,-0.06354 c -0.190634,-0.127089 -0.399424,-0.354035 -0.399424,-0.880548 v -2.541786 c 0,-0.526513 0.20879,-0.753459 0.399424,-0.880548 l 0.09078,-0.06354 c 0.118011,-0.07262 0.154323,-0.236023 0.154323,-0.381268 v -0.226945 c 0,-0.172478 -0.07262,-0.299568 -0.236023,-0.299568 h -0.03631 c -0.09985,0 -0.136167,0.01816 -0.208789,0.04539 -1.071182,0.435735 -1.125649,1.252738 -1.125649,1.978963 v 2.19683 c 0,0.726225 0.05447,1.543228 1.125649,1.978963 0.07262,0.02723 0.108934,0.04539 0.208789,0.04539 z m 1.470605,0 c 0.09986,0 0.136167,-0.01816 0.20879,-0.04539 1.071181,-0.435735 1.125648,-1.252738 1.125648,-1.978963 v -2.19683 c 0,-0.726225 -0.05447,-1.543228 -1.125648,-1.978963 -0.07262,-0.02723 -0.108934,-0.04539 -0.20879,-0.04539 h -0.03631 c -0.163401,0 -0.236023,0.12709 -0.236023,0.299568 v 0.263257 c 0,0.145244 0.03631,0.272334 0.154322,0.344956 l 0.09078,0.06354 c 0.190635,0.127089 0.399424,0.354035 0.399424,0.880548 v 2.541786 c 0,0.526513 -0.208789,0.753459 -0.399424,0.880548 l -0.09078,0.06354 c -0.118011,0.07262 -0.154322,0.199712 -0.154322,0.344957 v 0.263256 c 0,0.172478 0.07262,0.299568 0.236023,0.299568 z"
           style="font-stretch:semi-expanded;font-family:'Vtg Stencil Marsh';-inkscape-font-specification:'Vtg Stencil Marsh, Semi-Expanded'"
           id="path721" />
        <path
           d="m 70.271822,75.776917 c 0.217867,0 0.308645,-0.09078 0.308645,-0.308646 v -5.55562 c 0,-0.217867 -0.09078,-0.308645 -0.308645,-0.308645 h -0.344957 c -0.217867,0 -0.335879,0.0817 -0.435735,0.281412 l -0.526513,1.089337 c -0.03631,0.07262 -0.05447,0.154323 -0.05447,0.217867 0,0.108934 0.06355,0.226946 0.190634,0.281412 l 0.245101,0.108934 c 0.199712,0.0817 0.272334,0.20879 0.272334,0.426657 v 3.458646 c 0,0.217867 0.09078,0.308646 0.308646,0.308646 z"
           style="font-stretch:semi-expanded;font-family:'Vtg Stencil Marsh';-inkscape-font-specification:'Vtg Stencil Marsh, Semi-Expanded'"
           id="path718" />
      </g>
    </g>
  </g>
</svg>
