<?xml version="1.0" encoding="UTF-8" standalone="no"?>
<!-- Created with Inkscape (http://www.inkscape.org/) -->

<svg
   width="237.80237mm"
   height="93.934776mm"
   viewBox="0 0 237.80237 93.934776"
   version="1.1"
   id="svg5"
   inkscape:version="1.2.1 (9c6d41e, 2022-07-14)"
   sodipodi:docname="phoenix.svg"
   xmlns:inkscape="http://www.inkscape.org/namespaces/inkscape"
   xmlns:sodipodi="http://sodipodi.sourceforge.net/DTD/sodipodi-0.dtd"
   xmlns="http://www.w3.org/2000/svg"
   xmlns:svg="http://www.w3.org/2000/svg">
  <sodipodi:namedview
     id="namedview7"
     pagecolor="#ffffff"
     bordercolor="#666666"
     borderopacity="1.0"
     inkscape:showpageshadow="2"
     inkscape:pageopacity="0.0"
     inkscape:pagecheckerboard="0"
     inkscape:deskcolor="#d1d1d1"
     inkscape:document-units="mm"
     showgrid="false"
     inkscape:zoom="0.32921153"
     inkscape:cx="1295.5196"
     inkscape:cy="1274.2567"
     inkscape:window-width="1720"
     inkscape:window-height="1313"
     inkscape:window-x="1720"
     inkscape:window-y="25"
     inkscape:window-maximized="0"
     inkscape:current-layer="layer1" />
  <defs
     id="defs2" />
  <g
     inkscape:groupmode="layer"
     id="layer2"
     inkscape:label="Layer 2"
     transform="translate(189.97553,217.09123)">
    <g
       aria-label="AIM-54a"
       id="text786"
       style="font-stretch:semi-expanded;font-size:36.8116px;line-height:1.25;font-family:'Vtg Stencil Marsh';-inkscape-font-specification:'Vtg Stencil Marsh, Semi-Expanded';stroke-width:0.575182">
      <path
         d="m -129.49417,-191.83847 c 0.88347,0 1.2884,-0.40493 1.03072,-1.25159 l -6.9942,-22.56552 c -0.25768,-0.84666 -0.73624,-1.21478 -1.61971,-1.21478 h -0.44174 c -0.88348,0 -1.39884,0.36812 -1.65652,1.21478 l -1.2516,4.04928 c -0.25768,0.84667 0.0736,1.28841 0.77304,1.65652 l 0.40493,0.18406 c 1.61971,0.80986 2.17189,2.02464 2.72406,3.7916 l 3.97565,12.88406 c 0.25768,0.84666 0.73624,1.25159 1.61971,1.25159 z m -9.79189,-4.4542 c 1.28841,0 0.99391,-1.39884 0.84667,-1.8774 l -2.06145,-6.62608 c -0.22087,-0.66261 -0.55218,-0.95711 -1.03073,-0.95711 -0.40492,0 -0.80985,0.2945 -1.03072,0.95711 l -3.64435,11.70609 c -0.25768,0.84666 0.14725,1.25159 1.03072,1.25159 h 1.39885 c 0.88347,0 1.39884,-0.40493 1.61971,-1.25159 l 0.69942,-2.50319 c 0.11043,-0.44174 0.36811,-0.66261 0.84666,-0.69942 z"
         style="font-style:italic"
         id="path2618" />
      <path
         d="m -114.54872,-191.83847 c 0.88348,0 1.25159,-0.36812 1.25159,-1.25159 v -22.5287 c 0,-0.88348 -0.36811,-1.2516 -1.25159,-1.2516 h -1.39884 c -0.88348,0 -1.2516,0.36812 -1.2516,1.2516 v 22.5287 c 0,0.88347 0.36812,1.25159 1.2516,1.25159 z"
         style="font-style:italic"
         id="path2620" />
      <path
         d="m -92.57225,-205.09065 c 0.257681,-0.44174 0.220869,-0.88347 -0.03681,-1.36203 l -5.190435,-9.60782 c -0.294493,-0.55218 -0.736232,-0.80986 -1.36203,-0.80986 h -1.214785 c -0.88348,0 -1.25159,0.36812 -1.25159,1.2516 v 3.12898 c 0,0.51536 0.22087,0.77305 0.73623,0.80986 l 0.58898,0.0736 c 0.2945,0.0368 0.515368,0.18406 0.662615,0.44174 l 4.15971,7.58319 c 0.257682,0.44174 0.552174,0.77304 1.030725,0.77304 0.441739,0 0.699421,-0.3313 0.993913,-0.80985 z m 6.626088,13.25218 c 0.883478,0 1.251594,-0.36812 1.251594,-1.25159 v -22.5287 c 0,-0.88348 -0.368116,-1.2516 -1.251594,-1.2516 h -1.214783 c -0.625797,0 -1.067536,0.25768 -1.362029,0.80986 l -2.024638,3.4971 c -0.331305,0.55217 -0.331305,1.06754 -0.03681,1.61971 l 1.766957,3.46029 c 0.147246,0.22087 0.22087,0.55217 0.22087,0.80985 v 13.58349 c 0,0.88347 0.368116,1.25159 1.251594,1.25159 z m -13.031307,0 c 0.883479,0 1.251595,-0.36812 1.251595,-1.25159 v -6.69972 c 0,-0.47855 -0.110435,-0.80985 -0.368116,-1.21478 l -1.877392,-2.72406 c -0.257678,-0.40492 -0.588988,-0.55217 -0.883478,-0.55217 -0.40493,0 -0.77304,0.36811 -0.77304,1.03072 v 10.16001 c 0,0.88347 0.36811,1.25159 1.25159,1.25159 z"
         style="font-style:italic"
         id="path2622" />
      <path
         d="m -64.227376,-202.55065 c 0.883479,0 1.251595,-0.36811 1.251595,-1.25159 v -1.10435 c 0,-0.88348 -0.368116,-1.25159 -1.251595,-1.25159 h -13.693915 c -0.883478,0 -1.251594,0.36811 -1.251594,1.25159 v 1.10435 c 0,0.88348 0.368116,1.25159 1.251594,1.25159 z"
         style="font-style:italic"
         id="path2624" />
      <path
         d="m -46.52105,-195.26195 c -0.588985,-0.47855 -1.104348,-0.55217 -1.84058,-0.36812 -0.220869,0.0368 -0.515362,0.0736 -0.846666,0.0736 -1.951015,0 -3.975653,-1.17797 -4.270146,-3.38667 -0.110435,-0.88348 -0.515362,-1.25159 -1.398841,-1.25159 H -56.2025 c -0.883479,0 -1.362029,0.36811 -1.251595,1.25159 0.404928,3.38667 2.724059,7.25189 8.393045,7.25189 1.325218,0 2.576812,-0.25769 3.754783,-1.03073 0.588986,-0.40493 0.588986,-1.06754 0,-1.50927 z m 3.68116,-2.02464 c 0.625798,0.47855 1.214783,0.36812 1.582899,-0.29449 0.368116,-0.66261 0.625797,-1.65652 0.625797,-2.79768 0,-3.23942 -1.987826,-7.47276 -6.846957,-8.13537 -0.883479,-0.11043 -1.362029,0.11044 -1.766957,0.88348 l -0.736232,1.36203 c -0.368116,0.66261 -0.184058,1.32522 0.69942,1.32522 2.944928,0 4.675074,2.13507 4.675074,4.63826 0,0.25768 0,0.40493 -0.03681,0.6258 -0.110435,0.6258 0.07362,0.99391 0.552174,1.39884 z m 1.214783,-19.14203 c -0.184058,-0.47855 -0.515362,-0.66261 -0.883478,-0.66261 -0.22087,0 -2.650435,0.22087 -5.52174,0.22087 H -56.2025 c -0.883479,0 -1.251595,0.36812 -1.251595,1.2516 v 9.42377 c 0,0.88347 0.368116,1.25159 1.251595,1.25159 h 1.39884 c 0.883479,0 1.251595,-0.36812 1.251595,-1.25159 v -6.14754 c 0,-0.6258 0.294493,-0.92029 0.92029,-0.92029 h 3.828406 c 2.871305,0 5.337682,-0.22087 7.067827,-1.39884 0.515363,-0.36812 0.588986,-0.80986 0.368116,-1.28841 z"
         style="font-style:italic"
         id="path2626" />
      <path
         d="m -22.115012,-191.83847 c 0.883478,0 1.251594,-0.36812 1.251594,-1.25159 v -4.85914 c 0,-0.51536 0.147246,-0.88347 0.588986,-1.14116 l 0.662608,-0.36811 c 0.44174,-0.25768 0.588986,-0.66261 0.588986,-1.17797 v -0.73623 c 0,-0.51537 -0.147246,-0.92029 -0.588986,-1.17798 l -0.662608,-0.36811 c -0.44174,-0.25768 -0.588986,-0.6258 -0.588986,-1.14116 v -11.55884 c 0,-0.88348 -0.368116,-1.2516 -1.251594,-1.2516 h -0.957102 c -0.773044,0 -1.325218,0.18406 -1.766957,0.80986 l -2.54,3.09217 c -0.588986,0.66261 -0.552174,1.47247 0.110435,1.98783 l 1.656522,1.2884 c 0.625797,0.47855 0.846666,1.06754 0.846666,1.84058 v 14.76146 c 0,0.88347 0.368116,1.25159 1.251595,1.25159 z m -7.435944,-7.10464 c 0.883479,0 1.251595,-0.36812 1.251595,-1.25159 v -1.2516 c 0,-0.40493 -0.147247,-0.84666 -0.662609,-0.9571 l -0.404928,-0.0736 c -0.588985,-0.11044 -0.662608,-0.36812 -0.662608,-0.77305 0,-0.25768 0.147246,-0.55217 0.441739,-0.92029 l 1.030725,-1.2884 c 0.47855,-0.6258 0.47855,-1.06754 -0.110435,-1.5829 l -1.288406,-1.06754 c -0.588986,-0.51536 -1.104348,-0.51536 -1.582899,0.0736 l -4.086087,4.93275 c -0.331305,0.40493 -0.478551,0.92029 -0.478551,1.43565 v 1.47247 c 0,0.88347 0.368116,1.25159 1.251594,1.25159 z"
         style="font-style:italic"
         id="path2628" />
      <path
         d="m 3.0272492,-191.83847 c 0.8834784,0 1.288406,-0.40493 1.0307248,-1.25159 l -6.9942039,-22.56552 c -0.2576812,-0.84666 -0.736232,-1.21478 -1.6197104,-1.21478 h -0.4417392 c -0.8834784,0 -1.3988408,0.36812 -1.656522,1.21478 l -1.2515944,4.04928 c -0.2576812,0.84667 0.073623,1.28841 0.7730436,1.65652 l 0.4049276,0.18406 c 1.6197104,0.80986 2.1718844,2.02464 2.7240584,3.7916 l 3.97565274,12.88406 c 0.2576812,0.84666 0.736232,1.25159 1.61971036,1.25159 z m -9.7918855,-4.4542 c 1.288406,0 0.9939132,-1.39884 0.8466668,-1.8774 l -2.0614496,-6.62608 c -0.2208696,-0.66261 -0.552174,-0.95711 -1.0307248,-0.95711 -0.4049276,0 -0.8098552,0.2945 -1.0307251,0.95711 l -3.644348,11.70609 c -0.257681,0.84666 0.147246,1.25159 1.030725,1.25159 h 1.398841 c 0.883478,0 1.3988403,-0.40493 1.6197099,-1.25159 l 0.6994204,-2.50319 c 0.1104348,-0.44174 0.368116,-0.66261 0.8466668,-0.69942 z"
         style="font-style:italic"
         id="path2630" />
    </g>
    <g
       aria-label="guided missile"
       id="text846"
       style="font-size:10.1744px;line-height:1.25;font-family:'Vtg Stencil Marsh';-inkscape-font-specification:'Vtg Stencil Marsh, Normal';letter-spacing:1.45834px;stroke-width:0.158976">
      <path
         d="m -114.39953,-175.10826 c 0.11192,0 0.20349,-0.0204 0.28488,-0.0509 1.26163,-0.45785 1.26163,-1.80087 1.26163,-2.21802 v -0.94622 c 0,-0.24418 -0.10174,-0.34593 -0.34593,-0.34593 h -1.19041 c -0.24418,0 -0.34592,0.10175 -0.34592,0.34593 v 0.32558 c 0,0.24419 0.10174,0.32558 0.34592,0.32558 h 0.15262 c 0.19331,0 0.30523,0.0712 0.30523,0.25436 v 0.36628 c 0,0.36628 -0.16279,0.66134 -0.44767,0.85465 l -0.15262,0.10174 c -0.13226,0.0814 -0.17296,0.22384 -0.17296,0.38663 v 0.26454 c 0,0.19331 0.0814,0.33575 0.26453,0.33575 z m -1.54651,0 c 0.18314,0 0.26454,-0.14244 0.26454,-0.33575 v -0.26454 c 0,-0.16279 -0.0407,-0.30523 -0.17297,-0.38663 l -0.15261,-0.10174 c -0.21367,-0.14244 -0.44768,-0.3968 -0.44768,-0.98692 v -2.84883 c 0,-0.59011 0.23401,-0.84447 0.44768,-0.98692 l 0.15261,-0.10174 c 0.13227,-0.0814 0.17297,-0.22384 0.17297,-0.38663 v -0.26453 c 0,-0.19331 -0.0814,-0.33576 -0.26454,-0.33576 h -0.0407 c -0.11191,0 -0.20348,0.0204 -0.28488,0.0509 -1.20058,0.48837 -1.26162,1.40406 -1.26162,2.21802 v 2.4622 c 0,0.81395 0.061,1.72965 1.26162,2.21802 0.0814,0.0305 0.17297,0.0509 0.28488,0.0509 z m 2.74709,-4.609 c 0.24419,0 0.34593,-0.10175 0.34593,-0.34593 0,-0.59012 -0.13227,-1.58721 -1.26163,-1.99418 -0.0814,-0.0305 -0.17296,-0.0509 -0.28488,-0.0509 h -0.0407 c -0.18314,0 -0.26453,0.14245 -0.26453,0.33576 v 0.26453 c 0,0.16279 0.0407,0.30524 0.17296,0.38663 l 0.15262,0.10174 c 0.21366,0.14245 0.44767,0.39681 0.44767,0.9564 0,0.24418 0.10175,0.34593 0.34593,0.34593 z"
         id="path2633" />
      <path
         d="m -108.38307,-175.10826 c 0.18314,0 0.26453,-0.14244 0.26453,-0.33575 v -0.26454 c 0,-0.16279 -0.0407,-0.30523 -0.17296,-0.38663 l -0.15262,-0.10174 c -0.21366,-0.14244 -0.44767,-0.3968 -0.44767,-0.98692 v -4.53778 c 0,-0.24418 -0.10175,-0.34593 -0.34593,-0.34593 h -0.38663 c -0.24419,0 -0.34593,0.10175 -0.34593,0.34593 v 4.34447 c 0,0.81395 0.0611,1.72965 1.26163,2.21802 0.0814,0.0305 0.17296,0.0509 0.28488,0.0509 z m 1.54651,0 c 0.11191,0 0.20348,-0.0204 0.28488,-0.0509 1.20058,-0.48837 1.26162,-1.40407 1.26162,-2.21802 v -4.34447 c 0,-0.24418 -0.10174,-0.34593 -0.34593,-0.34593 h -0.38662 c -0.24419,0 -0.34593,0.10175 -0.34593,0.34593 v 4.53778 c 0,0.59012 -0.23401,0.84448 -0.44768,0.98692 l -0.15261,0.10174 c -0.13227,0.0814 -0.17297,0.22384 -0.17297,0.38663 v 0.26454 c 0,0.19331 0.0814,0.33575 0.26454,0.33575 z"
         id="path2635" />
      <path
         d="m -99.873889,-175.14896 c 0.244185,0 0.345929,-0.10174 0.345929,-0.34593 v -6.22673 c 0,-0.24418 -0.101744,-0.34593 -0.345929,-0.34593 h -0.386631 c -0.24418,0 -0.34593,0.10175 -0.34593,0.34593 v 6.22673 c 0,0.24419 0.10175,0.34593 0.34593,0.34593 z"
         id="path2637" />
      <path
         d="m -94.111794,-175.14896 c 0.244186,0 0.34593,-0.10174 0.34593,-0.34593 v -6.22673 c 0,-0.24418 -0.101744,-0.34593 -0.34593,-0.34593 h -0.386627 c -0.244186,0 -0.34593,0.10175 -0.34593,0.34593 v 6.22673 c 0,0.24419 0.101744,0.34593 0.34593,0.34593 z m 1.892439,0 c 0.752905,0 2.055229,-0.60029 2.055229,-2.36046 v -2.19767 c 0,-1.76017 -1.302324,-2.36046 -2.055229,-2.36046 h -0.25436 c -0.25436,0 -0.315407,0.15262 -0.315407,0.33576 v 0.27471 c 0,0.20348 0.06105,0.34593 0.315407,0.3968 l 0.325581,0.0712 c 0.661336,0.14244 0.905521,0.65116 0.905521,1.38372 v 1.99418 c 0,0.73256 -0.223837,1.24128 -0.905521,1.38372 l -0.325581,0.0712 c -0.25436,0.0509 -0.315407,0.19331 -0.315407,0.3968 v 0.27471 c 0,0.18314 0.06105,0.33575 0.315407,0.33575 z"
         id="path2639" />
      <path
         d="m -86.548828,-175.14896 c 0.244185,0 0.345929,-0.10174 0.345929,-0.34593 v -2.30958 c 0,-0.21367 0.09157,-0.30524 0.305232,-0.30524 h 0.630813 c 0.244186,0 0.34593,-0.10174 0.34593,-0.34593 v -0.30523 c 0,-0.24418 -0.101744,-0.34593 -0.34593,-0.34593 h -0.630813 c -0.213662,0 -0.305232,-0.0916 -0.305232,-0.30523 v -2.30959 c 0,-0.24418 -0.101744,-0.34593 -0.345929,-0.34593 h -0.386628 c -0.244185,0 -0.345929,0.10175 -0.345929,0.34593 v 6.22673 c 0,0.24419 0.101744,0.34593 0.345929,0.34593 z m 3.031971,0 c 0.244186,0 0.34593,-0.10174 0.34593,-0.34593 v -0.30523 c 0,-0.24418 -0.101744,-0.34593 -0.34593,-0.34593 h -1.36337 c -0.244185,0 -0.345929,0.10175 -0.345929,0.34593 v 0.30523 c 0,0.24419 0.101744,0.34593 0.345929,0.34593 z m 0,-5.9215 c 0.244186,0 0.34593,-0.10174 0.34593,-0.34593 v -0.30523 c 0,-0.24418 -0.101744,-0.34593 -0.34593,-0.34593 h -1.36337 c -0.244185,0 -0.345929,0.10175 -0.345929,0.34593 v 0.30523 c 0,0.24419 0.101744,0.34593 0.345929,0.34593 z"
         id="path2641" />
      <path
         d="m -78.985865,-175.14896 c 0.244186,0 0.34593,-0.10174 0.34593,-0.34593 v -6.22673 c 0,-0.24418 -0.101744,-0.34593 -0.34593,-0.34593 h -0.386627 c -0.244186,0 -0.34593,0.10175 -0.34593,0.34593 v 6.22673 c 0,0.24419 0.101744,0.34593 0.34593,0.34593 z m 1.892439,0 c 0.752905,0 2.055228,-0.60029 2.055228,-2.36046 v -2.19767 c 0,-1.76017 -1.302323,-2.36046 -2.055228,-2.36046 h -0.25436 c -0.25436,0 -0.315407,0.15262 -0.315407,0.33576 v 0.27471 c 0,0.20348 0.06105,0.34593 0.315407,0.3968 l 0.32558,0.0712 c 0.661336,0.14244 0.905522,0.65116 0.905522,1.38372 v 1.99418 c 0,0.73256 -0.223837,1.24128 -0.905522,1.38372 l -0.32558,0.0712 c -0.25436,0.0509 -0.315407,0.19331 -0.315407,0.3968 v 0.27471 c 0,0.18314 0.06105,0.33575 0.315407,0.33575 z"
         id="path2643" />
      <path
         d="m -62.089588,-178.81174 c 0.07122,-0.12209 0.06105,-0.24419 -0.01018,-0.37645 l -1.43459,-2.65552 c -0.0814,-0.15262 -0.203488,-0.22384 -0.376453,-0.22384 h -0.335755 c -0.244186,0 -0.34593,0.10175 -0.34593,0.34593 v 0.86483 c 0,0.14244 0.06105,0.21366 0.203488,0.22383 l 0.16279,0.0204 c 0.0814,0.0102 0.142442,0.0509 0.18314,0.12209 l 1.149707,2.09593 c 0.07122,0.12209 0.152616,0.21366 0.284883,0.21366 0.122093,0 0.193314,-0.0916 0.274709,-0.22383 z m 1.831392,3.66278 c 0.244185,0 0.345929,-0.10174 0.345929,-0.34593 v -6.22673 c 0,-0.24418 -0.101744,-0.34593 -0.345929,-0.34593 h -0.335756 c -0.172964,0 -0.295057,0.0712 -0.376452,0.22384 l -0.559592,0.96657 c -0.09157,0.15261 -0.09157,0.29505 -0.01018,0.44767 l 0.488371,0.95639 c 0.0407,0.0611 0.06105,0.15262 0.06105,0.22384 v 3.75435 c 0,0.24419 0.101744,0.34593 0.345929,0.34593 z m -3.601738,0 c 0.244186,0 0.34593,-0.10174 0.34593,-0.34593 v -1.85174 c 0,-0.13226 -0.03052,-0.22383 -0.101744,-0.33575 l -0.518895,-0.75291 c -0.07122,-0.11192 -0.16279,-0.15261 -0.244186,-0.15261 -0.111918,0 -0.213662,0.10174 -0.213662,0.28488 v 2.80813 c 0,0.24419 0.101744,0.34593 0.34593,0.34593 z"
         id="path2645" />
      <path
         d="m -54.4961,-175.14896 c 0.244186,0 0.34593,-0.10174 0.34593,-0.34593 v -6.22673 c 0,-0.24418 -0.101744,-0.34593 -0.34593,-0.34593 h -0.386627 c -0.244186,0 -0.34593,0.10175 -0.34593,0.34593 v 6.22673 c 0,0.24419 0.101744,0.34593 0.34593,0.34593 z"
         id="path2647" />
      <path
         d="m -47.879357,-175.10826 c 0.183139,0 0.264534,-0.14244 0.264534,-0.33575 v -0.25436 c 0,-0.16279 -0.0407,-0.29506 -0.183139,-0.37646 l -0.203488,-0.12209 c -0.203488,-0.12209 -0.34593,-0.32558 -0.376453,-0.55959 -0.03052,-0.21366 -0.111919,-0.30523 -0.325581,-0.30523 h -0.457848 c -0.213662,0 -0.305232,0.0916 -0.305232,0.30523 0,0.70203 0.67151,1.64825 1.454939,1.64825 z m 1.617729,0 c 0.640987,0 1.515986,-0.76308 1.515986,-1.96366 0,-0.95639 -0.549418,-1.46511 -1.414242,-1.84156 l -1.546509,-0.67151 c -0.50872,-0.22384 -0.681685,-0.4782 -0.681685,-0.88518 0,-0.33575 0.162791,-0.47819 0.417151,-0.60029 l 0.172965,-0.0814 c 0.142441,-0.0509 0.183139,-0.20349 0.183139,-0.36628 v -0.25436 c 0,-0.19331 -0.07122,-0.32558 -0.25436,-0.33576 h -0.101744 c -0.447674,0 -1.495637,0.4375 -1.495637,1.72965 0,0.93605 0.518894,1.43459 1.159882,1.7093 l 1.658427,0.72238 c 0.559592,0.24419 0.824126,0.5189 0.824126,0.97675 0,0.3968 -0.203488,0.63081 -0.447673,0.7936 l -0.183139,0.12209 c -0.132268,0.0814 -0.18314,0.19332 -0.18314,0.35611 v 0.25436 c 0,0.19331 0.0814,0.33575 0.264535,0.33575 z m 1.170056,-5.0058 c 0.213663,0 0.305232,-0.0916 0.305232,-0.30524 0,-0.65116 -0.590115,-1.68895 -1.485462,-1.68895 h -0.101744 c -0.183139,0 -0.264535,0.14245 -0.264535,0.33576 v 0.25436 c 0,0.16279 0.03052,0.31541 0.172965,0.38663 l 0.193314,0.11191 c 0.152616,0.0814 0.335755,0.31541 0.386627,0.60029 0.0407,0.21367 0.111918,0.30524 0.325581,0.30524 z"
         id="path2649" />
      <path
         d="m -40.316392,-175.10826 c 0.183139,0 0.264534,-0.14244 0.264534,-0.33575 v -0.25436 c 0,-0.16279 -0.0407,-0.29506 -0.183139,-0.37646 l -0.203488,-0.12209 c -0.203488,-0.12209 -0.34593,-0.32558 -0.376453,-0.55959 -0.03052,-0.21366 -0.111918,-0.30523 -0.325581,-0.30523 h -0.457848 c -0.213662,0 -0.305232,0.0916 -0.305232,0.30523 0,0.70203 0.671511,1.64825 1.45494,1.64825 z m 1.61773,0 c 0.640987,0 1.515985,-0.76308 1.515985,-1.96366 0,-0.95639 -0.549417,-1.46511 -1.414241,-1.84156 l -1.546509,-0.67151 c -0.50872,-0.22384 -0.681685,-0.4782 -0.681685,-0.88518 0,-0.33575 0.16279,-0.47819 0.41715,-0.60029 l 0.172965,-0.0814 c 0.142442,-0.0509 0.183139,-0.20349 0.183139,-0.36628 v -0.25436 c 0,-0.19331 -0.07122,-0.32558 -0.25436,-0.33576 h -0.101744 c -0.447673,0 -1.495637,0.4375 -1.495637,1.72965 0,0.93605 0.518895,1.43459 1.159882,1.7093 l 1.658427,0.72238 c 0.559592,0.24419 0.824127,0.5189 0.824127,0.97675 0,0.3968 -0.203488,0.63081 -0.447674,0.7936 l -0.183139,0.12209 c -0.132267,0.0814 -0.183139,0.19332 -0.183139,0.35611 v 0.25436 c 0,0.19331 0.08139,0.33575 0.264534,0.33575 z m 1.170056,-5.0058 c 0.213662,0 0.305232,-0.0916 0.305232,-0.30524 0,-0.65116 -0.590116,-1.68895 -1.485463,-1.68895 h -0.101744 c -0.183139,0 -0.264534,0.14245 -0.264534,0.33576 v 0.25436 c 0,0.16279 0.03052,0.31541 0.172965,0.38663 l 0.193313,0.11191 c 0.152616,0.0814 0.335755,0.31541 0.386627,0.60029 0.0407,0.21367 0.111919,0.30524 0.325581,0.30524 z"
         id="path2651" />
      <path
         d="m -31.807207,-175.14896 c 0.244185,0 0.345929,-0.10174 0.345929,-0.34593 v -6.22673 c 0,-0.24418 -0.101744,-0.34593 -0.345929,-0.34593 h -0.386628 c -0.244185,0 -0.345929,0.10175 -0.345929,0.34593 v 6.22673 c 0,0.24419 0.101744,0.34593 0.345929,0.34593 z"
         id="path2653" />
      <path
         d="m -26.045111,-175.14896 c 0.244186,0 0.34593,-0.10174 0.34593,-0.34593 v -6.22673 c 0,-0.24418 -0.101744,-0.34593 -0.34593,-0.34593 h -0.386627 c -0.244186,0 -0.34593,0.10175 -0.34593,0.34593 v 6.22673 c 0,0.24419 0.101744,0.34593 0.34593,0.34593 z m 3.601738,0 c 0.244185,0 0.345929,-0.10174 0.345929,-0.34593 v -0.30523 c 0,-0.24418 -0.101744,-0.34593 -0.345929,-0.34593 h -1.933136 c -0.244186,0 -0.34593,0.10175 -0.34593,0.34593 v 0.30523 c 0,0.24419 0.101744,0.34593 0.34593,0.34593 z"
         id="path2655" />
      <path
         d="m -18.482146,-175.14896 c 0.244186,0 0.34593,-0.10174 0.34593,-0.34593 v -2.30958 c 0,-0.21367 0.09157,-0.30524 0.305232,-0.30524 h 0.630813 c 0.244185,0 0.345929,-0.10174 0.345929,-0.34593 v -0.30523 c 0,-0.24418 -0.101744,-0.34593 -0.345929,-0.34593 h -0.630813 c -0.213662,0 -0.305232,-0.0916 -0.305232,-0.30523 v -2.30959 c 0,-0.24418 -0.101744,-0.34593 -0.34593,-0.34593 h -0.386627 c -0.244185,0 -0.345929,0.10175 -0.345929,0.34593 v 6.22673 c 0,0.24419 0.101744,0.34593 0.345929,0.34593 z m 3.031972,0 c 0.244185,0 0.345929,-0.10174 0.345929,-0.34593 v -0.30523 c 0,-0.24418 -0.101744,-0.34593 -0.345929,-0.34593 h -1.36337 c -0.244186,0 -0.34593,0.10175 -0.34593,0.34593 v 0.30523 c 0,0.24419 0.101744,0.34593 0.34593,0.34593 z m 0,-5.9215 c 0.244185,0 0.345929,-0.10174 0.345929,-0.34593 v -0.30523 c 0,-0.24418 -0.101744,-0.34593 -0.345929,-0.34593 h -1.36337 c -0.244186,0 -0.34593,0.10175 -0.34593,0.34593 v 0.30523 c 0,0.24419 0.101744,0.34593 0.34593,0.34593 z"
         id="path2657" />
    </g>
    <g
       aria-label="82372-699062-011"
       id="text850"
       style="font-stretch:semi-expanded;font-size:10.1744px;line-height:1.25;font-family:'Vtg Stencil Marsh';-inkscape-font-specification:'Vtg Stencil Marsh, Semi-Expanded';letter-spacing:1.46258px;stroke-width:0.158975">
      <path
         d="m -122.18759,-123.15655 c 0.18314,0 0.26453,-0.14244 0.26453,-0.33575 v -0.29506 c 0,-0.16279 -0.0407,-0.30523 -0.17296,-0.38663 l -0.10175,-0.0712 c -0.23401,-0.16279 -0.50872,-0.3561 -0.50872,-0.88517 0,-0.67151 0.4782,-0.90552 0.54942,-0.94622 0.19331,-0.11192 0.23401,-0.22383 0.23401,-0.46802 v -0.22384 c 0,-0.24418 -0.0407,-0.3561 -0.23401,-0.46802 -0.0712,-0.0407 -0.54942,-0.27471 -0.54942,-0.94622 0,-0.51889 0.26454,-0.73256 0.50872,-0.88517 l 0.10175,-0.0712 c 0.13226,-0.0814 0.17296,-0.26454 0.17296,-0.42733 v -0.25436 c 0,-0.19331 -0.0814,-0.33575 -0.26453,-0.33575 h -0.0407 c -0.0814,0 -0.16279,0.0204 -0.23401,0.0509 -0.55959,0.22384 -1.32267,0.73256 -1.32267,1.94331 0,0.40698 0.0916,0.89535 0.51889,1.3125 0.0712,0.061 0.0916,0.10174 0.0916,0.17296 v 0.0305 c 0,0.0712 -0.0204,0.10174 -0.0916,0.17296 -0.42732,0.42733 -0.51889,0.9157 -0.51889,1.32267 0,1.21076 0.76308,1.71948 1.32267,1.94331 0.0712,0.0305 0.15261,0.0509 0.23401,0.0509 z m 1.54651,0 c 0.0814,0 0.16279,-0.0203 0.23401,-0.0509 0.55959,-0.22383 1.32267,-0.73255 1.32267,-1.94331 0,-0.40697 -0.0916,-0.89534 -0.51889,-1.32267 -0.0712,-0.0712 -0.0916,-0.10174 -0.0916,-0.17296 v -0.0305 c 0,-0.0712 0.0203,-0.11192 0.0916,-0.17296 0.42732,-0.41715 0.51889,-0.90552 0.51889,-1.3125 0,-1.21075 -0.76308,-1.71947 -1.32267,-1.94331 -0.0712,-0.0305 -0.15262,-0.0509 -0.23401,-0.0509 h -0.0407 c -0.18314,0 -0.26454,0.14244 -0.26454,0.33575 v 0.25436 c 0,0.16279 0.0407,0.34593 0.17297,0.42733 l 0.10174,0.0712 c 0.24419,0.15261 0.50872,0.36628 0.50872,0.88517 0,0.67151 -0.47819,0.90552 -0.54941,0.94622 -0.19332,0.11192 -0.23402,0.22384 -0.23402,0.46802 v 0.22384 c 0,0.24419 0.0407,0.3561 0.23402,0.46802 0.0712,0.0407 0.54941,0.27471 0.54941,0.94622 0,0.52907 -0.27471,0.72238 -0.50872,0.88517 l -0.10174,0.0712 c -0.13227,0.0814 -0.17297,0.22384 -0.17297,0.38663 v 0.29506 c 0,0.19331 0.0814,0.33575 0.26454,0.33575 z"
         id="path2660" />
      <path
         d="m -111.99539,-123.19724 c 0.24418,0 0.34593,-0.10175 0.34593,-0.34593 v -0.30523 c 0,-0.24419 -0.10175,-0.34593 -0.34593,-0.34593 h -1.95349 c -0.14244,0 -0.24418,-0.0407 -0.3561,-0.14245 l -0.55959,-0.51889 c -0.18314,-0.16279 -0.36628,-0.16279 -0.53925,0.0102 l -0.63081,0.60029 c -0.13227,0.13227 -0.19331,0.26454 -0.19331,0.4375 v 0.26454 c 0,0.24418 0.10174,0.34593 0.34593,0.34593 z m -0.46803,-3.0625 c 0.36628,-0.37645 0.9157,-0.89534 0.9157,-1.90261 0,-1.21075 -0.7936,-1.71947 -1.35319,-1.94331 -0.0712,-0.0305 -0.15262,-0.0509 -0.21367,-0.0509 -0.18314,0 -0.26453,0.14244 -0.26453,0.33575 v 0.32558 c 0,0.20349 0.0712,0.29506 0.21366,0.38663 0.24419,0.15262 0.53924,0.3968 0.53924,0.92587 0,0.33576 -0.12209,0.68169 -0.52906,1.08866 l -0.96657,0.97674 c -0.17297,0.17297 -0.17297,0.32559 0.0102,0.48838 l 0.27471,0.26453 c 0.18314,0.17296 0.32558,0.17296 0.49855,0 z m -2.99127,-1.50581 c 0.24419,0 0.34593,-0.10174 0.34593,-0.34593 0,-0.55959 0.23401,-0.82412 0.44767,-0.95639 l 0.13227,-0.0814 c 0.13227,-0.0712 0.17297,-0.25436 0.17297,-0.41715 v -0.25436 c 0,-0.19331 -0.0814,-0.33575 -0.26454,-0.33575 h -0.0407 c -0.11191,0 -0.20348,0.0305 -0.26453,0.0509 -1.25145,0.45785 -1.26163,1.64825 -1.26163,1.99418 0,0.24419 0.10175,0.34593 0.34593,0.34593 z"
         id="path2662" />
      <path
         d="m -107.04301,-123.15655 c 0.18314,0 0.26454,-0.14244 0.26454,-0.33575 v -0.29506 c 0,-0.16279 -0.0305,-0.3154 -0.17297,-0.38663 l -0.14244,-0.0712 c -0.22384,-0.11191 -0.44767,-0.3968 -0.44767,-0.95639 0,-0.24419 -0.10175,-0.34593 -0.34593,-0.34593 h -0.38663 c -0.24419,0 -0.34593,0.10174 -0.34593,0.34593 0,0.34593 0.0102,1.53633 1.26162,1.99418 0.0814,0.0305 0.21367,0.0509 0.27471,0.0509 z m 1.24128,-0.33575 c 0,0.19331 0.0814,0.33575 0.26453,0.33575 0.061,0 0.16279,-0.0203 0.23401,-0.0509 0.5596,-0.22383 1.32268,-0.73255 1.32268,-1.94331 0,-0.40697 -0.0916,-0.89534 -0.5189,-1.32267 -0.0712,-0.0712 -0.0916,-0.10174 -0.0916,-0.17296 v -0.0305 c 0,-0.0712 0.0204,-0.11192 0.0916,-0.17296 0.42733,-0.41715 0.5189,-0.90552 0.5189,-1.3125 0,-1.21075 -0.76308,-1.71947 -1.32268,-1.94331 -0.0712,-0.0305 -0.18314,-0.0509 -0.24418,-0.0509 -0.18314,0 -0.26454,0.14244 -0.26454,0.33575 v 0.32558 c 0,0.20349 0.0712,0.29506 0.21367,0.38663 0.24418,0.15262 0.53924,0.3968 0.53924,0.92587 0,0.68169 -0.48837,1.02762 -0.95639,1.02762 h -0.0916 c -0.24419,0 -0.30524,0.10174 -0.30524,0.34593 v 0.30523 c 0,0.24418 0.061,0.34593 0.30524,0.34593 h 0.0916 c 0.46802,0 0.95639,0.34593 0.95639,1.02761 0,0.52907 -0.28488,0.77326 -0.52907,0.92587 -0.14244,0.0916 -0.21366,0.18314 -0.21366,0.38663 z m -2.08575,-4.27325 c 0.24418,0 0.34593,-0.10174 0.34593,-0.34593 0,-0.55959 0.23401,-0.82412 0.44767,-0.95639 l 0.13227,-0.0814 c 0.13226,-0.0712 0.17296,-0.25436 0.17296,-0.41715 v -0.25436 c 0,-0.19331 -0.0814,-0.33575 -0.26453,-0.33575 h -0.0407 c -0.11192,0 -0.20349,0.0305 -0.26454,0.0509 -1.25145,0.45785 -1.26162,1.64825 -1.26162,1.99418 0,0.24419 0.10174,0.34593 0.34593,0.34593 z"
         id="path2664" />
      <path
         d="m -99.129874,-123.19724 c 0.244185,0 0.345929,-0.10175 0.356104,-0.34593 0.02035,-0.63082 0.142441,-1.00727 0.305232,-1.38372 0.193313,-0.44767 0.447673,-0.93605 0.895347,-1.81104 0.111918,-0.21367 0.09157,-0.37646 -0.09157,-0.52907 l -0.32558,-0.28489 c -0.142442,-0.13226 -0.34593,-0.11191 -0.4375,0.0712 -0.406976,0.80378 -0.864824,1.71948 -1.007265,2.04506 -0.244186,0.54942 -0.386627,1.09883 -0.417151,1.89244 -0.01017,0.24418 0.09157,0.34593 0.335756,0.34593 z m 2.136624,-5.07703 c 0.132267,0 0.193313,-0.0509 0.25436,-0.16279 l 0.234011,-0.46802 c 0.0814,-0.15262 0.111918,-0.30523 0.111918,-0.4782 v -0.38663 c 0,-0.24418 -0.101744,-0.34592 -0.345929,-0.34592 h -3.74418 c -0.24419,0 -0.36628,0.0712 -0.40698,0.3154 l -0.061,0.32558 c -0.0509,0.24419 0.0814,0.35611 0.29506,0.35611 h 2.29941 c 0.142442,0 0.25436,0.0407 0.356104,0.13226 l 0.651162,0.59012 c 0.09157,0.0916 0.193313,0.12209 0.325581,0.12209 z"
         id="path2666" />
      <path
         d="m -89.293779,-123.19724 c 0.244185,0 0.345929,-0.10175 0.345929,-0.34593 v -0.30523 c 0,-0.24419 -0.101744,-0.34593 -0.345929,-0.34593 h -1.953485 c -0.142442,0 -0.244186,-0.0407 -0.356104,-0.14245 l -0.559592,-0.51889 c -0.18314,-0.16279 -0.366279,-0.16279 -0.539244,0.0102 l -0.630812,0.60029 c -0.132268,0.13227 -0.193314,0.26454 -0.193314,0.4375 v 0.26454 c 0,0.24418 0.101744,0.34593 0.34593,0.34593 z m -0.468023,-3.0625 c 0.366279,-0.37645 0.915696,-0.89534 0.915696,-1.90261 0,-1.21075 -0.793603,-1.71947 -1.353195,-1.94331 -0.07122,-0.0305 -0.152616,-0.0509 -0.213663,-0.0509 -0.183139,0 -0.264534,0.14244 -0.264534,0.33575 v 0.32558 c 0,0.20349 0.07122,0.29506 0.213662,0.38663 0.244186,0.15262 0.539244,0.3968 0.539244,0.92587 0,0.33576 -0.122093,0.68169 -0.529069,1.08866 l -0.966568,0.97674 c -0.172965,0.17297 -0.172965,0.32559 0.01017,0.48838 l 0.274709,0.26453 c 0.183139,0.17296 0.325581,0.17296 0.498546,0 z m -2.991274,-1.50581 c 0.244186,0 0.34593,-0.10174 0.34593,-0.34593 0,-0.55959 0.234011,-0.82412 0.447674,-0.95639 l 0.132267,-0.0814 c 0.132267,-0.0712 0.172965,-0.25436 0.172965,-0.41715 v -0.25436 c 0,-0.19331 -0.0814,-0.33575 -0.264535,-0.33575 h -0.0407 c -0.111919,0 -0.203488,0.0305 -0.264535,0.0509 -1.251451,0.45785 -1.261625,1.64825 -1.261625,1.99418 0,0.24419 0.101744,0.34593 0.345929,0.34593 z"
         id="path2668" />
      <path
         d="m -81.706223,-126.15799 c 0.244185,0 0.345929,-0.10175 0.345929,-0.34593 v -0.30523 c 0,-0.24419 -0.101744,-0.34593 -0.345929,-0.34593 H -85.4911 c -0.244186,0 -0.34593,0.10174 -0.34593,0.34593 v 0.30523 c 0,0.24418 0.101744,0.34593 0.34593,0.34593 z"
         id="path2670" />
      <path
         d="m -75.237855,-123.15655 c 0.09157,0 0.152616,-0.0203 0.234011,-0.0509 1.007266,-0.36628 1.261626,-1.24127 1.261626,-1.85174 0,-0.62064 -0.25436,-1.49563 -1.261626,-1.86191 -0.0814,-0.0305 -0.172965,-0.0509 -0.234011,-0.0509 h -0.0407 c -0.183139,0 -0.264534,0.14245 -0.264534,0.33576 v 0.29506 c 0,0.16279 0.0407,0.29506 0.172965,0.38662 l 0.101744,0.0712 c 0.213662,0.14244 0.447673,0.41715 0.447673,0.82412 0,0.3968 -0.234011,0.67151 -0.447673,0.81395 l -0.101744,0.0712 c -0.132267,0.0916 -0.172965,0.22384 -0.172965,0.38663 v 0.29506 c 0,0.19331 0.0814,0.33575 0.264534,0.33575 z m 1.149707,-4.81249 c 0.244186,0 0.34593,-0.10174 0.34593,-0.34593 0,-0.28488 -0.06105,-1.31249 -1.261626,-1.79069 -0.0814,-0.0305 -0.122093,-0.0509 -0.234011,-0.0509 h -0.0407 c -0.183139,0 -0.264534,0.14244 -0.264534,0.33575 v 0.29506 c 0,0.16279 0.0407,0.29506 0.172965,0.38663 l 0.101744,0.0712 c 0.213662,0.14244 0.406976,0.3968 0.437499,0.7529 0.02035,0.24419 0.101744,0.34593 0.34593,0.34593 z m -2.696216,4.81249 c 0.183139,0 0.264535,-0.14244 0.264535,-0.33575 v -0.29506 c 0,-0.16279 -0.0407,-0.30523 -0.172965,-0.38663 l -0.101744,-0.0712 c -0.213663,-0.14244 -0.447674,-0.3968 -0.447674,-0.98691 v -2.84883 c 0,-0.59012 0.234011,-0.84448 0.447674,-0.98692 l 0.101744,-0.0712 c 0.132267,-0.0814 0.172965,-0.26454 0.172965,-0.42733 v -0.25436 c 0,-0.19331 -0.0814,-0.33575 -0.264535,-0.33575 h -0.0407 c -0.111918,0 -0.152616,0.0204 -0.234011,0.0509 -1.200579,0.48837 -1.261625,1.40407 -1.261625,2.21802 v 2.4622 c 0,0.81396 0.06105,1.72965 1.261625,2.21802 0.0814,0.0305 0.122093,0.0509 0.234011,0.0509 z"
         id="path2672" />
      <path
         d="m -69.21716,-126.34113 c 0.183139,0 0.264534,-0.14244 0.264534,-0.33576 v -0.29506 c 0,-0.16279 -0.0407,-0.29505 -0.172965,-0.38662 l -0.101744,-0.0712 c -0.213662,-0.14244 -0.447673,-0.41715 -0.447673,-0.82413 0,-0.3968 0.234011,-0.67151 0.447673,-0.81395 l 0.101744,-0.0712 c 0.132267,-0.0916 0.172965,-0.22384 0.172965,-0.38663 v -0.29506 c 0,-0.19331 -0.0814,-0.33575 -0.264534,-0.33575 h -0.0407 c -0.09157,0 -0.152616,0.0204 -0.234011,0.0509 -1.007266,0.36628 -1.261626,1.24128 -1.261626,1.85174 0,0.62064 0.25436,1.49564 1.261626,1.86192 0.0814,0.0305 0.172965,0.0509 0.234011,0.0509 z m 0,3.18458 c 0.183139,0 0.264534,-0.14244 0.264534,-0.33575 v -0.29506 c 0,-0.16279 -0.0407,-0.29506 -0.172965,-0.38663 l -0.101744,-0.0712 c -0.213662,-0.14244 -0.406976,-0.3968 -0.437499,-0.7529 -0.02035,-0.24419 -0.101744,-0.34593 -0.34593,-0.34593 h -0.396801 c -0.244186,0 -0.34593,0.10174 -0.34593,0.34593 0,0.28488 0.06105,1.3125 1.261626,1.79069 0.0814,0.0305 0.122093,0.0509 0.234011,0.0509 z m 1.546508,0 c 0.111919,0 0.152616,-0.0203 0.234012,-0.0509 1.200579,-0.48837 1.261625,-1.40406 1.261625,-2.21802 v -2.4622 c 0,-0.81395 -0.06105,-1.72965 -1.261625,-2.21802 -0.0814,-0.0305 -0.122093,-0.0509 -0.234012,-0.0509 h -0.0407 c -0.183139,0 -0.264535,0.14244 -0.264535,0.33575 v 0.29506 c 0,0.16279 0.0407,0.30523 0.172965,0.38663 l 0.101744,0.0712 c 0.213663,0.14244 0.447674,0.3968 0.447674,0.98692 v 2.84883 c 0,0.59011 -0.234011,0.84447 -0.447674,0.98691 l -0.101744,0.0712 c -0.132267,0.0814 -0.172965,0.26454 -0.172965,0.42733 v 0.25436 c 0,0.19331 0.0814,0.33575 0.264535,0.33575 z"
         id="path2674" />
      <path
         d="m -61.649957,-126.34113 c 0.183139,0 0.264535,-0.14244 0.264535,-0.33576 v -0.29506 c 0,-0.16279 -0.0407,-0.29505 -0.172965,-0.38662 l -0.101744,-0.0712 c -0.213663,-0.14244 -0.447674,-0.41715 -0.447674,-0.82413 0,-0.3968 0.234011,-0.67151 0.447674,-0.81395 l 0.101744,-0.0712 c 0.132267,-0.0916 0.172965,-0.22384 0.172965,-0.38663 v -0.29506 c 0,-0.19331 -0.0814,-0.33575 -0.264535,-0.33575 h -0.0407 c -0.09157,0 -0.152616,0.0204 -0.234012,0.0509 -1.007265,0.36628 -1.261625,1.24128 -1.261625,1.85174 0,0.62064 0.25436,1.49564 1.261625,1.86192 0.0814,0.0305 0.172965,0.0509 0.234012,0.0509 z m 0,3.18458 c 0.183139,0 0.264535,-0.14244 0.264535,-0.33575 v -0.29506 c 0,-0.16279 -0.0407,-0.29506 -0.172965,-0.38663 l -0.101744,-0.0712 c -0.213663,-0.14244 -0.406976,-0.3968 -0.437499,-0.7529 -0.02035,-0.24419 -0.101744,-0.34593 -0.34593,-0.34593 h -0.396802 c -0.244185,0 -0.345929,0.10174 -0.345929,0.34593 0,0.28488 0.06105,1.3125 1.261625,1.79069 0.0814,0.0305 0.122093,0.0509 0.234012,0.0509 z m 1.546509,0 c 0.111918,0 0.152616,-0.0203 0.234011,-0.0509 1.200579,-0.48837 1.261626,-1.40406 1.261626,-2.21802 v -2.4622 c 0,-0.81395 -0.06105,-1.72965 -1.261626,-2.21802 -0.0814,-0.0305 -0.122093,-0.0509 -0.234011,-0.0509 h -0.0407 c -0.183139,0 -0.264534,0.14244 -0.264534,0.33575 v 0.29506 c 0,0.16279 0.0407,0.30523 0.172965,0.38663 l 0.101744,0.0712 c 0.213662,0.14244 0.447673,0.3968 0.447673,0.98692 v 2.84883 c 0,0.59011 -0.234011,0.84447 -0.447673,0.98691 l -0.101744,0.0712 c -0.132267,0.0814 -0.172965,0.26454 -0.172965,0.42733 v 0.25436 c 0,0.19331 0.08139,0.33575 0.264534,0.33575 z"
         id="path2676" />
      <path
         d="m -54.133622,-123.15655 c 0.18314,0 0.264535,-0.14244 0.264535,-0.33575 v -0.29506 c 0,-0.16279 -0.0407,-0.30523 -0.172965,-0.38663 l -0.101744,-0.0712 c -0.213662,-0.14244 -0.447674,-0.3968 -0.447674,-0.98691 v -2.84883 c 0,-0.59012 0.234012,-0.84448 0.447674,-0.98692 l 0.101744,-0.0712 c 0.132267,-0.0814 0.172965,-0.26454 0.172965,-0.42733 v -0.25436 c 0,-0.19331 -0.0814,-0.33575 -0.264535,-0.33575 h -0.0407 c -0.111919,0 -0.152616,0.0204 -0.234011,0.0509 -1.20058,0.48837 -1.261626,1.40407 -1.261626,2.21802 v 2.4622 c 0,0.81396 0.06105,1.72965 1.261626,2.21802 0.0814,0.0305 0.122092,0.0509 0.234011,0.0509 z m 1.648253,0 c 0.111919,0 0.152616,-0.0203 0.234012,-0.0509 1.200579,-0.48837 1.261625,-1.40406 1.261625,-2.21802 v -2.4622 c 0,-0.81395 -0.06105,-1.72965 -1.261625,-2.21802 -0.0814,-0.0305 -0.122093,-0.0509 -0.234012,-0.0509 h -0.0407 c -0.183139,0 -0.264535,0.14244 -0.264535,0.33575 v 0.29506 c 0,0.16279 0.0407,0.30523 0.172965,0.38663 l 0.101744,0.0712 c 0.213663,0.14244 0.447674,0.3968 0.447674,0.98692 v 2.84883 c 0,0.59011 -0.234011,0.84447 -0.447674,0.98691 l -0.101744,0.0712 c -0.132267,0.0814 -0.172965,0.22384 -0.172965,0.38663 v 0.29506 c 0,0.19331 0.0814,0.33575 0.264535,0.33575 z"
         id="path2678" />
      <path
         d="m -44.969033,-123.15655 c 0.09157,0 0.152616,-0.0203 0.234011,-0.0509 1.007265,-0.36628 1.261626,-1.24127 1.261626,-1.85174 0,-0.62064 -0.254361,-1.49563 -1.261626,-1.86191 -0.0814,-0.0305 -0.172965,-0.0509 -0.234011,-0.0509 h -0.0407 c -0.183139,0 -0.264534,0.14245 -0.264534,0.33576 v 0.29506 c 0,0.16279 0.0407,0.29506 0.172964,0.38662 l 0.101744,0.0712 c 0.213663,0.14244 0.447674,0.41715 0.447674,0.82412 0,0.3968 -0.234011,0.67151 -0.447674,0.81395 l -0.101744,0.0712 c -0.132267,0.0916 -0.172964,0.22384 -0.172964,0.38663 v 0.29506 c 0,0.19331 0.0814,0.33575 0.264534,0.33575 z m 1.149707,-4.81249 c 0.244186,0 0.34593,-0.10174 0.34593,-0.34593 0,-0.28488 -0.06105,-1.31249 -1.261626,-1.79069 -0.0814,-0.0305 -0.122093,-0.0509 -0.234011,-0.0509 h -0.0407 c -0.183139,0 -0.264534,0.14244 -0.264534,0.33575 v 0.29506 c 0,0.16279 0.0407,0.29506 0.172964,0.38663 l 0.101744,0.0712 c 0.213663,0.14244 0.406976,0.3968 0.4375,0.7529 0.02035,0.24419 0.101744,0.34593 0.345929,0.34593 z m -2.696216,4.81249 c 0.183139,0 0.264534,-0.14244 0.264534,-0.33575 v -0.29506 c 0,-0.16279 -0.0407,-0.30523 -0.172965,-0.38663 l -0.101744,-0.0712 c -0.213662,-0.14244 -0.447673,-0.3968 -0.447673,-0.98691 v -2.84883 c 0,-0.59012 0.234011,-0.84448 0.447673,-0.98692 l 0.101744,-0.0712 c 0.132268,-0.0814 0.172965,-0.26454 0.172965,-0.42733 v -0.25436 c 0,-0.19331 -0.0814,-0.33575 -0.264534,-0.33575 h -0.0407 c -0.111918,0 -0.152616,0.0204 -0.234011,0.0509 -1.200579,0.48837 -1.261626,1.40407 -1.261626,2.21802 v 2.4622 c 0,0.81396 0.06105,1.72965 1.261626,2.21802 0.0814,0.0305 0.122093,0.0509 0.234011,0.0509 z"
         id="path2680" />
      <path
         d="m -36.323347,-123.19724 c 0.244185,0 0.345929,-0.10175 0.345929,-0.34593 v -0.30523 c 0,-0.24419 -0.101744,-0.34593 -0.345929,-0.34593 h -1.953485 c -0.142442,0 -0.244186,-0.0407 -0.356104,-0.14245 l -0.559592,-0.51889 c -0.183139,-0.16279 -0.366279,-0.16279 -0.539243,0.0102 l -0.630813,0.60029 c -0.132267,0.13227 -0.193314,0.26454 -0.193314,0.4375 v 0.26454 c 0,0.24418 0.101744,0.34593 0.34593,0.34593 z m -0.468023,-3.0625 c 0.366279,-0.37645 0.915696,-0.89534 0.915696,-1.90261 0,-1.21075 -0.793603,-1.71947 -1.353195,-1.94331 -0.07122,-0.0305 -0.152616,-0.0509 -0.213662,-0.0509 -0.183139,0 -0.264535,0.14244 -0.264535,0.33575 v 0.32558 c 0,0.20349 0.07122,0.29506 0.213663,0.38663 0.244185,0.15262 0.539243,0.3968 0.539243,0.92587 0,0.33576 -0.122093,0.68169 -0.529069,1.08866 l -0.966568,0.97674 c -0.172965,0.17297 -0.172965,0.32559 0.01017,0.48838 l 0.274708,0.26453 c 0.18314,0.17296 0.325581,0.17296 0.498546,0 z m -2.991273,-1.50581 c 0.244185,0 0.345929,-0.10174 0.345929,-0.34593 0,-0.55959 0.234012,-0.82412 0.447674,-0.95639 l 0.132267,-0.0814 c 0.132267,-0.0712 0.172965,-0.25436 0.172965,-0.41715 v -0.25436 c 0,-0.19331 -0.0814,-0.33575 -0.264534,-0.33575 h -0.0407 c -0.111918,0 -0.203488,0.0305 -0.264534,0.0509 -1.251452,0.45785 -1.261626,1.64825 -1.261626,1.99418 0,0.24419 0.101744,0.34593 0.345929,0.34593 z"
         id="path2682" />
      <path
         d="m -28.735791,-126.15799 c 0.244186,0 0.34593,-0.10175 0.34593,-0.34593 v -0.30523 c 0,-0.24419 -0.101744,-0.34593 -0.34593,-0.34593 h -3.784877 c -0.244186,0 -0.34593,0.10174 -0.34593,0.34593 v 0.30523 c 0,0.24418 0.101744,0.34593 0.34593,0.34593 z"
         id="path2684" />
      <path
         d="m -23.8648,-123.15655 c 0.183139,0 0.264535,-0.14244 0.264535,-0.33575 v -0.29506 c 0,-0.16279 -0.0407,-0.30523 -0.172965,-0.38663 l -0.101744,-0.0712 c -0.213663,-0.14244 -0.447674,-0.3968 -0.447674,-0.98691 v -2.84883 c 0,-0.59012 0.234011,-0.84448 0.447674,-0.98692 l 0.101744,-0.0712 c 0.132267,-0.0814 0.172965,-0.26454 0.172965,-0.42733 v -0.25436 c 0,-0.19331 -0.0814,-0.33575 -0.264535,-0.33575 h -0.0407 c -0.111919,0 -0.152616,0.0204 -0.234012,0.0509 -1.200579,0.48837 -1.261625,1.40407 -1.261625,2.21802 v 2.4622 c 0,0.81396 0.06105,1.72965 1.261625,2.21802 0.0814,0.0305 0.122093,0.0509 0.234012,0.0509 z m 1.648253,0 c 0.111918,0 0.152616,-0.0203 0.234011,-0.0509 1.200579,-0.48837 1.261626,-1.40406 1.261626,-2.21802 v -2.4622 c 0,-0.81395 -0.06105,-1.72965 -1.261626,-2.21802 -0.0814,-0.0305 -0.122093,-0.0509 -0.234011,-0.0509 h -0.0407 c -0.183139,0 -0.264534,0.14244 -0.264534,0.33575 v 0.29506 c 0,0.16279 0.0407,0.30523 0.172965,0.38663 l 0.101744,0.0712 c 0.213662,0.14244 0.447673,0.3968 0.447673,0.98692 v 2.84883 c 0,0.59011 -0.234011,0.84447 -0.447673,0.98691 l -0.101744,0.0712 c -0.132267,0.0814 -0.172965,0.22384 -0.172965,0.38663 v 0.29506 c 0,0.19331 0.08139,0.33575 0.264534,0.33575 z"
         id="path2686" />
      <path
         d="m -15.147893,-123.19724 c 0.244186,0 0.34593,-0.10175 0.34593,-0.34593 v -6.22674 c 0,-0.24418 -0.101744,-0.34592 -0.34593,-0.34592 h -0.386627 c -0.244186,0 -0.376453,0.0916 -0.488371,0.3154 l -0.590116,1.22093 c -0.0407,0.0814 -0.06105,0.17296 -0.06105,0.24419 0,0.12209 0.07122,0.25436 0.213662,0.3154 l 0.274709,0.12209 c 0.223837,0.0916 0.305232,0.23402 0.305232,0.4782 v 3.87645 c 0,0.24418 0.101744,0.34593 0.34593,0.34593 z"
         id="path2688" />
      <path
         d="m -7.5806855,-123.19724 c 0.2441856,0 0.3459296,-0.10175 0.3459296,-0.34593 v -6.22674 c 0,-0.24418 -0.101744,-0.34592 -0.3459296,-0.34592 h -0.3866272 c -0.2441857,0 -0.3764529,0.0916 -0.4883713,0.3154 l -0.5901152,1.22093 c -0.040698,0.0814 -0.061046,0.17296 -0.061046,0.24419 0,0.12209 0.071221,0.25436 0.2136624,0.3154 l 0.2747088,0.12209 c 0.2238368,0.0916 0.305232,0.23402 0.305232,0.4782 v 3.87645 c 0,0.24418 0.101744,0.34593 0.3459297,0.34593 z"
         id="path2690" />
    </g>
    <g
       aria-label="serno 20060"
       id="text840"
       style="font-stretch:semi-expanded;font-size:36.8116px;line-height:1.25;font-family:'Vtg Stencil Marsh';-inkscape-font-specification:'Vtg Stencil Marsh, Semi-Expanded';stroke-width:0.575182">
      <path
         d="m -184.23292,-140.84891 c 0.66261,0 0.95711,-0.51536 0.95711,-1.21478 v -0.92029 c 0,-0.58899 -0.14725,-1.06754 -0.66261,-1.36203 l -0.73624,-0.44174 c -0.73623,-0.44174 -1.25159,-1.17797 -1.36202,-2.02464 -0.11044,-0.77304 -0.40493,-1.10435 -1.17798,-1.10435 h -1.65652 c -0.77304,0 -1.10435,0.33131 -1.10435,1.10435 0,2.54 2.42957,5.96348 5.26406,5.96348 z m 5.85305,0 c 2.31913,0 5.48493,-2.76087 5.48493,-7.10464 0,-3.46029 -1.98783,-5.30087 -5.11682,-6.6629 l -5.59536,-2.42956 c -1.84058,-0.80986 -2.46638,-1.73015 -2.46638,-3.20261 0,-1.21478 0.58899,-1.73015 1.50928,-2.17189 l 0.6258,-0.29449 c 0.51536,-0.18406 0.66261,-0.73623 0.66261,-1.32522 v -0.92029 c 0,-0.69942 -0.25769,-1.17797 -0.92029,-1.21478 h -0.36812 c -1.61971,0 -5.41131,1.5829 -5.41131,6.25797 0,3.38667 1.8774,5.19044 4.19653,6.18435 l 6.00029,2.61363 c 2.02464,0.88347 2.98174,1.87739 2.98174,3.53391 0,1.43565 -0.73623,2.28232 -1.61971,2.8713 l -0.66261,0.44174 c -0.47855,0.2945 -0.66261,0.69942 -0.66261,1.28841 v 0.92029 c 0,0.69942 0.29449,1.21478 0.9571,1.21478 z m 4.23333,-18.11131 c 0.77305,0 1.10435,-0.3313 1.10435,-1.10434 0,-2.35595 -2.13507,-6.11073 -5.37449,-6.11073 h -0.36812 c -0.66261,0 -0.9571,0.51536 -0.9571,1.21478 v 0.92029 c 0,0.58899 0.11043,1.14116 0.6258,1.39884 l 0.69942,0.40493 c 0.55217,0.29449 1.21478,1.14116 1.39884,2.17189 0.14724,0.77304 0.40493,1.10434 1.17797,1.10434 z"
         id="path2693" />
      <path
         d="m -165.23819,-140.99615 c 0.88348,0 1.2516,-0.36812 1.2516,-1.2516 v -8.35623 c 0,-0.77305 0.3313,-1.10435 1.10435,-1.10435 h 2.28232 c 0.88347,0 1.25159,-0.36812 1.25159,-1.25159 v -1.10435 c 0,-0.88348 -0.36812,-1.2516 -1.25159,-1.2516 h -2.28232 c -0.77305,0 -1.10435,-0.3313 -1.10435,-1.10435 v -8.35623 c 0,-0.88348 -0.36812,-1.25159 -1.2516,-1.25159 h -1.39884 c -0.88348,0 -1.25159,0.36811 -1.25159,1.25159 v 22.5287 c 0,0.88348 0.36811,1.2516 1.25159,1.2516 z m 10.96986,0 c 0.88348,0 1.2516,-0.36812 1.2516,-1.2516 v -1.10435 c 0,-0.88348 -0.36812,-1.25159 -1.2516,-1.25159 h -4.93275 c -0.88348,0 -1.2516,0.36811 -1.2516,1.25159 v 1.10435 c 0,0.88348 0.36812,1.2516 1.2516,1.2516 z m 0,-21.42436 c 0.88348,0 1.2516,-0.36811 1.2516,-1.25159 v -1.10435 c 0,-0.88348 -0.36812,-1.25159 -1.2516,-1.25159 h -4.93275 c -0.88348,0 -1.2516,0.36811 -1.2516,1.25159 v 1.10435 c 0,0.88348 0.36812,1.25159 1.2516,1.25159 z"
         id="path2695" />
      <path
         d="m -129.45737,-140.99615 c 0.6258,0 0.95711,-0.25769 0.95711,-0.66261 0,-0.18406 -0.0368,-0.36812 -0.14725,-0.58899 l -4.49102,-8.79797 c -0.11043,-0.25768 -0.14724,-0.40493 -0.14724,-0.66261 v -0.11044 c 0,-0.22086 0.11043,-0.40492 0.3313,-0.51536 1.98783,-0.77304 4.23334,-2.39275 4.23334,-5.92667 v -0.99391 c 0,-3.53391 -2.28232,-6.77333 -7.36232,-6.77333 h -1.03073 c -0.88348,0 -1.25159,0.36811 -1.25159,1.25159 v 1.10435 c 0,0.88348 0.36811,1.25159 1.25159,1.25159 h 1.03073 c 1.84058,0 3.31304,1.10435 3.31304,3.1658 v 0.99391 c 0,2.06145 -1.47246,3.1658 -3.31304,3.1658 h -1.03073 c -0.88348,0 -1.25159,0.36812 -1.25159,1.2516 v 0.80985 c 0,0.47855 0.18405,0.88348 0.3313,1.17797 l 5.11681,9.68145 c 0.40493,0.77305 0.80986,1.17798 1.69334,1.17798 z m -13.69391,0 c 0.88348,0 1.25159,-0.36812 1.25159,-1.2516 v -22.5287 c 0,-0.88348 -0.36811,-1.25159 -1.25159,-1.25159 h -1.39884 c -0.88348,0 -1.2516,0.36811 -1.2516,1.25159 v 22.5287 c 0,0.88348 0.36812,1.2516 1.2516,1.2516 z"
         id="path2697" />
      <path
         d="m -121.06438,-140.99615 c 0.88348,0 1.2516,-0.36812 1.2516,-1.2516 v -7.58319 c 0,-0.47855 -0.11044,-0.80985 -0.36812,-1.21478 l -1.87739,-2.72406 c -0.25768,-0.40493 -0.58899,-0.55217 -0.88348,-0.55217 -0.40493,0 -0.77304,0.36811 -0.77304,1.03072 v 11.04348 c 0,0.88348 0.36811,1.2516 1.25159,1.2516 z m 13.17855,0 c 0.77305,0 1.10435,-0.47856 1.10435,-1.2516 v -3.01855 c 0,-0.51536 -0.18406,-0.80986 -0.66261,-1.03073 l -0.36811,-0.18405 c -0.40493,-0.18406 -0.69942,-0.40493 -0.9571,-0.80986 l -11.70609,-17.81681 c -0.44174,-0.66261 -0.80986,-0.92029 -1.5829,-0.92029 h -0.55218 c -0.77304,0 -1.10434,0.47855 -1.10434,1.25159 v 3.01855 c 0,0.51537 0.18405,0.80986 0.6626,1.03073 l 0.44174,0.22087 c 0.40493,0.18406 0.69942,0.40492 0.95711,0.80985 l 11.66927,17.78001 c 0.44174,0.6626 0.80986,0.92029 1.5829,0.92029 z m -0.55217,-12.29508 c 0.25768,0.40493 0.58899,0.55217 0.88348,0.55217 0.40493,0 0.77304,-0.36811 0.77304,-1.03072 v -11.00667 c 0,-0.88348 -0.36811,-1.25159 -1.25159,-1.25159 h -1.39884 c -0.88348,0 -1.2516,0.36811 -1.2516,1.25159 v 7.54638 c 0,0.47855 0.11044,0.80985 0.36812,1.21478 z"
         id="path2699" />
      <path
         d="m -95.885298,-140.84891 c 0.662609,0 0.957102,-0.51536 0.957102,-1.21478 v -0.9571 c 0,-0.58899 -0.147247,-1.10435 -0.625798,-1.39884 l -0.552174,-0.36812 c -0.773043,-0.51536 -1.61971,-1.43565 -1.61971,-3.57072 v -10.30725 c 0,-2.13508 0.846667,-3.05537 1.61971,-3.57073 l 0.552174,-0.36811 c 0.478551,-0.2945 0.625798,-0.80986 0.625798,-1.39884 v -0.95711 c 0,-0.69942 -0.294493,-1.21478 -0.957102,-1.21478 h -0.147246 c -0.404928,0 -0.736232,0.0736 -1.030725,0.18406 -4.343771,1.76696 -4.564641,5.08 -4.564641,8.02493 v 8.9084 c 0,2.94493 0.22087,6.25798 4.564641,8.02493 0.294493,0.11044 0.625797,0.18406 1.030725,0.18406 z m 5.595363,0 c 0.404928,0 0.736232,-0.0736 1.030725,-0.18406 4.343769,-1.76695 4.564638,-5.08 4.564638,-8.02493 v -8.9084 c 0,-2.94493 -0.220869,-6.25797 -4.564638,-8.02493 -0.294493,-0.11044 -0.625797,-0.18406 -1.030725,-0.18406 h -0.147246 c -0.662609,0 -0.957102,0.51536 -0.957102,1.21478 v 0.95711 c 0,0.58898 0.147247,1.10434 0.625797,1.39884 l 0.552174,0.36811 c 0.773044,0.51536 1.619711,1.43565 1.619711,3.57073 v 10.30725 c 0,2.13507 -0.846667,3.05536 -1.619711,3.57072 l -0.552174,0.36812 c -0.47855,0.29449 -0.625797,0.80985 -0.625797,1.39884 v 0.9571 c 0,0.69942 0.294493,1.21478 0.957102,1.21478 z"
         id="path2701" />
      <path
         d="m -42.2141,-140.99615 c 0.883478,0 1.251594,-0.36812 1.251594,-1.2516 v -1.10435 c 0,-0.88348 -0.368116,-1.25159 -1.251594,-1.25159 h -7.067827 c -0.515363,0 -0.883479,-0.14725 -1.288406,-0.51536 l -2.024638,-1.8774 c -0.662609,-0.58898 -1.325218,-0.58898 -1.951015,0.0368 l -2.282319,2.17188 c -0.478551,0.47855 -0.699421,0.9571 -0.699421,1.5829 v 0.9571 c 0,0.88348 0.368116,1.2516 1.251595,1.2516 z m -1.693334,-11.0803 c 1.325218,-1.36203 3.313044,-3.23942 3.313044,-6.88377 0,-4.38058 -2.871304,-6.22116 -4.895942,-7.03101 -0.257682,-0.11044 -0.552174,-0.18406 -0.773044,-0.18406 -0.662609,0 -0.957102,0.51536 -0.957102,1.21478 v 1.17797 c 0,0.73624 0.257682,1.06754 0.773044,1.39885 0.883478,0.55217 1.951015,1.43565 1.951015,3.34985 0,1.21478 -0.441739,2.46638 -1.914203,3.93884 l -3.497102,3.53392 c -0.625798,0.62579 -0.625798,1.17797 0.03681,1.76695 l 0.993913,0.9571 c 0.662609,0.6258 1.177972,0.6258 1.803769,0 z m -10.82261,-5.44811 c 0.883478,0 1.251594,-0.36812 1.251594,-1.2516 0,-2.02464 0.846667,-2.98174 1.619711,-3.46029 l 0.478551,-0.29449 c 0.47855,-0.25768 0.625797,-0.92029 0.625797,-1.50928 v -0.92029 c 0,-0.69942 -0.294493,-1.21478 -0.957102,-1.21478 h -0.147246 c -0.404928,0 -0.736232,0.11044 -0.957102,0.18406 -4.527827,1.65652 -4.564638,5.96348 -4.564638,7.21507 0,0.88348 0.368116,1.2516 1.251594,1.2516 z"
         id="path2703" />
      <path
         d="m -29.808637,-140.84891 c 0.662609,0 0.957102,-0.51536 0.957102,-1.21478 v -1.06754 c 0,-0.58898 -0.147247,-1.10435 -0.625797,-1.39884 l -0.368116,-0.25768 c -0.773044,-0.51536 -1.619711,-1.43565 -1.619711,-3.57072 v -10.30725 c 0,-2.13508 0.846667,-3.05537 1.619711,-3.57073 l 0.368116,-0.25768 c 0.47855,-0.29449 0.625797,-0.9571 0.625797,-1.54609 v -0.92029 c 0,-0.69942 -0.294493,-1.21478 -0.957102,-1.21478 h -0.147246 c -0.404928,0 -0.552174,0.0736 -0.846667,0.18406 -4.343769,1.76696 -4.564638,5.08 -4.564638,8.02493 v 8.9084 c 0,2.94493 0.220869,6.25798 4.564638,8.02493 0.294493,0.11044 0.441739,0.18406 0.846667,0.18406 z m 5.963479,0 c 0.404928,0 0.552174,-0.0736 0.846667,-0.18406 4.343769,-1.76695 4.564639,-5.08 4.564639,-8.02493 v -8.9084 c 0,-2.94493 -0.22087,-6.25797 -4.564639,-8.02493 -0.294493,-0.11044 -0.441739,-0.18406 -0.846667,-0.18406 h -0.147246 c -0.662609,0 -0.957102,0.51536 -0.957102,1.21478 v 1.06754 c 0,0.58899 0.147247,1.10435 0.625798,1.39884 l 0.368116,0.25768 c 0.773043,0.51536 1.61971,1.43565 1.61971,3.57073 v 10.30725 c 0,2.13507 -0.846667,3.05536 -1.61971,3.57072 l -0.368116,0.25768 c -0.478551,0.29449 -0.625798,0.80986 -0.625798,1.39884 v 1.06754 c 0,0.69942 0.294493,1.21478 0.957102,1.21478 z"
         id="path2705" />
      <path
         d="m -7.7217379,-140.84891 c 0.6626088,0 0.9571016,-0.51536 0.9571016,-1.21478 v -1.06754 c 0,-0.58898 -0.1472464,-1.10435 -0.6257972,-1.39884 l -0.368116,-0.25768 c -0.7730436,-0.51536 -1.6197104,-1.43565 -1.6197104,-3.57072 v -10.30725 c 0,-2.13508 0.8466668,-3.05537 1.6197104,-3.57073 l 0.368116,-0.25768 c 0.4785508,-0.29449 0.6257972,-0.9571 0.6257972,-1.54609 v -0.92029 c 0,-0.69942 -0.2944928,-1.21478 -0.9571016,-1.21478 h -0.1472464 c -0.4049276,0 -0.552174,0.0736 -0.8466668,0.18406 -4.3437689,1.76696 -4.5646379,5.08 -4.5646379,8.02493 v 8.9084 c 0,2.94493 0.220869,6.25798 4.5646379,8.02493 0.2944928,0.11044 0.4417392,0.18406 0.8466668,0.18406 z m 5.9634792,0 c 0.4049276,0 0.552174,-0.0736 0.84666675,-0.18406 4.34376875,-1.76695 4.56463835,-5.08 4.56463835,-8.02493 v -8.9084 c 0,-2.94493 -0.2208696,-6.25797 -4.56463835,-8.02493 -0.29449275,-0.11044 -0.44173915,-0.18406 -0.84666675,-0.18406 h -0.1472464 c -0.6626088,0 -0.9571016,0.51536 -0.9571016,1.21478 v 1.06754 c 0,0.58899 0.1472464,1.10435 0.6257972,1.39884 l 0.368116,0.25768 c 0.7730436,0.51536 1.61971035,1.43565 1.61971035,3.57073 v 10.30725 c 0,2.13507 -0.84666675,3.05536 -1.61971035,3.57072 l -0.368116,0.25768 c -0.4785508,0.29449 -0.6257972,0.80986 -0.6257972,1.39884 v 1.06754 c 0,0.69942 0.2944928,1.21478 0.9571016,1.21478 z"
         id="path2707" />
      <path
         d="m 20.144582,-140.84891 c 0.331304,0 0.552174,-0.0736 0.846667,-0.18406 3.644348,-1.32521 4.564638,-4.49101 4.564638,-6.69971 0,-2.24551 -0.92029,-5.4113 -4.564638,-6.73652 -0.294493,-0.11044 -0.625797,-0.18406 -0.846667,-0.18406 h -0.147246 c -0.662609,0 -0.957102,0.51536 -0.957102,1.21478 v 1.06754 c 0,0.58899 0.147246,1.06754 0.625797,1.39884 l 0.368116,0.25768 c 0.773044,0.51537 1.619711,1.50928 1.619711,2.98174 0,1.43565 -0.846667,2.42957 -1.619711,2.94493 l -0.368116,0.25768 c -0.478551,0.33131 -0.625797,0.80986 -0.625797,1.39884 v 1.06754 c 0,0.69942 0.294493,1.21478 0.957102,1.21478 z m 4.159711,-17.41189 c 0.883478,0 1.251594,-0.36811 1.251594,-1.25159 0,-1.03072 -0.220869,-4.7487 -4.564638,-6.47884 -0.294493,-0.11044 -0.441739,-0.18406 -0.846667,-0.18406 h -0.147246 c -0.662609,0 -0.957102,0.51536 -0.957102,1.21478 v 1.06754 c 0,0.58899 0.147246,1.06754 0.625797,1.39884 l 0.368116,0.25768 c 0.773044,0.51536 1.472464,1.43565 1.582899,2.72406 0.07362,0.88348 0.368116,1.25159 1.251594,1.25159 z m -9.755074,17.41189 c 0.662609,0 0.957101,-0.51536 0.957101,-1.21478 v -1.06754 c 0,-0.58898 -0.147246,-1.10435 -0.625797,-1.39884 l -0.368116,-0.25768 c -0.773043,-0.51536 -1.61971,-1.43565 -1.61971,-3.57072 v -10.30725 c 0,-2.13508 0.846667,-3.05537 1.61971,-3.57073 l 0.368116,-0.25768 c 0.478551,-0.29449 0.625797,-0.9571 0.625797,-1.54609 v -0.92029 c 0,-0.69942 -0.294492,-1.21478 -0.957101,-1.21478 h -0.147246 c -0.404928,0 -0.552174,0.0736 -0.846667,0.18406 -4.3437691,1.76696 -4.5646387,5.08 -4.5646387,8.02493 v 8.9084 c 0,2.94493 0.2208696,6.25798 4.5646387,8.02493 0.294493,0.11044 0.441739,0.18406 0.846667,0.18406 z"
         id="path2709" />
      <path
         d="m 36.452075,-140.84891 c 0.662609,0 0.957102,-0.51536 0.957102,-1.21478 v -1.06754 c 0,-0.58898 -0.147247,-1.10435 -0.625798,-1.39884 l -0.368116,-0.25768 c -0.773043,-0.51536 -1.61971,-1.43565 -1.61971,-3.57072 v -10.30725 c 0,-2.13508 0.846667,-3.05537 1.61971,-3.57073 l 0.368116,-0.25768 c 0.478551,-0.29449 0.625798,-0.9571 0.625798,-1.54609 v -0.92029 c 0,-0.69942 -0.294493,-1.21478 -0.957102,-1.21478 h -0.147246 c -0.404928,0 -0.552174,0.0736 -0.846667,0.18406 -4.343769,1.76696 -4.564639,5.08 -4.564639,8.02493 v 8.9084 c 0,2.94493 0.22087,6.25798 4.564639,8.02493 0.294493,0.11044 0.441739,0.18406 0.846667,0.18406 z m 5.963479,0 c 0.404928,0 0.552174,-0.0736 0.846667,-0.18406 4.343769,-1.76695 4.564638,-5.08 4.564638,-8.02493 v -8.9084 c 0,-2.94493 -0.220869,-6.25797 -4.564638,-8.02493 -0.294493,-0.11044 -0.441739,-0.18406 -0.846667,-0.18406 h -0.147246 c -0.662609,0 -0.957102,0.51536 -0.957102,1.21478 v 1.06754 c 0,0.58899 0.147247,1.10435 0.625797,1.39884 l 0.368116,0.25768 c 0.773044,0.51536 1.619711,1.43565 1.619711,3.57073 v 10.30725 c 0,2.13507 -0.846667,3.05536 -1.619711,3.57072 l -0.368116,0.25768 c -0.47855,0.29449 -0.625797,0.80986 -0.625797,1.39884 v 1.06754 c 0,0.69942 0.294493,1.21478 0.957102,1.21478 z"
         id="path2711" />
    </g>
  </g>
</svg>
