<?xml version="1.0" encoding="utf-8"?>
<!-- Generator: Fusion 360, Shaper Origin Export Add-In, Version 1.6.3  -->
<svg xmlns="http://www.w3.org/2000/svg" xmlns:xlink="http://www.w3.org/1999/xlink" xmlns:shaper="http://www.shapertools.com/namespaces/shaper" shaper:fusionaddin="version:1.6.3" width="17.8cm" height="17.8cm" version="1.1" x="0cm" y="0cm" viewBox="0 0 17.8 17.8" enable-background="new 0 0 17.8 17.8" xml:space="preserve"><path d="M-5.885,0 a8.9,8.9 0 1,1 17.8,0 a8.9,8.9 0 1,1 -17.8,0z" transform="matrix(1,0,0,-1,5.885,8.9)" fill="rgb(0,0,0)" shaper:cutDepth="0.006" stroke-linecap="round" stroke-linejoin="round" /><path d="M8.5137,5.8588 a0.375,0.375 0 1,1 0.75,0 a0.375,0.375 0 1,1 -0.75,0z" transform="matrix(1,0,0,-1,5.885,8.9)" fill="rgb(255,255,255)" stroke="rgb(0,0,0)" stroke-width="0.0010cm" stroke-linecap="round" stroke-linejoin="round" shaper:cutDepth="0.006" /><path d="M-3.2337,-5.8588 a0.375,0.375 0 1,1 0.75,0 a0.375,0.375 0 1,1 -0.75,0z" transform="matrix(1,0,0,-1,5.885,8.9)" fill="rgb(255,255,255)" stroke="rgb(0,0,0)" stroke-width="0.0010cm" stroke-linecap="round" stroke-linejoin="round" shaper:cutDepth="0.006" /><path d="M0.145,0 a2.87,2.87 0 1,1 5.74,0 a2.87,2.87 0 1,1 -5.74,0z" transform="matrix(1,0,0,-1,5.885,8.9)" fill="rgb(255,255,255)" stroke="rgb(0,0,0)" stroke-width="0.0010cm" stroke-linecap="round" stroke-linejoin="round" shaper:cutDepth="0.006" /><path d="M-3.2188,5.8737 a0.375,0.375 0 1,1 0.75,0 a0.375,0.375 0 1,1 -0.75,0z" transform="matrix(1,0,0,-1,5.885,8.9)" fill="rgb(255,255,255)" stroke="rgb(0,0,0)" stroke-width="0.0010cm" stroke-linecap="round" stroke-linejoin="round" shaper:cutDepth="0.006" /><path d="M8.4988,-5.8737 a0.375,0.375 0 1,1 0.75,0 a0.375,0.375 0 1,1 -0.75,0z" transform="matrix(1,0,0,-1,5.885,8.9)" fill="rgb(255,255,255)" stroke="rgb(0,0,0)" stroke-width="0.0010cm" stroke-linecap="round" stroke-linejoin="round" shaper:cutDepth="0.006" /></svg>