<?xml version="1.0" encoding="UTF-8" standalone="no"?>
<!-- Created with Inkscape (http://www.inkscape.org/) -->

<svg
   width="21.89447mm"
   height="6.4000244mm"
   viewBox="0 0 21.894471 6.4000244"
   version="1.1"
   id="svg5"
   inkscape:version="1.2.1 (9c6d41e, 2022-07-14)"
   sodipodi:docname="phoenix.svg"
   xmlns:inkscape="http://www.inkscape.org/namespaces/inkscape"
   xmlns:sodipodi="http://sodipodi.sourceforge.net/DTD/sodipodi-0.dtd"
   xmlns="http://www.w3.org/2000/svg"
   xmlns:svg="http://www.w3.org/2000/svg">
  <sodipodi:namedview
     id="namedview7"
     pagecolor="#ffffff"
     bordercolor="#666666"
     borderopacity="1.0"
     inkscape:showpageshadow="2"
     inkscape:pageopacity="0.0"
     inkscape:pagecheckerboard="0"
     inkscape:deskcolor="#d1d1d1"
     inkscape:document-units="mm"
     showgrid="false"
     inkscape:zoom="0.32921153"
     inkscape:cx="1295.5196"
     inkscape:cy="1274.2567"
     inkscape:window-width="1720"
     inkscape:window-height="1313"
     inkscape:window-x="1720"
     inkscape:window-y="25"
     inkscape:window-maximized="0"
     inkscape:current-layer="layer1" />
  <defs
     id="defs2" />
  <g
     inkscape:label="Layer 1"
     inkscape:groupmode="layer"
     id="layer1"
     transform="translate(-159.20071,-41.36486)"
     style="display:inline">
    <g
       aria-label="no lift"
       transform="scale(0.99460029,1.005429)"
       id="text520"
       style="font-size:9.20669px;line-height:1.25;font-family:'Vtg Stencil Marsh';-inkscape-font-specification:'Vtg Stencil Marsh, Normal';stroke-width:0.143855">
      <path
         d="m 162.25632,41.193457 h 0.84701 q 0.0921,0 0.0921,0.09207 v 3.038208 q 0,0.02762 -0.0184,0.05524 -0.0184,0.02762 -0.046,0.02762 -0.0368,0 -0.0737,-0.06445 l -0.85622,-1.841338 q -0.0368,-0.07365 -0.0368,-0.174927 v -1.040356 q 0,-0.09207 0.0921,-0.09207 z m -2.09913,0 h 0.6813 q 0.0921,0 0.12889,0.08286 l 2.1912,4.686205 q 0.0368,0.07365 0.0368,0.174928 v 1.224489 q 0,0.09207 -0.0921,0.09207 h -0.36826 q -0.0829,0 -0.1289,-0.08286 l -2.50422,-5.404327 q -0.0368,-0.07365 -0.0368,-0.174927 v -0.506368 q 0,-0.09207 0.0921,-0.09207 z m -0.0921,6.168482 v -3.710296 q 0,-0.08286 0.0552,-0.08286 0.046,0 0.0829,0.07365 l 0.85622,1.850544 q 0.0368,0.07365 0.0368,0.174927 v 1.694031 q 0,0.09207 -0.0921,0.09207 h -0.84702 q -0.0921,0 -0.0921,-0.09207 z"
         style="font-family:'Vtg Stencil US No72 W03 Alt';-inkscape-font-specification:'Vtg Stencil US No72 W03 Alt, Normal'"
         id="path1063" />
      <path
         d="m 166.05867,42.123333 v -0.902256 q 0,-0.101273 0.0921,-0.07365 0.33144,0.07365 0.57082,0.266994 0.23937,0.184133 0.37747,0.441921 0.1381,0.257787 0.23017,0.690502 0.0921,0.423507 0.0921,1.601964 0,1.058769 -0.046,1.55593 -0.046,0.497161 -0.19334,0.874636 -0.14731,0.368267 -0.42351,0.589228 -0.26699,0.22096 -0.60764,0.331441 -0.0921,0.02762 -0.0921,-0.05524 v -0.920669 q 0,-0.08286 0.0644,-0.128894 0.0829,-0.05524 0.16572,-0.156514 0.0829,-0.101273 0.0829,-0.478748 v -2.936934 q 0,-0.156514 -0.046,-0.313027 -0.0368,-0.156514 -0.20255,-0.257788 -0.0644,-0.04603 -0.0644,-0.128893 z m -0.57081,-0.902256 v 0.902256 q 0,0.08286 -0.0645,0.128893 -0.0829,0.04603 -0.16572,0.165721 -0.0829,0.11048 -0.0829,0.405094 v 2.936934 q 0,0.266994 0.0368,0.395888 0.046,0.128894 0.21175,0.239374 0.0645,0.04603 0.0645,0.128894 V 47.4448 q 0,0.08286 -0.0921,0.05524 -0.34065,-0.110481 -0.58002,-0.294614 -0.23017,-0.193341 -0.39589,-0.487955 -0.15651,-0.303821 -0.23016,-0.810189 -0.0644,-0.506368 -0.0644,-1.758477 0,-1.00353 0.0736,-1.482278 0.0737,-0.478747 0.23017,-0.773361 0.15651,-0.294615 0.39589,-0.478748 0.23937,-0.193341 0.57081,-0.266994 0.0921,-0.02762 0.0921,0.07365 z"
         style="font-family:'Vtg Stencil US No72 W03 Alt';-inkscape-font-specification:'Vtg Stencil US No72 W03 Alt, Normal'"
         id="path1065" />
      <path
         d="m 170.46866,41.193457 h 0.84701 q 0.0921,0 0.0921,0.09207 l -0.0184,5.063679 q 0,0.09207 0.0921,0.09207 h 1.43624 q 0.0921,0 0.0921,0.09207 v 0.828602 q 0,0.09207 -0.0921,0.09207 h -2.44898 q -0.0921,0 -0.0921,-0.09207 v -6.076415 q 0,-0.09207 0.0921,-0.09207 z"
         style="font-family:'Vtg Stencil US No72 W03 Alt';-inkscape-font-specification:'Vtg Stencil US No72 W03 Alt, Normal'"
         id="path1067" />
      <path
         d="m 174.71293,47.454006 h -0.84701 q -0.0921,0 -0.0921,-0.09207 v -6.076415 q 0,-0.09207 0.0921,-0.09207 h 0.84701 q 0.0921,0 0.0921,0.09207 v 6.076415 q 0,0.09207 -0.0921,0.09207 z"
         style="font-family:'Vtg Stencil US No72 W03 Alt';-inkscape-font-specification:'Vtg Stencil US No72 W03 Alt, Normal'"
         id="path1069" />
      <path
         d="m 176.93174,41.285524 -0.0184,2.430566 q 0,0.09207 0.0921,0.09207 h 0.94829 q 0.0921,0 0.0921,0.09207 v 0.791775 q 0,0.09207 -0.0921,0.09207 h -0.93908 q -0.0921,0 -0.0921,0.09207 l 0.009,2.485806 q 0,0.09207 -0.0921,0.09207 h -0.84701 q -0.0921,0 -0.0921,-0.09207 v -6.076415 q 0,-0.09207 0.0921,-0.09207 h 0.84701 q 0.0921,0 0.0921,0.09207 z m 1.74927,0.920669 h -1.05877 q -0.0921,0 -0.0921,-0.09207 v -0.828602 q 0,-0.09207 0.0921,-0.09207 h 1.05877 q 0.0921,0 0.0921,0.09207 v 0.828602 q 0,0.09207 -0.0921,0.09207 z"
         style="font-family:'Vtg Stencil US No72 W03 Alt';-inkscape-font-specification:'Vtg Stencil US No72 W03 Alt, Normal'"
         id="path1071" />
      <path
         d="m 179.02165,42.114126 v -0.828602 q 0,-0.09207 0.0921,-0.09207 h 2.87249 q 0.0921,0 0.0921,0.09207 v 0.828602 q 0,0.09207 -0.0921,0.09207 h -0.82861 q -0.0921,0 -0.0921,0.09207 l 0.0184,5.063679 q 0,0.09207 -0.0921,0.09207 h -0.84701 q -0.0921,0 -0.0921,-0.09207 l 0.0184,-5.063679 q 0,-0.09207 -0.0921,-0.09207 h -0.86543 q -0.0921,0 -0.0921,-0.09207 z"
         style="font-family:'Vtg Stencil US No72 W03 Alt';-inkscape-font-specification:'Vtg Stencil US No72 W03 Alt, Normal'"
         id="path1073" />
    </g>
  </g>
</svg>
