<?xml version="1.0" encoding="utf-8"?>
<!-- Generator: Fusion 360, Shaper Origin Export Add-In, Version 1.6.3  -->
<svg xmlns="http://www.w3.org/2000/svg" xmlns:xlink="http://www.w3.org/1999/xlink" xmlns:shaper="http://www.shapertools.com/namespaces/shaper" shaper:fusionaddin="version:1.6.3" width="19.15cm" height="19.15cm" version="1.1" x="0cm" y="0cm" viewBox="0 0 19.15 19.15" enable-background="new 0 0 19.15 19.15" xml:space="preserve"><path d="M-14.89,0 a9.575,9.575 0 1,1 19.15,0 a9.575,9.575 0 1,1 -19.15,0z" transform="matrix(1,0,0,-1,14.89,9.575)" fill="rgb(0,0,0)" shaper:cutDepth="0.006" stroke-linecap="round" stroke-linejoin="round" /><path d="M-5.7,7 a0.385,0.385 0 1,1 0.77,0 a0.385,0.385 0 1,1 -0.77,0z" transform="matrix(1,0,0,-1,14.89,9.575)" fill="rgb(255,255,255)" stroke="rgb(0,0,0)" stroke-width="0.0010cm" stroke-linecap="round" stroke-linejoin="round" shaper:cutDepth="0.006" /><path d="M-5.7,-7 a0.385,0.385 0 1,1 0.77,0 a0.385,0.385 0 1,1 -0.77,0z" transform="matrix(1,0,0,-1,14.89,9.575)" fill="rgb(255,255,255)" stroke="rgb(0,0,0)" stroke-width="0.0010cm" stroke-linecap="round" stroke-linejoin="round" shaper:cutDepth="0.006" /><path d="M1.3,-0 a0.385,0.385 0 1,1 0.77,0 a0.385,0.385 0 1,1 -0.77,0z" transform="matrix(1,0,0,-1,14.89,9.575)" fill="rgb(255,255,255)" stroke="rgb(0,0,0)" stroke-width="0.0010cm" stroke-linecap="round" stroke-linejoin="round" shaper:cutDepth="0.006" /><path d="M-9.33,0 a4.015,4.015 0 1,1 8.03,0 a4.015,4.015 0 1,1 -8.03,0z" transform="matrix(1,0,0,-1,14.89,9.575)" fill="rgb(255,255,255)" stroke="rgb(0,0,0)" stroke-width="0.0010cm" stroke-linecap="round" stroke-linejoin="round" shaper:cutDepth="0.006" /><path d="M-12.7,0 a0.385,0.385 0 1,1 0.77,0 a0.385,0.385 0 1,1 -0.77,0z" transform="matrix(1,0,0,-1,14.89,9.575)" fill="rgb(255,255,255)" stroke="rgb(0,0,0)" stroke-width="0.0010cm" stroke-linecap="round" stroke-linejoin="round" shaper:cutDepth="0.006" /></svg>