<?xml version="1.0" encoding="utf-8"?>
<!-- Generator: Fusion 360, Shaper Origin Export Add-In, Version 1.6.3  -->
<svg xmlns="http://www.w3.org/2000/svg" xmlns:xlink="http://www.w3.org/1999/xlink" xmlns:shaper="http://www.shapertools.com/namespaces/shaper" shaper:fusionaddin="version:1.6.3" width="17.5cm" height="17.5cm" version="1.1" x="0cm" y="0cm" viewBox="0 0 17.5 17.5" enable-background="new 0 0 17.5 17.5" xml:space="preserve"><path d="M-11.5675,0 a8.75,8.75 0 1,1 17.5,0 a8.75,8.75 0 1,1 -17.5,0z" transform="matrix(1,0,0,-1,11.5675,8.75)" fill="rgb(0,0,0)" shaper:cutDepth="0.006" stroke-linecap="round" stroke-linejoin="round" /><path d="M-10.2025,-0 a0.385,0.385 0 1,1 0.77,0 a0.385,0.385 0 1,1 -0.77,0z" transform="matrix(1,0,0,-1,11.5675,8.75)" fill="rgb(255,255,255)" stroke="rgb(0,0,0)" stroke-width="0.0010cm" stroke-linecap="round" stroke-linejoin="round" shaper:cutDepth="0.006" /><path d="M3.7975,0 a0.385,0.385 0 1,1 0.77,0 a0.385,0.385 0 1,1 -0.77,0z" transform="matrix(1,0,0,-1,11.5675,8.75)" fill="rgb(255,255,255)" stroke="rgb(0,0,0)" stroke-width="0.0010cm" stroke-linecap="round" stroke-linejoin="round" shaper:cutDepth="0.006" /><path d="M-4.5675,0 a1.75,1.75 0 1,1 3.5,0 a1.75,1.75 0 1,1 -3.5,0z" transform="matrix(1,0,0,-1,11.5675,8.75)" fill="rgb(255,255,255)" stroke="rgb(0,0,0)" stroke-width="0.0010cm" stroke-linecap="round" stroke-linejoin="round" shaper:cutDepth="0.006" /><path d="M-3.2025,7 a0.385,0.385 0 1,1 0.77,0 a0.385,0.385 0 1,1 -0.77,0z" transform="matrix(1,0,0,-1,11.5675,8.75)" fill="rgb(255,255,255)" stroke="rgb(0,0,0)" stroke-width="0.0010cm" stroke-linecap="round" stroke-linejoin="round" shaper:cutDepth="0.006" /><path d="M-3.2025,-7 a0.385,0.385 0 1,1 0.77,0 a0.385,0.385 0 1,1 -0.77,0z" transform="matrix(1,0,0,-1,11.5675,8.75)" fill="rgb(255,255,255)" stroke="rgb(0,0,0)" stroke-width="0.0010cm" stroke-linecap="round" stroke-linejoin="round" shaper:cutDepth="0.006" /></svg>