<?xml version="1.0" encoding="UTF-8" standalone="no"?>
<!-- Created with Inkscape (http://www.inkscape.org/) -->

<svg
   width="97.613159mm"
   height="24.686996mm"
   viewBox="0 0 97.613159 24.686996"
   version="1.1"
   id="svg5"
   inkscape:version="1.2.1 (9c6d41e, 2022-07-14)"
   sodipodi:docname="phoenix.svg"
   xmlns:inkscape="http://www.inkscape.org/namespaces/inkscape"
   xmlns:sodipodi="http://sodipodi.sourceforge.net/DTD/sodipodi-0.dtd"
   xmlns="http://www.w3.org/2000/svg"
   xmlns:svg="http://www.w3.org/2000/svg">
  <sodipodi:namedview
     id="namedview7"
     pagecolor="#ffffff"
     bordercolor="#666666"
     borderopacity="1.0"
     inkscape:showpageshadow="2"
     inkscape:pageopacity="0.0"
     inkscape:pagecheckerboard="0"
     inkscape:deskcolor="#d1d1d1"
     inkscape:document-units="mm"
     showgrid="false"
     inkscape:zoom="1.0289025"
     inkscape:cx="353.28905"
     inkscape:cy="406.74407"
     inkscape:window-width="1720"
     inkscape:window-height="1313"
     inkscape:window-x="0"
     inkscape:window-y="25"
     inkscape:window-maximized="0"
     inkscape:current-layer="layer1" />
  <defs
     id="defs2" />
  <g
     inkscape:label="Layer 1"
     inkscape:groupmode="layer"
     id="layer1"
     transform="translate(-13.638233,-129.08804)">
    <g
       id="g548"
       transform="translate(12.000993,-37.821313)">
      <g
         aria-label="propulsion section"
         id="text496"
         style="font-size:9.15698px;font-family:'Vtg Stencil Marsh';-inkscape-font-specification:'Vtg Stencil Marsh, Normal';stroke-width:0.143078">
        <path
           d="m 2.2965424,173.17279 c 0.2197675,0 0.3113373,-0.0916 0.3113373,-0.31134 v -5.60407 c 0,-0.21977 -0.09157,-0.31134 -0.3113373,-0.31134 H 1.9485772 c -0.2197676,0 -0.3113373,0.0916 -0.3113373,0.31134 v 5.60407 c 0,0.21977 0.09157,0.31134 0.3113373,0.31134 z m 1.7581401,-2.4266 c 1.2636631,0 1.8313959,-0.71424 1.8313959,-1.68488 v -0.43038 c 0,-0.97064 -0.5677328,-1.68489 -1.8313959,-1.68489 H 3.798287 c -0.2197675,0 -0.3113373,0.0916 -0.3113373,0.31134 v 0.27471 c 0,0.21977 0.09157,0.31134 0.3113373,0.31134 h 0.2563955 c 0.4578489,0 0.8241281,0.27471 0.8241281,0.7875 v 0.43038 c 0,0.51279 -0.3662792,0.7875 -0.8241281,0.7875 H 3.798287 c -0.2197675,0 -0.3113373,0.0916 -0.3113373,0.31133 v 0.27471 c 0,0.21977 0.09157,0.31134 0.3113373,0.31134 z"
           id="path2138" />
        <path
           d="m 11.197112,173.17279 c 0.155669,0 0.238082,-0.0641 0.238082,-0.16483 0,-0.0458 -0.0092,-0.0916 -0.03663,-0.14651 l -1.117152,-2.18851 c -0.02747,-0.0641 -0.03663,-0.10073 -0.03663,-0.16483 v -0.0275 c 0,-0.0549 0.02747,-0.10073 0.08241,-0.1282 0.494477,-0.1923 1.053053,-0.5952 1.053053,-1.47427 v -0.24724 c 0,-0.87907 -0.567733,-1.68489 -1.831396,-1.68489 H 9.2924606 c -0.2197676,0 -0.3113373,0.0916 -0.3113373,0.31134 v 0.27471 c 0,0.21977 0.09157,0.31134 0.3113373,0.31134 H 9.548856 c 0.457849,0 0.824128,0.27471 0.824128,0.7875 v 0.24724 c 0,0.51279 -0.366279,0.7875 -0.824128,0.7875 H 9.2924606 c -0.2197676,0 -0.3113373,0.0916 -0.3113373,0.31133 v 0.20146 c 0,0.11904 0.045785,0.21977 0.082413,0.29302 l 1.2728197,2.40829 c 0.100727,0.19229 0.201454,0.29302 0.421221,0.29302 z m -3.4063961,0 c 0.2197675,0 0.3113373,-0.0916 0.3113373,-0.31134 v -5.60407 c 0,-0.21977 -0.09157,-0.31134 -0.3113373,-0.31134 H 7.4427507 c -0.2197675,0 -0.3113373,0.0916 -0.3113373,0.31134 v 5.60407 c 0,0.21977 0.09157,0.31134 0.3113373,0.31134 z"
           id="path2135" />
        <path
           d="m 14.054076,173.20942 c 0.164825,0 0.238081,-0.1282 0.238081,-0.30218 v -0.23808 c 0,-0.14652 -0.03663,-0.27471 -0.155668,-0.34797 l -0.137355,-0.0916 c -0.192297,-0.1282 -0.402907,-0.35712 -0.402907,-0.88823 v -2.56395 c 0,-0.5311 0.21061,-0.76003 0.402907,-0.88823 l 0.137355,-0.0916 c 0.11904,-0.0733 0.155668,-0.20145 0.155668,-0.34796 v -0.23808 c 0,-0.17399 -0.07326,-0.30218 -0.238081,-0.30218 h -0.03663 c -0.100727,0 -0.18314,0.0183 -0.256396,0.0458 -1.080523,0.43954 -1.135465,1.26366 -1.135465,1.99622 v 2.21599 c 0,0.73256 0.05494,1.55669 1.135465,1.99622 0.07326,0.0275 0.155669,0.0458 0.256396,0.0458 z m 1.391861,0 c 0.100726,0 0.183139,-0.0183 0.256395,-0.0458 1.080524,-0.43953 1.135466,-1.26366 1.135466,-1.99622 v -2.21599 c 0,-0.73256 -0.05494,-1.55668 -1.135466,-1.99622 -0.07326,-0.0275 -0.155669,-0.0458 -0.256395,-0.0458 h -0.03663 c -0.164826,0 -0.238082,0.12819 -0.238082,0.30218 v 0.23808 c 0,0.14651 0.03663,0.27471 0.155669,0.34796 l 0.137355,0.0916 c 0.192296,0.1282 0.402907,0.35713 0.402907,0.88823 v 2.56395 c 0,0.53111 -0.210611,0.76003 -0.402907,0.88823 l -0.137355,0.0916 c -0.119041,0.0733 -0.155669,0.20145 -0.155669,0.34797 v 0.23808 c 0,0.17398 0.07326,0.30218 0.238082,0.30218 z"
           id="path2132" />
        <path
           d="m 18.779063,173.17279 c 0.219768,0 0.311338,-0.0916 0.311338,-0.31134 v -5.60407 c 0,-0.21977 -0.09157,-0.31134 -0.311338,-0.31134 h -0.347965 c -0.219767,0 -0.311337,0.0916 -0.311337,0.31134 v 5.60407 c 0,0.21977 0.09157,0.31134 0.311337,0.31134 z m 1.758141,-2.4266 c 1.263663,0 1.831395,-0.71424 1.831395,-1.68488 v -0.43038 c 0,-0.97064 -0.567732,-1.68489 -1.831395,-1.68489 h -0.256396 c -0.219767,0 -0.311337,0.0916 -0.311337,0.31134 v 0.27471 c 0,0.21977 0.09157,0.31134 0.311337,0.31134 h 0.256396 c 0.457848,0 0.824128,0.27471 0.824128,0.7875 v 0.43038 c 0,0.51279 -0.36628,0.7875 -0.824128,0.7875 h -0.256396 c -0.219767,0 -0.311337,0.0916 -0.311337,0.31133 v 0.27471 c 0,0.21977 0.09157,0.31134 0.311337,0.31134 z"
           id="path2129" />
        <path
           d="m 25.042423,173.20942 c 0.164825,0 0.238081,-0.1282 0.238081,-0.30218 v -0.23808 c 0,-0.14652 -0.03663,-0.27471 -0.155668,-0.34797 l -0.137355,-0.0916 c -0.192297,-0.1282 -0.402907,-0.35712 -0.402907,-0.88823 v -4.08401 c 0,-0.21977 -0.09157,-0.31134 -0.311338,-0.31134 h -0.347965 c -0.219767,0 -0.311337,0.0916 -0.311337,0.31134 v 3.91003 c 0,0.73256 0.05494,1.55669 1.135465,1.99622 0.07326,0.0275 0.155669,0.0458 0.256396,0.0458 z m 1.391861,0 c 0.100726,0 0.183139,-0.0183 0.256395,-0.0458 1.080524,-0.43953 1.135466,-1.26366 1.135466,-1.99622 v -3.91003 c 0,-0.21977 -0.09157,-0.31134 -0.311338,-0.31134 h -0.347965 c -0.219767,0 -0.311337,0.0916 -0.311337,0.31134 v 4.08401 c 0,0.53111 -0.210611,0.76003 -0.402907,0.88823 l -0.137355,0.0916 c -0.119041,0.0733 -0.155669,0.20145 -0.155669,0.34797 v 0.23808 c 0,0.17398 0.07326,0.30218 0.238082,0.30218 z"
           id="path2126" />
        <path
           d="m 29.76741,173.17279 c 0.219767,0 0.311337,-0.0916 0.311337,-0.31134 v -5.60407 c 0,-0.21977 -0.09157,-0.31134 -0.311337,-0.31134 h -0.347966 c -0.219767,0 -0.311337,0.0916 -0.311337,0.31134 v 5.60407 c 0,0.21977 0.09157,0.31134 0.311337,0.31134 z m 3.24157,0 c 0.219768,0 0.311338,-0.0916 0.311338,-0.31134 v -0.27471 c 0,-0.21976 -0.09157,-0.31133 -0.311338,-0.31133 h -1.739826 c -0.219767,0 -0.311337,0.0916 -0.311337,0.31133 v 0.27471 c 0,0.21977 0.09157,0.31134 0.311337,0.31134 z"
           id="path2123" />
        <path
           d="m 36.030771,173.20942 c 0.164825,0 0.238081,-0.1282 0.238081,-0.30218 v -0.22893 c 0,-0.14651 -0.03663,-0.26555 -0.164825,-0.3388 l -0.18314,-0.10989 c -0.18314,-0.10988 -0.311337,-0.29302 -0.338808,-0.50363 -0.02747,-0.1923 -0.100727,-0.27471 -0.293024,-0.27471 h -0.412064 c -0.192296,0 -0.274709,0.0824 -0.274709,0.27471 0,0.63183 0.604361,1.48343 1.309448,1.48343 z m 1.45596,0 c 0.576889,0 1.364389,-0.68678 1.364389,-1.7673 0,-0.86075 -0.494476,-1.3186 -1.27282,-1.65741 l -1.391861,-0.60436 c -0.457849,-0.20146 -0.613517,-0.43038 -0.613517,-0.79666 0,-0.30218 0.146511,-0.43038 0.375436,-0.54026 l 0.155669,-0.0733 c 0.128197,-0.0458 0.164825,-0.18314 0.164825,-0.32965 v -0.22892 c 0,-0.17399 -0.0641,-0.29303 -0.228924,-0.30218 h -0.09157 c -0.402907,0 -1.346076,0.39375 -1.346076,1.55668 0,0.84245 0.467006,1.29114 1.043896,1.53838 l 1.492587,0.65014 c 0.503634,0.21977 0.741716,0.46701 0.741716,0.87907 0,0.35712 -0.18314,0.56773 -0.402907,0.71425 l -0.164826,0.10988 c -0.119041,0.0733 -0.164826,0.17398 -0.164826,0.32049 v 0.22893 c 0,0.17398 0.07326,0.30218 0.238082,0.30218 z m 1.053052,-4.50524 c 0.192297,0 0.27471,-0.0824 0.27471,-0.2747 0,-0.58605 -0.531105,-1.52006 -1.336919,-1.52006 h -0.09157 c -0.164826,0 -0.238082,0.12819 -0.238082,0.30218 v 0.22892 c 0,0.14651 0.02747,0.28387 0.155669,0.34797 l 0.173983,0.10072 c 0.137354,0.0733 0.30218,0.28387 0.347965,0.54027 0.03663,0.19229 0.100727,0.2747 0.293023,0.2747 z"
           id="path2120" />
        <path
           d="m 42.376541,173.17279 c 0.219768,0 0.311337,-0.0916 0.311337,-0.31134 v -5.60407 c 0,-0.21977 -0.09157,-0.31134 -0.311337,-0.31134 h -0.347965 c -0.219768,0 -0.311338,0.0916 -0.311338,0.31134 v 5.60407 c 0,0.21977 0.09157,0.31134 0.311338,0.31134 z"
           id="path2117" />
        <path
           d="m 47.019117,173.20942 c 0.164826,0 0.238081,-0.1282 0.238081,-0.30218 v -0.23808 c 0,-0.14652 -0.03663,-0.27471 -0.155668,-0.34797 l -0.137355,-0.0916 c -0.192297,-0.1282 -0.402907,-0.35712 -0.402907,-0.88823 v -2.56395 c 0,-0.5311 0.21061,-0.76003 0.402907,-0.88823 l 0.137355,-0.0916 c 0.11904,-0.0733 0.155668,-0.20145 0.155668,-0.34796 v -0.23808 c 0,-0.17399 -0.07326,-0.30218 -0.238081,-0.30218 h -0.03663 c -0.100727,0 -0.18314,0.0183 -0.256395,0.0458 -1.080524,0.43954 -1.135466,1.26366 -1.135466,1.99622 v 2.21599 c 0,0.73256 0.05494,1.55669 1.135466,1.99622 0.07325,0.0275 0.155668,0.0458 0.256395,0.0458 z m 1.391861,0 c 0.100727,0 0.183139,-0.0183 0.256395,-0.0458 1.080524,-0.43953 1.135466,-1.26366 1.135466,-1.99622 v -2.21599 c 0,-0.73256 -0.05494,-1.55668 -1.135466,-1.99622 -0.07326,-0.0275 -0.155668,-0.0458 -0.256395,-0.0458 h -0.03663 c -0.164826,0 -0.238082,0.12819 -0.238082,0.30218 v 0.23808 c 0,0.14651 0.03663,0.27471 0.155669,0.34796 l 0.137355,0.0916 c 0.192296,0.1282 0.402907,0.35713 0.402907,0.88823 v 2.56395 c 0,0.53111 -0.210611,0.76003 -0.402907,0.88823 l -0.137355,0.0916 c -0.119041,0.0733 -0.155669,0.20145 -0.155669,0.34797 v 0.23808 c 0,0.17398 0.07326,0.30218 0.238082,0.30218 z"
           id="path2114" />
        <path
           d="m 51.744106,173.17279 c 0.219767,0 0.311337,-0.0916 0.311337,-0.31134 v -1.88633 c 0,-0.11905 -0.02747,-0.20146 -0.09157,-0.30218 l -0.467006,-0.67762 c -0.0641,-0.10073 -0.146512,-0.13736 -0.219767,-0.13736 -0.100727,0 -0.192297,0.0916 -0.192297,0.2564 v 2.74709 c 0,0.21977 0.09157,0.31134 0.311337,0.31134 z m 3.278198,0 c 0.192297,0 0.27471,-0.11904 0.27471,-0.31134 v -0.75087 c 0,-0.1282 -0.04578,-0.20145 -0.164826,-0.25639 l -0.09157,-0.0458 c -0.100727,-0.0458 -0.173982,-0.10073 -0.238081,-0.20145 l -2.91192,-4.43198 c -0.109884,-0.16483 -0.201453,-0.22893 -0.39375,-0.22893 h -0.137355 c -0.192296,0 -0.274709,0.11905 -0.274709,0.31134 v 0.75087 c 0,0.1282 0.04579,0.20146 0.164826,0.2564 l 0.109883,0.0549 c 0.100727,0.0458 0.173983,0.10073 0.238082,0.20145 l 2.902762,4.42283 c 0.109884,0.16482 0.201454,0.22892 0.393751,0.22892 z m -0.137354,-3.05843 c 0.0641,0.10073 0.146511,0.13735 0.219767,0.13735 0.100727,0 0.192297,-0.0916 0.192297,-0.25639 v -2.73794 c 0,-0.21977 -0.09157,-0.31134 -0.311338,-0.31134 h -0.347965 c -0.219767,0 -0.311337,0.0916 -0.311337,0.31134 v 1.87718 c 0,0.11904 0.02747,0.20146 0.09157,0.30218 z"
           id="path2111" />
        <path
           d="m 63.501638,173.20942 c 0.164826,0 0.238081,-0.1282 0.238081,-0.30218 v -0.22893 c 0,-0.14651 -0.03663,-0.26555 -0.164825,-0.3388 l -0.18314,-0.10989 c -0.183139,-0.10988 -0.311337,-0.29302 -0.338808,-0.50363 -0.02747,-0.1923 -0.100727,-0.27471 -0.293023,-0.27471 h -0.412064 c -0.192297,0 -0.27471,0.0824 -0.27471,0.27471 0,0.63183 0.604361,1.48343 1.309448,1.48343 z m 1.45596,0 c 0.576889,0 1.36439,-0.68678 1.36439,-1.7673 0,-0.86075 -0.494477,-1.3186 -1.272821,-1.65741 l -1.39186,-0.60436 c -0.457849,-0.20146 -0.613518,-0.43038 -0.613518,-0.79666 0,-0.30218 0.146512,-0.43038 0.375436,-0.54026 l 0.155669,-0.0733 c 0.128197,-0.0458 0.164825,-0.18314 0.164825,-0.32965 v -0.22892 c 0,-0.17399 -0.0641,-0.29303 -0.228924,-0.30218 h -0.09157 c -0.402907,0 -1.346076,0.39375 -1.346076,1.55668 0,0.84245 0.467006,1.29114 1.043896,1.53838 l 1.492587,0.65014 c 0.503634,0.21977 0.741716,0.46701 0.741716,0.87907 0,0.35712 -0.18314,0.56773 -0.402907,0.71425 l -0.164826,0.10988 c -0.119041,0.0733 -0.164826,0.17398 -0.164826,0.32049 v 0.22893 c 0,0.17398 0.07326,0.30218 0.238082,0.30218 z m 1.053052,-4.50524 c 0.192297,0 0.27471,-0.0824 0.27471,-0.2747 0,-0.58605 -0.531105,-1.52006 -1.336919,-1.52006 h -0.09157 c -0.164826,0 -0.238082,0.12819 -0.238082,0.30218 v 0.22892 c 0,0.14651 0.02747,0.28387 0.155669,0.34797 l 0.173983,0.10072 c 0.137354,0.0733 0.30218,0.28387 0.347965,0.54027 0.03663,0.19229 0.100727,0.2747 0.293023,0.2747 z"
           id="path2108" />
        <path
           d="m 68.226627,173.17279 c 0.219767,0 0.311337,-0.0916 0.311337,-0.31134 v -2.07863 c 0,-0.1923 0.08241,-0.27471 0.274709,-0.27471 h 0.567733 c 0.219768,0 0.311337,-0.0916 0.311337,-0.31134 v -0.27471 c 0,-0.21976 -0.09157,-0.31133 -0.311337,-0.31133 h -0.567733 c -0.192296,0 -0.274709,-0.0824 -0.274709,-0.27471 v -2.07864 c 0,-0.21977 -0.09157,-0.31134 -0.311337,-0.31134 h -0.347966 c -0.219767,0 -0.311337,0.0916 -0.311337,0.31134 v 5.60407 c 0,0.21977 0.09157,0.31134 0.311337,0.31134 z m 2.72878,0 c 0.219767,0 0.311337,-0.0916 0.311337,-0.31134 v -0.27471 c 0,-0.21976 -0.09157,-0.31133 -0.311337,-0.31133 h -1.227036 c -0.219767,0 -0.311337,0.0916 -0.311337,0.31133 v 0.27471 c 0,0.21977 0.09157,0.31134 0.311337,0.31134 z m 0,-5.32936 c 0.219767,0 0.311337,-0.0916 0.311337,-0.31134 v -0.27471 c 0,-0.21977 -0.09157,-0.31134 -0.311337,-0.31134 h -1.227036 c -0.219767,0 -0.311337,0.0916 -0.311337,0.31134 v 0.27471 c 0,0.21977 0.09157,0.31134 0.311337,0.31134 z"
           id="path2105" />
        <path
           d="m 76.962369,169.06131 c 0.219767,0 0.311337,-0.0916 0.311337,-0.31134 0,-0.53111 -0.119041,-1.42849 -1.135466,-1.79477 -0.07326,-0.0275 -0.155668,-0.0458 -0.256395,-0.0458 h -0.03663 c -0.164826,0 -0.238081,0.12819 -0.238081,0.30218 v 0.23808 c 0,0.14651 0.03663,0.27471 0.155668,0.34796 l 0.137355,0.0916 c 0.192296,0.1282 0.402907,0.35713 0.402907,0.86076 0,0.21977 0.09157,0.31134 0.311337,0.31134 z m -1.080524,4.14811 c 0.100727,0 0.18314,-0.0183 0.256395,-0.0458 1.135466,-0.43037 1.135466,-1.47427 1.135466,-1.79476 0,-0.21977 -0.09157,-0.31134 -0.311337,-0.31134 h -0.347966 c -0.219767,0 -0.311337,0.0916 -0.311337,0.31134 0,0.50363 -0.210611,0.73255 -0.402907,0.86075 l -0.137355,0.0916 c -0.119041,0.0733 -0.155668,0.20145 -0.155668,0.34797 v 0.23808 c 0,0.17398 0.07326,0.30218 0.238081,0.30218 z m -1.391861,0 c 0.164826,0 0.238082,-0.1282 0.238082,-0.30218 v -0.23808 c 0,-0.14652 -0.03663,-0.27471 -0.155669,-0.34797 l -0.137355,-0.0916 c -0.192296,-0.1282 -0.402907,-0.35712 -0.402907,-0.88823 v -2.56395 c 0,-0.5311 0.210611,-0.76003 0.402907,-0.88823 l 0.137355,-0.0916 c 0.119041,-0.0733 0.155669,-0.20145 0.155669,-0.34796 v -0.23808 c 0,-0.17399 -0.07326,-0.30218 -0.238082,-0.30218 h -0.03663 c -0.100727,0 -0.183139,0.0183 -0.256395,0.0458 -1.080524,0.43954 -1.135466,1.26366 -1.135466,1.99622 v 2.21599 c 0,0.73256 0.05494,1.55669 1.135466,1.99622 0.07326,0.0275 0.155668,0.0458 0.256395,0.0458 z"
           id="path2102" />
        <path
           d="m 82.45654,167.84343 c 0.219767,0 0.311337,-0.0916 0.311337,-0.31134 v -0.27471 c 0,-0.21977 -0.09157,-0.31134 -0.311337,-0.31134 h -3.589536 c -0.219768,0 -0.311338,0.0916 -0.311338,0.31134 v 0.27471 c 0,0.21977 0.09157,0.31134 0.311338,0.31134 z m -1.620786,5.32936 c 0.219768,0 0.311338,-0.0916 0.311338,-0.31134 v -3.97413 c 0,-0.21976 -0.09157,-0.31133 -0.311338,-0.31133 h -0.347965 c -0.219767,0 -0.311337,0.0916 -0.311337,0.31133 v 3.97413 c 0,0.21977 0.09157,0.31134 0.311337,0.31134 z"
           id="path2099" />
        <path
           d="m 86.329933,173.17279 c 0.219768,0 0.311337,-0.0916 0.311337,-0.31134 v -5.60407 c 0,-0.21977 -0.09157,-0.31134 -0.311337,-0.31134 h -0.347965 c -0.219768,0 -0.311337,0.0916 -0.311337,0.31134 v 5.60407 c 0,0.21977 0.09157,0.31134 0.311337,0.31134 z"
           id="path2096" />
        <path
           d="m 90.972505,173.20942 c 0.164826,0 0.238082,-0.1282 0.238082,-0.30218 v -0.23808 c 0,-0.14652 -0.03663,-0.27471 -0.155669,-0.34797 l -0.137355,-0.0916 c -0.192296,-0.1282 -0.402907,-0.35712 -0.402907,-0.88823 v -2.56395 c 0,-0.5311 0.210611,-0.76003 0.402907,-0.88823 l 0.137355,-0.0916 c 0.119041,-0.0733 0.155669,-0.20145 0.155669,-0.34796 v -0.23808 c 0,-0.17399 -0.07326,-0.30218 -0.238082,-0.30218 h -0.03663 c -0.100727,0 -0.183139,0.0183 -0.256395,0.0458 -1.080524,0.43954 -1.135466,1.26366 -1.135466,1.99622 v 2.21599 c 0,0.73256 0.05494,1.55669 1.135466,1.99622 0.07326,0.0275 0.155668,0.0458 0.256395,0.0458 z m 1.391861,0 c 0.100727,0 0.18314,-0.0183 0.256395,-0.0458 1.080524,-0.43953 1.135466,-1.26366 1.135466,-1.99622 v -2.21599 c 0,-0.73256 -0.05494,-1.55668 -1.135466,-1.99622 -0.07326,-0.0275 -0.155668,-0.0458 -0.256395,-0.0458 h -0.03663 c -0.164826,0 -0.238081,0.12819 -0.238081,0.30218 v 0.23808 c 0,0.14651 0.03663,0.27471 0.155668,0.34796 l 0.137355,0.0916 c 0.192297,0.1282 0.402907,0.35713 0.402907,0.88823 v 2.56395 c 0,0.53111 -0.21061,0.76003 -0.402907,0.88823 l -0.137355,0.0916 c -0.11904,0.0733 -0.155668,0.20145 -0.155668,0.34797 v 0.23808 c 0,0.17398 0.07326,0.30218 0.238081,0.30218 z"
           id="path2093" />
        <path
           d="m 95.69749,173.17279 c 0.219767,0 0.311337,-0.0916 0.311337,-0.31134 v -1.88633 c 0,-0.11905 -0.02747,-0.20146 -0.09157,-0.30218 l -0.467005,-0.67762 c -0.0641,-0.10073 -0.146512,-0.13736 -0.219768,-0.13736 -0.100727,0 -0.192297,0.0916 -0.192297,0.2564 v 2.74709 c 0,0.21977 0.09157,0.31134 0.311338,0.31134 z m 3.278199,0 c 0.192296,0 0.274709,-0.11904 0.274709,-0.31134 v -0.75087 c 0,-0.1282 -0.04579,-0.20145 -0.164826,-0.25639 l -0.09157,-0.0458 c -0.100727,-0.0458 -0.173983,-0.10073 -0.238082,-0.20145 l -2.911919,-4.43198 c -0.109884,-0.16483 -0.201454,-0.22893 -0.39375,-0.22893 h -0.137355 c -0.192297,0 -0.27471,0.11905 -0.27471,0.31134 v 0.75087 c 0,0.1282 0.04579,0.20146 0.164826,0.2564 l 0.109884,0.0549 c 0.100727,0.0458 0.173982,0.10073 0.238081,0.20145 l 2.902763,4.42283 c 0.109884,0.16482 0.201453,0.22892 0.39375,0.22892 z m -0.137355,-3.05843 c 0.0641,0.10073 0.146512,0.13735 0.219767,0.13735 0.100727,0 0.192297,-0.0916 0.192297,-0.25639 v -2.73794 c 0,-0.21977 -0.09157,-0.31134 -0.311337,-0.31134 h -0.347966 c -0.219767,0 -0.311337,0.0916 -0.311337,0.31134 v 1.87718 c 0,0.11904 0.02747,0.20146 0.09157,0.30218 z"
           id="path2090" />
      </g>
      <g
         aria-label="499302-101"
         id="text500"
         style="font-size:9.15698px;font-family:'Helvetica Neue';-inkscape-font-specification:'Helvetica Neue, Normal';stroke-width:0.143078">
        <path
           d="m 26.957319,182.36626 c 0.219767,0 0.311337,-0.0916 0.311337,-0.31134 v -1.20872 c 0,-0.1282 0.03663,-0.21977 0.146512,-0.28387 l 0.164825,-0.0916 c 0.109884,-0.0641 0.146512,-0.16482 0.146512,-0.29302 v -0.18314 c 0,-0.1282 -0.03663,-0.22893 -0.146512,-0.29302 l -0.164825,-0.0916 c -0.109884,-0.0641 -0.146512,-0.15567 -0.146512,-0.28387 v -2.87529 c 0,-0.21977 -0.09157,-0.31134 -0.311337,-0.31134 h -0.238082 c -0.192296,0 -0.329651,0.0458 -0.439535,0.20145 l -0.631832,0.76919 c -0.146511,0.16483 -0.137354,0.36628 0.02747,0.49448 l 0.412065,0.32049 c 0.155668,0.11904 0.21061,0.26555 0.21061,0.45785 v 3.67195 c 0,0.21977 0.09157,0.31134 0.311337,0.31134 z m -1.84971,-1.7673 c 0.219767,0 0.311337,-0.0916 0.311337,-0.31134 v -0.31133 c 0,-0.10073 -0.03663,-0.21062 -0.164826,-0.23809 l -0.100726,-0.0183 c -0.146512,-0.0275 -0.164826,-0.0916 -0.164826,-0.1923 0,-0.0641 0.03663,-0.13735 0.109884,-0.22892 l 0.256395,-0.3205 c 0.119041,-0.15566 0.119041,-0.26555 -0.02747,-0.39375 l -0.320494,-0.26555 c -0.146512,-0.1282 -0.274709,-0.1282 -0.39375,0.0183 l -1.016425,1.22703 c -0.08241,0.10073 -0.119041,0.22893 -0.119041,0.35712 v 0.36628 c 0,0.21977 0.09157,0.31134 0.311338,0.31134 z"
           style="-inkscape-font-specification:'Vtg Stencil Marsh, Semi-Expanded'"
           id="path2087" />
        <path
           d="m 30.583468,179.53675 c 0.164826,0 0.238082,-0.1282 0.238082,-0.30218 v -0.26555 c 0,-0.14651 -0.03663,-0.26556 -0.155669,-0.34797 l -0.09157,-0.0641 c -0.192296,-0.12819 -0.402907,-0.37543 -0.402907,-0.74171 0,-0.35712 0.210611,-0.60436 0.402907,-0.73256 l 0.09157,-0.0641 c 0.119041,-0.0824 0.155669,-0.20145 0.155669,-0.34796 v -0.26556 c 0,-0.17398 -0.07326,-0.30218 -0.238082,-0.30218 h -0.03663 c -0.08241,0 -0.137354,0.0183 -0.21061,0.0458 -0.906541,0.32965 -1.135466,1.11715 -1.135466,1.66657 0,0.55857 0.228925,1.34607 1.135466,1.67573 0.07326,0.0275 0.155668,0.0458 0.21061,0.0458 z m 0,2.86613 c 0.164826,0 0.238082,-0.12819 0.238082,-0.30218 v -0.26555 c 0,-0.14651 -0.03663,-0.26555 -0.155669,-0.34796 l -0.09157,-0.0641 c -0.192296,-0.1282 -0.366279,-0.35712 -0.39375,-0.67762 -0.01831,-0.21977 -0.09157,-0.31134 -0.311337,-0.31134 h -0.357122 c -0.219768,0 -0.311338,0.0916 -0.311338,0.31134 0,0.2564 0.05494,1.18125 1.135466,1.61163 0.07326,0.0275 0.109884,0.0458 0.21061,0.0458 z m 1.391861,0 c 0.100727,0 0.137355,-0.0183 0.210611,-0.0458 1.080523,-0.43954 1.135465,-1.26366 1.135465,-1.99622 v -2.21599 c 0,-0.73256 -0.05494,-1.55669 -1.135465,-1.99622 -0.07326,-0.0275 -0.109884,-0.0458 -0.210611,-0.0458 h -0.03663 c -0.164825,0 -0.238081,0.1282 -0.238081,0.30218 v 0.26556 c 0,0.14651 0.03663,0.2747 0.155668,0.34796 l 0.09157,0.0641 c 0.192297,0.1282 0.402907,0.35712 0.402907,0.88823 v 2.56395 c 0,0.53111 -0.21061,0.76003 -0.402907,0.88823 l -0.09157,0.0641 c -0.11904,0.0733 -0.155668,0.23808 -0.155668,0.38459 v 0.22892 c 0,0.17399 0.07326,0.30218 0.238081,0.30218 z"
           style="-inkscape-font-specification:'Vtg Stencil Marsh, Semi-Expanded'"
           id="path2084" />
        <path
           d="m 36.077642,179.53675 c 0.164825,0 0.238081,-0.1282 0.238081,-0.30218 v -0.26555 c 0,-0.14651 -0.03663,-0.26556 -0.155668,-0.34797 l -0.09157,-0.0641 c -0.192297,-0.12819 -0.402907,-0.37543 -0.402907,-0.74171 0,-0.35712 0.21061,-0.60436 0.402907,-0.73256 l 0.09157,-0.0641 c 0.11904,-0.0824 0.155668,-0.20145 0.155668,-0.34796 v -0.26556 c 0,-0.17398 -0.07326,-0.30218 -0.238081,-0.30218 h -0.03663 c -0.08241,0 -0.137355,0.0183 -0.210611,0.0458 -0.906541,0.32965 -1.135465,1.11715 -1.135465,1.66657 0,0.55857 0.228924,1.34607 1.135465,1.67573 0.07326,0.0275 0.155669,0.0458 0.210611,0.0458 z m 0,2.86613 c 0.164825,0 0.238081,-0.12819 0.238081,-0.30218 v -0.26555 c 0,-0.14651 -0.03663,-0.26555 -0.155668,-0.34796 l -0.09157,-0.0641 c -0.192297,-0.1282 -0.366279,-0.35712 -0.39375,-0.67762 -0.01831,-0.21977 -0.09157,-0.31134 -0.311338,-0.31134 h -0.357122 c -0.219767,0 -0.311337,0.0916 -0.311337,0.31134 0,0.2564 0.05494,1.18125 1.135465,1.61163 0.07326,0.0275 0.109884,0.0458 0.210611,0.0458 z m 1.391861,0 c 0.100726,0 0.137354,-0.0183 0.21061,-0.0458 1.080524,-0.43954 1.135466,-1.26366 1.135466,-1.99622 v -2.21599 c 0,-0.73256 -0.05494,-1.55669 -1.135466,-1.99622 -0.07326,-0.0275 -0.109884,-0.0458 -0.21061,-0.0458 h -0.03663 c -0.164826,0 -0.238082,0.1282 -0.238082,0.30218 v 0.26556 c 0,0.14651 0.03663,0.2747 0.155669,0.34796 l 0.09157,0.0641 c 0.192296,0.1282 0.402907,0.35712 0.402907,0.88823 v 2.56395 c 0,0.53111 -0.210611,0.76003 -0.402907,0.88823 l -0.09157,0.0641 c -0.119041,0.0733 -0.155669,0.23808 -0.155669,0.38459 v 0.22892 c 0,0.17399 0.07326,0.30218 0.238082,0.30218 z"
           style="-inkscape-font-specification:'Vtg Stencil Marsh, Semi-Expanded'"
           id="path2081" />
        <path
           d="m 41.580973,182.40288 c 0.164825,0 0.238081,-0.12819 0.238081,-0.30218 v -0.26555 c 0,-0.14651 -0.02747,-0.28386 -0.155668,-0.34796 l -0.128198,-0.0641 c -0.201454,-0.10073 -0.402907,-0.35712 -0.402907,-0.86076 0,-0.21977 -0.09157,-0.31134 -0.311338,-0.31134 h -0.347965 c -0.219767,0 -0.311337,0.0916 -0.311337,0.31134 0,0.31134 0.0092,1.38271 1.135465,1.79477 0.07326,0.0275 0.192297,0.0458 0.247239,0.0458 z m 1.117151,-0.30218 c 0,0.17399 0.07326,0.30218 0.238082,0.30218 0.05494,0 0.146511,-0.0183 0.21061,-0.0458 0.503634,-0.20145 1.190408,-0.6593 1.190408,-1.74898 0,-0.36628 -0.08241,-0.80582 -0.467006,-1.19041 -0.0641,-0.0641 -0.08241,-0.0916 -0.08241,-0.15567 v -0.0275 c 0,-0.0641 0.01831,-0.10073 0.08241,-0.15567 0.384593,-0.37544 0.467006,-0.81497 0.467006,-1.18125 0,-1.08968 -0.686774,-1.54753 -1.190408,-1.74898 -0.0641,-0.0275 -0.164825,-0.0458 -0.219767,-0.0458 -0.164826,0 -0.238082,0.1282 -0.238082,0.30218 v 0.29303 c 0,0.18314 0.0641,0.26555 0.192297,0.34796 0.219767,0.13736 0.48532,0.35712 0.48532,0.83329 0,0.61351 -0.439535,0.92485 -0.860756,0.92485 h -0.08241 c -0.219768,0 -0.274709,0.0916 -0.274709,0.31134 v 0.27471 c 0,0.21977 0.05494,0.31134 0.274709,0.31134 h 0.08241 c 0.421221,0 0.860756,0.31133 0.860756,0.92485 0,0.47616 -0.256396,0.69593 -0.476163,0.83329 -0.128198,0.0824 -0.192297,0.16482 -0.192297,0.34796 z m -1.877181,-3.84593 c 0.219768,0 0.311338,-0.0916 0.311338,-0.31133 0,-0.50364 0.21061,-0.74172 0.402907,-0.86076 l 0.119041,-0.0733 c 0.11904,-0.0641 0.155668,-0.22892 0.155668,-0.37543 v -0.22893 c 0,-0.17398 -0.07326,-0.30218 -0.238081,-0.30218 h -0.03663 c -0.100727,0 -0.18314,0.0275 -0.238082,0.0458 -1.126308,0.41206 -1.135465,1.48343 -1.135465,1.79477 0,0.21976 0.09157,0.31133 0.311337,0.31133 z"
           style="-inkscape-font-specification:'Vtg Stencil Marsh, Semi-Expanded'"
           id="path2078" />
        <path
           d="m 47.020204,182.40288 c 0.164826,0 0.238081,-0.12819 0.238081,-0.30218 v -0.26555 c 0,-0.14651 -0.03663,-0.27471 -0.155668,-0.34796 l -0.09157,-0.0641 c -0.192297,-0.1282 -0.402907,-0.35712 -0.402907,-0.88823 v -2.56395 c 0,-0.53111 0.21061,-0.76003 0.402907,-0.88823 l 0.09157,-0.0641 c 0.11904,-0.0733 0.155668,-0.23808 0.155668,-0.38459 v -0.22893 c 0,-0.17398 -0.07326,-0.30218 -0.238081,-0.30218 h -0.03663 c -0.100727,0 -0.137355,0.0183 -0.210611,0.0458 -1.080523,0.43953 -1.135465,1.26366 -1.135465,1.99622 v 2.21599 c 0,0.73256 0.05494,1.55668 1.135465,1.99622 0.07326,0.0275 0.109884,0.0458 0.210611,0.0458 z m 1.483431,0 c 0.100726,0 0.137354,-0.0183 0.21061,-0.0458 1.080524,-0.43954 1.135466,-1.26366 1.135466,-1.99622 v -2.21599 c 0,-0.73256 -0.05494,-1.55669 -1.135466,-1.99622 -0.07326,-0.0275 -0.109884,-0.0458 -0.21061,-0.0458 h -0.03663 c -0.164826,0 -0.238082,0.1282 -0.238082,0.30218 v 0.26556 c 0,0.14651 0.03663,0.2747 0.155669,0.34796 l 0.09157,0.0641 c 0.192296,0.1282 0.402907,0.35712 0.402907,0.88823 v 2.56395 c 0,0.53111 -0.210611,0.76003 -0.402907,0.88823 l -0.09157,0.0641 c -0.119041,0.0733 -0.155669,0.20145 -0.155669,0.34796 v 0.26555 c 0,0.17399 0.07326,0.30218 0.238082,0.30218 z"
           style="-inkscape-font-specification:'Vtg Stencil Marsh, Semi-Expanded'"
           id="path2075" />
        <path
           d="m 54.922663,182.36626 c 0.219767,0 0.311337,-0.0916 0.311337,-0.31134 v -0.27471 c 0,-0.21977 -0.09157,-0.31134 -0.311337,-0.31134 h -1.75814 c -0.128198,0 -0.219768,-0.0366 -0.320495,-0.12819 l -0.503634,-0.46701 c -0.164825,-0.14651 -0.329651,-0.14651 -0.48532,0.009 l -0.567732,0.54026 c -0.119041,0.11904 -0.173983,0.23808 -0.173983,0.39375 v 0.23808 c 0,0.21977 0.09157,0.31134 0.311337,0.31134 z m -0.421221,-2.75625 c 0.329651,-0.33881 0.824128,-0.80582 0.824128,-1.71236 0,-1.08968 -0.714245,-1.54753 -1.217879,-1.74898 -0.0641,-0.0275 -0.137354,-0.0458 -0.192296,-0.0458 -0.164826,0 -0.238082,0.1282 -0.238082,0.30218 v 0.29303 c 0,0.18314 0.0641,0.26555 0.192297,0.34796 0.219767,0.13736 0.48532,0.35712 0.48532,0.83329 0,0.30218 -0.109884,0.61351 -0.476163,0.97979 l -0.869913,0.87907 c -0.155669,0.15567 -0.155669,0.29303 0.0092,0.43954 l 0.247238,0.23808 c 0.164826,0.15567 0.293024,0.15567 0.448692,0 z m -2.692152,-1.35524 c 0.219767,0 0.311337,-0.0916 0.311337,-0.31133 0,-0.50364 0.21061,-0.74172 0.402907,-0.86076 l 0.119041,-0.0733 c 0.11904,-0.0641 0.155668,-0.22892 0.155668,-0.37543 v -0.22893 c 0,-0.17398 -0.07325,-0.30218 -0.238081,-0.30218 h -0.03663 c -0.100727,0 -0.18314,0.0275 -0.238081,0.0458 -1.126309,0.41206 -1.135466,1.48343 -1.135466,1.79477 0,0.21976 0.09157,0.31133 0.311337,0.31133 z"
           style="-inkscape-font-specification:'Vtg Stencil Marsh, Semi-Expanded'"
           id="path2072" />
        <path
           d="m 60.435152,179.70158 c 0.219767,0 0.311337,-0.0916 0.311337,-0.31134 v -0.27471 c 0,-0.21977 -0.09157,-0.31134 -0.311337,-0.31134 h -3.406397 c -0.219767,0 -0.311337,0.0916 -0.311337,0.31134 v 0.27471 c 0,0.21977 0.09157,0.31134 0.311337,0.31134 z"
           style="-inkscape-font-specification:'Vtg Stencil Marsh, Semi-Expanded'"
           id="path2069" />
        <path
           d="m 64.537462,182.36626 c 0.219767,0 0.311337,-0.0916 0.311337,-0.31134 v -5.60407 c 0,-0.21977 -0.09157,-0.31134 -0.311337,-0.31134 h -0.347965 c -0.219768,0 -0.338809,0.0824 -0.439535,0.28387 l -0.531105,1.09883 c -0.03663,0.0733 -0.05494,0.15567 -0.05494,0.21977 0,0.10989 0.0641,0.22893 0.192296,0.28387 l 0.247239,0.10988 c 0.201453,0.0824 0.274709,0.21061 0.274709,0.43038 v 3.48881 c 0,0.21977 0.09157,0.31134 0.311338,0.31134 z"
           style="-inkscape-font-specification:'Vtg Stencil Marsh, Semi-Expanded'"
           id="path2066" />
        <path
           d="m 68.996898,182.40288 c 0.164826,0 0.238082,-0.12819 0.238082,-0.30218 v -0.26555 c 0,-0.14651 -0.03663,-0.27471 -0.155669,-0.34796 l -0.09157,-0.0641 c -0.192297,-0.1282 -0.402907,-0.35712 -0.402907,-0.88823 v -2.56395 c 0,-0.53111 0.21061,-0.76003 0.402907,-0.88823 l 0.09157,-0.0641 c 0.119041,-0.0733 0.155669,-0.23808 0.155669,-0.38459 v -0.22893 c 0,-0.17398 -0.07326,-0.30218 -0.238082,-0.30218 h -0.03663 c -0.100727,0 -0.137355,0.0183 -0.21061,0.0458 -1.080524,0.43953 -1.135466,1.26366 -1.135466,1.99622 v 2.21599 c 0,0.73256 0.05494,1.55668 1.135466,1.99622 0.07325,0.0275 0.109883,0.0458 0.21061,0.0458 z m 1.483431,0 c 0.100727,0 0.137354,-0.0183 0.21061,-0.0458 1.080524,-0.43954 1.135466,-1.26366 1.135466,-1.99622 v -2.21599 c 0,-0.73256 -0.05494,-1.55669 -1.135466,-1.99622 -0.07326,-0.0275 -0.109883,-0.0458 -0.21061,-0.0458 h -0.03663 c -0.164826,0 -0.238082,0.1282 -0.238082,0.30218 v 0.26556 c 0,0.14651 0.03663,0.2747 0.155669,0.34796 l 0.09157,0.0641 c 0.192296,0.1282 0.402907,0.35712 0.402907,0.88823 v 2.56395 c 0,0.53111 -0.210611,0.76003 -0.402907,0.88823 l -0.09157,0.0641 c -0.119041,0.0733 -0.155669,0.20145 -0.155669,0.34796 v 0.26555 c 0,0.17399 0.07326,0.30218 0.238082,0.30218 z"
           style="-inkscape-font-specification:'Vtg Stencil Marsh, Semi-Expanded'"
           id="path2063" />
        <path
           d="m 75.525812,182.36626 c 0.219767,0 0.311337,-0.0916 0.311337,-0.31134 v -5.60407 c 0,-0.21977 -0.09157,-0.31134 -0.311337,-0.31134 h -0.347966 c -0.219767,0 -0.338808,0.0824 -0.439535,0.28387 l -0.531104,1.09883 c -0.03663,0.0733 -0.05494,0.15567 -0.05494,0.21977 0,0.10989 0.0641,0.22893 0.192296,0.28387 l 0.247239,0.10988 c 0.201453,0.0824 0.274709,0.21061 0.274709,0.43038 v 3.48881 c 0,0.21977 0.09157,0.31134 0.311337,0.31134 z"
           style="-inkscape-font-specification:'Vtg Stencil Marsh, Semi-Expanded'"
           id="path2060" />
      </g>
      <g
         aria-label="serial no.003"
         id="text504"
         style="font-size:9.07781px;font-family:'Helvetica Neue';-inkscape-font-specification:'Helvetica Neue, Normal';stroke-width:0.141841">
        <path
           d="m 15.014541,191.5419 c 0.1634,0 0.236023,-0.12709 0.236023,-0.29957 v -0.22695 c 0,-0.14524 -0.03631,-0.26325 -0.163401,-0.33588 l -0.181556,-0.10893 c -0.181556,-0.10893 -0.308646,-0.29049 -0.335879,-0.49928 -0.02723,-0.19063 -0.09986,-0.27233 -0.29049,-0.27233 h -0.408501 c -0.190635,0 -0.272335,0.0817 -0.272335,0.27233 0,0.62637 0.599136,1.47061 1.298127,1.47061 z m 1.443371,0 c 0.571902,0 1.352594,-0.68084 1.352594,-1.75202 0,-0.85332 -0.490202,-1.30721 -1.261815,-1.64309 l -1.379828,-0.59913 c -0.45389,-0.19971 -0.608213,-0.42666 -0.608213,-0.78977 0,-0.29957 0.145245,-0.42666 0.37219,-0.53559 l 0.154323,-0.0726 c 0.127089,-0.0454 0.163401,-0.18156 0.163401,-0.3268 v -0.22695 c 0,-0.17248 -0.06355,-0.29049 -0.226946,-0.29957 h -0.09078 c -0.399423,0 -1.334438,0.39035 -1.334438,1.54323 0,0.83516 0.462969,1.27997 1.034871,1.52507 l 1.479683,0.64453 c 0.499279,0.21786 0.735302,0.46297 0.735302,0.87147 0,0.35403 -0.181556,0.56282 -0.399423,0.70807 l -0.163401,0.10893 c -0.118011,0.0726 -0.163401,0.17248 -0.163401,0.31772 v 0.22695 c 0,0.17248 0.07262,0.29957 0.236024,0.29957 z m 1.043949,-4.46629 c 0.190634,0 0.272334,-0.0817 0.272334,-0.27233 0,-0.58098 -0.526513,-1.50692 -1.32536,-1.50692 h -0.09078 c -0.163401,0 -0.236024,0.12709 -0.236024,0.29957 v 0.22695 c 0,0.14524 0.02723,0.28141 0.154323,0.34495 l 0.172479,0.0999 c 0.136167,0.0726 0.299567,0.28141 0.344956,0.53559 0.03631,0.19063 0.09986,0.27233 0.29049,0.27233 z"
           style="-inkscape-font-specification:'Vtg Stencil Marsh, Semi-Expanded'"
           id="path2057" />
        <path
           d="m 19.698677,191.50558 c 0.217867,0 0.308646,-0.0908 0.308646,-0.30864 v -2.06066 c 0,-0.19064 0.0817,-0.27234 0.272334,-0.27234 h 0.562824 c 0.217868,0 0.308646,-0.0908 0.308646,-0.30864 v -0.27234 c 0,-0.21787 -0.09078,-0.30864 -0.308646,-0.30864 h -0.562824 c -0.190634,0 -0.272334,-0.0817 -0.272334,-0.27234 v -2.06066 c 0,-0.21787 -0.09078,-0.30865 -0.308646,-0.30865 H 19.35372 c -0.217867,0 -0.308645,0.0908 -0.308645,0.30865 v 5.55562 c 0,0.21787 0.09078,0.30864 0.308645,0.30864 z m 2.705187,0 c 0.217868,0 0.308646,-0.0908 0.308646,-0.30864 v -0.27234 c 0,-0.21786 -0.09078,-0.30864 -0.308646,-0.30864 h -1.216426 c -0.217868,0 -0.308646,0.0908 -0.308646,0.30864 v 0.27234 c 0,0.21787 0.09078,0.30864 0.308646,0.30864 z m 0,-5.28328 c 0.217868,0 0.308646,-0.0908 0.308646,-0.30865 v -0.27233 c 0,-0.21787 -0.09078,-0.30865 -0.308646,-0.30865 h -1.216426 c -0.217868,0 -0.308646,0.0908 -0.308646,0.30865 v 0.27233 c 0,0.21787 0.09078,0.30865 0.308646,0.30865 z"
           style="-inkscape-font-specification:'Vtg Stencil Marsh, Semi-Expanded'"
           id="path2054" />
        <path
           d="m 28.522295,191.50558 c 0.154323,0 0.236023,-0.0635 0.236023,-0.1634 0,-0.0454 -0.0091,-0.0908 -0.03631,-0.14524 l -1.107493,-2.1696 c -0.02723,-0.0635 -0.03631,-0.0999 -0.03631,-0.1634 v -0.0272 c 0,-0.0545 0.02723,-0.0999 0.0817,-0.12709 0.490202,-0.19063 1.043948,-0.59006 1.043948,-1.46153 v -0.2451 c 0,-0.87147 -0.562824,-1.67032 -1.815562,-1.67032 H 26.63411 c -0.217867,0 -0.308645,0.0908 -0.308645,0.30865 v 0.27233 c 0,0.21787 0.09078,0.30865 0.308645,0.30865 h 0.254179 c 0.453891,0 0.817003,0.27233 0.817003,0.78069 v 0.2451 c 0,0.50836 -0.363112,0.78069 -0.817003,0.78069 H 26.63411 c -0.217867,0 -0.308645,0.0908 -0.308645,0.30865 v 0.19971 c 0,0.11801 0.04539,0.21787 0.0817,0.29049 l 1.261816,2.38746 c 0.09986,0.19064 0.199712,0.29049 0.417579,0.29049 z m -3.376946,0 c 0.217868,0 0.308646,-0.0908 0.308646,-0.30864 v -5.55562 c 0,-0.21787 -0.09078,-0.30865 -0.308646,-0.30865 h -0.344956 c -0.217868,0 -0.308646,0.0908 -0.308646,0.30865 v 5.55562 c 0,0.21787 0.09078,0.30864 0.308646,0.30864 z"
           style="-inkscape-font-specification:'Vtg Stencil Marsh, Semi-Expanded'"
           id="path2051" />
        <path
           d="m 32.198794,191.50558 c 0.217868,0 0.308646,-0.0908 0.308646,-0.30864 v -5.55562 c 0,-0.21787 -0.09078,-0.30865 -0.308646,-0.30865 h -0.344957 c -0.217867,0 -0.308645,0.0908 -0.308645,0.30865 v 5.55562 c 0,0.21787 0.09078,0.30864 0.308645,0.30864 z"
           style="-inkscape-font-specification:'Vtg Stencil Marsh, Semi-Expanded'"
           id="path2048" />
        <path
           d="m 39.406562,191.50558 c 0.217867,0 0.317723,-0.0999 0.254179,-0.30864 l -1.724784,-5.5647 c -0.06355,-0.20879 -0.181557,-0.29957 -0.399424,-0.29957 h -0.108934 c -0.217867,0 -0.344957,0.0908 -0.408501,0.29957 l -0.308646,0.99856 c -0.06354,0.20879 0.01816,0.31772 0.190634,0.4085 l 0.09986,0.0454 c 0.399424,0.19971 0.535591,0.49928 0.671758,0.93502 l 0.980404,3.17723 c 0.06354,0.20879 0.181556,0.30864 0.399423,0.30864 z m -2.414698,-1.09841 c 0.317724,0 0.245101,-0.34496 0.20879,-0.46297 l -0.508357,-1.634 c -0.05447,-0.16341 -0.136168,-0.23603 -0.254179,-0.23603 -0.09986,0 -0.199712,0.0726 -0.254179,0.23603 l -0.898703,2.88674 c -0.06354,0.20879 0.03631,0.30864 0.254179,0.30864 h 0.344957 c 0.217867,0 0.344956,-0.0999 0.399423,-0.30864 l 0.172479,-0.61729 c 0.02723,-0.10894 0.09078,-0.1634 0.208789,-0.17248 z"
           style="-inkscape-font-specification:'Vtg Stencil Marsh, Semi-Expanded'"
           id="path2045" />
        <path
           d="m 41.485367,191.50558 c 0.217867,0 0.308645,-0.0908 0.308645,-0.30864 v -5.55562 c 0,-0.21787 -0.09078,-0.30865 -0.308645,-0.30865 H 41.14041 c -0.217868,0 -0.308646,0.0908 -0.308646,0.30865 v 5.55562 c 0,0.21787 0.09078,0.30864 0.308646,0.30864 z m 3.213545,0 c 0.217867,0 0.308645,-0.0908 0.308645,-0.30864 v -0.27234 c 0,-0.21786 -0.09078,-0.30864 -0.308645,-0.30864 h -1.724784 c -0.217868,0 -0.308646,0.0908 -0.308646,0.30864 v 0.27234 c 0,0.21787 0.09078,0.30864 0.308646,0.30864 z"
           style="-inkscape-font-specification:'Vtg Stencil Marsh, Semi-Expanded'"
           id="path2042" />
        <path
           d="m 52.378714,191.50558 c 0.217867,0 0.308645,-0.0908 0.308645,-0.30864 v -1.87003 c 0,-0.11801 -0.02723,-0.19971 -0.09078,-0.29957 l -0.462968,-0.67176 c -0.06354,-0.0999 -0.145245,-0.13616 -0.217868,-0.13616 -0.09986,0 -0.190634,0.0908 -0.190634,0.25418 v 2.72334 c 0,0.21787 0.09078,0.30864 0.308646,0.30864 z m 3.249856,0 c 0.190634,0 0.272334,-0.11801 0.272334,-0.30864 v -0.74438 c 0,-0.12709 -0.04539,-0.19971 -0.163401,-0.25418 l -0.09078,-0.0454 c -0.09986,-0.0454 -0.172478,-0.0998 -0.236023,-0.19971 l -2.886744,-4.39366 c -0.108933,-0.1634 -0.199711,-0.22695 -0.390345,-0.22695 h -0.136168 c -0.190634,0 -0.272334,0.11802 -0.272334,0.30865 v 0.74438 c 0,0.12709 0.04539,0.19971 0.163401,0.25418 l 0.108933,0.0545 c 0.09986,0.0454 0.172479,0.0999 0.236024,0.19971 l 2.877665,4.38458 c 0.108934,0.1634 0.199712,0.22694 0.390346,0.22694 z m -0.136168,-3.03198 c 0.06355,0.0999 0.145245,0.13616 0.217868,0.13616 0.09986,0 0.190634,-0.0908 0.190634,-0.25418 v -2.71426 c 0,-0.21787 -0.09078,-0.30865 -0.308646,-0.30865 h -0.344956 c -0.217868,0 -0.308646,0.0908 -0.308646,0.30865 v 1.86095 c 0,0.11801 0.02723,0.19971 0.09078,0.29957 z"
           style="-inkscape-font-specification:'Vtg Stencil Marsh, Semi-Expanded'"
           id="path2039" />
        <path
           d="m 58.58792,191.5419 c 0.163401,0 0.236023,-0.12709 0.236023,-0.29957 v -0.23602 c 0,-0.14525 -0.03631,-0.27234 -0.154323,-0.34496 l -0.136167,-0.0908 C 58.342819,190.44346 58.13403,190.21652 58.13403,189.69 v -2.54178 c 0,-0.52652 0.208789,-0.75346 0.399423,-0.88055 l 0.136167,-0.0908 c 0.118012,-0.0726 0.154323,-0.19971 0.154323,-0.34496 v -0.23602 c 0,-0.17248 -0.07262,-0.29957 -0.236023,-0.29957 h -0.03631 c -0.09986,0 -0.181556,0.0182 -0.254179,0.0454 -1.071181,0.43574 -1.125648,1.25274 -1.125648,1.97896 v 2.19683 c 0,0.72623 0.05447,1.54323 1.125648,1.97897 0.07262,0.0272 0.154323,0.0454 0.254179,0.0454 z m 1.379827,0 c 0.09986,0 0.181556,-0.0182 0.254179,-0.0454 1.071182,-0.43574 1.125648,-1.25274 1.125648,-1.97897 v -2.19683 c 0,-0.72622 -0.05447,-1.54322 -1.125648,-1.97896 -0.07262,-0.0272 -0.154323,-0.0454 -0.254179,-0.0454 h -0.03631 c -0.163401,0 -0.236023,0.12709 -0.236023,0.29957 v 0.23602 c 0,0.14525 0.03631,0.27234 0.154323,0.34496 l 0.136167,0.0908 c 0.190634,0.12709 0.399424,0.35403 0.399424,0.88055 v 2.54178 c 0,0.52652 -0.20879,0.75346 -0.399424,0.88055 l -0.136167,0.0908 c -0.118012,0.0726 -0.154323,0.19971 -0.154323,0.34496 v 0.23602 c 0,0.17248 0.07262,0.29957 0.236023,0.29957 z"
           style="-inkscape-font-specification:'Vtg Stencil Marsh, Semi-Expanded'"
           id="path2036" />
        <path
           d="m 64.706349,191.59636 c 0.417579,0 0.708069,-0.29956 0.708069,-0.72622 0,-0.42666 -0.29049,-0.72623 -0.708069,-0.72623 -0.41758,0 -0.70807,0.29957 -0.70807,0.72623 0,0.42666 0.29049,0.72622 0.70807,0.72622 z"
           style="-inkscape-font-specification:'Vtg Stencil Marsh, Semi-Expanded'"
           id="path2033" />
        <path
           d="m 69.435876,191.5419 c 0.163401,0 0.236023,-0.12709 0.236023,-0.29957 v -0.26326 c 0,-0.14524 -0.03631,-0.27233 -0.154323,-0.34496 l -0.09078,-0.0635 c -0.190634,-0.12709 -0.399424,-0.35403 -0.399424,-0.88055 v -2.54178 c 0,-0.52652 0.20879,-0.75346 0.399424,-0.88055 l 0.09078,-0.0635 c 0.118012,-0.0726 0.154323,-0.23602 0.154323,-0.38126 v -0.22695 c 0,-0.17248 -0.07262,-0.29957 -0.236023,-0.29957 h -0.03631 c -0.09986,0 -0.136167,0.0182 -0.20879,0.0454 -1.071182,0.43574 -1.125648,1.25274 -1.125648,1.97896 v 2.19683 c 0,0.72623 0.05447,1.54323 1.125648,1.97897 0.07262,0.0272 0.108934,0.0454 0.20879,0.0454 z m 1.470605,0 c 0.09986,0 0.136167,-0.0182 0.20879,-0.0454 1.071181,-0.43574 1.125648,-1.25274 1.125648,-1.97897 v -2.19683 c 0,-0.72622 -0.05447,-1.54322 -1.125648,-1.97896 -0.07262,-0.0272 -0.108934,-0.0454 -0.20879,-0.0454 h -0.03631 c -0.163401,0 -0.236023,0.12709 -0.236023,0.29957 v 0.26326 c 0,0.14524 0.03631,0.27233 0.154323,0.34495 l 0.09078,0.0635 c 0.190634,0.12709 0.399423,0.35403 0.399423,0.88055 v 2.54178 c 0,0.52652 -0.208789,0.75346 -0.399423,0.88055 l -0.09078,0.0635 c -0.118012,0.0726 -0.154323,0.19972 -0.154323,0.34496 v 0.26326 c 0,0.17248 0.07262,0.29957 0.236023,0.29957 z"
           style="-inkscape-font-specification:'Vtg Stencil Marsh, Semi-Expanded'"
           id="path2030" />
        <path
           d="m 74.88255,191.5419 c 0.163401,0 0.236023,-0.12709 0.236023,-0.29957 v -0.26326 c 0,-0.14524 -0.03631,-0.27233 -0.154322,-0.34496 l -0.09078,-0.0635 c -0.190634,-0.12709 -0.399423,-0.35403 -0.399423,-0.88055 v -2.54178 c 0,-0.52652 0.208789,-0.75346 0.399423,-0.88055 l 0.09078,-0.0635 c 0.118011,-0.0726 0.154322,-0.23602 0.154322,-0.38126 v -0.22695 c 0,-0.17248 -0.07262,-0.29957 -0.236023,-0.29957 h -0.03631 c -0.09986,0 -0.136167,0.0182 -0.20879,0.0454 -1.071181,0.43574 -1.125648,1.25274 -1.125648,1.97896 v 2.19683 c 0,0.72623 0.05447,1.54323 1.125648,1.97897 0.07262,0.0272 0.108934,0.0454 0.20879,0.0454 z m 1.470606,0 c 0.09986,0 0.136167,-0.0182 0.208789,-0.0454 1.071182,-0.43574 1.125649,-1.25274 1.125649,-1.97897 v -2.19683 c 0,-0.72622 -0.05447,-1.54322 -1.125649,-1.97896 -0.07262,-0.0272 -0.108934,-0.0454 -0.208789,-0.0454 h -0.03631 c -0.1634,0 -0.236023,0.12709 -0.236023,0.29957 v 0.26326 c 0,0.14524 0.03631,0.27233 0.154323,0.34495 l 0.09078,0.0635 c 0.190634,0.12709 0.399424,0.35403 0.399424,0.88055 v 2.54178 c 0,0.52652 -0.20879,0.75346 -0.399424,0.88055 l -0.09078,0.0635 c -0.118012,0.0726 -0.154323,0.19972 -0.154323,0.34496 v 0.26326 c 0,0.17248 0.07262,0.29957 0.236023,0.29957 z"
           style="-inkscape-font-specification:'Vtg Stencil Marsh, Semi-Expanded'"
           id="path2027" />
        <path
           d="m 80.383688,191.5419 c 0.1634,0 0.236023,-0.12709 0.236023,-0.29957 v -0.26326 c 0,-0.14524 -0.02723,-0.28141 -0.154323,-0.34496 l -0.127089,-0.0635 c -0.199712,-0.0999 -0.399424,-0.35403 -0.399424,-0.85331 0,-0.21787 -0.09078,-0.30865 -0.308646,-0.30865 h -0.344956 c -0.217868,0 -0.308646,0.0908 -0.308646,0.30865 0,0.30864 0.0091,1.37075 1.125649,1.77925 0.07262,0.0272 0.190634,0.0454 0.2451,0.0454 z m 1.107493,-0.29957 c 0,0.17248 0.07262,0.29957 0.236023,0.29957 0.05447,0 0.145245,-0.0182 0.208789,-0.0454 0.49928,-0.19971 1.180116,-0.65361 1.180116,-1.73386 0,-0.36312 -0.0817,-0.79885 -0.462969,-1.18012 -0.06354,-0.0635 -0.0817,-0.0908 -0.0817,-0.15432 v -0.0272 c 0,-0.0635 0.01816,-0.0999 0.0817,-0.15432 0.381268,-0.37219 0.462969,-0.80792 0.462969,-1.17104 0,-1.08026 -0.680836,-1.53415 -1.180116,-1.73386 -0.06354,-0.0272 -0.1634,-0.0454 -0.217867,-0.0454 -0.163401,0 -0.236023,0.12709 -0.236023,0.29957 v 0.29049 c 0,0.18156 0.06354,0.26326 0.190634,0.34496 0.217867,0.13616 0.481124,0.35403 0.481124,0.82608 0,0.60821 -0.435735,0.91686 -0.853314,0.91686 h -0.0817 c -0.217867,0 -0.272334,0.0908 -0.272334,0.30864 v 0.27234 c 0,0.21786 0.05447,0.30864 0.272334,0.30864 h 0.0817 c 0.417579,0 0.853314,0.30865 0.853314,0.91686 0,0.47205 -0.254179,0.68991 -0.472046,0.82608 -0.12709,0.0817 -0.190634,0.1634 -0.190634,0.34496 z m -1.860952,-3.81268 c 0.217868,0 0.308646,-0.0908 0.308646,-0.30865 0,-0.49928 0.20879,-0.7353 0.399424,-0.85331 l 0.118011,-0.0726 c 0.118012,-0.0635 0.154323,-0.22695 0.154323,-0.37219 v -0.22695 c 0,-0.17248 -0.07262,-0.29957 -0.236023,-0.29957 H 80.3383 c -0.09986,0 -0.181557,0.0272 -0.236023,0.0454 -1.116571,0.4085 -1.125649,1.47061 -1.125649,1.77925 0,0.21787 0.09078,0.30865 0.308646,0.30865 z"
           style="-inkscape-font-specification:'Vtg Stencil Marsh, Semi-Expanded'"
           id="path2024" />
      </g>
    </g>
  </g>
</svg>
