<?xml version="1.0" encoding="UTF-8" standalone="no"?>
<!-- Created with Inkscape (http://www.inkscape.org/) -->

<svg
   width="141.3425mm"
   height="54.205231mm"
   viewBox="0 0 141.3425 54.205231"
   version="1.1"
   id="svg5"
   inkscape:version="1.2.1 (9c6d41e, 2022-07-14)"
   sodipodi:docname="phoenix.svg"
   xmlns:inkscape="http://www.inkscape.org/namespaces/inkscape"
   xmlns:sodipodi="http://sodipodi.sourceforge.net/DTD/sodipodi-0.dtd"
   xmlns="http://www.w3.org/2000/svg"
   xmlns:svg="http://www.w3.org/2000/svg">
  <sodipodi:namedview
     id="namedview7"
     pagecolor="#ffffff"
     bordercolor="#666666"
     borderopacity="1.0"
     inkscape:showpageshadow="2"
     inkscape:pageopacity="0.0"
     inkscape:pagecheckerboard="0"
     inkscape:deskcolor="#d1d1d1"
     inkscape:document-units="mm"
     showgrid="false"
     inkscape:zoom="0.32921153"
     inkscape:cx="581.69287"
     inkscape:cy="660.66945"
     inkscape:window-width="1720"
     inkscape:window-height="1313"
     inkscape:window-x="1720"
     inkscape:window-y="25"
     inkscape:window-maximized="0"
     inkscape:current-layer="layer2" />
  <defs
     id="defs2" />
  <g
     inkscape:groupmode="layer"
     id="layer2"
     inkscape:label="Layer 2"
     transform="translate(-141.72771,259.28991)">
    <g
       aria-label="serno   64025"
       id="text918"
       style="font-stretch:semi-expanded;font-size:18.4593px;line-height:1.25;font-family:'Vtg Stencil Marsh';-inkscape-font-specification:'Vtg Stencil Marsh, Semi-Expanded';stroke-width:0.288427">
      <path
         d="m 144.60736,-205.0847 c 0.33227,0 0.47995,-0.25843 0.47995,-0.60916 v -0.46148 c 0,-0.29535 -0.0738,-0.53532 -0.33227,-0.683 l -0.36919,-0.22151 c -0.36918,-0.22151 -0.62761,-0.59069 -0.68299,-1.01526 -0.0554,-0.38764 -0.20305,-0.55378 -0.5907,-0.55378 h -0.83067 c -0.38764,0 -0.55378,0.16614 -0.55378,0.55378 0,1.27369 1.21832,2.99041 2.63968,2.99041 z m 2.93503,0 c 1.16294,0 2.75044,-1.38445 2.75044,-3.56265 0,-1.73517 -0.9968,-2.65814 -2.56584,-3.34113 l -2.80582,-1.21831 c -0.92296,-0.40611 -1.23677,-0.86759 -1.23677,-1.60596 0,-0.60916 0.29535,-0.86759 0.75683,-1.0891 l 0.31381,-0.14768 c 0.25843,-0.0923 0.33227,-0.36918 0.33227,-0.66453 v -0.46148 c 0,-0.35073 -0.12922,-0.5907 -0.46149,-0.60916 h -0.18459 c -0.81221,0 -2.71352,0.79375 -2.71352,3.13808 0,1.69826 0.94143,2.60276 2.10436,3.10116 l 3.00887,1.31061 c 1.01526,0.44303 1.4952,0.94143 1.4952,1.7721 0,0.71991 -0.36918,1.14447 -0.81221,1.43982 l -0.33226,0.22151 c -0.23998,0.14768 -0.33227,0.35073 -0.33227,0.64608 v 0.46148 c 0,0.35073 0.14767,0.60916 0.47994,0.60916 z m 2.12282,-9.08198 c 0.38765,0 0.55378,-0.16613 0.55378,-0.55378 0,-1.18139 -1.07064,-3.06424 -2.69506,-3.06424 h -0.18459 c -0.33227,0 -0.47994,0.25843 -0.47994,0.60916 v 0.46148 c 0,0.29535 0.0554,0.57224 0.31381,0.70145 l 0.35072,0.20306 c 0.27689,0.14767 0.60916,0.57223 0.70146,1.08909 0.0738,0.38765 0.20305,0.55378 0.59069,0.55378 z"
         id="path1807" />
      <path
         d="m 154.13233,-205.15854 c 0.44303,0 0.62762,-0.18459 0.62762,-0.62761 v -4.19027 c 0,-0.38764 0.16613,-0.55377 0.55378,-0.55377 h 1.14448 c 0.44302,0 0.62761,-0.1846 0.62761,-0.62762 v -0.55378 c 0,-0.44302 -0.18459,-0.62762 -0.62761,-0.62762 h -1.14448 c -0.38765,0 -0.55378,-0.16613 -0.55378,-0.55378 v -4.19026 c 0,-0.44302 -0.18459,-0.62761 -0.62762,-0.62761 h -0.70145 c -0.44302,0 -0.62762,0.18459 -0.62762,0.62761 v 11.2971 c 0,0.44302 0.1846,0.62761 0.62762,0.62761 z m 5.50087,0 c 0.44303,0 0.62762,-0.18459 0.62762,-0.62761 v -0.55378 c 0,-0.44303 -0.18459,-0.62762 -0.62762,-0.62762 h -2.47354 c -0.44302,0 -0.62762,0.18459 -0.62762,0.62762 v 0.55378 c 0,0.44302 0.1846,0.62761 0.62762,0.62761 z m 0,-10.74331 c 0.44303,0 0.62762,-0.18459 0.62762,-0.62762 v -0.55378 c 0,-0.44302 -0.18459,-0.62761 -0.62762,-0.62761 h -2.47354 c -0.44302,0 -0.62762,0.18459 -0.62762,0.62761 v 0.55378 c 0,0.44303 0.1846,0.62762 0.62762,0.62762 z"
         id="path1804" />
      <path
         d="m 172.07474,-205.15854 c 0.31381,0 0.47995,-0.12921 0.47995,-0.33227 0,-0.0923 -0.0185,-0.18459 -0.0738,-0.29534 l -2.25204,-4.41178 c -0.0554,-0.12921 -0.0738,-0.20305 -0.0738,-0.33226 v -0.0554 c 0,-0.11076 0.0554,-0.20306 0.16613,-0.25843 0.9968,-0.38765 2.12282,-1.19986 2.12282,-2.97195 v -0.4984 c 0,-1.77209 -1.14448,-3.39651 -3.69186,-3.39651 h -0.51686 c -0.44302,0 -0.62762,0.18459 -0.62762,0.62761 v 0.55378 c 0,0.44303 0.1846,0.62762 0.62762,0.62762 h 0.51686 c 0.92297,0 1.66134,0.55378 1.66134,1.5875 v 0.4984 c 0,1.03372 -0.73837,1.5875 -1.66134,1.5875 h -0.51686 c -0.44302,0 -0.62762,0.18459 -0.62762,0.62762 v 0.4061 c 0,0.23997 0.0923,0.44302 0.16614,0.5907 l 2.56584,4.85479 c 0.20305,0.38765 0.4061,0.5907 0.84913,0.5907 z m -6.86686,0 c 0.44303,0 0.62762,-0.18459 0.62762,-0.62761 v -11.2971 c 0,-0.44302 -0.18459,-0.62761 -0.62762,-0.62761 h -0.70145 c -0.44302,0 -0.62761,0.18459 -0.62761,0.62761 v 11.2971 c 0,0.44302 0.18459,0.62761 0.62761,0.62761 z"
         id="path1801" />
      <path
         d="m 176.28344,-205.15854 c 0.44302,0 0.62761,-0.18459 0.62761,-0.62761 v -3.80262 c 0,-0.23997 -0.0554,-0.40611 -0.18459,-0.60916 l -0.94142,-1.36599 c -0.12922,-0.20305 -0.29535,-0.27689 -0.44303,-0.27689 -0.20305,0 -0.38764,0.1846 -0.38764,0.51687 v 5.53779 c 0,0.44302 0.18459,0.62761 0.62761,0.62761 z m 6.60843,0 c 0.38764,0 0.55377,-0.23997 0.55377,-0.62761 v -1.51367 c 0,-0.25843 -0.0923,-0.4061 -0.33226,-0.51686 l -0.1846,-0.0923 c -0.20305,-0.0923 -0.35072,-0.20306 -0.47994,-0.40611 l -5.87005,-8.9343 c -0.22152,-0.33227 -0.40611,-0.46148 -0.79375,-0.46148 h -0.27689 c -0.38765,0 -0.55378,0.23997 -0.55378,0.62761 v 1.51367 c 0,0.25843 0.0923,0.4061 0.33226,0.51686 l 0.22152,0.11075 c 0.20305,0.0923 0.35072,0.20305 0.47994,0.40611 l 5.8516,8.91584 c 0.22151,0.33227 0.4061,0.46148 0.79375,0.46148 z m -0.27689,-6.1654 c 0.12921,0.20305 0.29535,0.27688 0.44302,0.27688 0.20305,0 0.38764,-0.18459 0.38764,-0.51686 v -5.51933 c 0,-0.44302 -0.18459,-0.62761 -0.62761,-0.62761 h -0.70145 c -0.44303,0 -0.62762,0.18459 -0.62762,0.62761 v 3.78416 c 0,0.23997 0.0554,0.4061 0.18459,0.60916 z"
         id="path1798" />
      <path
         d="m 188.90957,-205.0847 c 0.33227,0 0.47994,-0.25843 0.47994,-0.60916 v -0.47994 c 0,-0.29535 -0.0738,-0.55378 -0.31381,-0.70145 l -0.27689,-0.1846 c -0.38764,-0.25843 -0.81221,-0.71991 -0.81221,-1.79055 v -5.1686 c 0,-1.07064 0.42457,-1.53212 0.81221,-1.79055 l 0.27689,-0.1846 c 0.23997,-0.14767 0.31381,-0.4061 0.31381,-0.70145 v -0.47994 c 0,-0.35073 -0.14767,-0.60916 -0.47994,-0.60916 h -0.0738 c -0.20305,0 -0.36919,0.0369 -0.51686,0.0923 -2.1782,0.88604 -2.28895,2.54738 -2.28895,4.02412 v 4.46715 c 0,1.47675 0.11075,3.13809 2.28895,4.02413 0.14767,0.0554 0.31381,0.0923 0.51686,0.0923 z m 2.80581,0 c 0.20305,0 0.36919,-0.0369 0.51686,-0.0923 2.1782,-0.88604 2.28895,-2.54738 2.28895,-4.02413 v -4.46715 c 0,-1.47674 -0.11075,-3.13808 -2.28895,-4.02412 -0.14767,-0.0554 -0.31381,-0.0923 -0.51686,-0.0923 h -0.0738 c -0.33226,0 -0.47994,0.25843 -0.47994,0.60916 v 0.47994 c 0,0.29535 0.0738,0.55378 0.31381,0.70145 l 0.27689,0.1846 c 0.38765,0.25843 0.81221,0.71991 0.81221,1.79055 v 5.1686 c 0,1.07064 -0.42456,1.53212 -0.81221,1.79055 l -0.27689,0.1846 c -0.23997,0.14767 -0.31381,0.4061 -0.31381,0.70145 v 0.47994 c 0,0.35073 0.14768,0.60916 0.47994,0.60916 z"
         id="path1795" />
      <path
         d="m 236.01759,-205.0847 c 0.16613,0 0.27688,-0.0369 0.42456,-0.0923 1.82747,-0.66453 2.28895,-2.25203 2.28895,-3.35959 0,-1.12602 -0.46148,-2.71352 -2.28895,-3.37805 -0.14768,-0.0554 -0.31381,-0.0923 -0.42456,-0.0923 h -0.0738 c -0.33227,0 -0.47994,0.25843 -0.47994,0.60916 v 0.53532 c 0,0.29535 0.0738,0.53532 0.3138,0.70145 l 0.1846,0.12922 c 0.38764,0.25843 0.81221,0.75683 0.81221,1.4952 0,0.71991 -0.42457,1.21831 -0.81221,1.47674 l -0.1846,0.12922 c -0.23997,0.16613 -0.3138,0.4061 -0.3138,0.70145 v 0.53532 c 0,0.35073 0.14767,0.60916 0.47994,0.60916 z m 2.0859,-8.73125 c 0.44302,0 0.62761,-0.18459 0.62761,-0.62762 0,-0.51686 -0.11075,-2.38125 -2.28895,-3.24883 -0.14768,-0.0554 -0.22151,-0.0923 -0.42456,-0.0923 h -0.0738 c -0.33227,0 -0.47994,0.25843 -0.47994,0.60916 v 0.53532 c 0,0.29535 0.0738,0.53532 0.3138,0.70145 l 0.1846,0.12922 c 0.38764,0.25843 0.73837,0.71991 0.79375,1.36598 0.0369,0.44303 0.18459,0.62762 0.62761,0.62762 z m -4.89172,8.73125 c 0.33227,0 0.47994,-0.25843 0.47994,-0.60916 v -0.53532 c 0,-0.29535 -0.0738,-0.55378 -0.3138,-0.70145 l -0.1846,-0.12922 c -0.38764,-0.25843 -0.81221,-0.71991 -0.81221,-1.79055 v -5.1686 c 0,-1.07064 0.42457,-1.53212 0.81221,-1.79055 l 0.1846,-0.12922 c 0.23997,-0.14767 0.3138,-0.47994 0.3138,-0.77529 v -0.46148 c 0,-0.35073 -0.14767,-0.60916 -0.47994,-0.60916 h -0.0738 c -0.20305,0 -0.27688,0.0369 -0.42456,0.0923 -2.1782,0.88604 -2.28895,2.54738 -2.28895,4.02412 v 4.46715 c 0,1.47675 0.11075,3.13809 2.28895,4.02413 0.14768,0.0554 0.22151,0.0923 0.42456,0.0923 z"
         id="path1792" />
      <path
         d="m 248.05302,-205.15854 c 0.44303,0 0.62762,-0.18459 0.62762,-0.62761 v -2.43663 c 0,-0.25843 0.0738,-0.44303 0.29535,-0.57224 l 0.33227,-0.18459 c 0.22151,-0.12922 0.29534,-0.33227 0.29534,-0.5907 v -0.36919 c 0,-0.25843 -0.0738,-0.46148 -0.29534,-0.59069 l -0.33227,-0.1846 c -0.22151,-0.12921 -0.29535,-0.31381 -0.29535,-0.57224 v -5.79622 c 0,-0.44302 -0.18459,-0.62761 -0.62762,-0.62761 h -0.47994 c -0.38764,0 -0.66453,0.0923 -0.88605,0.4061 l -1.27369,1.55058 c -0.29535,0.33227 -0.27689,0.73838 0.0554,0.99681 l 0.83067,0.64607 c 0.31381,0.23997 0.42456,0.53532 0.42456,0.92297 v 7.40218 c 0,0.44302 0.1846,0.62761 0.62762,0.62761 z m -3.72878,-3.56264 c 0.44303,0 0.62762,-0.1846 0.62762,-0.62762 v -0.62762 c 0,-0.20305 -0.0738,-0.42456 -0.33227,-0.47994 l -0.20305,-0.0369 c -0.29535,-0.0554 -0.33227,-0.18459 -0.33227,-0.38764 0,-0.12922 0.0738,-0.27689 0.22152,-0.46148 l 0.51686,-0.64608 c 0.23997,-0.31381 0.23997,-0.53532 -0.0554,-0.79375 l -0.64608,-0.53532 c -0.29535,-0.25843 -0.55378,-0.25843 -0.79375,0.0369 l -2.04898,2.47355 c -0.16613,0.20305 -0.23997,0.46148 -0.23997,0.71991 v 0.73837 c 0,0.44302 0.18459,0.62762 0.62762,0.62762 z"
         id="path1789" />
      <path
         d="m 255.27058,-205.0847 c 0.33226,0 0.47994,-0.25843 0.47994,-0.60916 v -0.53532 c 0,-0.29535 -0.0738,-0.55378 -0.31381,-0.70145 l -0.18459,-0.12922 c -0.38765,-0.25843 -0.81221,-0.71991 -0.81221,-1.79055 v -5.1686 c 0,-1.07064 0.42456,-1.53212 0.81221,-1.79055 l 0.18459,-0.12922 c 0.23997,-0.14767 0.31381,-0.47994 0.31381,-0.77529 v -0.46148 c 0,-0.35073 -0.14768,-0.60916 -0.47994,-0.60916 h -0.0738 c -0.20305,0 -0.27689,0.0369 -0.42457,0.0923 -2.17819,0.88604 -2.28895,2.54738 -2.28895,4.02412 v 4.46715 c 0,1.47675 0.11076,3.13809 2.28895,4.02413 0.14768,0.0554 0.22152,0.0923 0.42457,0.0923 z m 2.9904,0 c 0.20305,0 0.27689,-0.0369 0.42457,-0.0923 2.17819,-0.88604 2.28895,-2.54738 2.28895,-4.02413 v -4.46715 c 0,-1.47674 -0.11076,-3.13808 -2.28895,-4.02412 -0.14768,-0.0554 -0.22152,-0.0923 -0.42457,-0.0923 h -0.0738 c -0.33226,0 -0.47994,0.25843 -0.47994,0.60916 v 0.53532 c 0,0.29535 0.0738,0.55378 0.31381,0.70145 l 0.18459,0.12922 c 0.38765,0.25843 0.81221,0.71991 0.81221,1.79055 v 5.1686 c 0,1.07064 -0.42456,1.53212 -0.81221,1.79055 l -0.18459,0.12922 c -0.23997,0.14767 -0.31381,0.4061 -0.31381,0.70145 v 0.53532 c 0,0.35073 0.14768,0.60916 0.47994,0.60916 z"
         id="path1786" />
      <path
         d="m 271.20093,-205.15854 c 0.44302,0 0.62761,-0.18459 0.62761,-0.62761 v -0.55378 c 0,-0.44303 -0.18459,-0.62762 -0.62761,-0.62762 h -3.54419 c -0.25843,0 -0.44302,-0.0738 -0.64608,-0.25843 l -1.01526,-0.94142 c -0.33226,-0.29535 -0.66453,-0.29535 -0.97834,0.0184 l -1.14448,1.0891 c -0.23997,0.23997 -0.35072,0.47995 -0.35072,0.79375 v 0.47995 c 0,0.44302 0.18459,0.62761 0.62761,0.62761 z m -0.84913,-5.55625 c 0.66453,-0.68299 1.66133,-1.62442 1.66133,-3.45189 0,-2.19665 -1.43982,-3.11962 -2.45508,-3.52572 -0.12922,-0.0554 -0.27689,-0.0923 -0.38765,-0.0923 -0.33227,0 -0.47994,0.25843 -0.47994,0.60916 v 0.5907 c 0,0.36918 0.12922,0.53531 0.38765,0.70145 0.44302,0.27689 0.97834,0.71991 0.97834,1.67979 0,0.60916 -0.22151,1.23678 -0.95988,1.97515 l -1.75364,1.77209 c -0.31381,0.31381 -0.31381,0.5907 0.0185,0.88605 l 0.4984,0.47994 c 0.33227,0.31381 0.5907,0.31381 0.90451,0 z m -5.42704,-2.73197 c 0.44303,0 0.62762,-0.1846 0.62762,-0.62762 0,-1.01526 0.42456,-1.4952 0.81221,-1.73517 l 0.23997,-0.14768 c 0.23997,-0.12921 0.31381,-0.46148 0.31381,-0.75683 v -0.46148 c 0,-0.35073 -0.14768,-0.60916 -0.47994,-0.60916 h -0.0738 c -0.20305,0 -0.36919,0.0554 -0.47994,0.0923 -2.2705,0.83067 -2.28896,2.9904 -2.28896,3.61802 0,0.44302 0.1846,0.62762 0.62762,0.62762 z"
         id="path1783" />
      <path
         d="m 280.11674,-206.87525 c -0.29535,-0.23997 -0.55378,-0.27689 -0.92296,-0.1846 -0.11076,0.0185 -0.25843,0.0369 -0.42457,0.0369 -0.97834,0 -1.9936,-0.5907 -2.14128,-1.69825 -0.0554,-0.44303 -0.25843,-0.62762 -0.70145,-0.62762 h -0.66453 c -0.44303,0 -0.683,0.18459 -0.62762,0.62762 0.20305,1.69825 1.36599,3.63648 4.20872,3.63648 0.66453,0 1.29215,-0.12922 1.88285,-0.51686 0.29535,-0.20305 0.29535,-0.53532 0,-0.75683 z m 1.84593,-1.01527 c 0.31381,0.23998 0.60916,0.1846 0.79375,-0.14767 0.18459,-0.33227 0.31381,-0.83067 0.31381,-1.40291 0,-1.62441 -0.9968,-3.74723 -3.43343,-4.0795 -0.44302,-0.0554 -0.68299,0.0554 -0.88605,0.44302 l -0.36918,0.683 c -0.1846,0.33226 -0.0923,0.66453 0.35072,0.66453 1.47675,0 2.34433,1.07064 2.34433,2.32587 0,0.12922 0,0.20305 -0.0184,0.31381 -0.0554,0.31381 0.0369,0.4984 0.27688,0.70145 z m 0.60916,-9.59883 c -0.0923,-0.23997 -0.25843,-0.33227 -0.44303,-0.33227 -0.11075,0 -1.32906,0.11076 -2.76889,0.11076 h -4.09796 c -0.44303,0 -0.62762,0.18459 -0.62762,0.62761 v 4.72558 c 0,0.44303 0.18459,0.62762 0.62762,0.62762 h 0.70145 c 0.44302,0 0.62761,-0.18459 0.62761,-0.62762 v -3.0827 c 0,-0.31381 0.14768,-0.46148 0.46149,-0.46148 h 1.91976 c 1.43983,0 2.6766,-0.11076 3.54419,-0.70145 0.25843,-0.1846 0.29535,-0.40611 0.18459,-0.64608 z"
         id="path1780" />
    </g>
    <g
       aria-label="propulsion section
00405 ht004060-11
MFG code ident 00405"
       id="text926"
       style="font-stretch:semi-expanded;font-size:9.07143px;line-height:1.25;font-family:'Vtg Stencil Marsh';-inkscape-font-specification:'Vtg Stencil Marsh, Semi-Expanded';letter-spacing:1.32292px;stroke-width:0.141741">
      <path
         d="m 142.61009,-253.08502 c 0.21771,0 0.30843,-0.0907 0.30843,-0.30843 v -5.55172 c 0,-0.21771 -0.0907,-0.30842 -0.30843,-0.30842 h -0.34472 c -0.21771,0 -0.30842,0.0907 -0.30842,0.30842 v 5.55172 c 0,0.21771 0.0907,0.30843 0.30842,0.30843 z m 1.74171,-2.40393 c 1.25186,0 1.81429,-0.70757 1.81429,-1.66914 v -0.42636 c 0,-0.96157 -0.56243,-1.66914 -1.81429,-1.66914 h -0.254 c -0.21771,0 -0.30843,0.0907 -0.30843,0.30842 v 0.27215 c 0,0.21771 0.0907,0.30843 0.30843,0.30843 h 0.254 c 0.45357,0 0.81643,0.27214 0.81643,0.78014 v 0.42636 c 0,0.508 -0.36286,0.78014 -0.81643,0.78014 h -0.254 c -0.21771,0 -0.30843,0.0907 -0.30843,0.30843 v 0.27214 c 0,0.21771 0.0907,0.30843 0.30843,0.30843 z"
         id="path1777" />
      <path
         d="m 152.75042,-253.08502 c 0.15422,0 0.23586,-0.0635 0.23586,-0.16329 0,-0.0453 -0.009,-0.0907 -0.0363,-0.14514 l -1.10672,-2.16807 c -0.0272,-0.0635 -0.0363,-0.0998 -0.0363,-0.16329 v -0.0272 c 0,-0.0544 0.0272,-0.0998 0.0816,-0.127 0.48986,-0.1905 1.04321,-0.58965 1.04321,-1.4605 v -0.24493 c 0,-0.87086 -0.56243,-1.66914 -1.81428,-1.66914 h -0.254 c -0.21772,0 -0.30843,0.0907 -0.30843,0.30842 v 0.27215 c 0,0.21771 0.0907,0.30843 0.30843,0.30843 h 0.254 c 0.45357,0 0.81643,0.27214 0.81643,0.78014 v 0.24493 c 0,0.508 -0.36286,0.78014 -0.81643,0.78014 h -0.254 c -0.21772,0 -0.30843,0.0907 -0.30843,0.30843 v 0.19957 c 0,0.11793 0.0454,0.21771 0.0816,0.29029 l 1.26093,2.38578 c 0.0998,0.1905 0.19957,0.29029 0.41729,0.29029 z m -3.37457,0 c 0.21772,0 0.30843,-0.0907 0.30843,-0.30843 v -5.55172 c 0,-0.21771 -0.0907,-0.30842 -0.30843,-0.30842 h -0.34471 c -0.21772,0 -0.30843,0.0907 -0.30843,0.30842 v 5.55172 c 0,0.21771 0.0907,0.30843 0.30843,0.30843 z"
         id="path1774" />
      <path
         d="m 156.90362,-253.04874 c 0.16328,0 0.23585,-0.127 0.23585,-0.29935 v -0.23586 c 0,-0.14514 -0.0363,-0.27214 -0.15421,-0.34471 l -0.13607,-0.0907 c -0.1905,-0.127 -0.39914,-0.35379 -0.39914,-0.87993 v -2.54 c 0,-0.52614 0.20864,-0.75293 0.39914,-0.87993 l 0.13607,-0.0907 c 0.11793,-0.0726 0.15421,-0.19957 0.15421,-0.34472 v -0.23585 c 0,-0.17236 -0.0726,-0.29936 -0.23585,-0.29936 h -0.0363 c -0.0998,0 -0.18143,0.0181 -0.254,0.0454 -1.07043,0.43543 -1.12486,1.25185 -1.12486,1.97757 v 2.19528 c 0,0.72572 0.0544,1.54215 1.12486,1.97758 0.0726,0.0272 0.15422,0.0453 0.254,0.0453 z m 1.37885,0 c 0.0998,0 0.18143,-0.0181 0.254,-0.0453 1.07043,-0.43543 1.12486,-1.25186 1.12486,-1.97758 v -2.19528 c 0,-0.72572 -0.0544,-1.54214 -1.12486,-1.97757 -0.0726,-0.0272 -0.15421,-0.0454 -0.254,-0.0454 h -0.0363 c -0.16329,0 -0.23586,0.127 -0.23586,0.29936 v 0.23585 c 0,0.14515 0.0363,0.27215 0.15422,0.34472 l 0.13607,0.0907 c 0.1905,0.127 0.39914,0.35379 0.39914,0.87993 v 2.54 c 0,0.52614 -0.20864,0.75293 -0.39914,0.87993 l -0.13607,0.0907 c -0.11793,0.0726 -0.15422,0.19957 -0.15422,0.34471 v 0.23586 c 0,0.17235 0.0726,0.29935 0.23586,0.29935 z"
         id="path1771" />
      <path
         d="m 162.90738,-253.08502 c 0.21772,0 0.30843,-0.0907 0.30843,-0.30843 v -5.55172 c 0,-0.21771 -0.0907,-0.30842 -0.30843,-0.30842 h -0.34471 c -0.21772,0 -0.30843,0.0907 -0.30843,0.30842 v 5.55172 c 0,0.21771 0.0907,0.30843 0.30843,0.30843 z m 1.74172,-2.40393 c 1.25185,0 1.81428,-0.70757 1.81428,-1.66914 v -0.42636 c 0,-0.96157 -0.56243,-1.66914 -1.81428,-1.66914 h -0.254 c -0.21772,0 -0.30843,0.0907 -0.30843,0.30842 v 0.27215 c 0,0.21771 0.0907,0.30843 0.30843,0.30843 h 0.254 c 0.45357,0 0.81642,0.27214 0.81642,0.78014 v 0.42636 c 0,0.508 -0.36285,0.78014 -0.81642,0.78014 h -0.254 c -0.21772,0 -0.30843,0.0907 -0.30843,0.30843 v 0.27214 c 0,0.21771 0.0907,0.30843 0.30843,0.30843 z"
         id="path1768" />
      <path
         d="m 170.43515,-253.04874 c 0.16328,0 0.23585,-0.127 0.23585,-0.29935 v -0.23586 c 0,-0.14514 -0.0363,-0.27214 -0.15421,-0.34471 l -0.13607,-0.0907 c -0.1905,-0.127 -0.39915,-0.35379 -0.39915,-0.87993 v -4.04586 c 0,-0.21771 -0.0907,-0.30842 -0.30842,-0.30842 h -0.34472 c -0.21771,0 -0.30843,0.0907 -0.30843,0.30842 v 3.8735 c 0,0.72572 0.0544,1.54215 1.12486,1.97758 0.0726,0.0272 0.15421,0.0453 0.254,0.0453 z m 1.37885,0 c 0.0998,0 0.18143,-0.0181 0.254,-0.0453 1.07043,-0.43543 1.12486,-1.25186 1.12486,-1.97758 v -3.8735 c 0,-0.21771 -0.0907,-0.30842 -0.30843,-0.30842 h -0.34471 c -0.21772,0 -0.30843,0.0907 -0.30843,0.30842 v 4.04586 c 0,0.52614 -0.20864,0.75293 -0.39914,0.87993 l -0.13608,0.0907 c -0.11792,0.0726 -0.15421,0.19957 -0.15421,0.34471 v 0.23586 c 0,0.17235 0.0726,0.29935 0.23586,0.29935 z"
         id="path1765" />
      <path
         d="m 176.43891,-253.08502 c 0.21772,0 0.30843,-0.0907 0.30843,-0.30843 v -5.55172 c 0,-0.21771 -0.0907,-0.30842 -0.30843,-0.30842 h -0.34471 c -0.21772,0 -0.30843,0.0907 -0.30843,0.30842 v 5.55172 c 0,0.21771 0.0907,0.30843 0.30843,0.30843 z m 3.21129,0 c 0.21771,0 0.30843,-0.0907 0.30843,-0.30843 v -0.27214 c 0,-0.21772 -0.0907,-0.30843 -0.30843,-0.30843 h -1.72357 c -0.21772,0 -0.30843,0.0907 -0.30843,0.30843 v 0.27214 c 0,0.21771 0.0907,0.30843 0.30843,0.30843 z"
         id="path1762" />
      <path
         d="m 183.96667,-253.04874 c 0.16329,0 0.23586,-0.127 0.23586,-0.29935 v -0.22679 c 0,-0.14514 -0.0363,-0.26307 -0.16328,-0.33564 l -0.18143,-0.10886 c -0.18143,-0.10886 -0.30843,-0.29029 -0.33565,-0.49893 -0.0272,-0.1905 -0.0998,-0.27214 -0.29028,-0.27214 h -0.40822 c -0.1905,0 -0.27214,0.0816 -0.27214,0.27214 0,0.62593 0.59872,1.46957 1.29722,1.46957 z m 1.44236,0 c 0.5715,0 1.35164,-0.68035 1.35164,-1.75078 0,-0.85272 -0.48985,-1.30629 -1.26092,-1.64193 l -1.37886,-0.59872 c -0.45357,-0.19957 -0.60779,-0.42635 -0.60779,-0.78921 0,-0.29936 0.14515,-0.42636 0.37193,-0.53521 l 0.15422,-0.0726 c 0.127,-0.0454 0.16328,-0.18142 0.16328,-0.32657 v -0.22678 c 0,-0.17236 -0.0635,-0.29029 -0.22678,-0.29936 h -0.0907 c -0.39914,0 -1.3335,0.39007 -1.3335,1.54214 0,0.83457 0.46264,1.27907 1.03414,1.524 l 1.47865,0.64407 c 0.49893,0.21772 0.73478,0.46265 0.73478,0.87086 0,0.35379 -0.18143,0.56243 -0.39914,0.70757 l -0.16329,0.10886 c -0.11792,0.0726 -0.16328,0.17236 -0.16328,0.3175 v 0.22679 c 0,0.17235 0.0726,0.29935 0.23586,0.29935 z m 1.04322,-4.46314 c 0.1905,0 0.27214,-0.0816 0.27214,-0.27214 0,-0.58057 -0.52614,-1.50586 -1.32443,-1.50586 h -0.0907 c -0.16329,0 -0.23586,0.127 -0.23586,0.29936 v 0.22678 c 0,0.14515 0.0272,0.28122 0.15421,0.34472 l 0.17236,0.0998 c 0.13607,0.0726 0.29936,0.28122 0.34471,0.53522 0.0363,0.1905 0.0998,0.27214 0.29029,0.27214 z"
         id="path1759" />
      <path
         d="m 191.57608,-253.08502 c 0.21772,0 0.30843,-0.0907 0.30843,-0.30843 v -5.55172 c 0,-0.21771 -0.0907,-0.30842 -0.30843,-0.30842 h -0.34471 c -0.21772,0 -0.30843,0.0907 -0.30843,0.30842 v 5.55172 c 0,0.21771 0.0907,0.30843 0.30843,0.30843 z"
         id="path1756" />
      <path
         d="m 197.4982,-253.04874 c 0.16329,0 0.23586,-0.127 0.23586,-0.29935 v -0.23586 c 0,-0.14514 -0.0363,-0.27214 -0.15421,-0.34471 l -0.13608,-0.0907 c -0.1905,-0.127 -0.39914,-0.35379 -0.39914,-0.87993 v -2.54 c 0,-0.52614 0.20864,-0.75293 0.39914,-0.87993 l 0.13608,-0.0907 c 0.11792,-0.0726 0.15421,-0.19957 0.15421,-0.34472 v -0.23585 c 0,-0.17236 -0.0726,-0.29936 -0.23586,-0.29936 h -0.0363 c -0.0998,0 -0.18143,0.0181 -0.254,0.0454 -1.07043,0.43543 -1.12486,1.25185 -1.12486,1.97757 v 2.19528 c 0,0.72572 0.0544,1.54215 1.12486,1.97758 0.0726,0.0272 0.15421,0.0453 0.254,0.0453 z m 1.37886,0 c 0.0998,0 0.18143,-0.0181 0.254,-0.0453 1.07043,-0.43543 1.12486,-1.25186 1.12486,-1.97758 v -2.19528 c 0,-0.72572 -0.0544,-1.54214 -1.12486,-1.97757 -0.0726,-0.0272 -0.15421,-0.0454 -0.254,-0.0454 h -0.0363 c -0.16328,0 -0.23585,0.127 -0.23585,0.29936 v 0.23585 c 0,0.14515 0.0363,0.27215 0.15421,0.34472 l 0.13607,0.0907 c 0.1905,0.127 0.39915,0.35379 0.39915,0.87993 v 2.54 c 0,0.52614 -0.20865,0.75293 -0.39915,0.87993 l -0.13607,0.0907 c -0.11793,0.0726 -0.15421,0.19957 -0.15421,0.34471 v 0.23586 c 0,0.17235 0.0726,0.29935 0.23585,0.29935 z"
         id="path1753" />
      <path
         d="m 203.50197,-253.08502 c 0.21771,0 0.30843,-0.0907 0.30843,-0.30843 v -1.86872 c 0,-0.11792 -0.0272,-0.19957 -0.0907,-0.29935 l -0.46264,-0.67129 c -0.0635,-0.0998 -0.14514,-0.13607 -0.21771,-0.13607 -0.0998,0 -0.1905,0.0907 -0.1905,0.254 v 2.72143 c 0,0.21771 0.0907,0.30843 0.30842,0.30843 z m 3.24757,0 c 0.1905,0 0.27214,-0.11793 0.27214,-0.30843 v -0.74386 c 0,-0.127 -0.0454,-0.19957 -0.16328,-0.254 l -0.0907,-0.0454 c -0.0998,-0.0454 -0.17235,-0.0998 -0.23585,-0.19957 l -2.88472,-4.39057 c -0.10886,-0.16328 -0.19957,-0.22678 -0.39007,-0.22678 h -0.13607 c -0.1905,0 -0.27214,0.11792 -0.27214,0.30842 v 0.74386 c 0,0.127 0.0454,0.19957 0.16328,0.254 l 0.10886,0.0544 c 0.0998,0.0454 0.17236,0.0998 0.23586,0.19957 l 2.87564,4.3815 c 0.10886,0.16329 0.19957,0.22679 0.39007,0.22679 z m -0.13607,-3.02986 c 0.0635,0.0998 0.14514,0.13607 0.21771,0.13607 0.0998,0 0.1905,-0.0907 0.1905,-0.254 v -2.71236 c 0,-0.21771 -0.0907,-0.30842 -0.30843,-0.30842 h -0.34471 c -0.21771,0 -0.30843,0.0907 -0.30843,0.30842 v 1.85965 c 0,0.11793 0.0272,0.19957 0.0907,0.29935 z"
         id="path1750" />
      <path
         d="m 217.7955,-253.04874 c 0.16328,0 0.23585,-0.127 0.23585,-0.29935 v -0.22679 c 0,-0.14514 -0.0363,-0.26307 -0.16328,-0.33564 l -0.18143,-0.10886 c -0.18143,-0.10886 -0.30843,-0.29029 -0.33564,-0.49893 -0.0272,-0.1905 -0.0998,-0.27214 -0.29029,-0.27214 h -0.40821 c -0.1905,0 -0.27215,0.0816 -0.27215,0.27214 0,0.62593 0.59872,1.46957 1.29722,1.46957 z m 1.44235,0 c 0.5715,0 1.35165,-0.68035 1.35165,-1.75078 0,-0.85272 -0.48986,-1.30629 -1.26093,-1.64193 l -1.37886,-0.59872 c -0.45357,-0.19957 -0.60778,-0.42635 -0.60778,-0.78921 0,-0.29936 0.14514,-0.42636 0.37192,-0.53521 l 0.15422,-0.0726 c 0.127,-0.0454 0.16328,-0.18142 0.16328,-0.32657 v -0.22678 c 0,-0.17236 -0.0635,-0.29029 -0.22678,-0.29936 h -0.0907 c -0.39914,0 -1.3335,0.39007 -1.3335,1.54214 0,0.83457 0.46265,1.27907 1.03415,1.524 l 1.47864,0.64407 c 0.49893,0.21772 0.73479,0.46265 0.73479,0.87086 0,0.35379 -0.18143,0.56243 -0.39915,0.70757 l -0.16328,0.10886 c -0.11793,0.0726 -0.16329,0.17236 -0.16329,0.3175 v 0.22679 c 0,0.17235 0.0726,0.29935 0.23586,0.29935 z m 1.04322,-4.46314 c 0.1905,0 0.27214,-0.0816 0.27214,-0.27214 0,-0.58057 -0.52614,-1.50586 -1.32443,-1.50586 h -0.0907 c -0.16329,0 -0.23586,0.127 -0.23586,0.29936 v 0.22678 c 0,0.14515 0.0272,0.28122 0.15422,0.34472 l 0.17235,0.0998 c 0.13607,0.0726 0.29936,0.28122 0.34472,0.53522 0.0363,0.1905 0.0998,0.27214 0.29028,0.27214 z"
         id="path1747" />
      <path
         d="m 223.79926,-253.08502 c 0.21771,0 0.30843,-0.0907 0.30843,-0.30843 v -2.05922 c 0,-0.1905 0.0816,-0.27214 0.27214,-0.27214 h 0.56243 c 0.21771,0 0.30843,-0.0907 0.30843,-0.30843 v -0.27214 c 0,-0.21771 -0.0907,-0.30843 -0.30843,-0.30843 h -0.56243 c -0.1905,0 -0.27214,-0.0816 -0.27214,-0.27214 v -2.05922 c 0,-0.21771 -0.0907,-0.30842 -0.30843,-0.30842 h -0.34472 c -0.21771,0 -0.30842,0.0907 -0.30842,0.30842 v 5.55172 c 0,0.21771 0.0907,0.30843 0.30842,0.30843 z m 2.70329,0 c 0.21771,0 0.30842,-0.0907 0.30842,-0.30843 v -0.27214 c 0,-0.21772 -0.0907,-0.30843 -0.30842,-0.30843 h -1.21558 c -0.21771,0 -0.30842,0.0907 -0.30842,0.30843 v 0.27214 c 0,0.21771 0.0907,0.30843 0.30842,0.30843 z m 0,-5.27957 c 0.21771,0 0.30842,-0.0907 0.30842,-0.30843 v -0.27215 c 0,-0.21771 -0.0907,-0.30842 -0.30842,-0.30842 h -1.21558 c -0.21771,0 -0.30842,0.0907 -0.30842,0.30842 v 0.27215 c 0,0.21771 0.0907,0.30843 0.30842,0.30843 z"
         id="path1744" />
      <path
         d="m 233.77631,-257.15809 c 0.21771,0 0.30843,-0.0907 0.30843,-0.30843 0,-0.52615 -0.11793,-1.41515 -1.12486,-1.778 -0.0726,-0.0272 -0.15422,-0.0454 -0.254,-0.0454 h -0.0363 c -0.16328,0 -0.23585,0.127 -0.23585,0.29936 v 0.23585 c 0,0.14515 0.0363,0.27215 0.15421,0.34472 l 0.13607,0.0907 c 0.1905,0.127 0.39914,0.35379 0.39914,0.85272 0,0.21771 0.0907,0.30843 0.30843,0.30843 z m -1.07043,4.10935 c 0.0998,0 0.18143,-0.0181 0.254,-0.0453 1.12486,-0.42636 1.12486,-1.4605 1.12486,-1.778 0,-0.21772 -0.0907,-0.30843 -0.30843,-0.30843 h -0.34472 c -0.21771,0 -0.30843,0.0907 -0.30843,0.30843 0,0.49892 -0.20864,0.72571 -0.39914,0.85271 l -0.13607,0.0907 c -0.11793,0.0726 -0.15421,0.19957 -0.15421,0.34471 v 0.23586 c 0,0.17235 0.0726,0.29935 0.23585,0.29935 z m -1.37886,0 c 0.16329,0 0.23586,-0.127 0.23586,-0.29935 v -0.23586 c 0,-0.14514 -0.0363,-0.27214 -0.15422,-0.34471 l -0.13607,-0.0907 c -0.1905,-0.127 -0.39914,-0.35379 -0.39914,-0.87993 v -2.54 c 0,-0.52614 0.20864,-0.75293 0.39914,-0.87993 l 0.13607,-0.0907 c 0.11793,-0.0726 0.15422,-0.19957 0.15422,-0.34472 v -0.23585 c 0,-0.17236 -0.0726,-0.29936 -0.23586,-0.29936 h -0.0363 c -0.0998,0 -0.18143,0.0181 -0.254,0.0454 -1.07043,0.43543 -1.12486,1.25185 -1.12486,1.97757 v 2.19528 c 0,0.72572 0.0544,1.54215 1.12486,1.97758 0.0726,0.0272 0.15421,0.0453 0.254,0.0453 z"
         id="path1741" />
      <path
         d="m 240.54208,-258.36459 c 0.21771,0 0.30843,-0.0907 0.30843,-0.30843 v -0.27215 c 0,-0.21771 -0.0907,-0.30842 -0.30843,-0.30842 h -3.556 c -0.21772,0 -0.30843,0.0907 -0.30843,0.30842 v 0.27215 c 0,0.21771 0.0907,0.30843 0.30843,0.30843 z m -1.60565,5.27957 c 0.21772,0 0.30843,-0.0907 0.30843,-0.30843 v -3.937 c 0,-0.21772 -0.0907,-0.30843 -0.30843,-0.30843 h -0.34471 c -0.21771,0 -0.30843,0.0907 -0.30843,0.30843 v 3.937 c 0,0.21771 0.0907,0.30843 0.30843,0.30843 z"
         id="path1738" />
      <path
         d="m 245.7022,-253.08502 c 0.21771,0 0.30843,-0.0907 0.30843,-0.30843 v -5.55172 c 0,-0.21771 -0.0907,-0.30842 -0.30843,-0.30842 h -0.34472 c -0.21771,0 -0.30843,0.0907 -0.30843,0.30842 v 5.55172 c 0,0.21771 0.0907,0.30843 0.30843,0.30843 z"
         id="path1735" />
      <path
         d="m 251.62432,-253.04874 c 0.16328,0 0.23585,-0.127 0.23585,-0.29935 v -0.23586 c 0,-0.14514 -0.0363,-0.27214 -0.15421,-0.34471 l -0.13607,-0.0907 c -0.1905,-0.127 -0.39915,-0.35379 -0.39915,-0.87993 v -2.54 c 0,-0.52614 0.20865,-0.75293 0.39915,-0.87993 l 0.13607,-0.0907 c 0.11793,-0.0726 0.15421,-0.19957 0.15421,-0.34472 v -0.23585 c 0,-0.17236 -0.0726,-0.29936 -0.23585,-0.29936 h -0.0363 c -0.0998,0 -0.18143,0.0181 -0.254,0.0454 -1.07043,0.43543 -1.12486,1.25185 -1.12486,1.97757 v 2.19528 c 0,0.72572 0.0544,1.54215 1.12486,1.97758 0.0726,0.0272 0.15421,0.0453 0.254,0.0453 z m 1.37885,0 c 0.0998,0 0.18143,-0.0181 0.254,-0.0453 1.07043,-0.43543 1.12486,-1.25186 1.12486,-1.97758 v -2.19528 c 0,-0.72572 -0.0544,-1.54214 -1.12486,-1.97757 -0.0726,-0.0272 -0.15421,-0.0454 -0.254,-0.0454 h -0.0363 c -0.16329,0 -0.23586,0.127 -0.23586,0.29936 v 0.23585 c 0,0.14515 0.0363,0.27215 0.15421,0.34472 l 0.13608,0.0907 c 0.1905,0.127 0.39914,0.35379 0.39914,0.87993 v 2.54 c 0,0.52614 -0.20864,0.75293 -0.39914,0.87993 l -0.13608,0.0907 c -0.11792,0.0726 -0.15421,0.19957 -0.15421,0.34471 v 0.23586 c 0,0.17235 0.0726,0.29935 0.23586,0.29935 z"
         id="path1732" />
      <path
         d="m 257.62809,-253.08502 c 0.21771,0 0.30842,-0.0907 0.30842,-0.30843 v -1.86872 c 0,-0.11792 -0.0272,-0.19957 -0.0907,-0.29935 l -0.46264,-0.67129 c -0.0635,-0.0998 -0.14515,-0.13607 -0.21772,-0.13607 -0.0998,0 -0.1905,0.0907 -0.1905,0.254 v 2.72143 c 0,0.21771 0.0907,0.30843 0.30843,0.30843 z m 3.24757,0 c 0.1905,0 0.27214,-0.11793 0.27214,-0.30843 v -0.74386 c 0,-0.127 -0.0454,-0.19957 -0.16328,-0.254 l -0.0907,-0.0454 c -0.0998,-0.0454 -0.17236,-0.0998 -0.23586,-0.19957 l -2.88471,-4.39057 c -0.10886,-0.16328 -0.19957,-0.22678 -0.39007,-0.22678 h -0.13607 c -0.1905,0 -0.27215,0.11792 -0.27215,0.30842 v 0.74386 c 0,0.127 0.0454,0.19957 0.16329,0.254 l 0.10886,0.0544 c 0.0998,0.0454 0.17235,0.0998 0.23585,0.19957 l 2.87565,4.3815 c 0.10885,0.16329 0.19957,0.22679 0.39007,0.22679 z m -0.13607,-3.02986 c 0.0635,0.0998 0.14514,0.13607 0.21771,0.13607 0.0998,0 0.1905,-0.0907 0.1905,-0.254 v -2.71236 c 0,-0.21771 -0.0907,-0.30842 -0.30843,-0.30842 h -0.34471 c -0.21772,0 -0.30843,0.0907 -0.30843,0.30842 v 1.85965 c 0,0.11793 0.0272,0.19957 0.0907,0.29935 z"
         id="path1729" />
      <path
         d="m 143.32673,-241.70945 c 0.16329,0 0.23586,-0.127 0.23586,-0.29936 v -0.26307 c 0,-0.14514 -0.0363,-0.27214 -0.15422,-0.34471 l -0.0907,-0.0635 c -0.1905,-0.127 -0.39914,-0.35379 -0.39914,-0.87993 v -2.54 c 0,-0.52614 0.20864,-0.75293 0.39914,-0.87993 l 0.0907,-0.0635 c 0.11793,-0.0726 0.15422,-0.23586 0.15422,-0.381 v -0.22679 c 0,-0.17235 -0.0726,-0.29935 -0.23586,-0.29935 h -0.0363 c -0.0998,0 -0.13608,0.0181 -0.20865,0.0454 -1.07043,0.43543 -1.12485,1.25186 -1.12485,1.97758 v 2.19528 c 0,0.72572 0.0544,1.54215 1.12485,1.97757 0.0726,0.0272 0.10886,0.0454 0.20865,0.0454 z m 1.46957,0 c 0.0998,0 0.13607,-0.0181 0.20865,-0.0454 1.07042,-0.43542 1.12485,-1.25185 1.12485,-1.97757 v -2.19528 c 0,-0.72572 -0.0544,-1.54215 -1.12485,-1.97758 -0.0726,-0.0272 -0.10886,-0.0454 -0.20865,-0.0454 H 144.76 c -0.16329,0 -0.23586,0.127 -0.23586,0.29935 v 0.26308 c 0,0.14514 0.0363,0.27214 0.15421,0.34471 l 0.0907,0.0635 c 0.1905,0.127 0.39914,0.35379 0.39914,0.87993 v 2.54 c 0,0.52614 -0.20864,0.75293 -0.39914,0.87993 l -0.0907,0.0635 c -0.11792,0.0726 -0.15421,0.19957 -0.15421,0.34471 v 0.26307 c 0,0.17236 0.0726,0.29936 0.23586,0.29936 z"
         id="path1726" />
      <path
         d="m 150.0925,-241.70945 c 0.16328,0 0.23585,-0.127 0.23585,-0.29936 v -0.26307 c 0,-0.14514 -0.0363,-0.27214 -0.15421,-0.34471 l -0.0907,-0.0635 c -0.1905,-0.127 -0.39914,-0.35379 -0.39914,-0.87993 v -2.54 c 0,-0.52614 0.20864,-0.75293 0.39914,-0.87993 l 0.0907,-0.0635 c 0.11793,-0.0726 0.15421,-0.23586 0.15421,-0.381 v -0.22679 c 0,-0.17235 -0.0726,-0.29935 -0.23585,-0.29935 h -0.0363 c -0.0998,0 -0.13607,0.0181 -0.20864,0.0454 -1.07043,0.43543 -1.12486,1.25186 -1.12486,1.97758 v 2.19528 c 0,0.72572 0.0544,1.54215 1.12486,1.97757 0.0726,0.0272 0.10885,0.0454 0.20864,0.0454 z m 1.46957,0 c 0.0998,0 0.13607,-0.0181 0.20864,-0.0454 1.07043,-0.43542 1.12486,-1.25185 1.12486,-1.97757 v -2.19528 c 0,-0.72572 -0.0544,-1.54215 -1.12486,-1.97758 -0.0726,-0.0272 -0.10886,-0.0454 -0.20864,-0.0454 h -0.0363 c -0.16328,0 -0.23586,0.127 -0.23586,0.29935 v 0.26308 c 0,0.14514 0.0363,0.27214 0.15422,0.34471 l 0.0907,0.0635 c 0.1905,0.127 0.39915,0.35379 0.39915,0.87993 v 2.54 c 0,0.52614 -0.20865,0.75293 -0.39915,0.87993 l -0.0907,0.0635 c -0.11793,0.0726 -0.15422,0.19957 -0.15422,0.34471 v 0.26307 c 0,0.17236 0.0726,0.29936 0.23586,0.29936 z"
         id="path1723" />
      <path
         d="m 158.75419,-241.74573 c 0.21771,0 0.30843,-0.0907 0.30843,-0.30843 v -1.19743 c 0,-0.127 0.0363,-0.21772 0.14514,-0.28122 l 0.16329,-0.0907 c 0.10885,-0.0635 0.14514,-0.16329 0.14514,-0.29029 v -0.18142 c 0,-0.127 -0.0363,-0.22679 -0.14514,-0.29029 l -0.16329,-0.0907 c -0.10886,-0.0635 -0.14514,-0.15422 -0.14514,-0.28122 v -2.84843 c 0,-0.21771 -0.0907,-0.30843 -0.30843,-0.30843 h -0.23586 c -0.1905,0 -0.32657,0.0454 -0.43543,0.19957 l -0.62593,0.762 c -0.14514,0.16329 -0.13607,0.36286 0.0272,0.48986 l 0.40821,0.3175 c 0.15422,0.11793 0.20865,0.26307 0.20865,0.45357 v 3.63765 c 0,0.21771 0.0907,0.30843 0.30842,0.30843 z m -1.83243,-1.75079 c 0.21771,0 0.30843,-0.0907 0.30843,-0.30843 v -0.30843 c 0,-0.0998 -0.0363,-0.20864 -0.16329,-0.23585 l -0.0998,-0.0181 c -0.14515,-0.0272 -0.16329,-0.0907 -0.16329,-0.1905 0,-0.0635 0.0363,-0.13607 0.10886,-0.22678 l 0.254,-0.3175 c 0.11793,-0.15422 0.11793,-0.26307 -0.0272,-0.39007 l -0.3175,-0.26308 c -0.14514,-0.127 -0.27214,-0.127 -0.39007,0.0182 l -1.00693,1.21557 c -0.0816,0.0998 -0.11792,0.22678 -0.11792,0.35378 v 0.36286 c 0,0.21772 0.0907,0.30843 0.30842,0.30843 z"
         id="path1720" />
      <path
         d="m 163.62402,-241.70945 c 0.16329,0 0.23586,-0.127 0.23586,-0.29936 v -0.26307 c 0,-0.14514 -0.0363,-0.27214 -0.15421,-0.34471 l -0.0907,-0.0635 c -0.1905,-0.127 -0.39914,-0.35379 -0.39914,-0.87993 v -2.54 c 0,-0.52614 0.20864,-0.75293 0.39914,-0.87993 l 0.0907,-0.0635 c 0.11793,-0.0726 0.15421,-0.23586 0.15421,-0.381 v -0.22679 c 0,-0.17235 -0.0726,-0.29935 -0.23586,-0.29935 h -0.0363 c -0.0998,0 -0.13607,0.0181 -0.20864,0.0454 -1.07043,0.43543 -1.12486,1.25186 -1.12486,1.97758 v 2.19528 c 0,0.72572 0.0544,1.54215 1.12486,1.97757 0.0726,0.0272 0.10885,0.0454 0.20864,0.0454 z m 1.46958,0 c 0.0998,0 0.13607,-0.0181 0.20864,-0.0454 1.07043,-0.43542 1.12486,-1.25185 1.12486,-1.97757 v -2.19528 c 0,-0.72572 -0.0544,-1.54215 -1.12486,-1.97758 -0.0726,-0.0272 -0.10886,-0.0454 -0.20864,-0.0454 h -0.0363 c -0.16329,0 -0.23586,0.127 -0.23586,0.29935 v 0.26308 c 0,0.14514 0.0363,0.27214 0.15422,0.34471 l 0.0907,0.0635 c 0.1905,0.127 0.39914,0.35379 0.39914,0.87993 v 2.54 c 0,0.52614 -0.20864,0.75293 -0.39914,0.87993 l -0.0907,0.0635 c -0.11793,0.0726 -0.15422,0.19957 -0.15422,0.34471 v 0.26307 c 0,0.17236 0.0726,0.29936 0.23586,0.29936 z"
         id="path1717" />
      <path
         d="m 171.71422,-242.58938 c -0.14515,-0.11793 -0.27215,-0.13607 -0.45357,-0.0907 -0.0544,0.009 -0.127,0.0181 -0.20865,0.0181 -0.48078,0 -0.97971,-0.29028 -1.05228,-0.83457 -0.0272,-0.21771 -0.127,-0.30843 -0.34472,-0.30843 h -0.32657 c -0.21771,0 -0.33564,0.0907 -0.30843,0.30843 0.0998,0.83457 0.67129,1.78707 2.06829,1.78707 0.32657,0 0.635,-0.0635 0.92528,-0.254 0.14515,-0.0998 0.14515,-0.26307 0,-0.37193 z m 0.90714,-0.49893 c 0.15421,0.11793 0.29936,0.0907 0.39007,-0.0726 0.0907,-0.16328 0.15422,-0.40821 0.15422,-0.68943 0,-0.79828 -0.48986,-1.8415 -1.68729,-2.00478 -0.21771,-0.0272 -0.33564,0.0272 -0.43543,0.21771 l -0.18143,0.33565 c -0.0907,0.16328 -0.0454,0.32657 0.17236,0.32657 0.72571,0 1.15207,0.52614 1.15207,1.143 0,0.0635 0,0.0998 -0.009,0.15421 -0.0272,0.15422 0.0181,0.24493 0.13607,0.34472 z m 0.29936,-4.71714 c -0.0454,-0.11793 -0.127,-0.16329 -0.21772,-0.16329 -0.0544,0 -0.65314,0.0544 -1.36071,0.0544 h -2.01386 c -0.21771,0 -0.30843,0.0907 -0.30843,0.30843 v 2.32229 c 0,0.21771 0.0907,0.30843 0.30843,0.30843 h 0.34472 c 0.21771,0 0.30842,-0.0907 0.30842,-0.30843 v -1.51493 c 0,-0.15422 0.0726,-0.22679 0.22679,-0.22679 h 0.94343 c 0.70757,0 1.31536,-0.0544 1.74171,-0.34471 0.127,-0.0907 0.14515,-0.19957 0.0907,-0.3175 z"
         id="path1714" />
      <path
         d="m 183.20467,-241.74573 c 0.21772,0 0.30843,-0.0907 0.30843,-0.30843 v -1.88686 c 0,-0.21771 0.0907,-0.33564 0.29936,-0.39914 l 0.17236,-0.0454 c 0.15421,-0.0454 0.21771,-0.13607 0.21771,-0.29029 v -0.30842 c 0,-0.15422 -0.0635,-0.24493 -0.21771,-0.29029 l -0.17236,-0.0454 c -0.20864,-0.0544 -0.29936,-0.17235 -0.29936,-0.39007 v -1.89593 c 0,-0.21771 -0.0907,-0.30843 -0.30843,-0.30843 h -0.34471 c -0.21771,0 -0.30843,0.0907 -0.30843,0.30843 v 5.55172 c 0,0.21771 0.0907,0.30843 0.30843,0.30843 z m 3.21129,0 c 0.21771,0 0.30843,-0.0907 0.30843,-0.30843 v -5.55172 c 0,-0.21771 -0.0907,-0.30843 -0.30843,-0.30843 h -0.34471 c -0.21772,0 -0.30843,0.0907 -0.30843,0.30843 v 1.89593 c 0,0.21772 -0.0907,0.33564 -0.29936,0.39007 l -0.17236,0.0454 c -0.15421,0.0454 -0.21771,0.13607 -0.21771,0.29029 v 0.30842 c 0,0.15422 0.0635,0.24493 0.21771,0.29029 l 0.17236,0.0454 c 0.20864,0.0635 0.29936,0.18143 0.29936,0.39914 v 1.88686 c 0,0.21771 0.0907,0.30843 0.30843,0.30843 z"
         id="path1711" />
      <path
         d="m 193.18173,-247.02531 c 0.21771,0 0.30842,-0.0907 0.30842,-0.30843 v -0.27214 c 0,-0.21771 -0.0907,-0.30843 -0.30842,-0.30843 h -3.556 c -0.21772,0 -0.30843,0.0907 -0.30843,0.30843 v 0.27214 c 0,0.21772 0.0907,0.30843 0.30843,0.30843 z m -1.60565,5.27958 c 0.21772,0 0.30843,-0.0907 0.30843,-0.30843 v -3.937 c 0,-0.21772 -0.0907,-0.30843 -0.30843,-0.30843 h -0.34471 c -0.21772,0 -0.30843,0.0907 -0.30843,0.30843 v 3.937 c 0,0.21771 0.0907,0.30843 0.30843,0.30843 z"
         id="path1708" />
      <path
         d="m 197.45285,-241.70945 c 0.16328,0 0.23585,-0.127 0.23585,-0.29936 v -0.26307 c 0,-0.14514 -0.0363,-0.27214 -0.15421,-0.34471 l -0.0907,-0.0635 c -0.1905,-0.127 -0.39914,-0.35379 -0.39914,-0.87993 v -2.54 c 0,-0.52614 0.20864,-0.75293 0.39914,-0.87993 l 0.0907,-0.0635 c 0.11793,-0.0726 0.15421,-0.23586 0.15421,-0.381 v -0.22679 c 0,-0.17235 -0.0726,-0.29935 -0.23585,-0.29935 h -0.0363 c -0.0998,0 -0.13607,0.0181 -0.20864,0.0454 -1.07043,0.43543 -1.12486,1.25186 -1.12486,1.97758 v 2.19528 c 0,0.72572 0.0544,1.54215 1.12486,1.97757 0.0726,0.0272 0.10885,0.0454 0.20864,0.0454 z m 1.46957,0 c 0.0998,0 0.13607,-0.0181 0.20864,-0.0454 1.07043,-0.43542 1.12486,-1.25185 1.12486,-1.97757 v -2.19528 c 0,-0.72572 -0.0544,-1.54215 -1.12486,-1.97758 -0.0726,-0.0272 -0.10886,-0.0454 -0.20864,-0.0454 h -0.0363 c -0.16328,0 -0.23586,0.127 -0.23586,0.29935 v 0.26308 c 0,0.14514 0.0363,0.27214 0.15422,0.34471 l 0.0907,0.0635 c 0.1905,0.127 0.39915,0.35379 0.39915,0.87993 v 2.54 c 0,0.52614 -0.20865,0.75293 -0.39915,0.87993 l -0.0907,0.0635 c -0.11793,0.0726 -0.15422,0.19957 -0.15422,0.34471 v 0.26307 c 0,0.17236 0.0726,0.29936 0.23586,0.29936 z"
         id="path1705" />
      <path
         d="m 204.21861,-241.70945 c 0.16329,0 0.23586,-0.127 0.23586,-0.29936 v -0.26307 c 0,-0.14514 -0.0363,-0.27214 -0.15422,-0.34471 l -0.0907,-0.0635 c -0.1905,-0.127 -0.39914,-0.35379 -0.39914,-0.87993 v -2.54 c 0,-0.52614 0.20864,-0.75293 0.39914,-0.87993 l 0.0907,-0.0635 c 0.11793,-0.0726 0.15422,-0.23586 0.15422,-0.381 v -0.22679 c 0,-0.17235 -0.0726,-0.29935 -0.23586,-0.29935 h -0.0363 c -0.0998,0 -0.13608,0.0181 -0.20865,0.0454 -1.07043,0.43543 -1.12485,1.25186 -1.12485,1.97758 v 2.19528 c 0,0.72572 0.0544,1.54215 1.12485,1.97757 0.0726,0.0272 0.10886,0.0454 0.20865,0.0454 z m 1.46957,0 c 0.0998,0 0.13607,-0.0181 0.20865,-0.0454 1.07042,-0.43542 1.12485,-1.25185 1.12485,-1.97757 v -2.19528 c 0,-0.72572 -0.0544,-1.54215 -1.12485,-1.97758 -0.0726,-0.0272 -0.10886,-0.0454 -0.20865,-0.0454 h -0.0363 c -0.16329,0 -0.23586,0.127 -0.23586,0.29935 v 0.26308 c 0,0.14514 0.0363,0.27214 0.15421,0.34471 l 0.0907,0.0635 c 0.1905,0.127 0.39914,0.35379 0.39914,0.87993 v 2.54 c 0,0.52614 -0.20864,0.75293 -0.39914,0.87993 l -0.0907,0.0635 c -0.11792,0.0726 -0.15421,0.19957 -0.15421,0.34471 v 0.26307 c 0,0.17236 0.0726,0.29936 0.23586,0.29936 z"
         id="path1702" />
      <path
         d="m 212.88031,-241.74573 c 0.21771,0 0.30842,-0.0907 0.30842,-0.30843 v -1.19743 c 0,-0.127 0.0363,-0.21772 0.14515,-0.28122 l 0.16328,-0.0907 c 0.10886,-0.0635 0.14515,-0.16329 0.14515,-0.29029 v -0.18142 c 0,-0.127 -0.0363,-0.22679 -0.14515,-0.29029 l -0.16328,-0.0907 c -0.10886,-0.0635 -0.14515,-0.15422 -0.14515,-0.28122 v -2.84843 c 0,-0.21771 -0.0907,-0.30843 -0.30842,-0.30843 h -0.23586 c -0.1905,0 -0.32657,0.0454 -0.43543,0.19957 l -0.62593,0.762 c -0.14514,0.16329 -0.13607,0.36286 0.0272,0.48986 l 0.40821,0.3175 c 0.15421,0.11793 0.20864,0.26307 0.20864,0.45357 v 3.63765 c 0,0.21771 0.0907,0.30843 0.30843,0.30843 z m -1.83243,-1.75079 c 0.21771,0 0.30843,-0.0907 0.30843,-0.30843 v -0.30843 c 0,-0.0998 -0.0363,-0.20864 -0.16329,-0.23585 l -0.0998,-0.0181 c -0.14514,-0.0272 -0.16328,-0.0907 -0.16328,-0.1905 0,-0.0635 0.0363,-0.13607 0.10886,-0.22678 l 0.254,-0.3175 c 0.11792,-0.15422 0.11792,-0.26307 -0.0272,-0.39007 l -0.3175,-0.26308 c -0.14514,-0.127 -0.27214,-0.127 -0.39007,0.0182 l -1.00693,1.21557 c -0.0816,0.0998 -0.11793,0.22678 -0.11793,0.35378 v 0.36286 c 0,0.21772 0.0907,0.30843 0.30843,0.30843 z"
         id="path1699" />
      <path
         d="m 217.75014,-241.70945 c 0.16329,0 0.23586,-0.127 0.23586,-0.29936 v -0.26307 c 0,-0.14514 -0.0363,-0.27214 -0.15422,-0.34471 l -0.0907,-0.0635 c -0.1905,-0.127 -0.39914,-0.35379 -0.39914,-0.87993 v -2.54 c 0,-0.52614 0.20864,-0.75293 0.39914,-0.87993 l 0.0907,-0.0635 c 0.11793,-0.0726 0.15422,-0.23586 0.15422,-0.381 v -0.22679 c 0,-0.17235 -0.0726,-0.29935 -0.23586,-0.29935 h -0.0363 c -0.0998,0 -0.13607,0.0181 -0.20864,0.0454 -1.07043,0.43543 -1.12486,1.25186 -1.12486,1.97758 v 2.19528 c 0,0.72572 0.0544,1.54215 1.12486,1.97757 0.0726,0.0272 0.10886,0.0454 0.20864,0.0454 z m 1.46957,0 c 0.0998,0 0.13607,-0.0181 0.20864,-0.0454 1.07043,-0.43542 1.12486,-1.25185 1.12486,-1.97757 v -2.19528 c 0,-0.72572 -0.0544,-1.54215 -1.12486,-1.97758 -0.0726,-0.0272 -0.10885,-0.0454 -0.20864,-0.0454 h -0.0363 c -0.16329,0 -0.23586,0.127 -0.23586,0.29935 v 0.26308 c 0,0.14514 0.0363,0.27214 0.15421,0.34471 l 0.0907,0.0635 c 0.1905,0.127 0.39914,0.35379 0.39914,0.87993 v 2.54 c 0,0.52614 -0.20864,0.75293 -0.39914,0.87993 l -0.0907,0.0635 c -0.11793,0.0726 -0.15421,0.19957 -0.15421,0.34471 v 0.26307 c 0,0.17236 0.0726,0.29936 0.23586,0.29936 z"
         id="path1696" />
      <path
         d="m 225.94012,-241.70945 c 0.0816,0 0.13607,-0.0181 0.20864,-0.0454 0.89807,-0.32657 1.12486,-1.10671 1.12486,-1.651 0,-0.55335 -0.22679,-1.3335 -1.12486,-1.66007 -0.0726,-0.0272 -0.15421,-0.0454 -0.20864,-0.0454 h -0.0363 c -0.16328,0 -0.23586,0.127 -0.23586,0.29935 v 0.26307 c 0,0.14515 0.0363,0.26308 0.15422,0.34472 l 0.0907,0.0635 c 0.1905,0.127 0.39915,0.37193 0.39915,0.73478 0,0.35379 -0.20865,0.59872 -0.39915,0.72572 l -0.0907,0.0635 c -0.11793,0.0816 -0.15422,0.19957 -0.15422,0.34471 v 0.26307 c 0,0.17236 0.0726,0.29936 0.23586,0.29936 z m 1.02507,-4.29078 c 0.21771,0 0.30843,-0.0907 0.30843,-0.30843 0,-0.254 -0.0544,-1.17022 -1.12486,-1.59658 -0.0726,-0.0272 -0.10886,-0.0454 -0.20864,-0.0454 h -0.0363 c -0.16328,0 -0.23586,0.127 -0.23586,0.29935 v 0.26308 c 0,0.14514 0.0363,0.26307 0.15422,0.34471 l 0.0907,0.0635 c 0.1905,0.127 0.36286,0.35379 0.39007,0.67129 0.0182,0.21771 0.0907,0.30843 0.30843,0.30843 z m -2.40393,4.29078 c 0.16328,0 0.23586,-0.127 0.23586,-0.29936 v -0.26307 c 0,-0.14514 -0.0363,-0.27214 -0.15422,-0.34471 l -0.0907,-0.0635 c -0.1905,-0.127 -0.39915,-0.35379 -0.39915,-0.87993 v -2.54 c 0,-0.52614 0.20865,-0.75293 0.39915,-0.87993 l 0.0907,-0.0635 c 0.11793,-0.0726 0.15422,-0.23586 0.15422,-0.381 v -0.22679 c 0,-0.17235 -0.0726,-0.29935 -0.23586,-0.29935 h -0.0363 c -0.0998,0 -0.13607,0.0181 -0.20864,0.0454 -1.07043,0.43543 -1.12486,1.25186 -1.12486,1.97758 v 2.19528 c 0,0.72572 0.0544,1.54215 1.12486,1.97757 0.0726,0.0272 0.10886,0.0454 0.20864,0.0454 z"
         id="path1693" />
      <path
         d="m 231.28166,-241.70945 c 0.16329,0 0.23586,-0.127 0.23586,-0.29936 v -0.26307 c 0,-0.14514 -0.0363,-0.27214 -0.15421,-0.34471 l -0.0907,-0.0635 c -0.1905,-0.127 -0.39914,-0.35379 -0.39914,-0.87993 v -2.54 c 0,-0.52614 0.20864,-0.75293 0.39914,-0.87993 l 0.0907,-0.0635 c 0.11793,-0.0726 0.15421,-0.23586 0.15421,-0.381 v -0.22679 c 0,-0.17235 -0.0726,-0.29935 -0.23586,-0.29935 h -0.0363 c -0.0998,0 -0.13607,0.0181 -0.20864,0.0454 -1.07043,0.43543 -1.12486,1.25186 -1.12486,1.97758 v 2.19528 c 0,0.72572 0.0544,1.54215 1.12486,1.97757 0.0726,0.0272 0.10885,0.0454 0.20864,0.0454 z m 1.46958,0 c 0.0998,0 0.13607,-0.0181 0.20864,-0.0454 1.07043,-0.43542 1.12486,-1.25185 1.12486,-1.97757 v -2.19528 c 0,-0.72572 -0.0544,-1.54215 -1.12486,-1.97758 -0.0726,-0.0272 -0.10886,-0.0454 -0.20864,-0.0454 h -0.0363 c -0.16329,0 -0.23586,0.127 -0.23586,0.29935 v 0.26308 c 0,0.14514 0.0363,0.27214 0.15422,0.34471 l 0.0907,0.0635 c 0.1905,0.127 0.39914,0.35379 0.39914,0.87993 v 2.54 c 0,0.52614 -0.20864,0.75293 -0.39914,0.87993 l -0.0907,0.0635 c -0.11793,0.0726 -0.15422,0.19957 -0.15422,0.34471 v 0.26307 c 0,0.17236 0.0726,0.29936 0.23586,0.29936 z"
         id="path1690" />
      <path
         d="m 240.45136,-244.38552 c 0.21772,0 0.30843,-0.0907 0.30843,-0.30843 v -0.27214 c 0,-0.21772 -0.0907,-0.30843 -0.30843,-0.30843 h -3.37457 c -0.21771,0 -0.30843,0.0907 -0.30843,0.30843 v 0.27214 c 0,0.21772 0.0907,0.30843 0.30843,0.30843 z"
         id="path1687" />
      <path
         d="m 245.83827,-241.74573 c 0.21771,0 0.30843,-0.0907 0.30843,-0.30843 v -5.55172 c 0,-0.21771 -0.0907,-0.30843 -0.30843,-0.30843 h -0.34472 c -0.21771,0 -0.33564,0.0816 -0.43542,0.28122 l -0.52615,1.08857 c -0.0363,0.0726 -0.0544,0.15421 -0.0544,0.21771 0,0.10886 0.0635,0.22679 0.1905,0.28122 l 0.24493,0.10886 c 0.19957,0.0816 0.27215,0.20864 0.27215,0.42635 v 3.45622 c 0,0.21771 0.0907,0.30843 0.30842,0.30843 z"
         id="path1684" />
      <path
         d="m 252.60403,-241.74573 c 0.21771,0 0.30843,-0.0907 0.30843,-0.30843 v -5.55172 c 0,-0.21771 -0.0907,-0.30843 -0.30843,-0.30843 h -0.34471 c -0.21772,0 -0.33565,0.0816 -0.43543,0.28122 l -0.52615,1.08857 c -0.0363,0.0726 -0.0544,0.15421 -0.0544,0.21771 0,0.10886 0.0635,0.22679 0.1905,0.28122 l 0.24492,0.10886 c 0.19958,0.0816 0.27215,0.20864 0.27215,0.42635 v 3.45622 c 0,0.21771 0.0907,0.30843 0.30843,0.30843 z"
         id="path1681" />
      <path
         d="m 144.18852,-233.67216 c 0.0635,-0.10886 0.0544,-0.21772 -0.009,-0.33564 l -1.27908,-2.36765 c -0.0726,-0.13607 -0.18142,-0.19957 -0.33564,-0.19957 h -0.29936 c -0.21771,0 -0.30842,0.0907 -0.30842,0.30843 v 0.77107 c 0,0.127 0.0544,0.1905 0.18142,0.19957 l 0.14515,0.0181 c 0.0726,0.009 0.127,0.0454 0.16328,0.10885 l 1.02507,1.86872 c 0.0635,0.10885 0.13608,0.1905 0.254,0.1905 0.10886,0 0.17236,-0.0816 0.24493,-0.19957 z m 1.63285,3.26571 c 0.21772,0 0.30843,-0.0907 0.30843,-0.30843 v -5.55171 c 0,-0.21771 -0.0907,-0.30843 -0.30843,-0.30843 h -0.29935 c -0.15422,0 -0.26307,0.0635 -0.33565,0.19957 l -0.49892,0.86179 c -0.0817,0.13607 -0.0817,0.26307 -0.009,0.39914 l 0.43543,0.85272 c 0.0363,0.0544 0.0544,0.13607 0.0544,0.19957 v 3.34735 c 0,0.21772 0.0907,0.30843 0.30843,0.30843 z m -3.21128,0 c 0.21771,0 0.30843,-0.0907 0.30843,-0.30843 v -1.651 c 0,-0.11792 -0.0272,-0.19957 -0.0907,-0.29935 l -0.46264,-0.67129 c -0.0635,-0.0998 -0.14514,-0.13607 -0.21771,-0.13607 -0.0998,0 -0.1905,0.0907 -0.1905,0.254 v 2.50371 c 0,0.21772 0.0907,0.30843 0.30842,0.30843 z"
         id="path1678" />
      <path
         d="m 149.37585,-230.40645 c 0.21772,0 0.30843,-0.0907 0.30843,-0.30843 v -2.05921 c 0,-0.1905 0.0816,-0.27214 0.27214,-0.27214 h 0.56243 c 0.21772,0 0.30843,-0.0907 0.30843,-0.30843 v -0.27214 c 0,-0.21772 -0.0907,-0.30843 -0.30843,-0.30843 h -0.56243 c -0.1905,0 -0.27214,-0.0816 -0.27214,-0.27215 v -2.05921 c 0,-0.21771 -0.0907,-0.30843 -0.30843,-0.30843 h -0.34471 c -0.21772,0 -0.30843,0.0907 -0.30843,0.30843 v 5.55171 c 0,0.21772 0.0907,0.30843 0.30843,0.30843 z m 3.21129,-5.27957 c 0.21771,0 0.30843,-0.0907 0.30843,-0.30843 v -0.27214 c 0,-0.21771 -0.0907,-0.30843 -0.30843,-0.30843 h -1.72357 c -0.21772,0 -0.30843,0.0907 -0.30843,0.30843 v 0.27214 c 0,0.21772 0.0907,0.30843 0.30843,0.30843 z"
         id="path1675" />
      <path
         d="m 158.28247,-230.37016 c 0.0998,0 0.18143,-0.0181 0.254,-0.0454 1.12486,-0.40821 1.12486,-1.60564 1.12486,-1.97757 v -0.84364 c 0,-0.21772 -0.0907,-0.30843 -0.30843,-0.30843 h -1.06135 c -0.21772,0 -0.30843,0.0907 -0.30843,0.30843 v 0.29028 c 0,0.21772 0.0907,0.29029 0.30843,0.29029 h 0.13607 c 0.17235,0 0.27214,0.0635 0.27214,0.22678 v 0.32658 c 0,0.32657 -0.14514,0.58964 -0.39914,0.762 l -0.13607,0.0907 c -0.11793,0.0726 -0.15422,0.19957 -0.15422,0.34471 v 0.23586 c 0,0.17236 0.0726,0.29936 0.23586,0.29936 z m -1.37885,0 c 0.16328,0 0.23585,-0.127 0.23585,-0.29936 v -0.23586 c 0,-0.14514 -0.0363,-0.27214 -0.15421,-0.34471 l -0.13607,-0.0907 c -0.1905,-0.127 -0.39914,-0.35379 -0.39914,-0.87993 v -2.54 c 0,-0.52615 0.20864,-0.75293 0.39914,-0.87993 l 0.13607,-0.0907 c 0.11793,-0.0726 0.15421,-0.19957 0.15421,-0.34471 v -0.23586 c 0,-0.17235 -0.0726,-0.29935 -0.23585,-0.29935 h -0.0363 c -0.0998,0 -0.18143,0.0181 -0.254,0.0454 -1.07043,0.43543 -1.12486,1.25186 -1.12486,1.97757 v 2.19529 c 0,0.72571 0.0544,1.54214 1.12486,1.97757 0.0726,0.0272 0.15422,0.0454 0.254,0.0454 z m 2.44928,-4.10936 c 0.21772,0 0.30843,-0.0907 0.30843,-0.30843 0,-0.52614 -0.11793,-1.41514 -1.12486,-1.778 -0.0726,-0.0272 -0.15421,-0.0454 -0.254,-0.0454 h -0.0363 c -0.16329,0 -0.23586,0.127 -0.23586,0.29935 v 0.23586 c 0,0.14514 0.0363,0.27214 0.15422,0.34471 l 0.13607,0.0907 c 0.1905,0.127 0.39914,0.35378 0.39914,0.85271 0,0.21772 0.0907,0.30843 0.30843,0.30843 z"
         id="path1672" />
      <path
         d="m 172.88443,-234.47952 c 0.21772,0 0.30843,-0.0907 0.30843,-0.30843 0,-0.52614 -0.11793,-1.41514 -1.12486,-1.778 -0.0726,-0.0272 -0.15421,-0.0454 -0.254,-0.0454 h -0.0363 c -0.16329,0 -0.23586,0.127 -0.23586,0.29935 v 0.23586 c 0,0.14514 0.0363,0.27214 0.15421,0.34471 l 0.13608,0.0907 c 0.1905,0.127 0.39914,0.35378 0.39914,0.85271 0,0.21772 0.0907,0.30843 0.30843,0.30843 z m -1.07043,4.10936 c 0.0998,0 0.18143,-0.0181 0.254,-0.0454 1.12486,-0.42636 1.12486,-1.4605 1.12486,-1.778 0,-0.21771 -0.0907,-0.30843 -0.30843,-0.30843 h -0.34471 c -0.21772,0 -0.30843,0.0907 -0.30843,0.30843 0,0.49893 -0.20864,0.72572 -0.39914,0.85272 l -0.13608,0.0907 c -0.11792,0.0726 -0.15421,0.19957 -0.15421,0.34471 v 0.23586 c 0,0.17236 0.0726,0.29936 0.23586,0.29936 z m -1.37885,0 c 0.16328,0 0.23585,-0.127 0.23585,-0.29936 v -0.23586 c 0,-0.14514 -0.0363,-0.27214 -0.15421,-0.34471 l -0.13607,-0.0907 c -0.1905,-0.127 -0.39915,-0.35379 -0.39915,-0.87993 v -2.54 c 0,-0.52615 0.20865,-0.75293 0.39915,-0.87993 l 0.13607,-0.0907 c 0.11793,-0.0726 0.15421,-0.19957 0.15421,-0.34471 v -0.23586 c 0,-0.17235 -0.0726,-0.29935 -0.23585,-0.29935 h -0.0363 c -0.0998,0 -0.18143,0.0181 -0.254,0.0454 -1.07043,0.43543 -1.12486,1.25186 -1.12486,1.97757 v 2.19529 c 0,0.72571 0.0544,1.54214 1.12486,1.97757 0.0726,0.0272 0.15421,0.0454 0.254,0.0454 z"
         id="path1669" />
      <path
         d="m 177.20091,-230.37016 c 0.16329,0 0.23586,-0.127 0.23586,-0.29936 v -0.23586 c 0,-0.14514 -0.0363,-0.27214 -0.15422,-0.34471 l -0.13607,-0.0907 c -0.1905,-0.127 -0.39914,-0.35379 -0.39914,-0.87993 v -2.54 c 0,-0.52615 0.20864,-0.75293 0.39914,-0.87993 l 0.13607,-0.0907 c 0.11793,-0.0726 0.15422,-0.19957 0.15422,-0.34471 v -0.23586 c 0,-0.17235 -0.0726,-0.29935 -0.23586,-0.29935 h -0.0363 c -0.0998,0 -0.18143,0.0181 -0.254,0.0454 -1.07043,0.43543 -1.12486,1.25186 -1.12486,1.97757 v 2.19529 c 0,0.72571 0.0544,1.54214 1.12486,1.97757 0.0726,0.0272 0.15421,0.0454 0.254,0.0454 z m 1.37886,0 c 0.0998,0 0.18143,-0.0181 0.254,-0.0454 1.07043,-0.43543 1.12486,-1.25186 1.12486,-1.97757 v -2.19529 c 0,-0.72571 -0.0544,-1.54214 -1.12486,-1.97757 -0.0726,-0.0272 -0.15422,-0.0454 -0.254,-0.0454 h -0.0363 c -0.16328,0 -0.23585,0.127 -0.23585,0.29935 v 0.23586 c 0,0.14514 0.0363,0.27214 0.15421,0.34471 l 0.13607,0.0907 c 0.1905,0.127 0.39914,0.35378 0.39914,0.87993 v 2.54 c 0,0.52614 -0.20864,0.75293 -0.39914,0.87993 l -0.13607,0.0907 c -0.11793,0.0726 -0.15421,0.19957 -0.15421,0.34471 v 0.23586 c 0,0.17236 0.0726,0.29936 0.23585,0.29936 z"
         id="path1666" />
      <path
         d="m 183.20467,-230.40645 c 0.21772,0 0.30843,-0.0907 0.30843,-0.30843 v -5.55171 c 0,-0.21771 -0.0907,-0.30843 -0.30843,-0.30843 h -0.34471 c -0.21771,0 -0.30843,0.0907 -0.30843,0.30843 v 5.55171 c 0,0.21772 0.0907,0.30843 0.30843,0.30843 z m 1.68729,0 c 0.67129,0 1.83243,-0.53521 1.83243,-2.10457 v -1.95943 c 0,-1.56935 -1.16114,-2.10457 -1.83243,-2.10457 h -0.22679 c -0.22678,0 -0.28121,0.13607 -0.28121,0.29936 v 0.24493 c 0,0.18143 0.0544,0.30843 0.28121,0.35378 l 0.29029,0.0635 c 0.58964,0.127 0.80736,0.58057 0.80736,1.23372 v 1.778 c 0,0.65314 -0.19957,1.10671 -0.80736,1.23371 l -0.29029,0.0635 c -0.22678,0.0454 -0.28121,0.17236 -0.28121,0.35379 v 0.24493 c 0,0.16328 0.0544,0.29935 0.28121,0.29935 z"
         id="path1663" />
      <path
         d="m 189.97044,-230.40645 c 0.21771,0 0.30843,-0.0907 0.30843,-0.30843 v -2.05921 c 0,-0.1905 0.0816,-0.27214 0.27214,-0.27214 h 0.56243 c 0.21771,0 0.30843,-0.0907 0.30843,-0.30843 v -0.27214 c 0,-0.21772 -0.0907,-0.30843 -0.30843,-0.30843 h -0.56243 c -0.1905,0 -0.27214,-0.0816 -0.27214,-0.27215 v -2.05921 c 0,-0.21771 -0.0907,-0.30843 -0.30843,-0.30843 h -0.34471 c -0.21772,0 -0.30843,0.0907 -0.30843,0.30843 v 5.55171 c 0,0.21772 0.0907,0.30843 0.30843,0.30843 z m 2.70329,0 c 0.21771,0 0.30842,-0.0907 0.30842,-0.30843 v -0.27214 c 0,-0.21771 -0.0907,-0.30843 -0.30842,-0.30843 h -1.21558 c -0.21771,0 -0.30842,0.0907 -0.30842,0.30843 v 0.27214 c 0,0.21772 0.0907,0.30843 0.30842,0.30843 z m 0,-5.27957 c 0.21771,0 0.30842,-0.0907 0.30842,-0.30843 v -0.27214 c 0,-0.21771 -0.0907,-0.30843 -0.30842,-0.30843 h -1.21558 c -0.21771,0 -0.30842,0.0907 -0.30842,0.30843 v 0.27214 c 0,0.21772 0.0907,0.30843 0.30842,0.30843 z"
         id="path1660" />
      <path
         d="m 205.10761,-230.40645 c 0.21772,0 0.30843,-0.0907 0.30843,-0.30843 v -5.55171 c 0,-0.21771 -0.0907,-0.30843 -0.30843,-0.30843 h -0.34471 c -0.21772,0 -0.30843,0.0907 -0.30843,0.30843 v 5.55171 c 0,0.21772 0.0907,0.30843 0.30843,0.30843 z"
         id="path1657" />
      <path
         d="m 210.26773,-230.40645 c 0.21772,0 0.30843,-0.0907 0.30843,-0.30843 v -5.55171 c 0,-0.21771 -0.0907,-0.30843 -0.30843,-0.30843 h -0.34471 c -0.21771,0 -0.30843,0.0907 -0.30843,0.30843 v 5.55171 c 0,0.21772 0.0907,0.30843 0.30843,0.30843 z m 1.68729,0 c 0.67129,0 1.83243,-0.53521 1.83243,-2.10457 v -1.95943 c 0,-1.56935 -1.16114,-2.10457 -1.83243,-2.10457 h -0.22679 c -0.22678,0 -0.28121,0.13607 -0.28121,0.29936 v 0.24493 c 0,0.18143 0.0544,0.30843 0.28121,0.35378 l 0.29029,0.0635 c 0.58964,0.127 0.80736,0.58057 0.80736,1.23372 v 1.778 c 0,0.65314 -0.19957,1.10671 -0.80736,1.23371 l -0.29029,0.0635 c -0.22678,0.0454 -0.28121,0.17236 -0.28121,0.35379 v 0.24493 c 0,0.16328 0.0544,0.29935 0.28121,0.29935 z"
         id="path1654" />
      <path
         d="m 217.0335,-230.40645 c 0.21771,0 0.30843,-0.0907 0.30843,-0.30843 v -2.05921 c 0,-0.1905 0.0816,-0.27214 0.27214,-0.27214 h 0.56243 c 0.21771,0 0.30843,-0.0907 0.30843,-0.30843 v -0.27214 c 0,-0.21772 -0.0907,-0.30843 -0.30843,-0.30843 h -0.56243 c -0.1905,0 -0.27214,-0.0816 -0.27214,-0.27215 v -2.05921 c 0,-0.21771 -0.0907,-0.30843 -0.30843,-0.30843 h -0.34472 c -0.21771,0 -0.30843,0.0907 -0.30843,0.30843 v 5.55171 c 0,0.21772 0.0907,0.30843 0.30843,0.30843 z m 2.70328,0 c 0.21772,0 0.30843,-0.0907 0.30843,-0.30843 v -0.27214 c 0,-0.21771 -0.0907,-0.30843 -0.30843,-0.30843 h -1.21557 c -0.21771,0 -0.30843,0.0907 -0.30843,0.30843 v 0.27214 c 0,0.21772 0.0907,0.30843 0.30843,0.30843 z m 0,-5.27957 c 0.21772,0 0.30843,-0.0907 0.30843,-0.30843 v -0.27214 c 0,-0.21771 -0.0907,-0.30843 -0.30843,-0.30843 h -1.21557 c -0.21771,0 -0.30843,0.0907 -0.30843,0.30843 v 0.27214 c 0,0.21772 0.0907,0.30843 0.30843,0.30843 z"
         id="path1651" />
      <path
         d="m 223.79926,-230.40645 c 0.21771,0 0.30843,-0.0907 0.30843,-0.30843 v -1.86871 c 0,-0.11793 -0.0272,-0.19957 -0.0907,-0.29936 l -0.46264,-0.67128 c -0.0635,-0.0998 -0.14514,-0.13607 -0.21771,-0.13607 -0.0998,0 -0.1905,0.0907 -0.1905,0.254 v 2.72142 c 0,0.21772 0.0907,0.30843 0.30842,0.30843 z m 3.24757,0 c 0.1905,0 0.27214,-0.11793 0.27214,-0.30843 v -0.74385 c 0,-0.127 -0.0454,-0.19957 -0.16328,-0.254 l -0.0907,-0.0454 c -0.0998,-0.0454 -0.17235,-0.0998 -0.23585,-0.19957 l -2.88472,-4.39057 c -0.10886,-0.16329 -0.19957,-0.22679 -0.39007,-0.22679 h -0.13607 c -0.1905,0 -0.27214,0.11793 -0.27214,0.30843 v 0.74386 c 0,0.127 0.0454,0.19957 0.16328,0.254 l 0.10886,0.0544 c 0.0998,0.0454 0.17236,0.0998 0.23586,0.19957 l 2.87564,4.3815 c 0.10886,0.16328 0.19957,0.22678 0.39007,0.22678 z m -0.13607,-3.02985 c 0.0635,0.0998 0.14514,0.13607 0.21771,0.13607 0.0998,0 0.1905,-0.0907 0.1905,-0.254 v -2.71236 c 0,-0.21771 -0.0907,-0.30843 -0.30842,-0.30843 h -0.34472 c -0.21771,0 -0.30843,0.0907 -0.30843,0.30843 v 1.85964 c 0,0.11793 0.0272,0.19957 0.0907,0.29936 z"
         id="path1648" />
      <path
         d="m 233.77631,-235.68602 c 0.21771,0 0.30843,-0.0907 0.30843,-0.30843 v -0.27214 c 0,-0.21771 -0.0907,-0.30843 -0.30843,-0.30843 h -3.556 c -0.21772,0 -0.30843,0.0907 -0.30843,0.30843 v 0.27214 c 0,0.21772 0.0907,0.30843 0.30843,0.30843 z m -1.60565,5.27957 c 0.21772,0 0.30843,-0.0907 0.30843,-0.30843 v -3.937 c 0,-0.21771 -0.0907,-0.30842 -0.30843,-0.30842 h -0.34471 c -0.21771,0 -0.30843,0.0907 -0.30843,0.30842 v 3.937 c 0,0.21772 0.0907,0.30843 0.30843,0.30843 z"
         id="path1645" />
      <path
         d="m 244.8132,-230.37016 c 0.16328,0 0.23585,-0.127 0.23585,-0.29936 v -0.26307 c 0,-0.14514 -0.0363,-0.27214 -0.15421,-0.34471 l -0.0907,-0.0635 c -0.1905,-0.127 -0.39915,-0.35379 -0.39915,-0.87993 v -2.54 c 0,-0.52615 0.20865,-0.75293 0.39915,-0.87993 l 0.0907,-0.0635 c 0.11793,-0.0726 0.15421,-0.23586 0.15421,-0.381 v -0.22679 c 0,-0.17235 -0.0726,-0.29935 -0.23585,-0.29935 h -0.0363 c -0.0998,0 -0.13607,0.0181 -0.20864,0.0454 -1.07043,0.43543 -1.12486,1.25186 -1.12486,1.97757 v 2.19529 c 0,0.72571 0.0544,1.54214 1.12486,1.97757 0.0726,0.0272 0.10886,0.0454 0.20864,0.0454 z m 1.46957,0 c 0.0998,0 0.13607,-0.0181 0.20864,-0.0454 1.07043,-0.43543 1.12486,-1.25186 1.12486,-1.97757 v -2.19529 c 0,-0.72571 -0.0544,-1.54214 -1.12486,-1.97757 -0.0726,-0.0272 -0.10886,-0.0454 -0.20864,-0.0454 h -0.0363 c -0.16328,0 -0.23585,0.127 -0.23585,0.29935 v 0.26307 c 0,0.14515 0.0363,0.27215 0.15421,0.34472 l 0.0907,0.0635 c 0.1905,0.127 0.39915,0.35378 0.39915,0.87993 v 2.54 c 0,0.52614 -0.20865,0.75293 -0.39915,0.87993 l -0.0907,0.0635 c -0.11793,0.0726 -0.15421,0.19957 -0.15421,0.34471 v 0.26307 c 0,0.17236 0.0726,0.29936 0.23585,0.29936 z"
         id="path1642" />
      <path
         d="m 251.57896,-230.37016 c 0.16328,0 0.23586,-0.127 0.23586,-0.29936 v -0.26307 c 0,-0.14514 -0.0363,-0.27214 -0.15422,-0.34471 l -0.0907,-0.0635 c -0.1905,-0.127 -0.39915,-0.35379 -0.39915,-0.87993 v -2.54 c 0,-0.52615 0.20865,-0.75293 0.39915,-0.87993 l 0.0907,-0.0635 c 0.11793,-0.0726 0.15422,-0.23586 0.15422,-0.381 v -0.22679 c 0,-0.17235 -0.0726,-0.29935 -0.23586,-0.29935 h -0.0363 c -0.0998,0 -0.13607,0.0181 -0.20864,0.0454 -1.07043,0.43543 -1.12486,1.25186 -1.12486,1.97757 v 2.19529 c 0,0.72571 0.0544,1.54214 1.12486,1.97757 0.0726,0.0272 0.10886,0.0454 0.20864,0.0454 z m 1.46957,0 c 0.0998,0 0.13607,-0.0181 0.20864,-0.0454 1.07043,-0.43543 1.12486,-1.25186 1.12486,-1.97757 v -2.19529 c 0,-0.72571 -0.0544,-1.54214 -1.12486,-1.97757 -0.0726,-0.0272 -0.10885,-0.0454 -0.20864,-0.0454 h -0.0363 c -0.16329,0 -0.23586,0.127 -0.23586,0.29935 v 0.26307 c 0,0.14515 0.0363,0.27215 0.15421,0.34472 l 0.0907,0.0635 c 0.1905,0.127 0.39914,0.35378 0.39914,0.87993 v 2.54 c 0,0.52614 -0.20864,0.75293 -0.39914,0.87993 l -0.0907,0.0635 c -0.11793,0.0726 -0.15421,0.19957 -0.15421,0.34471 v 0.26307 c 0,0.17236 0.0726,0.29936 0.23586,0.29936 z"
         id="path1639" />
      <path
         d="m 260.24066,-230.40645 c 0.21771,0 0.30843,-0.0907 0.30843,-0.30843 v -1.19742 c 0,-0.127 0.0363,-0.21772 0.14514,-0.28122 l 0.16329,-0.0907 c 0.10885,-0.0635 0.14514,-0.16329 0.14514,-0.29029 v -0.18143 c 0,-0.127 -0.0363,-0.22678 -0.14514,-0.29028 l -0.16329,-0.0907 c -0.10886,-0.0635 -0.14514,-0.15421 -0.14514,-0.28121 v -2.84843 c 0,-0.21771 -0.0907,-0.30843 -0.30843,-0.30843 h -0.23586 c -0.1905,0 -0.32657,0.0454 -0.43543,0.19957 l -0.62593,0.762 c -0.14514,0.16329 -0.13607,0.36286 0.0272,0.48986 l 0.40821,0.3175 c 0.15422,0.11793 0.20864,0.26307 0.20864,0.45357 v 3.63764 c 0,0.21772 0.0907,0.30843 0.30843,0.30843 z m -1.83243,-1.75078 c 0.21771,0 0.30843,-0.0907 0.30843,-0.30843 v -0.30843 c 0,-0.0998 -0.0363,-0.20864 -0.16329,-0.23586 l -0.0998,-0.0181 c -0.14515,-0.0272 -0.16329,-0.0907 -0.16329,-0.1905 0,-0.0635 0.0363,-0.13607 0.10886,-0.22679 l 0.254,-0.3175 c 0.11793,-0.15421 0.11793,-0.26307 -0.0272,-0.39007 l -0.3175,-0.26307 c -0.14514,-0.127 -0.27214,-0.127 -0.39007,0.0181 l -1.00693,1.21558 c -0.0816,0.0998 -0.11793,0.22678 -0.11793,0.35378 v 0.36286 c 0,0.21771 0.0907,0.30843 0.30843,0.30843 z"
         id="path1636" />
      <path
         d="m 265.11049,-230.37016 c 0.16329,0 0.23586,-0.127 0.23586,-0.29936 v -0.26307 c 0,-0.14514 -0.0363,-0.27214 -0.15422,-0.34471 l -0.0907,-0.0635 c -0.1905,-0.127 -0.39914,-0.35379 -0.39914,-0.87993 v -2.54 c 0,-0.52615 0.20864,-0.75293 0.39914,-0.87993 l 0.0907,-0.0635 c 0.11793,-0.0726 0.15422,-0.23586 0.15422,-0.381 v -0.22679 c 0,-0.17235 -0.0726,-0.29935 -0.23586,-0.29935 h -0.0363 c -0.0998,0 -0.13608,0.0181 -0.20865,0.0454 -1.07043,0.43543 -1.12485,1.25186 -1.12485,1.97757 v 2.19529 c 0,0.72571 0.0544,1.54214 1.12485,1.97757 0.0726,0.0272 0.10886,0.0454 0.20865,0.0454 z m 1.46957,0 c 0.0998,0 0.13607,-0.0181 0.20865,-0.0454 1.07042,-0.43543 1.12485,-1.25186 1.12485,-1.97757 v -2.19529 c 0,-0.72571 -0.0544,-1.54214 -1.12485,-1.97757 -0.0726,-0.0272 -0.10886,-0.0454 -0.20865,-0.0454 h -0.0363 c -0.16329,0 -0.23586,0.127 -0.23586,0.29935 v 0.26307 c 0,0.14515 0.0363,0.27215 0.15421,0.34472 l 0.0907,0.0635 c 0.1905,0.127 0.39914,0.35378 0.39914,0.87993 v 2.54 c 0,0.52614 -0.20864,0.75293 -0.39914,0.87993 l -0.0907,0.0635 c -0.11792,0.0726 -0.15421,0.19957 -0.15421,0.34471 v 0.26307 c 0,0.17236 0.0726,0.29936 0.23586,0.29936 z"
         id="path1633" />
      <path
         d="m 273.20069,-231.25009 c -0.14514,-0.11793 -0.27214,-0.13607 -0.45357,-0.0907 -0.0544,0.009 -0.127,0.0181 -0.20864,0.0181 -0.48079,0 -0.97972,-0.29029 -1.05229,-0.83457 -0.0272,-0.21772 -0.127,-0.30843 -0.34471,-0.30843 h -0.32658 c -0.21771,0 -0.33564,0.0907 -0.30842,0.30843 0.0998,0.83457 0.67128,1.78707 2.06828,1.78707 0.32657,0 0.635,-0.0635 0.92529,-0.254 0.14514,-0.0998 0.14514,-0.26307 0,-0.37193 z m 0.90714,-0.49893 c 0.15422,0.11793 0.29936,0.0907 0.39007,-0.0726 0.0907,-0.16329 0.15422,-0.40821 0.15422,-0.68943 0,-0.79828 -0.48986,-1.8415 -1.68729,-2.00478 -0.21771,-0.0272 -0.33564,0.0272 -0.43543,0.21771 l -0.18142,0.33564 c -0.0907,0.16329 -0.0454,0.32657 0.17235,0.32657 0.72572,0 1.15207,0.52615 1.15207,1.143 0,0.0635 0,0.0998 -0.009,0.15422 -0.0272,0.15421 0.0182,0.24493 0.13607,0.34471 z m 0.29936,-4.71714 c -0.0454,-0.11793 -0.127,-0.16329 -0.21771,-0.16329 -0.0544,0 -0.65315,0.0544 -1.36072,0.0544 h -2.01386 c -0.21771,0 -0.30842,0.0907 -0.30842,0.30843 v 2.32229 c 0,0.21771 0.0907,0.30842 0.30842,0.30842 h 0.34472 c 0.21771,0 0.30843,-0.0907 0.30843,-0.30842 v -1.51493 c 0,-0.15422 0.0726,-0.22679 0.22678,-0.22679 h 0.94343 c 0.70757,0 1.31536,-0.0544 1.74172,-0.34471 0.127,-0.0907 0.14514,-0.19957 0.0907,-0.3175 z"
         id="path1630" />
    </g>
  </g>
</svg>
