<?xml version="1.0" encoding="UTF-8" standalone="no"?>
<!-- Created with Inkscape (http://www.inkscape.org/) -->

<svg
   width="81.464592mm"
   height="12.600019mm"
   viewBox="0 0 81.464592 12.600019"
   version="1.1"
   id="svg5"
   inkscape:version="1.2.1 (9c6d41e, 2022-07-14)"
   sodipodi:docname="phoenix.svg"
   xmlns:inkscape="http://www.inkscape.org/namespaces/inkscape"
   xmlns:sodipodi="http://sodipodi.sourceforge.net/DTD/sodipodi-0.dtd"
   xmlns="http://www.w3.org/2000/svg"
   xmlns:svg="http://www.w3.org/2000/svg">
  <sodipodi:namedview
     id="namedview7"
     pagecolor="#ffffff"
     bordercolor="#666666"
     borderopacity="1.0"
     inkscape:showpageshadow="2"
     inkscape:pageopacity="0.0"
     inkscape:pagecheckerboard="0"
     inkscape:deskcolor="#d1d1d1"
     inkscape:document-units="mm"
     showgrid="false"
     inkscape:zoom="1.0289025"
     inkscape:cx="353.28905"
     inkscape:cy="406.74407"
     inkscape:window-width="1720"
     inkscape:window-height="1313"
     inkscape:window-x="0"
     inkscape:window-y="25"
     inkscape:window-maximized="0"
     inkscape:current-layer="layer1" />
  <defs
     id="defs2" />
  <g
     inkscape:label="Layer 1"
     inkscape:groupmode="layer"
     id="layer1"
     transform="translate(-9.6327355,-4.724222)">
    <g
       aria-label="AIM-54A"
       id="text236"
       style="font-size:18.2609px;line-height:1.25;font-family:'Helvetica Neue';-inkscape-font-specification:'Helvetica Neue, Normal';letter-spacing:1.1413px;stroke-width:0.285326">
      <path
         d="m 17.961167,17.2512 c 0.438261,0 0.639131,-0.20087 0.511305,-0.620871 L 15.002901,5.4363971 C 14.875074,5.0163964 14.637683,4.8337874 14.199421,4.8337874 H 13.98029 c -0.438261,0 -0.693914,0.182609 -0.82174,0.6026097 l -0.620871,2.0086991 c -0.127826,0.4200007 0.03652,0.6391315 0.383479,0.8217405 l 0.20087,0.091304 c 0.80348,0.4017398 1.077393,1.0043495 1.351307,1.8808733 l 1.972177,6.391314 c 0.127826,0.420001 0.365218,0.620872 0.803479,0.620872 z m -4.8574,-2.209569 c 0.639132,0 0.493044,-0.693914 0.420001,-0.931306 l -1.022611,-3.286962 c -0.109565,-0.328696 -0.273913,-0.474784 -0.511305,-0.474784 -0.20087,0 -0.40174,0.146088 -0.511305,0.474784 L 9.6707178,16.630329 C 9.5428915,17.05033 9.7437614,17.2512 10.182023,17.2512 h 0.693914 c 0.438262,0 0.693914,-0.20087 0.80348,-0.620871 l 0.346957,-1.241741 c 0.05478,-0.219131 0.182609,-0.328696 0.420001,-0.346957 z"
         style="font-weight:bold;font-stretch:semi-expanded;font-family:'Vtg Stencil Marsh';-inkscape-font-specification:'Vtg Stencil Marsh, Semi-Expanded'"
         id="path3716" />
      <path
         d="m 26.516365,17.2512 c 0.438261,0 0.62087,-0.182609 0.62087,-0.620871 V 5.454658 c 0,-0.4382616 -0.182609,-0.6208706 -0.62087,-0.6208706 H 25.82245 c -0.438261,0 -0.62087,0.182609 -0.62087,0.6208706 v 11.175671 c 0,0.438262 0.182609,0.620871 0.62087,0.620871 z"
         style="font-weight:bold;font-stretch:semi-expanded;font-family:'Vtg Stencil Marsh';-inkscape-font-specification:'Vtg Stencil Marsh, Semi-Expanded'"
         id="path3713" />
      <path
         d="m 38.559395,10.677276 c 0.127826,-0.219131 0.109565,-0.438262 -0.01826,-0.675654 L 35.966347,5.2355272 C 35.820259,4.9616137 35.601129,4.8337874 35.290693,4.8337874 h -0.602609 c -0.438262,0 -0.620871,0.182609 -0.620871,0.6208706 v 1.5521765 c 0,0.2556527 0.109565,0.383479 0.365218,0.4017399 l 0.292174,0.036522 c 0.146088,0.018261 0.255653,0.091304 0.328697,0.2191308 l 2.063481,3.7617448 c 0.127827,0.219131 0.273914,0.383479 0.511306,0.383479 0.21913,0 0.346957,-0.164348 0.493044,-0.401739 z m 3.286962,6.573924 c 0.438261,0 0.62087,-0.182609 0.62087,-0.620871 V 5.454658 c 0,-0.4382616 -0.182609,-0.6208706 -0.62087,-0.6208706 h -0.60261 c -0.310435,0 -0.529566,0.1278263 -0.675653,0.4017398 l -1.00435,1.7347855 c -0.164348,0.2739135 -0.164348,0.5295662 -0.01826,0.8034797 l 0.876523,1.7165246 c 0.07304,0.1095654 0.109566,0.2739135 0.109566,0.4017398 v 6.7382722 c 0,0.438262 0.182609,0.620871 0.62087,0.620871 z m -6.464359,0 c 0.438261,0 0.62087,-0.182609 0.62087,-0.620871 v -3.323484 c 0,-0.237391 -0.05478,-0.40174 -0.182609,-0.60261 l -0.931305,-1.351306 c -0.127827,-0.20087 -0.292175,-0.273914 -0.438262,-0.273914 -0.20087,0 -0.383479,0.182609 -0.383479,0.511306 v 5.040008 c 0,0.438262 0.182609,0.620871 0.620871,0.620871 z"
         style="font-weight:bold;font-stretch:semi-expanded;font-family:'Vtg Stencil Marsh';-inkscape-font-specification:'Vtg Stencil Marsh, Semi-Expanded'"
         id="path3710" />
      <path
         d="m 53.76156,11.937278 c 0.438262,0 0.620871,-0.182609 0.620871,-0.620871 V 10.76858 c 0,-0.438262 -0.182609,-0.620871 -0.620871,-0.620871 h -6.793055 c -0.438261,0 -0.62087,0.182609 -0.62087,0.620871 v 0.547827 c 0,0.438262 0.182609,0.620871 0.62087,0.620871 z"
         style="font-weight:bold;font-stretch:semi-expanded;font-family:'Vtg Stencil Marsh';-inkscape-font-specification:'Vtg Stencil Marsh, Semi-Expanded'"
         id="path3707" />
      <path
         d="m 63.686326,15.552936 c -0.292175,-0.237392 -0.547827,-0.273914 -0.913045,-0.182609 -0.109566,0.01826 -0.255653,0.03652 -0.420001,0.03652 -0.967828,0 -1.972177,-0.584349 -2.118264,-1.680003 -0.05478,-0.438262 -0.255653,-0.620871 -0.693915,-0.620871 h -0.657392 c -0.438262,0 -0.675653,0.182609 -0.620871,0.620871 0.20087,1.680003 1.351307,3.597397 4.163486,3.597397 0.657392,0 1.278263,-0.127826 1.862611,-0.511305 0.292175,-0.20087 0.292175,-0.529566 0,-0.748697 z m 1.82609,-1.00435 c 0.310435,0.237392 0.60261,0.182609 0.785219,-0.146087 0.182609,-0.328696 0.310435,-0.82174 0.310435,-1.387828 0,-1.606959 -0.986089,-3.706963 -3.396528,-4.0356592 -0.438261,-0.054783 -0.675653,0.054783 -0.876523,0.4382616 l -0.365218,0.6756536 c -0.182609,0.328696 -0.0913,0.657392 0.346957,0.657392 1.460872,0 2.319135,1.059132 2.319135,2.300874 0,0.127826 0,0.20087 -0.01826,0.310435 -0.05478,0.310435 0.03652,0.493044 0.273913,0.693914 z m 0.60261,-9.4956678 C 66.023721,4.8155265 65.859373,4.724222 65.676764,4.724222 c -0.109565,0 -1.314785,0.1095654 -2.739135,0.1095654 h -4.05392 c -0.438262,0 -0.620871,0.182609 -0.620871,0.6208706 v 4.674791 c 0,0.438261 0.182609,0.62087 0.620871,0.62087 h 0.693914 c 0.438262,0 0.620871,-0.182609 0.620871,-0.62087 V 7.0798781 c 0,-0.3104353 0.146087,-0.4565225 0.456522,-0.4565225 h 1.899134 c 1.42435,0 2.64783,-0.1095654 3.506093,-0.6939142 0.255652,-0.182609 0.292174,-0.4017398 0.182609,-0.6391315 z"
         style="font-weight:bold;font-stretch:semi-expanded;font-family:'Vtg Stencil Marsh';-inkscape-font-specification:'Vtg Stencil Marsh, Semi-Expanded'"
         id="path3704" />
      <path
         d="m 76.934575,17.2512 c 0.438262,0 0.620871,-0.182609 0.620871,-0.620871 V 14.21989 c 0,-0.255652 0.07304,-0.438261 0.292174,-0.566088 l 0.328696,-0.182609 c 0.219131,-0.127826 0.292175,-0.328696 0.292175,-0.584348 v -0.365219 c 0,-0.255652 -0.07304,-0.456522 -0.292175,-0.584348 L 77.84762,11.754669 C 77.628489,11.626842 77.555446,11.444233 77.555446,11.188581 V 5.454658 c 0,-0.4382616 -0.182609,-0.6208706 -0.620871,-0.6208706 h -0.474783 c -0.383479,0 -0.657393,0.091304 -0.876523,0.4017398 l -1.260003,1.5339156 c -0.292174,0.3286962 -0.273913,0.7304361 0.05478,0.9860887 L 75.19979,8.394663 c 0.310435,0.2373917 0.42,0.5295661 0.42,0.913045 v 7.322621 c 0,0.438262 0.182609,0.620871 0.620871,0.620871 z m -3.688702,-3.524354 c 0.438262,0 0.620871,-0.182609 0.620871,-0.620871 v -0.62087 c 0,-0.20087 -0.07304,-0.420001 -0.328696,-0.474784 l -0.20087,-0.03652 c -0.292175,-0.05478 -0.328696,-0.182609 -0.328696,-0.383478 0,-0.127827 0.07304,-0.273914 0.21913,-0.456523 l 0.511306,-0.639131 c 0.237391,-0.310436 0.237391,-0.5295666 -0.05478,-0.7852192 L 73.045003,9.1798817 C 72.752829,8.9242291 72.497176,8.9242291 72.259785,9.2164035 l -2.02696,2.4469605 c -0.164348,0.20087 -0.237392,0.456523 -0.237392,0.712175 v 0.730436 c 0,0.438262 0.182609,0.620871 0.620871,0.620871 z"
         style="font-weight:bold;font-stretch:semi-expanded;font-family:'Vtg Stencil Marsh';-inkscape-font-specification:'Vtg Stencil Marsh, Semi-Expanded'"
         id="path3701" />
      <path
         d="m 90.548043,17.2512 c 0.438261,0 0.639131,-0.20087 0.511305,-0.620871 L 87.589777,5.4363971 C 87.46195,5.0163964 87.224559,4.8337874 86.786297,4.8337874 h -0.219131 c -0.438261,0 -0.693914,0.182609 -0.82174,0.6026097 l -0.620871,2.0086991 c -0.127826,0.4200007 0.03652,0.6391315 0.383479,0.8217405 l 0.20087,0.091304 c 0.80348,0.4017398 1.077393,1.0043495 1.351307,1.8808733 l 1.972177,6.391314 c 0.127826,0.420001 0.365218,0.620872 0.803479,0.620872 z m -4.8574,-2.209569 c 0.639132,0 0.493044,-0.693914 0.420001,-0.931306 l -1.022611,-3.286962 c -0.109565,-0.328696 -0.273913,-0.474784 -0.511305,-0.474784 -0.20087,0 -0.40174,0.146088 -0.511305,0.474784 l -1.807829,5.806966 c -0.127827,0.420001 0.07304,0.620871 0.511305,0.620871 h 0.693914 c 0.438262,0 0.693914,-0.20087 0.80348,-0.620871 l 0.346957,-1.241741 c 0.05478,-0.219131 0.182609,-0.328696 0.420001,-0.346957 z"
         style="font-weight:bold;font-stretch:semi-expanded;font-family:'Vtg Stencil Marsh';-inkscape-font-specification:'Vtg Stencil Marsh, Semi-Expanded'"
         id="path3698" />
    </g>
  </g>
</svg>
