<?xml version="1.0" encoding="utf-8"?>
<!-- Generator: Fusion 360, Shaper Origin Export Add-In, Version 1.8.0  -->
<svg xmlns="http://www.w3.org/2000/svg" xmlns:xlink="http://www.w3.org/1999/xlink" xmlns:shaper="http://www.shapertools.com/namespaces/shaper" shaper:fusionaddin="version:1.8.0" width="7.575cm" height="7.575cm" version="1.1" x="0cm" y="0cm" viewBox="0 0 7.575 7.575" enable-background="new 0 0 7.575 7.575" xml:space="preserve"><path d="M-2.01875,0 a3.7875,3.7875 0 1,1 7.575,0 a3.7875,3.7875 0 1,1 -7.575,0z" transform="matrix(1,0,0,-1,2.01875,3.7875)" fill="rgb(0,0,0)" stroke-linecap="round" stroke-linejoin="round" /><path d="M2.59375,-1.6 a0.175,0.175 0 1,1 0.35,0 a0.175,0.175 0 1,1 -0.35,0z" transform="matrix(1,0,0,-1,2.01875,3.7875)" fill="rgb(255,255,255)" stroke="rgb(0,0,0)" stroke-width="0.0010cm" stroke-linecap="round" stroke-linejoin="round" /><path d="M0.39375,-1.6 a0.175,0.175 0 1,1 0.35,0 a0.175,0.175 0 1,1 -0.35,0z" transform="matrix(1,0,0,-1,2.01875,3.7875)" fill="rgb(255,255,255)" stroke="rgb(0,0,0)" stroke-width="0.0010cm" stroke-linecap="round" stroke-linejoin="round" /><path d="M1.51875,0 a0.25,0.25 0 1,1 0.5,0 a0.25,0.25 0 1,1 -0.5,0z" transform="matrix(1,0,0,-1,2.01875,3.7875)" fill="rgb(255,255,255)" stroke="rgb(0,0,0)" stroke-width="0.0010cm" stroke-linecap="round" stroke-linejoin="round" /></svg>