<?xml version="1.0" encoding="utf-8"?>
<!-- Generator: Fusion 360, Shaper Origin Export Add-In, Version 1.8.0  -->
<svg xmlns="http://www.w3.org/2000/svg" xmlns:xlink="http://www.w3.org/1999/xlink" xmlns:shaper="http://www.shapertools.com/namespaces/shaper" shaper:fusionaddin="version:1.8.0" width="7.610519cm" height="7.610519cm" version="1.1" x="0cm" y="0cm" viewBox="0 0 7.610519 7.610519" enable-background="new 0 0 7.610519 7.610519" xml:space="preserve"><path d="M0.19,-5.4197643 L0.19,-6.2970143 A3.81,3.81 272.8584555 0,1 3.8052595,-2.6817548 L2.9280095,-2.6817548 2.9280095,-2.3017548 3.8052595,-2.3017548 A3.81,3.81 2.8584555 0,1 0.19,1.3135048 L0.19,0.4362548 -0.19,0.4362548 -0.19,1.3135048 A3.81,3.81 92.8584555 0,1 -3.8052595,-2.3017548 L-2.9280095,-2.3017548 -2.9280095,-2.6817548 -3.8052595,-2.6817548 A3.81,3.81 182.8584555 0,1 -0.19,-6.2970143 L-0.19,-5.4197643 0.19,-5.4197643z" transform="matrix(1,0,0,-1,3.8052595,1.3135048)" fill="rgb(0,0,0)" shaper:cutDepth="0.38cm" stroke-linecap="round" stroke-linejoin="round" /><path d="M-2.0555,-2.4917548 a2.0555,2.0555 0 1,1 4.111,0 a2.0555,2.0555 0 1,1 -4.111,0z" transform="matrix(1,0,0,-1,3.8052595,1.3135048)" fill="rgb(255,255,255)" stroke="rgb(0,0,0)" stroke-width="0.0010cm" stroke-linecap="round" stroke-linejoin="round" shaper:cutDepth="0.38cm" /></svg>