<svg xmlns="http://www.w3.org/2000/svg" xmlns:gf="http://glowforge.com/namespaces/gf" xmlns:xlink="http://www.w3.org/1999/xlink" width="20in" height="19.708333333333332in" viewBox="0 0 1920 1892"><gf:laserdefs><gf:laserdef class="l55f8e12c-7e7d-4baa-ab56-b7ee00a8eb90" order="0" type="cut" power="100" speed="587.5" passes="3" corner="50" materialid="UNKNOWN" settingid="cut::HEAT:6244432474537984::MANUAL_SETTING"></gf:laserdef><gf:laserdef class="lbc130b75-3f45-46e7-b1a6-ec4bae2f4142" order="0" type="cut" power="100" speed="587.5" passes="3" corner="50" materialid="UNKNOWN" settingid="cut::HEAT:6244432474537984::MANUAL_SETTING"></gf:laserdef><gf:laserdef class="lf0db29fa-b7f3-44ac-86eb-13ebc22e44f8" order="1" type="cut" power="100" speed="587.5" passes="3" corner="50" materialid="UNKNOWN" settingid="cut::HEAT:6244432474537984::MANUAL_SETTING"></gf:laserdef><gf:laserdef class="lc77e072a-885d-4b80-ad1e-1e98da85c141" order="2" type="cut" power="100" speed="587.5" passes="3" corner="50" materialid="UNKNOWN" settingid="cut::HEAT:6244432474537984::MANUAL_SETTING"></gf:laserdef><gf:laserdef class="l607d5910-6d8d-49da-84ca-4b2ee44cc6e3" order="3" type="cut" power="100" speed="490" passes="3" corner="50" materialid="UNKNOWN" settingid="cut::HEAT:5716576766001152::MANUAL_SETTING"></gf:laserdef><gf:laserdef class="l35819305-6cf3-4f8c-b533-57e18216f0fe" order="4" type="cut" power="100" speed="587.5" passes="3" corner="50" materialid="UNKNOWN" settingid="cut::HEAT:6244432474537984::MANUAL_SETTING"></gf:laserdef><gf:laserdef class="l21cb9e85-aee0-4816-b41d-a142470994cc" order="4" type="cut" power="100" speed="587.5" passes="3" corner="50" materialid="UNKNOWN" settingid="cut::HEAT:6244432474537984::MANUAL_SETTING"></gf:laserdef><gf:laserdef class="l2d5359a5-befa-48bf-8e26-cbde670d1c72" order="5" type="cut" power="100" speed="490" passes="3" corner="50" materialid="UNKNOWN" settingid="cut::HEAT:5716576766001152::MANUAL_SETTING"></gf:laserdef></gf:laserdefs><g id="oEw"><g id="oE"><g id="g3"><path class="e l21cb9e85-aee0-4816-b41d-a142470994cc l21cb9e85-aee0-4816-b41d-a142470994cc" id="e0" transform="matrix(1,0,0,1,426.40940152751176,405.2682603863707)" d="M-2e-8 143.1496063A143.14960633 143.14960633 0 1 0 286.29921265 143.1496063A143.14960633 143.14960633 0 1 0 -2e-8 143.1496063z"></path><path class="e lbc130b75-3f45-46e7-b1a6-ec4bae2f4142 lbc130b75-3f45-46e7-b1a6-ec4bae2f4142" id="e1" transform="matrix(1,0,0,1,426.40940152751176,405.2682603863707)" d="M133.70078742 143.1496063A9.4488189 9.4488189 0 1 0 152.59842522 143.1496063A9.4488189 9.4488189 0 1 0 133.70078742 143.1496063z"></path><path class="e lbc130b75-3f45-46e7-b1a6-ec4bae2f4142 lbc130b75-3f45-46e7-b1a6-ec4bae2f4142" id="e2" transform="matrix(1,0,0,1,426.40940152751176,405.2682603863707)" d="M178.11023625 237.6377953A6.61417323 6.61417323 0 1 0 191.3385827 237.6377953A6.61417323 6.61417323 0 1 0 178.11023625 237.6377953z"></path><path class="e lbc130b75-3f45-46e7-b1a6-ec4bae2f4142 lbc130b75-3f45-46e7-b1a6-ec4bae2f4142" id="e3" transform="matrix(1,0,0,1,426.40940152751176,405.2682603863707)" d="M178.11023625 48.6614173A6.61417323 6.61417323 0 1 0 191.3385827 48.6614173A6.61417323 6.61417323 0 1 0 178.11023625 48.6614173z"></path><path class="e lbc130b75-3f45-46e7-b1a6-ec4bae2f4142 lbc130b75-3f45-46e7-b1a6-ec4bae2f4142" id="e4" transform="matrix(1,0,0,1,426.40940152751176,405.2682603863707)" d="M94.96062993 237.6377953A6.61417323 6.61417323 0 1 0 108.1889764 237.6377953A6.61417323 6.61417323 0 1 0 94.96062993 237.6377953z"></path><path class="e lbc130b75-3f45-46e7-b1a6-ec4bae2f4142 lbc130b75-3f45-46e7-b1a6-ec4bae2f4142" id="e5" transform="matrix(1,0,0,1,426.40940152751176,405.2682603863707)" d="M94.96062993 48.6614173A6.61417323 6.61417323 0 1 0 108.1889764 48.6614173A6.61417323 6.61417323 0 1 0 94.96062993 48.6614173z"></path></g><g id="gf141f98b-c854-4ea9-a168-d0f285de4e2e"><path class="e l607d5910-6d8d-49da-84ca-4b2ee44cc6e3 l607d5910-6d8d-49da-84ca-4b2ee44cc6e3" id="e6" transform="matrix(1,0,0,1,347.8678678678679,53.81381381381382)" d="M-3e-8 137.76377953A137.76377956 137.76377956 0 1 0 275.5275591 137.76377953A137.76377956 137.76377956 0 1 0 -3e-8 137.76377953z"></path><path class="e lf0db29fa-b7f3-44ac-86eb-13ebc22e44f8 lf0db29fa-b7f3-44ac-86eb-13ebc22e44f8" id="e7" transform="matrix(1,0,0,1,347.8678678678679,53.81381381381382)" d="M47.90067778 198.80554962A6.61417323 6.61417323 0 1 0 61.12902424 198.80554962A6.61417323 6.61417323 0 1 0 47.90067778 198.80554962z"></path><path class="e lf0db29fa-b7f3-44ac-86eb-13ebc22e44f8 lf0db29fa-b7f3-44ac-86eb-13ebc22e44f8" id="e8" transform="matrix(1,0,0,1,347.8678678678679,53.81381381381382)" d="M142.38886678 35.14720628A6.61417323 6.61417323 0 1 0 155.61721324 35.14720628A6.61417323 6.61417323 0 1 0 142.38886678 35.14720628z"></path><path class="e lf0db29fa-b7f3-44ac-86eb-13ebc22e44f8 lf0db29fa-b7f3-44ac-86eb-13ebc22e44f8" id="e9" transform="matrix(1,0,0,1,347.8678678678679,53.81381381381382)" d="M119.9103496 240.38035278A6.61417323 6.61417323 0 1 0 133.13869606 240.38035278A6.61417323 6.61417323 0 1 0 119.9103496 240.38035278z"></path><path class="e lf0db29fa-b7f3-44ac-86eb-13ebc22e44f8 lf0db29fa-b7f3-44ac-86eb-13ebc22e44f8" id="e10" transform="matrix(1,0,0,1,347.8678678678679,53.81381381381382)" d="M214.3985386 76.72200944A6.61417323 6.61417323 0 1 0 227.62688506 76.72200944A6.61417323 6.61417323 0 1 0 214.3985386 76.72200944z"></path><path class="e lf0db29fa-b7f3-44ac-86eb-13ebc22e44f8 lf0db29fa-b7f3-44ac-86eb-13ebc22e44f8" id="e11" transform="matrix(1,0,0,1,347.8678678678679,53.81381381381382)" d="M129.0353348 122.6456693L146.49222426 122.6456693L155.22067276 137.76377953L146.49222426 152.88188977L129.0353348 152.88188977L120.30689008 137.76377953L129.0353348 122.6456693z"></path></g><g id="g2"><path class="e l2d5359a5-befa-48bf-8e26-cbde670d1c72 l2d5359a5-befa-48bf-8e26-cbde670d1c72" id="e12" transform="matrix(1,0,0,1,30.236220472440948,30.236220472440948)" d="M-3e-8 137.76377953A137.76377956 137.76377956 0 1 0 275.5275591 137.76377953A137.76377956 137.76377956 0 1 0 -3e-8 137.76377953z"></path><path class="e lc77e072a-885d-4b80-ad1e-1e98da85c141 lc77e072a-885d-4b80-ad1e-1e98da85c141" id="e13" transform="matrix(1,0,0,1,30.236220472440948,30.236220472440948)" d="M47.90067778 198.80554962A6.61417323 6.61417323 0 1 0 61.12902424 198.80554962A6.61417323 6.61417323 0 1 0 47.90067778 198.80554962z"></path><path class="e lc77e072a-885d-4b80-ad1e-1e98da85c141 lc77e072a-885d-4b80-ad1e-1e98da85c141" id="e14" transform="matrix(1,0,0,1,30.236220472440948,30.236220472440948)" d="M142.38886678 35.14720628A6.61417323 6.61417323 0 1 0 155.61721324 35.14720628A6.61417323 6.61417323 0 1 0 142.38886678 35.14720628z"></path><path class="e lc77e072a-885d-4b80-ad1e-1e98da85c141 lc77e072a-885d-4b80-ad1e-1e98da85c141" id="e15" transform="matrix(1,0,0,1,30.236220472440948,30.236220472440948)" d="M119.9103496 240.38035278A6.61417323 6.61417323 0 1 0 133.13869606 240.38035278A6.61417323 6.61417323 0 1 0 119.9103496 240.38035278z"></path><path class="e lc77e072a-885d-4b80-ad1e-1e98da85c141 lc77e072a-885d-4b80-ad1e-1e98da85c141" id="e16" transform="matrix(1,0,0,1,30.236220472440948,30.236220472440948)" d="M214.3985386 76.72200944A6.61417323 6.61417323 0 1 0 227.62688506 76.72200944A6.61417323 6.61417323 0 1 0 214.3985386 76.72200944z"></path><path class="e lc77e072a-885d-4b80-ad1e-1e98da85c141 lc77e072a-885d-4b80-ad1e-1e98da85c141" id="e17" transform="matrix(1,0,0,1,30.236220472440948,30.236220472440948)" d="M129.0353348 122.6456693L146.49222426 122.6456693L155.22067276 137.76377953L146.49222426 152.88188977L129.0353348 152.88188977L120.30689008 137.76377953L129.0353348 122.6456693z"></path></g><g id="g14dce90d-cdab-48ed-8178-9240696e96a0"><path class="e l35819305-6cf3-4f8c-b533-57e18216f0fe l35819305-6cf3-4f8c-b533-57e18216f0fe" id="e18" transform="matrix(1,0,0,1,86.48648648648647,378.61861861861865)" d="M-2e-8 143.1496063A143.14960633 143.14960633 0 1 0 286.29921265 143.1496063A143.14960633 143.14960633 0 1 0 -2e-8 143.1496063z"></path><path class="e l55f8e12c-7e7d-4baa-ab56-b7ee00a8eb90 l55f8e12c-7e7d-4baa-ab56-b7ee00a8eb90" id="e19" transform="matrix(1,0,0,1,86.48648648648647,378.61861861861865)" d="M133.70078742 143.1496063A9.4488189 9.4488189 0 1 0 152.59842522 143.1496063A9.4488189 9.4488189 0 1 0 133.70078742 143.1496063z"></path><path class="e l55f8e12c-7e7d-4baa-ab56-b7ee00a8eb90 l55f8e12c-7e7d-4baa-ab56-b7ee00a8eb90" id="e20" transform="matrix(1,0,0,1,86.48648648648647,378.61861861861865)" d="M178.11023625 237.6377953A6.61417323 6.61417323 0 1 0 191.3385827 237.6377953A6.61417323 6.61417323 0 1 0 178.11023625 237.6377953z"></path><path class="e l55f8e12c-7e7d-4baa-ab56-b7ee00a8eb90 l55f8e12c-7e7d-4baa-ab56-b7ee00a8eb90" id="e21" transform="matrix(1,0,0,1,86.48648648648647,378.61861861861865)" d="M178.11023625 48.6614173A6.61417323 6.61417323 0 1 0 191.3385827 48.6614173A6.61417323 6.61417323 0 1 0 178.11023625 48.6614173z"></path><path class="e l55f8e12c-7e7d-4baa-ab56-b7ee00a8eb90 l55f8e12c-7e7d-4baa-ab56-b7ee00a8eb90" id="e22" transform="matrix(1,0,0,1,86.48648648648647,378.61861861861865)" d="M94.96062993 237.6377953A6.61417323 6.61417323 0 1 0 108.1889764 237.6377953A6.61417323 6.61417323 0 1 0 94.96062993 237.6377953z"></path><path class="e l55f8e12c-7e7d-4baa-ab56-b7ee00a8eb90 l55f8e12c-7e7d-4baa-ab56-b7ee00a8eb90" id="e23" transform="matrix(1,0,0,1,86.48648648648647,378.61861861861865)" d="M94.96062993 48.6614173A6.61417323 6.61417323 0 1 0 108.1889764 48.6614173A6.61417323 6.61417323 0 1 0 94.96062993 48.6614173z"></path></g></g></g><style type="text/css">.l55f8e12c-7e7d-4baa-ab56-b7ee00a8eb90 { stroke: #000000; fill: none; }.lbc130b75-3f45-46e7-b1a6-ec4bae2f4142 { stroke: #00c800; fill: none; }.lf0db29fa-b7f3-44ac-86eb-13ebc22e44f8 { stroke: #181493; fill: none; }.lc77e072a-885d-4b80-ad1e-1e98da85c141 { stroke: #297200; fill: none; }.l607d5910-6d8d-49da-84ca-4b2ee44cc6e3 { stroke: #548ab2; fill: none; }.l35819305-6cf3-4f8c-b533-57e18216f0fe { stroke: #6e001f; fill: none; }.l21cb9e85-aee0-4816-b41d-a142470994cc { stroke: #9e5000; fill: none; }.l2d5359a5-befa-48bf-8e26-cbde670d1c72 { stroke: #e53595; fill: none; }</style><text x="20"><tspan x="20" y="1172">Glowforge® print settings</tspan>
  <tspan x="20" y="1192">Design id: 7BG1AYAKEI6KQGYM69TDKN8N7SH9V</tspan>
  <tspan x="20" y="1212">Timestamp: Sun Jun 07 2026 23:13:23 GMT+0100 (British Summer Time)</tspan>
  <tspan x="20" y="1232">Version: 1.0</tspan>
  <tspan x="20" y="1252" fill="#000000">Step 0: #000000 Cut::6mm birch ply::Manual</tspan>
  <tspan x="20" y="1272" fill="#000000">Step 0: #000000 Speed=152</tspan>
  <tspan x="20" y="1292" fill="#000000">Step 0: #000000 Precision Power=full</tspan>
  <tspan x="20" y="1312" fill="#000000">Step 0: #000000 # of Passes=3</tspan>
  <tspan x="20" y="1332" fill="#00c800">Step 1: #00c800 Cut::6mm birch ply::Manual</tspan>
  <tspan x="20" y="1352" fill="#00c800">Step 1: #00c800 Speed=152</tspan>
  <tspan x="20" y="1372" fill="#00c800">Step 1: #00c800 Precision Power=full</tspan>
  <tspan x="20" y="1392" fill="#00c800">Step 1: #00c800 # of Passes=3</tspan>
  <tspan x="20" y="1412" fill="#181493">Step 2: #181493 Cut::6mm birch ply::Manual</tspan>
  <tspan x="20" y="1432" fill="#181493">Step 2: #181493 Speed=152</tspan>
  <tspan x="20" y="1452" fill="#181493">Step 2: #181493 Precision Power=full</tspan>
  <tspan x="20" y="1472" fill="#181493">Step 2: #181493 # of Passes=3</tspan>
  <tspan x="20" y="1492" fill="#297200">Step 3: #297200 Cut::6mm birch ply::Manual</tspan>
  <tspan x="20" y="1512" fill="#297200">Step 3: #297200 Speed=152</tspan>
  <tspan x="20" y="1532" fill="#297200">Step 3: #297200 Precision Power=full</tspan>
  <tspan x="20" y="1552" fill="#297200">Step 3: #297200 # of Passes=3</tspan>
  <tspan x="20" y="1572" fill="#548ab2">Step 4: #548ab2 Cut::9mm birch ply::Manual</tspan>
  <tspan x="20" y="1592" fill="#548ab2">Step 4: #548ab2 Speed=141</tspan>
  <tspan x="20" y="1612" fill="#548ab2">Step 4: #548ab2 Precision Power=full</tspan>
  <tspan x="20" y="1632" fill="#548ab2">Step 4: #548ab2 # of Passes=3</tspan>
  <tspan x="20" y="1652" fill="#6e001f">Step 5: #6e001f Cut::6mm birch ply::Manual</tspan>
  <tspan x="20" y="1672" fill="#6e001f">Step 5: #6e001f Speed=152</tspan>
  <tspan x="20" y="1692" fill="#6e001f">Step 5: #6e001f Precision Power=full</tspan>
  <tspan x="20" y="1712" fill="#6e001f">Step 5: #6e001f # of Passes=3</tspan>
  <tspan x="20" y="1732" fill="#9e5000">Step 6: #9e5000 Cut::6mm birch ply::Manual</tspan>
  <tspan x="20" y="1752" fill="#9e5000">Step 6: #9e5000 Speed=152</tspan>
  <tspan x="20" y="1772" fill="#9e5000">Step 6: #9e5000 Precision Power=full</tspan>
  <tspan x="20" y="1792" fill="#9e5000">Step 6: #9e5000 # of Passes=3</tspan>
  <tspan x="20" y="1812" fill="#e53595">Step 7: #e53595 Cut::9mm birch ply::Manual</tspan>
  <tspan x="20" y="1832" fill="#e53595">Step 7: #e53595 Speed=141</tspan>
  <tspan x="20" y="1852" fill="#e53595">Step 7: #e53595 Precision Power=full</tspan>
  <tspan x="20" y="1872" fill="#e53595">Step 7: #e53595 # of Passes=3</tspan></text></svg>