<?xml version="1.0" encoding="utf-8"?>
<!-- Generator: Fusion 360, Shaper Origin Export Add-In, Version 1.8.0  -->
<svg xmlns="http://www.w3.org/2000/svg" xmlns:xlink="http://www.w3.org/1999/xlink" xmlns:shaper="http://www.shapertools.com/namespaces/shaper" shaper:fusionaddin="version:1.8.0" width="5.27cm" height="5.27cm" version="1.1" x="0cm" y="0cm" viewBox="0 0 5.27 5.27" enable-background="new 0 0 5.27 5.27" xml:space="preserve"><path d="M-1.2425,0 a2.635,2.635 0 1,1 5.27,0 a2.635,2.635 0 1,1 -5.27,0z" transform="matrix(1,0,0,-1,1.2425,2.635)" fill="rgb(0,0,0)" stroke-linecap="round" stroke-linejoin="round" /><path d="M1.7047935,1.4782073 a0.3,0.3 0 1,1 0.6,0 a0.3,0.3 0 1,1 -0.6,0z" transform="matrix(1,0,0,-1,1.2425,2.635)" fill="rgb(255,255,255)" stroke="rgb(0,0,0)" stroke-width="0.0010cm" stroke-linecap="round" stroke-linejoin="round" /><path d="M1.78,0 a0.93,0.93 0 1,1 1.86,0 a0.93,0.93 0 1,1 -1.86,0z" transform="matrix(1,0,0,-1,1.2425,2.635)" fill="rgb(255,255,255)" stroke="rgb(0,0,0)" stroke-width="0.0010cm" stroke-linecap="round" stroke-linejoin="round" /><path d="M1.2425,0 a0.15,0.15 0 1,1 0.3,0 a0.15,0.15 0 1,1 -0.3,0z" transform="matrix(1,0,0,-1,1.2425,2.635)" fill="rgb(255,255,255)" stroke="rgb(0,0,0)" stroke-width="0.0010cm" stroke-linecap="round" stroke-linejoin="round" /></svg>