<?xml version="1.0" encoding="utf-8"?>
<!-- Generator: Fusion 360, Shaper Origin Export Add-In, Version 1.8.0  -->
<svg xmlns="http://www.w3.org/2000/svg" xmlns:xlink="http://www.w3.org/1999/xlink" xmlns:shaper="http://www.shapertools.com/namespaces/shaper" shaper:fusionaddin="version:1.8.0" width="5.5108326cm" height="5.5108326cm" version="1.1" x="0cm" y="0cm" viewBox="0 0 5.5108326 5.5108326" enable-background="new 0 0 5.5108326 5.5108326" xml:space="preserve"><path d="M-1.1229163,0.159 L-0.3925,0.159 -0.3925,-0.159 -1.1229163,-0.159 A2.76,2.76 183.3025636 0,1 1.4735,-2.7554163 L1.4735,-2.025 1.7915,-2.025 1.7915,-2.7554163 A2.76,2.76 273.3025636 0,1 4.3879163,-0.159 L3.6575,-0.159 3.6575,0.159 4.3879163,0.159 A2.76,2.76 3.3025636 0,1 1.7915,2.7554163 L1.7915,2.025 1.4735,2.025 1.4735,2.7554163 A2.76,2.76 93.3025636 0,1 -1.1229163,0.159z" transform="matrix(1,0,0,-1,1.1229163,2.7554163)" fill="rgb(0,0,0)" stroke-linecap="round" stroke-linejoin="round" /><path d="M0.0506088,1.4318912 a0.15,0.15 0 1,1 0.3,0 a0.15,0.15 0 1,1 -0.3,0z" transform="matrix(1,0,0,-1,1.1229163,2.7554163)" fill="rgb(255,255,255)" stroke="rgb(0,0,0)" stroke-width="0.0010cm" stroke-linecap="round" stroke-linejoin="round" /><path d="M2.4638708,-1.1313708 a0.3,0.3 0 1,1 0.6,0 a0.3,0.3 0 1,1 -0.6,0z" transform="matrix(1,0,0,-1,1.1229163,2.7554163)" fill="rgb(255,255,255)" stroke="rgb(0,0,0)" stroke-width="0.0010cm" stroke-linecap="round" stroke-linejoin="round" /><path d="M0.3925,0 a1.24,1.24 0 1,1 2.48,0 a1.24,1.24 0 1,1 -2.48,0z" transform="matrix(1,0,0,-1,1.1229163,2.7554163)" fill="rgb(255,255,255)" stroke="rgb(0,0,0)" stroke-width="0.0010cm" stroke-linecap="round" stroke-linejoin="round" /></svg>