<?xml version="1.0" encoding="utf-8"?>
<!-- Generator: Fusion 360, Shaper Origin Export Add-In, Version 1.8.0  -->
<svg xmlns="http://www.w3.org/2000/svg" xmlns:xlink="http://www.w3.org/1999/xlink" xmlns:shaper="http://www.shapertools.com/namespaces/shaper" shaper:fusionaddin="version:1.8.0" width="5.5108326cm" height="5.5108326cm" version="1.1" x="0cm" y="0cm" viewBox="0 0 5.5108326 5.5108326" enable-background="new 0 0 5.5108326 5.5108326" xml:space="preserve"><path d="M0.025,-0.159 L0.7554163,-0.159 A2.76,2.76 356.6974364 0,0 -1.841,-2.7554163 L-1.841,-2.025 -2.159,-2.025 -2.159,-2.7554163 A2.76,2.76 266.6974364 0,0 -4.7554163,-0.159 L-4.025,-0.159 -4.025,0.159 -4.7554163,0.159 A2.76,2.76 176.6974364 0,0 -2.159,2.7554163 L-2.159,2.025 -1.841,2.025 -1.841,2.7554163 A2.76,2.76 86.6974364 0,0 0.7554163,0.159 L0.025,0.159 0.025,-0.159z" transform="matrix(1,0,0,-1,4.7554163,2.7554163)" fill="rgb(0,0,0)" shaper:cutDepth="0.318cm" stroke-linecap="round" stroke-linejoin="round" /><path d="M-3.5020815,1.2020815 a0.3,0.3 0 1,1 0.6,0 a0.3,0.3 0 1,1 -0.6,0z" transform="matrix(1,0,0,-1,4.7554163,2.7554163)" fill="rgb(255,255,255)" stroke="rgb(0,0,0)" stroke-width="0.0010cm" stroke-linecap="round" stroke-linejoin="round" shaper:cutDepth="0.318cm" /><path d="M-3.24,-0 a1.24,1.24 0 1,1 2.48,0 a1.24,1.24 0 1,1 -2.48,0z" transform="matrix(1,0,0,-1,4.7554163,2.7554163)" fill="rgb(255,255,255)" stroke="rgb(0,0,0)" stroke-width="0.0010cm" stroke-linecap="round" stroke-linejoin="round" shaper:cutDepth="0.318cm" /></svg>