<?xml version="1.0" encoding="utf-8"?>
<!-- Generator: Fusion 360, Shaper Origin Export Add-In, Version 1.8.0  -->
<svg xmlns="http://www.w3.org/2000/svg" xmlns:xlink="http://www.w3.org/1999/xlink" xmlns:shaper="http://www.shapertools.com/namespaces/shaper" shaper:fusionaddin="version:1.8.0" width="3.26cm" height="3.26cm" version="1.1" x="0cm" y="0cm" viewBox="0 0 3.26 3.26" enable-background="new 0 0 3.26 3.26" xml:space="preserve"><path d="M0.3700347,-1.8679027 L0.4760108,-1.5805458 A1.325,1.325 243.9518561 0,1 0.7274562,-1.6732778 L0.6214801,-1.9606348 A1.63,1.63 254.471747 0,1 2.5356237,-1.0779505 L2.2482667,-0.9719744 A1.325,1.325 333.9518561 0,1 2.3409988,-0.720529 L2.6283557,-0.8265052 A1.63,1.63 344.471747 0,1 1.7456715,1.0876384 L1.6396953,0.8002815 A1.325,1.325 63.9518561 0,1 1.38825,0.8930136 L1.4942261,1.1803705 A1.63,1.63 74.471747 0,1 -0.4199175,0.2976862 L-0.1325605,0.1917101 A1.325,1.325 153.9518561 0,1 -0.2252926,-0.0597352 L-0.5126496,0.0462409 A1.63,1.63 164.471747 0,1 0.3700347,-1.8679027z" transform="matrix(1,0,0,-1,0.5721469,1.2398679)" fill="rgb(0,0,0)" shaper:cutDepth="0.318cm" stroke-linecap="round" stroke-linejoin="round" /><path d="M2.3034493,-0.7119263 L2.2141229,-0.9541369 1.930406,-0.7119263 2.3034493,-0.7119263z" transform="matrix(1,0,0,-1,0.5721469,1.2398679)" fill="rgb(103,103,103)" fill-rule="nonzero" shaper:cutDepth="0.01cm" stroke-linecap="round" stroke-linejoin="round" /><path d="M0.1278531,-0.3901321 a0.93,0.93 0 1,1 1.86,0 a0.93,0.93 0 1,1 -1.86,0z" transform="matrix(1,0,0,-1,0.5721469,1.2398679)" fill="rgb(255,255,255)" stroke="rgb(0,0,0)" stroke-width="0.0010cm" stroke-linecap="round" stroke-linejoin="round" shaper:cutDepth="0.318cm" /></svg>