<?xml version="1.0" encoding="utf-8"?>
<!-- Generator: Fusion 360, Shaper Origin Export Add-In, Version 1.6.3  -->
<svg xmlns="http://www.w3.org/2000/svg" xmlns:xlink="http://www.w3.org/1999/xlink" xmlns:shaper="http://www.shapertools.com/namespaces/shaper" shaper:fusionaddin="version:1.6.3" width="16.9630055cm" height="16.0992647cm" version="1.1" x="0cm" y="0cm" viewBox="0 0 16.9630055 16.0992647" enable-background="new 0 0 16.9630055 16.0992647" xml:space="preserve"><path d="M-1.8329487,10.5654607 A1.75,1.75 303.0457625 0,0 -3.7415292,10.5654607 A3.5,3.5 56.9542375 0,1 -7.6541192,10.5011225 A8.5,8.5 124.9299247 0,1 -11.2557936,4.2628394 A3.5,3.5 175.0700753 0,1 -9.3552171,0.842268 A1.75,1.75 63.0457625 0,0 -8.4009269,-0.8106112 A3.5,3.5 176.9542375 0,1 -6.3889133,-4.1668444 A8.5,8.5 244.9299247 0,1 0.8144355,-4.1668444 A3.5,3.5 295.0700753 0,1 2.826449,-0.8106112 A1.75,1.75 183.0457625 0,0 3.7807393,0.842268 A3.5,3.5 296.9542375 0,1 5.6813157,4.2628394 A8.5,8.5 4.9299247 0,1 2.0796413,10.5011225 A3.5,3.5 55.0700753 0,1 -1.8329487,10.5654607z" transform="matrix(1,0,0,-1,11.2687417,11.1316372)" fill="rgb(0,0,0)" shaper:cutDepth="0.006" stroke-linecap="round" stroke-linejoin="round" /><path d="M0,0 L0.3639395,0.2694297 0.4200864,0.1935878 0.4200864,0.1935878 0.4245859,0.1816222 0.425567,0.175829 0.4251818,0.1705671 0.4235224,0.1654327 0.4209121,0.1604144 0.4141185,0.1505589 0.4141185,0.1505589 0.3746745,0.1016586 0.3746745,0.1016586 0.3667212,0.0897652 0.3641284,0.083683 0.3632007,0.0781628 0.363596,0.0733146 0.3648338,0.0684662 0.3687066,0.0586297 0.749564,-0.4536951 0.749564,-0.4536951 0.7572005,-0.4629641 0.7613228,-0.4670913 0.7658094,-0.4706093 0.7705631,-0.4732563 0.7755766,-0.475141 0.7810442,-0.4765747 0.7871596,-0.4778689 0.7871596,-0.4778689 0.793941,-0.4770286 0.800104,-0.4761136 0.8119922,-0.4732928 0.8241418,-0.4686104 0.8360183,-0.4629734 0.8360183,-0.4629734 0.8573136,-0.4528261 0.8673511,-0.4489021 0.8780548,-0.4452488 0.8780548,-0.4452488 0.8840039,-0.4455712 0.8895601,-0.4467009 0.8924823,-0.448049 0.8961314,-0.4507987 0.9031757,-0.4589584 0.9581922,-0.5332733 0.5967976,-0.8008189 0,0z" transform="matrix(1,0,0,-1,11.2687417,11.1316372)" fill="rgb(133,133,133)" fill-rule="nonzero" shaper:cutDepth="0.002" stroke-linecap="round" stroke-linejoin="round" /><path d="M-0.02827,0.7558512 L0.1459925,0.9618118 0.1950093,0.9236572 0.1950093,0.9236572 0.1988265,0.9195597 0.201955,0.9152039 0.2030535,0.9128271 0.2038302,0.90978 0.2040843,0.9010464 0.2040843,0.9010464 0.2008056,0.8928206 0.1970113,0.8854535 0.1919643,0.8781919 0.186346,0.8712571 0.1630292,0.843699 0.1630292,0.843699 0.1529964,0.8310583 0.1484606,0.8245106 0.1445021,0.8176914 0.1414058,0.8108327 0.139063,0.8039027 0.1371362,0.7965343 0.1352878,0.7883602 0.1352878,0.7883602 0.1355448,0.7782497 0.1370454,0.7684879 0.1406012,0.7594696 0.1456277,0.7505762 0.1456277,0.7505762 0.1538595,0.7400492 0.1619835,0.7303968 0.1803639,0.711231 0.1803639,0.711231 0.1888564,0.7022877 0.1968216,0.6929533 0.203368,0.6836133 0.2095961,0.6732245 0.2095961,0.6732245 0.2109454,0.6662365 0.2113066,0.6594538 0.2107448,0.6559398 0.2089776,0.6512801 0.2057798,0.6459203 0.2019733,0.6406835 0.163521,0.5952368 -0.02827,0.7558512z" transform="matrix(1,0,0,-1,11.2687417,11.1316372)" fill="rgb(133,133,133)" fill-rule="nonzero" shaper:cutDepth="0.002" stroke-linecap="round" stroke-linejoin="round" /><path d="M1.0050387,2.2445545 L1.0050387,2.2445545 0.9985789,2.2380673 0.9950918,2.2355873 0.9912986,2.2340076 0.9868903,2.2333577 0.9821828,2.2335284 0.9723239,2.2352339 0.9723239,2.2352339 0.960555,2.2387285 0.9554847,2.2412834 0.9517126,2.2444441 0.9493335,2.2477809 0.9475621,2.2515088 0.9448626,2.2598012 0.9448626,2.2598012 0.9420037,2.2877499 0.941795,2.3014185 0.9422095,2.3156745 0.9422095,2.3156745 0.943291,2.3246881 0.9443109,2.3329411 0.9465281,2.3492108 0.9520996,2.383593 0.9520996,2.383593 0.9532314,2.3931489 0.9552983,2.4030047 0.9552983,2.4030047 0.9596959,2.4187505 0.9652153,2.4339928 0.9724644,2.4479848 0.9813193,2.4619838 0.9813193,2.4619838 0.9929308,2.4735206 0.9987907,2.4785429 1.005108,2.4830739 1.011974,2.4870459 1.0191856,2.4904987 1.0341846,2.4965388 1.0341846,2.4965388 1.0459175,2.4989403 1.0566838,2.5008153 1.0671411,2.501977 1.0779468,2.5022387 1.0892024,2.5014911 1.1004646,2.4999313 1.1229977,2.4954582 1.1532287,2.4884518 1.1532287,2.4884518 1.1665539,2.4857164 1.1799454,2.483719 1.192891,2.4830379 1.2066261,2.4832274 1.2066261,2.4832274 1.2184565,2.4856851 1.2292913,2.4894389 1.2393555,2.4954328 1.2488442,2.5026973 1.2488442,2.5026973 1.2551805,2.5138556 1.2607901,2.5240908 1.2659198,2.5341849 1.2708162,2.54492 1.2797764,2.5681533 1.2877103,2.5918545 1.2877103,2.5918545 1.2908671,2.5967248 1.2942683,2.6003786 1.29707,2.6019187 1.299886,2.6025428 1.3060304,2.6023045 1.3125925,2.60104 1.3125925,2.60104 1.323166,2.5971896 1.3278209,2.5942026 1.3322823,2.5906258 1.3322823,2.5906258 1.3354287,2.5865934 1.3378217,2.5823161 1.3388692,2.5772534 1.3387669,2.5709201 1.3387669,2.5709201 1.3362049,2.5542038 1.3343159,2.537438 1.3335989,2.5209966 1.3336246,2.5038516 1.3336246,2.5038516 1.335313,2.4898227 1.3383811,2.4762458 1.3437161,2.463598 1.3506636,2.4511452 1.3506636,2.4511452 1.3565013,2.4450952 1.3620971,2.439699 1.3678516,2.4349374 1.3741655,2.4307908 1.3811421,2.4273319 1.3885092,2.4245159 1.4038942,2.4199555 1.4038942,2.4199555 1.4176787,2.4190281 1.4241918,2.4191903 1.4306443,2.4200682 1.43704,2.4217873 1.4433109,2.4241751 1.4556447,2.430065 1.4556447,2.430065 1.468496,2.4386337 1.4802622,2.4480373 1.4906871,2.4590934 1.5002566,2.4710835 1.5002566,2.4710835 1.5080736,2.4825477 1.5149976,2.4944479 1.5202079,2.5067006 1.5246067,2.5200483 1.5246067,2.5200483 1.5284769,2.5248707 1.5326288,2.5288612 1.5366623,2.5310524 1.540752,2.531892 1.5449673,2.5318753 1.5493724,2.5312699 1.5585554,2.5290829 1.5585554,2.5290829 1.5652251,2.5271064 1.5716075,2.5245597 1.5773902,2.5211066 1.5830378,2.5169078 1.5830378,2.5169078 1.5864326,2.5130766 1.5891569,2.5090232 1.590076,2.5067868 1.5906772,2.5036828 1.5903274,2.4950653 1.5903274,2.4950653 1.5853679,2.4708609 1.5853679,2.4708609 1.5839842,2.4640983 1.5827129,2.4579492 1.5800806,2.4456557 1.5739738,2.4188933 1.5739738,2.4188933 1.5709363,2.4062211 1.5676374,2.3943579 1.5676374,2.3943579 1.5631598,2.377843 1.5631598,2.377843 1.5519489,2.3401075 1.5452025,2.3218629 1.5370869,2.3043663 1.5274651,2.2881292 1.5165205,2.2729388 1.5042954,2.2579913 1.4908322,2.2424828 1.4908322,2.2424828 1.4769277,2.2321385 1.4628673,2.2226534 1.4483927,2.214809 1.4409194,2.2117465 1.4332463,2.2093874 1.4253937,2.2077897 1.4174302,2.2068704 1.4014032,2.2066174 1.3851996,2.2077848 1.3688065,2.2096544 1.3688065,2.2096544 1.3471848,2.2214973 1.326761,2.2341444 1.3173726,2.2410209 1.308733,2.2484 1.3010256,2.2563479 1.2943477,2.2650187 1.2885993,2.2747652 1.2836998,2.2858828 1.2797947,2.2978825 1.2767853,2.3104835 1.2744926,2.3235655 1.2727373,2.3370084 1.2701224,2.3644956 1.2701224,2.3644956 1.2636232,2.3489223 1.2557948,2.3341966 1.2457536,2.3208889 1.234373,2.3084212 1.234373,2.3084212 1.223361,2.2986536 1.2116989,2.2899306 1.1993301,2.2832403 1.1855934,2.2774701 1.1855934,2.2774701 1.1755757,2.2753016 1.1654987,2.2738127 1.1554267,2.2734745 1.1450992,2.2738532 1.1450992,2.2738532 1.137765,2.2747457 1.1310623,2.2755877 1.1178375,2.2774312 1.0898058,2.2821173 1.0898058,2.2821173 1.0632491,2.2862329 1.0508804,2.2872153 1.044645,2.2874694 1.0377853,2.2876728 1.0377853,2.2876728 1.0274812,2.2830408 1.0227931,2.2803154 1.018556,2.2769983 1.0163701,2.2746886 1.0141553,2.2716916 1.0101489,2.2636254 1.0072879,2.2543599 1.0050387,2.2445545z" transform="matrix(1,0,0,-1,11.2687417,11.1316372)" fill="rgb(133,133,133)" fill-rule="nonzero" shaper:cutDepth="0.002" stroke-linecap="round" stroke-linejoin="round" /><path d="M1.1175064,3.2604454 L1.1129693,3.5301982 1.1749825,3.5337748 1.1749825,3.5337748 1.1805535,3.533206 1.1857765,3.5319891 1.1881686,3.5309243 1.19076,3.5291431 1.1967037,3.5227389 1.1967037,3.5227389 1.1996547,3.51439 1.2016522,3.5063476 1.2026376,3.4975594 1.2029779,3.4886408 1.2035849,3.4525471 1.2035849,3.4525471 1.2043619,3.4364276 1.2052617,3.4285133 1.2067747,3.4207749 1.2089625,3.4135747 1.2117642,3.4068173 1.2151677,3.4000039 1.2191609,3.3926359 1.2191609,3.3926359 1.2260137,3.3851977 1.2335725,3.3788409 1.2421881,3.3743972 1.251828,3.3710163 1.251828,3.3710163 1.2649557,3.3685174 1.2774261,3.3666056 1.3038801,3.364291 1.3038801,3.364291 1.3161608,3.3631555 1.3283024,3.3613782 1.33938,3.3586623 1.350909,3.3549476 1.350909,3.3549476 1.3565269,3.3505783 1.3612663,3.3457127 1.363158,3.3426986 1.3648975,3.3380285 1.3660217,3.3318893 1.3666069,3.3254417 1.367608,3.2659188 1.1175064,3.2604454z" transform="matrix(1,0,0,-1,11.2687417,11.1316372)" fill="rgb(133,133,133)" fill-rule="nonzero" shaper:cutDepth="0.002" stroke-linecap="round" stroke-linejoin="round" /><path d="M0.9520023,4.6779279 L1.1357604,4.7237182 1.1496705,4.6645329 1.1496705,4.6645329 1.1436742,4.6563698 1.1370533,4.6496093 1.1285649,4.6436789 1.1193478,4.6385398 1.1193478,4.6385398 1.1019627,4.6280563 1.0946985,4.6224616 1.0875391,4.6161008 1.0875391,4.6161008 1.0730822,4.5924333 1.0669456,4.5802898 1.0621193,4.5677749 1.0590221,4.5551684 1.0574317,4.5424382 1.0568458,4.5290663 1.0567621,4.5145349 1.0567621,4.5145349 1.0569789,4.5065546 1.0565131,4.5046738 1.0554307,4.5023751 1.0511368,4.4969486 1.0511368,4.4969486 1.0459671,4.4932633 1.0407884,4.4903574 1.0288685,4.4865104 1.0288685,4.4865104 1.0180002,4.4839252 1.0128082,4.4835083 1.0080811,4.4840972 1.0044672,4.4855111 1.0014186,4.4874452 0.9956164,4.4923573 0.9956164,4.4923573 0.992637,4.5089207 0.9922336,4.5169247 0.9923974,4.5254303 0.9923974,4.5254303 0.9967214,4.5596255 0.9967214,4.5596255 0.9987719,4.5756037 0.9986203,4.5831248 0.997781,4.5911018 0.997781,4.5911018 0.9950274,4.5972766 0.9922609,4.602798 0.9891365,4.6077713 0.9853092,4.6123017 0.9806681,4.6163489 0.975476,4.6198927 0.9641737,4.6261407 0.9520023,4.6779279z" transform="matrix(1,0,0,-1,11.2687417,11.1316372)" fill="rgb(133,133,133)" fill-rule="nonzero" shaper:cutDepth="0.002" stroke-linecap="round" stroke-linejoin="round" /><path d="M1.2587067,5.5025807 L0.7162153,5.2453633 0.5919937,5.5088781 0.6257225,5.5249575 0.6257225,5.5249575 0.6306386,5.5264858 0.6355099,5.5271255 0.6401633,5.5262593 0.6449731,5.5243124 0.6449731,5.5243124 0.6508345,5.5196967 0.6561933,5.5151332 0.6669821,5.504636 0.6669821,5.504636 0.6773253,5.4947821 0.6876018,5.4864022 0.6876018,5.4864022 0.6918878,5.4848414 0.6960873,5.484283 0.7002461,5.4851105 0.7043198,5.4866545 1.0793376,5.6654358 1.0793376,5.6654358 1.0851113,5.6694594 1.0871824,5.6726117 1.088644,5.6782916 1.088644,5.6782916 1.0884688,5.685002 1.0878955,5.6913066 1.0851744,5.7047015 1.0851744,5.7047015 1.0827394,5.7189321 1.0825347,5.7257876 1.0828749,5.7330723 1.0828749,5.7330723 1.0851369,5.7387343 1.0881734,5.7433658 1.0926642,5.7470437 1.0979246,5.7500693 1.1327967,5.7666938 1.2587067,5.5025807z" transform="matrix(1,0,0,-1,11.2687417,11.1316372)" fill="rgb(133,133,133)" fill-rule="nonzero" shaper:cutDepth="0.002" stroke-linecap="round" stroke-linejoin="round" /><path d="M0.5411346,5.7598765 L0.5411346,5.7598765 0.5423566,5.7508035 0.542205,5.7465272 0.5411525,5.7425553 0.5389878,5.7386604 0.5359898,5.7350271 0.5286408,5.7282374 0.5286408,5.7282374 0.5187101,5.7210193 0.5135987,5.7185477 0.5087958,5.7174751 0.5047001,5.7176154 0.5006634,5.718476 0.4924388,5.7213754 0.4924388,5.7213754 0.4685126,5.7361008 0.4575345,5.7442467 0.446469,5.7532445 0.446469,5.7532445 0.439971,5.759584 0.4340393,5.7654123 0.4224714,5.7770657 0.3985641,5.8023958 0.3985641,5.8023958 0.3916661,5.8091052 0.3850987,5.8167391 0.3850987,5.8167391 0.3752726,5.829805 0.3665283,5.8434552 0.3598284,5.8577184 0.3540993,5.8732605 0.3540993,5.8732605 0.3520013,5.889494 0.3515776,5.8971999 0.3518219,5.9049703 0.3528436,5.9128364 0.3544878,5.920661 0.3588133,5.9362412 0.3588133,5.9362412 0.3640413,5.947016 0.3690996,5.9567033 0.3745362,5.9657115 0.3808991,5.974449 0.3883369,5.98293 0.3964235,5.9909223 0.4136765,6.0060907 0.4376216,6.02583 0.4376216,6.02583 0.4478959,6.0347452 0.4576247,6.0441618 0.4660374,6.0540249 0.474239,6.0650441 0.474239,6.0650441 0.4794817,6.0759304 0.4830901,6.0868145 0.4844515,6.098449 0.4844542,6.1103993 0.4844542,6.1103993 0.4794489,6.1222146 0.4747345,6.1328918 0.4698403,6.1431021 0.4642953,6.1535171 0.4512995,6.174758 0.4373081,6.1954687 0.4373081,6.1954687 0.4353613,6.2009365 0.4345288,6.2058583 0.4350098,6.209019 0.4362267,6.2116341 0.4401522,6.2163671 0.4451463,6.2208077 0.4451463,6.2208077 0.4546326,6.2268604 0.4598344,6.2287395 0.4653869,6.2301062 0.4653869,6.2301062 0.4705013,6.2301521 0.4753521,6.2294509 0.4800082,6.2272039 0.4849739,6.2232716 0.4849739,6.2232716 0.4966867,6.2110729 0.508848,6.1993783 0.5214644,6.1888114 0.5350911,6.1784062 0.5350911,6.1784062 0.5472549,6.171216 0.559899,6.1653958 0.5731839,6.1619403 0.5872945,6.1598835 0.5872945,6.1598835 0.5956472,6.160839 0.6033338,6.1620001 0.6106132,6.163673 0.6177444,6.166164 0.6247326,6.1695993 0.631448,6.1737355 0.6444237,6.1831762 0.6444237,6.1831762 0.653542,6.1935554 0.6573737,6.1988247 0.6606004,6.204481 0.6631247,6.2106038 0.6650423,6.2170341 0.6678664,6.2304071 0.6678664,6.2304071 0.6688785,6.2458198 0.668568,6.2608789 0.6661299,6.275878 0.6624303,6.2907659 0.6624303,6.2907659 0.6580825,6.3039428 0.6528456,6.3166758 0.6462867,6.3282627 0.6383651,6.3398714 0.6383651,6.3398714 0.6368902,6.3458763 0.6362469,6.3515989 0.63696,6.3561334 0.6387803,6.3598907 0.6413568,6.3632269 0.6445161,6.3663559 0.6518363,6.3723162 0.6518363,6.3723162 0.6574611,6.3764092 0.6633639,6.3799275 0.6696215,6.3824184 0.6763891,6.3843488 0.6763891,6.3843488 0.6814949,6.3847142 0.6863693,6.3844121 0.6887036,6.3837818 0.6915334,6.3823716 0.698162,6.3768539 0.698162,6.3768539 0.7143615,6.3581984 0.7143615,6.3581984 0.7188887,6.3529877 0.7229973,6.3482393 0.7311562,6.3386741 0.7486888,6.3175525 0.7486888,6.3175525 0.7569019,6.3074354 0.7643138,6.2976027 0.7643138,6.2976027 0.7747019,6.2840056 0.7747019,6.2840056 0.7978421,6.2521594 0.8082237,6.2357095 0.8171789,6.2186274 0.8242184,6.2011153 0.8296225,6.1831897 0.8340551,6.1643953 0.8381803,6.1442767 0.8381803,6.1442767 0.8379373,6.1269482 0.8369175,6.1100182 0.8343432,6.0937572 0.8322302,6.0859621 0.8294371,6.0784361 0.8259305,6.0712306 0.8218178,6.0643495 0.812273,6.0514722 0.8014932,6.0393184 0.7900406,6.0274411 0.7900406,6.0274411 0.7674911,6.0174776 0.7450316,6.0089541 0.7338637,6.0056823 0.722752,6.0033106 0.7117556,6.0020249 0.7008114,6.001996 0.6895784,6.0033592 0.6777731,6.0062299 0.6658722,6.0104264 0.6540387,6.0156998 0.6422589,6.0218346 0.6305196,6.0286154 0.6071081,6.0432539 0.6071081,6.0432539 0.6155194,6.0286246 0.6224495,6.0134554 0.6269083,5.9973918 0.6298858,5.9807757 0.6298858,5.9807757 0.6309439,5.9660939 0.6307774,5.9515315 0.6285675,5.9376439 0.6247953,5.92323 0.6247953,5.92323 0.6204252,5.9139586 0.6154796,5.9050532 0.6096236,5.8968517 0.603043,5.8888832 0.603043,5.8888832 0.5978747,5.8836035 0.5931304,5.8787943 0.5836252,5.8694165 0.5628595,5.8500124 0.5628595,5.8500124 0.5434437,5.8314322 0.5351426,5.8222103 0.5311493,5.8174147 0.5268166,5.8120926 0.5268166,5.8120926 0.5242281,5.8010959 0.523541,5.7957168 0.5235978,5.790336 0.5241023,5.7871962 0.5251348,5.7836155 0.5291021,5.77553 0.534718,5.7676246 0.5411346,5.7598765z" transform="matrix(1,0,0,-1,11.2687417,11.1316372)" fill="rgb(133,133,133)" fill-rule="nonzero" shaper:cutDepth="0.002" stroke-linecap="round" stroke-linejoin="round" /><path d="M1.0016697,5.1351867 L0.9825393,5.1723721 0.9825393,5.1723721 0.9799704,5.1803369 0.9800608,5.1847505 0.982041,5.1910777 0.982041,5.1910777 0.9904521,5.20039 1.0002217,5.2088656 1.0002217,5.2088656 1.0101951,5.2172823 1.014246,5.2219263 1.0181298,5.2272253 1.0181298,5.2272253 1.0200412,5.2332781 1.0205227,5.2390953 1.0191594,5.2448677 1.0168671,5.2504776 1.0007877,5.2842063 1.0007877,5.2842063 1.0008029,5.2901669 1.0015355,5.2956637 1.0032572,5.2997151 1.0058227,5.3027816 1.0126556,5.307461 1.020843,5.3113072 1.020843,5.3113072 1.0346158,5.3167198 1.0490477,5.319842 1.0490477,5.319842 1.0540317,5.3205144 1.0587385,5.3203364 1.0627637,5.3186223 1.0665301,5.3155476 1.0831546,5.2806755 1.0831546,5.2806755 1.0854509,5.2765313 1.0881499,5.2729452 1.0897982,5.2715206 1.0920846,5.2702639 1.0987889,5.2684841 1.0987889,5.2684841 1.1057655,5.2694503 1.1122651,5.2707654 1.1258237,5.2750579 1.1258237,5.2750579 1.1392346,5.2791854 1.1456587,5.2802289 1.1525593,5.2807876 1.1525593,5.2807876 1.1582196,5.2784868 1.1628117,5.2752318 1.1662341,5.2706449 1.1689846,5.2654653 1.1886069,5.2243048 1.0016697,5.1351867z" transform="matrix(1,0,0,-1,11.2687417,11.1316372)" fill="rgb(133,133,133)" fill-rule="nonzero" shaper:cutDepth="0.002" stroke-linecap="round" stroke-linejoin="round" /><path d="M1.7114963,3.6454099 L1.11118,3.6365796 1.1075472,3.9278833 1.1449073,3.9285117 1.1449073,3.9285117 1.1500144,3.9278615 1.1547117,3.9264215 1.1585857,3.9237018 1.1621534,3.9199342 1.1621534,3.9199342 1.1655701,3.9133019 1.1685512,3.9069257 1.1740094,3.8928973 1.1740094,3.8928973 1.1793292,3.879639 1.1852002,3.8677495 1.1852002,3.8677495 1.1884516,3.8645504 1.1920405,3.8622993 1.1961676,3.8613258 1.2005147,3.8610396 1.6159088,3.8680264 1.6159088,3.8680264 1.6228318,3.8692903 1.6260244,3.8712985 1.6297119,3.8758593 1.6297119,3.8758593 1.6323378,3.8820371 1.6344332,3.8880108 1.6375177,3.9013267 1.6375177,3.9013267 1.6412093,3.9152842 1.6438687,3.9216062 1.647202,3.9280925 1.647202,3.9280925 1.6516102,3.9323047 1.6562952,3.935258 1.6619075,3.93674 1.6679492,3.9373091 1.7065758,3.9379587 1.7114963,3.6454099z" transform="matrix(1,0,0,-1,11.2687417,11.1316372)" fill="rgb(133,133,133)" fill-rule="nonzero" shaper:cutDepth="0.002" stroke-linecap="round" stroke-linejoin="round" /><path d="M1.618872,2.6126185 L1.132708,2.7252929 1.132708,2.7252929 1.1271493,2.7260292 1.1218887,2.7258728 1.1193628,2.7251386 1.1165879,2.7235851 1.1110085,2.7186203 1.1110085,2.7186203 1.1063782,2.7096386 1.1022978,2.7009397 1.0945968,2.6814677 1.0945968,2.6814677 1.0906683,2.6708621 1.086201,2.6605315 1.0811003,2.6512638 1.0750022,2.6418023 1.0750022,2.6418023 1.0701626,2.6375615 1.0650384,2.6342188 1.0620517,2.6331017 1.0577845,2.6324766 1.0470352,2.6333317 1.0094007,2.6420539 1.1014318,3.0335372 1.1014318,3.0335372 1.1058454,3.0354423 1.1101972,3.0365437 1.1148122,3.0365284 1.1195196,3.0358461 1.1195196,3.0358461 1.1264383,3.0334564 1.1331377,3.0300895 1.1331377,3.0300895 1.1446189,3.023528 1.1446189,3.023528 1.1495386,3.0210768 1.1538303,3.0180023 1.1569447,3.0139754 1.159463,3.0090361 1.159463,3.0090361 1.1611012,3.0025137 1.1621623,2.9962795 1.1625239,2.9829728 1.1625239,2.9829728 1.1625231,2.9702263 1.163877,2.9579555 1.163877,2.9579555 1.166942,2.9516193 1.1681798,2.9503045 1.1701647,2.9489492 1.1755912,2.9467893 1.5803166,2.8529893 1.5803166,2.8529893 1.5877321,2.8527964 1.5894883,2.8532479 1.5916288,2.8543013 1.5965085,2.858338 1.5965085,2.858338 1.6002931,2.8636587 1.6034878,2.8688967 1.6088715,2.8808266 1.6088715,2.8808266 1.6153287,2.8928984 1.6192522,2.8981476 1.6238454,2.9033601 1.6238454,2.9033601 1.6295031,2.9063002 1.6350793,2.9079583 1.6411737,2.9079685 1.6474408,2.906993 1.6850753,2.8982707 1.618872,2.6126185z" transform="matrix(1,0,0,-1,11.2687417,11.1316372)" fill="rgb(133,133,133)" fill-rule="nonzero" shaper:cutDepth="0.002" stroke-linecap="round" stroke-linejoin="round" /><path d="M0.6722325,0.6542735 L0.2147157,1.0430357 0.4038533,1.2646164 0.4323784,1.2404815 0.4323784,1.2404815 0.4357929,1.2366284 0.4383788,1.2324509 0.4395024,1.2278529 0.4397053,1.222668 0.4397053,1.222668 0.4379077,1.2154272 0.435951,1.208666 0.430818,1.1945154 0.430818,1.1945154 0.4260881,1.1810353 0.4226744,1.1682222 0.4226744,1.1682222 0.4230138,1.1636735 0.4242315,1.1596158 0.4266957,1.156165 0.4297781,1.1530864 0.7469381,0.8847386 0.7469381,0.8847386 0.7529798,0.8811297 0.7567048,0.8805378 0.7624834,0.8815408 0.7624834,0.8815408 0.7685283,0.8844595 0.7740397,0.8875742 0.7851312,0.895562 0.7851312,0.895562 0.7971022,0.9036326 0.8032673,0.9066378 0.8100477,0.9093229 0.8100477,0.9093229 0.816139,0.9095888 0.8216094,0.9087251 0.8268085,0.9061436 0.8317293,0.9025923 0.8612213,0.8776393 0.6722325,0.6542735z" transform="matrix(1,0,0,-1,11.2687417,11.1316372)" fill="rgb(133,133,133)" fill-rule="nonzero" shaper:cutDepth="0.002" stroke-linecap="round" stroke-linejoin="round" /><path d="M0.0150223,7.20036 L-0.0110202,7.1209201 -0.5271395,7.4251559 -0.4784381,7.486898 -0.4784381,7.486898 -0.4734094,7.4916995 -0.467962,7.4954902 -0.4648921,7.4967168 -0.4611646,7.4975004 -0.452153,7.4979112 -0.452153,7.4979112 -0.4406702,7.4958413 -0.4299772,7.4933203 -0.4078264,7.4858588 -0.4078264,7.4858588 -0.3870385,7.4790098 -0.3772703,7.4765184 -0.366872,7.4743161 -0.366872,7.4743161 -0.3614221,7.4745927 -0.3563603,7.4756209 -0.3539164,7.4767574 -0.3511261,7.4788981 -0.3456926,7.4853874 -0.3456926,7.4853874 -0.3422334,7.4934223 -0.340318,7.5020591 -0.340318,7.5020591 -0.3371581,7.5104361 -0.3343231,7.5181378 -0.3291619,7.5334797 -0.3201017,7.5665607 -0.3201017,7.5665607 -0.3163405,7.5836197 -0.3151523,7.5921119 -0.314795,7.6005586 -0.3154551,7.6086476 -0.3170205,7.6164543 -0.3193175,7.6244542 -0.3221723,7.6331227 -0.3221723,7.6331227 -0.3329153,7.6405275 -0.34295,7.6473743 -0.3629323,7.6605246 -0.4054659,7.6863901 -0.4054659,7.6863901 -0.4284916,7.6997994 -0.4390211,7.7057285 -0.4500333,7.7118 -0.4500333,7.7118 -0.4683802,7.7218285 -0.4683802,7.7218285 -0.4723855,7.725402 -0.4756989,7.7293169 -0.4769398,7.7316412 -0.4779831,7.7350399 -0.4788106,7.7441005 -0.4788106,7.7441005 -0.477613,7.7521444 -0.4757526,7.7598036 -0.4727626,7.7672016 -0.4691176,7.7743921 -0.4691176,7.7743921 -0.4646842,7.7809327 -0.4597566,7.7870059 -0.4540381,7.7922558 -0.4477273,7.7970876 -0.4477273,7.7970876 -0.443026,7.7996915 -0.438259,7.8015601 -0.4358064,7.8019908 -0.4328039,7.8019218 -0.4248359,7.7998122 -0.2928307,7.7194381 -0.2460515,8.2059641 -0.0974615,8.3265877 0.1145813,8.203667 -0.0304735,7.3305766 -0.0304735,7.3305766 -0.030819,7.318367 -0.030445,7.3126174 -0.0294326,7.3069523 -0.0276684,7.3013741 -0.0253089,7.2959336 -0.0195981,7.2852821 -0.0195981,7.2852821 0.0084222,7.2416779 0.0084222,7.2416779 0.0135381,7.2318619 0.015518,7.2268664 0.0168043,7.221766 0.0172289,7.2165964 0.0169258,7.2113605 0.0150223,7.20036z" transform="matrix(1,0,0,-1,11.2687417,11.1316372)" fill="rgb(133,133,133)" fill-rule="nonzero" shaper:cutDepth="0.002" stroke-linecap="round" stroke-linejoin="round" /><path d="M-5.2092361,7.3398665 L-5.4487533,7.1578207 -5.4487533,7.1578207 -5.4614099,7.1517646 -5.4675963,7.1495805 -5.4736381,7.1484066 -5.4796817,7.1486382 -5.4836349,7.1497808 -5.488322,7.1521477 -5.4929165,7.1554187 -5.4973643,7.1593168 -5.5060679,7.1681841 -5.5060679,7.1681841 -5.5121994,7.1782656 -5.5171139,7.1884883 -5.520436,7.1995368 -5.5227745,7.2109743 -5.5227745,7.2109743 -5.5234839,7.2195877 -5.5230963,7.2278573 -5.5221337,7.2317958 -5.5202629,7.2359822 -5.5135671,7.2453698 -5.5135671,7.2453698 -5.4821276,7.2747973 -5.467598,7.2903503 -5.4544966,7.3069103 -5.4432148,7.3246065 -5.4334375,7.3432619 -5.4245819,7.3627525 -5.4160649,7.382954 -5.4160649,7.382954 -5.412166,7.4049184 -5.4094108,7.426031 -5.4087568,7.4363408 -5.4087423,7.4465251 -5.4094852,7.4566132 -5.4111032,7.4666329 -5.4136334,7.4765001 -5.416945,7.4861441 -5.4253121,7.5047244 -5.4352317,7.5226679 -5.4459903,7.5404581 -5.4459903,7.5404581 -5.4677262,7.5623627 -5.4790968,7.5720461 -5.4910705,7.5802069 -5.4973494,7.5835591 -5.5044306,7.5865528 -5.5130187,7.5891622 -5.5235015,7.5911607 -5.535869,7.5923037 -5.548748,7.59253 -5.5751244,7.5914216 -5.5751244,7.5914216 -5.5976898,7.5855515 -5.6189852,7.5794908 -5.6394669,7.5726066 -5.6595907,7.5642661 -5.6793455,7.5542041 -5.698528,7.5428677 -5.735939,7.5180708 -5.735939,7.5180708 -5.7413332,7.5155075 -5.7467686,7.5137814 -5.7496866,7.5134901 -5.7537084,7.5138966 -5.7636839,7.5172304 -5.7636839,7.5172304 -5.7718244,7.5221265 -5.7791789,7.5275585 -5.7857456,7.5341391 -5.79178,7.541345 -5.79178,7.541345 -5.7966636,7.5488509 -5.8007791,7.5566776 -5.8035293,7.5648886 -5.8055114,7.57373 -5.8055114,7.57373 -5.8057748,7.5799858 -5.805236,7.5859386 -5.8044071,7.588727 -5.8027505,7.5919048 -5.7997897,7.595738 -5.796231,7.5995119 -5.796231,7.5995119 -5.7654734,7.6304402 -5.7509832,7.6465341 -5.7375599,7.6633829 -5.7258481,7.6806224 -5.7156006,7.6982705 -5.7059275,7.7170254 -5.6959391,7.7375853 -5.6959391,7.7375853 -5.6924255,7.7569048 -5.6900228,7.7751926 -5.6895009,7.7840704 -5.6895725,7.7928353 -5.6903426,7.8015355 -5.6919145,7.8102124 -5.6942902,7.8187475 -5.6973415,7.8270757 -5.7049378,7.8430807 -5.7138981,7.8585695 -5.7235897,7.8739223 -5.7235897,7.8739223 -5.7359578,7.8866327 -5.7486381,7.8986617 -5.7619431,7.909328 -5.7689273,7.9139372 -5.7761847,7.9179501 -5.7836386,7.9212576 -5.7912323,7.923883 -5.8070229,7.9274959 -5.823923,7.9296053 -5.8422991,7.9310275 -5.8422991,7.9310275 -5.8535925,7.9284112 -5.8642515,7.9258714 -5.8841709,7.9206267 -5.9030653,7.9145031 -5.9219433,7.9067105 -5.9409048,7.8970012 -5.9593196,7.8860188 -5.9952339,7.8619342 -5.9952339,7.8619342 -6.0020376,7.8585522 -6.0089508,7.8563886 -6.0126363,7.8561315 -6.0171039,7.8566114 -6.0272954,7.859474 -6.0272954,7.859474 -6.036644,7.8650068 -6.0450384,7.8711565 -6.0525398,7.8786668 -6.0594241,7.886907 -6.0594241,7.886907 -6.0647043,7.8949695 -6.0691447,7.9033804 -6.0720726,7.9121708 -6.0741538,7.9217049 -6.0741538,7.9217049 -6.074133,7.9284263 -6.0732307,7.9347841 -6.0721586,7.9377475 -6.0702116,7.9410489 -6.0633464,7.9486172 -5.838121,8.1137789 -5.838121,8.1137789 -5.8090609,8.132841 -5.7942005,8.1416922 -5.7789435,8.1497275 -5.7632087,8.1567621 -5.7470812,8.1629774 -5.7141206,8.1740592 -5.7141206,8.1740592 -5.6810698,8.1807169 -5.6645249,8.1830428 -5.6479565,8.1841653 -5.6314511,8.1838111 -5.614985,8.1822288 -5.5814847,8.1769064 -5.5814847,8.1769064 -5.5650257,8.1712389 -5.5493193,8.1652913 -5.5343557,8.1585252 -5.5201252,8.150402 -5.5067455,8.1406521 -5.4941653,8.1296449 -5.4703374,8.1055352 -5.4703374,8.1055352 -5.4567617,8.0744684 -5.444465,8.0434223 -5.439196,8.0279135 -5.4347264,8.0124177 -5.4312161,7.9969375 -5.4288249,7.9814755 -5.4280873,7.9735828 -5.427694,7.9650907 -5.4277484,7.9559219 -5.4283558,7.9460154 -5.4296215,7.9353106 -5.4316509,7.9237466 -5.4345493,7.9112627 -5.4383429,7.8980497 -5.4478765,7.871565 -5.4594167,7.8451128 -5.4722947,7.8186824 -5.4858415,7.7922628 -5.4858415,7.7922628 -5.4594925,7.805345 -5.4463069,7.8110078 -5.4327799,7.8157854 -5.418829,7.8195051 -5.4046009,7.8223402 -5.375683,7.8265363 -5.375683,7.8265363 -5.3452465,7.8272208 -5.3301194,7.8268214 -5.3151015,7.8255319 -5.3002222,7.8231551 -5.2854557,7.8198876 -5.2560761,7.8118582 -5.2560761,7.8118582 -5.2297053,7.801169 -5.2169171,7.7951756 -5.2046053,7.7884037 -5.1930035,7.7807516 -5.1819839,7.7723471 -5.1711671,7.7632772 -5.1601734,7.7536285 -5.1601734,7.7536285 -5.1436278,7.7286193 -5.1359171,7.7158363 -5.1288807,7.7027191 -5.1226893,7.6892326 -5.1171928,7.6754353 -5.107258,7.6470271 -5.107258,7.6470271 -5.1008407,7.6188186 -5.0983126,7.6046568 -5.0966012,7.590426 -5.0958892,7.5761217 -5.0959967,7.5617554 -5.0975826,7.5328418 -5.0975826,7.5328418 -5.1025573,7.5049899 -5.1056654,7.4912647 -5.1095185,7.4777804 -5.1142795,7.4645991 -5.1197854,7.4516648 -5.1320665,7.4261513 -5.1320665,7.4261513 -5.148446,7.4016494 -5.1569976,7.3901227 -5.166223,7.3790967 -5.176266,7.3686565 -5.1869178,7.3587586 -5.2092361,7.3398665z" transform="matrix(1,0,0,-1,11.2687417,11.1316372)" fill="rgb(133,133,133)" fill-rule="nonzero" shaper:cutDepth="0.002" stroke-linecap="round" stroke-linejoin="round" /><path d="M-6.3544242,1.0613807 L-6.3544242,1.0613807 -6.3358222,1.0740826 -6.3262112,1.0796538 -6.3162278,1.0842895 -6.3057892,1.0877819 -6.2949782,1.0903389 -6.2727358,1.0938937 -6.2727358,1.0938937 -6.2492834,1.0933702 -6.2379602,1.0923967 -6.2267478,1.090567 -6.2156534,1.0877118 -6.2047268,1.0840353 -6.1831534,1.0753136 -6.1831534,1.0753136 -6.1609869,1.0625605 -6.1504951,1.0558271 -6.1403952,1.0484879 -6.130753,1.0404145 -6.1215407,1.0317864 -6.1038324,1.0136055 -6.1038324,1.0136055 -6.0980765,1.0067359 -6.0927527,1.0003919 -6.0822285,0.9879212 -6.0600174,0.9619077 -6.0600174,0.9619077 -6.0024345,0.893654 -6.0024345,0.893654 -5.9988054,0.8863923 -5.9974961,0.8828322 -5.9967914,0.8793399 -5.9969415,0.8757554 -5.9976593,0.8733326 -5.9990626,0.8705491 -6.0031765,0.8652007 -6.0082264,0.8600087 -6.0082264,0.8600087 -6.0131866,0.8565538 -6.0183523,0.8536873 -6.0298056,0.8503004 -6.0298056,0.8503004 -6.0384162,0.850097 -6.0426858,0.8515566 -6.048207,0.85559 -6.048207,0.85559 -6.0682059,0.8738181 -6.0786614,0.8821149 -6.0896638,0.8894307 -6.1010001,0.8953375 -6.1126707,0.9000262 -6.1251038,0.9040557 -6.1387276,0.9079846 -6.1387276,0.9079846 -6.161448,0.9083311 -6.1722764,0.9073879 -6.1827713,0.9051172 -6.1928778,0.901252 -6.2026124,0.8961024 -6.2214618,0.8836625 -6.2214618,0.8836625 -6.2319082,0.8691973 -6.2416453,0.8547094 -6.2499638,0.8401759 -6.2533456,0.8329414 -6.2559381,0.8262205 -6.2577861,0.8200818 -6.2589936,0.8144766 -6.2599055,0.8046152 -6.2593555,0.7952906 -6.2576158,0.7861004 -6.2548808,0.7770385 -6.2512761,0.7679878 -6.2469355,0.758948 -6.2419952,0.7499277 -6.2308044,0.73191 -6.2186364,0.7138626 -6.2186364,0.7138626 -6.2161721,0.7094499 -6.2147933,0.7049999 -6.2149054,0.7003099 -6.2158171,0.6956151 -6.2158171,0.6956151 -6.2182395,0.6900506 -6.2211604,0.6849311 -6.2249712,0.6803716 -6.2292976,0.676168 -6.2292976,0.676168 -6.2354325,0.6714426 -6.2416134,0.6679873 -6.2448375,0.6671186 -6.2485607,0.6671742 -6.2512678,0.6679141 -6.2542336,0.6692208 -6.2601955,0.672713 -6.3598096,0.7925006 -6.3598096,0.7925006 -6.3747226,0.8131731 -6.3815647,0.8237801 -6.3877024,0.8347562 -6.392983,0.8461842 -6.397558,0.8579724 -6.4055316,0.8821492 -6.4055316,0.8821492 -6.4101633,0.9067663 -6.4117094,0.9190772 -6.4123315,0.931391 -6.4118234,0.9436815 -6.4103841,0.9559567 -6.4059167,0.9806707 -6.4059167,0.9806707 -6.3975027,1.0037441 -6.3925484,1.0147421 -6.3866722,1.025167 -6.3796727,1.0348973 -6.3717624,1.0440474 -6.3544242,1.0613807z" transform="matrix(1,0,0,-1,11.2687417,11.1316372)" fill="rgb(133,133,133)" fill-rule="nonzero" shaper:cutDepth="0.002" stroke-linecap="round" stroke-linejoin="round" /><path d="M-6.6746841,2.6025256 L-6.6746841,2.6025256 -6.6704746,2.6041496 -6.6668158,2.6062898 -6.6652977,2.6077986 -6.6639029,2.6100125 -6.661819,2.6157699 -6.661819,2.6157699 -6.6616059,2.6234794 -6.6617499,2.6307453 -6.6633358,2.646164 -6.6633358,2.646164 -6.6646124,2.6621195 -6.6642067,2.6696726 -6.6631787,2.6776577 -6.6631787,2.6776577 -6.6609823,2.6823551 -6.6582828,2.6865093 -6.6564636,2.6883203 -6.6535255,2.6902763 -6.6451297,2.6935888 -6.6022821,2.7049643 -6.5070532,2.3462691 -6.5468402,2.3357062 -6.5468402,2.3357062 -6.5521087,2.3349035 -6.5572355,2.3347443 -6.559725,2.3351126 -6.5625697,2.3360497 -6.5696399,2.3401372 -6.5696399,2.3401372 -6.575117,2.3463229 -6.5798793,2.352461 -6.5884582,2.3665932 -6.5884582,2.3665932 -6.5964635,2.3799102 -6.6049526,2.3917005 -6.6049526,2.3917005 -6.6085535,2.3940308 -6.612315,2.3956087 -6.6168689,2.3958633 -6.6222053,2.3949831 -7.0029364,2.293904 -7.0029364,2.293904 -7.0103452,2.2916824 -7.0171992,2.2887127 -7.0202742,2.2866894 -7.0233297,2.2838848 -7.0295549,2.2756978 -7.0295549,2.2756978 -7.0312911,2.2674379 -7.0319051,2.2596228 -7.031068,2.2513083 -7.029387,2.2429799 -7.029387,2.2429799 -7.0262796,2.2281624 -7.0254553,2.2212828 -7.0249722,2.2140104 -7.0249722,2.2140104 -7.0282516,2.2071582 -7.0296468,2.2056427 -7.0320545,2.2039475 -7.0386119,2.2012157 -7.0848071,2.187641 -7.1813361,2.551233 -7.1327791,2.560848 -7.1327791,2.560848 -7.126865,2.5609509 -7.1216012,2.5597201 -7.1170658,2.5560883 -7.1131267,2.5509947 -7.1131267,2.5509947 -7.1062174,2.5384839 -7.0998553,2.525687 -7.0998553,2.525687 -7.0967858,2.5196357 -7.0931941,2.5139814 -7.0887482,2.5090165 -7.0837238,2.5044149 -7.0837238,2.5044149 -7.0765009,2.5012967 -7.0695105,2.499746 -7.0619192,2.5001723 -7.054191,2.5017715 -6.6746841,2.6025256z" transform="matrix(1,0,0,-1,11.2687417,11.1316372)" fill="rgb(133,133,133)" fill-rule="nonzero" shaper:cutDepth="0.002" stroke-linecap="round" stroke-linejoin="round" /><path d="M-6.568224,4.7332908 L-6.5173953,4.7344884 -6.6018733,4.354271 -6.6463021,4.3704738 -6.6463021,4.3704738 -6.6525849,4.3744873 -6.6537946,4.3758517 -6.655001,4.3778894 -6.6569934,4.3838337 -6.6569934,4.3838337 -6.6576938,4.3913652 -6.6580331,4.3984924 -6.6575727,4.4137818 -6.6575727,4.4137818 -6.6572858,4.4285606 -6.657442,4.4351981 -6.6578042,4.4423572 -6.6578042,4.4423572 -6.6604784,4.4482244 -6.661638,4.4494262 -6.663411,4.4505865 -6.6679349,4.4523531 -6.6679349,4.4523531 -6.6731045,4.4525084 -6.6789938,4.4521793 -6.6789938,4.4521793 -6.6893057,4.4525173 -6.6990334,4.4524235 -6.7195176,4.4506721 -6.7195176,4.4506721 -6.7300301,4.4491921 -6.7399525,4.4464052 -6.7443805,4.4442249 -6.7484528,4.4415583 -6.7566969,4.4348192 -6.7566969,4.4348192 -6.7591619,4.4269436 -6.7613541,4.4197602 -6.7654067,4.4052191 -6.772842,4.372874 -6.7827226,4.3277104 -6.7827226,4.3277104 -6.7864957,4.3215571 -6.7885741,4.3188798 -6.7906029,4.3169027 -6.7940173,4.314899 -6.7974773,4.3140411 -6.8050874,4.3141758 -6.813251,4.3155887 -6.813251,4.3155887 -6.8207488,4.3175252 -6.8272727,4.3202784 -6.8299392,4.3222883 -6.8321831,4.3252599 -6.8332628,4.3278502 -6.8340542,4.330993 -6.8349624,4.3378424 -6.812475,4.4347045 -7.1008794,4.3610103 -7.1965805,4.4273275 -7.1624721,4.5832348 -6.634811,4.6778428 -6.634811,4.6778428 -6.6274765,4.6801292 -6.6210739,4.6833315 -6.6155164,4.6881753 -6.6105466,4.6939281 -6.6105466,4.6939281 -6.5905742,4.7200283 -6.5905742,4.7200283 -6.586043,4.7252203 -6.5809458,4.7294274 -6.5750336,4.7318771 -6.568224,4.7332908z" transform="matrix(1,0,0,-1,11.2687417,11.1316372)" fill="rgb(133,133,133)" fill-rule="nonzero" shaper:cutDepth="0.002" stroke-linecap="round" stroke-linejoin="round" /><path d="M-6.0101325,6.6922921 L-5.980123,6.6640003 -5.980123,6.6640003 -5.9757592,6.660197 -5.972035,6.6560426 -5.9694776,6.6509336 -5.9679548,6.6439748 -5.9679548,6.6439748 -5.9708717,6.6256175 -5.9752428,6.6055376 -5.9752428,6.6055376 -5.9774293,6.5941741 -5.9786077,6.5828135 -5.9780398,6.5721857 -5.9761233,6.5609393 -5.9073858,6.3396696 -5.994477,6.3528645 -6.0476272,6.5018084 -6.0476272,6.5018084 -6.04945,6.5055323 -6.0518456,6.5086186 -6.0518456,6.5086186 -6.0609532,6.5113891 -6.065278,6.5119704 -6.0697736,6.5117821 -6.0785395,6.5094753 -6.0871178,6.5058526 -6.0871178,6.5058526 -6.1041607,6.4986016 -6.111193,6.4944233 -6.1180079,6.4895462 -6.1180079,6.4895462 -6.1236729,6.4926694 -6.1298483,6.4961112 -6.1298483,6.4961112 -6.1354912,6.4997661 -6.1403915,6.5032442 -6.1403915,6.5032442 -6.1447882,6.5072749 -6.1483817,6.511739 -6.1504383,6.516675 -6.1515865,6.522459 -6.0101325,6.6922921z" transform="matrix(1,0,0,-1,11.2687417,11.1316372)" fill="rgb(133,133,133)" fill-rule="nonzero" shaper:cutDepth="0.002" stroke-linecap="round" stroke-linejoin="round" /><path d="M-6.8704987,5.4262443 L-6.4224923,5.206378 -6.4224923,5.206378 -6.4172448,5.2044018 -6.4120855,5.2033625 -6.409459,5.2035055 -6.4064043,5.2043901 -6.3998453,5.2079621 -6.3998453,5.2079621 -6.393301,5.2156615 -6.3873563,5.2232101 -6.3754448,5.2404316 -6.3754448,5.2404316 -6.3692162,5.2498717 -6.362525,5.2589219 -6.3554577,5.2667934 -6.347375,5.2746278 -6.347375,5.2746278 -6.3417006,5.2776621 -6.3359524,5.2797572 -6.3327902,5.2801688 -6.3284924,5.2798111 -6.3182161,5.2765434 -6.2835354,5.2595233 -6.461849,4.8990609 -6.461849,4.8990609 -6.4665795,4.898205 -6.4710676,4.898118 -6.4755592,4.8991782 -6.4799897,4.9009091 -6.4799897,4.9009091 -6.4861873,4.9048038 -6.4919499,4.9096006 -6.4919499,4.9096006 -6.5016465,4.9185922 -6.5016465,4.9185922 -6.5058831,4.9220941 -6.5093668,4.9260607 -6.5114882,4.9306884 -6.5128222,4.9360698 -6.5128222,4.9360698 -6.5129404,4.9427937 -6.5125619,4.9491063 -6.5099,4.962149 -6.5099,4.962149 -6.507012,4.974564 -6.5055513,4.9868226 -6.5055513,4.9868226 -6.5071014,4.9936883 -6.5080093,4.9952493 -6.5096355,4.997019 -6.5144318,5.0003519 -6.8873914,5.1833878 -6.8873914,5.1833878 -6.8945706,5.1852554 -6.8963834,5.1852134 -6.8987069,5.1846722 -6.904374,5.1818457 -6.904374,5.1818457 -6.9092655,5.1775206 -6.9135637,5.1731424 -6.9215096,5.162742 -6.9215096,5.162742 -6.9305333,5.1524466 -6.9355439,5.1482225 -6.9411984,5.1441859 -6.9411984,5.1441859 -6.947375,5.1426037 -6.9531818,5.1422518 -6.9591201,5.1436223 -6.9650034,5.145992 -6.9996841,5.1630121 -6.8704987,5.4262443z" transform="matrix(1,0,0,-1,11.2687417,11.1316372)" fill="rgb(133,133,133)" fill-rule="nonzero" shaper:cutDepth="0.002" stroke-linecap="round" stroke-linejoin="round" /><path d="M-6.7098126,3.0949631 L-6.6724848,3.0966401 -6.662281,2.8695101 -6.7021395,2.8677194 -6.7021395,2.8677194 -6.7097769,2.8688069 -6.7114833,2.8695606 -6.7134498,2.8709646 -6.7177216,2.8758947 -6.7177216,2.8758947 -6.72115,2.8827514 -6.724072,2.8893577 -6.7291234,2.9039103 -6.7291234,2.9039103 -6.7348978,2.9185549 -6.7383419,2.9251099 -6.7424232,2.9318406 -6.7424232,2.9318406 -6.7465801,2.9359005 -6.7511143,2.9388077 -6.7563465,2.9400989 -6.7618298,2.940478 -7.0895549,2.925755 -6.9707743,3.0052634 -6.7702167,3.0142735 -6.7702167,3.0142735 -6.7648351,3.0152107 -6.7599011,3.0169479 -6.7556319,3.02018 -6.7516628,3.0246163 -6.7516628,3.0246163 -6.7480344,3.031549 -6.7450114,3.0382822 -6.7402599,3.0530224 -6.7402599,3.0530224 -6.7352515,3.0683635 -6.7320597,3.0754555 -6.7282812,3.0827223 -6.7282812,3.0827223 -6.7252542,3.0868315 -6.7218671,3.0903795 -6.7199041,3.0917812 -6.7173215,3.0930228 -6.7098126,3.0949631z" transform="matrix(1,0,0,-1,11.2687417,11.1316372)" fill="rgb(133,133,133)" fill-rule="nonzero" shaper:cutDepth="0.002" stroke-linecap="round" stroke-linejoin="round" /><path d="M-6.7866468,1.4673065 L-6.3383005,1.6864789 -6.3383005,1.6864789 -6.3335224,1.6894133 -6.3295385,1.6928524 -6.3280414,1.6950153 -6.3268677,1.6979709 -6.325669,1.7053426 -6.325669,1.7053426 -6.3277402,1.715233 -6.3300599,1.7245572 -6.3363641,1.7445252 -6.3363641,1.7445252 -6.3400041,1.7552332 -6.3430525,1.7660676 -6.3449392,1.7764767 -6.3461739,1.7876652 -6.3461739,1.7876652 -6.3450927,1.7940084 -6.3432242,1.7998342 -6.341611,1.8025849 -6.3386937,1.8057612 -6.3298124,1.8118769 -6.2951054,1.8288433 -6.119626,1.4669928 -6.119626,1.4669928 -6.1218496,1.4627307 -6.1245321,1.4591315 -6.1281232,1.4562327 -6.1322067,1.4537934 -6.1322067,1.4537934 -6.1390831,1.4512844 -6.1464055,1.4496721 -6.1464055,1.4496721 -6.1594537,1.4475232 -6.1594537,1.4475232 -6.1648175,1.4463227 -6.170087,1.446002 -6.1750436,1.4471628 -6.1801131,1.4494078 -6.1801131,1.4494078 -6.1854979,1.4534363 -6.1902532,1.457605 -6.198926,1.4677036 -6.198926,1.4677036 -6.2069643,1.477596 -6.2157539,1.4862648 -6.2157539,1.4862648 -6.2221286,1.489249 -6.2239184,1.4894886 -6.2263135,1.4892886 -6.2318869,1.4875424 -6.6051295,1.3050841 -6.6051295,1.3050841 -6.611006,1.3005569 -6.6120841,1.2990989 -6.6130809,1.2969315 -6.6143218,1.2907213 -6.6143218,1.2907213 -6.6139032,1.2842053 -6.613079,1.2781256 -6.6097331,1.2654721 -6.6097331,1.2654721 -6.6071307,1.2520315 -6.606865,1.2454834 -6.6071421,1.2385414 -6.6071421,1.2385414 -6.6096785,1.2326915 -6.6129601,1.2278881 -6.6176832,1.2240365 -6.623162,1.220841 -6.657869,1.2038746 -6.7866468,1.4673065z" transform="matrix(1,0,0,-1,11.2687417,11.1316372)" fill="rgb(133,133,133)" fill-rule="nonzero" shaper:cutDepth="0.002" stroke-linecap="round" stroke-linejoin="round" /><path d="M-5.5569466,-0.1602578 L-5.5316078,-0.0805908 -5.0128177,-0.3802495 -5.0609711,-0.44242 -5.0609711,-0.44242 -5.0659571,-0.4472657 -5.0713708,-0.4511045 -5.0744297,-0.4523582 -5.0781501,-0.4531747 -5.0871578,-0.4536652 -5.0871578,-0.4536652 -5.0986584,-0.4516969 -5.1093734,-0.4492707 -5.1315892,-0.4420054 -5.1315892,-0.4420054 -5.1524369,-0.4353405 -5.1622267,-0.4329356 -5.1726441,-0.4308254 -5.1726441,-0.4308254 -5.1780914,-0.4311502 -5.1831439,-0.432223 -5.1855776,-0.4333811 -5.1883488,-0.4355464 -5.1937248,-0.4420836 -5.1937248,-0.4420836 -5.1971128,-0.4501487 -5.1989517,-0.4588021 -5.1989517,-0.4588021 -5.2020374,-0.4672068 -5.2048041,-0.4749333 -5.2098294,-0.4903202 -5.2185967,-0.52348 -5.2185967,-0.52348 -5.2222068,-0.5405716 -5.2233199,-0.549074 -5.2236025,-0.5575236 -5.2228708,-0.5656064 -5.2212364,-0.5733989 -5.2188688,-0.5813782 -5.2159374,-0.5900211 -5.2159374,-0.5900211 -5.2051294,-0.5973306 -5.1950344,-0.6040884 -5.1749366,-0.6170614 -5.1321759,-0.6425496 -5.1321759,-0.6425496 -5.1090325,-0.6557548 -5.0984509,-0.6615905 -5.0873855,-0.6675644 -5.0873855,-0.6675644 -5.0689506,-0.6774302 -5.0689506,-0.6774302 -5.0649139,-0.6809682 -5.061566,-0.6848536 -5.0603046,-0.6871668 -5.0592313,-0.6905561 -5.0583236,-0.6996091 -5.0583236,-0.6996091 -5.05945,-0.7076633 -5.0612426,-0.7153386 -5.064167,-0.7227628 -5.0677484,-0.7299852 -5.0677484,-0.7299852 -5.0721236,-0.7365648 -5.0769974,-0.7426813 -5.0826692,-0.7479816 -5.0889371,-0.752869 -5.0889371,-0.752869 -5.0936152,-0.7555144 -5.0983654,-0.7574251 -5.1008141,-0.7578775 -5.1038171,-0.757835 -5.1118034,-0.755796 -5.2445143,-0.6765927 -5.2869884,-1.1635134 -5.4345056,-1.2854466 -5.6476274,-1.1644063 -5.5103008,-0.290067 -5.5103008,-0.290067 -5.5100634,-0.2778548 -5.5104882,-0.2721087 -5.5115507,-0.2664528 -5.5133642,-0.2608904 -5.5157717,-0.255471 -5.5215765,-0.2448705 -5.5215765,-0.2448705 -5.5499814,-0.2015158 -5.5499814,-0.2015158 -5.5551838,-0.1917454 -5.5572079,-0.1867677 -5.5585392,-0.1816788 -5.5590096,-0.1765131 -5.5587528,-0.1712748 -5.5569466,-0.1602578z" transform="matrix(1,0,0,-1,11.2687417,11.1316372)" fill="rgb(133,133,133)" fill-rule="nonzero" shaper:cutDepth="0.002" stroke-linecap="round" stroke-linejoin="round" /><path d="M-5.1515643,-0.9469718 L-4.861346,-0.7127552 -4.861346,-0.7127552 -4.8530419,-0.7053408 -4.845251,-0.6974779 -4.8385816,-0.6891298 -4.832198,-0.6798368 -4.832198,-0.6798368 -4.8285774,-0.672485 -4.8259469,-0.6650375 -4.8253091,-0.6612101 -4.8253218,-0.6565995 -4.8262812,-0.650624 -4.8278662,-0.6443419 -4.8278662,-0.6443419 -4.8345007,-0.6345536 -4.8413199,-0.6257709 -4.8578621,-0.6088385 -4.8578621,-0.6088385 -4.8746117,-0.5918919 -4.8817019,-0.5831971 -4.8887226,-0.5735685 -4.8887226,-0.5735685 -4.8915171,-0.5669691 -4.8932357,-0.5603475 -4.8933545,-0.5569187 -4.892721,-0.5527039 -4.889194,-0.5426175 -4.8522426,-0.4681644 -4.5159084,-0.6658703 -4.5468375,-0.7196793 -4.5468375,-0.7196793 -4.5527179,-0.7283634 -4.5595581,-0.7358495 -4.5635072,-0.738735 -4.5677721,-0.7410776 -4.5775377,-0.7451312 -4.5775377,-0.7451312 -4.5903185,-0.7470076 -4.6024251,-0.7479365 -4.6152624,-0.7476844 -4.6281298,-0.7467311 -4.6281298,-0.7467311 -4.6547812,-0.7451346 -4.6674354,-0.7451618 -4.6808361,-0.745655 -4.6808361,-0.745655 -4.6920851,-0.7480082 -4.7023398,-0.7514332 -4.712173,-0.7567691 -4.7215709,-0.7631476 -5.171922,-1.1069326 -5.171922,-1.1069326 -5.175376,-1.108845 -5.1774618,-1.1088943 -5.1799376,-1.1081691 -5.1799376,-1.1081691 -5.1839362,-1.1013204 -5.1864684,-1.0941105 -5.1873645,-1.0853559 -5.1871622,-1.0762583 -5.1871622,-1.0762583 -5.1867783,-1.0603651 -5.1857116,-1.0451375 -5.1835328,-1.0296457 -5.1807207,-1.0142178 -5.1807207,-1.0142178 -5.1775074,-1.0003201 -5.173588,-0.9866706 -5.1686764,-0.9740827 -5.1625975,-0.9610834 -5.1625975,-0.9610834 -5.1575377,-0.953736 -5.1515643,-0.9469718z" transform="matrix(1,0,0,-1,11.2687417,11.1316372)" fill="rgb(133,133,133)" fill-rule="nonzero" shaper:cutDepth="0.002" stroke-linecap="round" stroke-linejoin="round" /><path d="M-6.1979994,0.5959404 L-5.8142898,0.9150295 -5.8142898,0.9150295 -5.8103423,0.9190117 -5.8072859,0.9232962 -5.8063434,0.925752 -5.8059028,0.9289014 -5.8064835,0.9363474 -5.8064835,0.9363474 -5.8108374,0.9454663 -5.8152987,0.9539761 -5.8261511,0.9718839 -5.8261511,0.9718839 -5.8322228,0.9814257 -5.8377497,0.9912304 -5.8420471,1.0008968 -5.8458957,1.0114749 -5.8458957,1.0114749 -5.846347,1.0178938 -5.8459109,1.0239964 -5.8449947,1.0270507 -5.8429124,1.0308274 -5.8357316,1.038872 -5.8060282,1.063573 -5.550273,0.7540425 -5.550273,0.7540425 -5.5516468,0.7495138 -5.5535461,0.7455308 -5.5564004,0.7419714 -5.559776,0.7387268 -5.559776,0.7387268 -5.5658629,0.7346611 -5.5725954,0.731361 -5.5725954,0.731361 -5.578945,0.7286986 -5.5851687,0.7266709 -5.5851687,0.7266709 -5.5891818,0.7241029 -5.5933135,0.7221359 -5.5981283,0.7213398 -5.605364,0.7222319 -5.605364,0.7222319 -5.6168319,0.7281592 -5.6274867,0.7359584 -5.6274867,0.7359584 -5.6374364,0.7434949 -5.6478257,0.7495209 -5.6478257,0.7495209 -5.6547257,0.750911 -5.6565214,0.7507201 -5.658801,0.7499587 -5.6638026,0.7469426 -5.9840458,0.4822788 -5.9840458,0.4822788 -5.9886834,0.4764891 -5.9893857,0.4748174 -5.989841,0.4724755 -5.9895764,0.4661482 -5.9895764,0.4661482 -5.9855349,0.4540698 -5.9796272,0.4422982 -5.9796272,0.4422982 -5.9736656,0.4296168 -5.9717733,0.4232098 -5.970329,0.4162596 -5.970329,0.4162596 -5.9712146,0.4100784 -5.9731231,0.4047511 -5.9767118,0.399985 -5.9812159,0.3956746 -6.0117291,0.3719475 -6.1979994,0.5959404z" transform="matrix(1,0,0,-1,11.2687417,11.1316372)" fill="rgb(133,133,133)" fill-rule="nonzero" shaper:cutDepth="0.002" stroke-linecap="round" stroke-linejoin="round" /><path d="M-6.7512637,3.8341896 L-6.7057111,3.8362361 -6.6898228,3.4825713 -6.737906,3.4804111 -6.737906,3.4804111 -6.7427034,3.4807072 -6.747184,3.4817597 -6.7510575,3.4840595 -6.7546966,3.4872642 -6.7546966,3.4872642 -6.7623129,3.4990846 -6.7691197,3.5119743 -6.7691197,3.5119743 -6.7757466,3.5247694 -6.7793605,3.5303614 -6.7835143,3.5360517 -6.7835143,3.5360517 -6.7872372,3.5390261 -6.7911203,3.5411149 -6.7955627,3.542046 -6.8002765,3.5422722 -7.2899662,3.5202728 -7.3030692,3.8119356 -7.2575166,3.813982 -7.2575166,3.813982 -7.2528325,3.8133676 -7.2485085,3.8121003 -7.2465095,3.8109691 -7.2443332,3.8091575 -7.2399512,3.803994 -7.2399512,3.803994 -7.2362356,3.7968577 -7.2331029,3.7899606 -7.2278599,3.7747415 -7.2278599,3.7747415 -7.2220873,3.7590685 -7.2183558,3.7520669 -7.2138421,3.7449416 -7.2138421,3.7449416 -7.2094932,3.7404483 -7.2046494,3.7371232 -7.1990432,3.7356025 -7.1931134,3.7350956 -6.8059168,3.7524904 -6.8059168,3.7524904 -6.7979903,3.7537722 -6.7944131,3.7558323 -6.7904126,3.7601605 -6.7904126,3.7601605 -6.7863641,3.7742703 -6.7828627,3.7896614 -6.7828627,3.7896614 -6.7789216,3.8068421 -6.7760155,3.8145382 -6.7722914,3.8224678 -6.7722914,3.8224678 -6.7687243,3.8269169 -6.7646862,3.8305537 -6.7622277,3.8318813 -6.7590097,3.8329496 -6.7512637,3.8341896z" transform="matrix(1,0,0,-1,11.2687417,11.1316372)" fill="rgb(133,133,133)" fill-rule="nonzero" shaper:cutDepth="0.002" stroke-linecap="round" stroke-linejoin="round" /><path d="M-6.9525125,4.3220687 L-6.7675099,4.1927792 -6.7675099,4.1927792 -6.7555905,4.1858379 -6.7497923,4.1832987 -6.7434975,4.181043 -6.7434975,4.181043 -6.7382081,4.180378 -6.733094,4.1803924 -6.7306345,4.1808731 -6.727831,4.1819638 -6.7209155,4.1864753 -6.7209155,4.1864753 -6.7163774,4.1924751 -6.7124628,4.1983824 -6.7056799,4.211667 -6.7056799,4.211667 -6.6995342,4.2251217 -6.6959274,4.2310697 -6.6916816,4.2371293 -6.6916816,4.2371293 -6.6855208,4.2426212 -6.6836904,4.2435062 -6.6810624,4.2441639 -6.6739136,4.2442631 -6.6248445,4.2374178 -6.6817301,3.98925 -6.7169949,3.996965 -6.7169949,3.996965 -6.722947,3.99874 -6.7283987,4.0012671 -6.7328344,4.0049692 -6.7368891,4.0097451 -6.7368891,4.0097451 -6.7402647,4.0177331 -6.7430064,4.0254327 -6.747232,4.0424775 -6.747232,4.0424775 -6.7509718,4.0597753 -6.7530461,4.0677139 -6.7554481,4.0760412 -6.7554481,4.0760412 -6.7587388,4.0818989 -6.7624785,4.0869419 -6.7672819,4.0913788 -6.7726161,4.0953561 -7.0488921,4.3023116 -7.0488921,4.3023116 -7.0502058,4.303832 -7.0505573,4.3048735 -7.0505547,4.3065651 -7.0505547,4.3065651 -7.0440383,4.3131053 -7.0406156,4.315743 -7.0366017,4.3180434 -7.0268398,4.321483 -7.0163334,4.3237135 -7.0163334,4.3237135 -7.0028484,4.3265353 -6.9893145,4.3283023 -6.9762965,4.3282298 -6.9624886,4.3268444 -6.9624886,4.3268444 -6.9573329,4.3249433 -6.9525125,4.3220687z" transform="matrix(1,0,0,-1,11.2687417,11.1316372)" fill="rgb(133,133,133)" fill-rule="nonzero" shaper:cutDepth="0.002" stroke-linecap="round" stroke-linejoin="round" /><path d="M-5.7312229,6.1781076 L-5.6893729,6.1432507 -5.9293177,5.8551672 -5.9663014,5.8859709 -5.9663014,5.8859709 -5.9699679,5.8894308 -5.9730273,5.8931629 -5.9741493,5.8952387 -5.9749996,5.8978762 -5.9757125,5.9053484 -5.9757125,5.9053484 -5.9738987,5.9135081 -5.9718859,5.9211417 -5.9664767,5.9372181 -5.9664767,5.9372181 -5.9615166,5.9552014 -5.9602049,5.9639892 -5.9594314,5.9733848 -5.9594314,5.9733848 -5.9608979,5.9814301 -5.9635604,5.9884569 -5.968239,5.9947102 -5.9740339,6.0003832 -6.0522184,6.0638546 -6.3576048,6.1088611 -6.3576048,6.1088611 -6.3667858,6.1087172 -6.3752767,6.1076134 -6.3839505,6.1050292 -6.3924704,6.1016354 -6.3924704,6.1016354 -6.4066254,6.0957193 -6.4197941,6.0906005 -6.4197941,6.0906005 -6.4250288,6.0911363 -6.4296682,6.092535 -6.434232,6.0953087 -6.4385273,6.0987855 -6.4774575,6.1312105 -6.2533199,6.4003156 -6.2143896,6.3678906 -6.2143896,6.3678906 -6.2110272,6.3640863 -6.2086224,6.3599846 -6.2076213,6.3553531 -6.2074117,6.3505397 -6.2074117,6.3505397 -6.2083273,6.3435931 -6.2096223,6.337134 -6.213973,6.3238603 -6.213973,6.3238603 -6.2179963,6.3126169 -6.2214274,6.3020459 -6.2214274,6.3020459 -6.221278,6.2975369 -6.2201322,6.295067 -6.2173705,6.2920732 -6.2173705,6.2920732 -6.2138182,6.2904707 -6.2094231,6.2887506 -5.921549,6.2336038 -5.8273046,6.1518107 -5.8273046,6.1518107 -5.820361,6.1478154 -5.8185012,6.1473388 -5.8160589,6.1472192 -5.8094646,6.1484907 -5.8094646,6.1484907 -5.8026393,6.1522532 -5.796376,6.1561385 -5.7836021,6.1656878 -5.7836021,6.1656878 -5.7696304,6.1755918 -5.7624759,6.1793304 -5.7545772,6.1827236 -5.7545772,6.1827236 -5.7494302,6.1837869 -5.7444194,6.1841229 -5.741919,6.1837719 -5.7387624,6.1826838 -5.7312229,6.1781076z" transform="matrix(1,0,0,-1,11.2687417,11.1316372)" fill="rgb(133,133,133)" fill-rule="nonzero" shaper:cutDepth="0.002" stroke-linecap="round" stroke-linejoin="round" /><path d="M-6.1892497,5.6457034 L-6.1892497,5.6457034 -6.1814884,5.6505588 -6.1775302,5.6521844 -6.1734778,5.6528639 -6.1690368,5.6524984 -6.1644904,5.6512658 -6.155274,5.6473715 -6.155274,5.6473715 -6.1446025,5.641302 -6.1402427,5.637665 -6.1372846,5.633732 -6.1357231,5.6299431 -6.1348422,5.6259108 -6.1340912,5.6172225 -6.1340912,5.6172225 -6.1376372,5.5893527 -6.14053,5.5759921 -6.1441628,5.5622005 -6.1441628,5.5622005 -6.1472578,5.5536661 -6.1501206,5.5458586 -6.1559654,5.530514 -6.16918,5.4982874 -6.16918,5.4982874 -6.1724469,5.4892362 -6.1766925,5.4801048 -6.1766925,5.4801048 -6.1845424,5.4657643 -6.1933709,5.4521683 -6.2036008,5.440182 -6.2153965,5.4285525 -6.2153965,5.4285525 -6.2293194,5.4199457 -6.2361646,5.4163813 -6.243344,5.413399 -6.2509312,5.4110854 -6.2587374,5.4093559 -6.2747148,5.4068702 -6.2747148,5.4068702 -6.2866867,5.4071886 -6.2975979,5.4078011 -6.3080465,5.4090382 -6.3186307,5.4112309 -6.3294243,5.4145086 -6.3400405,5.4185788 -6.3609748,5.4280396 -6.388833,5.4417115 -6.388833,5.4417115 -6.4011923,5.4473941 -6.4137833,5.4523729 -6.4262382,5.4559686 -6.4396592,5.4588951 -6.4396592,5.4588951 -6.4517388,5.459181 -6.4631423,5.4579789 -6.4743026,5.4544204 -6.4851902,5.449494 -6.4851902,5.449494 -6.4938892,5.440061 -6.5016714,5.4313624 -6.5089541,5.4226926 -6.5161549,5.4133456 -6.5301447,5.3927457 -6.5432409,5.3714576 -6.5432409,5.3714576 -6.5474189,5.3674289 -6.5515592,5.3646405 -6.554637,5.363775 -6.5575212,5.363805 -6.5634519,5.3654289 -6.5695571,5.3681469 -6.5695571,5.3681469 -6.5789836,5.3742922 -6.5828409,5.3782559 -6.5863761,5.3827504 -6.5863761,5.3827504 -6.5885274,5.3873906 -6.5898893,5.3920987 -6.5897629,5.3972672 -6.5882287,5.4034127 -6.5882287,5.4034127 -6.581947,5.4191142 -6.5763094,5.4350164 -6.571887,5.450868 -6.5680284,5.4675733 -6.5680284,5.4675733 -6.5664953,5.4816199 -6.5664084,5.4955389 -6.5687399,5.5090664 -6.5726861,5.5227693 -6.5726861,5.5227693 -6.5770017,5.5299843 -6.5812298,5.5365077 -6.5857562,5.542449 -6.5909668,5.547918 -6.5969785,5.5528672 -6.6035164,5.5572788 -6.6174685,5.5652055 -6.6174685,5.5652055 -6.6306846,5.5692311 -6.6370652,5.5705484 -6.6435488,5.5711549 -6.6501677,5.5709291 -6.6568165,5.5700238 -6.6701638,5.5670807 -6.6701638,5.5670807 -6.684622,5.5616457 -6.6982124,5.5551516 -6.7108706,5.5467441 -6.7229073,5.5372333 -6.7229073,5.5372333 -6.7331179,5.5278377 -6.7425574,5.5178151 -6.7504076,5.5070611 -6.7577155,5.4950566 -6.7577155,5.4950566 -6.7625774,5.4912362 -6.7675253,5.4882898 -6.7719502,5.4870692 -6.7761239,5.4871778 -6.7802258,5.4881489 -6.7843793,5.4897363 -6.7928282,5.4939466 -6.7928282,5.4939466 -6.7988769,5.4973824 -6.8045166,5.5013086 -6.8093667,5.5059818 -6.8139166,5.5113507 -6.8139166,5.5113507 -6.8163553,5.5158512 -6.8180906,5.5204164 -6.8184793,5.5228028 -6.8183618,5.5259624 -6.8160692,5.5342766 -6.8160692,5.5342766 -6.805756,5.5567286 -6.805756,5.5567286 -6.8028765,5.5630019 -6.8002454,5.5687033 -6.7948969,5.580081 -6.782887,5.6047646 -6.782887,5.6047646 -6.7770581,5.6164194 -6.7711578,5.627227 -6.7711578,5.627227 -6.7630557,5.6422985 -6.7630557,5.6422985 -6.7435889,5.6765139 -6.7328852,5.6927561 -6.7210175,5.7079597 -6.7079678,5.7215954 -6.6938669,5.7339119 -6.6785738,5.7457019 -6.6619477,5.7577578 -6.6619477,5.7577578 -6.6460616,5.7646836 -6.6302181,5.7707375 -6.6143429,5.7750993 -6.6063702,5.7763895 -6.5983622,5.7769492 -6.5903518,5.7767267 -6.582387,5.7758183 -6.5667192,5.7724345 -6.5512013,5.7676272 -6.5356576,5.762093 -6.5356576,5.762093 -6.5172804,5.7456604 -6.5002522,5.7287158 -6.4926654,5.7198915 -6.4859217,5.7107473 -6.480215,5.7012601 -6.4756747,5.6913021 -6.4722834,5.6805068 -6.4700294,5.6685684 -6.4689438,5.6559961 -6.4688669,5.643041 -6.4695969,5.6297796 -6.4709322,5.6162885 -6.4746114,5.5889234 -6.4746114,5.5889234 -6.4647536,5.6026198 -6.4537931,5.6151896 -6.4409986,5.625877 -6.4270898,5.6354428 -6.4270898,5.6354428 -6.4141515,5.6424623 -6.4008168,5.648317 -6.387254,5.6520318 -6.3725673,5.6545405 -6.3725673,5.6545405 -6.3623188,5.6543835 -6.3521665,5.6535512 -6.3422797,5.6515992 -6.3323063,5.6488911 -6.3323063,5.6488911 -6.3253649,5.6463605 -6.3190271,5.6440222 -6.3065637,5.6392311 -6.280322,5.6283173 -6.280322,5.6283173 -6.2553878,5.6182934 -6.243563,5.6145349 -6.2375472,5.6128751 -6.2309118,5.6111232 -6.2309118,5.6111232 -6.2198264,5.6133008 -6.2146428,5.6148935 -6.2097645,5.6171646 -6.2071123,5.6189191 -6.2042762,5.6213366 -6.1985468,5.6282857 -6.1936615,5.6366623 -6.1892497,5.6457034z" transform="matrix(1,0,0,-1,11.2687417,11.1316372)" fill="rgb(133,133,133)" fill-rule="nonzero" shaper:cutDepth="0.002" stroke-linecap="round" stroke-linejoin="round" /><path d="M-7.0571443,3.4178891 L-6.6935367,3.3112377 -6.6935367,3.3112377 -6.6885739,3.3081766 -6.6844289,3.3045587 -6.6827298,3.3020185 -6.681327,3.2983559 -6.6798885,3.2896625 -6.6798885,3.2896625 -6.6799717,3.2841746 -6.6808339,3.2790851 -6.6818269,3.2767695 -6.6835746,3.2743687 -6.6891301,3.2695949 -7.1590765,3.0056793 -7.1590765,3.0056793 -7.1657219,3.0009289 -7.1711457,2.9955561 -7.1751571,2.9888204 -7.1782704,2.9813608 -7.1782704,2.9813608 -7.181514,2.9704574 -7.1841234,2.9599963 -7.1877258,2.9378274 -7.1877258,2.9378274 -7.1908137,2.9188996 -7.1926944,2.9103147 -7.1949631,2.901367 -7.1949631,2.901367 -7.1970319,2.8976446 -7.1994973,2.8944658 -7.2011204,2.8931745 -7.2035082,2.8920191 -7.2096925,2.8905621 -7.2616286,2.8894968 -7.2744189,3.1742001 -7.0184322,3.3181961 -7.284907,3.4076568 -7.0571443,3.4178891z" transform="matrix(1,0,0,-1,11.2687417,11.1316372)" fill="rgb(133,133,133)" fill-rule="nonzero" shaper:cutDepth="0.002" stroke-linecap="round" stroke-linejoin="round" /><path d="M-6.5424144,2.1400717 L-6.5424144,2.1400717 -6.5414927,2.1491801 -6.5403506,2.1533039 -6.5384032,2.1569221 -6.535392,2.1602067 -6.5316312,2.1630431 -6.5229046,2.1679374 -6.5229046,2.1679374 -6.5115674,2.1726478 -6.5060213,2.1738628 -6.5011006,2.1737889 -6.4971499,2.1726999 -6.4934241,2.170924 -6.4860994,2.1661913 -6.4860994,2.1661913 -6.4662541,2.1463049 -6.4574717,2.135829 -6.4488024,2.1245044 -6.4488024,2.1245044 -6.443957,2.1168274 -6.4395435,2.1097794 -6.4310032,2.0957551 -6.4136428,2.0655591 -6.4136428,2.0655591 -6.4084945,2.0574294 -6.4038826,2.0484774 -6.4038826,2.0484774 -6.3973649,2.0334845 -6.3920352,2.0181748 -6.3888364,2.0027445 -6.3868793,1.9862961 -6.3868793,1.9862961 -6.3886143,1.9700199 -6.3899945,1.9624267 -6.3920394,1.9549262 -6.3948626,1.9475135 -6.3982815,1.9402858 -6.4061121,1.9261389 -6.4061121,1.9261389 -6.4137027,1.9168756 -6.4208754,1.9086304 -6.428258,1.9011337 -6.4364787,1.8941156 -6.445685,1.8875972 -6.4554087,1.8817048 -6.4757165,1.8709651 -6.5035959,1.8573363 -6.5035959,1.8573363 -6.515662,1.8510552 -6.5273141,1.8441595 -6.5377901,1.8365236 -6.5483296,1.8277141 -6.5483296,1.8277141 -6.5559605,1.8183456 -6.5620014,1.8085993 -6.5660314,1.7976005 -6.5688135,1.7859786 -6.5688135,1.7859786 -6.5666935,1.7733231 -6.5645917,1.7618423 -6.5622064,1.7507736 -6.5592358,1.7393546 -6.5515366,1.7156736 -6.5427458,1.6922767 -6.5427458,1.6922767 -6.5421241,1.6865061 -6.5424592,1.6815256 -6.5436621,1.6785634 -6.5454539,1.6763031 -6.5503725,1.6726129 -6.5562625,1.6694556 -6.5562625,1.6694556 -6.5668963,1.6657752 -6.5723926,1.6651575 -6.5781107,1.6651196 -6.5781107,1.6651196 -6.5830955,1.6662645 -6.5876502,1.6680747 -6.591656,1.671343 -6.5955709,1.6763224 -6.5955709,1.6763224 -6.6041253,1.6909107 -6.6132332,1.7051132 -6.623046,1.7183246 -6.6338789,1.7316138 -6.6338789,1.7316138 -6.6440369,1.7414359 -6.6549805,1.7500372 -6.6670974,1.7564878 -6.6803427,1.7617701 -6.6803427,1.7617701 -6.6886886,1.7627835 -6.6964344,1.763442 -6.7039033,1.763508 -6.7114183,1.7627439 -6.7190139,1.7610282 -6.7265071,1.7585672 -6.7413227,1.7524033 -6.7413227,1.7524033 -6.752605,1.7444295 -6.7575571,1.7401959 -6.7620109,1.7354452 -6.76589,1.7300774 -6.7692506,1.7242695 -6.7751075,1.71192 -6.7751075,1.71192 -6.7796766,1.6971653 -6.7828771,1.682447 -6.7839944,1.6672922 -6.7838589,1.6519521 -6.7838589,1.6519521 -6.782695,1.6381253 -6.7805632,1.6245235 -6.7768791,1.6117289 -6.7718747,1.5985961 -6.7718747,1.5985961 -6.7718368,1.5924129 -6.7725421,1.5866976 -6.7742903,1.5824533 -6.7769346,1.5792224 -6.7802164,1.5765769 -6.7840168,1.5742685 -6.7925225,1.5701742 -6.7925225,1.5701742 -6.798945,1.5675016 -6.8055041,1.5654527 -6.8121695,1.5644855 -6.8192005,1.5641821 -6.8192005,1.5641821 -6.8242512,1.5650143 -6.8289218,1.5664418 -6.8310455,1.5675976 -6.8334697,1.5696274 -6.8386331,1.5765355 -6.8386331,1.5765355 -6.8500495,1.5984471 -6.8500495,1.5984471 -6.8532407,1.6045678 -6.8561322,1.6101416 -6.8618426,1.621342 -6.873982,1.6459622 -6.873982,1.6459622 -6.8796168,1.6577121 -6.8845385,1.668999 -6.8845385,1.668999 -6.8914793,1.6846393 -6.8914793,1.6846393 -6.9065781,1.7209942 -6.912849,1.7394075 -6.9175857,1.758104 -6.9203591,1.7767731 -6.9214459,1.795464 -6.9213857,1.814774 -6.9207185,1.8353003 -6.9207185,1.8353003 -6.9164519,1.8520971 -6.9115225,1.8683257 -6.9052368,1.883542 -6.9013687,1.8906319 -6.8969018,1.8973019 -6.8918155,1.9034942 -6.8862152,1.9092301 -6.8739371,1.9195343 -6.8606262,1.9288475 -6.8467252,1.9377355 -6.8467252,1.9377355 -6.8224768,1.9421812 -6.7986507,1.9452473 -6.7870281,1.9458319 -6.7756695,1.9455542 -6.7646757,1.9442471 -6.7540249,1.9417298 -6.7434169,1.9377914 -6.7326031,1.9322537 -6.7220046,1.9254043 -6.7117221,1.9175233 -6.7016922,1.908817 -6.6918519,1.8994917 -6.6724871,1.8798096 -6.6724871,1.8798096 -6.6772651,1.8959941 -6.6804771,1.9123591 -6.6810776,1.9290193 -6.6801088,1.9458722 -6.6801088,1.9458722 -6.6777232,1.9603974 -6.6741743,1.9745218 -6.668795,1.9875145 -6.6617739,2.0006559 -6.6617739,2.0006559 -6.6553673,2.0086566 -6.6484861,2.0161675 -6.6408831,2.0227821 -6.6326296,2.0290016 -6.6326296,2.0290016 -6.6263751,2.0329344 -6.6206424,2.0365083 -6.6092168,2.0434182 -6.5845075,2.0574605 -6.5845075,2.0574605 -6.5613027,2.0710153 -6.5510845,2.0780537 -6.5460852,2.081789 -6.5406335,2.0859575 -6.5406335,2.0859575 -6.5355584,2.0960506 -6.5336391,2.1011223 -6.5324429,2.1063688 -6.5322032,2.1095398 -6.5323746,2.1132625 -6.5343526,2.122049 -6.5379759,2.1310437 -6.5424144,2.1400717z" transform="matrix(1,0,0,-1,11.2687417,11.1316372)" fill="rgb(133,133,133)" fill-rule="nonzero" shaper:cutDepth="0.002" stroke-linecap="round" stroke-linejoin="round" /><path d="M-5.5744778,7.064745 L-5.9384174,6.7953153 -5.9945642,6.8711572 -5.9945642,6.8711572 -5.9990637,6.8831228 -6.0000448,6.8889161 -5.9996596,6.8941779 -5.9980003,6.8993123 -5.9953899,6.9043307 -5.9885964,6.9141861 -5.9885964,6.9141861 -5.9491523,6.9630864 -5.9491523,6.9630864 -5.941199,6.9749798 -5.9386062,6.981062 -5.9376786,6.9865822 -5.9380738,6.9914304 -5.9393116,6.9962788 -5.9431845,7.0061154 -6.3240418,7.5184401 -6.3240418,7.5184401 -6.3316783,7.5277091 -6.3358006,7.5318363 -6.3402873,7.5353543 -6.3450409,7.5380013 -6.3500545,7.539886 -6.355522,7.5413197 -6.3616374,7.5426139 -6.3616374,7.5426139 -6.3684188,7.5417736 -6.3745819,7.5408587 -6.38647,7.5380378 -6.3986196,7.5333554 -6.4104962,7.5277184 -6.4104962,7.5277184 -6.4317914,7.5175712 -6.441829,7.5136471 -6.4525326,7.5099938 -6.4525326,7.5099938 -6.4584817,7.5103163 -6.4640379,7.5114459 -6.4669601,7.512794 -6.4706092,7.5155437 -6.4776536,7.5237034 -6.53267,7.5980183 -6.1712755,7.8655639 -5.5744778,7.064745z" transform="matrix(1,0,0,-1,11.2687417,11.1316372)" fill="rgb(133,133,133)" fill-rule="nonzero" shaper:cutDepth="0.002" stroke-linecap="round" stroke-linejoin="round" /><path d="M-0.3833856,7.9906288 L-0.6756642,7.7589884 -0.6756642,7.7589884 -0.6840336,7.7516477 -0.6918937,7.743854 -0.6986367,7.7355653 -0.7051022,7.7263291 -0.7051022,7.7263291 -0.7087877,7.7190096 -0.711484,7.7115856 -0.7121557,7.7077641 -0.7121837,7.7031535 -0.7112772,7.6971698 -0.7097478,7.6908739 -0.7097478,7.6908739 -0.7032002,7.6810273 -0.6964589,7.6721846 -0.6800672,7.6551066 -0.6800672,7.6551066 -0.6634681,7.6380124 -0.6564551,7.6292554 -0.6495199,7.619565 -0.6495199,7.619565 -0.6467838,7.6129411 -0.6451239,7.6063046 -0.6450353,7.6028749 -0.6457062,7.5986658 -0.6493222,7.588611 -0.6869307,7.5144877 -1.021503,7.7151607 -0.9900992,7.7686941 -0.9900992,7.7686941 -0.9841422,7.7773259 -0.977236,7.7847512 -0.9732616,7.7876016 -0.9689761,7.7899063 -0.9591751,7.7938734 -0.9591751,7.7938734 -0.9463782,7.7956367 -0.9342638,7.7964585 -0.9214292,7.7960928 -0.9085708,7.7950258 -0.9085708,7.7950258 -0.8819346,7.7931936 -0.8692807,7.7931089 -0.855876,7.7934835 -0.855876,7.7934835 -0.8446067,7.7957371 -0.8343221,7.7990713 -0.8244421,7.8043201 -0.8149881,7.8106152 -0.3616138,8.1504033 -0.3616138,8.1504033 -0.358143,8.152285 -0.3560569,8.1523159 -0.3535876,8.1515689 -0.3535876,8.1515689 -0.3496498,8.1446851 -0.3471815,8.1374531 -0.3463628,8.1286908 -0.3466456,8.1195954 -0.3466456,8.1195954 -0.34717,8.1037062 -0.3483713,8.0884886 -0.3506871,8.0730167 -0.3536356,8.0576143 -0.3536356,8.0576143 -0.3569716,8.0437456 -0.3610116,8.0301312 -0.3660344,8.0175873 -0.3722281,8.0046423 -0.3722281,8.0046423 -0.3773527,7.9973399 -0.3833856,7.9906288z" transform="matrix(1,0,0,-1,11.2687417,11.1316372)" fill="rgb(133,133,133)" fill-rule="nonzero" shaper:cutDepth="0.002" stroke-linecap="round" stroke-linejoin="round" /><path d="M0.430065,0.3680559 L0.2476458,0.5240591 0.2860981,0.5695058 0.2860981,0.5695058 0.2911387,0.5747547 0.2965662,0.5791406 0.2995777,0.580754 0.3033826,0.5819837 0.3085453,0.5827572 0.3141756,0.5830809 0.3141756,0.5830809 0.3248058,0.5792844 0.3345044,0.5749024 0.344444,0.5690584 0.3540805,0.562591 0.3540805,0.562591 0.3748336,0.5485881 0.3850919,0.5426962 0.3962169,0.5368945 0.3962169,0.5368945 0.4061204,0.5335734 0.4157409,0.5318195 0.4258202,0.5322275 0.4360096,0.5339207 0.4360096,0.5339207 0.4437648,0.5370971 0.4507124,0.5402174 0.4571588,0.5436753 0.4634102,0.5478646 0.4694798,0.5528976 0.475186,0.558455 0.4859909,0.5704424 0.4859909,0.5704424 0.4981885,0.5858392 0.4981885,0.5858392 0.5083408,0.5988186 0.5083408,0.5988186 0.5204448,0.611725 0.5269333,0.6168291 0.5342982,0.6216538 0.5342982,0.6216538 0.5397346,0.6225926 0.545,0.6227609 0.5477401,0.6222573 0.5513812,0.6207907 0.55955,0.6152209 0.6043274,0.5740165 0.430065,0.3680559z" transform="matrix(1,0,0,-1,11.2687417,11.1316372)" fill="rgb(133,133,133)" fill-rule="nonzero" shaper:cutDepth="0.002" stroke-linecap="round" stroke-linejoin="round" /><path d="M0.7167038,1.6173598 L0.6506627,1.6844309 0.7131159,1.812536 1.24643,1.7738545 1.24643,1.7738545 1.2520225,1.7738564 1.2573307,1.7745442 1.262454,1.776342 1.2674275,1.7787902 1.2674275,1.7787902 1.2800398,1.7865265 1.2921967,1.7953094 1.2921967,1.7953094 1.3036788,1.8033675 1.3094675,1.8065596 1.3158156,1.8095716 1.3158156,1.8095716 1.3209109,1.8104535 1.3257666,1.8105196 1.3305911,1.8093433 1.3353422,1.8074378 1.3725713,1.7870401 1.2135063,1.4721815 1.2135063,1.4721815 1.1991097,1.4796365 1.1855817,1.4871257 1.1855817,1.4871257 1.171199,1.4951676 1.171199,1.4951676 1.1667949,1.4980906 1.1630638,1.5015514 1.1604853,1.5058837 1.1585748,1.5108432 1.1585748,1.5108432 1.1576812,1.5178998 1.1572627,1.5245797 1.1579421,1.5388883 1.1579421,1.5388883 1.1593021,1.5516417 1.1598321,1.563515 1.1598321,1.563515 1.1583331,1.5682037 1.1576079,1.5692652 1.1563162,1.5705255 1.1525407,1.5729182 1.1525407,1.5729182 1.1487602,1.5739042 1.1446194,1.5741124 0.7167038,1.6173598z" transform="matrix(1,0,0,-1,11.2687417,11.1316372)" fill="rgb(133,133,133)" fill-rule="nonzero" shaper:cutDepth="0.002" stroke-linecap="round" stroke-linejoin="round" /><path d="M1.7178014,3.2705421 L1.4777888,3.267772 1.4767876,3.3272949 1.4767876,3.3272949 1.4771231,3.3345643 1.4783181,3.3414394 1.4795215,3.344637 1.4815744,3.3480683 1.4849496,3.3520509 1.4889728,3.3560029 1.4889728,3.3560029 1.499472,3.360148 1.5096559,3.363239 1.520984,3.3653886 1.5324948,3.3668694 1.5324948,3.3668694 1.5573333,3.3700025 1.5689328,3.3723259 1.5811251,3.3752881 1.5811251,3.3752881 1.5907643,3.3793123 1.5991583,3.3843293 1.6064736,3.3912751 1.6130253,3.3992605 1.6130253,3.3992605 1.6167685,3.4067586 1.6199409,3.4136826 1.6225138,3.4205305 1.6244582,3.4278002 1.6257102,3.435585 1.6263433,3.4435251 1.6265777,3.4596617 1.6265777,3.4596617 1.6256143,3.4792809 1.6256143,3.4792809 1.6247042,3.495734 1.6247042,3.495734 1.6253107,3.5134178 1.626831,3.521532 1.6291948,3.5300132 1.6291948,3.5300132 1.632667,3.5343005 1.636518,3.5378952 1.6389115,3.5393211 1.6426171,3.5406159 1.6524323,3.5418053 1.7132643,3.5402949 1.7178014,3.2705421z" transform="matrix(1,0,0,-1,11.2687417,11.1316372)" fill="rgb(133,133,133)" fill-rule="nonzero" shaper:cutDepth="0.002" stroke-linecap="round" stroke-linejoin="round" /><path d="M1.297948,4.2218649 L1.297948,4.2218649 1.2797718,4.2141234 1.2712229,4.2110915 1.2621164,4.2082389 1.2621164,4.2082389 1.2354377,4.2046803 1.2222772,4.2039205 1.2092024,4.2043643 1.1962264,4.2062696 1.1833555,4.209367 1.1577891,4.2175488 1.1577891,4.2175488 1.1447627,4.2242996 1.1323549,4.2311242 1.1205398,4.2384272 1.1092915,4.2466132 1.0986985,4.255861 1.0887296,4.2659019 1.0698319,4.2873055 1.0698319,4.2873055 1.0522119,4.3140291 1.0443491,4.3274245 1.0373171,4.3413105 1.0312667,4.3558007 1.0260619,4.3706856 1.0170612,4.4011132 1.0170612,4.4011132 1.0185611,4.4068606 1.020525,4.4121565 1.0232678,4.4163863 1.0270225,4.4195421 1.0314422,4.4217766 1.0363328,4.4233998 1.0470573,4.4257285 1.0470573,4.4257285 1.0592045,4.4287302 1.0651168,4.4294743 1.0707962,4.4293148 1.0757066,4.4281532 1.0801279,4.4261337 1.0886138,4.4205323 1.0886138,4.4205323 1.0943698,4.4025816 1.1009639,4.385608 1.104837,4.377793 1.1092339,4.3705888 1.1142446,4.364134 1.1194776,4.3589638 1.1246787,4.3550585 1.1297949,4.352107 1.1405764,4.3476448 1.1522848,4.3442635 1.1644567,4.3414227 1.1644567,4.3414227 1.1801983,4.347674 1.1872725,4.3515225 1.1933927,4.3562432 1.1984837,4.3624171 1.2026674,4.3706004 1.2058274,4.3798077 1.2084563,4.3894968 1.2084563,4.3894968 1.2096127,4.4063218 1.2105273,4.4216296 1.2111434,4.4365413 1.2114042,4.4521781 1.2108141,4.4853377 1.2093593,4.5185215 1.2093593,4.5185215 1.2102482,4.5595955 1.2118713,4.5798915 1.2149087,4.5998982 1.2196408,4.6193399 1.2258085,4.6383323 1.2330724,4.6573611 1.2410935,4.6769118 1.2410935,4.6769118 1.2511759,4.6925333 1.2617257,4.7075645 1.2732103,4.7214151 1.2794492,4.7277132 1.2860971,4.7334948 1.2931767,4.7386969 1.3006439,4.7433604 1.3165742,4.751398 1.3335536,4.7582616 1.3512475,4.764605 1.3512475,4.764605 1.3692442,4.7673362 1.3872403,4.7686667 1.4052651,4.7676694 1.423303,4.7652758 1.423303,4.7652758 1.4410778,4.7606901 1.4583342,4.7549195 1.4748146,4.7471575 1.4908185,4.7382062 1.4908185,4.7382062 1.5062542,4.727086 1.5207344,4.7150372 1.533742,4.7013655 1.5458533,4.6867346 1.5458533,4.6867346 1.5567383,4.6701373 1.5661999,4.6530141 1.5734716,4.6347741 1.5794152,4.6159037 1.5794152,4.6159037 1.5789723,4.610293 1.5775459,4.6051708 1.5745922,4.6008226 1.5708522,4.5969764 1.5708522,4.5969764 1.5607787,4.5901879 1.5493453,4.5860666 1.5493453,4.5860666 1.5376838,4.5846194 1.5259917,4.5857824 1.5259917,4.5857824 1.5220312,4.5866544 1.5184292,4.588033 1.5155443,4.5903696 1.5130477,4.5937999 1.5130477,4.5937999 1.5065731,4.6060822 1.5029567,4.6118602 1.4988647,4.6172434 1.4941929,4.6221478 1.4890526,4.6266543 1.4779915,4.6350039 1.4779915,4.6350039 1.4672881,4.6407735 1.4618257,4.64313 1.4562307,4.6448527 1.4505973,4.6457658 1.4449157,4.6459799 1.4326648,4.6451692 1.4326648,4.6451692 1.4259519,4.6429432 1.419721,4.6399553 1.4143659,4.6357274 1.4094163,4.6305972 1.4094163,4.6305972 1.3998912,4.6175341 1.3917743,4.6038006 1.388666,4.5965771 1.386132,4.5891483 1.3818779,4.5733806 1.3818779,4.5733806 1.3803985,4.5571787 1.379864,4.5412541 1.3808186,4.5252013 1.3826595,4.509158 1.3826595,4.509158 1.3948991,4.4404721 1.3948991,4.4404721 1.3971703,4.4256302 1.398633,4.4107554 1.3986851,4.3964303 1.3977489,4.3812896 1.3977489,4.3812896 1.3940061,4.3560989 1.3914361,4.3440584 1.3879688,4.3322381 1.3834272,4.3206636 1.3780386,4.3093734 1.3658496,4.2872668 1.3658496,4.2872668 1.3518563,4.2676711 1.3443597,4.2584005 1.3362633,4.2497626 1.3275889,4.242059 1.318397,4.2351415 1.3085594,4.2285601 1.297948,4.2218649z" transform="matrix(1,0,0,-1,11.2687417,11.1316372)" fill="rgb(133,133,133)" fill-rule="nonzero" shaper:cutDepth="0.002" stroke-linecap="round" stroke-linejoin="round" /><path d="M0.8780996,4.9057893 L0.7620008,5.1493221 0.8169346,5.178317 0.8169346,5.178317 0.8222392,5.1801119 0.8274961,5.1811729 0.8301144,5.181197 0.8332114,5.1806522 0.8412771,5.177293 0.8412771,5.177293 0.8474274,5.1709222 0.8525829,5.1644344 0.8571273,5.1568482 0.8611389,5.1488754 0.8766732,5.1162901 0.8766732,5.1162901 0.8840711,5.1019473 0.8881748,5.0951205 0.8927635,5.0887083 0.8977426,5.0830659 0.9030965,5.078081 0.9090211,5.073295 0.9157123,5.0682493 0.9157123,5.0682493 0.9250344,5.0643267 0.9345499,5.061681 0.9442327,5.0612144 0.9544063,5.0621399 0.9544063,5.0621399 0.9673869,5.0653156 0.9795259,5.0687526 1.0045539,5.0776275 1.0045539,5.0776275 1.016198,5.081692 1.0279819,5.0851149 1.0391875,5.0872422 1.0512183,5.0886482 1.0512183,5.0886482 1.058143,5.087005 1.0644744,5.0845456 1.0674466,5.0825887 1.0709677,5.0790619 1.0745387,5.0739432 1.0777475,5.0683202 1.1033655,5.014583 0.8780996,4.9057893z" transform="matrix(1,0,0,-1,11.2687417,11.1316372)" fill="rgb(133,133,133)" fill-rule="nonzero" shaper:cutDepth="0.002" stroke-linecap="round" stroke-linejoin="round" /><path d="M0.6221966,6.4709964 L0.2371208,6.1535573 0.2371208,6.1535573 0.2331562,6.149592 0.2300815,6.1453207 0.2291284,6.1428689 0.2286744,6.1397214 0.2292231,6.132273 0.2292231,6.132273 0.2335378,6.1231356 0.2379625,6.1146066 0.248738,6.0966524 0.248738,6.0966524 0.2547687,6.0870847 0.2602534,6.0772564 0.2645092,6.0675716 0.2683124,6.0569771 0.2683124,6.0569771 0.2687362,6.0505563 0.2682739,6.0444557 0.2673446,6.0414053 0.2652461,6.0376375 0.2580308,6.0296239 0.2282216,6.0050506 -0.0266054,6.3161647 -0.0266054,6.3161647 -0.025434,6.3208271 -0.0236622,6.3249516 -0.0208437,6.328606 -0.0174396,6.3319282 -0.0174396,6.3319282 -0.0113353,6.3359677 -0.0045887,6.3392389 -0.0045887,6.3392389 0.0076018,6.3443636 0.0076018,6.3443636 0.0125393,6.3467787 0.0175898,6.3483163 0.0226804,6.3483401 0.028133,6.3473357 0.028133,6.3473357 0.0343071,6.3446701 0.0399016,6.3417217 0.0506853,6.3339172 0.0506853,6.3339172 0.060804,6.3261656 0.0713687,6.3197788 0.0713687,6.3197788 0.0782627,6.3183591 0.0800591,6.3185423 0.082342,6.319294 0.0873565,6.3222885 0.4079272,6.5865526 0.4079272,6.5865526 0.4125895,6.5923224 0.413299,6.5939911 0.4137643,6.596331 0.4135269,6.6026594 0.4135269,6.6026594 0.4116043,6.6088994 0.4093886,6.6146207 0.4031915,6.626149 0.4031915,6.626149 0.3975344,6.6386158 0.395753,6.6449225 0.3944079,6.6517386 0.3944079,6.6517386 0.3955142,6.6580179 0.3975887,6.6634529 0.4012865,6.6682974 0.4058718,6.6726795 0.4356809,6.6972528 0.6221966,6.4709964z" transform="matrix(1,0,0,-1,11.2687417,11.1316372)" fill="rgb(133,133,133)" fill-rule="nonzero" shaper:cutDepth="0.002" stroke-linecap="round" stroke-linejoin="round" /><path d="M1.4200459,5.1641501 L1.2028367,5.0620036 1.1772186,5.1157409 1.1772186,5.1157409 1.1745064,5.1224938 1.1727398,5.1292446 1.1725073,5.1326532 1.1729508,5.1366271 1.1743683,5.1416514 1.1763881,5.1469169 1.1763881,5.1469169 1.1842195,5.1550461 1.1922016,5.1620854 1.2016155,5.1687432 1.2114731,5.1748684 1.2114731,5.1748684 1.2327702,5.188029 1.2423588,5.1949576 1.2522215,5.2027134 1.2522215,5.2027134 1.2593208,5.2103757 1.264875,5.2184243 1.2686472,5.22778 1.2712931,5.2377645 1.2712931,5.2377645 1.2715862,5.2461398 1.2715984,5.253756 1.2710966,5.261054 1.2698481,5.268475 1.2677557,5.2760772 1.2650359,5.2835637 1.258551,5.2983418 1.258551,5.2983418 1.2495309,5.3157911 1.2495309,5.3157911 1.2418734,5.330382 1.2418734,5.330382 1.2350849,5.3467222 1.2330999,5.3547354 1.23173,5.3634326 1.23173,5.3634326 1.2331094,5.3687743 1.2351208,5.3736433 1.2367065,5.3759341 1.2395404,5.3786501 1.2479763,5.3838065 1.3039471,5.4076829 1.4200459,5.1641501z" transform="matrix(1,0,0,-1,11.2687417,11.1316372)" fill="rgb(133,133,133)" fill-rule="nonzero" shaper:cutDepth="0.002" stroke-linecap="round" stroke-linejoin="round" /><path d="M1.6459231,4.332924 L1.4628184,4.2898895 1.44811,4.3469354 1.44811,4.3469354 1.453954,4.3555415 1.4604787,4.3626517 1.468911,4.3688213 1.4781429,4.3741616 1.4781429,4.3741616 1.4868629,4.3788509 1.4952184,4.3840172 1.5021647,4.3894457 1.5088635,4.3956943 1.5088635,4.3956943 1.5240084,4.4189496 1.5303984,4.4309132 1.5353693,4.4432789 1.538455,4.4557168 1.5398863,4.4682688 1.5401993,4.4815128 1.5399303,4.4960271 1.5399303,4.4960271 1.5411379,4.5050425 1.5421864,4.5091752 1.5435327,4.5124296 1.5464682,4.5163984 1.5500179,4.5191343 1.554164,4.5212393 1.5587753,4.5229156 1.5687671,4.5255744 1.5687671,4.5255744 1.5801392,4.5280998 1.5855186,4.5283672 1.59025,4.5275332 1.5937133,4.525923 1.5966849,4.5237921 1.602309,4.5184946 1.602309,4.5184946 1.6041436,4.5045895 1.6048148,4.4914179 1.603935,4.4776171 1.60215,4.4638095 1.60215,4.4638095 1.5995289,4.4413443 1.5993673,4.4312917 1.5998546,4.420983 1.5998546,4.420983 1.6025811,4.4146394 1.6053458,4.4089232 1.6084858,4.4037537 1.612338,4.3990502 1.6170182,4.3948616 1.6222755,4.3911905 1.6337517,4.3847111 1.6459231,4.332924z" transform="matrix(1,0,0,-1,11.2687417,11.1316372)" fill="rgb(133,133,133)" fill-rule="nonzero" shaper:cutDepth="0.002" stroke-linecap="round" stroke-linejoin="round" /><path d="M1.3251482,3.4178545 L1.3231788,3.4596258 1.3231788,3.4596258 1.3241478,3.4679384 1.3260621,3.4719163 1.33049,3.4768507 1.33049,3.4768507 1.3420077,3.4818315 1.354414,3.4854873 1.354414,3.4854873 1.3669813,3.4890047 1.3725943,3.4915483 1.3783273,3.4947571 1.3783273,3.4947571 1.3825787,3.4994704 1.3854315,3.504563 1.3865872,3.5103804 1.3868303,3.5164358 1.3862019,3.5537959 1.3862019,3.5537959 1.3886899,3.5592124 1.3916381,3.5639092 1.3948861,3.5668804 1.398493,3.5686053 1.4066519,3.5700263 1.4156971,3.570127 1.4156971,3.570127 1.4304741,3.5693344 1.4448999,3.5661844 1.4448999,3.5661844 1.4497133,3.5647273 1.4539216,3.5626117 1.4568722,3.5593815 1.4590225,3.5550207 1.4596722,3.5163941 1.4596722,3.5163941 1.4600411,3.5116706 1.4610081,3.5072877 1.4619163,3.5053075 1.4634749,3.5032151 1.4688355,3.498813 1.4688355,3.498813 1.4755838,3.4967962 1.4820429,3.4952947 1.49616,3.493572 1.49616,3.493572 1.5100742,3.4917604 1.5163519,3.4900432 1.5228618,3.4876871 1.5228618,3.4876871 1.5270564,3.4832444 1.5298832,3.4783768 1.5310928,3.4727832 1.5314452,3.4669292 1.532212,3.4213372 1.3251482,3.4178545z" transform="matrix(1,0,0,-1,11.2687417,11.1316372)" fill="rgb(133,133,133)" fill-rule="nonzero" shaper:cutDepth="0.002" stroke-linecap="round" stroke-linejoin="round" /><path d="M1.0285053,1.2096387 L1.0285053,1.2096387 1.0222685,1.2143637 1.0196283,1.2169639 1.017573,1.2198325 1.016221,1.2231352 1.015515,1.2270428 1.0153935,1.2355145 1.0153935,1.2355145 1.0221946,1.2725655 1.0221946,1.2725655 1.0230389,1.2814565 1.0224572,1.2900079 1.0195033,1.2977851 1.014802,1.3054779 0.7950814,1.5340489 0.9125729,1.527475 1.0542252,1.3856114 1.0542252,1.3856114 1.0586331,1.3837843 1.0630809,1.3827448 1.067435,1.38306 1.0720591,1.3843405 1.0720591,1.3843405 1.0827789,1.3907941 1.09341,1.398337 1.09341,1.398337 1.1038739,1.4057101 1.1144732,1.4117692 1.1144732,1.4117692 1.1187275,1.4126426 1.1227378,1.4128025 1.1308911,1.4105092 1.1715385,1.3926342 1.0668519,1.1872496 1.0285053,1.2096387z" transform="matrix(1,0,0,-1,11.2687417,11.1316372)" fill="rgb(133,133,133)" fill-rule="nonzero" shaper:cutDepth="0.002" stroke-linecap="round" stroke-linejoin="round" /><path d="M0.2316471,0.7375256 L0.2576786,0.7702531 0.2576786,0.7702531 0.2638828,0.7758696 0.2679434,0.7776018 0.2745251,0.7783982 0.2745251,0.7783982 0.2864722,0.7745597 0.2982151,0.7691388 0.2982151,0.7691388 0.309988,0.7635079 0.3158868,0.7617246 0.3223141,0.7603629 0.3223141,0.7603629 0.3286175,0.7611092 0.3341183,0.763062 0.3388197,0.766678 0.342991,0.7710742 0.3671259,0.7995992 0.3671259,0.7995992 0.3725657,0.8020361 0.3778776,0.8036283 0.3822785,0.8037245 0.3861287,0.8026467 0.3932036,0.798342 0.400076,0.79246 0.400076,0.79246 0.4106726,0.7821305 0.4194524,0.7702586 0.4194524,0.7702586 0.4221145,0.7659918 0.4238874,0.761628 0.4239799,0.7572541 0.4227256,0.7525566 0.3977725,0.7230646 0.3977725,0.7230646 0.394939,0.7192674 0.3927797,0.7153326 0.3921588,0.7132444 0.3919533,0.7106435 0.3930874,0.7038003 0.3930874,0.7038003 0.3968366,0.6978379 0.4007076,0.6924538 0.4101952,0.6818591 0.4101952,0.6818591 0.4194716,0.6713312 0.4230641,0.6659043 0.4264105,0.6598436 0.4264105,0.6598436 0.4266405,0.6537379 0.4255613,0.6482135 0.4227872,0.6432079 0.4191965,0.638571 0.3897437,0.6037608 0.2316471,0.7375256z" transform="matrix(1,0,0,-1,11.2687417,11.1316372)" fill="rgb(133,133,133)" fill-rule="nonzero" shaper:cutDepth="0.002" stroke-linecap="round" stroke-linejoin="round" /><path d="M-0.3652417,-0.2751215 L-0.1257246,-0.0930757 -0.1257246,-0.0930757 -0.1130679,-0.0870196 -0.1068815,-0.0848355 -0.1008397,-0.0836616 -0.0947962,-0.0838932 -0.090843,-0.0850358 -0.0861559,-0.0874026 -0.0815614,-0.0906737 -0.0771135,-0.0945718 -0.0684099,-0.1034391 -0.0684099,-0.1034391 -0.0622784,-0.1135206 -0.057364,-0.1237433 -0.0540418,-0.1347918 -0.0517033,-0.1462293 -0.0517033,-0.1462293 -0.0509939,-0.1548427 -0.0513816,-0.1631123 -0.0523441,-0.1670508 -0.0542149,-0.1712372 -0.0609107,-0.1806247 -0.0609107,-0.1806247 -0.0923502,-0.2100523 -0.1068798,-0.2256053 -0.1199812,-0.2421653 -0.1312631,-0.2598615 -0.1410403,-0.2785169 -0.1498959,-0.2980075 -0.1584129,-0.3182089 -0.1584129,-0.3182089 -0.1623118,-0.3401734 -0.165067,-0.361286 -0.1657211,-0.3715958 -0.1657355,-0.3817801 -0.1649926,-0.3918682 -0.1633747,-0.4018879 -0.1608445,-0.4117551 -0.1575329,-0.421399 -0.1491658,-0.4399793 -0.1392461,-0.4579229 -0.1284875,-0.4757131 -0.1284875,-0.4757131 -0.1067517,-0.4976177 -0.0953811,-0.5073011 -0.0834073,-0.5154619 -0.0771284,-0.5188141 -0.0700472,-0.5218078 -0.0614591,-0.5244172 -0.0509763,-0.5264157 -0.0386088,-0.5275587 -0.0257298,-0.527785 0.0006466,-0.5266766 0.0006466,-0.5266766 0.0232119,-0.5208065 0.0445074,-0.5147458 0.0649891,-0.5078616 0.0851129,-0.4995211 0.1048677,-0.4894591 0.1240502,-0.4781226 0.1614612,-0.4533258 0.1614612,-0.4533258 0.1668553,-0.4507625 0.1722908,-0.4490364 0.1752088,-0.4487451 0.1792306,-0.4491516 0.189206,-0.4524853 0.189206,-0.4524853 0.1973465,-0.4573815 0.204701,-0.4628135 0.2112678,-0.4693941 0.2173021,-0.4766 0.2173021,-0.4766 0.2221857,-0.4841059 0.2263012,-0.4919326 0.2290514,-0.5001436 0.2310335,-0.508985 0.2310335,-0.508985 0.231297,-0.5152408 0.2307582,-0.5211936 0.2299292,-0.523982 0.2282727,-0.5271598 0.2253119,-0.530993 0.2217532,-0.5347669 0.2217532,-0.5347669 0.1909955,-0.5656952 0.1765054,-0.5817891 0.1630821,-0.5986379 0.1513703,-0.6158774 0.1411227,-0.6335255 0.1314496,-0.6522803 0.1214613,-0.6728403 0.1214613,-0.6728403 0.1179477,-0.6921598 0.1155449,-0.7104476 0.1150231,-0.7193254 0.1150946,-0.7280903 0.1158647,-0.7367904 0.1174367,-0.7454674 0.1198123,-0.7540025 0.1228636,-0.7623307 0.13046,-0.7783357 0.1394203,-0.7938245 0.1491118,-0.8091773 0.1491118,-0.8091773 0.1614799,-0.8218877 0.1741603,-0.8339167 0.1874652,-0.844583 0.1944495,-0.8491922 0.2017069,-0.853205 0.2091607,-0.8565126 0.2167545,-0.859138 0.2325451,-0.8627509 0.2494451,-0.8648602 0.2678212,-0.8662825 0.2678212,-0.8662825 0.2791146,-0.8636661 0.2897737,-0.8611264 0.309693,-0.8558817 0.3285875,-0.8497581 0.3474655,-0.8419655 0.366427,-0.8322562 0.3848418,-0.8212738 0.420756,-0.7971892 0.420756,-0.7971892 0.4275597,-0.7938072 0.4344729,-0.7916436 0.4381585,-0.7913864 0.4426261,-0.7918664 0.4528176,-0.7947289 0.4528176,-0.7947289 0.4621661,-0.8002618 0.4705606,-0.8064115 0.4780619,-0.8139217 0.4849463,-0.822162 0.4849463,-0.822162 0.4902264,-0.8302245 0.4946669,-0.8386354 0.4975947,-0.8474258 0.499676,-0.8569599 0.499676,-0.8569599 0.4996552,-0.8636813 0.4987528,-0.8700391 0.4976808,-0.8730025 0.4957338,-0.8763039 0.4888686,-0.8838722 0.2636431,-1.0490339 0.2636431,-1.0490339 0.2345831,-1.068096 0.2197226,-1.0769472 0.2044657,-1.0849825 0.1887308,-1.0920171 0.1726034,-1.0982324 0.1396427,-1.1093141 0.1396427,-1.1093141 0.106592,-1.1159719 0.090047,-1.1182978 0.0734787,-1.1194203 0.0569732,-1.1190661 0.0405072,-1.1174838 0.0070069,-1.1121614 0.0070069,-1.1121614 -0.0094522,-1.1064939 -0.0251586,-1.1005463 -0.0401221,-1.0937801 -0.0543527,-1.085657 -0.0677324,-1.0759071 -0.0803126,-1.0648999 -0.1041404,-1.0407902 -0.1041404,-1.0407902 -0.1177161,-1.0097233 -0.1300128,-0.9786772 -0.1352818,-0.9631685 -0.1397514,-0.9476727 -0.1432618,-0.9321925 -0.145653,-0.9167305 -0.1463906,-0.9088377 -0.1467838,-0.9003457 -0.1467294,-0.8911769 -0.1461221,-0.8812704 -0.1448564,-0.8705656 -0.142827,-0.8590016 -0.1399285,-0.8465177 -0.1361349,-0.8333047 -0.1266013,-0.80682 -0.1150611,-0.7803678 -0.1021832,-0.7539374 -0.0886363,-0.7275178 -0.0886363,-0.7275178 -0.1149853,-0.7406 -0.1281709,-0.7462628 -0.141698,-0.7510404 -0.1556489,-0.7547601 -0.1698769,-0.7575952 -0.1987948,-0.7617913 -0.1987948,-0.7617913 -0.2292313,-0.7624758 -0.2443585,-0.7620763 -0.2593763,-0.7607869 -0.2742556,-0.7584101 -0.2890221,-0.7551426 -0.3184018,-0.7471132 -0.3184018,-0.7471132 -0.3447725,-0.736424 -0.3575608,-0.7304306 -0.3698726,-0.7236587 -0.3814744,-0.7160066 -0.3924939,-0.7076021 -0.4033107,-0.6985322 -0.4143045,-0.6888835 -0.4143045,-0.6888835 -0.43085,-0.6638743 -0.4385608,-0.6510913 -0.4455972,-0.6379741 -0.4517885,-0.6244876 -0.457285,-0.6106903 -0.4672198,-0.5822821 -0.4672198,-0.5822821 -0.4736371,-0.5540736 -0.4761652,-0.5399118 -0.4778766,-0.525681 -0.4785886,-0.5113767 -0.4784812,-0.4970104 -0.4768952,-0.4680967 -0.4768952,-0.4680967 -0.4719205,-0.4402449 -0.4688124,-0.4265197 -0.4649594,-0.4130354 -0.4601983,-0.3998541 -0.4546925,-0.3869198 -0.4424113,-0.3614063 -0.4424113,-0.3614063 -0.4260318,-0.3369043 -0.4174803,-0.3253777 -0.4082548,-0.3143517 -0.3982119,-0.3039115 -0.3875601,-0.2940136 -0.3652417,-0.2751215z" transform="matrix(1,0,0,-1,11.2687417,11.1316372)" fill="rgb(133,133,133)" fill-rule="nonzero" shaper:cutDepth="0.002" stroke-linecap="round" stroke-linejoin="round" /><path d="M-7.5003786,6.7153852 a0.2,0.2 0 1,1 0.4,0 a0.2,0.2 0 1,1 -0.4,0z" transform="matrix(1,0,0,-1,11.2687417,11.1316372)" fill="rgb(255,255,255)" stroke="rgb(0,0,0)" stroke-width="0.0010cm" stroke-linecap="round" stroke-linejoin="round" shaper:cutDepth="0.006" /><path d="M-7.8003786,0.7823725 a0.25,0.25 0 1,1 0.5,0 a0.25,0.25 0 1,1 -0.5,0z" transform="matrix(1,0,0,-1,11.2687417,11.1316372)" fill="rgb(255,255,255)" stroke="rgb(0,0,0)" stroke-width="0.0010cm" stroke-linecap="round" stroke-linejoin="round" shaper:cutDepth="0.006" /><path d="M-3.0872389,3.5323725 a0.3,0.3 0 1,1 0.6,0 a0.3,0.3 0 1,1 -0.6,0z" transform="matrix(1,0,0,-1,11.2687417,11.1316372)" fill="rgb(255,255,255)" stroke="rgb(0,0,0)" stroke-width="0.0010cm" stroke-linecap="round" stroke-linejoin="round" shaper:cutDepth="0.006" /><path d="M-6.7503786,-0.9496783 a0.2,0.2 0 1,1 0.4,0 a0.2,0.2 0 1,1 -0.4,0z" transform="matrix(1,0,0,-1,11.2687417,11.1316372)" fill="rgb(255,255,255)" stroke="rgb(0,0,0)" stroke-width="0.0010cm" stroke-linecap="round" stroke-linejoin="round" shaper:cutDepth="0.006" /><path d="M-3.1672389,-4.2176275 a0.38,0.38 0 1,1 0.76,0 a0.38,0.38 0 1,1 -0.76,0z" transform="matrix(1,0,0,-1,11.2687417,11.1316372)" fill="rgb(255,255,255)" stroke="rgb(0,0,0)" stroke-width="0.0010cm" stroke-linecap="round" stroke-linejoin="round" shaper:cutDepth="0.006" /><path d="M3.544458,7.4073725 a0.38,0.38 0 1,1 0.76,0 a0.38,0.38 0 1,1 -0.76,0z" transform="matrix(1,0,0,-1,11.2687417,11.1316372)" fill="rgb(255,255,255)" stroke="rgb(0,0,0)" stroke-width="0.0010cm" stroke-linecap="round" stroke-linejoin="round" shaper:cutDepth="0.006" /><path d="M-8.0003786,5.8493598 a0.2,0.2 0 1,1 0.4,0 a0.2,0.2 0 1,1 -0.4,0z" transform="matrix(1,0,0,-1,11.2687417,11.1316372)" fill="rgb(255,255,255)" stroke="rgb(0,0,0)" stroke-width="0.0010cm" stroke-linecap="round" stroke-linejoin="round" shaper:cutDepth="0.006" /><path d="M1.7259008,6.2823725 a0.25,0.25 0 1,1 0.5,0 a0.25,0.25 0 1,1 -0.5,0z" transform="matrix(1,0,0,-1,11.2687417,11.1316372)" fill="rgb(255,255,255)" stroke="rgb(0,0,0)" stroke-width="0.0010cm" stroke-linecap="round" stroke-linejoin="round" shaper:cutDepth="0.006" /><path d="M-9.8789358,7.4073725 a0.38,0.38 0 1,1 0.76,0 a0.38,0.38 0 1,1 -0.76,0z" transform="matrix(1,0,0,-1,11.2687417,11.1316372)" fill="rgb(255,255,255)" stroke="rgb(0,0,0)" stroke-width="0.0010cm" stroke-linecap="round" stroke-linejoin="round" shaper:cutDepth="0.006" /><path d="M2.7759008,4.5503217 a0.2,0.2 0 1,1 0.4,0 a0.2,0.2 0 1,1 -0.4,0z" transform="matrix(1,0,0,-1,11.2687417,11.1316372)" fill="rgb(255,255,255)" stroke="rgb(0,0,0)" stroke-width="0.0010cm" stroke-linecap="round" stroke-linejoin="round" shaper:cutDepth="0.006" /><path d="M-8.7503786,2.5144233 a0.2,0.2 0 1,1 0.4,0 a0.2,0.2 0 1,1 -0.4,0z" transform="matrix(1,0,0,-1,11.2687417,11.1316372)" fill="rgb(255,255,255)" stroke="rgb(0,0,0)" stroke-width="0.0010cm" stroke-linecap="round" stroke-linejoin="round" shaper:cutDepth="0.006" /><path d="M1.5259008,0.3493598 a0.2,0.2 0 1,1 0.4,0 a0.2,0.2 0 1,1 -0.4,0z" transform="matrix(1,0,0,-1,11.2687417,11.1316372)" fill="rgb(255,255,255)" stroke="rgb(0,0,0)" stroke-width="0.0010cm" stroke-linecap="round" stroke-linejoin="round" shaper:cutDepth="0.006" /><path d="M2.0259008,1.2153852 a0.2,0.2 0 1,1 0.4,0 a0.2,0.2 0 1,1 -0.4,0z" transform="matrix(1,0,0,-1,11.2687417,11.1316372)" fill="rgb(255,255,255)" stroke="rgb(0,0,0)" stroke-width="0.0010cm" stroke-linecap="round" stroke-linejoin="round" shaper:cutDepth="0.006" /><path d="M0.7759008,8.0144233 a0.2,0.2 0 1,1 0.4,0 a0.2,0.2 0 1,1 -0.4,0z" transform="matrix(1,0,0,-1,11.2687417,11.1316372)" fill="rgb(255,255,255)" stroke="rgb(0,0,0)" stroke-width="0.0010cm" stroke-linecap="round" stroke-linejoin="round" shaper:cutDepth="0.006" /></svg>