<?xml version="1.0" encoding="utf-8"?>
<!-- Generator: Fusion 360, Shaper Origin Export Add-In, Version 1.6.3  -->
<svg xmlns="http://www.w3.org/2000/svg" xmlns:xlink="http://www.w3.org/1999/xlink" xmlns:shaper="http://www.shapertools.com/namespaces/shaper" shaper:fusionaddin="version:1.6.3" width="18.995262cm" height="19cm" version="1.1" x="0cm" y="0cm" viewBox="0 0 18.995262 19" enable-background="new 0 0 18.995262 19" xml:space="preserve"><path d="M2.4481118,-4.2402541 L2.7457428,-4.7557661 A9.5,9.5 301.8096413 0,1 2.7457428,11.3905101 L2.4481118,10.8749981 1.9284966,11.1749981 2.2261276,11.6905101 A9.5,9.5 61.8096413 0,1 -11.7569578,3.617372 L-11.1616958,3.617372 -11.1616958,3.017372 -11.7569578,3.017372 A9.5,9.5 181.8096413 0,1 2.2261276,-5.0557661 L1.9284966,-4.5402541 2.4481118,-4.2402541z" transform="matrix(1,0,0,-1,11.7569578,12.817372)" fill="rgb(0,0,0)" shaper:cutDepth="0.006" stroke-linecap="round" stroke-linejoin="round" /><path d="M-1.3926857,-1.1444456 a0.25,0.25 0 1,1 0.5,0 a0.25,0.25 0 1,1 -0.5,0z" transform="matrix(1,0,0,-1,11.7569578,12.817372)" fill="rgb(255,255,255)" stroke="rgb(0,0,0)" stroke-width="0.0010cm" stroke-linecap="round" stroke-linejoin="round" shaper:cutDepth="0.006" /><path d="M-3.7735134,-1.1061804 a0.25,0.25 0 1,1 0.5,0 a0.25,0.25 0 1,1 -0.5,0z" transform="matrix(1,0,0,-1,11.7569578,12.817372)" fill="rgb(255,255,255)" stroke="rgb(0,0,0)" stroke-width="0.0010cm" stroke-linecap="round" stroke-linejoin="round" shaper:cutDepth="0.006" /><path d="M0.6883042,0.0128297 a0.25,0.25 0 1,1 0.5,0 a0.25,0.25 0 1,1 -0.5,0z" transform="matrix(1,0,0,-1,11.7569578,12.817372)" fill="rgb(255,255,255)" stroke="rgb(0,0,0)" stroke-width="0.0010cm" stroke-linecap="round" stroke-linejoin="round" shaper:cutDepth="0.006" /><path d="M-3.6307059,7.7791896 a0.25,0.25 0 1,1 0.5,0 a0.25,0.25 0 1,1 -0.5,0z" transform="matrix(1,0,0,-1,11.7569578,12.817372)" fill="rgb(255,255,255)" stroke="rgb(0,0,0)" stroke-width="0.0010cm" stroke-linecap="round" stroke-linejoin="round" shaper:cutDepth="0.006" /><path d="M-6.9352482,4.5791896 a0.25,0.25 0 1,1 0.5,0 a0.25,0.25 0 1,1 -0.5,0z" transform="matrix(1,0,0,-1,11.7569578,12.817372)" fill="rgb(255,255,255)" stroke="rgb(0,0,0)" stroke-width="0.0010cm" stroke-linecap="round" stroke-linejoin="round" shaper:cutDepth="0.006" /><path d="M-5.8162381,0.117372 a0.25,0.25 0 1,1 0.5,0 a0.25,0.25 0 1,1 -0.5,0z" transform="matrix(1,0,0,-1,11.7569578,12.817372)" fill="rgb(255,255,255)" stroke="rgb(0,0,0)" stroke-width="0.0010cm" stroke-linecap="round" stroke-linejoin="round" shaper:cutDepth="0.006" /><path d="M0.3056118,-0.5293352 L0,0 A4.015,4.015 304.2851229 0,1 -0,6.634744 L0.3056118,7.1640793 -0.2140034,7.4640793 -0.5196152,6.934744 A4.015,4.015 64.2851229 0,1 -6.2654721,3.617372 L-6.8766958,3.617372 -6.8766958,3.017372 -6.2654721,3.017372 A4.015,4.015 184.2851229 0,1 -0.5196152,-0.3 L-0.2140034,-0.8293352 0.3056118,-0.5293352z" transform="matrix(1,0,0,-1,11.7569578,12.817372)" fill="rgb(255,255,255)" stroke="rgb(0,0,0)" stroke-width="0.0010cm" stroke-linecap="round" stroke-linejoin="round" shaper:cutDepth="0.006" /><path d="M0.7928465,6.517372 a0.25,0.25 0 1,1 0.5,0 a0.25,0.25 0 1,1 -0.5,0z" transform="matrix(1,0,0,-1,11.7569578,12.817372)" fill="rgb(255,255,255)" stroke="rgb(0,0,0)" stroke-width="0.0010cm" stroke-linecap="round" stroke-linejoin="round" shaper:cutDepth="0.006" /><path d="M-1.2498782,7.7409245 a0.25,0.25 0 1,1 0.5,0 a0.25,0.25 0 1,1 -0.5,0z" transform="matrix(1,0,0,-1,11.7569578,12.817372)" fill="rgb(255,255,255)" stroke="rgb(0,0,0)" stroke-width="0.0010cm" stroke-linecap="round" stroke-linejoin="round" shaper:cutDepth="0.006" /><path d="M-6.9735134,2.1983619 a0.25,0.25 0 1,1 0.5,0 a0.25,0.25 0 1,1 -0.5,0z" transform="matrix(1,0,0,-1,11.7569578,12.817372)" fill="rgb(255,255,255)" stroke="rgb(0,0,0)" stroke-width="0.0010cm" stroke-linecap="round" stroke-linejoin="round" shaper:cutDepth="0.006" /><path d="M-5.7116958,6.6219144 a0.25,0.25 0 1,1 0.5,0 a0.25,0.25 0 1,1 -0.5,0z" transform="matrix(1,0,0,-1,11.7569578,12.817372)" fill="rgb(255,255,255)" stroke="rgb(0,0,0)" stroke-width="0.0010cm" stroke-linecap="round" stroke-linejoin="round" shaper:cutDepth="0.006" /><path d="M1.9501218,4.4363822 a0.25,0.25 0 1,1 0.5,0 a0.25,0.25 0 1,1 -0.5,0z" transform="matrix(1,0,0,-1,11.7569578,12.817372)" fill="rgb(255,255,255)" stroke="rgb(0,0,0)" stroke-width="0.0010cm" stroke-linecap="round" stroke-linejoin="round" shaper:cutDepth="0.006" /><path d="M1.9118567,2.0555544 a0.25,0.25 0 1,1 0.5,0 a0.25,0.25 0 1,1 -0.5,0z" transform="matrix(1,0,0,-1,11.7569578,12.817372)" fill="rgb(255,255,255)" stroke="rgb(0,0,0)" stroke-width="0.0010cm" stroke-linecap="round" stroke-linejoin="round" shaper:cutDepth="0.006" /></svg>