<?xml version="1.0" encoding="utf-8"?>
<!-- Generator: Fusion 360, Shaper Origin Export Add-In, Version 1.6.3  -->
<svg xmlns="http://www.w3.org/2000/svg" xmlns:xlink="http://www.w3.org/1999/xlink" xmlns:shaper="http://www.shapertools.com/namespaces/shaper" shaper:fusionaddin="version:1.6.3" width="19cm" height="19cm" version="1.1" x="0cm" y="0cm" viewBox="0 0 19 19" enable-background="new 0 0 19 19" xml:space="preserve"><path d="M-16.2838657,-3.65 a9.5,9.5 0 1,1 19,0 a9.5,9.5 0 1,1 -19,0z" transform="matrix(1,0,0,-1,16.2838657,5.85)" fill="rgb(0,0,0)" shaper:cutDepth="0.006" stroke-linecap="round" stroke-linejoin="round" /><path d="M-13.2838657,-3.65 a6.5,6.5 0 1,1 13,0 a6.5,6.5 0 1,1 -13,0z" transform="matrix(1,0,0,-1,16.2838657,5.85)" fill="rgb(255,255,255)" stroke="rgb(0,0,0)" stroke-width="0.0010cm" stroke-linecap="round" stroke-linejoin="round" shaper:cutDepth="0.006" /><path d="M-13.8755625,-7.525 a0.38,0.38 0 1,1 0.76,0 a0.38,0.38 0 1,1 -0.76,0z" transform="matrix(1,0,0,-1,16.2838657,5.85)" fill="rgb(255,255,255)" stroke="rgb(0,0,0)" stroke-width="0.0010cm" stroke-linecap="round" stroke-linejoin="round" shaper:cutDepth="0.006" /><path d="M-7.0148058,-11.35 L-7.2457459,-11.75 -7.0148058,-12.15 -6.5529256,-12.15 -6.3219854,-11.75 -6.5529256,-11.35 -7.0148058,-11.35z" transform="matrix(1,0,0,-1,16.2838657,5.85)" fill="rgb(255,255,255)" stroke="rgb(0,0,0)" stroke-width="0.0010cm" stroke-linecap="round" stroke-linejoin="round" shaper:cutDepth="0.006" /><path d="M-14.2605516,0.4 L-14.0296115,-0 -13.5677313,-0 -13.3367912,0.4 -13.5677313,0.8 -14.0296115,0.8 -14.2605516,0.4z" transform="matrix(1,0,0,-1,16.2838657,5.85)" fill="rgb(255,255,255)" stroke="rgb(0,0,0)" stroke-width="0.0010cm" stroke-linecap="round" stroke-linejoin="round" shaper:cutDepth="0.006" /><path d="M-0.4521688,-7.525 a0.38,0.38 0 1,1 0.76,0 a0.38,0.38 0 1,1 -0.76,0z" transform="matrix(1,0,0,-1,16.2838657,5.85)" fill="rgb(255,255,255)" stroke="rgb(0,0,0)" stroke-width="0.0010cm" stroke-linecap="round" stroke-linejoin="round" shaper:cutDepth="0.006" /><path d="M0.4618802,0.8 L0,0.8 -0.2309401,0.4 0,0 0.4618802,0 0.6928203,0.4 0.4618802,0.8z" transform="matrix(1,0,0,-1,16.2838657,5.85)" fill="rgb(255,255,255)" stroke="rgb(0,0,0)" stroke-width="0.0010cm" stroke-linecap="round" stroke-linejoin="round" shaper:cutDepth="0.006" /><path d="M-7.1638657,4.1 a0.38,0.38 0 1,1 0.76,0 a0.38,0.38 0 1,1 -0.76,0z" transform="matrix(1,0,0,-1,16.2838657,5.85)" fill="rgb(255,255,255)" stroke="rgb(0,0,0)" stroke-width="0.0010cm" stroke-linecap="round" stroke-linejoin="round" shaper:cutDepth="0.006" /></svg>