<?xml version="1.0" encoding="utf-8"?>
<!-- Generator: Fusion 360, Shaper Origin Export Add-In, Version 1.6.3  -->
<svg xmlns="http://www.w3.org/2000/svg" xmlns:xlink="http://www.w3.org/1999/xlink" xmlns:shaper="http://www.shapertools.com/namespaces/shaper" shaper:fusionaddin="version:1.6.3" width="18.995262cm" height="19cm" version="1.1" x="0cm" y="0cm" viewBox="0 0 18.995262 19" enable-background="new 0 0 18.995262 19" xml:space="preserve"><path d="M11.1616958,3.017372 L11.7569578,3.017372 A9.5,9.5 358.1903587 0,0 -2.2261276,-5.0557661 L-1.9284966,-4.5402541 -2.4481118,-4.2402541 -2.7457428,-4.7557661 A9.5,9.5 238.1903587 0,0 -2.7457428,11.3905101 L-2.4481118,10.8749981 -1.9284966,11.1749981 -2.2261276,11.6905101 A9.5,9.5 118.1903587 0,0 11.7569578,3.617372 L11.1616958,3.617372 11.1616958,3.017372z" transform="matrix(1,0,0,-1,7.2383042,12.817372)" fill="rgb(0,0,0)" shaper:cutDepth="0.006" stroke-linecap="round" stroke-linejoin="round" /><path d="M-5.0633042,5.317372 a0.325,0.325 0 1,1 0.65,0 a0.325,0.325 0 1,1 -0.65,0z" transform="matrix(1,0,0,-1,7.2383042,12.817372)" fill="rgb(255,255,255)" stroke="rgb(0,0,0)" stroke-width="0.0010cm" stroke-linecap="round" stroke-linejoin="round" shaper:cutDepth="0.006" /><path d="M-5.0633042,1.317372 a0.325,0.325 0 1,1 0.65,0 a0.325,0.325 0 1,1 -0.65,0z" transform="matrix(1,0,0,-1,7.2383042,12.817372)" fill="rgb(255,255,255)" stroke="rgb(0,0,0)" stroke-width="0.0010cm" stroke-linecap="round" stroke-linejoin="round" shaper:cutDepth="0.006" /><path d="M8.9366958,1.317372 a0.325,0.325 0 1,1 0.65,0 a0.325,0.325 0 1,1 -0.65,0z" transform="matrix(1,0,0,-1,7.2383042,12.817372)" fill="rgb(255,255,255)" stroke="rgb(0,0,0)" stroke-width="0.0010cm" stroke-linecap="round" stroke-linejoin="round" shaper:cutDepth="0.006" /><path d="M0.2140034,7.4640793 L-0.3056118,7.1640793 -0,6.634744 A4.015,4.015 124.2851229 0,1 0,-0 L-0.3056118,-0.5293352 0.2140034,-0.8293352 0.5196152,-0.3 A4.015,4.015 244.2851229 0,1 6.2654721,3.017372 L6.8766958,3.017372 6.8766958,3.617372 6.2654721,3.617372 A4.015,4.015 4.2851229 0,1 0.5196152,6.934744 L0.2140034,7.4640793z" transform="matrix(1,0,0,-1,7.2383042,12.817372)" fill="rgb(255,255,255)" stroke="rgb(0,0,0)" stroke-width="0.0010cm" stroke-linecap="round" stroke-linejoin="round" shaper:cutDepth="0.006" /><path d="M8.9366958,5.317372 a0.325,0.325 0 1,1 0.65,0 a0.325,0.325 0 1,1 -0.65,0z" transform="matrix(1,0,0,-1,7.2383042,12.817372)" fill="rgb(255,255,255)" stroke="rgb(0,0,0)" stroke-width="0.0010cm" stroke-linecap="round" stroke-linejoin="round" shaper:cutDepth="0.006" /></svg>