<?xml version="1.0" encoding="utf-8"?>
<!-- Generator: Fusion 360, Shaper Origin Export Add-In, Version 1.6.3  -->
<svg xmlns="http://www.w3.org/2000/svg" xmlns:xlink="http://www.w3.org/1999/xlink" xmlns:shaper="http://www.shapertools.com/namespaces/shaper" shaper:fusionaddin="version:1.6.3" width="16.2781829cm" height="17.1393388cm" version="1.1" x="0cm" y="0cm" viewBox="0 0 16.2781829 17.1393388" enable-background="new 0 0 16.2781829 17.1393388" xml:space="preserve"><path d="M7.6754997,-0.9588443 A1.75,1.75 213.2238204 0,0 7.6754997,0.9588443 A3.5,3.5 326.7761796 0,1 7.6337849,4.8564476 A8.585,8.585 34.4502116 0,1 1.2205727,8.5591174 A3.5,3.5 85.5497884 0,1 -2.1757081,6.6464419 A1.75,1.75 333.2238204 0,0 -3.8364753,5.6875975 A3.5,3.5 86.7761796 0,1 -7.1910413,3.7026698 A8.585,8.585 154.4502116 0,1 -7.1910413,-3.7026698 A3.5,3.5 205.5497884 0,1 -3.8364753,-5.6875975 A1.75,1.75 93.2238204 0,0 -2.1757081,-6.6464419 A3.5,3.5 206.7761796 0,1 1.2205727,-8.5591174 A8.585,8.585 274.4502116 0,1 7.6337849,-4.8564476 A3.5,3.5 325.5497884 0,1 7.6754997,-0.9588443z" transform="matrix(1,0,0,-1,8.0305612,8.5696694)" fill="rgb(0,0,0)" shaper:cutDepth="0.006" stroke-linecap="round" stroke-linejoin="round" /><path d="M-3.9393497,3.4370598 a0.2,0.2 0 1,1 0.4,0 a0.2,0.2 0 1,1 -0.4,0z" transform="matrix(1,0,0,-1,8.0305612,8.5696694)" fill="rgb(255,255,255)" stroke="rgb(0,0,0)" stroke-width="0.0010cm" stroke-linecap="round" stroke-linejoin="round" shaper:cutDepth="0.006" /><path d="M-0.4752481,5.4370598 a0.2,0.2 0 1,1 0.4,0 a0.2,0.2 0 1,1 -0.4,0z" transform="matrix(1,0,0,-1,8.0305612,8.5696694)" fill="rgb(255,255,255)" stroke="rgb(0,0,0)" stroke-width="0.0010cm" stroke-linecap="round" stroke-linejoin="round" shaper:cutDepth="0.006" /><path d="M4.0494388,6.7116969 a0.38,0.38 0 1,1 0.76,0 a0.38,0.38 0 1,1 -0.76,0z" transform="matrix(1,0,0,-1,8.0305612,8.5696694)" fill="rgb(255,255,255)" stroke="rgb(0,0,0)" stroke-width="0.0010cm" stroke-linecap="round" stroke-linejoin="round" shaper:cutDepth="0.006" /><path d="M1.1841257,-5.4370598 a0.2,0.2 0 1,1 0.4,0 a0.2,0.2 0 1,1 -0.4,0z" transform="matrix(1,0,0,-1,8.0305612,8.5696694)" fill="rgb(255,255,255)" stroke="rgb(0,0,0)" stroke-width="0.0010cm" stroke-linecap="round" stroke-linejoin="round" shaper:cutDepth="0.006" /><path d="M4.6482273,-3.4370598 a0.2,0.2 0 1,1 0.4,0 a0.2,0.2 0 1,1 -0.4,0z" transform="matrix(1,0,0,-1,8.0305612,8.5696694)" fill="rgb(255,255,255)" stroke="rgb(0,0,0)" stroke-width="0.0010cm" stroke-linecap="round" stroke-linejoin="round" shaper:cutDepth="0.006" /><path d="M0.2544388,0 a0.3,0.3 0 1,1 0.6,0 a0.3,0.3 0 1,1 -0.6,0z" transform="matrix(1,0,0,-1,8.0305612,8.5696694)" fill="rgb(255,255,255)" stroke="rgb(0,0,0)" stroke-width="0.0010cm" stroke-linecap="round" stroke-linejoin="round" shaper:cutDepth="0.006" /><path d="M4.0494388,-6.7116969 a0.38,0.38 0 1,1 0.76,0 a0.38,0.38 0 1,1 -0.76,0z" transform="matrix(1,0,0,-1,8.0305612,8.5696694)" fill="rgb(255,255,255)" stroke="rgb(0,0,0)" stroke-width="0.0010cm" stroke-linecap="round" stroke-linejoin="round" shaper:cutDepth="0.006" /><path d="M-7.5755612,0 a0.38,0.38 0 1,1 0.76,0 a0.38,0.38 0 1,1 -0.76,0z" transform="matrix(1,0,0,-1,8.0305612,8.5696694)" fill="rgb(255,255,255)" stroke="rgb(0,0,0)" stroke-width="0.0010cm" stroke-linecap="round" stroke-linejoin="round" shaper:cutDepth="0.006" /></svg>