<svg xmlns="http://www.w3.org/2000/svg" xmlns:gf="http://glowforge.com/namespaces/gf" xmlns:xlink="http://www.w3.org/1999/xlink" width="20in" height="16.375in" viewBox="0 0 1920 1572"><gf:laserdefs><gf:laserdef class="l4b176e0a-29f7-49f8-ac8a-d75b7fce7c38" order="0" type="cut" power="100" speed="636.25" passes="1" focal_offset="3.8" corner="50" materialid="UNKNOWN" settingid="cut::HEAT:5724451848585216::MANUAL_SETTING"></gf:laserdef><gf:laserdef class="l1d508943-0ecb-4912-8b59-351946a83922" order="0" type="cut" power="100" speed="636.25" passes="1" focal_offset="3.8" corner="50" materialid="UNKNOWN" settingid="cut::HEAT:5724451848585216::MANUAL_SETTING"></gf:laserdef><gf:laserdef class="l58bfb472-09b3-43cb-8883-70eb81dceea5" order="1" type="cut" power="100" speed="636.25" passes="1" focal_offset="3.8" corner="50" materialid="UNKNOWN" settingid="cut::HEAT:5724451848585216::MANUAL_SETTING"></gf:laserdef><gf:laserdef class="la667ebfe-0d5d-47d0-a226-2272ebf7f5ec" order="1" type="cut" power="100" speed="636.25" passes="1" focal_offset="3.8" corner="50" materialid="UNKNOWN" settingid="cut::HEAT:5724451848585216::MANUAL_SETTING"></gf:laserdef></gf:laserdefs><g id="oEw"><g id="oE"><g id="g1"><path class="e l58bfb472-09b3-43cb-8883-70eb81dceea5 l58bfb472-09b3-43cb-8883-70eb81dceea5" id="e0" transform="matrix(0.5629921259842512,0,0,0.5629921259842512,431.5682755389825,78.28451460138234)" d="M1056 576A96 96 0 0 1 864 576A96 96 0 0 1 1056 576z"></path><path class="e l4b176e0a-29f7-49f8-ac8a-d75b7fce7c38 l4b176e0a-29f7-49f8-ac8a-d75b7fce7c38" id="e1" transform="matrix(0.48622047244094496,0,0,0.48622047244094496,505.2690629405563,122.50498704232638)" d="M1056 576A96 96 0 0 1 864 576A96 96 0 0 1 1056 576z"></path></g><g id="g8"><path class="e la667ebfe-0d5d-47d0-a226-2272ebf7f5ec la667ebfe-0d5d-47d0-a226-2272ebf7f5ec" id="e2" transform="matrix(0.5629921259842512,0,0,0.5629921259842512,298.82431680968557,82.69830770483068)" d="M1056 576A96 96 0 0 1 864 576A96 96 0 0 1 1056 576z"></path><path class="e l1d508943-0ecb-4912-8b59-351946a83922 l1d508943-0ecb-4912-8b59-351946a83922" id="e3" transform="matrix(0.48622047244094496,0,0,0.48622047244094496,372.5251042112593,126.91878014577472)" d="M1056 576A96 96 0 0 1 864 576A96 96 0 0 1 1056 576z"></path></g></g></g><style type="text/css">.l4b176e0a-29f7-49f8-ac8a-d75b7fce7c38 { stroke: #000000; fill: none; }.l1d508943-0ecb-4912-8b59-351946a83922 { stroke: #297200; fill: none; }.l58bfb472-09b3-43cb-8883-70eb81dceea5 { stroke: #9e5000; fill: none; }.la667ebfe-0d5d-47d0-a226-2272ebf7f5ec { stroke: #e53595; fill: none; }</style><text y="1172" x="20">
  <tspan>Glowforge® print settings</tspan>
  <tspan x="20" dy="20">Design id: 7BG1AYAGICOLP13ADZSWJ4S4NYNVV</tspan>
  <tspan x="20" dy="20">Timestamp: Fri May 17 2024 13:13:17 GMT+0100 (British Summer Time)</tspan>
  <tspan x="20" dy="20">Version: 1.0</tspan>
  <tspan x="20" dy="20" fill="#000000">Step 0: #000000 Cut::ply_med_pg::Manual</tspan>
  <tspan x="20" dy="20" fill="#000000">Step 0: #000000 Speed=155</tspan>
  <tspan x="20" dy="20" fill="#000000">Step 0: #000000 Precision Power=full</tspan>
  <tspan x="20" dy="20" fill="#000000">Step 0: #000000 # of Passes=1</tspan>
  <tspan x="20" dy="20" fill="#297200">Step 1: #297200 Cut::ply_med_pg::Manual</tspan>
  <tspan x="20" dy="20" fill="#297200">Step 1: #297200 Speed=155</tspan>
  <tspan x="20" dy="20" fill="#297200">Step 1: #297200 Precision Power=full</tspan>
  <tspan x="20" dy="20" fill="#297200">Step 1: #297200 # of Passes=1</tspan>
  <tspan x="20" dy="20" fill="#9e5000">Step 2: #9e5000 Cut::ply_med_pg::Manual</tspan>
  <tspan x="20" dy="20" fill="#9e5000">Step 2: #9e5000 Speed=155</tspan>
  <tspan x="20" dy="20" fill="#9e5000">Step 2: #9e5000 Precision Power=full</tspan>
  <tspan x="20" dy="20" fill="#9e5000">Step 2: #9e5000 # of Passes=1</tspan>
  <tspan x="20" dy="20" fill="#e53595">Step 3: #e53595 Cut::ply_med_pg::Manual</tspan>
  <tspan x="20" dy="20" fill="#e53595">Step 3: #e53595 Speed=155</tspan>
  <tspan x="20" dy="20" fill="#e53595">Step 3: #e53595 Precision Power=full</tspan>
  <tspan x="20" dy="20" fill="#e53595">Step 3: #e53595 # of Passes=1</tspan>
</text></svg>