<?xml version="1.0" encoding="UTF-8" standalone="no"?>
<!DOCTYPE svg PUBLIC "-//W3C//DTD SVG 1.1//EN" "http://www.w3.org/Graphics/SVG/1.1/DTD/svg11.dtd">
<svg width="100%" height="100%" viewBox="0 0 467 376" version="1.1" xmlns="http://www.w3.org/2000/svg" xmlns:xlink="http://www.w3.org/1999/xlink" xml:space="preserve" xmlns:serif="http://www.serif.com/" style="fill-rule:evenodd;clip-rule:evenodd;stroke-linejoin:round;stroke-miterlimit:2;">
    <g>
        <path d="M376,180C382.71,177.46 385.8,188.92 393,187C387.51,207.5 357.12,206.91 338.92,205.07C315.63,209.37 292.79,204.22 270.32,204.32C253.03,212.97 236.8,224.13 218.32,230.32C212.78,248.67 214.24,270.64 214,291C208.21,290.6 209.08,299.83 203.25,302.25C197.42,304.76 191.2,302.24 187,298C186.17,288.08 183.37,276.21 180.07,265.93C173.39,258.64 171.36,244.83 159,246C146.22,246.03 136.24,240.57 123,242C111.95,255.48 85.38,248.74 86.68,229.32C84.77,220.56 85.4,212.35 88.78,204.78C93.46,198.81 91.128,188.476 96.634,183.571C96.533,172.651 106.48,165.24 113.03,161.03C123.88,163.31 133.36,173.59 145,168C165.04,150.96 147.86,124.37 143.02,103.98C146.28,92.52 132.21,83.08 140.3,74.3C149.02,67.26 154.03,58.52 159,49C167.55,54.53 156.28,67.81 164.98,76.02C169.65,86.92 162.52,100.23 167.97,111.03C176.96,128.47 192.44,139.7 207.08,151.92C226.27,163.12 243.72,138.85 262,136C284.1,133.49 304.62,144.22 325.07,150.93C343.32,156.91 363.82,165.36 376,180Z"/>
        <path d="M376,180C382.71,177.46 385.8,188.92 393,187C387.51,207.5 357.12,206.91 338.92,205.07C315.63,209.37 292.79,204.22 270.32,204.32C253.03,212.97 236.8,224.13 218.32,230.32C212.78,248.67 214.24,270.64 214,291C208.21,290.6 209.08,299.83 203.25,302.25C197.42,304.76 191.2,302.24 187,298C186.17,288.08 183.37,276.21 180.07,265.93C173.39,258.64 171.36,244.83 159,246C146.22,246.03 136.24,240.57 123,242C111.95,255.48 85.38,248.74 86.68,229.32C84.77,220.56 85.4,212.35 88.78,204.78C93.46,198.81 91.128,188.476 96.634,183.571C96.533,172.651 106.48,165.24 113.03,161.03C123.88,163.31 133.36,173.59 145,168C165.04,150.96 146.455,124.894 143.311,105.518C143.253,94.192 132.21,83.08 140.3,74.3C149.02,67.26 154.03,58.52 159,49C167.55,54.53 156.28,67.81 164.98,76.02C169.65,86.92 162.52,100.23 167.97,111.03C176.96,128.47 192.44,139.7 207.08,151.92C226.27,163.12 243.72,138.85 262,136C284.1,133.49 304.62,144.22 325.07,150.93C343.32,156.91 363.82,165.36 376,180Z"/>
    </g>
</svg>
