<?xml version="1.0" encoding="UTF-8" standalone="no"?>
<!DOCTYPE svg PUBLIC "-//W3C//DTD SVG 1.1//EN" "http://www.w3.org/Graphics/SVG/1.1/DTD/svg11.dtd">
<svg width="100%" height="100%" viewBox="0 0 631 204" version="1.1" xmlns="http://www.w3.org/2000/svg" xmlns:xlink="http://www.w3.org/1999/xlink" xml:space="preserve" xmlns:serif="http://www.serif.com/" style="fill-rule:evenodd;clip-rule:evenodd;stroke-linecap:round;stroke-linejoin:round;stroke-miterlimit:1.5;">
    <g id="Artboard1" transform="matrix(1.00054,0,0,1.00726,-32.8961,-3.22808)">
        <rect x="32.878" y="3.205" width="629.733" height="202.4" style="fill:none;"/>
        <g transform="matrix(0.99946,0,0,1.15619,1.23566,1.10117)">
            <rect x="33.803" y="3.577" width="625.258" height="170.459" style="fill:none;stroke:rgb(242,13,13);stroke-width:0.92px;"/>
        </g>
        <g transform="matrix(0.99946,0,0,0.99279,257.74,43.5724)">
            <path d="M-188.558,-22.197C-188.123,-22.154 -187.682,-22.115 -187.233,-22.081C-186.784,-22.047 -186.322,-22.03 -185.846,-22.03L-173.7,-22.03C-173.274,-22.03 -172.81,-22.044 -172.308,-22.072C-171.805,-22.1 -171.335,-22.142 -170.897,-22.197L-170.897,-19.707C-171.347,-19.747 -171.819,-19.774 -172.311,-19.788C-172.803,-19.801 -173.266,-19.808 -173.7,-19.808L-185.81,-19.808C-186.305,-19.808 -186.79,-19.801 -187.263,-19.788C-187.736,-19.774 -188.168,-19.747 -188.558,-19.707L-188.558,-22.197ZM-192.136,-14.659C-191.725,-14.623 -191.302,-14.591 -190.868,-14.564C-190.434,-14.536 -189.987,-14.522 -189.527,-14.522L-169.895,-14.522C-169.575,-14.522 -169.194,-14.534 -168.75,-14.558C-168.307,-14.582 -167.906,-14.615 -167.547,-14.659L-167.547,-12.181C-167.874,-12.209 -168.253,-12.228 -168.685,-12.238C-169.117,-12.248 -169.52,-12.253 -169.895,-12.253L-189.527,-12.253C-189.979,-12.253 -190.425,-12.249 -190.865,-12.241C-191.304,-12.234 -191.728,-12.21 -192.136,-12.17L-192.136,-14.659ZM-178.007,-13.451C-178.007,-11.573 -178.142,-9.848 -178.413,-8.275C-178.683,-6.702 -179.152,-5.29 -179.821,-4.038C-180.186,-3.374 -180.67,-2.706 -181.274,-2.033C-181.878,-1.36 -182.556,-0.724 -183.31,-0.125C-184.063,0.474 -184.869,0.991 -185.728,1.426L-187.939,-0.206C-186.78,-0.696 -185.694,-1.347 -184.682,-2.16C-183.669,-2.972 -182.869,-3.854 -182.281,-4.804C-181.521,-5.997 -181.042,-7.321 -180.843,-8.776C-180.645,-10.232 -180.54,-11.786 -180.527,-13.44L-178.007,-13.451Z" style="fill-rule:nonzero;"/>
            <path d="M-158.337,-0.954C-158.227,-1.195 -158.152,-1.426 -158.112,-1.648C-158.072,-1.871 -158.052,-2.129 -158.052,-2.424L-158.052,-19.576C-158.052,-19.845 -158.066,-20.158 -158.094,-20.514C-158.122,-20.871 -158.151,-21.213 -158.183,-21.542C-158.215,-21.87 -158.252,-22.127 -158.295,-22.313L-155.34,-22.313C-155.392,-21.95 -155.441,-21.513 -155.489,-21.003C-155.537,-20.492 -155.561,-20.023 -155.561,-19.595L-155.561,-2.572C-154.119,-2.936 -152.634,-3.447 -151.104,-4.103C-149.574,-4.76 -148.071,-5.535 -146.596,-6.427C-145.12,-7.32 -143.741,-8.303 -142.458,-9.375C-141.175,-10.448 -140.068,-11.589 -139.137,-12.798L-137.783,-10.707C-139.732,-8.288 -142.212,-6.17 -145.222,-4.354C-148.232,-2.537 -151.606,-1.084 -155.343,0.006C-155.502,0.05 -155.693,0.114 -155.917,0.199C-156.14,0.284 -156.371,0.394 -156.607,0.527L-158.337,-0.954Z" style="fill-rule:nonzero;"/>
            <path d="M-110.714,-21.84C-110.86,-21.57 -111.028,-21.217 -111.217,-20.78C-111.405,-20.343 -111.561,-19.965 -111.684,-19.646C-112.052,-18.654 -112.5,-17.58 -113.028,-16.424C-113.556,-15.268 -114.153,-14.112 -114.821,-12.955C-115.489,-11.797 -116.237,-10.693 -117.065,-9.642C-118.013,-8.418 -119.094,-7.183 -120.308,-5.939C-121.521,-4.694 -122.885,-3.487 -124.399,-2.318C-125.914,-1.149 -127.618,-0.071 -129.513,0.915L-131.58,-0.945C-128.782,-2.282 -126.379,-3.822 -124.37,-5.565C-122.361,-7.309 -120.594,-9.162 -119.067,-11.123C-117.814,-12.712 -116.794,-14.317 -116.009,-15.939C-115.223,-17.561 -114.577,-19.108 -114.069,-20.579C-113.958,-20.885 -113.844,-21.251 -113.729,-21.676C-113.613,-22.101 -113.522,-22.475 -113.454,-22.797L-110.714,-21.84ZM-126.567,-18.321C-125.819,-17.848 -125.017,-17.317 -124.161,-16.727C-123.305,-16.136 -122.445,-15.537 -121.581,-14.929C-120.717,-14.32 -119.902,-13.726 -119.135,-13.146C-118.368,-12.566 -117.703,-12.047 -117.14,-11.587C-115.626,-10.364 -114.152,-9.107 -112.716,-7.817C-111.28,-6.527 -109.97,-5.232 -108.787,-3.932L-110.67,-1.873C-111.925,-3.319 -113.217,-4.659 -114.546,-5.893C-115.875,-7.128 -117.289,-8.379 -118.786,-9.645C-119.326,-10.105 -119.958,-10.619 -120.681,-11.185C-121.403,-11.752 -122.183,-12.342 -123.02,-12.957C-123.856,-13.571 -124.711,-14.176 -125.585,-14.772C-126.458,-15.367 -127.307,-15.92 -128.132,-16.431L-126.567,-18.321Z" style="fill-rule:nonzero;"/>
            <path d="M-101.944,-12.991C-101.642,-12.971 -101.27,-12.947 -100.829,-12.919C-100.389,-12.891 -99.905,-12.871 -99.379,-12.857C-98.853,-12.843 -98.314,-12.836 -97.761,-12.836L-81.318,-12.836C-80.565,-12.836 -79.921,-12.857 -79.385,-12.898C-78.849,-12.94 -78.416,-12.971 -78.086,-12.991L-78.086,-10.061C-78.393,-10.081 -78.838,-10.107 -79.421,-10.138C-80.005,-10.17 -80.631,-10.186 -81.3,-10.186L-97.761,-10.186C-98.584,-10.186 -99.369,-10.175 -100.115,-10.153C-100.861,-10.132 -101.47,-10.101 -101.944,-10.061L-101.944,-12.991Z" style="fill-rule:nonzero;"/>
            <path d="M-62.542,-13.744C-61.581,-13.188 -60.571,-12.568 -59.512,-11.884C-58.453,-11.201 -57.398,-10.493 -56.345,-9.762C-55.293,-9.031 -54.289,-8.315 -53.334,-7.613C-52.379,-6.911 -51.534,-6.254 -50.801,-5.64L-52.561,-3.569C-53.25,-4.193 -54.065,-4.88 -55.006,-5.629C-55.947,-6.377 -56.95,-7.136 -58.015,-7.905C-59.08,-8.673 -60.141,-9.417 -61.198,-10.136C-62.255,-10.855 -63.247,-11.503 -64.172,-12.08L-62.542,-13.744ZM-48.825,-19.22C-48.951,-19.01 -49.077,-18.751 -49.201,-18.443C-49.326,-18.134 -49.432,-17.86 -49.519,-17.62C-49.807,-16.601 -50.209,-15.501 -50.725,-14.32C-51.241,-13.138 -51.852,-11.949 -52.558,-10.753C-53.264,-9.556 -54.061,-8.412 -54.949,-7.321C-56.303,-5.655 -57.984,-4.061 -59.993,-2.539C-62.001,-1.016 -64.427,0.275 -67.27,1.334L-69.414,-0.551C-67.548,-1.117 -65.851,-1.827 -64.323,-2.68C-62.795,-3.534 -61.423,-4.472 -60.204,-5.494C-58.986,-6.517 -57.931,-7.563 -57.038,-8.633C-56.259,-9.56 -55.543,-10.572 -54.89,-11.667C-54.237,-12.762 -53.671,-13.858 -53.192,-14.956C-52.713,-16.053 -52.363,-17.064 -52.142,-17.988L-63.261,-17.988L-62.3,-20.14L-52.764,-20.14C-52.362,-20.14 -51.992,-20.163 -51.656,-20.208C-51.32,-20.254 -51.035,-20.325 -50.801,-20.42L-48.825,-19.22ZM-58.927,-23.55C-59.176,-23.158 -59.425,-22.738 -59.672,-22.289C-59.92,-21.841 -60.119,-21.478 -60.27,-21.199C-60.868,-20.109 -61.641,-18.908 -62.588,-17.595C-63.536,-16.283 -64.647,-14.975 -65.923,-13.672C-67.199,-12.369 -68.635,-11.163 -70.231,-10.052L-72.24,-11.6C-70.52,-12.675 -69.029,-13.85 -67.764,-15.124C-66.499,-16.397 -65.44,-17.643 -64.587,-18.861C-63.734,-20.079 -63.079,-21.145 -62.62,-22.058C-62.462,-22.32 -62.283,-22.682 -62.082,-23.147C-61.882,-23.611 -61.739,-24.035 -61.652,-24.42L-58.927,-23.55Z" style="fill-rule:nonzero;"/>
            <path d="M-35.447,-13.299L-16.53,-13.299L-16.53,-11.241L-35.447,-11.241L-35.447,-13.299ZM-34.477,-19.482L-17.426,-19.482L-17.426,-17.465L-34.477,-17.465L-34.477,-19.482ZM-27.402,-18.562L-25.163,-18.562L-25.163,-14.064C-25.163,-13.129 -25.259,-12.134 -25.452,-11.079C-25.645,-10.025 -26.032,-8.962 -26.614,-7.891C-27.195,-6.82 -28.054,-5.781 -29.193,-4.773C-30.331,-3.766 -31.846,-2.837 -33.736,-1.987C-33.831,-2.153 -33.966,-2.336 -34.141,-2.537C-34.317,-2.738 -34.498,-2.94 -34.685,-3.143C-34.872,-3.347 -35.056,-3.511 -35.237,-3.637C-33.41,-4.372 -31.967,-5.182 -30.91,-6.067C-29.852,-6.952 -29.075,-7.865 -28.579,-8.804C-28.082,-9.743 -27.762,-10.663 -27.618,-11.563C-27.474,-12.464 -27.402,-13.306 -27.402,-14.088L-27.402,-18.562ZM-24.537,-11.979C-23.953,-9.888 -22.997,-8.149 -21.668,-6.761C-20.339,-5.373 -18.602,-4.373 -16.458,-3.762C-16.623,-3.617 -16.799,-3.43 -16.984,-3.204C-17.17,-2.977 -17.341,-2.749 -17.498,-2.519C-17.656,-2.288 -17.792,-2.068 -17.907,-1.859C-20.16,-2.644 -21.985,-3.847 -23.382,-5.468C-24.779,-7.088 -25.813,-9.12 -26.483,-11.565L-24.537,-11.979ZM-37.152,-13.363L-37.152,-2.73L-39.344,-2.73L-39.344,-11.265L-43.532,-11.265L-43.532,-13.363L-37.152,-13.363ZM-37.152,-3.723C-36.433,-2.62 -35.43,-1.801 -34.141,-1.265C-32.853,-0.729 -31.345,-0.425 -29.616,-0.353C-28.794,-0.325 -27.799,-0.306 -26.633,-0.296C-25.466,-0.286 -24.237,-0.29 -22.946,-0.308C-21.656,-0.326 -20.406,-0.356 -19.198,-0.397C-17.99,-0.439 -16.944,-0.491 -16.059,-0.555C-16.146,-0.385 -16.241,-0.162 -16.346,0.116C-16.451,0.393 -16.541,0.676 -16.618,0.964C-16.695,1.252 -16.755,1.512 -16.799,1.744C-17.624,1.78 -18.595,1.81 -19.71,1.834C-20.825,1.857 -21.985,1.874 -23.191,1.884C-24.397,1.894 -25.561,1.892 -26.685,1.879C-27.808,1.865 -28.785,1.844 -29.615,1.816C-31.566,1.736 -33.236,1.416 -34.627,0.856C-36.017,0.296 -37.194,-0.576 -38.157,-1.76C-38.875,-1.123 -39.613,-0.478 -40.373,0.173C-41.133,0.825 -41.923,1.483 -42.743,2.147L-43.928,-0.162C-43.207,-0.639 -42.428,-1.193 -41.592,-1.822C-40.757,-2.451 -39.954,-3.085 -39.184,-3.723L-37.152,-3.723ZM-43.213,-23.119L-41.565,-24.466C-40.9,-24.054 -40.228,-23.575 -39.549,-23.031C-38.87,-22.487 -38.24,-21.932 -37.66,-21.368C-37.079,-20.804 -36.619,-20.279 -36.279,-19.795L-38.057,-18.305C-38.374,-18.79 -38.814,-19.321 -39.376,-19.9C-39.939,-20.478 -40.556,-21.049 -41.227,-21.613C-41.898,-22.177 -42.56,-22.679 -43.213,-23.119ZM-21.352,-25.204L-19.059,-24.44C-19.571,-23.58 -20.117,-22.697 -20.7,-21.791C-21.282,-20.885 -21.821,-20.115 -22.318,-19.482L-24.149,-20.163C-23.833,-20.628 -23.497,-21.152 -23.142,-21.737C-22.787,-22.322 -22.452,-22.92 -22.137,-23.531C-21.822,-24.142 -21.56,-24.7 -21.352,-25.204ZM-33.303,-24.321L-31.406,-25.108C-30.801,-24.375 -30.235,-23.559 -29.708,-22.662C-29.181,-21.765 -28.818,-20.978 -28.618,-20.302L-30.645,-19.39C-30.829,-20.067 -31.172,-20.869 -31.673,-21.796C-32.174,-22.723 -32.718,-23.565 -33.303,-24.321Z" style="fill-rule:nonzero;"/>
            <path d="M-2.858,-23.776L11.015,-23.776L11.015,-21.935L-2.858,-21.935L-2.858,-23.776ZM-3.215,-15.45L11.555,-15.45L11.555,-13.591L-3.215,-13.591L-3.215,-15.45ZM-3.215,-11.284L11.496,-11.284L11.496,-9.424L-3.215,-9.424L-3.215,-11.284ZM-2.354,-0.888L10.663,-0.888L10.663,0.983L-2.354,0.983L-2.354,-0.888ZM-5.684,-19.628L13.846,-19.628L13.846,-17.74L-5.684,-17.74L-5.684,-19.628ZM-3.511,-7.123L11.827,-7.123L11.827,2.309L9.576,2.309L9.576,-5.294L-1.354,-5.294L-1.354,2.399L-3.511,2.399L-3.511,-7.123ZM-6.697,-25.114L-4.587,-24.453C-5.267,-22.765 -6.061,-21.102 -6.971,-19.463C-7.881,-17.825 -8.859,-16.286 -9.906,-14.846C-10.953,-13.405 -12.033,-12.128 -13.144,-11.012C-13.215,-11.189 -13.326,-11.419 -13.476,-11.702C-13.626,-11.985 -13.784,-12.268 -13.95,-12.549C-14.116,-12.83 -14.27,-13.059 -14.412,-13.236C-13.395,-14.201 -12.409,-15.316 -11.456,-16.58C-10.503,-17.843 -9.616,-19.203 -8.797,-20.659C-7.978,-22.115 -7.278,-23.6 -6.697,-25.114ZM-9.823,-17.383L-7.696,-19.51L-7.659,-19.478L-7.659,2.321L-9.823,2.321L-9.823,-17.383Z" style="fill-rule:nonzero;"/>
            <path d="M25.458,-9.868L43.675,-9.868L43.675,-8.02L25.458,-8.02L25.458,-9.868ZM27.839,-5.128L29.029,-6.494C29.562,-6.201 30.117,-5.865 30.694,-5.485C31.271,-5.105 31.815,-4.727 32.326,-4.351C32.837,-3.975 33.257,-3.633 33.586,-3.325L32.331,-1.77C32.01,-2.097 31.596,-2.46 31.089,-2.858C30.582,-3.256 30.043,-3.654 29.474,-4.051C28.905,-4.449 28.36,-4.808 27.839,-5.128ZM37.545,-11.624L38.65,-12.697C39.213,-12.397 39.799,-12.044 40.409,-11.638C41.019,-11.232 41.491,-10.859 41.824,-10.519L40.672,-9.351C40.335,-9.691 39.868,-10.075 39.271,-10.502C38.675,-10.93 38.1,-11.304 37.545,-11.624ZM27.666,-9.001L29.719,-9.001C29.611,-7.464 29.413,-5.987 29.123,-4.569C28.833,-3.15 28.374,-1.853 27.747,-0.678C27.121,0.498 26.245,1.499 25.12,2.326C24.977,2.098 24.771,1.836 24.5,1.54C24.229,1.245 23.977,1.016 23.745,0.855C24.748,0.151 25.518,-0.721 26.055,-1.759C26.591,-2.797 26.976,-3.939 27.209,-5.184C27.441,-6.429 27.594,-7.701 27.666,-9.001ZM33.06,-25.181L35.084,-25.181C35.052,-22.203 35.116,-19.408 35.275,-16.797C35.434,-14.187 35.677,-11.822 36.004,-9.704C36.331,-7.586 36.745,-5.766 37.247,-4.245C37.748,-2.723 38.329,-1.553 38.989,-0.734C39.648,0.085 40.385,0.495 41.199,0.495C41.637,0.495 41.946,0.264 42.127,-0.199C42.307,-0.661 42.438,-1.57 42.518,-2.926C42.739,-2.721 43,-2.529 43.3,-2.35C43.601,-2.171 43.869,-2.03 44.106,-1.928C43.992,-0.804 43.821,0.074 43.595,0.706C43.369,1.338 43.054,1.786 42.653,2.051C42.251,2.315 41.715,2.447 41.046,2.447C39.849,2.447 38.803,1.983 37.909,1.055C37.014,0.126 36.261,-1.181 35.649,-2.867C35.037,-4.552 34.544,-6.545 34.17,-8.846C33.796,-11.146 33.523,-13.68 33.353,-16.448C33.182,-19.216 33.085,-22.127 33.06,-25.181ZM39.782,-7.556L41.724,-6.829C40.749,-4.753 39.372,-2.94 37.592,-1.389C35.812,0.162 33.761,1.419 31.44,2.381C31.306,2.176 31.115,1.931 30.869,1.645C30.622,1.36 30.398,1.126 30.197,0.945C32.455,0.062 34.411,-1.109 36.065,-2.568C37.719,-4.027 38.958,-5.69 39.782,-7.556ZM35.225,-19.971L36.163,-21.207C36.824,-20.755 37.49,-20.221 38.16,-19.607C38.83,-18.993 39.337,-18.437 39.681,-17.94L38.701,-16.539C38.369,-17.039 37.87,-17.614 37.204,-18.264C36.538,-18.914 35.878,-19.483 35.225,-19.971ZM40.835,-16.325L42.217,-16.884C42.642,-16.193 43.034,-15.44 43.391,-14.627C43.749,-13.814 43.986,-13.119 44.103,-12.544L42.632,-11.853C42.499,-12.448 42.266,-13.17 41.932,-14.017C41.598,-14.865 41.233,-15.634 40.835,-16.325ZM35.617,-14.243C36.558,-14.291 37.629,-14.352 38.828,-14.428C40.027,-14.504 41.285,-14.585 42.603,-14.673L42.62,-13.126C41.421,-13.015 40.261,-12.903 39.139,-12.789C38.017,-12.676 36.955,-12.577 35.955,-12.494L35.617,-14.243ZM38.709,-24.908L40.467,-24.214C40.033,-23.39 39.575,-22.531 39.093,-21.637C38.611,-20.743 38.164,-19.989 37.752,-19.377L36.479,-19.976C36.731,-20.424 36.995,-20.936 37.272,-21.512C37.548,-22.088 37.816,-22.676 38.075,-23.276C38.333,-23.876 38.545,-24.42 38.709,-24.908ZM41.186,-21.907L42.846,-21.12C42.347,-20.255 41.796,-19.347 41.194,-18.396C40.593,-17.445 39.99,-16.526 39.386,-15.639C38.782,-14.752 38.206,-13.968 37.658,-13.287L36.39,-14.005C36.93,-14.689 37.497,-15.494 38.092,-16.419C38.686,-17.344 39.257,-18.288 39.806,-19.253C40.354,-20.218 40.814,-21.103 41.186,-21.907ZM25.076,-19.971L26.014,-21.207C26.675,-20.755 27.34,-20.221 28.01,-19.607C28.68,-18.993 29.181,-18.437 29.513,-17.94L28.552,-16.539C28.208,-17.039 27.702,-17.614 27.036,-18.264C26.37,-18.914 25.717,-19.483 25.076,-19.971ZM30.274,-16.149L31.656,-16.662C32.053,-15.97 32.411,-15.216 32.728,-14.399C33.046,-13.581 33.255,-12.885 33.356,-12.309L31.868,-11.672C31.775,-12.276 31.578,-12.995 31.278,-13.83C30.979,-14.665 30.644,-15.438 30.274,-16.149ZM25.181,-13.905C26.122,-13.952 27.195,-14.021 28.4,-14.111C29.605,-14.201 30.87,-14.29 32.195,-14.378L32.212,-12.767C31.018,-12.639 29.852,-12.522 28.714,-12.417C27.577,-12.311 26.51,-12.215 25.513,-12.127L25.181,-13.905ZM28.56,-24.908L30.306,-24.202C29.872,-23.379 29.413,-22.516 28.929,-21.614C28.445,-20.711 28.003,-19.95 27.603,-19.33L26.311,-19.918C26.575,-20.373 26.846,-20.893 27.122,-21.477C27.399,-22.061 27.667,-22.657 27.926,-23.265C28.184,-23.872 28.396,-24.42 28.56,-24.908ZM31.037,-21.907L32.678,-21.12C32.159,-20.24 31.593,-19.304 30.979,-18.314C30.366,-17.323 29.743,-16.369 29.111,-15.45C28.48,-14.531 27.88,-13.723 27.312,-13.027L26.037,-13.714C26.597,-14.426 27.186,-15.263 27.805,-16.223C28.423,-17.184 29.018,-18.164 29.59,-19.165C30.163,-20.165 30.645,-21.079 31.037,-21.907ZM16.548,-18.693L25.648,-18.693L25.648,-16.6L16.548,-16.6L16.548,-18.693ZM20.355,-25.211L22.395,-25.211L22.395,2.356L20.355,2.356L20.355,-25.211ZM20.276,-17.435L21.613,-17.015C21.404,-15.843 21.142,-14.614 20.827,-13.33C20.512,-12.045 20.154,-10.784 19.753,-9.546C19.352,-8.308 18.922,-7.157 18.464,-6.095C18.005,-5.033 17.529,-4.124 17.037,-3.368C16.918,-3.648 16.746,-3.969 16.52,-4.331C16.294,-4.693 16.096,-4.996 15.926,-5.24C16.382,-5.917 16.829,-6.728 17.266,-7.674C17.704,-8.62 18.117,-9.644 18.506,-10.747C18.895,-11.849 19.243,-12.974 19.551,-14.121C19.858,-15.268 20.1,-16.372 20.276,-17.435ZM22.251,-15.462C22.411,-15.262 22.649,-14.914 22.965,-14.419C23.281,-13.923 23.627,-13.379 24.004,-12.788C24.38,-12.196 24.722,-11.646 25.03,-11.138C25.338,-10.631 25.553,-10.267 25.673,-10.047L24.523,-8.394C24.383,-8.764 24.169,-9.239 23.883,-9.818C23.596,-10.397 23.289,-10.998 22.96,-11.622C22.631,-12.245 22.318,-12.824 22.021,-13.359C21.725,-13.894 21.493,-14.309 21.325,-14.604L22.251,-15.462Z" style="fill-rule:nonzero;"/>
            <path d="M58.804,-23.721C58.679,-23.132 58.521,-22.431 58.327,-21.619C58.134,-20.806 57.836,-19.894 57.432,-18.884C57.067,-17.975 56.616,-17.043 56.081,-16.087C55.546,-15.131 54.98,-14.258 54.384,-13.47C54.767,-13.713 55.2,-13.918 55.682,-14.083C56.164,-14.249 56.658,-14.376 57.163,-14.463C57.669,-14.55 58.135,-14.594 58.562,-14.594C59.728,-14.594 60.707,-14.265 61.5,-13.609C62.293,-12.953 62.689,-12.009 62.689,-10.777C62.689,-10.394 62.691,-9.908 62.695,-9.319C62.699,-8.731 62.708,-8.112 62.722,-7.461C62.736,-6.811 62.75,-6.176 62.764,-5.558C62.777,-4.94 62.784,-4.397 62.784,-3.929L60.477,-3.929C60.505,-4.322 60.526,-4.793 60.54,-5.341C60.554,-5.889 60.566,-6.461 60.576,-7.057C60.586,-7.653 60.59,-8.221 60.587,-8.76C60.585,-9.299 60.584,-9.76 60.584,-10.144C60.572,-11.022 60.299,-11.666 59.767,-12.077C59.234,-12.488 58.576,-12.694 57.792,-12.694C56.836,-12.694 55.907,-12.486 55.004,-12.07C54.101,-11.654 53.304,-11.131 52.613,-10.501C52.185,-10.09 51.752,-9.618 51.315,-9.086C50.877,-8.555 50.404,-7.982 49.896,-7.367L47.838,-8.886C49.282,-10.283 50.485,-11.591 51.447,-12.81C52.409,-14.029 53.189,-15.163 53.785,-16.214C54.381,-17.265 54.849,-18.215 55.186,-19.065C55.515,-19.889 55.781,-20.727 55.983,-21.579C56.185,-22.43 56.306,-23.213 56.346,-23.928L58.804,-23.721ZM48.534,-20.487C49.343,-20.379 50.218,-20.299 51.158,-20.245C52.099,-20.191 52.915,-20.164 53.605,-20.164C54.954,-20.164 56.399,-20.197 57.94,-20.263C59.481,-20.329 61.037,-20.435 62.608,-20.581C64.178,-20.727 65.667,-20.924 67.074,-21.172L67.062,-18.949C66.014,-18.784 64.9,-18.644 63.72,-18.528C62.539,-18.412 61.341,-18.319 60.127,-18.249C58.912,-18.179 57.738,-18.129 56.605,-18.099C55.471,-18.069 54.428,-18.054 53.475,-18.054C53.05,-18.054 52.559,-18.059 52.002,-18.069C51.445,-18.079 50.868,-18.101 50.27,-18.135C49.673,-18.168 49.094,-18.199 48.534,-18.227L48.534,-20.487ZM71.457,-13.242C71.202,-13.167 70.919,-13.074 70.608,-12.965C70.297,-12.856 69.986,-12.742 69.676,-12.623C69.365,-12.504 69.074,-12.389 68.804,-12.278C67.75,-11.869 66.533,-11.377 65.153,-10.802C63.773,-10.227 62.363,-9.559 60.922,-8.798C59.928,-8.285 59.051,-7.757 58.291,-7.212C57.532,-6.668 56.933,-6.1 56.497,-5.507C56.06,-4.914 55.841,-4.267 55.841,-3.568C55.841,-2.979 55.976,-2.508 56.247,-2.154C56.517,-1.799 56.898,-1.528 57.389,-1.339C57.88,-1.15 58.454,-1.024 59.111,-0.96C59.768,-0.896 60.483,-0.864 61.256,-0.864C62.426,-0.864 63.755,-0.928 65.243,-1.055C66.731,-1.183 68.136,-1.362 69.456,-1.593L69.379,0.818C68.632,0.91 67.783,0.998 66.829,1.082C65.876,1.166 64.913,1.23 63.941,1.274C62.969,1.318 62.044,1.34 61.166,1.34C59.746,1.34 58.45,1.211 57.277,0.954C56.105,0.698 55.172,0.239 54.479,-0.421C53.785,-1.081 53.438,-2.017 53.438,-3.227C53.438,-4.139 53.648,-4.97 54.066,-5.72C54.485,-6.47 55.046,-7.154 55.75,-7.773C56.454,-8.391 57.241,-8.964 58.109,-9.491C58.978,-10.018 59.856,-10.508 60.743,-10.96C61.7,-11.465 62.604,-11.909 63.454,-12.292C64.305,-12.675 65.112,-13.028 65.875,-13.351C66.638,-13.675 67.348,-13.991 68.006,-14.3C68.459,-14.506 68.881,-14.7 69.273,-14.88C69.665,-15.06 70.065,-15.255 70.474,-15.465L71.457,-13.242Z" style="fill-rule:nonzero;"/>
            <path d="M85.585,-22.105L103.605,-22.105L103.605,-20.129L85.585,-20.129L85.585,-22.105ZM89.414,-25.193L91.512,-25.193L91.512,-17.573L89.414,-17.573L89.414,-25.193ZM97.267,-25.193L99.4,-25.193L99.4,-17.514L97.267,-17.514L97.267,-25.193ZM94.283,-16.35C93.707,-15.42 92.962,-14.468 92.05,-13.492C91.137,-12.517 90.126,-11.589 89.017,-10.71C87.908,-9.831 86.743,-9.066 85.523,-8.416C85.408,-8.692 85.246,-9.005 85.037,-9.353C84.827,-9.701 84.622,-9.996 84.421,-10.236C85.622,-10.834 86.783,-11.574 87.904,-12.458C89.025,-13.341 90.043,-14.295 90.958,-15.32C91.873,-16.346 92.598,-17.362 93.135,-18.368L95.235,-18.368C95.979,-17.278 96.847,-16.239 97.839,-15.251C98.83,-14.263 99.887,-13.378 101.008,-12.596C102.13,-11.814 103.233,-11.172 104.317,-10.67C104.112,-10.414 103.896,-10.102 103.669,-9.734C103.442,-9.365 103.256,-9.03 103.11,-8.727C102.033,-9.304 100.941,-10.001 99.836,-10.816C98.73,-11.632 97.698,-12.516 96.739,-13.47C95.779,-14.423 94.961,-15.383 94.283,-16.35ZM89.655,-11.421L99.249,-11.421L99.249,-9.549L89.655,-9.549L89.655,-11.421ZM88.858,-0.756L100.122,-0.756L100.122,1.096L88.858,1.096L88.858,-0.756ZM87.739,-7.073L101.322,-7.073L101.322,2.284L99.2,2.284L99.2,-5.22L89.809,-5.22L89.809,2.429L87.739,2.429L87.739,-7.073ZM75.821,-10.005C77.033,-10.327 78.496,-10.747 80.211,-11.266C81.926,-11.785 83.663,-12.312 85.423,-12.845L85.719,-10.816C84.094,-10.28 82.461,-9.75 80.82,-9.228C79.178,-8.705 77.69,-8.238 76.355,-7.825L75.821,-10.005ZM76.335,-19.154L85.482,-19.154L85.482,-17.048L76.335,-17.048L76.335,-19.154ZM80.405,-25.181L82.562,-25.181L82.562,-0.346C82.562,0.295 82.485,0.793 82.332,1.147C82.178,1.501 81.907,1.769 81.518,1.95C81.129,2.139 80.617,2.261 79.984,2.316C79.35,2.371 78.54,2.393 77.553,2.381C77.517,2.094 77.433,1.739 77.301,1.318C77.169,0.897 77.023,0.527 76.865,0.207C77.552,0.227 78.173,0.239 78.73,0.243C79.286,0.247 79.659,0.242 79.846,0.23C80.046,0.23 80.189,0.188 80.276,0.104C80.362,0.02 80.405,-0.128 80.405,-0.34L80.405,-25.181Z" style="fill-rule:nonzero;"/>
            <path d="M126.901,-23.69L128.52,-24.82C129.298,-24.212 130.087,-23.524 130.887,-22.756C131.687,-21.989 132.301,-21.303 132.73,-20.698L131.03,-19.456C130.769,-19.856 130.409,-20.305 129.95,-20.803C129.49,-21.301 128.995,-21.805 128.464,-22.317C127.932,-22.829 127.411,-23.286 126.901,-23.69ZM106.614,-18.568L133.525,-18.568L133.525,-16.657L106.614,-16.657L106.614,-18.568ZM107.958,-22.795L120.995,-22.795L120.995,-20.989L107.958,-20.989L107.958,-22.795ZM107.436,-14.665L121.553,-14.665L121.553,-12.965L107.436,-12.965L107.436,-14.665ZM106.973,-2.334L121.671,-2.334L121.671,-0.58L106.973,-0.58L106.973,-2.334ZM113.403,-25.217L115.566,-25.217L115.566,-16.953L113.403,-16.953L113.403,-25.217ZM109.843,-7.037L109.843,-5.324L119.139,-5.324L119.139,-7.037L109.843,-7.037ZM109.843,-10.012L109.843,-8.317L119.139,-8.317L119.139,-10.012L109.843,-10.012ZM108.142,-11.326L120.899,-11.326L120.899,-3.991L108.142,-3.991L108.142,-11.326ZM113.572,-10.549L115.319,-10.549L115.319,-4.473L115.448,-4.473L115.448,2.423L113.443,2.423L113.443,-4.473L113.572,-4.473L113.572,-10.549ZM113.42,-16.578L115.471,-16.578L115.471,-10.875L113.42,-10.875L113.42,-16.578ZM122.669,-25.163L124.926,-25.163C124.907,-22.299 124.975,-19.591 125.131,-17.037C125.286,-14.483 125.528,-12.155 125.856,-10.053C126.184,-7.95 126.585,-6.133 127.06,-4.602C127.535,-3.07 128.084,-1.888 128.707,-1.056C129.331,-0.223 130.013,0.194 130.754,0.194C131.168,0.194 131.469,-0.204 131.658,-0.998C131.847,-1.792 131.981,-3.109 132.061,-4.947C132.302,-4.711 132.599,-4.488 132.952,-4.278C133.305,-4.067 133.624,-3.907 133.907,-3.797C133.8,-2.209 133.624,-0.963 133.378,-0.06C133.133,0.843 132.786,1.477 132.339,1.843C131.892,2.209 131.295,2.393 130.546,2.393C129.564,2.393 128.688,2.057 127.919,1.387C127.149,0.716 126.477,-0.228 125.903,-1.447C125.329,-2.665 124.837,-4.118 124.428,-5.806C124.019,-7.494 123.689,-9.361 123.438,-11.408C123.187,-13.454 122.999,-15.637 122.874,-17.955C122.749,-20.274 122.681,-22.676 122.669,-25.163ZM130.167,-15.016L132.177,-14.377C131.445,-12.048 130.521,-9.837 129.403,-7.747C128.285,-5.656 126.989,-3.747 125.516,-2.021C124.042,-0.295 122.389,1.182 120.558,2.409C120.392,2.138 120.156,1.845 119.85,1.53C119.544,1.215 119.247,0.947 118.959,0.726C120.728,-0.38 122.328,-1.741 123.761,-3.357C125.194,-4.973 126.449,-6.771 127.525,-8.752C128.602,-10.733 129.482,-12.821 130.167,-15.016Z" style="fill-rule:nonzero;"/>
            <path d="M145.206,-23.371C145.13,-22.879 145.071,-22.377 145.028,-21.866C144.984,-21.356 144.948,-20.85 144.921,-20.348C144.893,-19.508 144.856,-18.467 144.81,-17.227C144.764,-15.987 144.724,-14.67 144.69,-13.275C144.656,-11.881 144.626,-10.496 144.6,-9.12C144.574,-7.744 144.561,-6.5 144.561,-5.387C144.561,-4.293 144.771,-3.419 145.193,-2.765C145.615,-2.111 146.197,-1.642 146.94,-1.357C147.683,-1.072 148.528,-0.93 149.477,-0.93C150.844,-0.93 152.076,-1.105 153.172,-1.456C154.268,-1.806 155.247,-2.275 156.11,-2.861C156.973,-3.448 157.741,-4.112 158.415,-4.852C159.088,-5.592 159.695,-6.351 160.235,-7.13L161.925,-5.093C161.416,-4.385 160.785,-3.645 160.032,-2.871C159.278,-2.098 158.392,-1.378 157.374,-0.713C156.355,-0.048 155.184,0.491 153.86,0.905C152.536,1.318 151.053,1.525 149.41,1.525C147.975,1.525 146.709,1.307 145.612,0.87C144.515,0.434 143.658,-0.273 143.041,-1.251C142.425,-2.228 142.116,-3.532 142.116,-5.162C142.116,-6.056 142.126,-7.049 142.146,-8.14C142.166,-9.231 142.194,-10.357 142.23,-11.517C142.266,-12.678 142.297,-13.813 142.324,-14.924C142.35,-16.034 142.373,-17.06 142.393,-18.002C142.413,-18.943 142.423,-19.725 142.423,-20.348C142.423,-20.912 142.403,-21.452 142.364,-21.967C142.324,-22.483 142.255,-22.959 142.156,-23.395L145.206,-23.371Z" style="fill-rule:nonzero;"/>
            <path d="M178.284,-23.601C178.189,-23.275 178.091,-22.87 177.992,-22.387C177.892,-21.903 177.815,-21.516 177.759,-21.225C177.619,-20.504 177.453,-19.668 177.261,-18.716C177.07,-17.765 176.856,-16.769 176.621,-15.728C176.385,-14.688 176.131,-13.67 175.859,-12.674C175.599,-11.61 175.279,-10.453 174.899,-9.205C174.519,-7.957 174.117,-6.701 173.693,-5.437C173.269,-4.173 172.841,-2.98 172.41,-1.859C171.978,-0.738 171.564,0.238 171.169,1.068L168.544,0.181C168.996,-0.595 169.46,-1.527 169.936,-2.615C170.412,-3.703 170.874,-4.867 171.324,-6.106C171.773,-7.346 172.193,-8.581 172.582,-9.813C172.971,-11.045 173.306,-12.187 173.586,-13.239C173.774,-13.934 173.959,-14.672 174.141,-15.454C174.323,-16.235 174.494,-17 174.652,-17.749C174.81,-18.498 174.946,-19.188 175.058,-19.819C175.17,-20.449 175.256,-20.962 175.316,-21.356C175.372,-21.777 175.411,-22.219 175.433,-22.683C175.455,-23.146 175.452,-23.531 175.425,-23.838L178.284,-23.601ZM171.638,-18.596C172.743,-18.596 173.942,-18.653 175.235,-18.767C176.529,-18.881 177.847,-19.046 179.191,-19.264C180.535,-19.482 181.828,-19.747 183.071,-20.059L183.071,-17.707C181.831,-17.431 180.528,-17.194 179.163,-16.994C177.798,-16.794 176.463,-16.639 175.159,-16.529C173.854,-16.419 172.664,-16.364 171.59,-16.364C170.94,-16.364 170.336,-16.376 169.779,-16.399C169.221,-16.423 168.664,-16.451 168.108,-16.484L168.043,-18.818C168.753,-18.737 169.394,-18.681 169.966,-18.647C170.539,-18.613 171.096,-18.596 171.638,-18.596ZM181.119,-14.468C181.914,-14.544 182.788,-14.605 183.74,-14.653C184.693,-14.701 185.647,-14.725 186.602,-14.725C187.479,-14.725 188.362,-14.708 189.252,-14.674C190.142,-14.64 190.992,-14.573 191.802,-14.473L191.73,-12.191C190.966,-12.291 190.155,-12.375 189.298,-12.443C188.441,-12.51 187.566,-12.544 186.675,-12.544C185.742,-12.544 184.813,-12.519 183.89,-12.469C182.966,-12.419 182.043,-12.34 181.119,-12.233L181.119,-14.468ZM181.736,-7.172C181.611,-6.682 181.509,-6.209 181.429,-5.753C181.349,-5.297 181.309,-4.87 181.309,-4.473C181.309,-4.116 181.377,-3.773 181.513,-3.444C181.649,-3.115 181.895,-2.817 182.251,-2.552C182.606,-2.287 183.118,-2.075 183.785,-1.918C184.452,-1.761 185.317,-1.682 186.38,-1.682C187.363,-1.682 188.355,-1.734 189.357,-1.838C190.358,-1.942 191.323,-2.088 192.251,-2.276L192.162,0.148C191.351,0.26 190.455,0.358 189.474,0.442C188.493,0.526 187.451,0.568 186.35,0.568C183.998,0.568 182.192,0.202 180.932,-0.529C179.672,-1.26 179.042,-2.368 179.042,-3.851C179.042,-4.428 179.086,-5.004 179.173,-5.579C179.26,-6.154 179.37,-6.758 179.502,-7.391L181.736,-7.172Z" style="fill-rule:nonzero;"/>
        </g>
        <g transform="matrix(0.99946,0,0,0.99279,279.031,112.349)">
            <path d="M-180.256,-34.456C-179.8,-33.8 -179.278,-32.994 -178.689,-32.038C-178.1,-31.083 -177.523,-30.113 -176.956,-29.13C-176.389,-28.147 -175.917,-27.261 -175.54,-26.473L-179.586,-24.701C-180.054,-25.713 -180.529,-26.678 -181.012,-27.594C-181.495,-28.511 -181.992,-29.405 -182.502,-30.276C-183.013,-31.148 -183.574,-31.99 -184.186,-32.802L-180.256,-34.456ZM-173.637,-37.141C-173.148,-36.508 -172.603,-35.721 -172.003,-34.782C-171.403,-33.843 -170.809,-32.89 -170.22,-31.924C-169.631,-30.957 -169.148,-30.097 -168.771,-29.341L-172.717,-27.435C-173.206,-28.448 -173.707,-29.402 -174.218,-30.296C-174.729,-31.19 -175.253,-32.059 -175.792,-32.902C-176.33,-33.746 -176.905,-34.563 -177.517,-35.352L-173.637,-37.141ZM-213.439,-13.943C-212.715,-14.543 -212.059,-15.122 -211.469,-15.678C-210.88,-16.234 -210.218,-16.88 -209.483,-17.614C-208.895,-18.203 -208.226,-18.933 -207.476,-19.804C-206.727,-20.675 -205.916,-21.633 -205.044,-22.677C-204.172,-23.721 -203.289,-24.79 -202.395,-25.884C-201.501,-26.979 -200.636,-28.021 -199.802,-29.01C-198.368,-30.712 -196.905,-31.654 -195.414,-31.838C-193.923,-32.021 -192.243,-31.223 -190.374,-29.443C-189.273,-28.431 -188.125,-27.317 -186.931,-26.1C-185.737,-24.884 -184.556,-23.668 -183.39,-22.452C-182.224,-21.235 -181.152,-20.094 -180.174,-19.027C-179.041,-17.838 -177.766,-16.483 -176.349,-14.96C-174.932,-13.438 -173.482,-11.882 -171.998,-10.293C-170.515,-8.704 -169.14,-7.221 -167.873,-5.843L-172.808,-0.573C-173.93,-1.984 -175.129,-3.456 -176.406,-4.989C-177.683,-6.522 -178.935,-8.022 -180.163,-9.489C-181.39,-10.955 -182.509,-12.266 -183.519,-13.421C-184.241,-14.277 -185.044,-15.194 -185.927,-16.171C-186.81,-17.149 -187.688,-18.119 -188.56,-19.08C-189.432,-20.041 -190.242,-20.915 -190.992,-21.704C-191.741,-22.492 -192.349,-23.126 -192.815,-23.603C-193.68,-24.446 -194.413,-24.84 -195.013,-24.785C-195.612,-24.729 -196.289,-24.23 -197.043,-23.287C-197.565,-22.632 -198.169,-21.852 -198.857,-20.948C-199.546,-20.043 -200.258,-19.097 -200.996,-18.109C-201.734,-17.121 -202.447,-16.166 -203.135,-15.244C-203.823,-14.323 -204.428,-13.523 -204.949,-12.845C-205.494,-12.099 -206.045,-11.329 -206.601,-10.534C-207.157,-9.738 -207.646,-9.034 -208.068,-8.422L-213.439,-13.943Z" style="fill-rule:nonzero;"/>
            <path d="M-128.676,-40.128C-128.243,-39.539 -127.782,-38.828 -127.293,-37.995C-126.804,-37.161 -126.327,-36.328 -125.86,-35.495C-125.394,-34.661 -124.999,-33.922 -124.677,-33.278L-128.322,-31.707C-128.833,-32.729 -129.452,-33.902 -130.18,-35.224C-130.907,-36.546 -131.604,-37.685 -132.271,-38.641L-128.676,-40.128ZM-122.89,-42.314C-122.445,-41.692 -121.968,-40.961 -121.456,-40.122C-120.945,-39.283 -120.448,-38.455 -119.965,-37.638C-119.482,-36.822 -119.096,-36.114 -118.807,-35.514L-122.418,-33.943C-122.94,-35.009 -123.573,-36.189 -124.318,-37.484C-125.062,-38.779 -125.779,-39.892 -126.468,-40.826L-122.89,-42.314ZM-150.502,-38.107C-150.603,-37.405 -150.683,-36.595 -150.745,-35.676C-150.806,-34.757 -150.836,-33.942 -150.836,-33.23L-150.836,-7.674C-150.836,-6.542 -150.57,-5.763 -150.037,-5.336C-149.504,-4.909 -148.665,-4.584 -147.522,-4.363C-146.755,-4.251 -145.845,-4.168 -144.791,-4.113C-143.738,-4.057 -142.644,-4.03 -141.512,-4.03C-140.201,-4.03 -138.76,-4.066 -137.187,-4.138C-135.615,-4.211 -134.026,-4.316 -132.42,-4.455C-130.814,-4.595 -129.297,-4.775 -127.868,-4.997C-126.44,-5.219 -125.21,-5.464 -124.176,-5.73L-124.176,0.809C-125.7,1.032 -127.492,1.218 -129.554,1.368C-131.616,1.518 -133.719,1.632 -135.863,1.709C-138.008,1.787 -140.003,1.826 -141.847,1.826C-143.426,1.826 -144.938,1.779 -146.383,1.684C-147.828,1.589 -149.084,1.459 -150.151,1.292C-152.242,0.903 -153.866,0.132 -155.023,-1.02C-156.18,-2.172 -156.758,-3.809 -156.758,-5.933L-156.758,-33.23C-156.758,-33.619 -156.772,-34.106 -156.8,-34.69C-156.828,-35.275 -156.864,-35.874 -156.909,-36.486C-156.953,-37.099 -157.02,-37.639 -157.109,-38.107L-150.502,-38.107ZM-153.462,-22.645C-151.884,-22.989 -150.191,-23.403 -148.386,-23.886C-146.581,-24.369 -144.756,-24.892 -142.912,-25.453C-141.068,-26.014 -139.303,-26.597 -137.615,-27.202C-135.926,-27.807 -134.411,-28.392 -133.068,-28.959C-132.211,-29.303 -131.362,-29.684 -130.522,-30.102C-129.682,-30.519 -128.811,-31 -127.909,-31.545L-125.484,-25.859C-126.375,-25.502 -127.319,-25.116 -128.315,-24.698C-129.311,-24.281 -130.21,-23.917 -131.011,-23.605C-132.51,-23.017 -134.203,-22.403 -136.092,-21.765C-137.98,-21.126 -139.941,-20.502 -141.975,-19.891C-144.008,-19.28 -146.008,-18.705 -147.976,-18.166C-149.943,-17.627 -151.761,-17.163 -153.429,-16.773L-153.462,-22.645Z" style="fill-rule:nonzero;"/>
            <path d="M-110.718,-22.73C-110.14,-22.696 -109.411,-22.652 -108.531,-22.596C-107.652,-22.54 -106.723,-22.499 -105.743,-22.471C-104.764,-22.443 -103.842,-22.429 -102.975,-22.429L-75.964,-22.429C-74.764,-22.429 -73.667,-22.471 -72.671,-22.554C-71.676,-22.638 -70.861,-22.696 -70.226,-22.73L-70.226,-15.704C-70.793,-15.737 -71.619,-15.787 -72.704,-15.854C-73.789,-15.921 -74.87,-15.955 -75.947,-15.955L-102.975,-15.955C-104.376,-15.955 -105.791,-15.93 -107.221,-15.879C-108.651,-15.829 -109.817,-15.771 -110.718,-15.704L-110.718,-22.73Z" style="fill-rule:nonzero;"/>
            <path d="M-53.337,0L-53.337,-31.4L-63.932,-31.4L-63.932,-36.937L-36.068,-36.937L-36.068,-31.4L-46.697,-31.4L-46.697,0L-53.337,0Z" style="fill-rule:nonzero;"/>
            <path d="M-29.907,-40.49L-7.138,-40.49L-7.138,-35.79L-29.907,-35.79L-29.907,-40.49ZM-31.607,-30.07L-6.038,-30.07L-6.038,-25.338L-31.607,-25.338L-31.607,-30.07ZM-32.22,-2.279L13.03,-2.279L13.03,2.688L-32.22,2.688L-32.22,-2.279ZM-27.104,-11.826L7.949,-11.826L7.949,-6.959L-27.104,-6.959L-27.104,-11.826ZM-16.014,-38.634L-11.012,-38.634L-11.012,-15.38L-16.014,-15.38L-16.014,-38.634ZM-12.249,-16.245L-6.745,-16.245L-6.745,1.335L-12.249,1.335L-12.249,-16.245ZM-3.646,-39.47L1.254,-39.47L1.254,-22.552L-3.646,-22.552L-3.646,-39.47ZM5.552,-41.835L10.654,-41.835L10.654,-20.127C10.654,-18.846 10.503,-17.854 10.203,-17.152C9.902,-16.45 9.301,-15.893 8.4,-15.481C7.521,-15.124 6.442,-14.896 5.163,-14.796C3.885,-14.695 2.363,-14.645 0.597,-14.645C0.496,-15.347 0.287,-16.153 -0.031,-17.061C-0.349,-17.97 -0.691,-18.753 -1.059,-19.411C0.161,-19.378 1.318,-19.355 2.412,-19.344C3.506,-19.333 4.23,-19.344 4.586,-19.377C4.974,-19.389 5.232,-19.45 5.36,-19.561C5.488,-19.672 5.552,-19.894 5.552,-20.227L5.552,-41.835ZM-25.73,-38.567L-20.796,-38.567L-20.796,-29.763C-20.796,-27.974 -21.002,-26.109 -21.413,-24.17C-21.824,-22.231 -22.619,-20.38 -23.798,-18.62C-24.977,-16.859 -26.705,-15.334 -28.984,-14.046C-29.207,-14.403 -29.536,-14.821 -29.971,-15.3C-30.406,-15.78 -30.852,-16.254 -31.309,-16.722C-31.766,-17.19 -32.157,-17.547 -32.48,-17.793C-30.446,-18.902 -28.957,-20.126 -28.013,-21.463C-27.069,-22.8 -26.452,-24.196 -26.163,-25.65C-25.874,-27.105 -25.73,-28.521 -25.73,-29.898L-25.73,-38.567Z" style="fill-rule:nonzero;"/>
            <path d="M22.039,-35.127C23.05,-35.094 23.982,-35.069 24.834,-35.052C25.685,-35.036 26.44,-35.027 27.096,-35.027L54.418,-35.027C55.019,-35.027 55.75,-35.03 56.612,-35.036C57.473,-35.041 58.338,-35.06 59.207,-35.094C59.173,-34.381 59.148,-33.624 59.132,-32.823C59.115,-32.021 59.107,-31.253 59.107,-30.519L59.107,-5.987C59.107,-5.53 59.112,-4.943 59.123,-4.225C59.135,-3.507 59.143,-2.787 59.148,-2.064C59.154,-1.34 59.165,-0.718 59.182,-0.195C59.198,0.328 59.207,0.628 59.207,0.705L53.017,0.705C53.028,0.606 53.039,0.2 53.05,-0.513C53.061,-1.225 53.078,-2.063 53.1,-3.026C53.123,-3.989 53.134,-4.893 53.134,-5.74L53.134,-29.339L28.078,-29.339L28.078,-3.868C28.078,-3.167 28.086,-2.487 28.103,-1.83C28.119,-1.174 28.131,-0.609 28.136,-0.136C28.141,0.336 28.144,0.617 28.144,0.705L21.989,0.705C21.989,0.617 21.997,0.325 22.014,-0.17C22.03,-0.664 22.047,-1.265 22.064,-1.971C22.08,-2.678 22.094,-3.393 22.106,-4.116C22.117,-4.84 22.122,-5.48 22.122,-6.037L22.122,-32.823C22.122,-33.681 22.094,-34.449 22.039,-35.127ZM55.375,-7.732L55.375,-2.061L25.082,-2.061L25.082,-7.732L55.375,-7.732Z" style="fill-rule:nonzero;"/>
            <path d="M87.363,-39.021C87.096,-38.41 86.826,-37.739 86.553,-37.01C86.28,-36.281 86.038,-35.644 85.826,-35.099C85.56,-34.299 85.226,-33.398 84.825,-32.397C84.424,-31.396 84.004,-30.389 83.565,-29.377C83.126,-28.365 82.678,-27.415 82.223,-26.527C81.567,-25.238 80.765,-23.869 79.815,-22.419C78.865,-20.969 77.849,-19.585 76.766,-18.269C75.683,-16.952 74.596,-15.821 73.507,-14.876L67.886,-18.272C68.786,-18.927 69.656,-19.691 70.494,-20.563C71.333,-21.434 72.132,-22.351 72.893,-23.311C73.654,-24.272 74.349,-25.216 74.976,-26.143C75.604,-27.071 76.151,-27.923 76.618,-28.701C77.296,-29.889 77.871,-31.097 78.343,-32.325C78.816,-33.552 79.202,-34.639 79.502,-35.583C79.77,-36.363 79.987,-37.173 80.154,-38.013C80.321,-38.854 80.421,-39.641 80.454,-40.376L87.363,-39.021ZM79.932,-31.062L106.43,-31.062C107.074,-31.062 107.88,-31.087 108.848,-31.137C109.816,-31.187 110.694,-31.273 111.484,-31.395L111.484,-25.274C110.583,-25.352 109.657,-25.399 108.706,-25.416C107.756,-25.432 106.997,-25.441 106.43,-25.441L79.399,-25.441L79.932,-31.062ZM99.126,-27.866C99.037,-24.133 98.637,-20.728 97.927,-17.651C97.217,-14.573 96.217,-11.795 94.928,-9.316C93.639,-6.837 92.07,-4.617 90.219,-2.654C88.369,-0.692 86.265,1.034 83.908,2.523L77.87,-1.541C78.716,-1.886 79.539,-2.289 80.34,-2.751C81.141,-3.213 81.831,-3.688 82.409,-4.177C83.799,-5.234 85.113,-6.474 86.351,-7.896C87.59,-9.319 88.697,-10.986 89.674,-12.896C90.651,-14.806 91.431,-16.993 92.013,-19.458C92.595,-21.922 92.914,-24.73 92.969,-27.882L99.126,-27.866Z" style="fill-rule:nonzero;"/>
            <path d="M140.39,-29.441C140.635,-28.93 140.943,-28.18 141.315,-27.191C141.688,-26.202 142.085,-25.151 142.507,-24.04C142.93,-22.929 143.313,-21.876 143.658,-20.882C144.002,-19.887 144.264,-19.107 144.442,-18.54L139.105,-16.666C138.96,-17.267 138.724,-18.053 138.396,-19.025C138.068,-19.998 137.704,-21.031 137.304,-22.125C136.904,-23.219 136.507,-24.264 136.113,-25.259C135.719,-26.253 135.377,-27.062 135.087,-27.685L140.39,-29.441ZM158.743,-26.034C158.497,-25.32 158.291,-24.701 158.124,-24.178C157.957,-23.654 157.806,-23.164 157.673,-22.707C157.029,-20.12 156.151,-17.555 155.04,-15.011C153.929,-12.468 152.507,-10.085 150.775,-7.863C148.453,-4.896 145.828,-2.387 142.899,-0.336C139.971,1.715 137.062,3.296 134.172,4.408L129.472,-0.393C131.326,-0.914 133.262,-1.669 135.279,-2.658C137.296,-3.647 139.238,-4.841 141.106,-6.241C142.974,-7.641 144.591,-9.197 145.957,-10.908C147.101,-12.341 148.128,-13.983 149.039,-15.833C149.95,-17.683 150.702,-19.655 151.296,-21.75C151.89,-23.845 152.287,-25.942 152.486,-28.041L158.743,-26.034ZM128.773,-26.84C129.085,-26.228 129.45,-25.427 129.866,-24.438C130.283,-23.449 130.714,-22.394 131.158,-21.272C131.603,-20.15 132.027,-19.073 132.433,-18.039C132.838,-17.006 133.158,-16.145 133.391,-15.455L127.954,-13.431C127.754,-14.087 127.46,-14.951 127.071,-16.023C126.682,-17.095 126.26,-18.217 125.805,-19.389C125.349,-20.562 124.91,-21.642 124.488,-22.632C124.066,-23.621 123.71,-24.372 123.42,-24.884L128.773,-26.84Z" style="fill-rule:nonzero;"/>
            <path d="M181.471,-4.687L181.471,-33.517C181.471,-34.363 181.432,-35.331 181.354,-36.421C181.275,-37.511 181.153,-38.479 180.986,-39.324L187.978,-39.324C187.889,-38.49 187.797,-37.553 187.702,-36.513C187.608,-35.474 187.561,-34.475 187.561,-33.517L187.561,-24.046C187.561,-22.069 187.563,-20.067 187.569,-18.039C187.574,-16.011 187.577,-14.085 187.577,-12.262L187.577,-4.687C187.577,-4.198 187.594,-3.551 187.627,-2.744C187.661,-1.938 187.717,-1.111 187.795,-0.265C187.872,0.581 187.939,1.332 187.995,1.989L181.019,1.989C181.153,1.066 181.262,-0.033 181.345,-1.307C181.429,-2.582 181.471,-3.708 181.471,-4.687ZM186.255,-26.326C187.911,-25.871 189.759,-25.301 191.798,-24.618C193.838,-23.935 195.902,-23.207 197.991,-22.434C200.081,-21.662 202.053,-20.895 203.909,-20.135C205.764,-19.374 207.325,-18.677 208.59,-18.045L206.064,-11.871C204.653,-12.627 203.084,-13.385 201.357,-14.145C199.63,-14.906 197.869,-15.647 196.076,-16.369C194.283,-17.091 192.54,-17.752 190.846,-18.352C189.152,-18.952 187.622,-19.474 186.255,-19.918L186.255,-26.326Z" style="fill-rule:nonzero;"/>
        </g>
        <g transform="matrix(0.99946,0,0,0.99279,212.373,160.272)">
            <path d="M-134.021,-15.721C-134.423,-15.103 -134.924,-14.452 -135.524,-13.768C-136.124,-13.084 -136.793,-12.399 -137.528,-11.714C-138.264,-11.028 -139.043,-10.372 -139.865,-9.746C-140.687,-9.12 -141.526,-8.547 -142.385,-8.029C-142.448,-8.14 -142.539,-8.27 -142.658,-8.417C-142.778,-8.565 -142.891,-8.684 -142.998,-8.776C-141.84,-9.448 -140.718,-10.229 -139.632,-11.118C-138.547,-12.008 -137.562,-12.938 -136.68,-13.907C-135.797,-14.877 -135.093,-15.806 -134.568,-16.696L-133.612,-16.696C-133.099,-15.977 -132.499,-15.251 -131.812,-14.518C-131.125,-13.785 -130.387,-13.079 -129.599,-12.398C-128.811,-11.717 -128.009,-11.088 -127.194,-10.51C-126.38,-9.933 -125.584,-9.435 -124.806,-9.016C-124.922,-8.9 -125.039,-8.766 -125.157,-8.614C-125.276,-8.462 -125.379,-8.322 -125.466,-8.194C-126.237,-8.652 -127.029,-9.18 -127.842,-9.778C-128.654,-10.377 -129.442,-11.008 -130.206,-11.674C-130.97,-12.339 -131.679,-13.017 -132.334,-13.707C-132.989,-14.398 -133.551,-15.069 -134.021,-15.721ZM-140.753,-4.733L-127.137,-4.733L-127.137,-3.83L-140.753,-3.83L-140.753,-4.733ZM-139.925,-9.234L-127.818,-9.234L-127.818,-8.324L-139.925,-8.324L-139.925,-9.234ZM-142.421,-0.011L-125.385,-0.011L-125.385,0.889L-142.421,0.889L-142.421,-0.011ZM-134.499,-8.898L-133.502,-8.898L-133.502,0.488L-134.499,0.488L-134.499,-8.898Z" style="fill-rule:nonzero;"/>
            <path d="M-122.812,-7.014L-105.052,-7.014L-105.052,-6.121L-122.812,-6.121L-122.812,-7.014ZM-118.657,-12.903L-107.585,-12.903L-107.585,-12.06L-118.657,-12.06L-118.657,-12.903ZM-118.657,-9.992L-107.585,-9.992L-107.585,-9.15L-118.657,-9.15L-118.657,-9.992ZM-121.804,0.434C-121.048,0.309 -120.161,0.158 -119.141,-0.019C-118.121,-0.196 -117.032,-0.389 -115.874,-0.597C-114.716,-0.806 -113.557,-1.011 -112.399,-1.213L-112.36,-0.35C-113.449,-0.148 -114.547,0.058 -115.653,0.268C-116.759,0.477 -117.815,0.671 -118.821,0.849C-119.827,1.027 -120.731,1.193 -121.533,1.346L-121.804,0.434ZM-114.307,-6.782C-113.559,-4.824 -112.37,-3.202 -110.74,-1.917C-109.11,-0.632 -107.119,0.244 -104.767,0.711C-104.835,0.777 -104.907,0.857 -104.983,0.952C-105.06,1.047 -105.131,1.146 -105.198,1.248C-105.265,1.351 -105.326,1.452 -105.381,1.55C-106.978,1.175 -108.412,0.623 -109.683,-0.104C-110.954,-0.832 -112.05,-1.732 -112.971,-2.804C-113.892,-3.876 -114.626,-5.118 -115.172,-6.531L-114.307,-6.782ZM-106.912,-5.697L-106.117,-5.183C-106.62,-4.802 -107.178,-4.421 -107.794,-4.038C-108.409,-3.655 -109.029,-3.293 -109.655,-2.952C-110.28,-2.61 -110.869,-2.305 -111.421,-2.035L-112.097,-2.561C-111.557,-2.832 -110.967,-3.148 -110.328,-3.507C-109.689,-3.866 -109.066,-4.239 -108.459,-4.624C-107.853,-5.01 -107.337,-5.368 -106.912,-5.697ZM-119.182,-15.825L-106.916,-15.825L-106.916,-14.96L-118.201,-14.96L-118.201,-6.643L-119.182,-6.643L-119.182,-15.825ZM-119.185,-6.711L-118.201,-6.711L-118.201,0.283L-119.185,0.414L-119.185,-6.711Z" style="fill-rule:nonzero;"/>
            <path d="M-97.666,0L-97.666,-1.015L-94.355,-1.015L-94.355,-12.438L-96.927,-12.438L-96.927,-13.227C-96.328,-13.331 -95.799,-13.462 -95.339,-13.619C-94.879,-13.777 -94.478,-13.954 -94.137,-14.15L-93.197,-14.15L-93.197,-1.015L-90.148,-1.015L-90.148,0L-97.666,0Z" style="fill-rule:nonzero;"/>
            <path d="M-86.315,0.263C-86.581,0.263 -86.816,0.164 -87.02,-0.034C-87.224,-0.232 -87.326,-0.492 -87.326,-0.814C-87.326,-1.161 -87.224,-1.432 -87.02,-1.628C-86.816,-1.824 -86.581,-1.922 -86.315,-1.922C-86.038,-1.922 -85.797,-1.824 -85.593,-1.628C-85.389,-1.432 -85.287,-1.161 -85.287,-0.814C-85.287,-0.492 -85.389,-0.232 -85.593,-0.034C-85.797,0.164 -86.038,0.263 -86.315,0.263Z" style="fill-rule:nonzero;"/>
            <path d="M-78.663,0.263C-79.416,0.263 -80.073,0.165 -80.634,-0.03C-81.194,-0.226 -81.682,-0.478 -82.097,-0.786C-82.512,-1.093 -82.871,-1.409 -83.175,-1.733L-82.526,-2.528C-82.095,-2.081 -81.581,-1.673 -80.982,-1.305C-80.384,-0.936 -79.619,-0.752 -78.687,-0.752C-78.052,-0.752 -77.492,-0.876 -77.007,-1.125C-76.521,-1.374 -76.14,-1.722 -75.864,-2.169C-75.587,-2.616 -75.449,-3.142 -75.449,-3.746C-75.449,-4.384 -75.611,-4.938 -75.934,-5.41C-76.257,-5.881 -76.774,-6.25 -77.483,-6.515C-78.192,-6.78 -79.128,-6.913 -80.291,-6.913L-80.291,-7.904C-79.214,-7.904 -78.362,-8.037 -77.737,-8.304C-77.111,-8.57 -76.661,-8.929 -76.387,-9.382C-76.113,-9.835 -75.977,-10.336 -75.977,-10.887C-75.977,-11.66 -76.224,-12.277 -76.719,-12.739C-77.214,-13.2 -77.886,-13.431 -78.735,-13.431C-79.363,-13.431 -79.95,-13.285 -80.498,-12.992C-81.046,-12.699 -81.519,-12.336 -81.916,-11.903L-82.59,-12.671C-82.087,-13.155 -81.521,-13.566 -80.891,-13.905C-80.26,-14.244 -79.533,-14.413 -78.709,-14.413C-77.963,-14.413 -77.29,-14.279 -76.691,-14.011C-76.093,-13.742 -75.62,-13.35 -75.273,-12.834C-74.925,-12.318 -74.752,-11.695 -74.752,-10.965C-74.752,-10.052 -75.005,-9.313 -75.512,-8.746C-76.018,-8.179 -76.659,-7.762 -77.434,-7.496L-77.434,-7.413C-76.854,-7.286 -76.322,-7.061 -75.838,-6.736C-75.355,-6.412 -74.967,-6 -74.676,-5.499C-74.384,-4.999 -74.238,-4.413 -74.238,-3.742C-74.238,-2.913 -74.436,-2.202 -74.83,-1.608C-75.225,-1.014 -75.755,-0.554 -76.42,-0.227C-77.085,0.1 -77.833,0.263 -78.663,0.263Z" style="fill-rule:nonzero;"/>
            <path d="M-71.11,0L-71.11,-10.674L-70.142,-10.674L-70,-9.033L-69.957,-9.033C-69.479,-9.567 -68.951,-10.017 -68.373,-10.385C-67.795,-10.753 -67.203,-10.938 -66.597,-10.938C-65.744,-10.938 -65.089,-10.744 -64.634,-10.357C-64.179,-9.97 -63.855,-9.447 -63.662,-8.789C-63.057,-9.441 -62.46,-9.962 -61.872,-10.352C-61.284,-10.742 -60.677,-10.938 -60.052,-10.938C-58.991,-10.938 -58.194,-10.594 -57.661,-9.908C-57.128,-9.221 -56.862,-8.192 -56.862,-6.822L-56.862,0L-58.019,0L-58.019,-6.667C-58.019,-7.767 -58.206,-8.581 -58.581,-9.107C-58.956,-9.634 -59.538,-9.897 -60.327,-9.897C-60.804,-9.897 -61.292,-9.738 -61.789,-9.42C-62.286,-9.102 -62.825,-8.624 -63.407,-7.987L-63.407,0L-64.565,0L-64.565,-6.667C-64.565,-7.767 -64.75,-8.581 -65.12,-9.107C-65.49,-9.634 -66.07,-9.897 -66.859,-9.897C-67.325,-9.897 -67.815,-9.738 -68.329,-9.42C-68.843,-9.102 -69.379,-8.624 -69.936,-7.987L-69.936,0L-71.11,0Z" style="fill-rule:nonzero;"/>
            <path d="M-45.826,-13.538L-40.592,-13.538L-40.592,-12.612L-45.826,-12.612L-45.826,-13.538ZM-36.876,-16.687L-35.902,-16.687L-35.902,1.44L-36.876,1.44L-36.876,-16.687ZM-47.995,-9.047L-47.446,-9.718C-46.845,-9.397 -46.23,-9.028 -45.603,-8.611C-44.975,-8.193 -44.386,-7.775 -43.834,-7.355C-43.282,-6.936 -42.838,-6.545 -42.502,-6.182L-43.085,-5.416C-43.419,-5.77 -43.857,-6.165 -44.4,-6.6C-44.943,-7.036 -45.528,-7.469 -46.154,-7.898C-46.78,-8.328 -47.394,-8.711 -47.995,-9.047ZM-45.043,-16.7L-44.075,-16.503C-44.422,-15.222 -44.847,-14.003 -45.35,-12.847C-45.853,-11.692 -46.417,-10.627 -47.041,-9.655C-47.665,-8.682 -48.351,-7.825 -49.097,-7.083C-49.148,-7.145 -49.224,-7.214 -49.327,-7.292C-49.43,-7.369 -49.535,-7.446 -49.641,-7.523C-49.747,-7.599 -49.846,-7.659 -49.938,-7.703C-49.183,-8.403 -48.496,-9.22 -47.88,-10.153C-47.263,-11.087 -46.717,-12.111 -46.242,-13.227C-45.768,-14.342 -45.368,-15.5 -45.043,-16.7ZM-39.42,-12.012C-38.968,-11.193 -38.427,-10.39 -37.796,-9.603C-37.166,-8.815 -36.474,-8.067 -35.723,-7.359C-34.971,-6.65 -34.19,-6.015 -33.378,-5.452C-32.566,-4.889 -31.76,-4.422 -30.957,-4.051C-31.027,-3.997 -31.107,-3.923 -31.195,-3.83C-31.284,-3.738 -31.364,-3.643 -31.436,-3.547C-31.508,-3.451 -31.574,-3.359 -31.633,-3.272C-32.441,-3.68 -33.252,-4.186 -34.064,-4.79C-34.877,-5.393 -35.663,-6.065 -36.422,-6.806C-37.182,-7.547 -37.885,-8.332 -38.531,-9.162C-39.177,-9.992 -39.739,-10.832 -40.217,-11.683L-39.42,-12.012ZM-40.888,-13.538L-40.701,-13.538L-40.503,-13.587L-39.893,-13.367C-40.291,-10.76 -40.918,-8.498 -41.773,-6.581C-42.628,-4.664 -43.651,-3.051 -44.842,-1.742C-46.034,-0.433 -47.339,0.619 -48.759,1.414C-48.818,1.335 -48.895,1.251 -48.989,1.16C-49.083,1.069 -49.177,0.981 -49.27,0.894C-49.362,0.808 -49.45,0.742 -49.533,0.696C-48.107,-0.062 -46.809,-1.067 -45.639,-2.32C-44.469,-3.572 -43.475,-5.104 -42.657,-6.916C-41.838,-8.728 -41.248,-10.857 -40.888,-13.301L-40.888,-13.538Z" style="fill-rule:nonzero;"/>
            <path d="M-23.24,-15.572L-13.337,-15.572L-13.337,-14.707L-23.24,-14.707L-23.24,-15.572ZM-13.589,-15.572L-13.389,-15.572L-13.211,-15.622L-12.557,-15.302C-13.069,-14.183 -13.728,-13.169 -14.535,-12.26C-15.341,-11.351 -16.246,-10.547 -17.247,-9.85C-18.249,-9.152 -19.306,-8.548 -20.419,-8.038C-21.531,-7.528 -22.649,-7.102 -23.772,-6.759C-23.816,-6.882 -23.892,-7.021 -24.002,-7.178C-24.112,-7.335 -24.215,-7.458 -24.312,-7.547C-23.235,-7.841 -22.158,-8.227 -21.082,-8.704C-20.005,-9.181 -18.984,-9.749 -18.017,-10.408C-17.05,-11.066 -16.185,-11.812 -15.424,-12.646C-14.662,-13.48 -14.051,-14.395 -13.589,-15.39L-13.589,-15.572ZM-21.043,-14.76C-20.469,-13.588 -19.694,-12.532 -18.717,-11.591C-17.74,-10.65 -16.607,-9.852 -15.318,-9.199C-14.029,-8.545 -12.631,-8.058 -11.125,-7.738C-11.19,-7.674 -11.264,-7.594 -11.345,-7.496C-11.426,-7.399 -11.502,-7.298 -11.573,-7.194C-11.644,-7.09 -11.702,-6.991 -11.746,-6.897C-13.253,-7.268 -14.661,-7.802 -15.967,-8.5C-17.274,-9.197 -18.432,-10.047 -19.441,-11.049C-20.45,-12.051 -21.269,-13.183 -21.897,-14.444L-21.043,-14.76ZM-24.246,-0.038L-11.491,-0.038L-11.491,0.853L-24.246,0.853L-24.246,-0.038ZM-18.205,-7.706L-17.246,-7.706L-17.246,0.373L-18.205,0.373L-18.205,-7.706ZM-22.911,-4.679L-12.619,-4.679L-12.619,-3.785L-22.911,-3.785L-22.911,-4.679ZM-24.518,-12.902L-23.635,-12.564C-24.117,-11.739 -24.675,-10.933 -25.308,-10.144C-25.941,-9.356 -26.61,-8.62 -27.314,-7.936C-28.018,-7.252 -28.724,-6.642 -29.43,-6.107C-29.466,-6.174 -29.523,-6.259 -29.602,-6.362C-29.681,-6.464 -29.762,-6.57 -29.844,-6.679C-29.927,-6.788 -30.003,-6.871 -30.073,-6.927C-29.375,-7.417 -28.686,-7.979 -28.006,-8.614C-27.327,-9.25 -26.686,-9.933 -26.085,-10.664C-25.483,-11.395 -24.961,-12.141 -24.518,-12.902ZM-25.219,-16.677L-24.29,-16.313C-24.667,-15.74 -25.123,-15.159 -25.657,-14.569C-26.191,-13.98 -26.762,-13.419 -27.372,-12.887C-27.981,-12.355 -28.591,-11.888 -29.199,-11.486C-29.237,-11.555 -29.289,-11.637 -29.356,-11.731C-29.422,-11.825 -29.493,-11.922 -29.566,-12.021C-29.64,-12.121 -29.705,-12.198 -29.762,-12.252C-29.186,-12.626 -28.61,-13.06 -28.033,-13.555C-27.456,-14.05 -26.921,-14.568 -26.428,-15.108C-25.936,-15.649 -25.533,-16.172 -25.219,-16.677ZM-26.653,-9.229L-25.737,-10.162L-25.714,-10.135L-25.714,1.463L-26.653,1.463L-26.653,-9.229Z" style="fill-rule:nonzero;"/>
            <path d="M-0.738,0.263C-1.611,0.263 -2.388,0.094 -3.071,-0.245C-3.754,-0.584 -4.291,-1.045 -4.681,-1.628C-5.072,-2.212 -5.267,-2.874 -5.267,-3.616C-5.267,-4.259 -5.126,-4.833 -4.845,-5.339C-4.563,-5.845 -4.208,-6.29 -3.78,-6.674C-3.352,-7.058 -2.916,-7.364 -2.474,-7.593L-2.474,-7.673C-2.992,-8.021 -3.455,-8.464 -3.866,-9C-4.276,-9.536 -4.482,-10.178 -4.482,-10.925C-4.482,-11.619 -4.315,-12.228 -3.981,-12.75C-3.647,-13.273 -3.197,-13.681 -2.63,-13.974C-2.063,-14.267 -1.426,-14.413 -0.719,-14.413C0.096,-14.413 0.789,-14.253 1.36,-13.932C1.932,-13.611 2.371,-13.173 2.677,-12.618C2.983,-12.062 3.136,-11.428 3.136,-10.716C3.136,-10.196 3.027,-9.705 2.809,-9.244C2.591,-8.784 2.33,-8.378 2.026,-8.026C1.723,-7.675 1.433,-7.386 1.155,-7.159L1.155,-7.076C1.566,-6.823 1.958,-6.537 2.333,-6.218C2.707,-5.899 3.016,-5.517 3.258,-5.072C3.5,-4.627 3.622,-4.083 3.622,-3.441C3.622,-2.759 3.439,-2.137 3.072,-1.574C2.706,-1.011 2.198,-0.564 1.546,-0.233C0.895,0.098 0.134,0.263 -0.738,0.263ZM0.296,-7.478C0.865,-7.957 1.303,-8.462 1.61,-8.991C1.917,-9.52 2.07,-10.082 2.07,-10.678C2.07,-11.183 1.962,-11.648 1.744,-12.071C1.527,-12.495 1.208,-12.835 0.788,-13.093C0.368,-13.351 -0.139,-13.479 -0.732,-13.479C-1.504,-13.479 -2.135,-13.241 -2.625,-12.763C-3.116,-12.286 -3.361,-11.673 -3.361,-10.925C-3.361,-10.283 -3.182,-9.751 -2.826,-9.33C-2.469,-8.908 -2.01,-8.556 -1.449,-8.272C-0.889,-7.988 -0.307,-7.723 0.296,-7.478ZM-0.726,-0.688C-0.076,-0.688 0.486,-0.809 0.961,-1.053C1.435,-1.296 1.803,-1.628 2.064,-2.05C2.325,-2.471 2.455,-2.942 2.455,-3.463C2.455,-3.994 2.338,-4.447 2.103,-4.823C1.867,-5.199 1.553,-5.521 1.158,-5.789C0.764,-6.058 0.314,-6.3 -0.192,-6.518C-0.697,-6.735 -1.222,-6.948 -1.765,-7.157C-2.461,-6.745 -3.035,-6.253 -3.484,-5.683C-3.934,-5.112 -4.159,-4.446 -4.159,-3.683C-4.159,-3.126 -4.012,-2.621 -3.718,-2.166C-3.424,-1.711 -3.015,-1.351 -2.493,-1.086C-1.97,-0.821 -1.381,-0.688 -0.726,-0.688Z" style="fill-rule:nonzero;"/>
            <path d="M10.531,0.263C9.61,0.263 8.782,0.043 8.046,-0.396C7.31,-0.836 6.729,-1.472 6.302,-2.304C5.874,-3.135 5.661,-4.139 5.661,-5.313C5.661,-6.511 5.89,-7.528 6.348,-8.364C6.806,-9.2 7.411,-9.838 8.162,-10.278C8.912,-10.718 9.725,-10.938 10.599,-10.938C11.315,-10.938 11.924,-10.805 12.426,-10.54C12.928,-10.276 13.358,-9.973 13.718,-9.633L13.066,-8.835C12.734,-9.149 12.37,-9.409 11.974,-9.615C11.579,-9.82 11.132,-9.923 10.634,-9.923C9.924,-9.923 9.286,-9.729 8.72,-9.341C8.154,-8.953 7.706,-8.415 7.376,-7.725C7.047,-7.035 6.882,-6.231 6.882,-5.313C6.882,-4.407 7.039,-3.611 7.353,-2.926C7.667,-2.241 8.102,-1.707 8.659,-1.325C9.217,-0.943 9.867,-0.752 10.612,-0.752C11.162,-0.752 11.671,-0.868 12.139,-1.1C12.607,-1.331 13.021,-1.611 13.382,-1.938L13.955,-1.127C13.496,-0.723 12.977,-0.391 12.399,-0.129C11.821,0.132 11.198,0.263 10.531,0.263Z" style="fill-rule:nonzero;"/>
            <path d="M16.52,0L16.52,-10.674L17.488,-10.674L17.63,-9.033L17.673,-9.033C18.151,-9.567 18.679,-10.017 19.257,-10.385C19.836,-10.753 20.427,-10.938 21.033,-10.938C21.887,-10.938 22.541,-10.744 22.996,-10.357C23.451,-9.97 23.775,-9.447 23.968,-8.789C24.573,-9.441 25.17,-9.962 25.758,-10.352C26.346,-10.742 26.953,-10.938 27.578,-10.938C28.639,-10.938 29.436,-10.594 29.969,-9.908C30.502,-9.221 30.769,-8.192 30.769,-6.822L30.769,0L29.611,0L29.611,-6.667C29.611,-7.767 29.424,-8.581 29.049,-9.107C28.674,-9.634 28.092,-9.897 27.303,-9.897C26.826,-9.897 26.339,-9.738 25.842,-9.42C25.344,-9.102 24.805,-8.624 24.223,-7.987L24.223,0L23.066,0L23.066,-6.667C23.066,-7.767 22.881,-8.581 22.51,-9.107C22.14,-9.634 21.561,-9.897 20.771,-9.897C20.305,-9.897 19.815,-9.738 19.301,-9.42C18.787,-9.102 18.252,-8.624 17.694,-7.987L17.694,0L16.52,0Z" style="fill-rule:nonzero;"/>
            <path d="M38.167,-0.026L55.942,-0.026L55.942,0.823L38.167,0.823L38.167,-0.026ZM38.27,-13.153L55.85,-13.153L55.85,-12.291L38.27,-12.291L38.27,-13.153ZM39.664,-2.998L54.69,-2.998L54.69,-2.165L39.664,-2.165L39.664,-2.998ZM46.49,-15.359L47.461,-15.359L47.461,0.344L46.49,0.344L46.49,-15.359ZM53.226,-16.518L53.851,-15.757C53.006,-15.597 52.03,-15.452 50.924,-15.322C49.818,-15.192 48.645,-15.079 47.405,-14.983C46.165,-14.887 44.913,-14.808 43.65,-14.746C42.386,-14.683 41.169,-14.635 39.997,-14.602C39.995,-14.722 39.97,-14.861 39.922,-15.019C39.874,-15.177 39.823,-15.307 39.77,-15.41C40.932,-15.448 42.143,-15.499 43.402,-15.562C44.662,-15.626 45.899,-15.703 47.113,-15.794C48.328,-15.886 49.461,-15.993 50.513,-16.116C51.565,-16.24 52.47,-16.374 53.226,-16.518ZM41.232,-7.392L41.232,-5.491L52.969,-5.491L52.969,-7.392L41.232,-7.392ZM41.232,-10.015L41.232,-8.148L52.969,-8.148L52.969,-10.015L41.232,-10.015ZM40.29,-10.8L53.933,-10.8L53.933,-4.69L40.29,-4.69L40.29,-10.8Z" style="fill-rule:nonzero;"/>
            <path d="M61.578,-13.29L61.578,-11.926L72.49,-11.926L72.49,-13.29L61.578,-13.29ZM61.578,-15.318L61.578,-13.988L72.49,-13.988L72.49,-15.318L61.578,-15.318ZM60.643,-16.03L73.447,-16.03L73.447,-11.214L60.643,-11.214L60.643,-16.03ZM61.206,-5.515L61.206,-4.114L73.127,-4.114L73.127,-5.515L61.206,-5.515ZM61.206,-7.604L61.206,-6.237L73.127,-6.237L73.127,-7.604L61.206,-7.604ZM60.283,-8.342L74.089,-8.342L74.089,-3.394L60.283,-3.394L60.283,-8.342ZM66.529,-8.05L67.484,-8.05L67.484,0.578L66.529,0.578L66.529,-8.05ZM58.167,-10.23L75.942,-10.23L75.942,-9.403L58.167,-9.403L58.167,-10.23ZM59.627,-2.033L74.563,-2.033L74.563,-1.258L59.627,-1.258L59.627,-2.033ZM58.016,0.163L76.093,0.163L76.093,0.983L58.016,0.983L58.016,0.163Z" style="fill-rule:nonzero;"/>
            <path d="M91.92,-8.385L92.728,-8.789C93.128,-8.313 93.521,-7.795 93.904,-7.235C94.288,-6.675 94.636,-6.123 94.947,-5.581C95.259,-5.038 95.498,-4.554 95.665,-4.127L94.791,-3.65C94.64,-4.075 94.413,-4.562 94.11,-5.112C93.807,-5.662 93.466,-6.225 93.087,-6.801C92.707,-7.377 92.318,-7.905 91.92,-8.385ZM91.707,-12.946L99.571,-12.946L99.571,-12.021L91.707,-12.021L91.707,-12.946ZM99.202,-12.946L100.137,-12.946L100.137,-12.582C100.137,-12.493 100.136,-12.422 100.133,-12.369C100.044,-10.084 99.953,-8.152 99.858,-6.575C99.763,-4.998 99.658,-3.707 99.541,-2.701C99.424,-1.696 99.29,-0.917 99.139,-0.365C98.988,0.187 98.811,0.581 98.609,0.816C98.414,1.063 98.206,1.226 97.986,1.304C97.766,1.383 97.48,1.434 97.127,1.458C96.81,1.479 96.367,1.482 95.8,1.467C95.232,1.451 94.643,1.425 94.034,1.39C94.021,1.234 93.991,1.066 93.944,0.887C93.898,0.708 93.831,0.552 93.743,0.418C94.435,0.472 95.071,0.507 95.653,0.525C96.235,0.543 96.642,0.552 96.875,0.552C97.086,0.552 97.261,0.534 97.399,0.497C97.537,0.461 97.654,0.381 97.752,0.259C97.934,0.077 98.096,-0.287 98.238,-0.831C98.379,-1.376 98.506,-2.147 98.62,-3.145C98.734,-4.143 98.837,-5.426 98.931,-6.994C99.024,-8.562 99.115,-10.466 99.202,-12.706L99.202,-12.946ZM92.828,-16.7L93.798,-16.477C93.509,-15.533 93.165,-14.608 92.766,-13.702C92.367,-12.796 91.934,-11.95 91.468,-11.166C91.001,-10.382 90.514,-9.684 90.008,-9.07C89.944,-9.121 89.86,-9.181 89.754,-9.25C89.647,-9.32 89.537,-9.392 89.422,-9.465C89.307,-9.539 89.208,-9.592 89.125,-9.624C89.665,-10.211 90.165,-10.881 90.624,-11.634C91.083,-12.386 91.499,-13.196 91.87,-14.064C92.241,-14.932 92.561,-15.811 92.828,-16.7ZM85.549,-16.693L86.429,-16.317C86.194,-15.851 85.934,-15.356 85.651,-14.832C85.368,-14.308 85.083,-13.801 84.798,-13.312C84.512,-12.823 84.236,-12.398 83.969,-12.036L83.273,-12.363C83.535,-12.742 83.806,-13.187 84.085,-13.698C84.364,-14.209 84.634,-14.73 84.893,-15.261C85.152,-15.792 85.371,-16.269 85.549,-16.693ZM87.979,-14.458L88.873,-14.063C88.423,-13.324 87.919,-12.532 87.361,-11.688C86.804,-10.845 86.24,-10.027 85.67,-9.234C85.1,-8.442 84.561,-7.754 84.052,-7.172L83.387,-7.531C83.774,-7.973 84.176,-8.483 84.592,-9.061C85.009,-9.639 85.425,-10.243 85.84,-10.873C86.254,-11.503 86.646,-12.128 87.014,-12.747C87.382,-13.366 87.703,-13.936 87.979,-14.458ZM82.358,-12.796L82.891,-13.405C83.271,-13.089 83.656,-12.742 84.045,-12.364C84.434,-11.986 84.79,-11.612 85.114,-11.242C85.437,-10.872 85.69,-10.539 85.873,-10.244L85.32,-9.527C85.129,-9.835 84.872,-10.184 84.551,-10.571C84.229,-10.959 83.878,-11.347 83.497,-11.734C83.115,-12.122 82.736,-12.476 82.358,-12.796ZM87.26,-9.925L88.037,-10.25C88.326,-9.831 88.61,-9.378 88.889,-8.893C89.168,-8.407 89.417,-7.932 89.637,-7.467C89.856,-7.001 90.017,-6.591 90.119,-6.236L89.3,-5.841C89.189,-6.205 89.027,-6.624 88.816,-7.097C88.604,-7.57 88.363,-8.054 88.093,-8.549C87.822,-9.044 87.545,-9.503 87.26,-9.925ZM82.307,-7.671C83.187,-7.698 84.241,-7.733 85.472,-7.776C86.702,-7.819 87.969,-7.868 89.273,-7.924L89.27,-7.089C88.006,-7.027 86.772,-6.966 85.569,-6.906C84.366,-6.847 83.303,-6.795 82.379,-6.75L82.307,-7.671ZM87.856,-5.272L88.615,-5.518C88.924,-4.907 89.213,-4.238 89.48,-3.51C89.747,-2.782 89.929,-2.153 90.026,-1.624L89.181,-1.358C89.087,-1.89 88.917,-2.521 88.669,-3.254C88.421,-3.986 88.15,-4.659 87.856,-5.272ZM83.548,-5.446L84.433,-5.278C84.274,-4.34 84.064,-3.423 83.803,-2.527C83.541,-1.631 83.243,-0.863 82.909,-0.222C82.85,-0.262 82.771,-0.306 82.673,-0.356C82.574,-0.405 82.472,-0.457 82.365,-0.51C82.259,-0.564 82.167,-0.602 82.09,-0.624C82.458,-1.244 82.757,-1.979 82.988,-2.83C83.218,-3.68 83.405,-4.552 83.548,-5.446ZM85.838,-7.373L86.734,-7.373L86.734,1.547L85.838,1.547L85.838,-7.373Z" style="fill-rule:nonzero;"/>
            <path d="M103.316,0L103.316,-1.015L106.627,-1.015L106.627,-12.438L104.055,-12.438L104.055,-13.227C104.654,-13.331 105.183,-13.462 105.643,-13.619C106.103,-13.777 106.504,-13.954 106.845,-14.15L107.785,-14.15L107.785,-1.015L110.834,-1.015L110.834,0L103.316,0Z" style="fill-rule:nonzero;"/>
            <path d="M117.533,0.263C116.625,0.263 115.85,-0.024 115.208,-0.598C114.566,-1.173 114.075,-2.009 113.736,-3.108C113.397,-4.207 113.227,-5.543 113.227,-7.118C113.227,-8.693 113.397,-10.023 113.736,-11.107C114.075,-12.191 114.566,-13.013 115.208,-13.573C115.85,-14.133 116.625,-14.413 117.533,-14.413C118.44,-14.413 119.215,-14.133 119.856,-13.573C120.497,-13.013 120.984,-12.191 121.318,-11.107C121.651,-10.023 121.818,-8.693 121.818,-7.118C121.818,-5.543 121.651,-4.207 121.318,-3.108C120.984,-2.009 120.497,-1.173 119.856,-0.598C119.215,-0.024 118.44,0.263 117.533,0.263ZM117.533,-0.733C118.161,-0.733 118.712,-0.969 119.183,-1.442C119.655,-1.915 120.018,-2.624 120.275,-3.571C120.531,-4.517 120.659,-5.7 120.659,-7.118C120.659,-8.548 120.531,-9.729 120.275,-10.661C120.018,-11.593 119.655,-12.289 119.183,-12.747C118.712,-13.205 118.161,-13.434 117.533,-13.434C116.906,-13.434 116.356,-13.205 115.884,-12.747C115.411,-12.289 115.044,-11.593 114.781,-10.661C114.518,-9.729 114.386,-8.548 114.386,-7.118C114.386,-5.7 114.518,-4.517 114.781,-3.571C115.044,-2.624 115.411,-1.915 115.884,-1.442C116.356,-0.969 116.906,-0.733 117.533,-0.733Z" style="fill-rule:nonzero;"/>
            <path d="M124.868,0L124.868,-15.896L126.032,-15.896L126.032,-4.395L126.082,-4.395L131.172,-10.674L132.502,-10.674L129.012,-6.422L133.051,0L131.778,0L128.327,-5.597L126.032,-2.887L126.032,0L124.868,0Z" style="fill-rule:nonzero;"/>
            <path d="M138.568,5.082C137.68,5.082 136.905,4.963 136.246,4.725C135.586,4.487 135.077,4.15 134.717,3.713C134.358,3.276 134.178,2.757 134.178,2.155C134.178,1.689 134.32,1.232 134.603,0.785C134.887,0.337 135.278,-0.053 135.778,-0.387L135.778,-0.47C135.507,-0.637 135.28,-0.863 135.097,-1.148C134.914,-1.433 134.822,-1.782 134.822,-2.195C134.822,-2.662 134.956,-3.064 135.224,-3.399C135.492,-3.734 135.751,-3.989 136.001,-4.164L136.001,-4.244C135.655,-4.535 135.34,-4.932 135.054,-5.434C134.769,-5.936 134.626,-6.509 134.626,-7.153C134.626,-7.906 134.797,-8.566 135.138,-9.134C135.479,-9.703 135.941,-10.146 136.522,-10.462C137.103,-10.779 137.738,-10.938 138.428,-10.938C138.74,-10.938 139.018,-10.911 139.263,-10.859C139.508,-10.807 139.712,-10.745 139.876,-10.674L143.501,-10.674L143.501,-9.707L141.106,-9.707C141.432,-9.424 141.696,-9.061 141.896,-8.618C142.096,-8.176 142.196,-7.681 142.196,-7.134C142.196,-6.411 142.029,-5.766 141.695,-5.2C141.361,-4.633 140.91,-4.188 140.341,-3.866C139.771,-3.543 139.134,-3.382 138.428,-3.382C138.152,-3.382 137.859,-3.421 137.548,-3.499C137.238,-3.577 136.961,-3.683 136.719,-3.817C136.498,-3.641 136.305,-3.435 136.138,-3.2C135.972,-2.964 135.888,-2.679 135.888,-2.345C135.888,-1.968 136.026,-1.649 136.302,-1.388C136.578,-1.127 137.106,-0.997 137.888,-0.997L140.141,-0.997C141.34,-0.997 142.23,-0.8 142.812,-0.408C143.393,-0.015 143.684,0.605 143.684,1.453C143.684,2.074 143.474,2.663 143.054,3.22C142.634,3.777 142.041,4.227 141.276,4.569C140.511,4.911 139.608,5.082 138.568,5.082ZM138.428,-4.278C138.91,-4.278 139.351,-4.398 139.75,-4.638C140.149,-4.878 140.471,-5.215 140.715,-5.65C140.959,-6.084 141.081,-6.586 141.081,-7.153C141.081,-7.742 140.962,-8.249 140.723,-8.676C140.485,-9.103 140.166,-9.431 139.767,-9.66C139.367,-9.888 138.921,-10.003 138.428,-10.003C137.949,-10.003 137.51,-9.888 137.111,-9.66C136.711,-9.431 136.392,-9.106 136.154,-8.685C135.915,-8.263 135.796,-7.753 135.796,-7.153C135.796,-6.586 135.918,-6.084 136.162,-5.65C136.406,-5.215 136.728,-4.878 137.127,-4.638C137.526,-4.398 137.96,-4.278 138.428,-4.278ZM138.692,4.19C139.476,4.19 140.153,4.063 140.721,3.81C141.289,3.556 141.731,3.233 142.045,2.839C142.359,2.445 142.516,2.038 142.516,1.619C142.516,1.037 142.311,0.629 141.901,0.395C141.491,0.16 140.896,0.043 140.117,0.043L137.928,0.043C137.806,0.043 137.622,0.03 137.376,0.005C137.131,-0.021 136.87,-0.066 136.593,-0.13C136.129,0.186 135.794,0.534 135.59,0.914C135.386,1.293 135.284,1.661 135.284,2.015C135.284,2.662 135.582,3.186 136.179,3.587C136.776,3.989 137.613,4.19 138.692,4.19Z" style="fill-rule:nonzero;"/>
        </g>
        <g transform="matrix(0.99946,0,0,0.99279,506.733,161.055)">
            <path d="M-128.761,0L-128.761,-1.015L-125.45,-1.015L-125.45,-12.438L-128.022,-12.438L-128.022,-13.227C-127.424,-13.331 -126.894,-13.462 -126.434,-13.619C-125.974,-13.777 -125.573,-13.954 -125.233,-14.15L-124.293,-14.15L-124.293,-1.015L-121.243,-1.015L-121.243,0L-128.761,0Z" style="fill-rule:nonzero;"/>
            <path d="M-115.594,0.263C-116.278,0.263 -116.871,0.134 -117.374,-0.126C-117.877,-0.385 -118.311,-0.72 -118.677,-1.13L-117.99,-1.91C-117.682,-1.529 -117.319,-1.241 -116.899,-1.045C-116.479,-0.85 -116.045,-0.752 -115.598,-0.752C-114.861,-0.752 -114.183,-0.97 -113.564,-1.405C-112.945,-1.841 -112.444,-2.567 -112.062,-3.585C-111.68,-4.603 -111.489,-5.978 -111.489,-7.711C-111.489,-8.869 -111.618,-9.878 -111.877,-10.74C-112.137,-11.601 -112.529,-12.268 -113.054,-12.741C-113.578,-13.214 -114.246,-13.45 -115.056,-13.45C-115.575,-13.45 -116.044,-13.299 -116.462,-12.995C-116.88,-12.692 -117.211,-12.279 -117.455,-11.756C-117.699,-11.233 -117.821,-10.637 -117.821,-9.967C-117.821,-9.306 -117.718,-8.714 -117.514,-8.191C-117.309,-7.668 -116.985,-7.259 -116.543,-6.966C-116.1,-6.672 -115.539,-6.526 -114.858,-6.526C-114.353,-6.526 -113.798,-6.698 -113.194,-7.042C-112.59,-7.386 -112.007,-7.961 -111.445,-8.765L-111.399,-7.624C-111.717,-7.219 -112.076,-6.865 -112.475,-6.561C-112.875,-6.258 -113.288,-6.022 -113.717,-5.855C-114.145,-5.688 -114.58,-5.605 -115.021,-5.605C-115.836,-5.605 -116.54,-5.77 -117.133,-6.102C-117.726,-6.433 -118.181,-6.923 -118.5,-7.572C-118.818,-8.22 -118.977,-9.019 -118.977,-9.967C-118.977,-10.837 -118.796,-11.607 -118.433,-12.278C-118.071,-12.949 -117.592,-13.472 -116.996,-13.849C-116.401,-14.225 -115.747,-14.413 -115.035,-14.413C-114.328,-14.413 -113.687,-14.268 -113.111,-13.978C-112.535,-13.688 -112.042,-13.259 -111.633,-12.69C-111.224,-12.121 -110.908,-11.422 -110.684,-10.593C-110.46,-9.763 -110.349,-8.803 -110.349,-7.711C-110.349,-6.244 -110.492,-5 -110.778,-3.979C-111.065,-2.959 -111.454,-2.137 -111.947,-1.512C-112.44,-0.888 -113.001,-0.436 -113.629,-0.156C-114.257,0.123 -114.912,0.263 -115.594,0.263Z" style="fill-rule:nonzero;"/>
            <path d="M-104.142,0.263C-104.895,0.263 -105.55,0.168 -106.106,-0.024C-106.662,-0.215 -107.145,-0.456 -107.555,-0.747C-107.966,-1.038 -108.326,-1.337 -108.637,-1.646L-107.991,-2.458C-107.711,-2.169 -107.397,-1.895 -107.049,-1.637C-106.701,-1.379 -106.293,-1.167 -105.826,-1.001C-105.359,-0.835 -104.814,-0.752 -104.192,-0.752C-103.577,-0.752 -103.01,-0.905 -102.49,-1.21C-101.97,-1.516 -101.554,-1.943 -101.243,-2.492C-100.932,-3.04 -100.777,-3.682 -100.777,-4.418C-100.777,-5.525 -101.081,-6.391 -101.689,-7.016C-102.297,-7.64 -103.112,-7.952 -104.133,-7.952C-104.647,-7.952 -105.099,-7.868 -105.49,-7.7C-105.881,-7.531 -106.286,-7.307 -106.703,-7.027L-107.457,-7.493L-106.959,-14.15L-100.296,-14.15L-100.296,-13.119L-105.915,-13.119L-106.354,-8.23C-105.997,-8.438 -105.624,-8.604 -105.232,-8.729C-104.841,-8.854 -104.399,-8.917 -103.906,-8.917C-103.1,-8.917 -102.369,-8.76 -101.712,-8.445C-101.056,-8.131 -100.535,-7.646 -100.148,-6.99C-99.762,-6.335 -99.569,-5.494 -99.569,-4.467C-99.569,-3.457 -99.791,-2.599 -100.235,-1.894C-100.679,-1.188 -101.249,-0.653 -101.944,-0.286C-102.64,0.08 -103.373,0.263 -104.142,0.263Z" style="fill-rule:nonzero;"/>
            <path d="M-93.441,0.263C-94.194,0.263 -94.848,0.168 -95.404,-0.024C-95.96,-0.215 -96.443,-0.456 -96.854,-0.747C-97.264,-1.038 -97.625,-1.337 -97.935,-1.646L-97.29,-2.458C-97.01,-2.169 -96.696,-1.895 -96.348,-1.637C-95.999,-1.379 -95.592,-1.167 -95.124,-1.001C-94.657,-0.835 -94.112,-0.752 -93.49,-0.752C-92.876,-0.752 -92.308,-0.905 -91.788,-1.21C-91.268,-1.516 -90.853,-1.943 -90.542,-2.492C-90.231,-3.04 -90.075,-3.682 -90.075,-4.418C-90.075,-5.525 -90.379,-6.391 -90.988,-7.016C-91.596,-7.64 -92.41,-7.952 -93.431,-7.952C-93.945,-7.952 -94.398,-7.868 -94.789,-7.7C-95.18,-7.531 -95.584,-7.307 -96.002,-7.027L-96.755,-7.493L-96.258,-14.15L-89.595,-14.15L-89.595,-13.119L-95.214,-13.119L-95.652,-8.23C-95.296,-8.438 -94.922,-8.604 -94.531,-8.729C-94.14,-8.854 -93.698,-8.917 -93.205,-8.917C-92.398,-8.917 -91.667,-8.76 -91.011,-8.445C-90.355,-8.131 -89.833,-7.646 -89.447,-6.99C-89.061,-6.335 -88.867,-5.494 -88.867,-4.467C-88.867,-3.457 -89.089,-2.599 -89.533,-1.894C-89.977,-1.188 -90.547,-0.653 -91.243,-0.286C-91.939,0.08 -92.671,0.263 -93.441,0.263Z" style="fill-rule:nonzero;"/>
            <path d="M-82.959,3.865C-83.863,2.392 -84.576,0.84 -85.097,-0.792C-85.618,-2.423 -85.878,-4.212 -85.878,-6.158C-85.878,-8.104 -85.618,-9.896 -85.097,-11.534C-84.576,-13.171 -83.863,-14.726 -82.959,-16.198L-82.251,-15.816C-83.123,-14.414 -83.776,-12.888 -84.212,-11.237C-84.648,-9.586 -84.866,-7.893 -84.866,-6.158C-84.866,-4.422 -84.648,-2.728 -84.212,-1.078C-83.776,0.572 -83.123,2.098 -82.251,3.499L-82.959,3.865Z" style="fill-rule:nonzero;"/>
            <path d="M-72.236,-0.499L-63.877,-0.499L-63.877,0.418L-72.236,0.418L-72.236,-0.499ZM-73.432,-15.69L-63.644,-15.69L-63.644,-14.783L-73.432,-14.783L-73.432,-15.69ZM-72.75,-6.603L-63.45,-6.603L-63.45,1.383L-64.401,1.383L-64.401,-5.703L-71.805,-5.703L-71.805,1.446L-72.75,1.446L-72.75,-6.603ZM-64.162,-15.69L-63.21,-15.69C-63.21,-15.69 -63.211,-15.63 -63.212,-15.51C-63.213,-15.39 -63.22,-15.288 -63.234,-15.204C-63.318,-13.712 -63.405,-12.517 -63.493,-11.618C-63.581,-10.72 -63.684,-10.036 -63.802,-9.566C-63.92,-9.096 -64.065,-8.765 -64.239,-8.572C-64.389,-8.424 -64.549,-8.318 -64.718,-8.254C-64.887,-8.19 -65.098,-8.153 -65.351,-8.143C-65.575,-8.123 -65.892,-8.117 -66.3,-8.126C-66.709,-8.135 -67.13,-8.152 -67.563,-8.177C-67.577,-8.31 -67.607,-8.462 -67.654,-8.631C-67.7,-8.801 -67.77,-8.954 -67.862,-9.09C-67.379,-9.041 -66.934,-9.012 -66.526,-9.004C-66.119,-8.997 -65.84,-8.993 -65.689,-8.993C-65.508,-8.993 -65.374,-9.004 -65.287,-9.028C-65.199,-9.051 -65.114,-9.104 -65.032,-9.186C-64.894,-9.328 -64.775,-9.621 -64.676,-10.065C-64.577,-10.508 -64.484,-11.168 -64.398,-12.043C-64.312,-12.918 -64.234,-14.072 -64.162,-15.505L-64.162,-15.69ZM-69.563,-15.402L-68.605,-15.402C-68.703,-14.592 -68.853,-13.802 -69.055,-13.032C-69.256,-12.262 -69.534,-11.539 -69.887,-10.861C-70.241,-10.183 -70.703,-9.57 -71.274,-9.02C-71.845,-8.47 -72.549,-7.999 -73.386,-7.606C-73.454,-7.717 -73.548,-7.844 -73.667,-7.988C-73.787,-8.131 -73.899,-8.239 -74.004,-8.313C-73.208,-8.656 -72.547,-9.081 -72.021,-9.59C-71.495,-10.099 -71.066,-10.665 -70.734,-11.289C-70.402,-11.913 -70.145,-12.576 -69.963,-13.277C-69.781,-13.978 -69.648,-14.686 -69.563,-15.402ZM-79.372,-15.207L-74.31,-15.207L-74.31,-2.398L-79.372,-2.398L-79.372,-3.298L-75.217,-3.298L-75.217,-14.29L-79.372,-14.29L-79.372,-15.207ZM-79.359,-9.362L-74.752,-9.362L-74.752,-8.454L-79.359,-8.454L-79.359,-9.362ZM-79.875,-15.207L-78.932,-15.207L-78.932,-0.814L-79.875,-0.814L-79.875,-15.207Z" style="fill-rule:nonzero;"/>
            <path d="M-50.348,-1.982L-44.001,-1.982L-44.001,-1.05L-50.348,-1.05L-50.348,-1.982ZM-50.716,-14.833L-43.599,-14.833L-43.599,0.505L-44.566,0.505L-44.566,-13.902L-49.775,-13.902L-49.775,0.645L-50.716,0.645L-50.716,-14.833ZM-56.29,-15.178L-55.335,-15.178L-55.335,1.443L-56.29,1.443L-56.29,-15.178ZM-60.412,-10.801L-51.492,-10.801L-51.492,-9.885L-60.412,-9.885L-60.412,-10.801ZM-56.322,-10.5L-55.581,-10.23C-55.826,-9.47 -56.127,-8.688 -56.484,-7.883C-56.841,-7.078 -57.235,-6.29 -57.665,-5.519C-58.094,-4.748 -58.537,-4.034 -58.995,-3.377C-59.452,-2.72 -59.902,-2.159 -60.346,-1.695C-60.413,-1.831 -60.503,-1.984 -60.617,-2.156C-60.731,-2.328 -60.835,-2.466 -60.93,-2.57C-60.505,-2.999 -60.068,-3.516 -59.617,-4.122C-59.166,-4.728 -58.731,-5.387 -58.311,-6.099C-57.892,-6.81 -57.511,-7.543 -57.17,-8.298C-56.83,-9.052 -56.547,-9.786 -56.322,-10.5ZM-52.446,-16.486L-51.762,-15.735C-52.421,-15.478 -53.209,-15.241 -54.127,-15.026C-55.044,-14.81 -56.001,-14.623 -56.995,-14.463C-57.99,-14.303 -58.946,-14.169 -59.864,-14.063C-59.884,-14.17 -59.923,-14.298 -59.982,-14.446C-60.042,-14.595 -60.101,-14.728 -60.16,-14.844C-59.26,-14.964 -58.325,-15.106 -57.355,-15.269C-56.386,-15.432 -55.468,-15.618 -54.602,-15.828C-53.735,-16.038 -53.017,-16.258 -52.446,-16.486ZM-55.38,-9.32C-55.249,-9.191 -55.062,-8.987 -54.818,-8.708C-54.575,-8.428 -54.303,-8.112 -54.002,-7.758C-53.702,-7.404 -53.402,-7.052 -53.103,-6.703C-52.804,-6.354 -52.538,-6.037 -52.304,-5.752C-52.07,-5.467 -51.901,-5.255 -51.797,-5.114L-52.446,-4.324C-52.608,-4.568 -52.843,-4.899 -53.151,-5.316C-53.459,-5.734 -53.792,-6.176 -54.15,-6.64C-54.507,-7.105 -54.847,-7.536 -55.168,-7.933C-55.49,-8.33 -55.739,-8.629 -55.917,-8.83L-55.38,-9.32Z" style="fill-rule:nonzero;"/>
            <path d="M-36.355,0.263C-37.108,0.263 -37.764,0.165 -38.325,-0.03C-38.886,-0.226 -39.373,-0.478 -39.788,-0.786C-40.203,-1.093 -40.562,-1.409 -40.866,-1.733L-40.218,-2.528C-39.787,-2.081 -39.272,-1.673 -38.674,-1.305C-38.075,-0.936 -37.31,-0.752 -36.379,-0.752C-35.744,-0.752 -35.184,-0.876 -34.698,-1.125C-34.212,-1.374 -33.831,-1.722 -33.555,-2.169C-33.279,-2.616 -33.141,-3.142 -33.141,-3.746C-33.141,-4.384 -33.302,-4.938 -33.626,-5.41C-33.949,-5.881 -34.465,-6.25 -35.174,-6.515C-35.883,-6.78 -36.819,-6.913 -37.982,-6.913L-37.982,-7.904C-36.905,-7.904 -36.054,-8.037 -35.428,-8.304C-34.802,-8.57 -34.353,-8.929 -34.079,-9.382C-33.805,-9.835 -33.668,-10.336 -33.668,-10.887C-33.668,-11.66 -33.915,-12.277 -34.41,-12.739C-34.905,-13.2 -35.577,-13.431 -36.426,-13.431C-37.054,-13.431 -37.642,-13.285 -38.19,-12.992C-38.737,-12.699 -39.21,-12.336 -39.607,-11.903L-40.282,-12.671C-39.779,-13.155 -39.212,-13.566 -38.582,-13.905C-37.952,-14.244 -37.225,-14.413 -36.401,-14.413C-35.654,-14.413 -34.981,-14.279 -34.383,-14.011C-33.784,-13.742 -33.311,-13.35 -32.964,-12.834C-32.617,-12.318 -32.443,-11.695 -32.443,-10.965C-32.443,-10.052 -32.697,-9.313 -33.203,-8.746C-33.709,-8.179 -34.35,-7.762 -35.126,-7.496L-35.126,-7.413C-34.546,-7.286 -34.014,-7.061 -33.53,-6.736C-33.046,-6.412 -32.658,-6 -32.367,-5.499C-32.076,-4.999 -31.93,-4.413 -31.93,-3.742C-31.93,-2.913 -32.127,-2.202 -32.522,-1.608C-32.916,-1.014 -33.446,-0.554 -34.112,-0.227C-34.777,0.1 -35.525,0.263 -36.355,0.263Z" style="fill-rule:nonzero;"/>
            <path d="M-25.435,0.263C-26.343,0.263 -27.118,-0.024 -27.76,-0.598C-28.402,-1.173 -28.893,-2.009 -29.232,-3.108C-29.571,-4.207 -29.741,-5.543 -29.741,-7.118C-29.741,-8.693 -29.571,-10.023 -29.232,-11.107C-28.893,-12.191 -28.402,-13.013 -27.76,-13.573C-27.118,-14.133 -26.343,-14.413 -25.435,-14.413C-24.528,-14.413 -23.753,-14.133 -23.112,-13.573C-22.471,-13.013 -21.984,-12.191 -21.65,-11.107C-21.317,-10.023 -21.15,-8.693 -21.15,-7.118C-21.15,-5.543 -21.317,-4.207 -21.65,-3.108C-21.984,-2.009 -22.471,-1.173 -23.112,-0.598C-23.753,-0.024 -24.528,0.263 -25.435,0.263ZM-25.435,-0.733C-24.807,-0.733 -24.256,-0.969 -23.785,-1.442C-23.313,-1.915 -22.95,-2.624 -22.693,-3.571C-22.437,-4.517 -22.309,-5.7 -22.309,-7.118C-22.309,-8.548 -22.437,-9.729 -22.693,-10.661C-22.95,-11.593 -23.313,-12.289 -23.785,-12.747C-24.256,-13.205 -24.807,-13.434 -25.435,-13.434C-26.062,-13.434 -26.612,-13.205 -27.084,-12.747C-27.557,-12.289 -27.924,-11.593 -28.187,-10.661C-28.45,-9.729 -28.582,-8.548 -28.582,-7.118C-28.582,-5.7 -28.45,-4.517 -28.187,-3.571C-27.924,-2.624 -27.557,-1.915 -27.084,-1.442C-26.612,-0.969 -26.062,-0.733 -25.435,-0.733Z" style="fill-rule:nonzero;"/>
            <path d="M-14.372,-7.6C-14.372,-6.375 -14.528,-5.207 -14.84,-4.094C-15.151,-2.982 -15.607,-1.931 -16.206,-0.942C-16.805,0.048 -17.528,0.981 -18.376,1.858L-19.164,1.383C-18.338,0.534 -17.641,-0.365 -17.075,-1.316C-16.508,-2.267 -16.078,-3.27 -15.785,-4.324C-15.491,-5.378 -15.345,-6.47 -15.345,-7.6C-15.345,-8.743 -15.491,-9.838 -15.785,-10.886C-16.078,-11.934 -16.508,-12.936 -17.075,-13.894C-17.641,-14.852 -18.338,-15.748 -19.164,-16.583L-18.376,-17.058C-17.528,-16.192 -16.805,-15.262 -16.206,-14.267C-15.607,-13.272 -15.151,-12.221 -14.84,-11.114C-14.528,-10.007 -14.372,-8.836 -14.372,-7.6Z" style="fill-rule:nonzero;"/>
            <path d="M5.789,-16.76L6.753,-16.504C6.372,-15.529 5.928,-14.583 5.42,-13.668C4.912,-12.753 4.361,-11.905 3.768,-11.124C3.174,-10.343 2.556,-9.653 1.913,-9.053C1.85,-9.103 1.769,-9.167 1.669,-9.246C1.57,-9.325 1.467,-9.402 1.361,-9.479C1.254,-9.555 1.154,-9.615 1.06,-9.659C1.725,-10.233 2.35,-10.892 2.937,-11.637C3.523,-12.382 4.058,-13.192 4.543,-14.068C5.029,-14.944 5.444,-15.842 5.789,-16.76ZM5.05,-14.146L18.056,-14.146L18.056,-13.211L4.574,-13.211L5.05,-14.146ZM4.33,-9.726L17.61,-9.726L17.61,-8.807L5.285,-8.807L5.285,-3.765L4.33,-3.765L4.33,-9.726ZM0.945,-4.261L18.9,-4.261L18.9,-3.326L0.945,-3.326L0.945,-4.261ZM10.385,-13.647L11.37,-13.647L11.37,1.497L10.385,1.497L10.385,-13.647Z" style="fill-rule:nonzero;"/>
            <path d="M24.217,0.263C23.533,0.263 22.94,0.134 22.437,-0.126C21.934,-0.385 21.5,-0.72 21.134,-1.13L21.821,-1.91C22.129,-1.529 22.492,-1.241 22.912,-1.045C23.332,-0.85 23.766,-0.752 24.213,-0.752C24.95,-0.752 25.628,-0.97 26.247,-1.405C26.866,-1.841 27.367,-2.567 27.749,-3.585C28.131,-4.603 28.322,-5.978 28.322,-7.711C28.322,-8.869 28.193,-9.878 27.933,-10.74C27.674,-11.601 27.282,-12.268 26.757,-12.741C26.233,-13.214 25.565,-13.45 24.755,-13.45C24.236,-13.45 23.767,-13.299 23.349,-12.995C22.931,-12.692 22.6,-12.279 22.356,-11.756C22.112,-11.233 21.99,-10.637 21.99,-9.967C21.99,-9.306 22.093,-8.714 22.297,-8.191C22.502,-7.668 22.826,-7.259 23.268,-6.966C23.711,-6.672 24.272,-6.526 24.953,-6.526C25.458,-6.526 26.013,-6.698 26.617,-7.042C27.221,-7.386 27.804,-7.961 28.366,-8.765L28.412,-7.624C28.093,-7.219 27.735,-6.865 27.335,-6.561C26.936,-6.258 26.523,-6.022 26.094,-5.855C25.666,-5.688 25.231,-5.605 24.79,-5.605C23.975,-5.605 23.271,-5.77 22.678,-6.102C22.085,-6.433 21.629,-6.923 21.311,-7.572C20.993,-8.22 20.834,-9.019 20.834,-9.967C20.834,-10.837 21.015,-11.607 21.377,-12.278C21.74,-12.949 22.219,-13.472 22.815,-13.849C23.41,-14.225 24.064,-14.413 24.776,-14.413C25.482,-14.413 26.124,-14.268 26.7,-13.978C27.276,-13.688 27.768,-13.259 28.177,-12.69C28.587,-12.121 28.903,-11.422 29.127,-10.593C29.35,-9.763 29.462,-8.803 29.462,-7.711C29.462,-6.244 29.319,-5 29.033,-3.979C28.746,-2.959 28.357,-2.137 27.864,-1.512C27.371,-0.888 26.81,-0.436 26.182,-0.156C25.554,0.123 24.899,0.263 24.217,0.263Z" style="fill-rule:nonzero;"/>
            <path d="M35.498,-15.565L46.179,-15.565L46.179,-14.623L35.498,-14.623L35.498,-15.565ZM35.485,-10.721L46.262,-10.721L46.262,-9.792L35.485,-9.792L35.485,-10.721ZM35.287,-5.839L46.186,-5.839L46.186,-4.901L35.287,-4.901L35.287,-5.839ZM34.984,-15.565L35.951,-15.565L35.951,-9.659C35.951,-8.792 35.907,-7.872 35.818,-6.898C35.729,-5.924 35.551,-4.937 35.285,-3.937C35.018,-2.937 34.622,-1.972 34.096,-1.041C33.57,-0.11 32.871,0.742 31.997,1.513C31.951,1.437 31.887,1.354 31.804,1.264C31.721,1.174 31.633,1.087 31.541,1.002C31.448,0.916 31.362,0.852 31.283,0.808C32.117,0.06 32.781,-0.748 33.275,-1.618C33.769,-2.488 34.139,-3.383 34.385,-4.303C34.631,-5.223 34.792,-6.14 34.869,-7.054C34.945,-7.968 34.984,-8.837 34.984,-9.663L34.984,-15.565ZM45.79,-15.565L46.79,-15.565L46.79,-0.243C46.79,0.19 46.72,0.513 46.579,0.725C46.439,0.938 46.205,1.091 45.877,1.186C45.546,1.271 45.046,1.324 44.379,1.345C43.712,1.366 42.831,1.376 41.737,1.376C41.718,1.273 41.683,1.161 41.634,1.04C41.585,0.918 41.533,0.797 41.479,0.676C41.426,0.554 41.369,0.445 41.31,0.349C41.916,0.364 42.484,0.373 43.013,0.375C43.542,0.377 43.997,0.376 44.377,0.37C44.757,0.364 45.021,0.362 45.17,0.362C45.408,0.351 45.571,0.302 45.659,0.215C45.746,0.128 45.79,-0.026 45.79,-0.249L45.79,-15.565Z" style="fill-rule:nonzero;"/>
            <path d="M51.459,-5.853C52.09,-6.029 52.81,-6.235 53.62,-6.471C54.43,-6.707 55.289,-6.964 56.197,-7.244C57.104,-7.523 58.011,-7.797 58.915,-8.064L59.04,-7.183C57.759,-6.775 56.481,-6.365 55.205,-5.952C53.93,-5.538 52.794,-5.183 51.799,-4.885L51.459,-5.853ZM51.629,-12.513L58.895,-12.513L58.895,-11.57L51.629,-11.57L51.629,-12.513ZM54.879,-16.68L55.823,-16.68L55.823,-0.04C55.823,0.282 55.775,0.527 55.679,0.695C55.582,0.863 55.425,0.988 55.206,1.069C54.976,1.15 54.662,1.201 54.263,1.223C53.864,1.245 53.325,1.256 52.645,1.256C52.628,1.127 52.584,0.975 52.513,0.8C52.443,0.625 52.371,0.468 52.296,0.33C52.811,0.344 53.27,0.351 53.675,0.352C54.08,0.353 54.349,0.348 54.482,0.337C54.747,0.337 54.879,0.21 54.879,-0.043L54.879,-16.68ZM58.881,-14.907L69.748,-14.907L69.748,-13.953L58.881,-13.953L58.881,-14.907ZM64.949,-14.57L65.958,-14.57L65.958,-0.178C65.958,0.228 65.895,0.535 65.767,0.743C65.64,0.951 65.424,1.104 65.119,1.2C64.803,1.285 64.337,1.336 63.721,1.353C63.105,1.369 62.319,1.377 61.363,1.377C61.345,1.283 61.313,1.174 61.264,1.051C61.216,0.927 61.168,0.801 61.12,0.672C61.072,0.543 61.018,0.429 60.959,0.33C61.5,0.346 62.006,0.358 62.477,0.365C62.947,0.373 63.353,0.374 63.694,0.368C64.035,0.363 64.278,0.354 64.422,0.343C64.622,0.332 64.76,0.29 64.835,0.217C64.911,0.143 64.949,0.014 64.949,-0.17L64.949,-14.57Z" style="fill-rule:nonzero;"/>
            <path d="M78.727,-15.495C78.663,-15.286 78.606,-15.045 78.555,-14.774C78.504,-14.502 78.46,-14.254 78.422,-14.028C78.367,-13.708 78.29,-13.294 78.194,-12.785C78.097,-12.276 77.982,-11.717 77.85,-11.109C77.717,-10.501 77.576,-9.889 77.427,-9.273C77.278,-8.657 77.124,-8.081 76.967,-7.545C76.81,-7.01 76.656,-6.556 76.505,-6.182C77.415,-6.899 78.362,-7.409 79.347,-7.714C80.333,-8.018 81.389,-8.17 82.516,-8.17C83.576,-8.17 84.463,-8.009 85.179,-7.688C85.895,-7.366 86.437,-6.922 86.805,-6.356C87.173,-5.79 87.357,-5.138 87.357,-4.399C87.357,-3.407 87.108,-2.564 86.61,-1.871C86.113,-1.177 85.414,-0.632 84.513,-0.234C83.613,0.163 82.55,0.417 81.324,0.526C80.098,0.636 78.752,0.616 77.285,0.465L77.046,-0.542C78.236,-0.388 79.386,-0.341 80.497,-0.398C81.608,-0.455 82.601,-0.632 83.479,-0.927C84.356,-1.223 85.052,-1.652 85.568,-2.216C86.084,-2.779 86.341,-3.497 86.341,-4.37C86.341,-5.212 86.011,-5.909 85.351,-6.459C84.69,-7.009 83.719,-7.284 82.438,-7.284C81.227,-7.284 80.076,-7.081 78.987,-6.676C77.898,-6.27 77.001,-5.66 76.295,-4.847C76.168,-4.691 76.053,-4.538 75.951,-4.389C75.849,-4.24 75.745,-4.073 75.64,-3.889L74.662,-4.25C75.047,-5.004 75.399,-5.851 75.719,-6.791C76.039,-7.731 76.32,-8.676 76.562,-9.625C76.804,-10.574 77.003,-11.444 77.159,-12.235C77.314,-13.026 77.42,-13.655 77.475,-14.121C77.508,-14.388 77.534,-14.637 77.553,-14.867C77.572,-15.098 77.574,-15.331 77.558,-15.568L78.727,-15.495ZM72.957,-12.822C73.417,-12.746 73.983,-12.678 74.656,-12.616C75.328,-12.554 75.956,-12.523 76.54,-12.523C77.18,-12.523 77.897,-12.543 78.691,-12.583C79.485,-12.623 80.313,-12.683 81.177,-12.763C82.04,-12.843 82.899,-12.946 83.755,-13.073C84.61,-13.199 85.419,-13.349 86.18,-13.522L86.19,-12.49C85.445,-12.363 84.647,-12.244 83.798,-12.132C82.949,-12.019 82.095,-11.925 81.236,-11.85C80.377,-11.775 79.547,-11.715 78.747,-11.672C77.946,-11.629 77.218,-11.607 76.56,-11.607C75.926,-11.607 75.312,-11.627 74.718,-11.666C74.123,-11.705 73.542,-11.751 72.974,-11.804L72.957,-12.822Z" style="fill-rule:nonzero;"/>
            <path d="M99.997,-9.932L108.158,-9.932L108.158,-8.974L99.997,-8.974L99.997,-9.932ZM91.723,-0.41L109.511,-0.41L109.511,0.547L91.723,0.547L91.723,-0.41ZM99.432,-16.359L100.421,-16.359L100.421,0.07L99.432,0.07L99.432,-16.359Z" style="fill-rule:nonzero;"/>
            <path d="M125.273,-15.18C125.26,-15.05 125.249,-14.897 125.242,-14.722C125.234,-14.547 125.229,-14.347 125.227,-14.12C125.225,-13.987 125.227,-13.771 125.232,-13.47C125.238,-13.17 125.246,-12.825 125.257,-12.436C125.269,-12.047 125.277,-11.649 125.283,-11.243C125.288,-10.836 125.294,-10.458 125.3,-10.108C125.305,-9.759 125.308,-9.475 125.308,-9.258C125.308,-8.125 125.292,-7.059 125.259,-6.061C125.226,-5.063 125.095,-4.128 124.867,-3.256C124.639,-2.385 124.232,-1.575 123.646,-0.828C123.061,-0.081 122.221,0.602 121.126,1.219L120.174,0.481C120.444,0.373 120.739,0.222 121.059,0.028C121.378,-0.165 121.651,-0.362 121.877,-0.563C122.507,-1.069 122.992,-1.613 123.333,-2.196C123.674,-2.778 123.917,-3.421 124.062,-4.124C124.206,-4.827 124.291,-5.601 124.318,-6.446C124.344,-7.292 124.357,-8.23 124.357,-9.261C124.357,-9.549 124.352,-9.929 124.341,-10.402C124.329,-10.874 124.314,-11.364 124.295,-11.871C124.276,-12.378 124.26,-12.836 124.247,-13.245C124.234,-13.654 124.219,-13.94 124.204,-14.103C124.191,-14.323 124.166,-14.52 124.129,-14.695C124.092,-14.87 124.06,-15.031 124.031,-15.18L125.273,-15.18ZM118.52,-10.913C118.788,-10.873 119.113,-10.833 119.493,-10.794C119.874,-10.755 120.274,-10.726 120.693,-10.708C121.113,-10.689 121.502,-10.679 121.86,-10.679C122.661,-10.679 123.475,-10.699 124.3,-10.739C125.126,-10.779 125.93,-10.847 126.715,-10.944C127.499,-11.041 128.229,-11.176 128.902,-11.347L128.899,-10.29C128.252,-10.17 127.539,-10.067 126.76,-9.981C125.981,-9.895 125.174,-9.833 124.34,-9.794C123.505,-9.755 122.677,-9.735 121.856,-9.735C121.522,-9.735 121.144,-9.742 120.721,-9.755C120.298,-9.769 119.893,-9.785 119.506,-9.804C119.119,-9.823 118.79,-9.844 118.52,-9.869L118.52,-10.913ZM115.267,-14.904C115.23,-14.758 115.186,-14.585 115.135,-14.382C115.084,-14.18 115.038,-13.988 114.996,-13.807C114.811,-12.983 114.641,-12.096 114.486,-11.145C114.332,-10.195 114.216,-9.215 114.139,-8.208C114.063,-7.201 114.048,-6.195 114.095,-5.19C114.142,-4.185 114.28,-3.211 114.508,-2.268C114.652,-2.766 114.827,-3.329 115.032,-3.959C115.236,-4.589 115.44,-5.191 115.643,-5.764L116.266,-5.409C116.131,-5.017 115.979,-4.553 115.811,-4.014C115.642,-3.476 115.482,-2.956 115.332,-2.453C115.182,-1.95 115.071,-1.548 115,-1.246C114.972,-1.109 114.95,-0.962 114.934,-0.806C114.919,-0.649 114.917,-0.512 114.928,-0.394C114.939,-0.299 114.951,-0.198 114.963,-0.092C114.975,0.014 114.988,0.108 115.001,0.19L114.146,0.315C114.022,-0.096 113.88,-0.631 113.72,-1.289C113.561,-1.948 113.425,-2.679 113.314,-3.483C113.203,-4.287 113.148,-5.107 113.148,-5.943C113.148,-7.027 113.201,-8.07 113.307,-9.072C113.413,-10.074 113.532,-10.995 113.664,-11.834C113.797,-12.672 113.897,-13.37 113.966,-13.926C113.997,-14.131 114.019,-14.335 114.033,-14.536C114.046,-14.737 114.054,-14.906 114.056,-15.043L115.267,-14.904ZM126.884,-15.61C127.071,-15.264 127.281,-14.824 127.514,-14.29C127.748,-13.755 127.939,-13.278 128.089,-12.858L127.312,-12.573C127.167,-13.002 126.984,-13.482 126.761,-14.014C126.538,-14.547 126.333,-14.997 126.144,-15.366L126.884,-15.61ZM128.85,-16.203C129.036,-15.857 129.247,-15.422 129.481,-14.898C129.716,-14.373 129.915,-13.902 130.077,-13.484L129.304,-13.202C129.137,-13.651 128.949,-14.133 128.74,-14.648C128.531,-15.162 128.321,-15.598 128.11,-15.955L128.85,-16.203Z" style="fill-rule:nonzero;"/>
        </g>
        <g transform="matrix(1.4206,0,0,0.271043,-73.3186,93.3796)">
            <rect x="97.864" y="121.176" width="418.503" height="7.354"/>
        </g>
    </g>
</svg>
